%TF.GenerationSoftware,KiCad,Pcbnew,9.0.0*%
%TF.CreationDate,2025-02-28T21:47:31+01:00*%
%TF.ProjectId,ESP32S3_M.2_Board,45535033-3253-4335-9f4d-2e325f426f61,rev?*%
%TF.SameCoordinates,Original*%
%TF.FileFunction,Paste,Bot*%
%TF.FilePolarity,Positive*%
%FSLAX46Y46*%
G04 Gerber Fmt 4.6, Leading zero omitted, Abs format (unit mm)*
G04 Created by KiCad (PCBNEW 9.0.0) date 2025-02-28 21:47:31*
%MOMM*%
%LPD*%
G01*
G04 APERTURE LIST*
G04 Aperture macros list*
%AMRoundRect*
0 Rectangle with rounded corners*
0 $1 Rounding radius*
0 $2 $3 $4 $5 $6 $7 $8 $9 X,Y pos of 4 corners*
0 Add a 4 corners polygon primitive as box body*
4,1,4,$2,$3,$4,$5,$6,$7,$8,$9,$2,$3,0*
0 Add four circle primitives for the rounded corners*
1,1,$1+$1,$2,$3*
1,1,$1+$1,$4,$5*
1,1,$1+$1,$6,$7*
1,1,$1+$1,$8,$9*
0 Add four rect primitives between the rounded corners*
20,1,$1+$1,$2,$3,$4,$5,0*
20,1,$1+$1,$4,$5,$6,$7,0*
20,1,$1+$1,$6,$7,$8,$9,0*
20,1,$1+$1,$8,$9,$2,$3,0*%
G04 Aperture macros list end*
%ADD10O,1.800000X1.000000*%
%ADD11RoundRect,0.075000X0.625000X-0.075000X0.625000X0.075000X-0.625000X0.075000X-0.625000X-0.075000X0*%
%ADD12RoundRect,0.150000X0.550000X-0.150000X0.550000X0.150000X-0.550000X0.150000X-0.550000X-0.150000X0*%
%ADD13O,2.100000X1.000000*%
%ADD14R,1.400000X3.300000*%
%ADD15R,0.350000X2.500000*%
%ADD16RoundRect,0.150000X0.512500X0.150000X-0.512500X0.150000X-0.512500X-0.150000X0.512500X-0.150000X0*%
%ADD17R,1.800000X1.000000*%
%ADD18RoundRect,0.160000X-0.197500X-0.160000X0.197500X-0.160000X0.197500X0.160000X-0.197500X0.160000X0*%
%ADD19RoundRect,0.079500X-0.100500X0.079500X-0.100500X-0.079500X0.100500X-0.079500X0.100500X0.079500X0*%
%ADD20RoundRect,0.155000X0.212500X0.155000X-0.212500X0.155000X-0.212500X-0.155000X0.212500X-0.155000X0*%
%ADD21RoundRect,0.155000X-0.155000X0.212500X-0.155000X-0.212500X0.155000X-0.212500X0.155000X0.212500X0*%
%ADD22RoundRect,0.237500X-0.237500X0.287500X-0.237500X-0.287500X0.237500X-0.287500X0.237500X0.287500X0*%
%ADD23RoundRect,0.155000X-0.212500X-0.155000X0.212500X-0.155000X0.212500X0.155000X-0.212500X0.155000X0*%
%ADD24R,1.200000X1.400000*%
%ADD25RoundRect,0.160000X-0.160000X0.197500X-0.160000X-0.197500X0.160000X-0.197500X0.160000X0.197500X0*%
%ADD26RoundRect,0.155000X0.155000X-0.212500X0.155000X0.212500X-0.155000X0.212500X-0.155000X-0.212500X0*%
%ADD27RoundRect,0.160000X0.197500X0.160000X-0.197500X0.160000X-0.197500X-0.160000X0.197500X-0.160000X0*%
%ADD28RoundRect,0.150000X-0.150000X0.512500X-0.150000X-0.512500X0.150000X-0.512500X0.150000X0.512500X0*%
%ADD29RoundRect,0.160000X-0.222500X-0.160000X0.222500X-0.160000X0.222500X0.160000X-0.222500X0.160000X0*%
%ADD30RoundRect,0.160000X0.160000X-0.197500X0.160000X0.197500X-0.160000X0.197500X-0.160000X-0.197500X0*%
G04 APERTURE END LIST*
D10*
%TO.C,J1*%
X219685000Y-104620000D03*
D11*
X224560000Y-101050000D03*
X224560000Y-102050000D03*
X224560000Y-100050000D03*
X224560000Y-101550000D03*
D12*
X224560000Y-97100000D03*
D11*
X224560000Y-99050000D03*
D12*
X224560000Y-97100000D03*
D11*
X224560000Y-100550000D03*
D12*
X224560000Y-97900000D03*
X224560000Y-97900000D03*
D11*
X224560000Y-98550000D03*
X224560000Y-99550000D03*
D12*
X224560000Y-103500000D03*
X224560000Y-102700000D03*
X224560000Y-102700000D03*
X224560000Y-103500000D03*
D13*
X223865000Y-104620000D03*
D10*
X219685000Y-95980000D03*
D13*
X223865000Y-95980000D03*
%TD*%
D14*
%TO.C,L1*%
X237750000Y-101737500D03*
X234550000Y-101737500D03*
%TD*%
D15*
%TO.C,J2*%
X237900000Y-131850000D03*
X237400000Y-131850000D03*
X236900000Y-131850000D03*
X236400000Y-131850000D03*
X235900000Y-131850000D03*
X233400000Y-131850000D03*
X232900000Y-131850000D03*
X232400000Y-131850000D03*
X231900000Y-131850000D03*
X231400000Y-131850000D03*
X230900000Y-131850000D03*
X230400000Y-131850000D03*
X229900000Y-131850000D03*
X229400000Y-131850000D03*
X228900000Y-131850000D03*
X228400000Y-131850000D03*
X227900000Y-131850000D03*
X227400000Y-131850000D03*
X226900000Y-131850000D03*
X226400000Y-131850000D03*
X225900000Y-131850000D03*
X225400000Y-131850000D03*
X224900000Y-131850000D03*
X224400000Y-131850000D03*
X223900000Y-131850000D03*
X223400000Y-131850000D03*
X222900000Y-131850000D03*
X222400000Y-131850000D03*
X221900000Y-131850000D03*
X221400000Y-131850000D03*
X220900000Y-131850000D03*
X220400000Y-131850000D03*
X219900000Y-131850000D03*
%TD*%
D16*
%TO.C,U2*%
X235937500Y-96487500D03*
X235937500Y-97437500D03*
X235937500Y-98387500D03*
X233662500Y-98387500D03*
X233662500Y-96487500D03*
%TD*%
D17*
%TO.C,Y2*%
X230665000Y-123860000D03*
X230665000Y-121360000D03*
%TD*%
D18*
%TO.C,R7*%
X234352500Y-94550000D03*
X235547500Y-94550000D03*
%TD*%
D19*
%TO.C,JP2*%
X237650000Y-127755000D03*
X237650000Y-128445000D03*
%TD*%
D20*
%TO.C,C9*%
X219500000Y-119475000D03*
X218365000Y-119475000D03*
%TD*%
D21*
%TO.C,C20*%
X235300000Y-116732500D03*
X235300000Y-117867500D03*
%TD*%
D22*
%TO.C,L2*%
X219500000Y-116200000D03*
X219500000Y-117950000D03*
%TD*%
D21*
%TO.C,C13*%
X225600000Y-109415000D03*
X225600000Y-110550000D03*
%TD*%
D23*
%TO.C,C5*%
X238290000Y-123375000D03*
X239425000Y-123375000D03*
%TD*%
D24*
%TO.C,Y1*%
X218600000Y-110150000D03*
X218600000Y-107950000D03*
X220300000Y-107950000D03*
X220300000Y-110150000D03*
%TD*%
D25*
%TO.C,R8*%
X236800000Y-116702500D03*
X236800000Y-117897500D03*
%TD*%
D26*
%TO.C,C7*%
X237750000Y-98492500D03*
X237750000Y-97357500D03*
%TD*%
%TO.C,C21*%
X222250000Y-108017500D03*
X222250000Y-106882500D03*
%TD*%
%TO.C,C6*%
X231950000Y-98117500D03*
X231950000Y-96982500D03*
%TD*%
D27*
%TO.C,R2*%
X220772500Y-94150000D03*
X219577500Y-94150000D03*
%TD*%
%TO.C,R6*%
X235547500Y-93150000D03*
X234352500Y-93150000D03*
%TD*%
D28*
%TO.C,U1*%
X228150000Y-102012500D03*
X229100000Y-102012500D03*
X230050000Y-102012500D03*
X230050000Y-104287500D03*
X229100000Y-104287500D03*
X228150000Y-104287500D03*
%TD*%
D23*
%TO.C,C4*%
X238282500Y-124975000D03*
X239417500Y-124975000D03*
%TD*%
D20*
%TO.C,C10*%
X219500000Y-120750000D03*
X218365000Y-120750000D03*
%TD*%
D25*
%TO.C,R9*%
X222243071Y-109583871D03*
X222243071Y-110778871D03*
%TD*%
D18*
%TO.C,R1*%
X222052500Y-94150000D03*
X223247500Y-94150000D03*
%TD*%
D20*
%TO.C,C8*%
X219492500Y-114700000D03*
X218357500Y-114700000D03*
%TD*%
D29*
%TO.C,D1*%
X235977500Y-107250000D03*
X237122500Y-107250000D03*
%TD*%
D23*
%TO.C,C19*%
X218953210Y-111701651D03*
X220088210Y-111701651D03*
%TD*%
%TO.C,C22*%
X230152500Y-125257500D03*
X231287500Y-125257500D03*
%TD*%
D30*
%TO.C,R12*%
X238400000Y-109597500D03*
X238400000Y-108402500D03*
%TD*%
D25*
%TO.C,R11*%
X238400000Y-106052500D03*
X238400000Y-107247500D03*
%TD*%
D29*
%TO.C,D2*%
X235977500Y-108350000D03*
X237122500Y-108350000D03*
%TD*%
D21*
%TO.C,C14*%
X224225000Y-109415000D03*
X224225000Y-110550000D03*
%TD*%
%TO.C,C17*%
X234250000Y-116732500D03*
X234250000Y-117867500D03*
%TD*%
D23*
%TO.C,C24*%
X230152500Y-119982500D03*
X231287500Y-119982500D03*
%TD*%
M02*
