%TF.GenerationSoftware,KiCad,Pcbnew,9.0.0*%
%TF.CreationDate,2025-02-28T21:47:30+01:00*%
%TF.ProjectId,ESP32S3_M.2_Board,45535033-3253-4335-9f4d-2e325f426f61,rev?*%
%TF.SameCoordinates,Original*%
%TF.FileFunction,Copper,L3,Inr*%
%TF.FilePolarity,Positive*%
%FSLAX46Y46*%
G04 Gerber Fmt 4.6, Leading zero omitted, Abs format (unit mm)*
G04 Created by KiCad (PCBNEW 9.0.0) date 2025-02-28 21:47:30*
%MOMM*%
%LPD*%
G01*
G04 APERTURE LIST*
%TA.AperFunction,ComponentPad*%
%ADD10C,5.500000*%
%TD*%
%TA.AperFunction,ViaPad*%
%ADD11C,0.450000*%
%TD*%
%TA.AperFunction,Conductor*%
%ADD12C,0.250000*%
%TD*%
%TA.AperFunction,Conductor*%
%ADD13C,0.150000*%
%TD*%
G04 APERTURE END LIST*
D10*
%TO.N,unconnected-(J2-MP1-PadMOUNTING-HOLE)*%
%TO.C,J2*%
X228900000Y-91100000D03*
%TD*%
D11*
%TO.N,VBUS*%
X230325000Y-98850000D03*
X230325000Y-97595997D03*
X226250000Y-102350000D03*
X229100000Y-103200000D03*
X225600000Y-102675000D03*
X230900000Y-98529003D03*
X239850000Y-108850000D03*
X226875000Y-97900000D03*
X230900000Y-97925000D03*
X230325000Y-98200000D03*
X229725000Y-98500000D03*
X225950000Y-97900000D03*
X229725000Y-97925000D03*
%TO.N,Earth*%
X222880000Y-129650000D03*
X235550000Y-95350000D03*
X239150000Y-113900000D03*
X218700000Y-97650000D03*
X224390000Y-129635000D03*
X232425000Y-124125000D03*
X230875000Y-96100000D03*
X218548439Y-106630888D03*
X218365000Y-121475000D03*
X231500000Y-105175000D03*
X237500000Y-91800000D03*
X218365000Y-118690000D03*
X225575000Y-96675000D03*
X228200000Y-100750000D03*
X231650000Y-101850000D03*
X239425000Y-122400000D03*
X218700000Y-102825000D03*
X233390000Y-129582500D03*
X219880000Y-129677500D03*
X236650000Y-129725000D03*
X225915000Y-129632500D03*
X239425000Y-125800000D03*
X231450000Y-115075000D03*
X228880000Y-129625000D03*
X220899569Y-111701651D03*
X218350000Y-113825000D03*
X234900000Y-107800000D03*
X223575000Y-106550000D03*
X238900000Y-98175000D03*
X235100000Y-129050000D03*
X233500000Y-117600000D03*
X233850000Y-91750000D03*
X226000000Y-120850000D03*
X231880000Y-129597500D03*
X221400000Y-110150000D03*
X236650000Y-129120997D03*
X239100000Y-117300000D03*
X232400000Y-121450000D03*
X221390000Y-129677500D03*
X230390000Y-129625000D03*
X239425000Y-127425000D03*
X223400000Y-109300000D03*
X226000000Y-103700000D03*
X227390000Y-129625000D03*
X235100000Y-128445997D03*
%TO.N,+3V3*%
X238875000Y-103150000D03*
X225600000Y-108600000D03*
X224900000Y-108750000D03*
X237375000Y-123200000D03*
X238650000Y-103725000D03*
X235825000Y-103450000D03*
X238750000Y-100425000D03*
X226025000Y-119700000D03*
X237375000Y-123925000D03*
X235550000Y-91750000D03*
X237375000Y-125375000D03*
X238750000Y-99775000D03*
X219500000Y-121475000D03*
X228625000Y-96550000D03*
X230340000Y-107735000D03*
X237375000Y-124650000D03*
X238275000Y-99350000D03*
X237400000Y-109550000D03*
%TO.N,/OSC_IN*%
X224425000Y-107975000D03*
%TO.N,/OSC_OUT*%
X223825000Y-107350000D03*
%TO.N,/OSC32_IN*%
X229225000Y-121125000D03*
%TO.N,/OSC32_OUT*%
X229365000Y-119960000D03*
%TO.N,VDD_SPI*%
X235300000Y-116000000D03*
X237100000Y-112500000D03*
X233500000Y-116750000D03*
%TO.N,/USB_D+*%
X230050000Y-105250000D03*
X231406100Y-118593900D03*
%TO.N,/USB_D-*%
X228150000Y-105250000D03*
X230537200Y-118562800D03*
%TO.N,/FLASH_QSPI_nCS*%
X237200000Y-114910000D03*
%TO.N,/FLASH_QSPI_nH*%
X237100000Y-113412500D03*
X235440000Y-115085000D03*
%TO.N,/FLASH_QSPI_DO*%
X235065000Y-112935000D03*
X236165000Y-113510000D03*
%TO.N,+3V3_RF*%
X219500000Y-113825000D03*
%TO.N,/CHIP_PU*%
X233000000Y-104925000D03*
X226375000Y-110450000D03*
%TO.N,/CHIP_BOOT*%
X226350000Y-111575000D03*
X233125000Y-106175000D03*
%TO.N,/GPIO33*%
X235640000Y-109460000D03*
%TO.N,/GPIO18*%
X231840000Y-126385000D03*
%TO.N,/GPIO35*%
X234015000Y-109460000D03*
%TO.N,/GPIO21*%
X232137500Y-118187500D03*
%TO.N,/SPICLK_P*%
X236465000Y-109460000D03*
%TO.N,/MTCK*%
X232825000Y-106950000D03*
%TO.N,/GPIO37*%
X232390000Y-109460000D03*
%TO.N,/GPIO17*%
X231827500Y-127297500D03*
%TO.N,/MTDO*%
X231800000Y-106950000D03*
%TO.N,/GPIO34*%
X234815000Y-109460000D03*
%TO.N,/U0RXD*%
X228515000Y-110060000D03*
%TO.N,/U0TXD*%
X229340000Y-110060000D03*
%TO.N,/SPICS1*%
X233212500Y-118412500D03*
%TO.N,/MTDI*%
X229740000Y-106960000D03*
%TO.N,/GPIO36*%
X233215000Y-109460000D03*
%TO.N,/GPIO46*%
X229825000Y-99850000D03*
X227315000Y-106960000D03*
%TO.N,/SPICLK_N*%
X237015000Y-110310000D03*
%TO.N,/MTMS*%
X228940000Y-106960000D03*
%TO.N,/GPIO38*%
X233625000Y-106950000D03*
%TO.N,/GPIO45*%
X228140000Y-106960000D03*
%TO.N,Net-(U2-EN)*%
X239775000Y-104800000D03*
%TD*%
D12*
%TO.N,VBUS*%
X225600000Y-102500000D02*
X225725000Y-102375000D01*
X225600000Y-102675000D02*
X225600000Y-102500000D01*
X225725000Y-102375000D02*
X226225000Y-102375000D01*
X226225000Y-102375000D02*
X226250000Y-102350000D01*
X227125000Y-103200000D02*
X229100000Y-103200000D01*
X226275000Y-102350000D02*
X227125000Y-103200000D01*
X226250000Y-102350000D02*
X226275000Y-102350000D01*
X226875000Y-97900000D02*
X225950000Y-97900000D01*
D13*
%TO.N,VDD_SPI*%
X237100000Y-112500000D02*
X237700000Y-113100000D01*
X237700000Y-113100000D02*
X237700000Y-113609889D01*
X235359889Y-115950000D02*
X235300000Y-115950000D01*
X237700000Y-113609889D02*
X235359889Y-115950000D01*
X235300000Y-115950000D02*
X235300000Y-116000000D01*
%TD*%
%TA.AperFunction,Conductor*%
%TO.N,VBUS*%
G36*
X231090677Y-97219685D02*
G01*
X231111319Y-97236319D01*
X231363681Y-97488681D01*
X231397166Y-97550004D01*
X231400000Y-97576362D01*
X231400000Y-98898638D01*
X231380315Y-98965677D01*
X231363681Y-98986319D01*
X231161319Y-99188681D01*
X231099996Y-99222166D01*
X231073638Y-99225000D01*
X230233101Y-99225000D01*
X230175080Y-99207963D01*
X230174023Y-99209941D01*
X230168655Y-99207071D01*
X230036620Y-99152381D01*
X230036614Y-99152379D01*
X229896457Y-99124500D01*
X229896455Y-99124500D01*
X229753545Y-99124500D01*
X229753543Y-99124500D01*
X229613385Y-99152379D01*
X229613379Y-99152381D01*
X229481344Y-99207071D01*
X229475977Y-99209941D01*
X229474713Y-99207577D01*
X229419074Y-99224981D01*
X229416899Y-99225000D01*
X226675000Y-99225000D01*
X226500000Y-99499999D01*
X226500000Y-102491238D01*
X226480315Y-102558277D01*
X226454522Y-102587209D01*
X226015423Y-102946471D01*
X225957852Y-102972718D01*
X225947456Y-102974500D01*
X225928545Y-102974500D01*
X225810688Y-102997943D01*
X225809087Y-102998218D01*
X225807776Y-102998065D01*
X225788138Y-103000000D01*
X225214374Y-103000000D01*
X225147335Y-102980315D01*
X225101580Y-102927511D01*
X225096737Y-102915211D01*
X225081363Y-102869088D01*
X225075000Y-102829877D01*
X225075000Y-97776362D01*
X225083644Y-97746921D01*
X225090168Y-97716935D01*
X225093922Y-97711919D01*
X225094685Y-97709323D01*
X225111319Y-97688681D01*
X225238681Y-97561319D01*
X225300004Y-97527834D01*
X225326362Y-97525000D01*
X228875000Y-97525000D01*
X229163681Y-97236319D01*
X229225004Y-97202834D01*
X229251362Y-97200000D01*
X231023638Y-97200000D01*
X231090677Y-97219685D01*
G37*
%TD.AperFunction*%
%TD*%
%TA.AperFunction,Conductor*%
%TO.N,+3V3*%
G36*
X233095751Y-91420185D02*
G01*
X233141506Y-91472989D01*
X233151450Y-91542147D01*
X233150329Y-91548691D01*
X233124500Y-91678540D01*
X233124500Y-91678545D01*
X233124500Y-91821455D01*
X233124500Y-91821457D01*
X233124499Y-91821457D01*
X233152379Y-91961614D01*
X233152381Y-91961620D01*
X233207069Y-92093650D01*
X233207074Y-92093659D01*
X233286467Y-92212478D01*
X233286470Y-92212482D01*
X233387517Y-92313529D01*
X233387521Y-92313532D01*
X233506340Y-92392925D01*
X233506346Y-92392928D01*
X233506347Y-92392929D01*
X233638380Y-92447619D01*
X233638384Y-92447619D01*
X233638385Y-92447620D01*
X233778542Y-92475500D01*
X233778545Y-92475500D01*
X233921457Y-92475500D01*
X234015751Y-92456742D01*
X234061620Y-92447619D01*
X234193653Y-92392929D01*
X234312479Y-92313532D01*
X234413532Y-92212479D01*
X234492929Y-92093653D01*
X234547619Y-91961620D01*
X234575500Y-91821455D01*
X234575500Y-91678545D01*
X234575500Y-91678542D01*
X234575499Y-91678540D01*
X234549671Y-91548691D01*
X234555898Y-91479100D01*
X234598761Y-91423922D01*
X234664651Y-91400678D01*
X234671288Y-91400500D01*
X236694624Y-91400500D01*
X236761663Y-91420185D01*
X236807418Y-91472989D01*
X236817362Y-91542147D01*
X236809186Y-91571951D01*
X236802381Y-91588379D01*
X236802379Y-91588385D01*
X236774500Y-91728542D01*
X236774500Y-91728545D01*
X236774500Y-91871455D01*
X236774500Y-91871457D01*
X236774499Y-91871457D01*
X236802379Y-92011614D01*
X236802381Y-92011620D01*
X236857069Y-92143650D01*
X236857074Y-92143659D01*
X236936467Y-92262478D01*
X236936470Y-92262482D01*
X237037517Y-92363529D01*
X237037521Y-92363532D01*
X237156340Y-92442925D01*
X237156349Y-92442930D01*
X237167672Y-92447620D01*
X237288380Y-92497619D01*
X237288384Y-92497619D01*
X237288385Y-92497620D01*
X237428542Y-92525500D01*
X237428545Y-92525500D01*
X237571457Y-92525500D01*
X237665751Y-92506742D01*
X237711620Y-92497619D01*
X237843653Y-92442929D01*
X237962479Y-92363532D01*
X238063532Y-92262479D01*
X238142929Y-92143653D01*
X238197619Y-92011620D01*
X238225500Y-91871455D01*
X238225500Y-91728545D01*
X238225500Y-91728542D01*
X238197620Y-91588385D01*
X238197619Y-91588384D01*
X238197619Y-91588380D01*
X238190814Y-91571951D01*
X238183347Y-91502481D01*
X238214623Y-91440002D01*
X238274712Y-91404351D01*
X238305376Y-91400500D01*
X239852405Y-91400500D01*
X239890244Y-91400500D01*
X239909630Y-91402025D01*
X239942253Y-91407192D01*
X239979144Y-91419178D01*
X239999765Y-91429685D01*
X240031151Y-91452489D01*
X240047510Y-91468848D01*
X240070314Y-91500234D01*
X240080820Y-91520853D01*
X240092808Y-91557748D01*
X240097973Y-91590362D01*
X240099500Y-91609755D01*
X240099500Y-103973739D01*
X240079815Y-104040778D01*
X240027011Y-104086533D01*
X239957853Y-104096477D01*
X239951309Y-104095356D01*
X239846459Y-104074500D01*
X239846455Y-104074500D01*
X239703545Y-104074500D01*
X239703543Y-104074500D01*
X239563385Y-104102379D01*
X239563379Y-104102381D01*
X239431349Y-104157069D01*
X239431340Y-104157074D01*
X239312521Y-104236467D01*
X239312517Y-104236470D01*
X239211470Y-104337517D01*
X239211467Y-104337521D01*
X239132074Y-104456340D01*
X239132069Y-104456349D01*
X239077381Y-104588379D01*
X239077379Y-104588385D01*
X239049500Y-104728542D01*
X239049500Y-104728545D01*
X239049500Y-104871455D01*
X239049500Y-104871457D01*
X239049499Y-104871457D01*
X239077379Y-105011614D01*
X239077381Y-105011620D01*
X239132069Y-105143650D01*
X239132074Y-105143659D01*
X239211467Y-105262478D01*
X239211470Y-105262482D01*
X239312517Y-105363529D01*
X239312521Y-105363532D01*
X239431340Y-105442925D01*
X239431346Y-105442928D01*
X239431347Y-105442929D01*
X239563380Y-105497619D01*
X239563384Y-105497619D01*
X239563385Y-105497620D01*
X239703542Y-105525500D01*
X239703545Y-105525500D01*
X239846457Y-105525500D01*
X239929184Y-105509043D01*
X239951308Y-105504643D01*
X240020899Y-105510870D01*
X240076077Y-105553732D01*
X240099322Y-105619622D01*
X240099500Y-105626260D01*
X240099500Y-108008820D01*
X240079815Y-108075859D01*
X240027011Y-108121614D01*
X239957853Y-108131558D01*
X239951311Y-108130438D01*
X239921456Y-108124500D01*
X239921455Y-108124500D01*
X239778545Y-108124500D01*
X239778543Y-108124500D01*
X239638385Y-108152379D01*
X239638379Y-108152381D01*
X239506349Y-108207069D01*
X239506340Y-108207074D01*
X239387521Y-108286467D01*
X239387517Y-108286470D01*
X239286470Y-108387517D01*
X239286467Y-108387521D01*
X239207074Y-108506340D01*
X239207069Y-108506349D01*
X239152381Y-108638379D01*
X239152379Y-108638385D01*
X239124500Y-108778542D01*
X239124500Y-108778545D01*
X239124500Y-108921455D01*
X239124500Y-108921457D01*
X239124499Y-108921457D01*
X239152379Y-109061614D01*
X239152381Y-109061620D01*
X239207069Y-109193650D01*
X239207074Y-109193659D01*
X239286467Y-109312478D01*
X239286470Y-109312482D01*
X239387517Y-109413529D01*
X239387521Y-109413532D01*
X239506340Y-109492925D01*
X239506349Y-109492930D01*
X239536258Y-109505318D01*
X239638380Y-109547619D01*
X239638384Y-109547619D01*
X239638385Y-109547620D01*
X239778542Y-109575500D01*
X239778545Y-109575500D01*
X239921456Y-109575500D01*
X239951308Y-109569562D01*
X240020899Y-109575789D01*
X240076077Y-109618651D01*
X240099322Y-109684541D01*
X240099500Y-109691179D01*
X240099500Y-113695676D01*
X240079815Y-113762715D01*
X240027011Y-113808470D01*
X239957853Y-113818414D01*
X239894297Y-113789389D01*
X239856523Y-113730611D01*
X239853883Y-113719868D01*
X239847620Y-113688385D01*
X239847619Y-113688384D01*
X239847619Y-113688380D01*
X239792929Y-113556347D01*
X239792928Y-113556346D01*
X239792925Y-113556340D01*
X239713532Y-113437521D01*
X239713529Y-113437517D01*
X239612482Y-113336470D01*
X239612478Y-113336467D01*
X239493659Y-113257074D01*
X239493650Y-113257069D01*
X239361620Y-113202381D01*
X239361614Y-113202379D01*
X239221457Y-113174500D01*
X239221455Y-113174500D01*
X239078545Y-113174500D01*
X239078543Y-113174500D01*
X238938385Y-113202379D01*
X238938379Y-113202381D01*
X238806349Y-113257069D01*
X238806340Y-113257074D01*
X238687521Y-113336467D01*
X238687517Y-113336470D01*
X238586470Y-113437517D01*
X238586467Y-113437521D01*
X238503686Y-113561412D01*
X238501821Y-113560166D01*
X238459895Y-113602847D01*
X238391758Y-113618307D01*
X238326078Y-113594475D01*
X238283709Y-113538917D01*
X238275500Y-113494549D01*
X238275500Y-113024235D01*
X238275500Y-113024234D01*
X238270420Y-113005276D01*
X238236281Y-112877865D01*
X238160515Y-112746635D01*
X237847894Y-112434014D01*
X237814409Y-112372691D01*
X237813985Y-112370659D01*
X237797619Y-112288380D01*
X237746153Y-112164130D01*
X237742930Y-112156349D01*
X237742925Y-112156340D01*
X237663532Y-112037521D01*
X237663529Y-112037517D01*
X237562482Y-111936470D01*
X237562478Y-111936467D01*
X237443659Y-111857074D01*
X237443650Y-111857069D01*
X237311620Y-111802381D01*
X237311614Y-111802379D01*
X237171457Y-111774500D01*
X237171455Y-111774500D01*
X237028545Y-111774500D01*
X237028543Y-111774500D01*
X236888385Y-111802379D01*
X236888379Y-111802381D01*
X236756349Y-111857069D01*
X236756340Y-111857074D01*
X236637521Y-111936467D01*
X236637517Y-111936470D01*
X236536470Y-112037517D01*
X236536467Y-112037521D01*
X236457074Y-112156340D01*
X236457069Y-112156349D01*
X236402381Y-112288379D01*
X236402379Y-112288385D01*
X236374500Y-112428542D01*
X236374500Y-112571454D01*
X236388105Y-112639854D01*
X236381876Y-112709445D01*
X236339013Y-112764622D01*
X236273123Y-112787866D01*
X236242297Y-112785662D01*
X236236455Y-112784500D01*
X236093545Y-112784500D01*
X236093543Y-112784500D01*
X235953385Y-112812379D01*
X235953380Y-112812381D01*
X235933085Y-112820787D01*
X235863615Y-112828253D01*
X235801137Y-112796976D01*
X235765487Y-112736886D01*
X235764019Y-112730417D01*
X235763703Y-112728833D01*
X235762619Y-112723380D01*
X235707929Y-112591347D01*
X235707928Y-112591346D01*
X235707925Y-112591340D01*
X235628532Y-112472521D01*
X235628529Y-112472517D01*
X235527482Y-112371470D01*
X235527478Y-112371467D01*
X235408659Y-112292074D01*
X235408650Y-112292069D01*
X235276620Y-112237381D01*
X235276614Y-112237379D01*
X235136457Y-112209500D01*
X235136455Y-112209500D01*
X234993545Y-112209500D01*
X234993543Y-112209500D01*
X234853385Y-112237379D01*
X234853379Y-112237381D01*
X234721349Y-112292069D01*
X234721340Y-112292074D01*
X234602521Y-112371467D01*
X234602517Y-112371470D01*
X234501470Y-112472517D01*
X234501467Y-112472521D01*
X234422074Y-112591340D01*
X234422069Y-112591349D01*
X234367381Y-112723379D01*
X234367379Y-112723385D01*
X234339500Y-112863542D01*
X234339500Y-112863545D01*
X234339500Y-113006455D01*
X234339500Y-113006457D01*
X234339499Y-113006457D01*
X234367379Y-113146614D01*
X234367381Y-113146620D01*
X234422069Y-113278650D01*
X234422074Y-113278659D01*
X234501467Y-113397478D01*
X234501470Y-113397482D01*
X234602517Y-113498529D01*
X234602521Y-113498532D01*
X234721340Y-113577925D01*
X234721346Y-113577928D01*
X234721347Y-113577929D01*
X234853380Y-113632619D01*
X234853384Y-113632619D01*
X234853385Y-113632620D01*
X234993542Y-113660500D01*
X234993545Y-113660500D01*
X235136457Y-113660500D01*
X235230751Y-113641742D01*
X235276620Y-113632619D01*
X235296909Y-113624215D01*
X235366378Y-113616745D01*
X235428858Y-113648019D01*
X235464511Y-113708107D01*
X235465979Y-113714575D01*
X235467380Y-113721616D01*
X235467381Y-113721620D01*
X235522069Y-113853650D01*
X235522074Y-113853659D01*
X235601467Y-113972478D01*
X235601470Y-113972482D01*
X235702517Y-114073529D01*
X235702521Y-114073532D01*
X235821340Y-114152925D01*
X235821346Y-114152928D01*
X235821347Y-114152929D01*
X235953380Y-114207619D01*
X236005278Y-114217942D01*
X236014282Y-114222652D01*
X236024418Y-114223377D01*
X236044714Y-114238570D01*
X236067188Y-114250326D01*
X236072217Y-114259159D01*
X236080352Y-114265248D01*
X236089212Y-114289003D01*
X236101762Y-114311041D01*
X236101218Y-114321189D01*
X236104770Y-114330712D01*
X236099379Y-114355491D01*
X236098023Y-114380811D01*
X236091683Y-114390871D01*
X236089919Y-114398985D01*
X236068768Y-114427239D01*
X236017636Y-114478372D01*
X235956313Y-114511858D01*
X235886622Y-114506874D01*
X235861063Y-114493794D01*
X235783659Y-114442074D01*
X235783650Y-114442069D01*
X235651620Y-114387381D01*
X235651614Y-114387379D01*
X235511457Y-114359500D01*
X235511455Y-114359500D01*
X235368545Y-114359500D01*
X235368543Y-114359500D01*
X235228385Y-114387379D01*
X235228379Y-114387381D01*
X235096349Y-114442069D01*
X235096340Y-114442074D01*
X234977521Y-114521467D01*
X234977517Y-114521470D01*
X234876470Y-114622517D01*
X234876467Y-114622521D01*
X234797074Y-114741340D01*
X234797069Y-114741349D01*
X234742381Y-114873379D01*
X234742379Y-114873385D01*
X234714500Y-115013542D01*
X234714500Y-115013545D01*
X234714500Y-115156455D01*
X234714500Y-115156457D01*
X234714499Y-115156457D01*
X234742379Y-115296614D01*
X234742382Y-115296624D01*
X234779500Y-115386235D01*
X234786969Y-115455704D01*
X234755694Y-115518183D01*
X234752622Y-115521366D01*
X234736470Y-115537518D01*
X234736465Y-115537524D01*
X234657074Y-115656340D01*
X234657069Y-115656349D01*
X234602381Y-115788379D01*
X234602379Y-115788385D01*
X234574500Y-115928542D01*
X234574500Y-115928545D01*
X234574500Y-116071455D01*
X234574500Y-116071457D01*
X234574499Y-116071457D01*
X234602379Y-116211614D01*
X234602381Y-116211620D01*
X234657069Y-116343650D01*
X234657074Y-116343659D01*
X234736467Y-116462478D01*
X234736470Y-116462482D01*
X234837517Y-116563529D01*
X234837521Y-116563532D01*
X234956340Y-116642925D01*
X234956346Y-116642928D01*
X234956347Y-116642929D01*
X235088380Y-116697619D01*
X235088384Y-116697619D01*
X235088385Y-116697620D01*
X235228542Y-116725500D01*
X235228545Y-116725500D01*
X235371457Y-116725500D01*
X235465751Y-116706742D01*
X235511620Y-116697619D01*
X235643653Y-116642929D01*
X235762479Y-116563532D01*
X235863532Y-116462479D01*
X235942929Y-116343653D01*
X235997619Y-116211620D01*
X236011503Y-116141816D01*
X236043885Y-116079910D01*
X236045380Y-116078387D01*
X236613240Y-115510527D01*
X236674562Y-115477044D01*
X236744254Y-115482028D01*
X236769811Y-115495108D01*
X236856340Y-115552925D01*
X236856346Y-115552928D01*
X236856347Y-115552929D01*
X236988380Y-115607619D01*
X236988384Y-115607619D01*
X236988385Y-115607620D01*
X237128542Y-115635500D01*
X237128545Y-115635500D01*
X237271457Y-115635500D01*
X237365751Y-115616742D01*
X237411620Y-115607619D01*
X237543653Y-115552929D01*
X237662479Y-115473532D01*
X237763532Y-115372479D01*
X237842929Y-115253653D01*
X237897619Y-115121620D01*
X237919117Y-115013545D01*
X237925500Y-114981457D01*
X237925500Y-114838542D01*
X237897620Y-114698385D01*
X237897619Y-114698384D01*
X237897619Y-114698380D01*
X237842929Y-114566347D01*
X237842928Y-114566346D01*
X237842925Y-114566340D01*
X237785108Y-114479811D01*
X237764230Y-114413133D01*
X237782715Y-114345753D01*
X237800525Y-114323243D01*
X238160515Y-113963254D01*
X238193113Y-113906793D01*
X238243680Y-113858577D01*
X238312287Y-113845355D01*
X238377152Y-113871323D01*
X238417680Y-113928237D01*
X238424500Y-113968793D01*
X238424500Y-113971455D01*
X238424500Y-113971457D01*
X238424499Y-113971457D01*
X238452379Y-114111614D01*
X238452381Y-114111620D01*
X238507069Y-114243650D01*
X238507074Y-114243659D01*
X238586467Y-114362478D01*
X238586470Y-114362482D01*
X238687517Y-114463529D01*
X238687521Y-114463532D01*
X238806340Y-114542925D01*
X238806346Y-114542928D01*
X238806347Y-114542929D01*
X238938380Y-114597619D01*
X238938384Y-114597619D01*
X238938385Y-114597620D01*
X239078542Y-114625500D01*
X239078545Y-114625500D01*
X239221457Y-114625500D01*
X239315751Y-114606742D01*
X239361620Y-114597619D01*
X239493653Y-114542929D01*
X239612479Y-114463532D01*
X239713532Y-114362479D01*
X239792929Y-114243653D01*
X239847619Y-114111620D01*
X239853883Y-114080131D01*
X239886268Y-114018220D01*
X239946984Y-113983646D01*
X240016753Y-113987386D01*
X240073425Y-114028253D01*
X240099007Y-114093271D01*
X240099500Y-114104323D01*
X240099500Y-121749126D01*
X240079815Y-121816165D01*
X240027011Y-121861920D01*
X239957853Y-121871864D01*
X239894297Y-121842839D01*
X239887819Y-121836807D01*
X239887482Y-121836470D01*
X239887478Y-121836467D01*
X239768659Y-121757074D01*
X239768650Y-121757069D01*
X239636620Y-121702381D01*
X239636614Y-121702379D01*
X239496457Y-121674500D01*
X239496455Y-121674500D01*
X239353545Y-121674500D01*
X239353543Y-121674500D01*
X239213385Y-121702379D01*
X239213379Y-121702381D01*
X239081349Y-121757069D01*
X239081340Y-121757074D01*
X238962521Y-121836467D01*
X238962517Y-121836470D01*
X238861470Y-121937517D01*
X238861467Y-121937521D01*
X238782074Y-122056340D01*
X238782069Y-122056349D01*
X238727381Y-122188379D01*
X238727379Y-122188385D01*
X238699500Y-122328542D01*
X238699500Y-122328545D01*
X238699500Y-122471455D01*
X238699500Y-122471457D01*
X238699499Y-122471457D01*
X238727379Y-122611614D01*
X238727381Y-122611620D01*
X238782069Y-122743650D01*
X238782074Y-122743659D01*
X238861467Y-122862478D01*
X238861470Y-122862482D01*
X238962517Y-122963529D01*
X238962521Y-122963532D01*
X239081340Y-123042925D01*
X239081346Y-123042928D01*
X239081347Y-123042929D01*
X239213380Y-123097619D01*
X239213384Y-123097619D01*
X239213385Y-123097620D01*
X239353542Y-123125500D01*
X239353545Y-123125500D01*
X239496457Y-123125500D01*
X239590751Y-123106742D01*
X239636620Y-123097619D01*
X239768653Y-123042929D01*
X239887479Y-122963532D01*
X239887482Y-122963529D01*
X239887819Y-122963193D01*
X239888038Y-122963073D01*
X239892189Y-122959667D01*
X239892834Y-122960454D01*
X239949142Y-122929708D01*
X240018834Y-122934692D01*
X240074767Y-122976564D01*
X240099184Y-123042028D01*
X240099500Y-123050874D01*
X240099500Y-125149126D01*
X240079815Y-125216165D01*
X240027011Y-125261920D01*
X239957853Y-125271864D01*
X239894297Y-125242839D01*
X239887819Y-125236807D01*
X239887482Y-125236470D01*
X239887478Y-125236467D01*
X239768659Y-125157074D01*
X239768650Y-125157069D01*
X239636620Y-125102381D01*
X239636614Y-125102379D01*
X239496457Y-125074500D01*
X239496455Y-125074500D01*
X239353545Y-125074500D01*
X239353543Y-125074500D01*
X239213385Y-125102379D01*
X239213379Y-125102381D01*
X239081349Y-125157069D01*
X239081340Y-125157074D01*
X238962521Y-125236467D01*
X238962517Y-125236470D01*
X238861470Y-125337517D01*
X238861467Y-125337521D01*
X238782074Y-125456340D01*
X238782069Y-125456349D01*
X238727381Y-125588379D01*
X238727379Y-125588385D01*
X238699500Y-125728542D01*
X238699500Y-125728545D01*
X238699500Y-125871455D01*
X238699500Y-125871457D01*
X238699499Y-125871457D01*
X238727379Y-126011614D01*
X238727381Y-126011620D01*
X238782069Y-126143650D01*
X238782074Y-126143659D01*
X238861467Y-126262478D01*
X238861470Y-126262482D01*
X238962517Y-126363529D01*
X238962521Y-126363532D01*
X239081340Y-126442925D01*
X239081344Y-126442927D01*
X239081347Y-126442929D01*
X239150064Y-126471392D01*
X239214152Y-126497939D01*
X239268555Y-126541780D01*
X239290620Y-126608074D01*
X239273341Y-126675774D01*
X239222203Y-126723384D01*
X239214152Y-126727061D01*
X239081350Y-126782069D01*
X239081340Y-126782074D01*
X238962521Y-126861467D01*
X238962517Y-126861470D01*
X238861470Y-126962517D01*
X238861467Y-126962521D01*
X238782074Y-127081340D01*
X238782069Y-127081349D01*
X238727381Y-127213379D01*
X238727379Y-127213385D01*
X238699500Y-127353542D01*
X238699500Y-127353545D01*
X238699500Y-127496455D01*
X238699500Y-127496457D01*
X238699499Y-127496457D01*
X238727379Y-127636614D01*
X238727381Y-127636620D01*
X238782069Y-127768650D01*
X238782074Y-127768659D01*
X238861467Y-127887478D01*
X238861470Y-127887482D01*
X238962517Y-127988529D01*
X238962521Y-127988532D01*
X239081340Y-128067925D01*
X239081346Y-128067928D01*
X239081347Y-128067929D01*
X239213380Y-128122619D01*
X239213384Y-128122619D01*
X239213385Y-128122620D01*
X239353542Y-128150500D01*
X239353545Y-128150500D01*
X239496457Y-128150500D01*
X239590751Y-128131742D01*
X239636620Y-128122619D01*
X239768653Y-128067929D01*
X239887479Y-127988532D01*
X239887482Y-127988529D01*
X239887819Y-127988193D01*
X239888038Y-127988073D01*
X239892189Y-127984667D01*
X239892834Y-127985454D01*
X239949142Y-127954708D01*
X240018834Y-127959692D01*
X240074767Y-128001564D01*
X240099184Y-128067028D01*
X240099500Y-128075874D01*
X240099500Y-128675500D01*
X240079815Y-128742539D01*
X240027011Y-128788294D01*
X239975500Y-128799500D01*
X239271155Y-128799500D01*
X239116510Y-128830261D01*
X239116498Y-128830264D01*
X238970827Y-128890602D01*
X238970814Y-128890609D01*
X238839711Y-128978210D01*
X238839707Y-128978213D01*
X238728213Y-129089707D01*
X238728210Y-129089711D01*
X238640609Y-129220814D01*
X238640602Y-129220827D01*
X238580264Y-129366498D01*
X238580261Y-129366510D01*
X238549500Y-129521153D01*
X238549500Y-132675500D01*
X238529815Y-132742539D01*
X238477011Y-132788294D01*
X238425500Y-132799500D01*
X235524500Y-132799500D01*
X235457461Y-132779815D01*
X235411706Y-132727011D01*
X235400500Y-132675500D01*
X235400500Y-130111306D01*
X235400499Y-130111304D01*
X235365896Y-129937341D01*
X235365893Y-129937332D01*
X235365326Y-129935964D01*
X235352096Y-129904024D01*
X235338324Y-129870773D01*
X235330855Y-129801303D01*
X235362131Y-129738824D01*
X235405430Y-129708761D01*
X235443653Y-129692929D01*
X235562479Y-129613532D01*
X235663532Y-129512479D01*
X235712896Y-129438601D01*
X235728736Y-129414895D01*
X235782348Y-129370089D01*
X235851673Y-129361382D01*
X235914700Y-129391536D01*
X235951420Y-129450979D01*
X235953455Y-129507976D01*
X235924500Y-129653540D01*
X235924500Y-129653545D01*
X235924500Y-129796455D01*
X235924500Y-129796457D01*
X235924499Y-129796457D01*
X235952379Y-129936614D01*
X235952381Y-129936620D01*
X236007069Y-130068650D01*
X236007074Y-130068659D01*
X236086467Y-130187478D01*
X236086470Y-130187482D01*
X236187517Y-130288529D01*
X236187521Y-130288532D01*
X236306340Y-130367925D01*
X236306349Y-130367930D01*
X236324625Y-130375500D01*
X236438380Y-130422619D01*
X236438384Y-130422619D01*
X236438385Y-130422620D01*
X236578542Y-130450500D01*
X236578545Y-130450500D01*
X236721457Y-130450500D01*
X236818401Y-130431216D01*
X236861620Y-130422619D01*
X236993653Y-130367929D01*
X237112479Y-130288532D01*
X237213532Y-130187479D01*
X237292929Y-130068653D01*
X237347619Y-129936620D01*
X237362538Y-129861620D01*
X237375500Y-129796457D01*
X237375500Y-129653542D01*
X237347620Y-129513385D01*
X237347619Y-129513384D01*
X237347619Y-129513380D01*
X237329837Y-129470451D01*
X237322368Y-129400981D01*
X237329838Y-129375544D01*
X237347616Y-129332625D01*
X237347616Y-129332622D01*
X237347619Y-129332617D01*
X237360702Y-129266846D01*
X237375500Y-129192454D01*
X237375500Y-129049539D01*
X237347620Y-128909382D01*
X237347619Y-128909381D01*
X237347619Y-128909377D01*
X237292929Y-128777344D01*
X237292928Y-128777343D01*
X237292925Y-128777337D01*
X237213532Y-128658518D01*
X237213529Y-128658514D01*
X237112482Y-128557467D01*
X237112478Y-128557464D01*
X236993659Y-128478071D01*
X236993650Y-128478066D01*
X236861620Y-128423378D01*
X236861614Y-128423376D01*
X236721457Y-128395497D01*
X236721455Y-128395497D01*
X236578545Y-128395497D01*
X236578543Y-128395497D01*
X236438385Y-128423376D01*
X236438379Y-128423378D01*
X236306349Y-128478066D01*
X236306340Y-128478071D01*
X236187521Y-128557464D01*
X236187517Y-128557467D01*
X236086470Y-128658514D01*
X236086467Y-128658518D01*
X236021263Y-128756102D01*
X235967650Y-128800907D01*
X235898325Y-128809614D01*
X235835298Y-128779459D01*
X235798579Y-128720016D01*
X235796544Y-128663019D01*
X235825500Y-128517454D01*
X235825500Y-128374539D01*
X235797620Y-128234382D01*
X235797619Y-128234381D01*
X235797619Y-128234377D01*
X235742929Y-128102344D01*
X235742928Y-128102343D01*
X235742925Y-128102337D01*
X235663532Y-127983518D01*
X235663529Y-127983514D01*
X235562482Y-127882467D01*
X235562478Y-127882464D01*
X235443659Y-127803071D01*
X235443650Y-127803066D01*
X235311620Y-127748378D01*
X235311614Y-127748376D01*
X235171457Y-127720497D01*
X235171455Y-127720497D01*
X235028545Y-127720497D01*
X235028543Y-127720497D01*
X234888385Y-127748376D01*
X234888379Y-127748378D01*
X234756349Y-127803066D01*
X234756340Y-127803071D01*
X234637521Y-127882464D01*
X234637517Y-127882467D01*
X234536470Y-127983514D01*
X234536467Y-127983518D01*
X234457074Y-128102337D01*
X234457069Y-128102346D01*
X234402381Y-128234376D01*
X234402379Y-128234382D01*
X234374500Y-128374539D01*
X234374500Y-128374542D01*
X234374500Y-128517452D01*
X234374500Y-128517454D01*
X234374499Y-128517454D01*
X234402379Y-128657611D01*
X234402380Y-128657612D01*
X234402381Y-128657617D01*
X234420163Y-128700546D01*
X234427631Y-128770016D01*
X234420163Y-128795448D01*
X234402381Y-128838378D01*
X234402379Y-128838386D01*
X234374500Y-128978542D01*
X234374500Y-128978545D01*
X234374500Y-129121455D01*
X234377629Y-129137187D01*
X234385777Y-129178150D01*
X234385395Y-129182409D01*
X234387120Y-129186322D01*
X234382307Y-129216908D01*
X234379548Y-129247741D01*
X234376925Y-129251116D01*
X234376261Y-129255342D01*
X234355673Y-129278474D01*
X234336685Y-129302918D01*
X234331846Y-129305246D01*
X234329810Y-129307535D01*
X234314448Y-129313619D01*
X234297514Y-129321770D01*
X234292967Y-129323039D01*
X234237334Y-129334106D01*
X234204196Y-129347831D01*
X234197006Y-129349840D01*
X234169241Y-129349472D01*
X234141633Y-129352440D01*
X234134791Y-129349015D01*
X234127142Y-129348914D01*
X234103984Y-129333593D01*
X234079154Y-129321164D01*
X234074020Y-129313770D01*
X234068870Y-129310363D01*
X234064028Y-129299377D01*
X234049090Y-129277862D01*
X234032932Y-129238853D01*
X234032925Y-129238840D01*
X233953532Y-129120021D01*
X233953529Y-129120017D01*
X233852482Y-129018970D01*
X233852478Y-129018967D01*
X233733659Y-128939574D01*
X233733650Y-128939569D01*
X233601620Y-128884881D01*
X233601614Y-128884879D01*
X233461457Y-128857000D01*
X233461455Y-128857000D01*
X233318545Y-128857000D01*
X233318543Y-128857000D01*
X233178385Y-128884879D01*
X233178379Y-128884881D01*
X233046349Y-128939569D01*
X233046340Y-128939574D01*
X232927521Y-129018967D01*
X232927517Y-129018970D01*
X232826470Y-129120017D01*
X232826467Y-129120021D01*
X232747074Y-129238840D01*
X232747068Y-129238851D01*
X232746037Y-129241342D01*
X232745148Y-129242444D01*
X232744201Y-129244217D01*
X232743864Y-129244037D01*
X232702192Y-129295742D01*
X232635896Y-129317802D01*
X232568198Y-129300518D01*
X232527594Y-129258056D01*
X232526314Y-129258912D01*
X232443532Y-129135021D01*
X232443529Y-129135017D01*
X232342482Y-129033970D01*
X232342478Y-129033967D01*
X232223659Y-128954574D01*
X232223650Y-128954569D01*
X232091620Y-128899881D01*
X232091614Y-128899879D01*
X231951457Y-128872000D01*
X231951455Y-128872000D01*
X231808545Y-128872000D01*
X231808543Y-128872000D01*
X231668385Y-128899879D01*
X231668379Y-128899881D01*
X231536349Y-128954569D01*
X231536340Y-128954574D01*
X231417521Y-129033967D01*
X231417517Y-129033970D01*
X231316470Y-129135017D01*
X231316467Y-129135021D01*
X231237064Y-129253855D01*
X231235693Y-129256421D01*
X231234622Y-129257510D01*
X231233686Y-129258912D01*
X231233420Y-129258734D01*
X231186725Y-129306260D01*
X231118586Y-129321712D01*
X231052909Y-129297873D01*
X231023240Y-129266846D01*
X230953532Y-129162521D01*
X230953529Y-129162517D01*
X230852482Y-129061470D01*
X230852478Y-129061467D01*
X230733659Y-128982074D01*
X230733650Y-128982069D01*
X230601620Y-128927381D01*
X230601614Y-128927379D01*
X230461457Y-128899500D01*
X230461455Y-128899500D01*
X230318545Y-128899500D01*
X230318543Y-128899500D01*
X230178385Y-128927379D01*
X230178379Y-128927381D01*
X230046349Y-128982069D01*
X230046340Y-128982074D01*
X229927521Y-129061467D01*
X229927517Y-129061470D01*
X229826470Y-129162517D01*
X229826467Y-129162521D01*
X229747069Y-129281348D01*
X229744358Y-129286421D01*
X229695396Y-129336265D01*
X229627259Y-129351726D01*
X229561579Y-129327895D01*
X229525642Y-129286421D01*
X229522930Y-129281348D01*
X229443532Y-129162521D01*
X229443529Y-129162517D01*
X229342482Y-129061470D01*
X229342478Y-129061467D01*
X229223659Y-128982074D01*
X229223650Y-128982069D01*
X229091620Y-128927381D01*
X229091614Y-128927379D01*
X228951457Y-128899500D01*
X228951455Y-128899500D01*
X228808545Y-128899500D01*
X228808543Y-128899500D01*
X228668385Y-128927379D01*
X228668379Y-128927381D01*
X228536349Y-128982069D01*
X228536340Y-128982074D01*
X228417521Y-129061467D01*
X228417517Y-129061470D01*
X228316470Y-129162517D01*
X228316467Y-129162521D01*
X228238102Y-129279803D01*
X228184490Y-129324608D01*
X228115165Y-129333315D01*
X228052137Y-129303160D01*
X228031898Y-129279803D01*
X227953532Y-129162521D01*
X227953529Y-129162517D01*
X227852482Y-129061470D01*
X227852478Y-129061467D01*
X227733659Y-128982074D01*
X227733650Y-128982069D01*
X227601620Y-128927381D01*
X227601614Y-128927379D01*
X227461457Y-128899500D01*
X227461455Y-128899500D01*
X227318545Y-128899500D01*
X227318543Y-128899500D01*
X227178385Y-128927379D01*
X227178379Y-128927381D01*
X227046349Y-128982069D01*
X227046340Y-128982074D01*
X226927521Y-129061467D01*
X226927517Y-129061470D01*
X226826470Y-129162517D01*
X226826467Y-129162521D01*
X226753096Y-129272328D01*
X226699483Y-129317133D01*
X226630158Y-129325840D01*
X226567131Y-129295685D01*
X226546892Y-129272328D01*
X226478532Y-129170021D01*
X226478529Y-129170017D01*
X226377482Y-129068970D01*
X226377478Y-129068967D01*
X226258659Y-128989574D01*
X226258650Y-128989569D01*
X226126620Y-128934881D01*
X226126614Y-128934879D01*
X225986457Y-128907000D01*
X225986455Y-128907000D01*
X225843545Y-128907000D01*
X225843543Y-128907000D01*
X225703385Y-128934879D01*
X225703379Y-128934881D01*
X225571349Y-128989569D01*
X225571340Y-128989574D01*
X225452521Y-129068967D01*
X225452517Y-129068970D01*
X225351470Y-129170017D01*
X225351467Y-129170021D01*
X225272074Y-129288840D01*
X225272069Y-129288849D01*
X225266542Y-129302194D01*
X225222700Y-129356596D01*
X225156405Y-129378659D01*
X225088706Y-129361378D01*
X225041097Y-129310240D01*
X225037421Y-129302191D01*
X225033962Y-129293842D01*
X225032929Y-129291347D01*
X225032927Y-129291344D01*
X225032925Y-129291340D01*
X224953532Y-129172521D01*
X224953529Y-129172517D01*
X224852482Y-129071470D01*
X224852478Y-129071467D01*
X224733659Y-128992074D01*
X224733650Y-128992069D01*
X224601620Y-128937381D01*
X224601614Y-128937379D01*
X224461457Y-128909500D01*
X224461455Y-128909500D01*
X224318545Y-128909500D01*
X224318543Y-128909500D01*
X224178385Y-128937379D01*
X224178379Y-128937381D01*
X224046349Y-128992069D01*
X224046340Y-128992074D01*
X223927521Y-129071467D01*
X223927517Y-129071470D01*
X223826470Y-129172517D01*
X223826467Y-129172521D01*
X223747074Y-129291340D01*
X223747068Y-129291351D01*
X223746037Y-129293842D01*
X223745148Y-129294944D01*
X223744201Y-129296717D01*
X223743864Y-129296537D01*
X223702192Y-129348242D01*
X223635896Y-129370302D01*
X223568198Y-129353018D01*
X223527594Y-129310556D01*
X223526314Y-129311412D01*
X223443532Y-129187521D01*
X223443529Y-129187517D01*
X223342482Y-129086470D01*
X223342478Y-129086467D01*
X223223659Y-129007074D01*
X223223650Y-129007069D01*
X223091620Y-128952381D01*
X223091614Y-128952379D01*
X222951457Y-128924500D01*
X222951455Y-128924500D01*
X222808545Y-128924500D01*
X222808543Y-128924500D01*
X222668385Y-128952379D01*
X222668379Y-128952381D01*
X222536349Y-129007069D01*
X222536340Y-129007074D01*
X222417521Y-129086467D01*
X222417517Y-129086470D01*
X222316470Y-129187517D01*
X222316467Y-129187521D01*
X222237064Y-129306355D01*
X222235693Y-129308921D01*
X222234622Y-129310010D01*
X222233686Y-129311412D01*
X222233420Y-129311234D01*
X222186725Y-129358760D01*
X222118586Y-129374212D01*
X222052909Y-129350373D01*
X222023240Y-129319346D01*
X221953532Y-129215021D01*
X221953529Y-129215017D01*
X221852482Y-129113970D01*
X221852478Y-129113967D01*
X221733659Y-129034574D01*
X221733650Y-129034569D01*
X221601620Y-128979881D01*
X221601614Y-128979879D01*
X221461457Y-128952000D01*
X221461455Y-128952000D01*
X221318545Y-128952000D01*
X221318543Y-128952000D01*
X221178385Y-128979879D01*
X221178379Y-128979881D01*
X221046349Y-129034569D01*
X221046340Y-129034574D01*
X220927521Y-129113967D01*
X220927517Y-129113970D01*
X220826470Y-129215017D01*
X220826467Y-129215021D01*
X220747069Y-129333848D01*
X220744358Y-129338921D01*
X220695396Y-129388765D01*
X220627259Y-129404226D01*
X220561579Y-129380395D01*
X220525642Y-129338921D01*
X220522930Y-129333848D01*
X220443532Y-129215021D01*
X220443529Y-129215017D01*
X220342482Y-129113970D01*
X220342478Y-129113967D01*
X220223659Y-129034574D01*
X220223650Y-129034569D01*
X220091620Y-128979881D01*
X220091614Y-128979879D01*
X219951457Y-128952000D01*
X219951455Y-128952000D01*
X219808545Y-128952000D01*
X219808543Y-128952000D01*
X219668385Y-128979879D01*
X219668379Y-128979881D01*
X219536349Y-129034569D01*
X219536340Y-129034574D01*
X219417521Y-129113967D01*
X219326825Y-129204663D01*
X219265501Y-129238147D01*
X219195810Y-129233163D01*
X219139876Y-129191291D01*
X219136042Y-129185872D01*
X219071789Y-129089711D01*
X219071786Y-129089707D01*
X218960292Y-128978213D01*
X218960288Y-128978210D01*
X218829185Y-128890609D01*
X218829172Y-128890602D01*
X218683501Y-128830264D01*
X218683489Y-128830261D01*
X218528845Y-128799500D01*
X218528842Y-128799500D01*
X218489562Y-128799500D01*
X217849500Y-128799500D01*
X217782461Y-128779815D01*
X217736706Y-128727011D01*
X217725500Y-128675500D01*
X217725500Y-127368957D01*
X231101999Y-127368957D01*
X231129879Y-127509114D01*
X231129881Y-127509120D01*
X231184569Y-127641150D01*
X231184574Y-127641159D01*
X231263967Y-127759978D01*
X231263970Y-127759982D01*
X231365017Y-127861029D01*
X231365021Y-127861032D01*
X231483840Y-127940425D01*
X231483846Y-127940428D01*
X231483847Y-127940429D01*
X231615880Y-127995119D01*
X231615884Y-127995119D01*
X231615885Y-127995120D01*
X231756042Y-128023000D01*
X231756045Y-128023000D01*
X231898957Y-128023000D01*
X232006719Y-128001564D01*
X232039120Y-127995119D01*
X232171153Y-127940429D01*
X232289979Y-127861032D01*
X232391032Y-127759979D01*
X232470429Y-127641153D01*
X232525119Y-127509120D01*
X232553000Y-127368955D01*
X232553000Y-127226045D01*
X232553000Y-127226042D01*
X232525120Y-127085885D01*
X232525119Y-127085884D01*
X232525119Y-127085880D01*
X232470429Y-126953847D01*
X232447474Y-126919493D01*
X232426597Y-126852818D01*
X232445081Y-126785438D01*
X232447476Y-126781712D01*
X232482924Y-126728661D01*
X232482925Y-126728658D01*
X232482929Y-126728653D01*
X232537619Y-126596620D01*
X232565500Y-126456455D01*
X232565500Y-126313545D01*
X232565500Y-126313542D01*
X232537620Y-126173385D01*
X232537619Y-126173384D01*
X232537619Y-126173380D01*
X232482929Y-126041347D01*
X232482928Y-126041346D01*
X232482925Y-126041340D01*
X232403532Y-125922521D01*
X232403529Y-125922517D01*
X232302482Y-125821470D01*
X232302478Y-125821467D01*
X232183659Y-125742074D01*
X232183650Y-125742069D01*
X232051620Y-125687381D01*
X232051614Y-125687379D01*
X231911457Y-125659500D01*
X231911455Y-125659500D01*
X231768545Y-125659500D01*
X231768543Y-125659500D01*
X231628385Y-125687379D01*
X231628379Y-125687381D01*
X231496349Y-125742069D01*
X231496340Y-125742074D01*
X231377521Y-125821467D01*
X231377517Y-125821470D01*
X231276470Y-125922517D01*
X231276467Y-125922521D01*
X231197074Y-126041340D01*
X231197069Y-126041349D01*
X231142381Y-126173379D01*
X231142379Y-126173385D01*
X231114500Y-126313542D01*
X231114500Y-126313545D01*
X231114500Y-126456455D01*
X231114500Y-126456457D01*
X231114499Y-126456457D01*
X231142379Y-126596614D01*
X231142381Y-126596620D01*
X231197069Y-126728650D01*
X231197074Y-126728658D01*
X231220024Y-126763005D01*
X231240902Y-126829682D01*
X231222418Y-126897062D01*
X231220024Y-126900787D01*
X231184574Y-126953840D01*
X231184569Y-126953849D01*
X231129881Y-127085879D01*
X231129879Y-127085885D01*
X231102000Y-127226042D01*
X231102000Y-127226045D01*
X231102000Y-127368955D01*
X231102000Y-127368957D01*
X231101999Y-127368957D01*
X217725500Y-127368957D01*
X217725500Y-124196457D01*
X231699499Y-124196457D01*
X231727379Y-124336614D01*
X231727381Y-124336620D01*
X231782069Y-124468650D01*
X231782074Y-124468659D01*
X231861467Y-124587478D01*
X231861470Y-124587482D01*
X231962517Y-124688529D01*
X231962521Y-124688532D01*
X232081340Y-124767925D01*
X232081346Y-124767928D01*
X232081347Y-124767929D01*
X232213380Y-124822619D01*
X232213384Y-124822619D01*
X232213385Y-124822620D01*
X232353542Y-124850500D01*
X232353545Y-124850500D01*
X232496457Y-124850500D01*
X232590751Y-124831742D01*
X232636620Y-124822619D01*
X232768653Y-124767929D01*
X232887479Y-124688532D01*
X232988532Y-124587479D01*
X233067929Y-124468653D01*
X233122619Y-124336620D01*
X233150500Y-124196455D01*
X233150500Y-124053545D01*
X233150500Y-124053542D01*
X233122620Y-123913385D01*
X233122619Y-123913384D01*
X233122619Y-123913380D01*
X233067929Y-123781347D01*
X233067928Y-123781346D01*
X233067925Y-123781340D01*
X232988532Y-123662521D01*
X232988529Y-123662517D01*
X232887482Y-123561470D01*
X232887478Y-123561467D01*
X232768659Y-123482074D01*
X232768650Y-123482069D01*
X232636620Y-123427381D01*
X232636614Y-123427379D01*
X232496457Y-123399500D01*
X232496455Y-123399500D01*
X232353545Y-123399500D01*
X232353543Y-123399500D01*
X232213385Y-123427379D01*
X232213379Y-123427381D01*
X232081349Y-123482069D01*
X232081340Y-123482074D01*
X231962521Y-123561467D01*
X231962517Y-123561470D01*
X231861470Y-123662517D01*
X231861467Y-123662521D01*
X231782074Y-123781340D01*
X231782069Y-123781349D01*
X231727381Y-123913379D01*
X231727379Y-123913385D01*
X231699500Y-124053542D01*
X231699500Y-124053545D01*
X231699500Y-124196455D01*
X231699500Y-124196457D01*
X231699499Y-124196457D01*
X217725500Y-124196457D01*
X217725500Y-122152238D01*
X217745185Y-122085199D01*
X217797989Y-122039444D01*
X217867147Y-122029500D01*
X217918391Y-122049136D01*
X218021340Y-122117925D01*
X218021346Y-122117928D01*
X218021347Y-122117929D01*
X218153380Y-122172619D01*
X218153384Y-122172619D01*
X218153385Y-122172620D01*
X218293542Y-122200500D01*
X218293545Y-122200500D01*
X218436457Y-122200500D01*
X218562136Y-122175500D01*
X218576620Y-122172619D01*
X218708653Y-122117929D01*
X218827479Y-122038532D01*
X218928532Y-121937479D01*
X219007929Y-121818653D01*
X219062619Y-121686620D01*
X219082340Y-121587478D01*
X219090500Y-121546457D01*
X219090500Y-121403542D01*
X219062620Y-121263385D01*
X219062619Y-121263384D01*
X219062619Y-121263380D01*
X219007929Y-121131347D01*
X219007928Y-121131346D01*
X219007925Y-121131340D01*
X218928532Y-121012521D01*
X218928529Y-121012517D01*
X218837469Y-120921457D01*
X225274499Y-120921457D01*
X225302379Y-121061614D01*
X225302381Y-121061620D01*
X225357069Y-121193650D01*
X225357074Y-121193659D01*
X225436467Y-121312478D01*
X225436470Y-121312482D01*
X225537517Y-121413529D01*
X225537521Y-121413532D01*
X225656340Y-121492925D01*
X225656346Y-121492928D01*
X225656347Y-121492929D01*
X225788380Y-121547619D01*
X225788384Y-121547619D01*
X225788385Y-121547620D01*
X225928542Y-121575500D01*
X225928545Y-121575500D01*
X226071457Y-121575500D01*
X226165751Y-121556742D01*
X226211620Y-121547619D01*
X226343653Y-121492929D01*
X226462479Y-121413532D01*
X226563532Y-121312479D01*
X226641055Y-121196457D01*
X228499499Y-121196457D01*
X228527379Y-121336614D01*
X228527381Y-121336620D01*
X228582069Y-121468650D01*
X228582074Y-121468659D01*
X228661467Y-121587478D01*
X228661470Y-121587482D01*
X228762517Y-121688529D01*
X228762521Y-121688532D01*
X228881340Y-121767925D01*
X228881346Y-121767928D01*
X228881347Y-121767929D01*
X229013380Y-121822619D01*
X229013384Y-121822619D01*
X229013385Y-121822620D01*
X229153542Y-121850500D01*
X229153545Y-121850500D01*
X229296457Y-121850500D01*
X229390751Y-121831742D01*
X229436620Y-121822619D01*
X229568653Y-121767929D01*
X229687479Y-121688532D01*
X229788532Y-121587479D01*
X229832646Y-121521457D01*
X231674499Y-121521457D01*
X231702379Y-121661614D01*
X231702381Y-121661620D01*
X231757069Y-121793650D01*
X231757074Y-121793659D01*
X231836467Y-121912478D01*
X231836470Y-121912482D01*
X231937517Y-122013529D01*
X231937521Y-122013532D01*
X232056340Y-122092925D01*
X232056346Y-122092928D01*
X232056347Y-122092929D01*
X232188380Y-122147619D01*
X232188384Y-122147619D01*
X232188385Y-122147620D01*
X232328542Y-122175500D01*
X232328545Y-122175500D01*
X232471457Y-122175500D01*
X232588399Y-122152238D01*
X232611620Y-122147619D01*
X232743653Y-122092929D01*
X232862479Y-122013532D01*
X232963532Y-121912479D01*
X233042929Y-121793653D01*
X233097619Y-121661620D01*
X233114750Y-121575500D01*
X233125500Y-121521457D01*
X233125500Y-121378542D01*
X233097620Y-121238385D01*
X233097619Y-121238384D01*
X233097619Y-121238380D01*
X233042929Y-121106347D01*
X233042928Y-121106346D01*
X233042925Y-121106340D01*
X232963532Y-120987521D01*
X232963529Y-120987517D01*
X232862482Y-120886470D01*
X232862478Y-120886467D01*
X232743659Y-120807074D01*
X232743650Y-120807069D01*
X232611620Y-120752381D01*
X232611614Y-120752379D01*
X232471457Y-120724500D01*
X232471455Y-120724500D01*
X232328545Y-120724500D01*
X232328543Y-120724500D01*
X232188385Y-120752379D01*
X232188379Y-120752381D01*
X232056349Y-120807069D01*
X232056340Y-120807074D01*
X231937521Y-120886467D01*
X231937517Y-120886470D01*
X231836470Y-120987517D01*
X231836467Y-120987521D01*
X231757074Y-121106340D01*
X231757069Y-121106349D01*
X231702381Y-121238379D01*
X231702379Y-121238385D01*
X231674500Y-121378542D01*
X231674500Y-121378545D01*
X231674500Y-121521455D01*
X231674500Y-121521457D01*
X231674499Y-121521457D01*
X229832646Y-121521457D01*
X229867929Y-121468653D01*
X229922619Y-121336620D01*
X229937188Y-121263379D01*
X229950500Y-121196457D01*
X229950500Y-121053542D01*
X229922620Y-120913385D01*
X229922619Y-120913384D01*
X229922619Y-120913380D01*
X229880318Y-120811258D01*
X229867930Y-120781349D01*
X229867925Y-120781340D01*
X229804785Y-120686845D01*
X229783907Y-120620168D01*
X229802391Y-120552787D01*
X229823725Y-120528393D01*
X229823172Y-120527840D01*
X229928529Y-120422482D01*
X229928532Y-120422479D01*
X230007929Y-120303653D01*
X230062619Y-120171620D01*
X230090500Y-120031455D01*
X230090500Y-119888545D01*
X230090500Y-119888542D01*
X230062620Y-119748385D01*
X230062619Y-119748384D01*
X230062619Y-119748380D01*
X230007929Y-119616347D01*
X230007928Y-119616346D01*
X230007925Y-119616340D01*
X229928532Y-119497521D01*
X229928529Y-119497517D01*
X229827482Y-119396470D01*
X229827478Y-119396467D01*
X229708659Y-119317074D01*
X229708650Y-119317069D01*
X229576620Y-119262381D01*
X229576614Y-119262379D01*
X229436457Y-119234500D01*
X229436455Y-119234500D01*
X229293545Y-119234500D01*
X229293543Y-119234500D01*
X229153385Y-119262379D01*
X229153379Y-119262381D01*
X229021349Y-119317069D01*
X229021340Y-119317074D01*
X228902521Y-119396467D01*
X228902517Y-119396470D01*
X228801470Y-119497517D01*
X228801467Y-119497521D01*
X228722074Y-119616340D01*
X228722069Y-119616349D01*
X228667381Y-119748379D01*
X228667379Y-119748385D01*
X228639500Y-119888542D01*
X228639500Y-119888545D01*
X228639500Y-120031455D01*
X228639500Y-120031457D01*
X228639499Y-120031457D01*
X228667379Y-120171614D01*
X228667381Y-120171620D01*
X228722069Y-120303650D01*
X228722074Y-120303659D01*
X228785214Y-120398154D01*
X228806092Y-120464832D01*
X228787607Y-120532212D01*
X228766277Y-120556609D01*
X228766828Y-120557160D01*
X228661470Y-120662517D01*
X228661467Y-120662521D01*
X228582074Y-120781340D01*
X228582069Y-120781349D01*
X228527381Y-120913379D01*
X228527379Y-120913385D01*
X228499500Y-121053542D01*
X228499500Y-121053545D01*
X228499500Y-121196455D01*
X228499500Y-121196457D01*
X228499499Y-121196457D01*
X226641055Y-121196457D01*
X226642929Y-121193653D01*
X226697619Y-121061620D01*
X226699226Y-121053542D01*
X226705250Y-121023260D01*
X226705250Y-121023258D01*
X226725499Y-120921459D01*
X226725500Y-120921457D01*
X226725500Y-120778542D01*
X226697620Y-120638385D01*
X226697619Y-120638384D01*
X226697619Y-120638380D01*
X226642929Y-120506347D01*
X226642928Y-120506346D01*
X226642925Y-120506340D01*
X226563532Y-120387521D01*
X226563529Y-120387517D01*
X226462482Y-120286470D01*
X226462478Y-120286467D01*
X226343659Y-120207074D01*
X226343650Y-120207069D01*
X226211620Y-120152381D01*
X226211614Y-120152379D01*
X226071457Y-120124500D01*
X226071455Y-120124500D01*
X225928545Y-120124500D01*
X225928543Y-120124500D01*
X225788385Y-120152379D01*
X225788379Y-120152381D01*
X225656349Y-120207069D01*
X225656340Y-120207074D01*
X225537521Y-120286467D01*
X225537517Y-120286470D01*
X225436470Y-120387517D01*
X225436467Y-120387521D01*
X225357074Y-120506340D01*
X225357069Y-120506349D01*
X225302381Y-120638379D01*
X225302379Y-120638385D01*
X225274500Y-120778542D01*
X225274500Y-120778545D01*
X225274500Y-120921455D01*
X225274500Y-120921457D01*
X225274499Y-120921457D01*
X218837469Y-120921457D01*
X218827482Y-120911470D01*
X218827478Y-120911467D01*
X218773732Y-120875555D01*
X218708659Y-120832074D01*
X218708650Y-120832069D01*
X218576620Y-120777381D01*
X218576614Y-120777379D01*
X218436457Y-120749500D01*
X218436455Y-120749500D01*
X218293545Y-120749500D01*
X218293543Y-120749500D01*
X218153385Y-120777379D01*
X218153379Y-120777381D01*
X218021349Y-120832069D01*
X218021335Y-120832077D01*
X217918390Y-120900863D01*
X217851713Y-120921741D01*
X217784333Y-120903256D01*
X217737643Y-120851277D01*
X217725500Y-120797761D01*
X217725500Y-119367238D01*
X217745185Y-119300199D01*
X217797989Y-119254444D01*
X217867147Y-119244500D01*
X217918391Y-119264136D01*
X218021340Y-119332925D01*
X218021346Y-119332928D01*
X218021347Y-119332929D01*
X218153380Y-119387619D01*
X218153384Y-119387619D01*
X218153385Y-119387620D01*
X218293542Y-119415500D01*
X218293545Y-119415500D01*
X218436457Y-119415500D01*
X218532139Y-119396467D01*
X218576620Y-119387619D01*
X218708653Y-119332929D01*
X218827479Y-119253532D01*
X218928532Y-119152479D01*
X219007929Y-119033653D01*
X219062619Y-118901620D01*
X219074918Y-118839790D01*
X219090500Y-118761457D01*
X219090500Y-118634257D01*
X229811699Y-118634257D01*
X229839579Y-118774414D01*
X229839581Y-118774420D01*
X229894269Y-118906450D01*
X229894274Y-118906459D01*
X229973667Y-119025278D01*
X229973670Y-119025282D01*
X230074717Y-119126329D01*
X230074721Y-119126332D01*
X230193540Y-119205725D01*
X230193546Y-119205728D01*
X230193547Y-119205729D01*
X230325580Y-119260419D01*
X230325584Y-119260419D01*
X230325585Y-119260420D01*
X230465742Y-119288300D01*
X230465745Y-119288300D01*
X230608657Y-119288300D01*
X230702951Y-119269542D01*
X230748820Y-119260419D01*
X230880853Y-119205729D01*
X230880860Y-119205723D01*
X230886220Y-119202860D01*
X230886988Y-119204297D01*
X230946139Y-119185763D01*
X231013523Y-119204234D01*
X231017269Y-119206642D01*
X231062439Y-119236824D01*
X231062441Y-119236825D01*
X231062447Y-119236829D01*
X231194480Y-119291519D01*
X231194484Y-119291519D01*
X231194485Y-119291520D01*
X231334642Y-119319400D01*
X231334645Y-119319400D01*
X231477557Y-119319400D01*
X231574083Y-119300199D01*
X231617720Y-119291519D01*
X231749753Y-119236829D01*
X231868579Y-119157432D01*
X231969632Y-119056379D01*
X231992563Y-119022060D01*
X232028612Y-118968110D01*
X232082224Y-118923304D01*
X232131714Y-118913000D01*
X232208957Y-118913000D01*
X232303251Y-118894242D01*
X232349120Y-118885119D01*
X232481153Y-118830429D01*
X232481162Y-118830422D01*
X232483746Y-118829042D01*
X232485266Y-118828725D01*
X232486781Y-118828098D01*
X232486899Y-118828385D01*
X232552148Y-118814795D01*
X232617394Y-118839790D01*
X232645310Y-118869505D01*
X232648967Y-118874978D01*
X232648970Y-118874982D01*
X232750017Y-118976029D01*
X232750021Y-118976032D01*
X232868840Y-119055425D01*
X232868849Y-119055430D01*
X232898758Y-119067818D01*
X233000880Y-119110119D01*
X233000884Y-119110119D01*
X233000885Y-119110120D01*
X233141042Y-119138000D01*
X233141045Y-119138000D01*
X233283957Y-119138000D01*
X233378251Y-119119242D01*
X233424120Y-119110119D01*
X233556153Y-119055429D01*
X233674979Y-118976032D01*
X233776032Y-118874979D01*
X233855429Y-118756153D01*
X233910119Y-118624120D01*
X233938000Y-118483955D01*
X233938000Y-118341045D01*
X233925540Y-118278406D01*
X233931767Y-118208816D01*
X233959477Y-118166533D01*
X233962476Y-118163533D01*
X233962479Y-118163532D01*
X234063532Y-118062479D01*
X234142929Y-117943653D01*
X234197619Y-117811620D01*
X234225500Y-117671455D01*
X234225500Y-117528545D01*
X234225500Y-117528542D01*
X234197620Y-117388385D01*
X234197619Y-117388384D01*
X234197619Y-117388380D01*
X234190609Y-117371457D01*
X238374499Y-117371457D01*
X238402379Y-117511614D01*
X238402381Y-117511620D01*
X238457069Y-117643650D01*
X238457074Y-117643659D01*
X238536467Y-117762478D01*
X238536470Y-117762482D01*
X238637517Y-117863529D01*
X238637521Y-117863532D01*
X238756340Y-117942925D01*
X238756349Y-117942930D01*
X238758109Y-117943659D01*
X238888380Y-117997619D01*
X238888384Y-117997619D01*
X238888385Y-117997620D01*
X239028542Y-118025500D01*
X239028545Y-118025500D01*
X239171457Y-118025500D01*
X239265751Y-118006742D01*
X239311620Y-117997619D01*
X239443653Y-117942929D01*
X239562479Y-117863532D01*
X239663532Y-117762479D01*
X239742929Y-117643653D01*
X239797619Y-117511620D01*
X239807489Y-117462000D01*
X239825500Y-117371457D01*
X239825500Y-117228542D01*
X239797620Y-117088385D01*
X239797619Y-117088384D01*
X239797619Y-117088380D01*
X239742929Y-116956347D01*
X239742928Y-116956346D01*
X239742925Y-116956340D01*
X239663532Y-116837521D01*
X239663529Y-116837517D01*
X239562482Y-116736470D01*
X239562478Y-116736467D01*
X239443659Y-116657074D01*
X239443650Y-116657069D01*
X239311620Y-116602381D01*
X239311614Y-116602379D01*
X239171457Y-116574500D01*
X239171455Y-116574500D01*
X239028545Y-116574500D01*
X239028543Y-116574500D01*
X238888385Y-116602379D01*
X238888379Y-116602381D01*
X238756349Y-116657069D01*
X238756340Y-116657074D01*
X238637521Y-116736467D01*
X238637517Y-116736470D01*
X238536470Y-116837517D01*
X238536467Y-116837521D01*
X238457074Y-116956340D01*
X238457069Y-116956349D01*
X238402381Y-117088379D01*
X238402379Y-117088385D01*
X238374500Y-117228542D01*
X238374500Y-117228545D01*
X238374500Y-117371455D01*
X238374500Y-117371457D01*
X238374499Y-117371457D01*
X234190609Y-117371457D01*
X234142929Y-117256347D01*
X234131233Y-117238843D01*
X234128382Y-117233516D01*
X234122428Y-117205004D01*
X234113727Y-117177217D01*
X234115373Y-117171214D01*
X234114101Y-117165121D01*
X234124505Y-117137921D01*
X234132209Y-117109837D01*
X234134603Y-117106113D01*
X234142929Y-117093653D01*
X234197619Y-116961620D01*
X234206742Y-116915751D01*
X234225500Y-116821457D01*
X234225500Y-116678542D01*
X234197620Y-116538385D01*
X234197619Y-116538384D01*
X234197619Y-116538380D01*
X234142929Y-116406347D01*
X234142928Y-116406346D01*
X234142925Y-116406340D01*
X234063532Y-116287521D01*
X234063529Y-116287517D01*
X233962482Y-116186470D01*
X233962478Y-116186467D01*
X233843659Y-116107074D01*
X233843650Y-116107069D01*
X233711620Y-116052381D01*
X233711614Y-116052379D01*
X233571457Y-116024500D01*
X233571455Y-116024500D01*
X233428545Y-116024500D01*
X233428543Y-116024500D01*
X233288385Y-116052379D01*
X233288379Y-116052381D01*
X233156349Y-116107069D01*
X233156340Y-116107074D01*
X233037521Y-116186467D01*
X233037517Y-116186470D01*
X232936470Y-116287517D01*
X232936467Y-116287521D01*
X232857074Y-116406340D01*
X232857069Y-116406349D01*
X232802381Y-116538379D01*
X232802379Y-116538385D01*
X232774500Y-116678542D01*
X232774500Y-116678545D01*
X232774500Y-116821455D01*
X232774500Y-116821457D01*
X232774499Y-116821457D01*
X232802379Y-116961614D01*
X232802381Y-116961620D01*
X232857071Y-117093655D01*
X232857072Y-117093656D01*
X232865395Y-117106113D01*
X232886271Y-117172791D01*
X232867784Y-117240170D01*
X232865395Y-117243887D01*
X232857072Y-117256343D01*
X232857071Y-117256344D01*
X232802381Y-117388379D01*
X232802379Y-117388385D01*
X232773475Y-117533691D01*
X232741089Y-117595602D01*
X232680373Y-117630176D01*
X232610604Y-117626435D01*
X232582967Y-117612601D01*
X232481159Y-117544574D01*
X232481150Y-117544569D01*
X232349120Y-117489881D01*
X232349114Y-117489879D01*
X232208957Y-117462000D01*
X232208955Y-117462000D01*
X232066045Y-117462000D01*
X232066043Y-117462000D01*
X231925885Y-117489879D01*
X231925879Y-117489881D01*
X231793849Y-117544569D01*
X231793840Y-117544574D01*
X231675021Y-117623967D01*
X231675017Y-117623970D01*
X231573970Y-117725017D01*
X231573964Y-117725025D01*
X231514988Y-117813290D01*
X231461376Y-117858096D01*
X231411886Y-117868400D01*
X231334643Y-117868400D01*
X231194485Y-117896279D01*
X231194479Y-117896281D01*
X231062444Y-117950971D01*
X231057077Y-117953841D01*
X231056311Y-117952408D01*
X230997129Y-117970936D01*
X230929750Y-117952448D01*
X230926031Y-117950058D01*
X230880852Y-117919870D01*
X230748820Y-117865181D01*
X230748814Y-117865179D01*
X230608657Y-117837300D01*
X230608655Y-117837300D01*
X230465745Y-117837300D01*
X230465743Y-117837300D01*
X230325585Y-117865179D01*
X230325579Y-117865181D01*
X230193549Y-117919869D01*
X230193540Y-117919874D01*
X230074721Y-117999267D01*
X230074717Y-117999270D01*
X229973670Y-118100317D01*
X229973667Y-118100321D01*
X229894274Y-118219140D01*
X229894269Y-118219149D01*
X229839581Y-118351179D01*
X229839579Y-118351185D01*
X229811700Y-118491342D01*
X229811700Y-118491345D01*
X229811700Y-118634255D01*
X229811700Y-118634257D01*
X229811699Y-118634257D01*
X219090500Y-118634257D01*
X219090500Y-118618542D01*
X219090499Y-118618540D01*
X219068799Y-118509444D01*
X219062620Y-118478384D01*
X219062619Y-118478382D01*
X219062619Y-118478380D01*
X219009931Y-118351180D01*
X219007930Y-118346349D01*
X219007925Y-118346340D01*
X218928532Y-118227521D01*
X218928529Y-118227517D01*
X218827482Y-118126470D01*
X218827478Y-118126467D01*
X218708659Y-118047074D01*
X218708650Y-118047069D01*
X218576620Y-117992381D01*
X218576614Y-117992379D01*
X218436457Y-117964500D01*
X218436455Y-117964500D01*
X218293545Y-117964500D01*
X218293543Y-117964500D01*
X218153385Y-117992379D01*
X218153379Y-117992381D01*
X218021349Y-118047069D01*
X218021335Y-118047077D01*
X217918390Y-118115863D01*
X217851713Y-118136741D01*
X217784333Y-118118256D01*
X217737643Y-118066277D01*
X217725500Y-118012761D01*
X217725500Y-115146457D01*
X230724499Y-115146457D01*
X230752379Y-115286614D01*
X230752381Y-115286620D01*
X230807069Y-115418650D01*
X230807074Y-115418659D01*
X230886467Y-115537478D01*
X230886470Y-115537482D01*
X230987517Y-115638529D01*
X230987521Y-115638532D01*
X231106340Y-115717925D01*
X231106346Y-115717928D01*
X231106347Y-115717929D01*
X231238380Y-115772619D01*
X231238384Y-115772619D01*
X231238385Y-115772620D01*
X231378542Y-115800500D01*
X231378545Y-115800500D01*
X231521457Y-115800500D01*
X231615751Y-115781742D01*
X231661620Y-115772619D01*
X231793653Y-115717929D01*
X231912479Y-115638532D01*
X232013532Y-115537479D01*
X232092929Y-115418653D01*
X232147619Y-115286620D01*
X232156742Y-115240751D01*
X232175500Y-115146457D01*
X232175500Y-115003542D01*
X232147620Y-114863385D01*
X232147619Y-114863384D01*
X232147619Y-114863380D01*
X232092929Y-114731347D01*
X232092928Y-114731346D01*
X232092925Y-114731340D01*
X232013532Y-114612521D01*
X232013529Y-114612517D01*
X231912482Y-114511470D01*
X231912478Y-114511467D01*
X231793659Y-114432074D01*
X231793650Y-114432069D01*
X231661620Y-114377381D01*
X231661614Y-114377379D01*
X231521457Y-114349500D01*
X231521455Y-114349500D01*
X231378545Y-114349500D01*
X231378543Y-114349500D01*
X231238385Y-114377379D01*
X231238379Y-114377381D01*
X231106349Y-114432069D01*
X231106340Y-114432074D01*
X230987521Y-114511467D01*
X230987517Y-114511470D01*
X230886470Y-114612517D01*
X230886467Y-114612521D01*
X230807074Y-114731340D01*
X230807069Y-114731349D01*
X230752381Y-114863379D01*
X230752379Y-114863385D01*
X230724500Y-115003542D01*
X230724500Y-115003545D01*
X230724500Y-115146455D01*
X230724500Y-115146457D01*
X230724499Y-115146457D01*
X217725500Y-115146457D01*
X217725500Y-114512261D01*
X217745185Y-114445222D01*
X217797989Y-114399467D01*
X217867147Y-114389523D01*
X217918391Y-114409159D01*
X218006340Y-114467925D01*
X218006346Y-114467928D01*
X218006347Y-114467929D01*
X218138380Y-114522619D01*
X218138384Y-114522619D01*
X218138385Y-114522620D01*
X218278542Y-114550500D01*
X218278545Y-114550500D01*
X218421457Y-114550500D01*
X218515751Y-114531742D01*
X218561620Y-114522619D01*
X218693653Y-114467929D01*
X218812479Y-114388532D01*
X218837319Y-114363691D01*
X218898640Y-114330207D01*
X218968332Y-114335190D01*
X219012680Y-114363691D01*
X219026368Y-114377379D01*
X219037522Y-114388533D01*
X219156340Y-114467925D01*
X219156346Y-114467928D01*
X219156347Y-114467929D01*
X219288380Y-114522619D01*
X219288384Y-114522619D01*
X219288385Y-114522620D01*
X219428542Y-114550500D01*
X219428545Y-114550500D01*
X219571457Y-114550500D01*
X219665751Y-114531742D01*
X219711620Y-114522619D01*
X219843653Y-114467929D01*
X219962479Y-114388532D01*
X220063532Y-114287479D01*
X220142929Y-114168653D01*
X220197619Y-114036620D01*
X220212213Y-113963254D01*
X220225500Y-113896457D01*
X220225500Y-113753542D01*
X220197620Y-113613385D01*
X220197619Y-113613384D01*
X220197619Y-113613380D01*
X220150046Y-113498529D01*
X220142930Y-113481349D01*
X220142925Y-113481340D01*
X220063532Y-113362521D01*
X220063529Y-113362517D01*
X219962482Y-113261470D01*
X219962478Y-113261467D01*
X219843659Y-113182074D01*
X219843650Y-113182069D01*
X219711620Y-113127381D01*
X219711614Y-113127379D01*
X219571457Y-113099500D01*
X219571455Y-113099500D01*
X219428545Y-113099500D01*
X219428543Y-113099500D01*
X219288385Y-113127379D01*
X219288379Y-113127381D01*
X219156349Y-113182069D01*
X219156340Y-113182074D01*
X219037521Y-113261467D01*
X219037517Y-113261470D01*
X219012681Y-113286307D01*
X218951358Y-113319792D01*
X218881666Y-113314808D01*
X218837319Y-113286307D01*
X218812482Y-113261470D01*
X218812478Y-113261467D01*
X218693659Y-113182074D01*
X218693650Y-113182069D01*
X218561620Y-113127381D01*
X218561614Y-113127379D01*
X218421457Y-113099500D01*
X218421455Y-113099500D01*
X218278545Y-113099500D01*
X218278543Y-113099500D01*
X218138385Y-113127379D01*
X218138379Y-113127381D01*
X218006349Y-113182069D01*
X218006342Y-113182073D01*
X217918390Y-113240841D01*
X217851713Y-113261718D01*
X217784333Y-113243233D01*
X217737643Y-113191254D01*
X217725500Y-113137738D01*
X217725500Y-111773108D01*
X220174068Y-111773108D01*
X220201948Y-111913265D01*
X220201950Y-111913271D01*
X220256638Y-112045301D01*
X220256643Y-112045310D01*
X220336036Y-112164129D01*
X220336039Y-112164133D01*
X220437086Y-112265180D01*
X220437090Y-112265183D01*
X220555909Y-112344576D01*
X220555915Y-112344579D01*
X220555916Y-112344580D01*
X220687949Y-112399270D01*
X220687953Y-112399270D01*
X220687954Y-112399271D01*
X220828111Y-112427151D01*
X220828114Y-112427151D01*
X220971026Y-112427151D01*
X221070232Y-112407417D01*
X221111189Y-112399270D01*
X221243222Y-112344580D01*
X221362048Y-112265183D01*
X221463101Y-112164130D01*
X221542498Y-112045304D01*
X221597188Y-111913271D01*
X221606311Y-111867402D01*
X221625069Y-111773108D01*
X221625069Y-111646457D01*
X225624499Y-111646457D01*
X225652379Y-111786614D01*
X225652381Y-111786620D01*
X225707069Y-111918650D01*
X225707074Y-111918659D01*
X225786467Y-112037478D01*
X225786470Y-112037482D01*
X225887517Y-112138529D01*
X225887521Y-112138532D01*
X226006340Y-112217925D01*
X226006346Y-112217928D01*
X226006347Y-112217929D01*
X226138380Y-112272619D01*
X226138384Y-112272619D01*
X226138385Y-112272620D01*
X226278542Y-112300500D01*
X226278545Y-112300500D01*
X226421457Y-112300500D01*
X226515751Y-112281742D01*
X226561620Y-112272619D01*
X226693653Y-112217929D01*
X226812479Y-112138532D01*
X226913532Y-112037479D01*
X226992929Y-111918653D01*
X227047619Y-111786620D01*
X227075500Y-111646455D01*
X227075500Y-111503545D01*
X227075500Y-111503542D01*
X227047620Y-111363385D01*
X227047619Y-111363384D01*
X227047619Y-111363380D01*
X226992929Y-111231347D01*
X226992928Y-111231346D01*
X226992925Y-111231340D01*
X226913532Y-111112521D01*
X226909667Y-111107811D01*
X226910610Y-111107036D01*
X226880207Y-111051357D01*
X226885191Y-110981665D01*
X226913693Y-110937317D01*
X226938532Y-110912479D01*
X227017929Y-110793653D01*
X227072619Y-110661620D01*
X227100296Y-110522482D01*
X227100500Y-110521457D01*
X227100500Y-110378542D01*
X227072620Y-110238385D01*
X227072619Y-110238384D01*
X227072619Y-110238380D01*
X227028330Y-110131457D01*
X227789499Y-110131457D01*
X227817379Y-110271614D01*
X227817381Y-110271620D01*
X227872069Y-110403650D01*
X227872074Y-110403659D01*
X227951467Y-110522478D01*
X227951470Y-110522482D01*
X228052517Y-110623529D01*
X228052521Y-110623532D01*
X228171340Y-110702925D01*
X228171346Y-110702928D01*
X228171347Y-110702929D01*
X228303380Y-110757619D01*
X228303384Y-110757619D01*
X228303385Y-110757620D01*
X228443542Y-110785500D01*
X228443545Y-110785500D01*
X228586457Y-110785500D01*
X228680751Y-110766742D01*
X228726620Y-110757619D01*
X228858653Y-110702929D01*
X228858660Y-110702923D01*
X228864020Y-110700060D01*
X228864571Y-110701090D01*
X228925285Y-110682080D01*
X228990960Y-110700096D01*
X228990980Y-110700060D01*
X228991139Y-110700145D01*
X228992666Y-110700564D01*
X228996333Y-110702919D01*
X228996347Y-110702929D01*
X229128380Y-110757619D01*
X229128384Y-110757619D01*
X229128385Y-110757620D01*
X229268542Y-110785500D01*
X229268545Y-110785500D01*
X229411457Y-110785500D01*
X229505751Y-110766742D01*
X229551620Y-110757619D01*
X229683653Y-110702929D01*
X229802479Y-110623532D01*
X229903532Y-110522479D01*
X229982929Y-110403653D01*
X230037619Y-110271620D01*
X230048100Y-110218929D01*
X230065500Y-110131457D01*
X230065500Y-109988542D01*
X230037620Y-109848385D01*
X230037619Y-109848384D01*
X230037619Y-109848380D01*
X229982929Y-109716347D01*
X229982928Y-109716346D01*
X229982925Y-109716340D01*
X229903532Y-109597521D01*
X229903529Y-109597517D01*
X229802482Y-109496470D01*
X229802478Y-109496467D01*
X229683659Y-109417074D01*
X229683650Y-109417069D01*
X229551620Y-109362381D01*
X229551614Y-109362379D01*
X229411457Y-109334500D01*
X229411455Y-109334500D01*
X229268545Y-109334500D01*
X229268543Y-109334500D01*
X229128385Y-109362379D01*
X229128379Y-109362381D01*
X228996349Y-109417069D01*
X228990972Y-109419944D01*
X228990421Y-109418913D01*
X228929697Y-109437919D01*
X228864051Y-109419900D01*
X228864028Y-109419944D01*
X228863835Y-109419840D01*
X228862320Y-109419425D01*
X228858673Y-109417082D01*
X228858650Y-109417069D01*
X228726620Y-109362381D01*
X228726614Y-109362379D01*
X228586457Y-109334500D01*
X228586455Y-109334500D01*
X228443545Y-109334500D01*
X228443543Y-109334500D01*
X228303385Y-109362379D01*
X228303379Y-109362381D01*
X228171349Y-109417069D01*
X228171340Y-109417074D01*
X228052521Y-109496467D01*
X228052517Y-109496470D01*
X227951470Y-109597517D01*
X227951467Y-109597521D01*
X227872074Y-109716340D01*
X227872069Y-109716349D01*
X227817381Y-109848379D01*
X227817379Y-109848385D01*
X227789500Y-109988542D01*
X227789500Y-109988545D01*
X227789500Y-110131455D01*
X227789500Y-110131457D01*
X227789499Y-110131457D01*
X227028330Y-110131457D01*
X227017929Y-110106347D01*
X227017928Y-110106346D01*
X227017925Y-110106340D01*
X226981178Y-110051344D01*
X226938532Y-109987521D01*
X226938529Y-109987517D01*
X226837482Y-109886470D01*
X226837478Y-109886467D01*
X226718659Y-109807074D01*
X226718650Y-109807069D01*
X226586620Y-109752381D01*
X226586614Y-109752379D01*
X226446457Y-109724500D01*
X226446455Y-109724500D01*
X226303545Y-109724500D01*
X226303543Y-109724500D01*
X226163385Y-109752379D01*
X226163379Y-109752381D01*
X226031349Y-109807069D01*
X226031340Y-109807074D01*
X225912521Y-109886467D01*
X225912517Y-109886470D01*
X225811470Y-109987517D01*
X225811467Y-109987521D01*
X225732074Y-110106340D01*
X225732069Y-110106349D01*
X225677381Y-110238379D01*
X225677379Y-110238385D01*
X225649500Y-110378542D01*
X225649500Y-110378545D01*
X225649500Y-110521455D01*
X225649500Y-110521457D01*
X225649499Y-110521457D01*
X225677379Y-110661614D01*
X225677381Y-110661620D01*
X225732069Y-110793650D01*
X225732074Y-110793659D01*
X225811467Y-110912478D01*
X225815333Y-110917189D01*
X225814387Y-110917965D01*
X225844789Y-110973626D01*
X225839813Y-111043319D01*
X225811309Y-111087679D01*
X225786467Y-111112521D01*
X225707074Y-111231340D01*
X225707069Y-111231349D01*
X225652381Y-111363379D01*
X225652379Y-111363385D01*
X225624500Y-111503542D01*
X225624500Y-111503545D01*
X225624500Y-111646455D01*
X225624500Y-111646457D01*
X225624499Y-111646457D01*
X221625069Y-111646457D01*
X221625069Y-111630193D01*
X221603477Y-111521645D01*
X221597189Y-111490036D01*
X221597188Y-111490035D01*
X221597188Y-111490031D01*
X221554887Y-111387909D01*
X221542499Y-111358000D01*
X221542494Y-111357991D01*
X221463101Y-111239172D01*
X221463098Y-111239168D01*
X221362051Y-111138121D01*
X221362047Y-111138118D01*
X221308894Y-111102602D01*
X221264089Y-111048990D01*
X221255382Y-110979665D01*
X221285537Y-110916637D01*
X221344980Y-110879918D01*
X221377785Y-110875500D01*
X221471457Y-110875500D01*
X221565751Y-110856742D01*
X221611620Y-110847619D01*
X221743653Y-110792929D01*
X221862479Y-110713532D01*
X221963532Y-110612479D01*
X222042929Y-110493653D01*
X222097619Y-110361620D01*
X222106742Y-110315751D01*
X222125500Y-110221457D01*
X222125500Y-110078542D01*
X222097620Y-109938385D01*
X222097619Y-109938384D01*
X222097619Y-109938380D01*
X222042929Y-109806347D01*
X222042928Y-109806346D01*
X222042925Y-109806340D01*
X221963532Y-109687521D01*
X221963529Y-109687517D01*
X221862482Y-109586470D01*
X221862478Y-109586467D01*
X221743659Y-109507074D01*
X221743650Y-109507069D01*
X221611620Y-109452381D01*
X221611614Y-109452379D01*
X221471457Y-109424500D01*
X221471455Y-109424500D01*
X221328545Y-109424500D01*
X221328543Y-109424500D01*
X221188385Y-109452379D01*
X221188379Y-109452381D01*
X221056349Y-109507069D01*
X221056340Y-109507074D01*
X220937521Y-109586467D01*
X220937517Y-109586470D01*
X220836470Y-109687517D01*
X220836467Y-109687521D01*
X220757074Y-109806340D01*
X220757069Y-109806349D01*
X220702381Y-109938379D01*
X220702379Y-109938385D01*
X220674500Y-110078542D01*
X220674500Y-110078545D01*
X220674500Y-110221455D01*
X220674500Y-110221457D01*
X220674499Y-110221457D01*
X220702379Y-110361614D01*
X220702381Y-110361620D01*
X220757069Y-110493650D01*
X220757074Y-110493659D01*
X220836467Y-110612478D01*
X220836470Y-110612482D01*
X220937517Y-110713529D01*
X220937521Y-110713532D01*
X220990675Y-110749049D01*
X221035480Y-110802661D01*
X221044187Y-110871986D01*
X221014032Y-110935014D01*
X220954589Y-110971733D01*
X220921784Y-110976151D01*
X220828112Y-110976151D01*
X220687954Y-111004030D01*
X220687948Y-111004032D01*
X220555918Y-111058720D01*
X220555909Y-111058725D01*
X220437090Y-111138118D01*
X220437086Y-111138121D01*
X220336039Y-111239168D01*
X220336036Y-111239172D01*
X220256643Y-111357991D01*
X220256638Y-111358000D01*
X220201950Y-111490030D01*
X220201948Y-111490036D01*
X220174069Y-111630193D01*
X220174069Y-111630196D01*
X220174069Y-111773106D01*
X220174069Y-111773108D01*
X220174068Y-111773108D01*
X217725500Y-111773108D01*
X217725500Y-109371457D01*
X222674499Y-109371457D01*
X222702379Y-109511614D01*
X222702381Y-109511620D01*
X222757069Y-109643650D01*
X222757074Y-109643659D01*
X222836467Y-109762478D01*
X222836470Y-109762482D01*
X222937517Y-109863529D01*
X222937521Y-109863532D01*
X223056340Y-109942925D01*
X223056346Y-109942928D01*
X223056347Y-109942929D01*
X223188380Y-109997619D01*
X223188384Y-109997619D01*
X223188385Y-109997620D01*
X223328542Y-110025500D01*
X223328545Y-110025500D01*
X223471457Y-110025500D01*
X223565751Y-110006742D01*
X223611620Y-109997619D01*
X223743653Y-109942929D01*
X223862479Y-109863532D01*
X223963532Y-109762479D01*
X224042929Y-109643653D01*
X224097619Y-109511620D01*
X224115864Y-109419900D01*
X224125500Y-109371457D01*
X224125500Y-109228542D01*
X224097620Y-109088385D01*
X224097619Y-109088384D01*
X224097619Y-109088380D01*
X224042929Y-108956347D01*
X224042928Y-108956346D01*
X224042925Y-108956340D01*
X223963532Y-108837521D01*
X223963529Y-108837517D01*
X223946162Y-108820150D01*
X223912677Y-108758827D01*
X223917661Y-108689135D01*
X223959533Y-108633202D01*
X224024997Y-108608785D01*
X224081296Y-108617908D01*
X224104516Y-108627525D01*
X224213380Y-108672619D01*
X224213384Y-108672619D01*
X224213385Y-108672620D01*
X224353542Y-108700500D01*
X224353545Y-108700500D01*
X224496457Y-108700500D01*
X224590751Y-108681742D01*
X224636620Y-108672619D01*
X224768653Y-108617929D01*
X224887479Y-108538532D01*
X224988532Y-108437479D01*
X225067929Y-108318653D01*
X225122619Y-108186620D01*
X225133572Y-108131558D01*
X225150500Y-108046457D01*
X225150500Y-107903542D01*
X225122620Y-107763385D01*
X225122619Y-107763384D01*
X225122619Y-107763380D01*
X225067929Y-107631347D01*
X225067928Y-107631346D01*
X225067925Y-107631340D01*
X224988532Y-107512521D01*
X224988529Y-107512517D01*
X224887482Y-107411470D01*
X224887478Y-107411467D01*
X224768659Y-107332074D01*
X224768650Y-107332069D01*
X224636618Y-107277380D01*
X224636614Y-107277379D01*
X224627971Y-107275660D01*
X224566060Y-107243275D01*
X224531486Y-107182559D01*
X224530555Y-107178280D01*
X224522619Y-107138380D01*
X224478330Y-107031457D01*
X226589499Y-107031457D01*
X226617379Y-107171614D01*
X226617381Y-107171620D01*
X226672069Y-107303650D01*
X226672074Y-107303659D01*
X226751467Y-107422478D01*
X226751470Y-107422482D01*
X226852517Y-107523529D01*
X226852521Y-107523532D01*
X226971340Y-107602925D01*
X226971346Y-107602928D01*
X226971347Y-107602929D01*
X227103380Y-107657619D01*
X227103384Y-107657619D01*
X227103385Y-107657620D01*
X227243542Y-107685500D01*
X227243545Y-107685500D01*
X227386457Y-107685500D01*
X227480751Y-107666742D01*
X227526620Y-107657619D01*
X227658653Y-107602929D01*
X227658660Y-107602923D01*
X227664020Y-107600060D01*
X227664571Y-107601090D01*
X227725285Y-107582080D01*
X227790960Y-107600096D01*
X227790980Y-107600060D01*
X227791139Y-107600145D01*
X227792666Y-107600564D01*
X227796333Y-107602919D01*
X227796347Y-107602929D01*
X227928380Y-107657619D01*
X227928384Y-107657619D01*
X227928385Y-107657620D01*
X228068542Y-107685500D01*
X228068545Y-107685500D01*
X228211457Y-107685500D01*
X228305751Y-107666742D01*
X228351620Y-107657619D01*
X228483653Y-107602929D01*
X228483652Y-107602929D01*
X228489281Y-107600598D01*
X228489985Y-107602299D01*
X228549941Y-107589812D01*
X228590280Y-107601656D01*
X228590719Y-107600598D01*
X228596347Y-107602929D01*
X228728380Y-107657619D01*
X228728384Y-107657619D01*
X228728385Y-107657620D01*
X228868542Y-107685500D01*
X228868545Y-107685500D01*
X229011457Y-107685500D01*
X229105751Y-107666742D01*
X229151620Y-107657619D01*
X229283653Y-107602929D01*
X229283652Y-107602929D01*
X229289281Y-107600598D01*
X229289985Y-107602299D01*
X229349941Y-107589812D01*
X229390280Y-107601656D01*
X229390719Y-107600598D01*
X229396347Y-107602929D01*
X229528380Y-107657619D01*
X229528384Y-107657619D01*
X229528385Y-107657620D01*
X229668542Y-107685500D01*
X229668545Y-107685500D01*
X229811457Y-107685500D01*
X229905751Y-107666742D01*
X229951620Y-107657619D01*
X230083653Y-107602929D01*
X230202479Y-107523532D01*
X230303532Y-107422479D01*
X230382929Y-107303653D01*
X230437619Y-107171620D01*
X230465500Y-107031455D01*
X230465500Y-106888545D01*
X230465500Y-106888542D01*
X230437620Y-106748385D01*
X230437619Y-106748384D01*
X230437619Y-106748380D01*
X230382929Y-106616347D01*
X230382928Y-106616346D01*
X230382925Y-106616340D01*
X230303532Y-106497521D01*
X230303529Y-106497517D01*
X230202482Y-106396470D01*
X230202478Y-106396467D01*
X230083659Y-106317074D01*
X230083650Y-106317069D01*
X229951620Y-106262381D01*
X229951614Y-106262379D01*
X229811457Y-106234500D01*
X229811455Y-106234500D01*
X229668545Y-106234500D01*
X229668543Y-106234500D01*
X229528385Y-106262379D01*
X229528379Y-106262381D01*
X229390719Y-106319402D01*
X229390016Y-106317705D01*
X229330029Y-106330184D01*
X229289717Y-106318347D01*
X229289281Y-106319402D01*
X229151620Y-106262381D01*
X229151614Y-106262379D01*
X229011457Y-106234500D01*
X229011455Y-106234500D01*
X228868545Y-106234500D01*
X228868543Y-106234500D01*
X228728385Y-106262379D01*
X228728379Y-106262381D01*
X228590719Y-106319402D01*
X228590016Y-106317705D01*
X228530029Y-106330184D01*
X228489717Y-106318347D01*
X228489281Y-106319402D01*
X228351620Y-106262381D01*
X228351614Y-106262379D01*
X228211457Y-106234500D01*
X228211455Y-106234500D01*
X228068545Y-106234500D01*
X228068543Y-106234500D01*
X227928385Y-106262379D01*
X227928379Y-106262381D01*
X227796349Y-106317069D01*
X227790972Y-106319944D01*
X227790421Y-106318913D01*
X227729697Y-106337919D01*
X227664051Y-106319900D01*
X227664028Y-106319944D01*
X227663835Y-106319840D01*
X227662320Y-106319425D01*
X227658673Y-106317082D01*
X227658650Y-106317069D01*
X227526620Y-106262381D01*
X227526614Y-106262379D01*
X227386457Y-106234500D01*
X227386455Y-106234500D01*
X227243545Y-106234500D01*
X227243543Y-106234500D01*
X227103385Y-106262379D01*
X227103379Y-106262381D01*
X226971349Y-106317069D01*
X226971340Y-106317074D01*
X226852521Y-106396467D01*
X226852517Y-106396470D01*
X226751470Y-106497517D01*
X226751467Y-106497521D01*
X226672074Y-106616340D01*
X226672069Y-106616349D01*
X226617381Y-106748379D01*
X226617379Y-106748385D01*
X226589500Y-106888542D01*
X226589500Y-106888545D01*
X226589500Y-107031455D01*
X226589500Y-107031457D01*
X226589499Y-107031457D01*
X224478330Y-107031457D01*
X224467929Y-107006347D01*
X224467928Y-107006346D01*
X224467925Y-107006340D01*
X224434954Y-106956995D01*
X224434949Y-106956989D01*
X224388532Y-106887521D01*
X224314024Y-106813013D01*
X224310557Y-106808885D01*
X224298608Y-106781618D01*
X224284343Y-106755493D01*
X224284284Y-106748930D01*
X224282514Y-106744890D01*
X224284156Y-106734593D01*
X224283892Y-106704947D01*
X224300500Y-106621455D01*
X224300500Y-106478545D01*
X224300500Y-106478542D01*
X224272620Y-106338385D01*
X224272619Y-106338384D01*
X224272619Y-106338380D01*
X224217929Y-106206347D01*
X224217928Y-106206346D01*
X224217925Y-106206340D01*
X224138532Y-106087521D01*
X224138529Y-106087517D01*
X224037482Y-105986470D01*
X224037478Y-105986467D01*
X223918659Y-105907074D01*
X223918650Y-105907069D01*
X223786620Y-105852381D01*
X223786614Y-105852379D01*
X223646457Y-105824500D01*
X223646455Y-105824500D01*
X223503545Y-105824500D01*
X223503543Y-105824500D01*
X223363385Y-105852379D01*
X223363379Y-105852381D01*
X223231349Y-105907069D01*
X223231340Y-105907074D01*
X223112521Y-105986467D01*
X223112517Y-105986470D01*
X223011470Y-106087517D01*
X223011467Y-106087521D01*
X222932074Y-106206340D01*
X222932069Y-106206349D01*
X222877381Y-106338379D01*
X222877379Y-106338385D01*
X222849500Y-106478542D01*
X222849500Y-106478545D01*
X222849500Y-106621455D01*
X222849500Y-106621457D01*
X222849499Y-106621457D01*
X222877379Y-106761614D01*
X222877381Y-106761620D01*
X222932069Y-106893650D01*
X222932074Y-106893659D01*
X223011467Y-107012478D01*
X223011470Y-107012482D01*
X223082170Y-107083182D01*
X223115655Y-107144505D01*
X223116107Y-107195053D01*
X223103289Y-107259496D01*
X223099500Y-107278545D01*
X223099500Y-107421455D01*
X223099500Y-107421457D01*
X223099499Y-107421457D01*
X223127379Y-107561614D01*
X223127381Y-107561620D01*
X223182069Y-107693650D01*
X223182074Y-107693659D01*
X223261467Y-107812478D01*
X223261470Y-107812482D01*
X223362517Y-107913529D01*
X223362521Y-107913532D01*
X223481340Y-107992925D01*
X223481346Y-107992928D01*
X223481347Y-107992929D01*
X223613380Y-108047619D01*
X223622025Y-108049338D01*
X223683936Y-108081722D01*
X223718511Y-108142437D01*
X223719452Y-108146763D01*
X223727379Y-108186615D01*
X223727381Y-108186620D01*
X223782069Y-108318650D01*
X223782074Y-108318659D01*
X223861467Y-108437478D01*
X223861470Y-108437482D01*
X223878837Y-108454849D01*
X223912322Y-108516172D01*
X223907338Y-108585864D01*
X223865466Y-108641797D01*
X223800002Y-108666214D01*
X223743704Y-108657091D01*
X223611624Y-108602382D01*
X223611614Y-108602379D01*
X223471457Y-108574500D01*
X223471455Y-108574500D01*
X223328545Y-108574500D01*
X223328543Y-108574500D01*
X223188385Y-108602379D01*
X223188379Y-108602381D01*
X223056349Y-108657069D01*
X223056340Y-108657074D01*
X222937521Y-108736467D01*
X222937517Y-108736470D01*
X222836470Y-108837517D01*
X222836467Y-108837521D01*
X222757074Y-108956340D01*
X222757069Y-108956349D01*
X222702381Y-109088379D01*
X222702379Y-109088385D01*
X222674500Y-109228542D01*
X222674500Y-109228545D01*
X222674500Y-109371455D01*
X222674500Y-109371457D01*
X222674499Y-109371457D01*
X217725500Y-109371457D01*
X217725500Y-107113910D01*
X217745185Y-107046871D01*
X217797989Y-107001116D01*
X217867147Y-106991172D01*
X217930703Y-107020197D01*
X217952601Y-107045017D01*
X217970815Y-107072278D01*
X217984908Y-107093369D01*
X218085956Y-107194417D01*
X218085960Y-107194420D01*
X218204779Y-107273813D01*
X218204785Y-107273816D01*
X218204786Y-107273817D01*
X218336819Y-107328507D01*
X218336823Y-107328507D01*
X218336824Y-107328508D01*
X218476981Y-107356388D01*
X218476984Y-107356388D01*
X218619896Y-107356388D01*
X218714763Y-107337517D01*
X218760059Y-107328507D01*
X218892092Y-107273817D01*
X219010918Y-107194420D01*
X219111971Y-107093367D01*
X219191368Y-106974541D01*
X219246058Y-106842508D01*
X219273939Y-106702343D01*
X219273939Y-106559433D01*
X219273939Y-106559430D01*
X219246059Y-106419273D01*
X219246058Y-106419272D01*
X219246058Y-106419268D01*
X219203726Y-106317069D01*
X219191369Y-106287237D01*
X219191364Y-106287228D01*
X219111971Y-106168409D01*
X219111968Y-106168405D01*
X219010921Y-106067358D01*
X219010917Y-106067355D01*
X218892098Y-105987962D01*
X218892089Y-105987957D01*
X218760059Y-105933269D01*
X218760053Y-105933267D01*
X218619896Y-105905388D01*
X218619894Y-105905388D01*
X218476984Y-105905388D01*
X218476982Y-105905388D01*
X218336824Y-105933267D01*
X218336818Y-105933269D01*
X218204788Y-105987957D01*
X218204779Y-105987962D01*
X218085960Y-106067355D01*
X218085956Y-106067358D01*
X217984909Y-106168405D01*
X217984906Y-106168409D01*
X217952602Y-106216756D01*
X217898990Y-106261561D01*
X217829665Y-106270268D01*
X217766637Y-106240113D01*
X217729918Y-106180670D01*
X217725500Y-106147865D01*
X217725500Y-104541153D01*
X218484500Y-104541153D01*
X218484500Y-104698846D01*
X218515261Y-104853489D01*
X218515264Y-104853501D01*
X218575602Y-104999172D01*
X218575609Y-104999185D01*
X218663210Y-105130288D01*
X218663213Y-105130292D01*
X218774707Y-105241786D01*
X218774711Y-105241789D01*
X218905814Y-105329390D01*
X218905827Y-105329397D01*
X219046056Y-105387481D01*
X219051503Y-105389737D01*
X219206153Y-105420499D01*
X219206156Y-105420500D01*
X219206158Y-105420500D01*
X220163844Y-105420500D01*
X220163845Y-105420499D01*
X220318497Y-105389737D01*
X220464179Y-105329394D01*
X220595289Y-105241789D01*
X220706789Y-105130289D01*
X220794394Y-104999179D01*
X220795522Y-104996457D01*
X220838648Y-104892340D01*
X220854737Y-104853497D01*
X220885500Y-104698842D01*
X220885500Y-104541158D01*
X220885500Y-104541155D01*
X220885499Y-104541153D01*
X222514500Y-104541153D01*
X222514500Y-104698846D01*
X222545261Y-104853489D01*
X222545264Y-104853501D01*
X222605602Y-104999172D01*
X222605609Y-104999185D01*
X222693210Y-105130288D01*
X222693213Y-105130292D01*
X222804707Y-105241786D01*
X222804711Y-105241789D01*
X222935814Y-105329390D01*
X222935827Y-105329397D01*
X223076056Y-105387481D01*
X223081503Y-105389737D01*
X223236153Y-105420499D01*
X223236156Y-105420500D01*
X223236158Y-105420500D01*
X224493844Y-105420500D01*
X224493845Y-105420499D01*
X224648497Y-105389737D01*
X224794179Y-105329394D01*
X224806058Y-105321457D01*
X227424499Y-105321457D01*
X227452379Y-105461614D01*
X227452381Y-105461620D01*
X227507069Y-105593650D01*
X227507074Y-105593659D01*
X227586467Y-105712478D01*
X227586470Y-105712482D01*
X227687517Y-105813529D01*
X227687521Y-105813532D01*
X227806340Y-105892925D01*
X227806346Y-105892928D01*
X227806347Y-105892929D01*
X227938380Y-105947619D01*
X227938384Y-105947619D01*
X227938385Y-105947620D01*
X228078542Y-105975500D01*
X228078545Y-105975500D01*
X228221457Y-105975500D01*
X228315751Y-105956742D01*
X228361620Y-105947619D01*
X228493653Y-105892929D01*
X228612479Y-105813532D01*
X228713532Y-105712479D01*
X228792929Y-105593653D01*
X228847619Y-105461620D01*
X228858819Y-105405317D01*
X228875500Y-105321457D01*
X229324499Y-105321457D01*
X229352379Y-105461614D01*
X229352381Y-105461620D01*
X229407069Y-105593650D01*
X229407074Y-105593659D01*
X229486467Y-105712478D01*
X229486470Y-105712482D01*
X229587517Y-105813529D01*
X229587521Y-105813532D01*
X229706340Y-105892925D01*
X229706346Y-105892928D01*
X229706347Y-105892929D01*
X229838380Y-105947619D01*
X229838384Y-105947619D01*
X229838385Y-105947620D01*
X229978542Y-105975500D01*
X229978545Y-105975500D01*
X230121457Y-105975500D01*
X230215751Y-105956742D01*
X230261620Y-105947619D01*
X230393653Y-105892929D01*
X230512479Y-105813532D01*
X230613532Y-105712479D01*
X230654713Y-105650846D01*
X230696314Y-105588588D01*
X230698449Y-105590015D01*
X230739527Y-105548150D01*
X230807656Y-105532650D01*
X230873349Y-105556444D01*
X230903087Y-105587522D01*
X230936467Y-105637478D01*
X230936470Y-105637482D01*
X231037517Y-105738529D01*
X231037521Y-105738532D01*
X231156340Y-105817925D01*
X231156346Y-105817928D01*
X231156347Y-105817929D01*
X231288380Y-105872619D01*
X231288384Y-105872619D01*
X231288385Y-105872620D01*
X231428542Y-105900500D01*
X231428545Y-105900500D01*
X231571457Y-105900500D01*
X231665751Y-105881742D01*
X231711620Y-105872619D01*
X231843653Y-105817929D01*
X231962479Y-105738532D01*
X232063532Y-105637479D01*
X232142929Y-105518653D01*
X232197619Y-105386620D01*
X232197619Y-105386619D01*
X232199950Y-105380992D01*
X232202601Y-105382090D01*
X232234091Y-105333910D01*
X232297867Y-105305373D01*
X232366947Y-105315847D01*
X232417674Y-105359353D01*
X232436464Y-105387474D01*
X232436470Y-105387482D01*
X232537516Y-105488528D01*
X232537519Y-105488530D01*
X232537521Y-105488532D01*
X232560517Y-105503897D01*
X232605321Y-105557507D01*
X232614030Y-105626832D01*
X232583876Y-105689860D01*
X232579309Y-105694678D01*
X232561471Y-105712516D01*
X232561467Y-105712521D01*
X232482074Y-105831340D01*
X232482069Y-105831349D01*
X232427381Y-105963379D01*
X232427379Y-105963385D01*
X232399500Y-106103542D01*
X232399500Y-106246034D01*
X232379815Y-106313073D01*
X232327011Y-106358828D01*
X232257853Y-106368772D01*
X232206609Y-106349136D01*
X232143659Y-106307074D01*
X232143650Y-106307069D01*
X232011620Y-106252381D01*
X232011614Y-106252379D01*
X231871457Y-106224500D01*
X231871455Y-106224500D01*
X231728545Y-106224500D01*
X231728543Y-106224500D01*
X231588385Y-106252379D01*
X231588379Y-106252381D01*
X231456349Y-106307069D01*
X231456340Y-106307074D01*
X231337521Y-106386467D01*
X231337517Y-106386470D01*
X231236470Y-106487517D01*
X231236467Y-106487521D01*
X231157074Y-106606340D01*
X231157069Y-106606349D01*
X231102381Y-106738379D01*
X231102379Y-106738385D01*
X231074500Y-106878542D01*
X231074500Y-106878545D01*
X231074500Y-107021455D01*
X231074500Y-107021457D01*
X231074499Y-107021457D01*
X231102379Y-107161614D01*
X231102381Y-107161620D01*
X231157069Y-107293650D01*
X231157074Y-107293659D01*
X231236467Y-107412478D01*
X231236470Y-107412482D01*
X231337517Y-107513529D01*
X231337521Y-107513532D01*
X231456340Y-107592925D01*
X231456349Y-107592930D01*
X231476049Y-107601090D01*
X231588380Y-107647619D01*
X231588384Y-107647619D01*
X231588385Y-107647620D01*
X231728542Y-107675500D01*
X231728545Y-107675500D01*
X231871457Y-107675500D01*
X231965751Y-107656742D01*
X232011620Y-107647619D01*
X232143653Y-107592929D01*
X232243611Y-107526138D01*
X232310286Y-107505262D01*
X232377666Y-107523746D01*
X232381345Y-107526109D01*
X232481346Y-107592928D01*
X232481349Y-107592930D01*
X232501049Y-107601090D01*
X232613380Y-107647619D01*
X232613384Y-107647619D01*
X232613385Y-107647620D01*
X232753542Y-107675500D01*
X232753545Y-107675500D01*
X232896457Y-107675500D01*
X232990751Y-107656742D01*
X233036620Y-107647619D01*
X233168653Y-107592929D01*
X233168652Y-107592929D01*
X233174281Y-107590598D01*
X233174985Y-107592299D01*
X233234941Y-107579812D01*
X233275280Y-107591656D01*
X233275719Y-107590598D01*
X233301049Y-107601090D01*
X233413380Y-107647619D01*
X233413384Y-107647619D01*
X233413385Y-107647620D01*
X233553542Y-107675500D01*
X233553545Y-107675500D01*
X233696457Y-107675500D01*
X233790751Y-107656742D01*
X233836620Y-107647619D01*
X233968653Y-107592929D01*
X233988250Y-107579834D01*
X234054926Y-107558956D01*
X234122307Y-107577439D01*
X234168998Y-107629417D01*
X234180176Y-107698387D01*
X234178760Y-107707125D01*
X234174500Y-107728543D01*
X234174500Y-107728545D01*
X234174500Y-107871455D01*
X234174500Y-107871457D01*
X234174499Y-107871457D01*
X234202379Y-108011614D01*
X234202381Y-108011620D01*
X234257069Y-108143650D01*
X234257074Y-108143659D01*
X234336467Y-108262478D01*
X234336470Y-108262482D01*
X234437517Y-108363529D01*
X234437521Y-108363532D01*
X234556340Y-108442925D01*
X234556346Y-108442928D01*
X234556347Y-108442929D01*
X234688380Y-108497619D01*
X234688384Y-108497619D01*
X234688385Y-108497620D01*
X234699991Y-108499929D01*
X234761902Y-108532314D01*
X234796476Y-108593030D01*
X234792735Y-108662800D01*
X234751869Y-108719471D01*
X234699991Y-108743163D01*
X234603385Y-108762379D01*
X234603379Y-108762381D01*
X234465719Y-108819402D01*
X234465016Y-108817705D01*
X234405029Y-108830184D01*
X234364717Y-108818347D01*
X234364281Y-108819402D01*
X234226620Y-108762381D01*
X234226614Y-108762379D01*
X234086457Y-108734500D01*
X234086455Y-108734500D01*
X233943545Y-108734500D01*
X233943543Y-108734500D01*
X233803385Y-108762379D01*
X233803379Y-108762381D01*
X233665719Y-108819402D01*
X233665016Y-108817705D01*
X233605029Y-108830184D01*
X233564717Y-108818347D01*
X233564281Y-108819402D01*
X233426620Y-108762381D01*
X233426614Y-108762379D01*
X233286457Y-108734500D01*
X233286455Y-108734500D01*
X233143545Y-108734500D01*
X233143543Y-108734500D01*
X233003385Y-108762379D01*
X233003379Y-108762381D01*
X232871349Y-108817069D01*
X232865972Y-108819944D01*
X232865421Y-108818913D01*
X232804697Y-108837919D01*
X232739051Y-108819900D01*
X232739028Y-108819944D01*
X232738835Y-108819840D01*
X232737320Y-108819425D01*
X232733673Y-108817082D01*
X232733650Y-108817069D01*
X232601620Y-108762381D01*
X232601614Y-108762379D01*
X232461457Y-108734500D01*
X232461455Y-108734500D01*
X232318545Y-108734500D01*
X232318543Y-108734500D01*
X232178385Y-108762379D01*
X232178379Y-108762381D01*
X232046349Y-108817069D01*
X232046340Y-108817074D01*
X231927521Y-108896467D01*
X231927517Y-108896470D01*
X231826470Y-108997517D01*
X231826467Y-108997521D01*
X231747074Y-109116340D01*
X231747069Y-109116349D01*
X231692381Y-109248379D01*
X231692379Y-109248385D01*
X231664500Y-109388542D01*
X231664500Y-109388545D01*
X231664500Y-109531455D01*
X231664500Y-109531457D01*
X231664499Y-109531457D01*
X231692379Y-109671614D01*
X231692381Y-109671620D01*
X231747069Y-109803650D01*
X231747074Y-109803659D01*
X231826467Y-109922478D01*
X231826470Y-109922482D01*
X231927517Y-110023529D01*
X231927521Y-110023532D01*
X232046340Y-110102925D01*
X232046349Y-110102930D01*
X232076258Y-110115318D01*
X232178380Y-110157619D01*
X232178384Y-110157619D01*
X232178385Y-110157620D01*
X232318542Y-110185500D01*
X232318545Y-110185500D01*
X232461457Y-110185500D01*
X232555751Y-110166742D01*
X232601620Y-110157619D01*
X232733653Y-110102929D01*
X232733660Y-110102923D01*
X232739020Y-110100060D01*
X232739571Y-110101090D01*
X232800285Y-110082080D01*
X232865960Y-110100096D01*
X232865980Y-110100060D01*
X232866139Y-110100145D01*
X232867666Y-110100564D01*
X232871333Y-110102919D01*
X232871347Y-110102929D01*
X233003380Y-110157619D01*
X233003384Y-110157619D01*
X233003385Y-110157620D01*
X233143542Y-110185500D01*
X233143545Y-110185500D01*
X233286457Y-110185500D01*
X233380751Y-110166742D01*
X233426620Y-110157619D01*
X233541344Y-110110098D01*
X233564281Y-110100598D01*
X233564985Y-110102299D01*
X233624941Y-110089812D01*
X233665280Y-110101656D01*
X233665719Y-110100598D01*
X233700747Y-110115106D01*
X233803380Y-110157619D01*
X233803384Y-110157619D01*
X233803385Y-110157620D01*
X233943542Y-110185500D01*
X233943545Y-110185500D01*
X234086457Y-110185500D01*
X234180751Y-110166742D01*
X234226620Y-110157619D01*
X234341344Y-110110098D01*
X234364281Y-110100598D01*
X234364985Y-110102299D01*
X234424941Y-110089812D01*
X234465280Y-110101656D01*
X234465719Y-110100598D01*
X234500747Y-110115106D01*
X234603380Y-110157619D01*
X234603384Y-110157619D01*
X234603385Y-110157620D01*
X234743542Y-110185500D01*
X234743545Y-110185500D01*
X234886457Y-110185500D01*
X234980751Y-110166742D01*
X235026620Y-110157619D01*
X235158653Y-110102929D01*
X235158660Y-110102923D01*
X235164020Y-110100060D01*
X235164571Y-110101090D01*
X235225285Y-110082080D01*
X235290960Y-110100096D01*
X235290980Y-110100060D01*
X235291139Y-110100145D01*
X235292666Y-110100564D01*
X235296333Y-110102919D01*
X235296347Y-110102929D01*
X235428380Y-110157619D01*
X235428384Y-110157619D01*
X235428385Y-110157620D01*
X235568542Y-110185500D01*
X235568545Y-110185500D01*
X235711457Y-110185500D01*
X235805751Y-110166742D01*
X235851620Y-110157619D01*
X235983653Y-110102929D01*
X235983660Y-110102923D01*
X235989020Y-110100060D01*
X235989571Y-110101090D01*
X236050285Y-110082080D01*
X236102148Y-110092433D01*
X236112234Y-110096840D01*
X236121347Y-110102929D01*
X236214080Y-110141340D01*
X236215148Y-110141807D01*
X236241039Y-110163506D01*
X236267356Y-110184713D01*
X236267748Y-110185890D01*
X236268698Y-110186687D01*
X236278744Y-110218929D01*
X236289421Y-110251007D01*
X236289462Y-110253326D01*
X236289483Y-110253393D01*
X236289464Y-110253459D01*
X236289500Y-110255434D01*
X236289500Y-110381455D01*
X236289500Y-110381457D01*
X236289499Y-110381457D01*
X236317379Y-110521614D01*
X236317381Y-110521620D01*
X236372069Y-110653650D01*
X236372074Y-110653659D01*
X236451467Y-110772478D01*
X236451470Y-110772482D01*
X236552517Y-110873529D01*
X236552521Y-110873532D01*
X236671340Y-110952925D01*
X236671346Y-110952928D01*
X236671347Y-110952929D01*
X236803380Y-111007619D01*
X236803384Y-111007619D01*
X236803385Y-111007620D01*
X236943542Y-111035500D01*
X236943545Y-111035500D01*
X237086457Y-111035500D01*
X237180751Y-111016742D01*
X237226620Y-111007619D01*
X237358653Y-110952929D01*
X237477479Y-110873532D01*
X237578532Y-110772479D01*
X237657929Y-110653653D01*
X237712619Y-110521620D01*
X237721742Y-110475751D01*
X237740500Y-110381457D01*
X237740500Y-110238542D01*
X237712620Y-110098385D01*
X237712619Y-110098384D01*
X237712619Y-110098380D01*
X237667124Y-109988545D01*
X237657930Y-109966349D01*
X237657925Y-109966340D01*
X237578532Y-109847521D01*
X237578529Y-109847517D01*
X237477482Y-109746470D01*
X237477478Y-109746467D01*
X237358659Y-109667074D01*
X237358649Y-109667069D01*
X237267047Y-109629126D01*
X237212644Y-109585285D01*
X237190579Y-109518990D01*
X237190500Y-109514565D01*
X237190500Y-109388542D01*
X237162620Y-109248385D01*
X237162619Y-109248384D01*
X237162619Y-109248380D01*
X237107929Y-109116347D01*
X237107928Y-109116346D01*
X237107925Y-109116340D01*
X237028532Y-108997521D01*
X237028529Y-108997517D01*
X236927482Y-108896470D01*
X236927478Y-108896467D01*
X236808659Y-108817074D01*
X236808650Y-108817069D01*
X236676620Y-108762381D01*
X236676614Y-108762379D01*
X236536457Y-108734500D01*
X236536455Y-108734500D01*
X236393545Y-108734500D01*
X236393543Y-108734500D01*
X236253385Y-108762379D01*
X236253379Y-108762381D01*
X236121349Y-108817069D01*
X236115972Y-108819944D01*
X236115421Y-108818913D01*
X236054697Y-108837919D01*
X235989051Y-108819900D01*
X235989028Y-108819944D01*
X235988835Y-108819840D01*
X235987320Y-108819425D01*
X235983673Y-108817082D01*
X235983650Y-108817069D01*
X235851620Y-108762381D01*
X235851614Y-108762379D01*
X235711457Y-108734500D01*
X235711455Y-108734500D01*
X235568545Y-108734500D01*
X235568543Y-108734500D01*
X235428385Y-108762379D01*
X235428379Y-108762381D01*
X235296349Y-108817069D01*
X235290972Y-108819944D01*
X235290421Y-108818913D01*
X235229697Y-108837919D01*
X235181361Y-108829034D01*
X235169352Y-108824219D01*
X235158653Y-108817071D01*
X235026620Y-108762381D01*
X235003739Y-108757829D01*
X234993061Y-108753549D01*
X234974277Y-108738763D01*
X234953093Y-108727681D01*
X234947322Y-108717545D01*
X234938159Y-108710333D01*
X234930350Y-108687737D01*
X234918522Y-108666963D01*
X234919146Y-108655317D01*
X234915338Y-108644296D01*
X234920984Y-108621069D01*
X234922265Y-108597194D01*
X234929087Y-108587733D01*
X234931842Y-108576403D01*
X234949150Y-108559914D01*
X234963135Y-108540524D01*
X234975371Y-108534936D01*
X234982431Y-108528211D01*
X234995673Y-108525665D01*
X235015005Y-108516837D01*
X235111620Y-108497619D01*
X235243653Y-108442929D01*
X235362479Y-108363532D01*
X235463532Y-108262479D01*
X235542929Y-108143653D01*
X235597619Y-108011620D01*
X235619117Y-107903545D01*
X235625500Y-107871457D01*
X235625500Y-107728542D01*
X235597620Y-107588385D01*
X235597619Y-107588384D01*
X235597619Y-107588380D01*
X235555318Y-107486258D01*
X235542930Y-107456349D01*
X235542925Y-107456340D01*
X235463532Y-107337521D01*
X235463529Y-107337517D01*
X235362482Y-107236470D01*
X235362478Y-107236467D01*
X235243659Y-107157074D01*
X235243650Y-107157069D01*
X235111620Y-107102381D01*
X235111614Y-107102379D01*
X234971457Y-107074500D01*
X234971455Y-107074500D01*
X234828545Y-107074500D01*
X234828543Y-107074500D01*
X234688385Y-107102379D01*
X234688379Y-107102381D01*
X234556349Y-107157069D01*
X234556339Y-107157075D01*
X234536745Y-107170167D01*
X234470067Y-107191043D01*
X234402687Y-107172557D01*
X234355999Y-107120577D01*
X234344824Y-107051606D01*
X234346240Y-107042869D01*
X234350500Y-107021457D01*
X234350500Y-107021455D01*
X234350500Y-106878545D01*
X234350500Y-106878542D01*
X234322620Y-106738385D01*
X234322619Y-106738384D01*
X234322619Y-106738380D01*
X234267929Y-106606347D01*
X234267928Y-106606346D01*
X234267925Y-106606340D01*
X234188532Y-106487521D01*
X234188529Y-106487517D01*
X234087482Y-106386470D01*
X234087478Y-106386467D01*
X233968659Y-106307074D01*
X233968647Y-106307068D01*
X233927045Y-106289835D01*
X233872642Y-106245993D01*
X233850579Y-106179699D01*
X233850500Y-106175275D01*
X233850500Y-106103542D01*
X233822620Y-105963385D01*
X233822619Y-105963384D01*
X233822619Y-105963380D01*
X233767929Y-105831347D01*
X233767928Y-105831346D01*
X233767925Y-105831340D01*
X233688532Y-105712521D01*
X233688529Y-105712517D01*
X233587481Y-105611469D01*
X233577477Y-105604785D01*
X233564482Y-105596102D01*
X233519678Y-105542491D01*
X233510969Y-105473166D01*
X233541123Y-105410138D01*
X233545694Y-105405317D01*
X233563530Y-105387481D01*
X233563532Y-105387479D01*
X233642929Y-105268653D01*
X233697619Y-105136620D01*
X233706742Y-105090751D01*
X233725500Y-104996457D01*
X233725500Y-104853542D01*
X233697620Y-104713385D01*
X233697619Y-104713384D01*
X233697619Y-104713380D01*
X233655318Y-104611258D01*
X233642930Y-104581349D01*
X233642925Y-104581340D01*
X233563532Y-104462521D01*
X233563529Y-104462517D01*
X233462482Y-104361470D01*
X233462478Y-104361467D01*
X233343659Y-104282074D01*
X233343650Y-104282069D01*
X233211620Y-104227381D01*
X233211614Y-104227379D01*
X233071457Y-104199500D01*
X233071455Y-104199500D01*
X232928545Y-104199500D01*
X232928543Y-104199500D01*
X232788385Y-104227379D01*
X232788379Y-104227381D01*
X232656349Y-104282069D01*
X232656340Y-104282074D01*
X232537521Y-104361467D01*
X232537517Y-104361470D01*
X232436470Y-104462517D01*
X232436467Y-104462521D01*
X232357074Y-104581340D01*
X232357069Y-104581349D01*
X232308403Y-104698842D01*
X232302382Y-104713379D01*
X232300050Y-104719008D01*
X232297524Y-104717961D01*
X232265348Y-104766564D01*
X232201403Y-104794722D01*
X232132386Y-104783839D01*
X232082325Y-104740647D01*
X232063532Y-104712521D01*
X232063530Y-104712518D01*
X231962482Y-104611470D01*
X231962478Y-104611467D01*
X231843659Y-104532074D01*
X231843650Y-104532069D01*
X231711620Y-104477381D01*
X231711614Y-104477379D01*
X231571457Y-104449500D01*
X231571455Y-104449500D01*
X231428545Y-104449500D01*
X231428543Y-104449500D01*
X231288385Y-104477379D01*
X231288379Y-104477381D01*
X231156349Y-104532069D01*
X231156340Y-104532074D01*
X231037521Y-104611467D01*
X231037517Y-104611470D01*
X230936470Y-104712517D01*
X230936467Y-104712521D01*
X230853686Y-104836412D01*
X230851571Y-104834998D01*
X230810351Y-104876916D01*
X230742205Y-104892340D01*
X230676538Y-104868472D01*
X230646912Y-104837477D01*
X230613532Y-104787521D01*
X230613529Y-104787517D01*
X230512482Y-104686470D01*
X230512478Y-104686467D01*
X230393659Y-104607074D01*
X230393650Y-104607069D01*
X230261620Y-104552381D01*
X230261614Y-104552379D01*
X230121457Y-104524500D01*
X230121455Y-104524500D01*
X229978545Y-104524500D01*
X229978543Y-104524500D01*
X229838385Y-104552379D01*
X229838379Y-104552381D01*
X229706349Y-104607069D01*
X229706340Y-104607074D01*
X229587521Y-104686467D01*
X229587517Y-104686470D01*
X229486470Y-104787517D01*
X229486467Y-104787521D01*
X229407074Y-104906340D01*
X229407069Y-104906349D01*
X229352381Y-105038379D01*
X229352379Y-105038385D01*
X229324500Y-105178542D01*
X229324500Y-105178545D01*
X229324500Y-105321455D01*
X229324500Y-105321457D01*
X229324499Y-105321457D01*
X228875500Y-105321457D01*
X228875500Y-105178542D01*
X228847620Y-105038385D01*
X228847619Y-105038384D01*
X228847619Y-105038380D01*
X228792929Y-104906347D01*
X228792928Y-104906346D01*
X228792925Y-104906340D01*
X228713532Y-104787521D01*
X228713529Y-104787517D01*
X228612482Y-104686470D01*
X228612478Y-104686467D01*
X228493659Y-104607074D01*
X228493650Y-104607069D01*
X228361620Y-104552381D01*
X228361614Y-104552379D01*
X228221457Y-104524500D01*
X228221455Y-104524500D01*
X228078545Y-104524500D01*
X228078543Y-104524500D01*
X227938385Y-104552379D01*
X227938379Y-104552381D01*
X227806349Y-104607069D01*
X227806340Y-104607074D01*
X227687521Y-104686467D01*
X227687517Y-104686470D01*
X227586470Y-104787517D01*
X227586467Y-104787521D01*
X227507074Y-104906340D01*
X227507069Y-104906349D01*
X227452381Y-105038379D01*
X227452379Y-105038385D01*
X227424500Y-105178542D01*
X227424500Y-105178545D01*
X227424500Y-105321455D01*
X227424500Y-105321457D01*
X227424499Y-105321457D01*
X224806058Y-105321457D01*
X224925289Y-105241789D01*
X225036789Y-105130289D01*
X225046431Y-105115858D01*
X225054648Y-105103562D01*
X225124390Y-104999185D01*
X225124390Y-104999184D01*
X225124394Y-104999179D01*
X225125522Y-104996457D01*
X225168648Y-104892340D01*
X225184737Y-104853497D01*
X225215500Y-104698842D01*
X225215500Y-104541158D01*
X225215500Y-104541155D01*
X225215499Y-104541153D01*
X225198630Y-104456347D01*
X225184737Y-104386503D01*
X225164448Y-104337521D01*
X225124397Y-104240827D01*
X225124390Y-104240814D01*
X225036789Y-104109711D01*
X225036786Y-104109707D01*
X224925292Y-103998213D01*
X224925288Y-103998210D01*
X224794185Y-103910609D01*
X224794172Y-103910602D01*
X224648501Y-103850264D01*
X224648489Y-103850261D01*
X224493845Y-103819500D01*
X224493842Y-103819500D01*
X223854398Y-103819500D01*
X223787359Y-103799815D01*
X223741604Y-103747011D01*
X223731660Y-103677853D01*
X223760685Y-103614297D01*
X223766717Y-103607819D01*
X223787869Y-103586667D01*
X223828715Y-103545821D01*
X223905008Y-103413678D01*
X223944500Y-103266293D01*
X223944500Y-103113707D01*
X223905008Y-102966322D01*
X223864671Y-102896457D01*
X223828717Y-102834182D01*
X223828712Y-102834176D01*
X223720823Y-102726287D01*
X223720817Y-102726282D01*
X223588681Y-102649993D01*
X223588682Y-102649993D01*
X223576595Y-102646754D01*
X223441293Y-102610500D01*
X223288707Y-102610500D01*
X223153404Y-102646754D01*
X223141318Y-102649993D01*
X223009182Y-102726282D01*
X223009176Y-102726287D01*
X222901287Y-102834176D01*
X222901282Y-102834182D01*
X222824993Y-102966318D01*
X222824992Y-102966322D01*
X222785500Y-103113707D01*
X222785500Y-103266293D01*
X222822819Y-103405567D01*
X222824993Y-103413681D01*
X222901282Y-103545817D01*
X222901284Y-103545819D01*
X222901285Y-103545821D01*
X223009179Y-103653715D01*
X223009180Y-103653716D01*
X223009182Y-103653717D01*
X223019853Y-103659878D01*
X223068068Y-103710446D01*
X223081289Y-103779054D01*
X223055320Y-103843918D01*
X223005304Y-103881825D01*
X222935823Y-103910604D01*
X222935814Y-103910609D01*
X222804711Y-103998210D01*
X222804707Y-103998213D01*
X222693213Y-104109707D01*
X222693210Y-104109711D01*
X222605609Y-104240814D01*
X222605602Y-104240827D01*
X222545264Y-104386498D01*
X222545261Y-104386510D01*
X222514500Y-104541153D01*
X220885499Y-104541153D01*
X220868630Y-104456347D01*
X220854737Y-104386503D01*
X220834448Y-104337521D01*
X220794397Y-104240827D01*
X220794390Y-104240814D01*
X220706789Y-104109711D01*
X220706786Y-104109707D01*
X220595292Y-103998213D01*
X220595288Y-103998210D01*
X220464185Y-103910609D01*
X220464172Y-103910602D01*
X220318501Y-103850264D01*
X220318489Y-103850261D01*
X220163845Y-103819500D01*
X220163842Y-103819500D01*
X219206158Y-103819500D01*
X219206155Y-103819500D01*
X219051510Y-103850261D01*
X219051498Y-103850264D01*
X218905827Y-103910602D01*
X218905814Y-103910609D01*
X218774711Y-103998210D01*
X218774707Y-103998213D01*
X218663213Y-104109707D01*
X218663210Y-104109711D01*
X218575609Y-104240814D01*
X218575602Y-104240827D01*
X218515264Y-104386498D01*
X218515261Y-104386510D01*
X218484500Y-104541153D01*
X217725500Y-104541153D01*
X217725500Y-102896457D01*
X217974499Y-102896457D01*
X218002379Y-103036614D01*
X218002381Y-103036620D01*
X218057069Y-103168650D01*
X218057074Y-103168659D01*
X218136467Y-103287478D01*
X218136470Y-103287482D01*
X218237517Y-103388529D01*
X218237521Y-103388532D01*
X218356340Y-103467925D01*
X218356346Y-103467928D01*
X218356347Y-103467929D01*
X218488380Y-103522619D01*
X218488384Y-103522619D01*
X218488385Y-103522620D01*
X218628542Y-103550500D01*
X218628545Y-103550500D01*
X218771457Y-103550500D01*
X218885126Y-103527889D01*
X218911620Y-103522619D01*
X219043653Y-103467929D01*
X219162479Y-103388532D01*
X219263532Y-103287479D01*
X219342929Y-103168653D01*
X219397619Y-103036620D01*
X219414836Y-102950065D01*
X219425500Y-102896457D01*
X219425500Y-102753542D01*
X219397620Y-102613385D01*
X219397619Y-102613384D01*
X219397619Y-102613380D01*
X219347727Y-102492930D01*
X219342930Y-102481349D01*
X219342925Y-102481340D01*
X219263532Y-102362521D01*
X219263529Y-102362517D01*
X219162482Y-102261470D01*
X219162478Y-102261467D01*
X219043659Y-102182074D01*
X219043650Y-102182069D01*
X218911620Y-102127381D01*
X218911614Y-102127379D01*
X218771457Y-102099500D01*
X218771455Y-102099500D01*
X218628545Y-102099500D01*
X218628543Y-102099500D01*
X218488385Y-102127379D01*
X218488379Y-102127381D01*
X218356349Y-102182069D01*
X218356340Y-102182074D01*
X218237521Y-102261467D01*
X218237517Y-102261470D01*
X218136470Y-102362517D01*
X218136467Y-102362521D01*
X218057074Y-102481340D01*
X218057069Y-102481349D01*
X218002381Y-102613379D01*
X218002379Y-102613385D01*
X217974500Y-102753542D01*
X217974500Y-102753545D01*
X217974500Y-102896455D01*
X217974500Y-102896457D01*
X217974499Y-102896457D01*
X217725500Y-102896457D01*
X217725500Y-97721457D01*
X217974499Y-97721457D01*
X218002379Y-97861614D01*
X218002381Y-97861620D01*
X218057069Y-97993650D01*
X218057074Y-97993659D01*
X218136467Y-98112478D01*
X218136470Y-98112482D01*
X218237517Y-98213529D01*
X218237521Y-98213532D01*
X218356340Y-98292925D01*
X218356346Y-98292928D01*
X218356347Y-98292929D01*
X218488380Y-98347619D01*
X218488384Y-98347619D01*
X218488385Y-98347620D01*
X218628542Y-98375500D01*
X218628545Y-98375500D01*
X218771457Y-98375500D01*
X218865751Y-98356742D01*
X218911620Y-98347619D01*
X219043653Y-98292929D01*
X219162479Y-98213532D01*
X219263532Y-98112479D01*
X219342929Y-97993653D01*
X219397619Y-97861620D01*
X219425500Y-97721455D01*
X219425500Y-97578545D01*
X219425500Y-97578542D01*
X219397620Y-97438385D01*
X219397619Y-97438384D01*
X219397619Y-97438380D01*
X219342929Y-97306347D01*
X219342928Y-97306346D01*
X219342925Y-97306340D01*
X219263532Y-97187521D01*
X219263529Y-97187517D01*
X219162482Y-97086470D01*
X219162478Y-97086467D01*
X219043659Y-97007074D01*
X219043649Y-97007069D01*
X219007117Y-96991937D01*
X219007112Y-96991935D01*
X218911620Y-96952381D01*
X218878146Y-96945722D01*
X218878142Y-96945721D01*
X218771457Y-96924500D01*
X218771455Y-96924500D01*
X218628545Y-96924500D01*
X218628543Y-96924500D01*
X218488385Y-96952379D01*
X218488379Y-96952381D01*
X218356349Y-97007069D01*
X218356340Y-97007074D01*
X218237521Y-97086467D01*
X218237517Y-97086470D01*
X218136470Y-97187517D01*
X218136467Y-97187521D01*
X218057074Y-97306340D01*
X218057069Y-97306349D01*
X218002381Y-97438379D01*
X218002379Y-97438385D01*
X217974500Y-97578542D01*
X217974500Y-97578545D01*
X217974500Y-97721455D01*
X217974500Y-97721457D01*
X217974499Y-97721457D01*
X217725500Y-97721457D01*
X217725500Y-95901153D01*
X218484500Y-95901153D01*
X218484500Y-96058846D01*
X218515261Y-96213489D01*
X218515264Y-96213501D01*
X218575602Y-96359172D01*
X218575609Y-96359185D01*
X218663210Y-96490288D01*
X218663213Y-96490292D01*
X218774707Y-96601786D01*
X218774711Y-96601789D01*
X218905814Y-96689390D01*
X218905827Y-96689397D01*
X218925142Y-96697397D01*
X219051503Y-96749737D01*
X219136241Y-96766592D01*
X219206155Y-96780500D01*
X219206158Y-96780500D01*
X220163844Y-96780500D01*
X220163845Y-96780499D01*
X220318497Y-96749737D01*
X220464179Y-96689394D01*
X220595289Y-96601789D01*
X220706789Y-96490289D01*
X220794394Y-96359179D01*
X220854737Y-96213497D01*
X220885500Y-96058842D01*
X220885500Y-95901158D01*
X220885500Y-95901155D01*
X220885499Y-95901153D01*
X222514500Y-95901153D01*
X222514500Y-96058846D01*
X222545261Y-96213489D01*
X222545264Y-96213501D01*
X222605602Y-96359172D01*
X222605609Y-96359185D01*
X222693210Y-96490288D01*
X222693213Y-96490292D01*
X222804707Y-96601786D01*
X222804711Y-96601789D01*
X222935814Y-96689390D01*
X222935821Y-96689394D01*
X223005303Y-96718174D01*
X223059706Y-96762014D01*
X223081772Y-96828308D01*
X223064493Y-96896007D01*
X223019858Y-96940118D01*
X223009185Y-96946280D01*
X223009176Y-96946287D01*
X222901287Y-97054176D01*
X222901282Y-97054182D01*
X222824993Y-97186318D01*
X222824992Y-97186322D01*
X222785500Y-97333707D01*
X222785500Y-97486293D01*
X222821817Y-97621827D01*
X222824993Y-97633681D01*
X222901282Y-97765817D01*
X222901284Y-97765819D01*
X222901285Y-97765821D01*
X223009179Y-97873715D01*
X223009180Y-97873716D01*
X223009182Y-97873717D01*
X223141318Y-97950006D01*
X223141319Y-97950006D01*
X223141322Y-97950008D01*
X223288707Y-97989500D01*
X223288710Y-97989500D01*
X223441290Y-97989500D01*
X223441293Y-97989500D01*
X223588678Y-97950008D01*
X223720821Y-97873715D01*
X223828715Y-97765821D01*
X223905008Y-97633678D01*
X223944500Y-97486293D01*
X223944500Y-97333707D01*
X223905008Y-97186322D01*
X223873206Y-97131240D01*
X223828717Y-97054182D01*
X223828712Y-97054176D01*
X223766717Y-96992181D01*
X223733232Y-96930858D01*
X223738216Y-96861166D01*
X223780088Y-96805233D01*
X223845552Y-96780816D01*
X223854398Y-96780500D01*
X224493844Y-96780500D01*
X224493845Y-96780499D01*
X224648497Y-96749737D01*
X224695210Y-96730387D01*
X224764678Y-96722919D01*
X224827158Y-96754194D01*
X224862810Y-96814283D01*
X224864279Y-96820757D01*
X224877379Y-96886614D01*
X224877381Y-96886620D01*
X224932069Y-97018650D01*
X224932075Y-97018660D01*
X224932324Y-97019033D01*
X224932394Y-97019257D01*
X224934944Y-97024028D01*
X224934039Y-97024511D01*
X224953200Y-97085711D01*
X224934714Y-97153091D01*
X224903535Y-97187185D01*
X224881242Y-97203874D01*
X224881236Y-97203879D01*
X224753874Y-97331242D01*
X224753855Y-97331262D01*
X224717728Y-97371480D01*
X224717714Y-97371497D01*
X224701084Y-97392132D01*
X224669504Y-97435915D01*
X224669500Y-97435922D01*
X224668499Y-97438109D01*
X224668500Y-97438110D01*
X224664817Y-97446166D01*
X224646509Y-97474661D01*
X224623028Y-97537606D01*
X224621177Y-97541657D01*
X224621174Y-97541666D01*
X224609699Y-97566777D01*
X224601850Y-97593485D01*
X224601849Y-97593484D01*
X224600607Y-97597712D01*
X224596223Y-97609468D01*
X224593538Y-97621801D01*
X224592292Y-97626049D01*
X224592291Y-97626057D01*
X224589973Y-97633953D01*
X224589973Y-97633954D01*
X224569500Y-97776359D01*
X224569500Y-102829873D01*
X224576025Y-102910829D01*
X224576026Y-102910842D01*
X224582391Y-102950065D01*
X224601804Y-103028943D01*
X224617175Y-103075057D01*
X224626384Y-103100409D01*
X224631230Y-103112715D01*
X224641758Y-103137497D01*
X224641763Y-103137508D01*
X224719545Y-103258537D01*
X224719553Y-103258548D01*
X224765297Y-103311340D01*
X224765300Y-103311343D01*
X224765304Y-103311347D01*
X224874038Y-103405567D01*
X224874041Y-103405568D01*
X224874042Y-103405569D01*
X224891804Y-103413681D01*
X225004915Y-103465338D01*
X225071954Y-103485023D01*
X225071958Y-103485024D01*
X225168230Y-103498865D01*
X225231785Y-103527889D01*
X225269560Y-103586667D01*
X225272939Y-103622453D01*
X225274500Y-103622453D01*
X225274500Y-103628545D01*
X225274500Y-103771455D01*
X225274500Y-103771457D01*
X225274499Y-103771457D01*
X225302379Y-103911614D01*
X225302381Y-103911620D01*
X225357069Y-104043650D01*
X225357074Y-104043659D01*
X225436467Y-104162478D01*
X225436470Y-104162482D01*
X225537517Y-104263529D01*
X225537521Y-104263532D01*
X225656340Y-104342925D01*
X225656346Y-104342928D01*
X225656347Y-104342929D01*
X225788380Y-104397619D01*
X225788384Y-104397619D01*
X225788385Y-104397620D01*
X225928542Y-104425500D01*
X225928545Y-104425500D01*
X226071457Y-104425500D01*
X226165751Y-104406742D01*
X226211620Y-104397619D01*
X226343653Y-104342929D01*
X226462479Y-104263532D01*
X226563532Y-104162479D01*
X226642929Y-104043653D01*
X226697619Y-103911620D01*
X226707030Y-103864306D01*
X226716795Y-103845638D01*
X226722006Y-103825224D01*
X226732664Y-103815301D01*
X226739414Y-103802397D01*
X226757723Y-103791970D01*
X226773144Y-103777614D01*
X226787475Y-103775028D01*
X226800129Y-103767823D01*
X226821168Y-103768950D01*
X226841904Y-103765210D01*
X226865963Y-103771351D01*
X226869899Y-103771562D01*
X226876069Y-103773926D01*
X226882198Y-103776465D01*
X226942548Y-103801463D01*
X226962597Y-103805451D01*
X226996196Y-103812134D01*
X227063392Y-103825501D01*
X227063394Y-103825501D01*
X227192721Y-103825501D01*
X227192741Y-103825500D01*
X228692680Y-103825500D01*
X228751139Y-103840145D01*
X228756341Y-103842925D01*
X228756347Y-103842929D01*
X228888380Y-103897619D01*
X228888384Y-103897619D01*
X228888385Y-103897620D01*
X229028542Y-103925500D01*
X229028545Y-103925500D01*
X229171457Y-103925500D01*
X229265751Y-103906742D01*
X229311620Y-103897619D01*
X229443653Y-103842929D01*
X229562479Y-103763532D01*
X229663532Y-103662479D01*
X229742929Y-103543653D01*
X229797619Y-103411620D01*
X229825500Y-103271455D01*
X229825500Y-103128545D01*
X229825500Y-103128542D01*
X229797620Y-102988385D01*
X229797619Y-102988384D01*
X229797619Y-102988380D01*
X229742929Y-102856347D01*
X229742928Y-102856346D01*
X229742925Y-102856340D01*
X229663532Y-102737521D01*
X229663529Y-102737517D01*
X229562482Y-102636470D01*
X229562478Y-102636467D01*
X229443659Y-102557074D01*
X229443650Y-102557069D01*
X229311620Y-102502381D01*
X229311614Y-102502379D01*
X229171457Y-102474500D01*
X229171455Y-102474500D01*
X229028545Y-102474500D01*
X229028543Y-102474500D01*
X228888385Y-102502379D01*
X228888379Y-102502381D01*
X228756348Y-102557070D01*
X228751139Y-102559855D01*
X228692680Y-102574500D01*
X227435453Y-102574500D01*
X227368414Y-102554815D01*
X227347772Y-102538181D01*
X227041819Y-102232228D01*
X227008334Y-102170905D01*
X227005500Y-102144547D01*
X227005500Y-101921457D01*
X230924499Y-101921457D01*
X230952379Y-102061614D01*
X230952381Y-102061620D01*
X231007069Y-102193650D01*
X231007074Y-102193659D01*
X231086467Y-102312478D01*
X231086470Y-102312482D01*
X231187517Y-102413529D01*
X231187521Y-102413532D01*
X231306340Y-102492925D01*
X231306346Y-102492928D01*
X231306347Y-102492929D01*
X231438380Y-102547619D01*
X231438384Y-102547619D01*
X231438385Y-102547620D01*
X231578542Y-102575500D01*
X231578545Y-102575500D01*
X231721457Y-102575500D01*
X231825444Y-102554815D01*
X231861620Y-102547619D01*
X231993653Y-102492929D01*
X232112479Y-102413532D01*
X232213532Y-102312479D01*
X232292929Y-102193653D01*
X232347619Y-102061620D01*
X232375500Y-101921455D01*
X232375500Y-101778545D01*
X232375500Y-101778542D01*
X232347620Y-101638385D01*
X232347619Y-101638384D01*
X232347619Y-101638380D01*
X232292929Y-101506347D01*
X232292928Y-101506346D01*
X232292925Y-101506340D01*
X232213532Y-101387521D01*
X232213529Y-101387517D01*
X232112482Y-101286470D01*
X232112478Y-101286467D01*
X231993659Y-101207074D01*
X231993650Y-101207069D01*
X231861620Y-101152381D01*
X231861614Y-101152379D01*
X231721457Y-101124500D01*
X231721455Y-101124500D01*
X231578545Y-101124500D01*
X231578543Y-101124500D01*
X231438385Y-101152379D01*
X231438379Y-101152381D01*
X231306349Y-101207069D01*
X231306340Y-101207074D01*
X231187521Y-101286467D01*
X231187517Y-101286470D01*
X231086470Y-101387517D01*
X231086467Y-101387521D01*
X231007074Y-101506340D01*
X231007069Y-101506349D01*
X230952381Y-101638379D01*
X230952379Y-101638385D01*
X230924500Y-101778542D01*
X230924500Y-101778545D01*
X230924500Y-101921455D01*
X230924500Y-101921457D01*
X230924499Y-101921457D01*
X227005500Y-101921457D01*
X227005500Y-100821457D01*
X227474499Y-100821457D01*
X227502379Y-100961614D01*
X227502381Y-100961620D01*
X227557069Y-101093650D01*
X227557074Y-101093659D01*
X227636467Y-101212478D01*
X227636470Y-101212482D01*
X227737517Y-101313529D01*
X227737521Y-101313532D01*
X227856340Y-101392925D01*
X227856346Y-101392928D01*
X227856347Y-101392929D01*
X227988380Y-101447619D01*
X227988384Y-101447619D01*
X227988385Y-101447620D01*
X228128542Y-101475500D01*
X228128545Y-101475500D01*
X228271457Y-101475500D01*
X228365751Y-101456742D01*
X228411620Y-101447619D01*
X228543653Y-101392929D01*
X228662479Y-101313532D01*
X228763532Y-101212479D01*
X228842929Y-101093653D01*
X228897619Y-100961620D01*
X228925500Y-100821455D01*
X228925500Y-100678545D01*
X228925500Y-100678542D01*
X228897620Y-100538385D01*
X228897619Y-100538384D01*
X228897619Y-100538380D01*
X228842929Y-100406347D01*
X228842928Y-100406346D01*
X228842925Y-100406340D01*
X228763532Y-100287521D01*
X228763529Y-100287517D01*
X228662482Y-100186470D01*
X228662478Y-100186467D01*
X228543659Y-100107074D01*
X228543650Y-100107069D01*
X228411620Y-100052381D01*
X228411614Y-100052379D01*
X228271457Y-100024500D01*
X228271455Y-100024500D01*
X228128545Y-100024500D01*
X228128543Y-100024500D01*
X227988385Y-100052379D01*
X227988379Y-100052381D01*
X227856349Y-100107069D01*
X227856340Y-100107074D01*
X227737521Y-100186467D01*
X227737517Y-100186470D01*
X227636470Y-100287517D01*
X227636467Y-100287521D01*
X227557074Y-100406340D01*
X227557069Y-100406349D01*
X227502381Y-100538379D01*
X227502379Y-100538385D01*
X227474500Y-100678542D01*
X227474500Y-100678545D01*
X227474500Y-100821455D01*
X227474500Y-100821457D01*
X227474499Y-100821457D01*
X227005500Y-100821457D01*
X227005500Y-99854500D01*
X227025185Y-99787461D01*
X227077989Y-99741706D01*
X227129500Y-99730500D01*
X228975500Y-99730500D01*
X229042539Y-99750185D01*
X229088294Y-99802989D01*
X229099500Y-99854500D01*
X229099500Y-99921455D01*
X229099500Y-99921457D01*
X229099499Y-99921457D01*
X229127379Y-100061614D01*
X229127381Y-100061620D01*
X229182069Y-100193650D01*
X229182074Y-100193659D01*
X229261467Y-100312478D01*
X229261470Y-100312482D01*
X229362517Y-100413529D01*
X229362521Y-100413532D01*
X229481340Y-100492925D01*
X229481346Y-100492928D01*
X229481347Y-100492929D01*
X229613380Y-100547619D01*
X229613384Y-100547619D01*
X229613385Y-100547620D01*
X229753542Y-100575500D01*
X229753545Y-100575500D01*
X229896457Y-100575500D01*
X229990751Y-100556742D01*
X230036620Y-100547619D01*
X230168653Y-100492929D01*
X230287479Y-100413532D01*
X230388532Y-100312479D01*
X230467929Y-100193653D01*
X230522619Y-100061620D01*
X230550500Y-99921455D01*
X230550500Y-99854500D01*
X230570185Y-99787461D01*
X230622989Y-99741706D01*
X230674500Y-99730500D01*
X231073640Y-99730500D01*
X231083786Y-99729955D01*
X231127678Y-99727603D01*
X231127686Y-99727602D01*
X231127688Y-99727602D01*
X231127689Y-99727602D01*
X231134682Y-99726849D01*
X231154036Y-99724769D01*
X231154046Y-99724767D01*
X231154049Y-99724767D01*
X231163648Y-99723211D01*
X231207448Y-99716114D01*
X231342257Y-99665832D01*
X231403580Y-99632347D01*
X231518761Y-99546123D01*
X231721123Y-99343761D01*
X231757288Y-99303500D01*
X231773922Y-99282858D01*
X231805567Y-99238974D01*
X231865338Y-99108097D01*
X231885023Y-99041058D01*
X231885024Y-99041054D01*
X231905500Y-98898638D01*
X231905500Y-98246457D01*
X238174499Y-98246457D01*
X238202379Y-98386614D01*
X238202381Y-98386620D01*
X238257069Y-98518650D01*
X238257074Y-98518659D01*
X238336467Y-98637478D01*
X238336470Y-98637482D01*
X238437517Y-98738529D01*
X238437521Y-98738532D01*
X238556340Y-98817925D01*
X238556346Y-98817928D01*
X238556347Y-98817929D01*
X238688380Y-98872619D01*
X238688384Y-98872619D01*
X238688385Y-98872620D01*
X238828542Y-98900500D01*
X238828545Y-98900500D01*
X238971457Y-98900500D01*
X239065751Y-98881742D01*
X239111620Y-98872619D01*
X239243653Y-98817929D01*
X239362479Y-98738532D01*
X239463532Y-98637479D01*
X239542929Y-98518653D01*
X239597619Y-98386620D01*
X239606742Y-98340751D01*
X239625500Y-98246457D01*
X239625500Y-98103542D01*
X239597620Y-97963385D01*
X239597619Y-97963384D01*
X239597619Y-97963380D01*
X239542929Y-97831347D01*
X239542928Y-97831346D01*
X239542925Y-97831340D01*
X239463532Y-97712521D01*
X239463529Y-97712517D01*
X239362482Y-97611470D01*
X239362478Y-97611467D01*
X239243659Y-97532074D01*
X239243650Y-97532069D01*
X239111620Y-97477381D01*
X239111614Y-97477379D01*
X238971457Y-97449500D01*
X238971455Y-97449500D01*
X238828545Y-97449500D01*
X238828543Y-97449500D01*
X238688385Y-97477379D01*
X238688379Y-97477381D01*
X238556349Y-97532069D01*
X238556340Y-97532074D01*
X238437521Y-97611467D01*
X238437517Y-97611470D01*
X238336470Y-97712517D01*
X238336467Y-97712521D01*
X238257074Y-97831340D01*
X238257069Y-97831349D01*
X238202381Y-97963379D01*
X238202379Y-97963385D01*
X238174500Y-98103542D01*
X238174500Y-98103545D01*
X238174500Y-98246455D01*
X238174500Y-98246457D01*
X238174499Y-98246457D01*
X231905500Y-98246457D01*
X231905500Y-97576362D01*
X231905125Y-97569375D01*
X231903640Y-97541666D01*
X231902603Y-97522322D01*
X231899769Y-97495964D01*
X231898201Y-97486290D01*
X231891114Y-97442554D01*
X231891114Y-97442552D01*
X231872308Y-97392132D01*
X231840832Y-97307743D01*
X231807347Y-97246420D01*
X231721123Y-97131239D01*
X231721118Y-97131234D01*
X231721113Y-97131228D01*
X231468776Y-96878892D01*
X231468761Y-96878877D01*
X231468737Y-96878855D01*
X231428519Y-96842728D01*
X231428507Y-96842718D01*
X231407857Y-96826077D01*
X231390709Y-96813711D01*
X231347847Y-96758533D01*
X231341621Y-96688941D01*
X231374008Y-96627031D01*
X231375503Y-96625507D01*
X231438532Y-96562479D01*
X231517929Y-96443653D01*
X231572619Y-96311620D01*
X231581742Y-96265751D01*
X231600500Y-96171457D01*
X231600500Y-96028542D01*
X231572620Y-95888385D01*
X231572619Y-95888384D01*
X231572619Y-95888380D01*
X231517929Y-95756347D01*
X231517928Y-95756346D01*
X231517925Y-95756340D01*
X231438532Y-95637521D01*
X231438529Y-95637517D01*
X231337482Y-95536470D01*
X231337478Y-95536467D01*
X231218659Y-95457074D01*
X231218650Y-95457069D01*
X231132674Y-95421457D01*
X234824499Y-95421457D01*
X234852379Y-95561614D01*
X234852381Y-95561620D01*
X234907069Y-95693650D01*
X234907074Y-95693659D01*
X234986467Y-95812478D01*
X234986470Y-95812482D01*
X235087517Y-95913529D01*
X235087521Y-95913532D01*
X235206340Y-95992925D01*
X235206346Y-95992928D01*
X235206347Y-95992929D01*
X235338380Y-96047619D01*
X235338384Y-96047619D01*
X235338385Y-96047620D01*
X235478542Y-96075500D01*
X235478545Y-96075500D01*
X235621457Y-96075500D01*
X235715751Y-96056742D01*
X235761620Y-96047619D01*
X235893653Y-95992929D01*
X236012479Y-95913532D01*
X236113532Y-95812479D01*
X236192929Y-95693653D01*
X236247619Y-95561620D01*
X236268415Y-95457074D01*
X236275500Y-95421457D01*
X236275500Y-95278542D01*
X236247620Y-95138385D01*
X236247619Y-95138384D01*
X236247619Y-95138380D01*
X236192929Y-95006347D01*
X236192928Y-95006346D01*
X236192925Y-95006340D01*
X236113532Y-94887521D01*
X236113529Y-94887517D01*
X236012482Y-94786470D01*
X236012478Y-94786467D01*
X235893659Y-94707074D01*
X235893650Y-94707069D01*
X235761620Y-94652381D01*
X235761614Y-94652379D01*
X235621457Y-94624500D01*
X235621455Y-94624500D01*
X235478545Y-94624500D01*
X235478543Y-94624500D01*
X235338385Y-94652379D01*
X235338379Y-94652381D01*
X235206349Y-94707069D01*
X235206340Y-94707074D01*
X235087521Y-94786467D01*
X235087517Y-94786470D01*
X234986470Y-94887517D01*
X234986467Y-94887521D01*
X234907074Y-95006340D01*
X234907069Y-95006349D01*
X234852381Y-95138379D01*
X234852379Y-95138385D01*
X234824500Y-95278542D01*
X234824500Y-95278545D01*
X234824500Y-95421455D01*
X234824500Y-95421457D01*
X234824499Y-95421457D01*
X231132674Y-95421457D01*
X231086620Y-95402381D01*
X231086614Y-95402379D01*
X231044840Y-95394070D01*
X230946457Y-95374500D01*
X230946455Y-95374500D01*
X230803545Y-95374500D01*
X230803543Y-95374500D01*
X230663385Y-95402379D01*
X230663379Y-95402381D01*
X230531349Y-95457069D01*
X230531340Y-95457074D01*
X230412521Y-95536467D01*
X230412517Y-95536470D01*
X230311470Y-95637517D01*
X230311467Y-95637521D01*
X230232074Y-95756340D01*
X230232069Y-95756349D01*
X230177381Y-95888379D01*
X230177379Y-95888385D01*
X230149500Y-96028542D01*
X230149500Y-96028545D01*
X230149500Y-96171455D01*
X230149500Y-96171457D01*
X230149499Y-96171457D01*
X230177379Y-96311614D01*
X230177381Y-96311620D01*
X230232069Y-96443650D01*
X230232077Y-96443664D01*
X230270795Y-96501610D01*
X230291673Y-96568287D01*
X230273188Y-96635667D01*
X230221209Y-96682357D01*
X230167693Y-96694500D01*
X229251360Y-96694500D01*
X229197311Y-96697397D01*
X229197310Y-96697397D01*
X229170977Y-96700229D01*
X229170950Y-96700232D01*
X229117554Y-96708885D01*
X229117552Y-96708885D01*
X228982747Y-96759166D01*
X228921422Y-96792651D01*
X228806240Y-96878876D01*
X228806236Y-96878879D01*
X228760616Y-96924500D01*
X228701933Y-96983182D01*
X228640613Y-97016666D01*
X228614254Y-97019500D01*
X226397282Y-97019500D01*
X226330243Y-96999815D01*
X226284488Y-96947011D01*
X226274544Y-96877853D01*
X226275665Y-96871308D01*
X226300500Y-96746457D01*
X226300500Y-96603542D01*
X226272620Y-96463385D01*
X226272619Y-96463384D01*
X226272619Y-96463380D01*
X226217929Y-96331347D01*
X226217928Y-96331346D01*
X226217925Y-96331340D01*
X226138532Y-96212521D01*
X226138529Y-96212517D01*
X226037482Y-96111470D01*
X226037478Y-96111467D01*
X225918659Y-96032074D01*
X225918650Y-96032069D01*
X225786620Y-95977381D01*
X225786614Y-95977379D01*
X225646457Y-95949500D01*
X225646455Y-95949500D01*
X225503545Y-95949500D01*
X225503543Y-95949500D01*
X225357406Y-95978569D01*
X225356869Y-95975872D01*
X225298607Y-95976068D01*
X225239702Y-95938493D01*
X225211523Y-95881165D01*
X225197861Y-95812482D01*
X225184737Y-95746503D01*
X225184735Y-95746498D01*
X225124397Y-95600827D01*
X225124390Y-95600814D01*
X225036789Y-95469711D01*
X225036786Y-95469707D01*
X224925292Y-95358213D01*
X224925288Y-95358210D01*
X224794185Y-95270609D01*
X224794172Y-95270602D01*
X224648501Y-95210264D01*
X224648489Y-95210261D01*
X224493845Y-95179500D01*
X224493842Y-95179500D01*
X223236158Y-95179500D01*
X223236155Y-95179500D01*
X223081510Y-95210261D01*
X223081498Y-95210264D01*
X222935827Y-95270602D01*
X222935814Y-95270609D01*
X222804711Y-95358210D01*
X222804707Y-95358213D01*
X222693213Y-95469707D01*
X222693210Y-95469711D01*
X222605609Y-95600814D01*
X222605602Y-95600827D01*
X222545264Y-95746498D01*
X222545261Y-95746510D01*
X222514500Y-95901153D01*
X220885499Y-95901153D01*
X220867861Y-95812482D01*
X220854737Y-95746503D01*
X220854735Y-95746498D01*
X220794397Y-95600827D01*
X220794390Y-95600814D01*
X220706789Y-95469711D01*
X220706786Y-95469707D01*
X220595292Y-95358213D01*
X220595288Y-95358210D01*
X220464185Y-95270609D01*
X220464172Y-95270602D01*
X220318501Y-95210264D01*
X220318489Y-95210261D01*
X220163845Y-95179500D01*
X220163842Y-95179500D01*
X219206158Y-95179500D01*
X219206155Y-95179500D01*
X219051510Y-95210261D01*
X219051498Y-95210264D01*
X218905827Y-95270602D01*
X218905814Y-95270609D01*
X218774711Y-95358210D01*
X218774707Y-95358213D01*
X218663213Y-95469707D01*
X218663210Y-95469711D01*
X218575609Y-95600814D01*
X218575602Y-95600827D01*
X218515264Y-95746498D01*
X218515261Y-95746510D01*
X218484500Y-95901153D01*
X217725500Y-95901153D01*
X217725500Y-94624000D01*
X217745185Y-94556961D01*
X217797989Y-94511206D01*
X217849500Y-94500000D01*
X225000000Y-94500000D01*
X226150000Y-93350000D01*
X226150000Y-93219465D01*
X226169685Y-93152426D01*
X226222489Y-93106671D01*
X226291647Y-93096727D01*
X226355203Y-93125752D01*
X226369853Y-93140800D01*
X226488638Y-93285540D01*
X226714459Y-93511361D01*
X226714464Y-93511365D01*
X226714465Y-93511366D01*
X226961344Y-93713975D01*
X226961351Y-93713980D01*
X226961361Y-93713987D01*
X227226877Y-93891398D01*
X227226882Y-93891401D01*
X227226894Y-93891409D01*
X227226903Y-93891413D01*
X227226905Y-93891415D01*
X227508548Y-94041957D01*
X227508550Y-94041957D01*
X227508556Y-94041961D01*
X227803619Y-94164180D01*
X228109240Y-94256889D01*
X228422477Y-94319196D01*
X228740313Y-94350500D01*
X228740316Y-94350500D01*
X229059684Y-94350500D01*
X229059687Y-94350500D01*
X229377523Y-94319196D01*
X229690760Y-94256889D01*
X229996381Y-94164180D01*
X230291444Y-94041961D01*
X230573106Y-93891409D01*
X230838656Y-93713975D01*
X231085535Y-93511366D01*
X231311366Y-93285535D01*
X231513975Y-93038656D01*
X231691409Y-92773106D01*
X231841961Y-92491444D01*
X231964180Y-92196381D01*
X232056889Y-91890760D01*
X232119196Y-91577523D01*
X232125615Y-91512346D01*
X232151775Y-91447560D01*
X232208809Y-91407200D01*
X232249018Y-91400500D01*
X233028712Y-91400500D01*
X233095751Y-91420185D01*
G37*
%TD.AperFunction*%
%TD*%
M02*
