%TF.GenerationSoftware,KiCad,Pcbnew,9.0.0*%
%TF.CreationDate,2025-02-28T21:47:30+01:00*%
%TF.ProjectId,ESP32S3_M.2_Board,45535033-3253-4335-9f4d-2e325f426f61,rev?*%
%TF.SameCoordinates,Original*%
%TF.FileFunction,Copper,L2,Inr*%
%TF.FilePolarity,Positive*%
%FSLAX46Y46*%
G04 Gerber Fmt 4.6, Leading zero omitted, Abs format (unit mm)*
G04 Created by KiCad (PCBNEW 9.0.0) date 2025-02-28 21:47:30*
%MOMM*%
%LPD*%
G01*
G04 APERTURE LIST*
%TA.AperFunction,ComponentPad*%
%ADD10C,5.500000*%
%TD*%
%TA.AperFunction,ViaPad*%
%ADD11C,0.450000*%
%TD*%
%TA.AperFunction,Conductor*%
%ADD12C,0.150000*%
%TD*%
%TA.AperFunction,Conductor*%
%ADD13C,0.250000*%
%TD*%
G04 APERTURE END LIST*
D10*
%TO.N,unconnected-(J2-MP1-PadMOUNTING-HOLE)*%
%TO.C,J2*%
X228900000Y-91100000D03*
%TD*%
D11*
%TO.N,VBUS*%
X230325000Y-98850000D03*
X230325000Y-97595997D03*
X226250000Y-102350000D03*
X229100000Y-103200000D03*
X225600000Y-102675000D03*
X230900000Y-98529003D03*
X239850000Y-108850000D03*
X226875000Y-97900000D03*
X230900000Y-97925000D03*
X230325000Y-98200000D03*
X229725000Y-98500000D03*
X225950000Y-97900000D03*
X229725000Y-97925000D03*
%TO.N,Earth*%
X222880000Y-129650000D03*
X235550000Y-95350000D03*
X239150000Y-113900000D03*
X218700000Y-97650000D03*
X224390000Y-129635000D03*
X232425000Y-124125000D03*
X230875000Y-96100000D03*
X218548439Y-106630888D03*
X218365000Y-121475000D03*
X231500000Y-105175000D03*
X237500000Y-91800000D03*
X218365000Y-118690000D03*
X225575000Y-96675000D03*
X228200000Y-100750000D03*
X231650000Y-101850000D03*
X239425000Y-122400000D03*
X218700000Y-102825000D03*
X233390000Y-129582500D03*
X219880000Y-129677500D03*
X236650000Y-129725000D03*
X225915000Y-129632500D03*
X239425000Y-125800000D03*
X231450000Y-115075000D03*
X228880000Y-129625000D03*
X220899569Y-111701651D03*
X218350000Y-113825000D03*
X234900000Y-107800000D03*
X223575000Y-106550000D03*
X238900000Y-98175000D03*
X235100000Y-129050000D03*
X233500000Y-117600000D03*
X233850000Y-91750000D03*
X226000000Y-120850000D03*
X231880000Y-129597500D03*
X221400000Y-110150000D03*
X236650000Y-129120997D03*
X239100000Y-117300000D03*
X232400000Y-121450000D03*
X221390000Y-129677500D03*
X230390000Y-129625000D03*
X239425000Y-127425000D03*
X223400000Y-109300000D03*
X226000000Y-103700000D03*
X227390000Y-129625000D03*
X235100000Y-128445997D03*
%TO.N,+3V3*%
X238875000Y-103150000D03*
X225600000Y-108600000D03*
X224900000Y-108750000D03*
X237375000Y-123200000D03*
X238650000Y-103725000D03*
X235825000Y-103450000D03*
X238750000Y-100425000D03*
X226025000Y-119700000D03*
X237375000Y-123925000D03*
X235550000Y-91750000D03*
X237375000Y-125375000D03*
X238750000Y-99775000D03*
X219500000Y-121475000D03*
X228625000Y-96550000D03*
X230340000Y-107735000D03*
X237375000Y-124650000D03*
X238275000Y-99350000D03*
X237400000Y-109550000D03*
%TO.N,/OSC_IN*%
X224425000Y-107975000D03*
%TO.N,/OSC_OUT*%
X223825000Y-107350000D03*
%TO.N,/OSC32_IN*%
X229225000Y-121125000D03*
%TO.N,/OSC32_OUT*%
X229365000Y-119960000D03*
%TO.N,VDD_SPI*%
X235300000Y-116000000D03*
X233500000Y-116750000D03*
%TO.N,/USB_D+*%
X230050000Y-105250000D03*
X231406100Y-118593900D03*
%TO.N,/USB_D-*%
X228150000Y-105250000D03*
X230537200Y-118562800D03*
%TO.N,/FLASH_QSPI_nCS*%
X237200000Y-114910000D03*
%TO.N,/FLASH_QSPI_nH*%
X237100000Y-113412500D03*
X235440000Y-115085000D03*
%TO.N,/FLASH_QSPI_DO*%
X235065000Y-112935000D03*
X236165000Y-113510000D03*
%TO.N,+3V3_RF*%
X219500000Y-113825000D03*
%TO.N,/CHIP_PU*%
X233000000Y-104925000D03*
X226375000Y-110450000D03*
%TO.N,/CHIP_BOOT*%
X226350000Y-111575000D03*
X233125000Y-106175000D03*
%TO.N,/GPIO33*%
X235640000Y-109460000D03*
%TO.N,/GPIO18*%
X231840000Y-126385000D03*
%TO.N,/GPIO35*%
X234015000Y-109460000D03*
%TO.N,/GPIO21*%
X232137500Y-118187500D03*
%TO.N,/SPICLK_P*%
X236465000Y-109460000D03*
%TO.N,/MTCK*%
X232825000Y-106950000D03*
%TO.N,/GPIO37*%
X232390000Y-109460000D03*
%TO.N,/GPIO17*%
X231827500Y-127297500D03*
%TO.N,/MTDO*%
X231800000Y-106950000D03*
%TO.N,/GPIO34*%
X234815000Y-109460000D03*
%TO.N,/U0RXD*%
X228515000Y-110060000D03*
%TO.N,/U0TXD*%
X229340000Y-110060000D03*
%TO.N,/SPICS1*%
X233212500Y-118412500D03*
%TO.N,/MTDI*%
X229740000Y-106960000D03*
%TO.N,/GPIO36*%
X233215000Y-109460000D03*
%TO.N,/GPIO46*%
X229825000Y-99850000D03*
X227315000Y-106960000D03*
%TO.N,/SPICLK_N*%
X237015000Y-110310000D03*
%TO.N,/MTMS*%
X228940000Y-106960000D03*
%TO.N,/GPIO38*%
X233625000Y-106950000D03*
%TO.N,/GPIO45*%
X228140000Y-106960000D03*
%TO.N,Net-(U2-EN)*%
X239775000Y-104800000D03*
%TD*%
D12*
%TO.N,/USB_D+*%
X230670000Y-117857800D02*
X231406100Y-118593900D01*
D13*
%TO.N,Earth*%
X221170000Y-104620000D02*
X221200000Y-104650000D01*
X219685000Y-104620000D02*
X221170000Y-104620000D01*
D12*
%TO.N,/USB_D+*%
X230906000Y-115736000D02*
X231434000Y-115736000D01*
X230050000Y-105650000D02*
X231220000Y-106820000D01*
X230670000Y-116562000D02*
X230670000Y-117857800D01*
X231434000Y-116326000D02*
X230906000Y-116326000D01*
X231220000Y-106820000D02*
X231220000Y-114139045D01*
X231670000Y-115972000D02*
X231670000Y-116090000D01*
X231220000Y-114139045D02*
X230670000Y-114689045D01*
X230050000Y-105250000D02*
X230050000Y-105650000D01*
X230670000Y-114689045D02*
X230670000Y-115500000D01*
X231434000Y-115736000D02*
G75*
G02*
X231670000Y-115972000I0J-236000D01*
G01*
X230670000Y-115500000D02*
G75*
G03*
X230906000Y-115736000I236000J0D01*
G01*
X231670000Y-116090000D02*
G75*
G02*
X231434000Y-116326000I-236000J0D01*
G01*
X230906000Y-116326000D02*
G75*
G03*
X230670000Y-116562000I0J-236000D01*
G01*
%TO.N,/USB_D-*%
X230350000Y-118375600D02*
X230350000Y-114635835D01*
X230895000Y-114090835D02*
X230895000Y-106945000D01*
X230895000Y-106945000D02*
X229200000Y-105250000D01*
X229200000Y-105250000D02*
X228150000Y-105250000D01*
X230350000Y-114635835D02*
X230895000Y-114090835D01*
X230537200Y-118562800D02*
X230350000Y-118375600D01*
%TO.N,/GPIO46*%
X227315000Y-102910000D02*
X227315000Y-106960000D01*
X229825000Y-99850000D02*
X229825000Y-100400000D01*
X229825000Y-100400000D02*
X227315000Y-102910000D01*
%TD*%
%TA.AperFunction,Conductor*%
%TO.N,Earth*%
G36*
X234748925Y-91406435D02*
G01*
X234769965Y-91407563D01*
X234781779Y-91416082D01*
X234795751Y-91420185D01*
X234809546Y-91436105D01*
X234826637Y-91448430D01*
X234831969Y-91461983D01*
X234841506Y-91472989D01*
X234844504Y-91493843D01*
X234852218Y-91513448D01*
X234850888Y-91538244D01*
X234851450Y-91542147D01*
X234850329Y-91548691D01*
X234824500Y-91678540D01*
X234824500Y-91678545D01*
X234824500Y-91821455D01*
X234824500Y-91821457D01*
X234824499Y-91821457D01*
X234852379Y-91961614D01*
X234852381Y-91961620D01*
X234907069Y-92093650D01*
X234907074Y-92093659D01*
X234986467Y-92212478D01*
X234986470Y-92212482D01*
X235087517Y-92313529D01*
X235087521Y-92313532D01*
X235206340Y-92392925D01*
X235206346Y-92392928D01*
X235206347Y-92392929D01*
X235338380Y-92447619D01*
X235338384Y-92447619D01*
X235338385Y-92447620D01*
X235478542Y-92475500D01*
X235478545Y-92475500D01*
X235621457Y-92475500D01*
X235715751Y-92456742D01*
X235761620Y-92447619D01*
X235893653Y-92392929D01*
X236012479Y-92313532D01*
X236113532Y-92212479D01*
X236192929Y-92093653D01*
X236247619Y-91961620D01*
X236275500Y-91821455D01*
X236275500Y-91678545D01*
X236275500Y-91678542D01*
X236275499Y-91678540D01*
X236249671Y-91548691D01*
X236255898Y-91479100D01*
X236298761Y-91423922D01*
X236364651Y-91400678D01*
X236371288Y-91400500D01*
X239852405Y-91400500D01*
X239890244Y-91400500D01*
X239909630Y-91402025D01*
X239942253Y-91407192D01*
X239979144Y-91419178D01*
X239999765Y-91429685D01*
X240031151Y-91452489D01*
X240047510Y-91468848D01*
X240070314Y-91500234D01*
X240080820Y-91520853D01*
X240092808Y-91557748D01*
X240097973Y-91590362D01*
X240099500Y-91609755D01*
X240099500Y-103973739D01*
X240079815Y-104040778D01*
X240027011Y-104086533D01*
X239957853Y-104096477D01*
X239951309Y-104095356D01*
X239846459Y-104074500D01*
X239846455Y-104074500D01*
X239703545Y-104074500D01*
X239703543Y-104074500D01*
X239563385Y-104102379D01*
X239563380Y-104102381D01*
X239496625Y-104130031D01*
X239427156Y-104137498D01*
X239364677Y-104106223D01*
X239329025Y-104046133D01*
X239331520Y-103976308D01*
X239334599Y-103968050D01*
X239347619Y-103936620D01*
X239356742Y-103890751D01*
X239375500Y-103796457D01*
X239375500Y-103726873D01*
X239395185Y-103659834D01*
X239411815Y-103639195D01*
X239438532Y-103612479D01*
X239517929Y-103493653D01*
X239572619Y-103361620D01*
X239591582Y-103266290D01*
X239600500Y-103221457D01*
X239600500Y-103078542D01*
X239572620Y-102938385D01*
X239572619Y-102938384D01*
X239572619Y-102938380D01*
X239529456Y-102834176D01*
X239517930Y-102806349D01*
X239517925Y-102806340D01*
X239438532Y-102687521D01*
X239438529Y-102687517D01*
X239337482Y-102586470D01*
X239337478Y-102586467D01*
X239218659Y-102507074D01*
X239218650Y-102507069D01*
X239086620Y-102452381D01*
X239086614Y-102452379D01*
X238946457Y-102424500D01*
X238946455Y-102424500D01*
X238803545Y-102424500D01*
X238803543Y-102424500D01*
X238663385Y-102452379D01*
X238663379Y-102452381D01*
X238531349Y-102507069D01*
X238531340Y-102507074D01*
X238412521Y-102586467D01*
X238412517Y-102586470D01*
X238311470Y-102687517D01*
X238311467Y-102687521D01*
X238232074Y-102806340D01*
X238232069Y-102806349D01*
X238177381Y-102938379D01*
X238177379Y-102938385D01*
X238149500Y-103078542D01*
X238149500Y-103148126D01*
X238129815Y-103215165D01*
X238113181Y-103235807D01*
X238086470Y-103262517D01*
X238086467Y-103262521D01*
X238007074Y-103381340D01*
X238007069Y-103381349D01*
X237952381Y-103513379D01*
X237952379Y-103513385D01*
X237924500Y-103653542D01*
X237924500Y-103653545D01*
X237924500Y-103796455D01*
X237924500Y-103796457D01*
X237924499Y-103796457D01*
X237952379Y-103936614D01*
X237952381Y-103936620D01*
X238007069Y-104068650D01*
X238007074Y-104068659D01*
X238086467Y-104187478D01*
X238086470Y-104187482D01*
X238187517Y-104288529D01*
X238187521Y-104288532D01*
X238306340Y-104367925D01*
X238306346Y-104367928D01*
X238306347Y-104367929D01*
X238438380Y-104422619D01*
X238438384Y-104422619D01*
X238438385Y-104422620D01*
X238578542Y-104450500D01*
X238578545Y-104450500D01*
X238721457Y-104450500D01*
X238815751Y-104431742D01*
X238861620Y-104422619D01*
X238928373Y-104394968D01*
X238997841Y-104387500D01*
X239060321Y-104418775D01*
X239095973Y-104478864D01*
X239093480Y-104548689D01*
X239090386Y-104556982D01*
X239077382Y-104588375D01*
X239077379Y-104588385D01*
X239049500Y-104728542D01*
X239049500Y-104728545D01*
X239049500Y-104871455D01*
X239049500Y-104871457D01*
X239049499Y-104871457D01*
X239077379Y-105011614D01*
X239077381Y-105011620D01*
X239132069Y-105143650D01*
X239132074Y-105143659D01*
X239211467Y-105262478D01*
X239211470Y-105262482D01*
X239312517Y-105363529D01*
X239312521Y-105363532D01*
X239431340Y-105442925D01*
X239431346Y-105442928D01*
X239431347Y-105442929D01*
X239563380Y-105497619D01*
X239563384Y-105497619D01*
X239563385Y-105497620D01*
X239703542Y-105525500D01*
X239703545Y-105525500D01*
X239846457Y-105525500D01*
X239929184Y-105509043D01*
X239951308Y-105504643D01*
X240020899Y-105510870D01*
X240076077Y-105553732D01*
X240099322Y-105619622D01*
X240099500Y-105626260D01*
X240099500Y-108008820D01*
X240079815Y-108075859D01*
X240027011Y-108121614D01*
X239957853Y-108131558D01*
X239951311Y-108130438D01*
X239921456Y-108124500D01*
X239921455Y-108124500D01*
X239778545Y-108124500D01*
X239778543Y-108124500D01*
X239638385Y-108152379D01*
X239638379Y-108152381D01*
X239506349Y-108207069D01*
X239506340Y-108207074D01*
X239387521Y-108286467D01*
X239387517Y-108286470D01*
X239286470Y-108387517D01*
X239286467Y-108387521D01*
X239207074Y-108506340D01*
X239207069Y-108506349D01*
X239152381Y-108638379D01*
X239152379Y-108638385D01*
X239124500Y-108778542D01*
X239124500Y-108778545D01*
X239124500Y-108921455D01*
X239124500Y-108921457D01*
X239124499Y-108921457D01*
X239152379Y-109061614D01*
X239152381Y-109061620D01*
X239207069Y-109193650D01*
X239207074Y-109193659D01*
X239286467Y-109312478D01*
X239286470Y-109312482D01*
X239387517Y-109413529D01*
X239387521Y-109413532D01*
X239506340Y-109492925D01*
X239506349Y-109492930D01*
X239536258Y-109505318D01*
X239638380Y-109547619D01*
X239638384Y-109547619D01*
X239638385Y-109547620D01*
X239778542Y-109575500D01*
X239778545Y-109575500D01*
X239921456Y-109575500D01*
X239951308Y-109569562D01*
X240020899Y-109575789D01*
X240076077Y-109618651D01*
X240099322Y-109684541D01*
X240099500Y-109691179D01*
X240099500Y-128675500D01*
X240079815Y-128742539D01*
X240027011Y-128788294D01*
X239975500Y-128799500D01*
X239271155Y-128799500D01*
X239116510Y-128830261D01*
X239116498Y-128830264D01*
X238970827Y-128890602D01*
X238970814Y-128890609D01*
X238839711Y-128978210D01*
X238839707Y-128978213D01*
X238728213Y-129089707D01*
X238728210Y-129089711D01*
X238640609Y-129220814D01*
X238640602Y-129220827D01*
X238580264Y-129366498D01*
X238580261Y-129366510D01*
X238549500Y-129521153D01*
X238549500Y-132675500D01*
X238529815Y-132742539D01*
X238477011Y-132788294D01*
X238425500Y-132799500D01*
X235524500Y-132799500D01*
X235457461Y-132779815D01*
X235411706Y-132727011D01*
X235400500Y-132675500D01*
X235400500Y-130111306D01*
X235400499Y-130111304D01*
X235365896Y-129937341D01*
X235365893Y-129937332D01*
X235298016Y-129773459D01*
X235298009Y-129773446D01*
X235199464Y-129625965D01*
X235199461Y-129625961D01*
X235074038Y-129500538D01*
X235074034Y-129500535D01*
X234926553Y-129401990D01*
X234926540Y-129401983D01*
X234762667Y-129334106D01*
X234762658Y-129334103D01*
X234588694Y-129299500D01*
X234588691Y-129299500D01*
X234547595Y-129299500D01*
X234500000Y-129299500D01*
X234411309Y-129299500D01*
X234411306Y-129299500D01*
X234237341Y-129334103D01*
X234237332Y-129334106D01*
X234073459Y-129401983D01*
X234073446Y-129401990D01*
X233925965Y-129500535D01*
X233925961Y-129500538D01*
X233800538Y-129625961D01*
X233800535Y-129625965D01*
X233701990Y-129773446D01*
X233701983Y-129773459D01*
X233634106Y-129937332D01*
X233634103Y-129937341D01*
X233599500Y-130111304D01*
X233599500Y-132675500D01*
X233579815Y-132742539D01*
X233527011Y-132788294D01*
X233475500Y-132799500D01*
X219374500Y-132799500D01*
X219307461Y-132779815D01*
X219261706Y-132727011D01*
X219250500Y-132675500D01*
X219250500Y-129521155D01*
X219250499Y-129521153D01*
X219246398Y-129500535D01*
X219219737Y-129366503D01*
X219174026Y-129256146D01*
X219159397Y-129220827D01*
X219159390Y-129220814D01*
X219071789Y-129089711D01*
X219071786Y-129089707D01*
X218960292Y-128978213D01*
X218960288Y-128978210D01*
X218829185Y-128890609D01*
X218829172Y-128890602D01*
X218683501Y-128830264D01*
X218683489Y-128830261D01*
X218528845Y-128799500D01*
X218528842Y-128799500D01*
X218489562Y-128799500D01*
X217849500Y-128799500D01*
X217782461Y-128779815D01*
X217736706Y-128727011D01*
X217725500Y-128675500D01*
X217725500Y-127368957D01*
X231101999Y-127368957D01*
X231129879Y-127509114D01*
X231129881Y-127509120D01*
X231184569Y-127641150D01*
X231184574Y-127641159D01*
X231263967Y-127759978D01*
X231263970Y-127759982D01*
X231365017Y-127861029D01*
X231365021Y-127861032D01*
X231483840Y-127940425D01*
X231483846Y-127940428D01*
X231483847Y-127940429D01*
X231615880Y-127995119D01*
X231615884Y-127995119D01*
X231615885Y-127995120D01*
X231756042Y-128023000D01*
X231756045Y-128023000D01*
X231898957Y-128023000D01*
X231993251Y-128004242D01*
X232039120Y-127995119D01*
X232171153Y-127940429D01*
X232289979Y-127861032D01*
X232391032Y-127759979D01*
X232470429Y-127641153D01*
X232525119Y-127509120D01*
X232553000Y-127368955D01*
X232553000Y-127226045D01*
X232553000Y-127226042D01*
X232525120Y-127085885D01*
X232525119Y-127085884D01*
X232525119Y-127085880D01*
X232470429Y-126953847D01*
X232447474Y-126919493D01*
X232426597Y-126852818D01*
X232445081Y-126785438D01*
X232447476Y-126781712D01*
X232482924Y-126728661D01*
X232482925Y-126728658D01*
X232482929Y-126728653D01*
X232537619Y-126596620D01*
X232565500Y-126456455D01*
X232565500Y-126313545D01*
X232565500Y-126313542D01*
X232537620Y-126173385D01*
X232537619Y-126173384D01*
X232537619Y-126173380D01*
X232482929Y-126041347D01*
X232482928Y-126041346D01*
X232482925Y-126041340D01*
X232403532Y-125922521D01*
X232403529Y-125922517D01*
X232302482Y-125821470D01*
X232302478Y-125821467D01*
X232183659Y-125742074D01*
X232183650Y-125742069D01*
X232051620Y-125687381D01*
X232051614Y-125687379D01*
X231911457Y-125659500D01*
X231911455Y-125659500D01*
X231768545Y-125659500D01*
X231768543Y-125659500D01*
X231628385Y-125687379D01*
X231628379Y-125687381D01*
X231496349Y-125742069D01*
X231496340Y-125742074D01*
X231377521Y-125821467D01*
X231377517Y-125821470D01*
X231276470Y-125922517D01*
X231276467Y-125922521D01*
X231197074Y-126041340D01*
X231197069Y-126041349D01*
X231142381Y-126173379D01*
X231142379Y-126173385D01*
X231114500Y-126313542D01*
X231114500Y-126313545D01*
X231114500Y-126456455D01*
X231114500Y-126456457D01*
X231114499Y-126456457D01*
X231142379Y-126596614D01*
X231142381Y-126596620D01*
X231197069Y-126728650D01*
X231197074Y-126728658D01*
X231220024Y-126763005D01*
X231240902Y-126829682D01*
X231222418Y-126897062D01*
X231220024Y-126900787D01*
X231184574Y-126953840D01*
X231184569Y-126953849D01*
X231129881Y-127085879D01*
X231129879Y-127085885D01*
X231102000Y-127226042D01*
X231102000Y-127226045D01*
X231102000Y-127368955D01*
X231102000Y-127368957D01*
X231101999Y-127368957D01*
X217725500Y-127368957D01*
X217725500Y-123271457D01*
X236649499Y-123271457D01*
X236677379Y-123411614D01*
X236677382Y-123411624D01*
X236720221Y-123515048D01*
X236727690Y-123584518D01*
X236720221Y-123609952D01*
X236677382Y-123713375D01*
X236677379Y-123713385D01*
X236649500Y-123853542D01*
X236649500Y-123853545D01*
X236649500Y-123996455D01*
X236649500Y-123996457D01*
X236649499Y-123996457D01*
X236677379Y-124136614D01*
X236677382Y-124136624D01*
X236720221Y-124240048D01*
X236727690Y-124309518D01*
X236720221Y-124334952D01*
X236677382Y-124438375D01*
X236677379Y-124438385D01*
X236649500Y-124578542D01*
X236649500Y-124578545D01*
X236649500Y-124721455D01*
X236649500Y-124721457D01*
X236649499Y-124721457D01*
X236677379Y-124861614D01*
X236677382Y-124861624D01*
X236720221Y-124965048D01*
X236727690Y-125034518D01*
X236720221Y-125059952D01*
X236677382Y-125163375D01*
X236677379Y-125163385D01*
X236649500Y-125303542D01*
X236649500Y-125303545D01*
X236649500Y-125446455D01*
X236649500Y-125446457D01*
X236649499Y-125446457D01*
X236677379Y-125586614D01*
X236677381Y-125586620D01*
X236732069Y-125718650D01*
X236732074Y-125718659D01*
X236811467Y-125837478D01*
X236811470Y-125837482D01*
X236912517Y-125938529D01*
X236912521Y-125938532D01*
X237031340Y-126017925D01*
X237031346Y-126017928D01*
X237031347Y-126017929D01*
X237163380Y-126072619D01*
X237163384Y-126072619D01*
X237163385Y-126072620D01*
X237303542Y-126100500D01*
X237303545Y-126100500D01*
X237446457Y-126100500D01*
X237540751Y-126081742D01*
X237586620Y-126072619D01*
X237718653Y-126017929D01*
X237837479Y-125938532D01*
X237938532Y-125837479D01*
X238017929Y-125718653D01*
X238072619Y-125586620D01*
X238100500Y-125446455D01*
X238100500Y-125303545D01*
X238100500Y-125303542D01*
X238072620Y-125163385D01*
X238072619Y-125163384D01*
X238072619Y-125163380D01*
X238029776Y-125059949D01*
X238022308Y-124990484D01*
X238029773Y-124965057D01*
X238072619Y-124861620D01*
X238100500Y-124721455D01*
X238100500Y-124578545D01*
X238100500Y-124578542D01*
X238072620Y-124438385D01*
X238072619Y-124438384D01*
X238072619Y-124438380D01*
X238029776Y-124334949D01*
X238022308Y-124265484D01*
X238029773Y-124240057D01*
X238072619Y-124136620D01*
X238100500Y-123996455D01*
X238100500Y-123853545D01*
X238100500Y-123853542D01*
X238072620Y-123713385D01*
X238072619Y-123713384D01*
X238072619Y-123713380D01*
X238029776Y-123609949D01*
X238022308Y-123540484D01*
X238029773Y-123515057D01*
X238072619Y-123411620D01*
X238100500Y-123271455D01*
X238100500Y-123128545D01*
X238100500Y-123128542D01*
X238072620Y-122988385D01*
X238072619Y-122988384D01*
X238072619Y-122988380D01*
X238017929Y-122856347D01*
X238017928Y-122856346D01*
X238017925Y-122856340D01*
X237938532Y-122737521D01*
X237938529Y-122737517D01*
X237837482Y-122636470D01*
X237837478Y-122636467D01*
X237718659Y-122557074D01*
X237718650Y-122557069D01*
X237586620Y-122502381D01*
X237586614Y-122502379D01*
X237446457Y-122474500D01*
X237446455Y-122474500D01*
X237303545Y-122474500D01*
X237303543Y-122474500D01*
X237163385Y-122502379D01*
X237163379Y-122502381D01*
X237031349Y-122557069D01*
X237031340Y-122557074D01*
X236912521Y-122636467D01*
X236912517Y-122636470D01*
X236811470Y-122737517D01*
X236811467Y-122737521D01*
X236732074Y-122856340D01*
X236732069Y-122856349D01*
X236677381Y-122988379D01*
X236677379Y-122988385D01*
X236649500Y-123128542D01*
X236649500Y-123128545D01*
X236649500Y-123271455D01*
X236649500Y-123271457D01*
X236649499Y-123271457D01*
X217725500Y-123271457D01*
X217725500Y-121546457D01*
X218774499Y-121546457D01*
X218802379Y-121686614D01*
X218802381Y-121686620D01*
X218857069Y-121818650D01*
X218857074Y-121818659D01*
X218936467Y-121937478D01*
X218936470Y-121937482D01*
X219037517Y-122038529D01*
X219037521Y-122038532D01*
X219156340Y-122117925D01*
X219156346Y-122117928D01*
X219156347Y-122117929D01*
X219288380Y-122172619D01*
X219288384Y-122172619D01*
X219288385Y-122172620D01*
X219428542Y-122200500D01*
X219428545Y-122200500D01*
X219571457Y-122200500D01*
X219665751Y-122181742D01*
X219711620Y-122172619D01*
X219843653Y-122117929D01*
X219962479Y-122038532D01*
X220063532Y-121937479D01*
X220142929Y-121818653D01*
X220197619Y-121686620D01*
X220225500Y-121546455D01*
X220225500Y-121403545D01*
X220225500Y-121403542D01*
X220197620Y-121263385D01*
X220197619Y-121263384D01*
X220197619Y-121263380D01*
X220169899Y-121196457D01*
X228499499Y-121196457D01*
X228527379Y-121336614D01*
X228527381Y-121336620D01*
X228582069Y-121468650D01*
X228582074Y-121468659D01*
X228661467Y-121587478D01*
X228661470Y-121587482D01*
X228762517Y-121688529D01*
X228762521Y-121688532D01*
X228881340Y-121767925D01*
X228881346Y-121767928D01*
X228881347Y-121767929D01*
X229013380Y-121822619D01*
X229013384Y-121822619D01*
X229013385Y-121822620D01*
X229153542Y-121850500D01*
X229153545Y-121850500D01*
X229296457Y-121850500D01*
X229390751Y-121831742D01*
X229436620Y-121822619D01*
X229568653Y-121767929D01*
X229687479Y-121688532D01*
X229788532Y-121587479D01*
X229867929Y-121468653D01*
X229922619Y-121336620D01*
X229950500Y-121196455D01*
X229950500Y-121053545D01*
X229950500Y-121053542D01*
X229922620Y-120913385D01*
X229922619Y-120913384D01*
X229922619Y-120913380D01*
X229867929Y-120781347D01*
X229867928Y-120781346D01*
X229867925Y-120781340D01*
X229804785Y-120686845D01*
X229783907Y-120620168D01*
X229802391Y-120552787D01*
X229823725Y-120528393D01*
X229823172Y-120527840D01*
X229928529Y-120422482D01*
X229928532Y-120422479D01*
X230007929Y-120303653D01*
X230062619Y-120171620D01*
X230071742Y-120125751D01*
X230090500Y-120031457D01*
X230090500Y-119888542D01*
X230062620Y-119748385D01*
X230062619Y-119748384D01*
X230062619Y-119748380D01*
X230007929Y-119616347D01*
X230007928Y-119616346D01*
X230007925Y-119616340D01*
X229928532Y-119497521D01*
X229928529Y-119497517D01*
X229827482Y-119396470D01*
X229827478Y-119396467D01*
X229708659Y-119317074D01*
X229708650Y-119317069D01*
X229576620Y-119262381D01*
X229576614Y-119262379D01*
X229436457Y-119234500D01*
X229436455Y-119234500D01*
X229293545Y-119234500D01*
X229293543Y-119234500D01*
X229153385Y-119262379D01*
X229153379Y-119262381D01*
X229021349Y-119317069D01*
X229021340Y-119317074D01*
X228902521Y-119396467D01*
X228902517Y-119396470D01*
X228801470Y-119497517D01*
X228801467Y-119497521D01*
X228722074Y-119616340D01*
X228722069Y-119616349D01*
X228667381Y-119748379D01*
X228667379Y-119748385D01*
X228639500Y-119888542D01*
X228639500Y-119888545D01*
X228639500Y-120031455D01*
X228639500Y-120031457D01*
X228639499Y-120031457D01*
X228667379Y-120171614D01*
X228667381Y-120171620D01*
X228722069Y-120303650D01*
X228722074Y-120303659D01*
X228785214Y-120398154D01*
X228806092Y-120464832D01*
X228787607Y-120532212D01*
X228766277Y-120556609D01*
X228766828Y-120557160D01*
X228661470Y-120662517D01*
X228661467Y-120662521D01*
X228582074Y-120781340D01*
X228582069Y-120781349D01*
X228527381Y-120913379D01*
X228527379Y-120913385D01*
X228499500Y-121053542D01*
X228499500Y-121053545D01*
X228499500Y-121196455D01*
X228499500Y-121196457D01*
X228499499Y-121196457D01*
X220169899Y-121196457D01*
X220142929Y-121131347D01*
X220142928Y-121131346D01*
X220142925Y-121131340D01*
X220132905Y-121116344D01*
X220063532Y-121012521D01*
X220063529Y-121012517D01*
X219962482Y-120911470D01*
X219962478Y-120911467D01*
X219843659Y-120832074D01*
X219843650Y-120832069D01*
X219711620Y-120777381D01*
X219711614Y-120777379D01*
X219571457Y-120749500D01*
X219571455Y-120749500D01*
X219428545Y-120749500D01*
X219428543Y-120749500D01*
X219288385Y-120777379D01*
X219288379Y-120777381D01*
X219156349Y-120832069D01*
X219156340Y-120832074D01*
X219037521Y-120911467D01*
X219037517Y-120911470D01*
X218936470Y-121012517D01*
X218936467Y-121012521D01*
X218857074Y-121131340D01*
X218857069Y-121131349D01*
X218802381Y-121263379D01*
X218802379Y-121263385D01*
X218774500Y-121403542D01*
X218774500Y-121403545D01*
X218774500Y-121546455D01*
X218774500Y-121546457D01*
X218774499Y-121546457D01*
X217725500Y-121546457D01*
X217725500Y-119771457D01*
X225299499Y-119771457D01*
X225327379Y-119911614D01*
X225327381Y-119911620D01*
X225382069Y-120043650D01*
X225382074Y-120043659D01*
X225461467Y-120162478D01*
X225461470Y-120162482D01*
X225562517Y-120263529D01*
X225562521Y-120263532D01*
X225681340Y-120342925D01*
X225681346Y-120342928D01*
X225681347Y-120342929D01*
X225813380Y-120397619D01*
X225813384Y-120397619D01*
X225813385Y-120397620D01*
X225953542Y-120425500D01*
X225953545Y-120425500D01*
X226096457Y-120425500D01*
X226233930Y-120398154D01*
X226236620Y-120397619D01*
X226368653Y-120342929D01*
X226487479Y-120263532D01*
X226588532Y-120162479D01*
X226667929Y-120043653D01*
X226722619Y-119911620D01*
X226750500Y-119771455D01*
X226750500Y-119628545D01*
X226750500Y-119628542D01*
X226722620Y-119488385D01*
X226722619Y-119488384D01*
X226722619Y-119488380D01*
X226667929Y-119356347D01*
X226667928Y-119356346D01*
X226667925Y-119356340D01*
X226588532Y-119237521D01*
X226588529Y-119237517D01*
X226487482Y-119136470D01*
X226487478Y-119136467D01*
X226368659Y-119057074D01*
X226368650Y-119057069D01*
X226236620Y-119002381D01*
X226236614Y-119002379D01*
X226096457Y-118974500D01*
X226096455Y-118974500D01*
X225953545Y-118974500D01*
X225953543Y-118974500D01*
X225813385Y-119002379D01*
X225813379Y-119002381D01*
X225681349Y-119057069D01*
X225681340Y-119057074D01*
X225562521Y-119136467D01*
X225562517Y-119136470D01*
X225461470Y-119237517D01*
X225461467Y-119237521D01*
X225382074Y-119356340D01*
X225382069Y-119356349D01*
X225327381Y-119488379D01*
X225327379Y-119488385D01*
X225299500Y-119628542D01*
X225299500Y-119628545D01*
X225299500Y-119771455D01*
X225299500Y-119771457D01*
X225299499Y-119771457D01*
X217725500Y-119771457D01*
X217725500Y-113896457D01*
X218774499Y-113896457D01*
X218802379Y-114036614D01*
X218802381Y-114036620D01*
X218857069Y-114168650D01*
X218857074Y-114168659D01*
X218936467Y-114287478D01*
X218936470Y-114287482D01*
X219037517Y-114388529D01*
X219037521Y-114388532D01*
X219156340Y-114467925D01*
X219156346Y-114467928D01*
X219156347Y-114467929D01*
X219288380Y-114522619D01*
X219288384Y-114522619D01*
X219288385Y-114522620D01*
X219428542Y-114550500D01*
X219428545Y-114550500D01*
X219571457Y-114550500D01*
X219665751Y-114531742D01*
X219711620Y-114522619D01*
X219843653Y-114467929D01*
X219962479Y-114388532D01*
X220063532Y-114287479D01*
X220142929Y-114168653D01*
X220197619Y-114036620D01*
X220225500Y-113896455D01*
X220225500Y-113753545D01*
X220225500Y-113753542D01*
X220197620Y-113613385D01*
X220197619Y-113613384D01*
X220197619Y-113613380D01*
X220142929Y-113481347D01*
X220142928Y-113481346D01*
X220142925Y-113481340D01*
X220063532Y-113362521D01*
X220063529Y-113362517D01*
X219962482Y-113261470D01*
X219962478Y-113261467D01*
X219843659Y-113182074D01*
X219843650Y-113182069D01*
X219711620Y-113127381D01*
X219711614Y-113127379D01*
X219571457Y-113099500D01*
X219571455Y-113099500D01*
X219428545Y-113099500D01*
X219428543Y-113099500D01*
X219288385Y-113127379D01*
X219288379Y-113127381D01*
X219156349Y-113182069D01*
X219156340Y-113182074D01*
X219037521Y-113261467D01*
X219037517Y-113261470D01*
X218936470Y-113362517D01*
X218936467Y-113362521D01*
X218857074Y-113481340D01*
X218857069Y-113481349D01*
X218802381Y-113613379D01*
X218802379Y-113613385D01*
X218774500Y-113753542D01*
X218774500Y-113753545D01*
X218774500Y-113896455D01*
X218774500Y-113896457D01*
X218774499Y-113896457D01*
X217725500Y-113896457D01*
X217725500Y-111646457D01*
X225624499Y-111646457D01*
X225652379Y-111786614D01*
X225652381Y-111786620D01*
X225707069Y-111918650D01*
X225707074Y-111918659D01*
X225786467Y-112037478D01*
X225786470Y-112037482D01*
X225887517Y-112138529D01*
X225887521Y-112138532D01*
X226006340Y-112217925D01*
X226006346Y-112217928D01*
X226006347Y-112217929D01*
X226138380Y-112272619D01*
X226138384Y-112272619D01*
X226138385Y-112272620D01*
X226278542Y-112300500D01*
X226278545Y-112300500D01*
X226421457Y-112300500D01*
X226515751Y-112281742D01*
X226561620Y-112272619D01*
X226693653Y-112217929D01*
X226812479Y-112138532D01*
X226913532Y-112037479D01*
X226992929Y-111918653D01*
X227047619Y-111786620D01*
X227075500Y-111646455D01*
X227075500Y-111503545D01*
X227075500Y-111503542D01*
X227047620Y-111363385D01*
X227047619Y-111363384D01*
X227047619Y-111363380D01*
X226992929Y-111231347D01*
X226992928Y-111231346D01*
X226992925Y-111231340D01*
X226913532Y-111112521D01*
X226909667Y-111107811D01*
X226910610Y-111107036D01*
X226880207Y-111051357D01*
X226885191Y-110981665D01*
X226913693Y-110937317D01*
X226938532Y-110912479D01*
X227017929Y-110793653D01*
X227072619Y-110661620D01*
X227100296Y-110522482D01*
X227100500Y-110521457D01*
X227100500Y-110378542D01*
X227072620Y-110238385D01*
X227072619Y-110238384D01*
X227072619Y-110238380D01*
X227028330Y-110131457D01*
X227789499Y-110131457D01*
X227817379Y-110271614D01*
X227817381Y-110271620D01*
X227872069Y-110403650D01*
X227872074Y-110403659D01*
X227951467Y-110522478D01*
X227951470Y-110522482D01*
X228052517Y-110623529D01*
X228052521Y-110623532D01*
X228171340Y-110702925D01*
X228171346Y-110702928D01*
X228171347Y-110702929D01*
X228303380Y-110757619D01*
X228303384Y-110757619D01*
X228303385Y-110757620D01*
X228443542Y-110785500D01*
X228443545Y-110785500D01*
X228586457Y-110785500D01*
X228680751Y-110766742D01*
X228726620Y-110757619D01*
X228858653Y-110702929D01*
X228858660Y-110702923D01*
X228864020Y-110700060D01*
X228864571Y-110701090D01*
X228925285Y-110682080D01*
X228990960Y-110700096D01*
X228990980Y-110700060D01*
X228991139Y-110700145D01*
X228992666Y-110700564D01*
X228996333Y-110702919D01*
X228996347Y-110702929D01*
X229128380Y-110757619D01*
X229128384Y-110757619D01*
X229128385Y-110757620D01*
X229268542Y-110785500D01*
X229268545Y-110785500D01*
X229411457Y-110785500D01*
X229505751Y-110766742D01*
X229551620Y-110757619D01*
X229683653Y-110702929D01*
X229802479Y-110623532D01*
X229903532Y-110522479D01*
X229982929Y-110403653D01*
X230037619Y-110271620D01*
X230053272Y-110192929D01*
X230065500Y-110131457D01*
X230065500Y-109988542D01*
X230037620Y-109848385D01*
X230037619Y-109848384D01*
X230037619Y-109848380D01*
X229982929Y-109716347D01*
X229982928Y-109716346D01*
X229982925Y-109716340D01*
X229903532Y-109597521D01*
X229903529Y-109597517D01*
X229802482Y-109496470D01*
X229802478Y-109496467D01*
X229683659Y-109417074D01*
X229683650Y-109417069D01*
X229551620Y-109362381D01*
X229551614Y-109362379D01*
X229411457Y-109334500D01*
X229411455Y-109334500D01*
X229268545Y-109334500D01*
X229268543Y-109334500D01*
X229128385Y-109362379D01*
X229128379Y-109362381D01*
X228996349Y-109417069D01*
X228990972Y-109419944D01*
X228990421Y-109418913D01*
X228929697Y-109437919D01*
X228864051Y-109419900D01*
X228864028Y-109419944D01*
X228863835Y-109419840D01*
X228862320Y-109419425D01*
X228858673Y-109417082D01*
X228858650Y-109417069D01*
X228726620Y-109362381D01*
X228726614Y-109362379D01*
X228586457Y-109334500D01*
X228586455Y-109334500D01*
X228443545Y-109334500D01*
X228443543Y-109334500D01*
X228303385Y-109362379D01*
X228303379Y-109362381D01*
X228171349Y-109417069D01*
X228171340Y-109417074D01*
X228052521Y-109496467D01*
X228052517Y-109496470D01*
X227951470Y-109597517D01*
X227951467Y-109597521D01*
X227872074Y-109716340D01*
X227872069Y-109716349D01*
X227817381Y-109848379D01*
X227817379Y-109848385D01*
X227789500Y-109988542D01*
X227789500Y-109988545D01*
X227789500Y-110131455D01*
X227789500Y-110131457D01*
X227789499Y-110131457D01*
X227028330Y-110131457D01*
X227017929Y-110106347D01*
X227017928Y-110106346D01*
X227017925Y-110106340D01*
X226981178Y-110051344D01*
X226938532Y-109987521D01*
X226938529Y-109987517D01*
X226837482Y-109886470D01*
X226837478Y-109886467D01*
X226718659Y-109807074D01*
X226718650Y-109807069D01*
X226586620Y-109752381D01*
X226586614Y-109752379D01*
X226446457Y-109724500D01*
X226446455Y-109724500D01*
X226303545Y-109724500D01*
X226303543Y-109724500D01*
X226163385Y-109752379D01*
X226163379Y-109752381D01*
X226031349Y-109807069D01*
X226031340Y-109807074D01*
X225912521Y-109886467D01*
X225912517Y-109886470D01*
X225811470Y-109987517D01*
X225811467Y-109987521D01*
X225732074Y-110106340D01*
X225732069Y-110106349D01*
X225677381Y-110238379D01*
X225677379Y-110238385D01*
X225649500Y-110378542D01*
X225649500Y-110378545D01*
X225649500Y-110521455D01*
X225649500Y-110521457D01*
X225649499Y-110521457D01*
X225677379Y-110661614D01*
X225677381Y-110661620D01*
X225732069Y-110793650D01*
X225732074Y-110793659D01*
X225811467Y-110912478D01*
X225815333Y-110917189D01*
X225814387Y-110917965D01*
X225844789Y-110973626D01*
X225839813Y-111043319D01*
X225811309Y-111087679D01*
X225786467Y-111112521D01*
X225707074Y-111231340D01*
X225707069Y-111231349D01*
X225652381Y-111363379D01*
X225652379Y-111363385D01*
X225624500Y-111503542D01*
X225624500Y-111503545D01*
X225624500Y-111646455D01*
X225624500Y-111646457D01*
X225624499Y-111646457D01*
X217725500Y-111646457D01*
X217725500Y-107421457D01*
X223099499Y-107421457D01*
X223127379Y-107561614D01*
X223127381Y-107561620D01*
X223182069Y-107693650D01*
X223182074Y-107693659D01*
X223261467Y-107812478D01*
X223261470Y-107812482D01*
X223362517Y-107913529D01*
X223362521Y-107913532D01*
X223481340Y-107992925D01*
X223481346Y-107992928D01*
X223481347Y-107992929D01*
X223613380Y-108047619D01*
X223622025Y-108049338D01*
X223683936Y-108081722D01*
X223718511Y-108142437D01*
X223719452Y-108146763D01*
X223727379Y-108186615D01*
X223727381Y-108186620D01*
X223782069Y-108318650D01*
X223782074Y-108318659D01*
X223861467Y-108437478D01*
X223861470Y-108437482D01*
X223962517Y-108538529D01*
X223962521Y-108538532D01*
X224081340Y-108617925D01*
X224081344Y-108617927D01*
X224081347Y-108617929D01*
X224097950Y-108624806D01*
X224152354Y-108668646D01*
X224174421Y-108734939D01*
X224174500Y-108739368D01*
X224174500Y-108821455D01*
X224174500Y-108821457D01*
X224174499Y-108821457D01*
X224202379Y-108961614D01*
X224202381Y-108961620D01*
X224257069Y-109093650D01*
X224257074Y-109093659D01*
X224336467Y-109212478D01*
X224336470Y-109212482D01*
X224437517Y-109313529D01*
X224437521Y-109313532D01*
X224556340Y-109392925D01*
X224556346Y-109392928D01*
X224556347Y-109392929D01*
X224688380Y-109447619D01*
X224688384Y-109447619D01*
X224688385Y-109447620D01*
X224828542Y-109475500D01*
X224828545Y-109475500D01*
X224971457Y-109475500D01*
X225065751Y-109456742D01*
X225111620Y-109447619D01*
X225243653Y-109392929D01*
X225344068Y-109325833D01*
X225410741Y-109304957D01*
X225437148Y-109307320D01*
X225528542Y-109325500D01*
X225528545Y-109325500D01*
X225671457Y-109325500D01*
X225774730Y-109304957D01*
X225811620Y-109297619D01*
X225943653Y-109242929D01*
X226062479Y-109163532D01*
X226163532Y-109062479D01*
X226242929Y-108943653D01*
X226297619Y-108811620D01*
X226307414Y-108762379D01*
X226325500Y-108671457D01*
X226325500Y-108528542D01*
X226297620Y-108388385D01*
X226297619Y-108388384D01*
X226297619Y-108388380D01*
X226242929Y-108256347D01*
X226242928Y-108256346D01*
X226242925Y-108256340D01*
X226163532Y-108137521D01*
X226163529Y-108137517D01*
X226062482Y-108036470D01*
X226062478Y-108036467D01*
X225943659Y-107957074D01*
X225943650Y-107957069D01*
X225811620Y-107902381D01*
X225811614Y-107902379D01*
X225671457Y-107874500D01*
X225671455Y-107874500D01*
X225528545Y-107874500D01*
X225528543Y-107874500D01*
X225388385Y-107902379D01*
X225388380Y-107902381D01*
X225307984Y-107935681D01*
X225238515Y-107943148D01*
X225176036Y-107911873D01*
X225140384Y-107851783D01*
X225138916Y-107845310D01*
X225132386Y-107812482D01*
X225122619Y-107763380D01*
X225067929Y-107631347D01*
X225067928Y-107631346D01*
X225067925Y-107631340D01*
X224988532Y-107512521D01*
X224988529Y-107512517D01*
X224887482Y-107411470D01*
X224887478Y-107411467D01*
X224768659Y-107332074D01*
X224768650Y-107332069D01*
X224636618Y-107277380D01*
X224636614Y-107277379D01*
X224627971Y-107275660D01*
X224566060Y-107243275D01*
X224531486Y-107182559D01*
X224530555Y-107178280D01*
X224522619Y-107138380D01*
X224467929Y-107006347D01*
X224467928Y-107006346D01*
X224467925Y-107006340D01*
X224388532Y-106887521D01*
X224388529Y-106887517D01*
X224287482Y-106786470D01*
X224287478Y-106786467D01*
X224168659Y-106707074D01*
X224168650Y-106707069D01*
X224036620Y-106652381D01*
X224036614Y-106652379D01*
X223896457Y-106624500D01*
X223896455Y-106624500D01*
X223753545Y-106624500D01*
X223753543Y-106624500D01*
X223613385Y-106652379D01*
X223613379Y-106652381D01*
X223481349Y-106707069D01*
X223481340Y-106707074D01*
X223362521Y-106786467D01*
X223362517Y-106786470D01*
X223261470Y-106887517D01*
X223261467Y-106887521D01*
X223182074Y-107006340D01*
X223182069Y-107006349D01*
X223127381Y-107138379D01*
X223127379Y-107138385D01*
X223099500Y-107278542D01*
X223099500Y-107278545D01*
X223099500Y-107421455D01*
X223099500Y-107421457D01*
X223099499Y-107421457D01*
X217725500Y-107421457D01*
X217725500Y-103113707D01*
X222785500Y-103113707D01*
X222785500Y-103266293D01*
X222824439Y-103411614D01*
X222824993Y-103413681D01*
X222901282Y-103545817D01*
X222901284Y-103545819D01*
X222901285Y-103545821D01*
X223009179Y-103653715D01*
X223009180Y-103653716D01*
X223009182Y-103653717D01*
X223141318Y-103730006D01*
X223141319Y-103730006D01*
X223141322Y-103730008D01*
X223288707Y-103769500D01*
X223288710Y-103769500D01*
X223441290Y-103769500D01*
X223441293Y-103769500D01*
X223588678Y-103730008D01*
X223720821Y-103653715D01*
X223828715Y-103545821D01*
X223905008Y-103413678D01*
X223944500Y-103266293D01*
X223944500Y-103113707D01*
X223905008Y-102966322D01*
X223858988Y-102886614D01*
X223828717Y-102834182D01*
X223828712Y-102834176D01*
X223740993Y-102746457D01*
X224874499Y-102746457D01*
X224902379Y-102886614D01*
X224902381Y-102886620D01*
X224957069Y-103018650D01*
X224957074Y-103018659D01*
X225036467Y-103137478D01*
X225036470Y-103137482D01*
X225137517Y-103238529D01*
X225137521Y-103238532D01*
X225256340Y-103317925D01*
X225256346Y-103317928D01*
X225256347Y-103317929D01*
X225388380Y-103372619D01*
X225388384Y-103372619D01*
X225388385Y-103372620D01*
X225528542Y-103400500D01*
X225528545Y-103400500D01*
X225671457Y-103400500D01*
X225781828Y-103378545D01*
X225811620Y-103372619D01*
X225943653Y-103317929D01*
X226062479Y-103238532D01*
X226163532Y-103137479D01*
X226165437Y-103134627D01*
X226168124Y-103130608D01*
X226221737Y-103085803D01*
X226271225Y-103075500D01*
X226321457Y-103075500D01*
X226415751Y-103056742D01*
X226461620Y-103047619D01*
X226568048Y-103003534D01*
X226637516Y-102996066D01*
X226699996Y-103027341D01*
X226735648Y-103087430D01*
X226739500Y-103118096D01*
X226739500Y-106477816D01*
X226719815Y-106544855D01*
X226718602Y-106546706D01*
X226672077Y-106616335D01*
X226672069Y-106616349D01*
X226617381Y-106748379D01*
X226617379Y-106748385D01*
X226589500Y-106888542D01*
X226589500Y-106888545D01*
X226589500Y-107031455D01*
X226589500Y-107031457D01*
X226589499Y-107031457D01*
X226617379Y-107171614D01*
X226617381Y-107171620D01*
X226672069Y-107303650D01*
X226672074Y-107303659D01*
X226751467Y-107422478D01*
X226751470Y-107422482D01*
X226852517Y-107523529D01*
X226852521Y-107523532D01*
X226971340Y-107602925D01*
X226971346Y-107602928D01*
X226971347Y-107602929D01*
X227103380Y-107657619D01*
X227103384Y-107657619D01*
X227103385Y-107657620D01*
X227243542Y-107685500D01*
X227243545Y-107685500D01*
X227386457Y-107685500D01*
X227508949Y-107661134D01*
X227526620Y-107657619D01*
X227658653Y-107602929D01*
X227658660Y-107602923D01*
X227664020Y-107600060D01*
X227664571Y-107601090D01*
X227725285Y-107582080D01*
X227790960Y-107600096D01*
X227790980Y-107600060D01*
X227791139Y-107600145D01*
X227792666Y-107600564D01*
X227796333Y-107602919D01*
X227796347Y-107602929D01*
X227928380Y-107657619D01*
X227928384Y-107657619D01*
X227928385Y-107657620D01*
X228068542Y-107685500D01*
X228068545Y-107685500D01*
X228211457Y-107685500D01*
X228333949Y-107661134D01*
X228351620Y-107657619D01*
X228483653Y-107602929D01*
X228483652Y-107602929D01*
X228489281Y-107600598D01*
X228489985Y-107602299D01*
X228549941Y-107589812D01*
X228590280Y-107601656D01*
X228590719Y-107600598D01*
X228596347Y-107602929D01*
X228728380Y-107657619D01*
X228728384Y-107657619D01*
X228728385Y-107657620D01*
X228868542Y-107685500D01*
X228868545Y-107685500D01*
X229011457Y-107685500D01*
X229133949Y-107661134D01*
X229151620Y-107657619D01*
X229283653Y-107602929D01*
X229283653Y-107602928D01*
X229284372Y-107602631D01*
X229284467Y-107602543D01*
X229284676Y-107602505D01*
X229289281Y-107600598D01*
X229289695Y-107601598D01*
X229317297Y-107596611D01*
X229349941Y-107589812D01*
X229352078Y-107590326D01*
X229353223Y-107590120D01*
X229360396Y-107592330D01*
X229387423Y-107598840D01*
X229394792Y-107601890D01*
X229396347Y-107602929D01*
X229528380Y-107657619D01*
X229530403Y-107658021D01*
X229537923Y-107661134D01*
X229560579Y-107679381D01*
X229584921Y-107695328D01*
X229587469Y-107701039D01*
X229592338Y-107704961D01*
X229601532Y-107732562D01*
X229613388Y-107759136D01*
X229614145Y-107770425D01*
X229614420Y-107771249D01*
X229614246Y-107771929D01*
X229614500Y-107775707D01*
X229614500Y-107806455D01*
X229614500Y-107806457D01*
X229614499Y-107806457D01*
X229642379Y-107946614D01*
X229642381Y-107946620D01*
X229697069Y-108078650D01*
X229697074Y-108078659D01*
X229776467Y-108197478D01*
X229776470Y-108197482D01*
X229877517Y-108298529D01*
X229877521Y-108298532D01*
X229996340Y-108377925D01*
X229996346Y-108377928D01*
X229996347Y-108377929D01*
X230128380Y-108432619D01*
X230219691Y-108450782D01*
X230281602Y-108483166D01*
X230316176Y-108543882D01*
X230319500Y-108572399D01*
X230319500Y-113801093D01*
X230299815Y-113868132D01*
X230283181Y-113888774D01*
X229889487Y-114282467D01*
X229889485Y-114282470D01*
X229813719Y-114413698D01*
X229774500Y-114560069D01*
X229774500Y-118451365D01*
X229807475Y-118574430D01*
X229811700Y-118606523D01*
X229811700Y-118634255D01*
X229811700Y-118634257D01*
X229811699Y-118634257D01*
X229839579Y-118774414D01*
X229839581Y-118774420D01*
X229894269Y-118906450D01*
X229894274Y-118906459D01*
X229973667Y-119025278D01*
X229973670Y-119025282D01*
X230074717Y-119126329D01*
X230074721Y-119126332D01*
X230193540Y-119205725D01*
X230193546Y-119205728D01*
X230193547Y-119205729D01*
X230325580Y-119260419D01*
X230325584Y-119260419D01*
X230325585Y-119260420D01*
X230465742Y-119288300D01*
X230465745Y-119288300D01*
X230608657Y-119288300D01*
X230702951Y-119269542D01*
X230748820Y-119260419D01*
X230880853Y-119205729D01*
X230880860Y-119205723D01*
X230886220Y-119202860D01*
X230886988Y-119204297D01*
X230946139Y-119185763D01*
X231013523Y-119204234D01*
X231017269Y-119206642D01*
X231062439Y-119236824D01*
X231062449Y-119236830D01*
X231092358Y-119249218D01*
X231194480Y-119291519D01*
X231194484Y-119291519D01*
X231194485Y-119291520D01*
X231334642Y-119319400D01*
X231334645Y-119319400D01*
X231477557Y-119319400D01*
X231571851Y-119300642D01*
X231617720Y-119291519D01*
X231749753Y-119236829D01*
X231868579Y-119157432D01*
X231969632Y-119056379D01*
X231992563Y-119022060D01*
X232028612Y-118968110D01*
X232082224Y-118923304D01*
X232131714Y-118913000D01*
X232208957Y-118913000D01*
X232303251Y-118894242D01*
X232349120Y-118885119D01*
X232481153Y-118830429D01*
X232481162Y-118830422D01*
X232483746Y-118829042D01*
X232485266Y-118828725D01*
X232486781Y-118828098D01*
X232486899Y-118828385D01*
X232552148Y-118814795D01*
X232617394Y-118839790D01*
X232645310Y-118869505D01*
X232648967Y-118874978D01*
X232648970Y-118874982D01*
X232750017Y-118976029D01*
X232750021Y-118976032D01*
X232868840Y-119055425D01*
X232868849Y-119055430D01*
X232872806Y-119057069D01*
X233000880Y-119110119D01*
X233000884Y-119110119D01*
X233000885Y-119110120D01*
X233141042Y-119138000D01*
X233141045Y-119138000D01*
X233283957Y-119138000D01*
X233378251Y-119119242D01*
X233424120Y-119110119D01*
X233556153Y-119055429D01*
X233674979Y-118976032D01*
X233776032Y-118874979D01*
X233855429Y-118756153D01*
X233910119Y-118624120D01*
X233938000Y-118483955D01*
X233938000Y-118341045D01*
X233938000Y-118341042D01*
X233910120Y-118200885D01*
X233910119Y-118200884D01*
X233910119Y-118200880D01*
X233855429Y-118068847D01*
X233855428Y-118068846D01*
X233855425Y-118068840D01*
X233776032Y-117950021D01*
X233776029Y-117950017D01*
X233674982Y-117848970D01*
X233674978Y-117848967D01*
X233556159Y-117769574D01*
X233556150Y-117769569D01*
X233435549Y-117719615D01*
X233435548Y-117719614D01*
X233424120Y-117714881D01*
X233283955Y-117687000D01*
X233141045Y-117687000D01*
X233141043Y-117687000D01*
X233000885Y-117714879D01*
X233000879Y-117714881D01*
X232868837Y-117769574D01*
X232866236Y-117770965D01*
X232864718Y-117771280D01*
X232863219Y-117771902D01*
X232863101Y-117771617D01*
X232797833Y-117785202D01*
X232732591Y-117760198D01*
X232704688Y-117730492D01*
X232701033Y-117725022D01*
X232701029Y-117725017D01*
X232599982Y-117623970D01*
X232599978Y-117623967D01*
X232481159Y-117544574D01*
X232481150Y-117544569D01*
X232349120Y-117489881D01*
X232349114Y-117489879D01*
X232208957Y-117462000D01*
X232208955Y-117462000D01*
X232066045Y-117462000D01*
X232066043Y-117462000D01*
X231925885Y-117489879D01*
X231925879Y-117489881D01*
X231793849Y-117544569D01*
X231793840Y-117544574D01*
X231675021Y-117623967D01*
X231675017Y-117623970D01*
X231573970Y-117725017D01*
X231573964Y-117725025D01*
X231568643Y-117732989D01*
X231552477Y-117746498D01*
X231539851Y-117763366D01*
X231526206Y-117768455D01*
X231515031Y-117777795D01*
X231494126Y-117780420D01*
X231474387Y-117787783D01*
X231460155Y-117784687D01*
X231445706Y-117786502D01*
X231426701Y-117777409D01*
X231406114Y-117772931D01*
X231386234Y-117758048D01*
X231382679Y-117756348D01*
X231377860Y-117751780D01*
X231281819Y-117655739D01*
X231248334Y-117594416D01*
X231245500Y-117568058D01*
X231245500Y-117025500D01*
X231265185Y-116958461D01*
X231317989Y-116912706D01*
X231369500Y-116901500D01*
X231513927Y-116901500D01*
X231513928Y-116901499D01*
X231670706Y-116870315D01*
X231788659Y-116821457D01*
X232774499Y-116821457D01*
X232802379Y-116961614D01*
X232802381Y-116961620D01*
X232857069Y-117093650D01*
X232857074Y-117093659D01*
X232936467Y-117212478D01*
X232936470Y-117212482D01*
X233037517Y-117313529D01*
X233037521Y-117313532D01*
X233156340Y-117392925D01*
X233156346Y-117392928D01*
X233156347Y-117392929D01*
X233288380Y-117447619D01*
X233428545Y-117475500D01*
X233479511Y-117475500D01*
X233571457Y-117475500D01*
X233665751Y-117456742D01*
X233711620Y-117447619D01*
X233843653Y-117392929D01*
X233962479Y-117313532D01*
X234063532Y-117212479D01*
X234142929Y-117093653D01*
X234197619Y-116961620D01*
X234225500Y-116821455D01*
X234225500Y-116678545D01*
X234225500Y-116678542D01*
X234197620Y-116538385D01*
X234197619Y-116538384D01*
X234197619Y-116538380D01*
X234142929Y-116406347D01*
X234142928Y-116406346D01*
X234142925Y-116406340D01*
X234063532Y-116287521D01*
X234063529Y-116287517D01*
X233962482Y-116186470D01*
X233962478Y-116186467D01*
X233843659Y-116107074D01*
X233843650Y-116107069D01*
X233757674Y-116071457D01*
X234574499Y-116071457D01*
X234602379Y-116211614D01*
X234602381Y-116211620D01*
X234657069Y-116343650D01*
X234657074Y-116343659D01*
X234736467Y-116462478D01*
X234736470Y-116462482D01*
X234837517Y-116563529D01*
X234837521Y-116563532D01*
X234956340Y-116642925D01*
X234956346Y-116642928D01*
X234956347Y-116642929D01*
X235088380Y-116697619D01*
X235088384Y-116697619D01*
X235088385Y-116697620D01*
X235228542Y-116725500D01*
X235228545Y-116725500D01*
X235371457Y-116725500D01*
X235465751Y-116706742D01*
X235511620Y-116697619D01*
X235643653Y-116642929D01*
X235762479Y-116563532D01*
X235863532Y-116462479D01*
X235942929Y-116343653D01*
X235997619Y-116211620D01*
X236018415Y-116107074D01*
X236025500Y-116071457D01*
X236025500Y-115928542D01*
X235997620Y-115788385D01*
X235997619Y-115788384D01*
X235997619Y-115788380D01*
X235960498Y-115698764D01*
X235953030Y-115629295D01*
X235984305Y-115566816D01*
X235987358Y-115563651D01*
X236003532Y-115547479D01*
X236082929Y-115428653D01*
X236137619Y-115296620D01*
X236158493Y-115191683D01*
X236165500Y-115156457D01*
X236165500Y-115013542D01*
X236137620Y-114873385D01*
X236137619Y-114873384D01*
X236137619Y-114873380D01*
X236082929Y-114741347D01*
X236082928Y-114741346D01*
X236082925Y-114741340D01*
X236003532Y-114622521D01*
X236003529Y-114622517D01*
X235902482Y-114521470D01*
X235902478Y-114521467D01*
X235783659Y-114442074D01*
X235783650Y-114442069D01*
X235651620Y-114387381D01*
X235651614Y-114387379D01*
X235511457Y-114359500D01*
X235511455Y-114359500D01*
X235368545Y-114359500D01*
X235368543Y-114359500D01*
X235228385Y-114387379D01*
X235228379Y-114387381D01*
X235096349Y-114442069D01*
X235096340Y-114442074D01*
X234977521Y-114521467D01*
X234977517Y-114521470D01*
X234876470Y-114622517D01*
X234876467Y-114622521D01*
X234797074Y-114741340D01*
X234797069Y-114741349D01*
X234742381Y-114873379D01*
X234742379Y-114873385D01*
X234714500Y-115013542D01*
X234714500Y-115013545D01*
X234714500Y-115156455D01*
X234714500Y-115156457D01*
X234714499Y-115156457D01*
X234742379Y-115296614D01*
X234742382Y-115296624D01*
X234779500Y-115386235D01*
X234786969Y-115455704D01*
X234755694Y-115518183D01*
X234752622Y-115521366D01*
X234736470Y-115537518D01*
X234736465Y-115537524D01*
X234657074Y-115656340D01*
X234657069Y-115656349D01*
X234602381Y-115788379D01*
X234602379Y-115788385D01*
X234574500Y-115928542D01*
X234574500Y-115928545D01*
X234574500Y-116071455D01*
X234574500Y-116071457D01*
X234574499Y-116071457D01*
X233757674Y-116071457D01*
X233711620Y-116052381D01*
X233711614Y-116052379D01*
X233669840Y-116044070D01*
X233571457Y-116024500D01*
X233571455Y-116024500D01*
X233428545Y-116024500D01*
X233428543Y-116024500D01*
X233288385Y-116052379D01*
X233288379Y-116052381D01*
X233156349Y-116107069D01*
X233156340Y-116107074D01*
X233037521Y-116186467D01*
X233037517Y-116186470D01*
X232936470Y-116287517D01*
X232936467Y-116287521D01*
X232857074Y-116406340D01*
X232857069Y-116406349D01*
X232802381Y-116538379D01*
X232802379Y-116538385D01*
X232774500Y-116678542D01*
X232774500Y-116678545D01*
X232774500Y-116821455D01*
X232774500Y-116821457D01*
X232774499Y-116821457D01*
X231788659Y-116821457D01*
X231818390Y-116809142D01*
X231951301Y-116720334D01*
X232064334Y-116607301D01*
X232153142Y-116474390D01*
X232214315Y-116326706D01*
X232245500Y-116169926D01*
X232245500Y-116090000D01*
X232245500Y-116020122D01*
X232245500Y-115896234D01*
X232245500Y-115892074D01*
X232214315Y-115735294D01*
X232167000Y-115621067D01*
X232153143Y-115587612D01*
X232153138Y-115587603D01*
X232064334Y-115454699D01*
X232064331Y-115454695D01*
X231951304Y-115341668D01*
X231951300Y-115341665D01*
X231818396Y-115252861D01*
X231818387Y-115252856D01*
X231670706Y-115191685D01*
X231670698Y-115191683D01*
X231513930Y-115160500D01*
X231513926Y-115160500D01*
X231509766Y-115160500D01*
X231369500Y-115160500D01*
X231360814Y-115157949D01*
X231351853Y-115159238D01*
X231327812Y-115148259D01*
X231302461Y-115140815D01*
X231296533Y-115133974D01*
X231288297Y-115130213D01*
X231274007Y-115107978D01*
X231256706Y-115088011D01*
X231254418Y-115077496D01*
X231250523Y-115071435D01*
X231245500Y-115036500D01*
X231245500Y-114978787D01*
X231265185Y-114911748D01*
X231281819Y-114891106D01*
X231680511Y-114492414D01*
X231680514Y-114492411D01*
X231680515Y-114492407D01*
X231680518Y-114492405D01*
X231708348Y-114444203D01*
X231714769Y-114433080D01*
X231756281Y-114361180D01*
X231776029Y-114287479D01*
X231795500Y-114214812D01*
X231795500Y-114063279D01*
X231795500Y-113006457D01*
X234339499Y-113006457D01*
X234367379Y-113146614D01*
X234367381Y-113146620D01*
X234422069Y-113278650D01*
X234422074Y-113278659D01*
X234501467Y-113397478D01*
X234501470Y-113397482D01*
X234602517Y-113498529D01*
X234602521Y-113498532D01*
X234721340Y-113577925D01*
X234721346Y-113577928D01*
X234721347Y-113577929D01*
X234853380Y-113632619D01*
X234853384Y-113632619D01*
X234853385Y-113632620D01*
X234993542Y-113660500D01*
X234993545Y-113660500D01*
X235136457Y-113660500D01*
X235230751Y-113641742D01*
X235276620Y-113632619D01*
X235296909Y-113624215D01*
X235366378Y-113616745D01*
X235428858Y-113648019D01*
X235464511Y-113708107D01*
X235465979Y-113714575D01*
X235467380Y-113721616D01*
X235467381Y-113721620D01*
X235522069Y-113853650D01*
X235522074Y-113853659D01*
X235601467Y-113972478D01*
X235601470Y-113972482D01*
X235702517Y-114073529D01*
X235702521Y-114073532D01*
X235821340Y-114152925D01*
X235821346Y-114152928D01*
X235821347Y-114152929D01*
X235953380Y-114207619D01*
X235953384Y-114207619D01*
X235953385Y-114207620D01*
X236093542Y-114235500D01*
X236093545Y-114235500D01*
X236236457Y-114235500D01*
X236352680Y-114212381D01*
X236376620Y-114207619D01*
X236508653Y-114152929D01*
X236627479Y-114073532D01*
X236627488Y-114073522D01*
X236627901Y-114073185D01*
X236628169Y-114073070D01*
X236632544Y-114070148D01*
X236633098Y-114070977D01*
X236640807Y-114067701D01*
X236651071Y-114058146D01*
X236672328Y-114054310D01*
X236692208Y-114045865D01*
X236707410Y-114047980D01*
X236719831Y-114045740D01*
X236754029Y-114054469D01*
X236799281Y-114073213D01*
X236853684Y-114117054D01*
X236875749Y-114183348D01*
X236858470Y-114251047D01*
X236820719Y-114290876D01*
X236737521Y-114346467D01*
X236737517Y-114346470D01*
X236636470Y-114447517D01*
X236636467Y-114447521D01*
X236557074Y-114566340D01*
X236557069Y-114566349D01*
X236502381Y-114698379D01*
X236502379Y-114698385D01*
X236474500Y-114838542D01*
X236474500Y-114838545D01*
X236474500Y-114981455D01*
X236474500Y-114981457D01*
X236474499Y-114981457D01*
X236502379Y-115121614D01*
X236502381Y-115121620D01*
X236557069Y-115253650D01*
X236557074Y-115253659D01*
X236636467Y-115372478D01*
X236636470Y-115372482D01*
X236737517Y-115473529D01*
X236737521Y-115473532D01*
X236856340Y-115552925D01*
X236856346Y-115552928D01*
X236856347Y-115552929D01*
X236988380Y-115607619D01*
X236988384Y-115607619D01*
X236988385Y-115607620D01*
X237128542Y-115635500D01*
X237128545Y-115635500D01*
X237271457Y-115635500D01*
X237365751Y-115616742D01*
X237411620Y-115607619D01*
X237543653Y-115552929D01*
X237662479Y-115473532D01*
X237763532Y-115372479D01*
X237842929Y-115253653D01*
X237897619Y-115121620D01*
X237919117Y-115013545D01*
X237925500Y-114981457D01*
X237925500Y-114838542D01*
X237897620Y-114698385D01*
X237897619Y-114698384D01*
X237897619Y-114698380D01*
X237842929Y-114566347D01*
X237842928Y-114566346D01*
X237842925Y-114566340D01*
X237763532Y-114447521D01*
X237763529Y-114447517D01*
X237662482Y-114346470D01*
X237662478Y-114346467D01*
X237543659Y-114267074D01*
X237543654Y-114267072D01*
X237543653Y-114267071D01*
X237504968Y-114251047D01*
X237500717Y-114249286D01*
X237446314Y-114205444D01*
X237424250Y-114139150D01*
X237441530Y-114071450D01*
X237479278Y-114031625D01*
X237562479Y-113976032D01*
X237663532Y-113874979D01*
X237742929Y-113756153D01*
X237797619Y-113624120D01*
X237810907Y-113557317D01*
X237825500Y-113483957D01*
X237825500Y-113341042D01*
X237797620Y-113200885D01*
X237797619Y-113200884D01*
X237797619Y-113200880D01*
X237742929Y-113068847D01*
X237742928Y-113068846D01*
X237742925Y-113068840D01*
X237668625Y-112957642D01*
X237647747Y-112890964D01*
X237666232Y-112823584D01*
X237668603Y-112819892D01*
X237676465Y-112808127D01*
X237725501Y-112689744D01*
X237745074Y-112591347D01*
X237750500Y-112564071D01*
X237750500Y-112435928D01*
X237725502Y-112310261D01*
X237725501Y-112310260D01*
X237725501Y-112310256D01*
X237676465Y-112191873D01*
X237676464Y-112191872D01*
X237676461Y-112191866D01*
X237605276Y-112085331D01*
X237605273Y-112085327D01*
X237514672Y-111994726D01*
X237514668Y-111994723D01*
X237408133Y-111923538D01*
X237408124Y-111923533D01*
X237289744Y-111874499D01*
X237289738Y-111874497D01*
X237164071Y-111849500D01*
X237164069Y-111849500D01*
X237035931Y-111849500D01*
X237035929Y-111849500D01*
X236910261Y-111874497D01*
X236910255Y-111874499D01*
X236791875Y-111923533D01*
X236791866Y-111923538D01*
X236685331Y-111994723D01*
X236685327Y-111994726D01*
X236594726Y-112085327D01*
X236594723Y-112085331D01*
X236523538Y-112191866D01*
X236523533Y-112191875D01*
X236474499Y-112310255D01*
X236474497Y-112310261D01*
X236449500Y-112435928D01*
X236449500Y-112564073D01*
X236467724Y-112655691D01*
X236461497Y-112725282D01*
X236418634Y-112780460D01*
X236352744Y-112803704D01*
X236321915Y-112801499D01*
X236236457Y-112784500D01*
X236236455Y-112784500D01*
X236093545Y-112784500D01*
X236093543Y-112784500D01*
X235953385Y-112812379D01*
X235953380Y-112812381D01*
X235933085Y-112820787D01*
X235863615Y-112828253D01*
X235801137Y-112796976D01*
X235765487Y-112736886D01*
X235764019Y-112730417D01*
X235762997Y-112725282D01*
X235762619Y-112723380D01*
X235707929Y-112591347D01*
X235707928Y-112591346D01*
X235707925Y-112591340D01*
X235628532Y-112472521D01*
X235628529Y-112472517D01*
X235527482Y-112371470D01*
X235527478Y-112371467D01*
X235408659Y-112292074D01*
X235408650Y-112292069D01*
X235276620Y-112237381D01*
X235276614Y-112237379D01*
X235136457Y-112209500D01*
X235136455Y-112209500D01*
X234993545Y-112209500D01*
X234993543Y-112209500D01*
X234853385Y-112237379D01*
X234853379Y-112237381D01*
X234721349Y-112292069D01*
X234721340Y-112292074D01*
X234602521Y-112371467D01*
X234602517Y-112371470D01*
X234501470Y-112472517D01*
X234501467Y-112472521D01*
X234422074Y-112591340D01*
X234422069Y-112591349D01*
X234367381Y-112723379D01*
X234367379Y-112723385D01*
X234339500Y-112863542D01*
X234339500Y-112863545D01*
X234339500Y-113006455D01*
X234339500Y-113006457D01*
X234339499Y-113006457D01*
X231795500Y-113006457D01*
X231795500Y-110167306D01*
X231815185Y-110100267D01*
X231867989Y-110054512D01*
X231937147Y-110044568D01*
X231988389Y-110064203D01*
X232046346Y-110102928D01*
X232046349Y-110102930D01*
X232071940Y-110113530D01*
X232178380Y-110157619D01*
X232178384Y-110157619D01*
X232178385Y-110157620D01*
X232318542Y-110185500D01*
X232318545Y-110185500D01*
X232461457Y-110185500D01*
X232555751Y-110166742D01*
X232601620Y-110157619D01*
X232733653Y-110102929D01*
X232733660Y-110102923D01*
X232739020Y-110100060D01*
X232739571Y-110101090D01*
X232800285Y-110082080D01*
X232865960Y-110100096D01*
X232865980Y-110100060D01*
X232866139Y-110100145D01*
X232867666Y-110100564D01*
X232871333Y-110102919D01*
X232871347Y-110102929D01*
X233003380Y-110157619D01*
X233003384Y-110157619D01*
X233003385Y-110157620D01*
X233143542Y-110185500D01*
X233143545Y-110185500D01*
X233286457Y-110185500D01*
X233380751Y-110166742D01*
X233426620Y-110157619D01*
X233541344Y-110110098D01*
X233564281Y-110100598D01*
X233564985Y-110102299D01*
X233624941Y-110089812D01*
X233665280Y-110101656D01*
X233665719Y-110100598D01*
X233696940Y-110113530D01*
X233803380Y-110157619D01*
X233803384Y-110157619D01*
X233803385Y-110157620D01*
X233943542Y-110185500D01*
X233943545Y-110185500D01*
X234086457Y-110185500D01*
X234180751Y-110166742D01*
X234226620Y-110157619D01*
X234341344Y-110110098D01*
X234364281Y-110100598D01*
X234364985Y-110102299D01*
X234424941Y-110089812D01*
X234465280Y-110101656D01*
X234465719Y-110100598D01*
X234496940Y-110113530D01*
X234603380Y-110157619D01*
X234603384Y-110157619D01*
X234603385Y-110157620D01*
X234743542Y-110185500D01*
X234743545Y-110185500D01*
X234886457Y-110185500D01*
X234980751Y-110166742D01*
X235026620Y-110157619D01*
X235158653Y-110102929D01*
X235158660Y-110102923D01*
X235164020Y-110100060D01*
X235164571Y-110101090D01*
X235225285Y-110082080D01*
X235290960Y-110100096D01*
X235290980Y-110100060D01*
X235291139Y-110100145D01*
X235292666Y-110100564D01*
X235296333Y-110102919D01*
X235296347Y-110102929D01*
X235428380Y-110157619D01*
X235428384Y-110157619D01*
X235428385Y-110157620D01*
X235568542Y-110185500D01*
X235568545Y-110185500D01*
X235711457Y-110185500D01*
X235805751Y-110166742D01*
X235851620Y-110157619D01*
X235983653Y-110102929D01*
X235983660Y-110102923D01*
X235989020Y-110100060D01*
X235989571Y-110101090D01*
X236050285Y-110082080D01*
X236102148Y-110092433D01*
X236112234Y-110096840D01*
X236121347Y-110102929D01*
X236214080Y-110141340D01*
X236215148Y-110141807D01*
X236241039Y-110163506D01*
X236267356Y-110184713D01*
X236267748Y-110185890D01*
X236268698Y-110186687D01*
X236278744Y-110218929D01*
X236289421Y-110251007D01*
X236289462Y-110253326D01*
X236289483Y-110253393D01*
X236289464Y-110253459D01*
X236289500Y-110255434D01*
X236289500Y-110381455D01*
X236289500Y-110381457D01*
X236289499Y-110381457D01*
X236317379Y-110521614D01*
X236317381Y-110521620D01*
X236372069Y-110653650D01*
X236372074Y-110653659D01*
X236451467Y-110772478D01*
X236451470Y-110772482D01*
X236552517Y-110873529D01*
X236552521Y-110873532D01*
X236671340Y-110952925D01*
X236671346Y-110952928D01*
X236671347Y-110952929D01*
X236803380Y-111007619D01*
X236803384Y-111007619D01*
X236803385Y-111007620D01*
X236943542Y-111035500D01*
X236943545Y-111035500D01*
X237086457Y-111035500D01*
X237180751Y-111016742D01*
X237226620Y-111007619D01*
X237358653Y-110952929D01*
X237477479Y-110873532D01*
X237578532Y-110772479D01*
X237657929Y-110653653D01*
X237712619Y-110521620D01*
X237721742Y-110475751D01*
X237740500Y-110381457D01*
X237740500Y-110261315D01*
X237760185Y-110194276D01*
X237795608Y-110158213D01*
X237862479Y-110113532D01*
X237963532Y-110012479D01*
X238042929Y-109893653D01*
X238097619Y-109761620D01*
X238125500Y-109621455D01*
X238125500Y-109478545D01*
X238125500Y-109478542D01*
X238097620Y-109338385D01*
X238097619Y-109338384D01*
X238097619Y-109338380D01*
X238042929Y-109206347D01*
X238042928Y-109206346D01*
X238042925Y-109206340D01*
X237963532Y-109087521D01*
X237963529Y-109087517D01*
X237862482Y-108986470D01*
X237862478Y-108986467D01*
X237743659Y-108907074D01*
X237743650Y-108907069D01*
X237611620Y-108852381D01*
X237611614Y-108852379D01*
X237471457Y-108824500D01*
X237471455Y-108824500D01*
X237328545Y-108824500D01*
X237328543Y-108824500D01*
X237188385Y-108852379D01*
X237188379Y-108852381D01*
X237050719Y-108909402D01*
X237049933Y-108907505D01*
X236990697Y-108919832D01*
X236931770Y-108899335D01*
X236808659Y-108817074D01*
X236808650Y-108817069D01*
X236676620Y-108762381D01*
X236676614Y-108762379D01*
X236536457Y-108734500D01*
X236536455Y-108734500D01*
X236393545Y-108734500D01*
X236393543Y-108734500D01*
X236253385Y-108762379D01*
X236253379Y-108762381D01*
X236121349Y-108817069D01*
X236115972Y-108819944D01*
X236115421Y-108818913D01*
X236054697Y-108837919D01*
X235989051Y-108819900D01*
X235989028Y-108819944D01*
X235988835Y-108819840D01*
X235987320Y-108819425D01*
X235983673Y-108817082D01*
X235983650Y-108817069D01*
X235851620Y-108762381D01*
X235851614Y-108762379D01*
X235711457Y-108734500D01*
X235711455Y-108734500D01*
X235568545Y-108734500D01*
X235568543Y-108734500D01*
X235428385Y-108762379D01*
X235428379Y-108762381D01*
X235296349Y-108817069D01*
X235290972Y-108819944D01*
X235290421Y-108818913D01*
X235229697Y-108837919D01*
X235164051Y-108819900D01*
X235164028Y-108819944D01*
X235163835Y-108819840D01*
X235162320Y-108819425D01*
X235158673Y-108817082D01*
X235158650Y-108817069D01*
X235026620Y-108762381D01*
X235026614Y-108762379D01*
X234886457Y-108734500D01*
X234886455Y-108734500D01*
X234743545Y-108734500D01*
X234743543Y-108734500D01*
X234603385Y-108762379D01*
X234603379Y-108762381D01*
X234465719Y-108819402D01*
X234465016Y-108817705D01*
X234405029Y-108830184D01*
X234364717Y-108818347D01*
X234364281Y-108819402D01*
X234226620Y-108762381D01*
X234226614Y-108762379D01*
X234086457Y-108734500D01*
X234086455Y-108734500D01*
X233943545Y-108734500D01*
X233943543Y-108734500D01*
X233803385Y-108762379D01*
X233803379Y-108762381D01*
X233665719Y-108819402D01*
X233665016Y-108817705D01*
X233605029Y-108830184D01*
X233564717Y-108818347D01*
X233564281Y-108819402D01*
X233426620Y-108762381D01*
X233426614Y-108762379D01*
X233286457Y-108734500D01*
X233286455Y-108734500D01*
X233143545Y-108734500D01*
X233143543Y-108734500D01*
X233003385Y-108762379D01*
X233003379Y-108762381D01*
X232871349Y-108817069D01*
X232865972Y-108819944D01*
X232865421Y-108818913D01*
X232804697Y-108837919D01*
X232739051Y-108819900D01*
X232739028Y-108819944D01*
X232738835Y-108819840D01*
X232737320Y-108819425D01*
X232733673Y-108817082D01*
X232733650Y-108817069D01*
X232601620Y-108762381D01*
X232601614Y-108762379D01*
X232461457Y-108734500D01*
X232461455Y-108734500D01*
X232318545Y-108734500D01*
X232318543Y-108734500D01*
X232178385Y-108762379D01*
X232178379Y-108762381D01*
X232046349Y-108817069D01*
X232046335Y-108817077D01*
X231988390Y-108855795D01*
X231921713Y-108876673D01*
X231854333Y-108858188D01*
X231807643Y-108806209D01*
X231795500Y-108752693D01*
X231795500Y-107792372D01*
X231815185Y-107725333D01*
X231867989Y-107679578D01*
X231895309Y-107670755D01*
X232011620Y-107647619D01*
X232143653Y-107592929D01*
X232243611Y-107526138D01*
X232310286Y-107505262D01*
X232377666Y-107523746D01*
X232381345Y-107526109D01*
X232481346Y-107592928D01*
X232481349Y-107592930D01*
X232501049Y-107601090D01*
X232613380Y-107647619D01*
X232613384Y-107647619D01*
X232613385Y-107647620D01*
X232753542Y-107675500D01*
X232753545Y-107675500D01*
X232896457Y-107675500D01*
X232990751Y-107656742D01*
X233036620Y-107647619D01*
X233168653Y-107592929D01*
X233168652Y-107592929D01*
X233174281Y-107590598D01*
X233174985Y-107592299D01*
X233234941Y-107579812D01*
X233275280Y-107591656D01*
X233275719Y-107590598D01*
X233301049Y-107601090D01*
X233413380Y-107647619D01*
X233413384Y-107647619D01*
X233413385Y-107647620D01*
X233553542Y-107675500D01*
X233553545Y-107675500D01*
X233696457Y-107675500D01*
X233790751Y-107656742D01*
X233836620Y-107647619D01*
X233968653Y-107592929D01*
X234087479Y-107513532D01*
X234188532Y-107412479D01*
X234267929Y-107293653D01*
X234322619Y-107161620D01*
X234331742Y-107115751D01*
X234350500Y-107021457D01*
X234350500Y-106878542D01*
X234322620Y-106738385D01*
X234322619Y-106738384D01*
X234322619Y-106738380D01*
X234267929Y-106606347D01*
X234267928Y-106606346D01*
X234267925Y-106606340D01*
X234188532Y-106487521D01*
X234188529Y-106487517D01*
X234087482Y-106386470D01*
X234087478Y-106386467D01*
X233968659Y-106307074D01*
X233968647Y-106307068D01*
X233927045Y-106289835D01*
X233872642Y-106245993D01*
X233850579Y-106179699D01*
X233850500Y-106175275D01*
X233850500Y-106103542D01*
X233822620Y-105963385D01*
X233822619Y-105963384D01*
X233822619Y-105963380D01*
X233767929Y-105831347D01*
X233767928Y-105831346D01*
X233767925Y-105831340D01*
X233688532Y-105712521D01*
X233688529Y-105712517D01*
X233587481Y-105611469D01*
X233577477Y-105604785D01*
X233564482Y-105596102D01*
X233519678Y-105542491D01*
X233510969Y-105473166D01*
X233541123Y-105410138D01*
X233545694Y-105405317D01*
X233563530Y-105387481D01*
X233563532Y-105387479D01*
X233642929Y-105268653D01*
X233697619Y-105136620D01*
X233706742Y-105090751D01*
X233725500Y-104996457D01*
X233725500Y-104853542D01*
X233697620Y-104713385D01*
X233697619Y-104713384D01*
X233697619Y-104713380D01*
X233655318Y-104611258D01*
X233642930Y-104581349D01*
X233642925Y-104581340D01*
X233563532Y-104462521D01*
X233563529Y-104462517D01*
X233462482Y-104361470D01*
X233462478Y-104361467D01*
X233343659Y-104282074D01*
X233343650Y-104282069D01*
X233211620Y-104227381D01*
X233211614Y-104227379D01*
X233071457Y-104199500D01*
X233071455Y-104199500D01*
X232928545Y-104199500D01*
X232928543Y-104199500D01*
X232788385Y-104227379D01*
X232788379Y-104227381D01*
X232656349Y-104282069D01*
X232656340Y-104282074D01*
X232537521Y-104361467D01*
X232537517Y-104361470D01*
X232436470Y-104462517D01*
X232436467Y-104462521D01*
X232357074Y-104581340D01*
X232357069Y-104581349D01*
X232302381Y-104713379D01*
X232302379Y-104713385D01*
X232274500Y-104853542D01*
X232274500Y-104853545D01*
X232274500Y-104996455D01*
X232274500Y-104996457D01*
X232274499Y-104996457D01*
X232302379Y-105136614D01*
X232302381Y-105136620D01*
X232357069Y-105268650D01*
X232357074Y-105268659D01*
X232436467Y-105387478D01*
X232436470Y-105387482D01*
X232537516Y-105488528D01*
X232537519Y-105488530D01*
X232537521Y-105488532D01*
X232560517Y-105503897D01*
X232605321Y-105557507D01*
X232614030Y-105626832D01*
X232583876Y-105689860D01*
X232579309Y-105694678D01*
X232561471Y-105712516D01*
X232561467Y-105712521D01*
X232482074Y-105831340D01*
X232482069Y-105831349D01*
X232427381Y-105963379D01*
X232427379Y-105963385D01*
X232399500Y-106103542D01*
X232399500Y-106246034D01*
X232379815Y-106313073D01*
X232327011Y-106358828D01*
X232257853Y-106368772D01*
X232206609Y-106349136D01*
X232143659Y-106307074D01*
X232143650Y-106307069D01*
X232011620Y-106252381D01*
X232011614Y-106252379D01*
X231871457Y-106224500D01*
X231871455Y-106224500D01*
X231728545Y-106224500D01*
X231728543Y-106224500D01*
X231588381Y-106252380D01*
X231588379Y-106252380D01*
X231578569Y-106256444D01*
X231509099Y-106263909D01*
X231446621Y-106232630D01*
X231443441Y-106229561D01*
X230782520Y-105568640D01*
X230749035Y-105507317D01*
X230748584Y-105456767D01*
X230751337Y-105442930D01*
X230775500Y-105321455D01*
X230775500Y-105178545D01*
X230775500Y-105178542D01*
X230747620Y-105038385D01*
X230747619Y-105038384D01*
X230747619Y-105038380D01*
X230692929Y-104906347D01*
X230692928Y-104906346D01*
X230692925Y-104906340D01*
X230613532Y-104787521D01*
X230613529Y-104787517D01*
X230512482Y-104686470D01*
X230512478Y-104686467D01*
X230393659Y-104607074D01*
X230393650Y-104607069D01*
X230261620Y-104552381D01*
X230261614Y-104552379D01*
X230121457Y-104524500D01*
X230121455Y-104524500D01*
X229978545Y-104524500D01*
X229978543Y-104524500D01*
X229838385Y-104552379D01*
X229838379Y-104552381D01*
X229706349Y-104607069D01*
X229706340Y-104607074D01*
X229587524Y-104686465D01*
X229587518Y-104686470D01*
X229576986Y-104697002D01*
X229515662Y-104730485D01*
X229445971Y-104725498D01*
X229427308Y-104716705D01*
X229422138Y-104713720D01*
X229422135Y-104713719D01*
X229275766Y-104674500D01*
X229275765Y-104674500D01*
X228632183Y-104674500D01*
X228565144Y-104654815D01*
X228563292Y-104653602D01*
X228493659Y-104607074D01*
X228493650Y-104607069D01*
X228361620Y-104552381D01*
X228361614Y-104552379D01*
X228221457Y-104524500D01*
X228221455Y-104524500D01*
X228078545Y-104524500D01*
X228078544Y-104524500D01*
X228038689Y-104532427D01*
X227969098Y-104526198D01*
X227913921Y-104483334D01*
X227890678Y-104417444D01*
X227890500Y-104410809D01*
X227890500Y-103199742D01*
X227910185Y-103132703D01*
X227926819Y-103112061D01*
X228051363Y-102987517D01*
X228210397Y-102828482D01*
X228271718Y-102794999D01*
X228341409Y-102799983D01*
X228397343Y-102841854D01*
X228421760Y-102907319D01*
X228412638Y-102963615D01*
X228402382Y-102988375D01*
X228402379Y-102988385D01*
X228374500Y-103128542D01*
X228374500Y-103128545D01*
X228374500Y-103271455D01*
X228374500Y-103271457D01*
X228374499Y-103271457D01*
X228402379Y-103411614D01*
X228402381Y-103411620D01*
X228457069Y-103543650D01*
X228457074Y-103543659D01*
X228536467Y-103662478D01*
X228536470Y-103662482D01*
X228637517Y-103763529D01*
X228637521Y-103763532D01*
X228756340Y-103842925D01*
X228756346Y-103842928D01*
X228756347Y-103842929D01*
X228888380Y-103897619D01*
X228888384Y-103897619D01*
X228888385Y-103897620D01*
X229028542Y-103925500D01*
X229028545Y-103925500D01*
X229171457Y-103925500D01*
X229265751Y-103906742D01*
X229311620Y-103897619D01*
X229443653Y-103842929D01*
X229562479Y-103763532D01*
X229663532Y-103662479D01*
X229742929Y-103543653D01*
X229752123Y-103521457D01*
X235099499Y-103521457D01*
X235127379Y-103661614D01*
X235127381Y-103661620D01*
X235182069Y-103793650D01*
X235182074Y-103793659D01*
X235261467Y-103912478D01*
X235261470Y-103912482D01*
X235362517Y-104013529D01*
X235362521Y-104013532D01*
X235481340Y-104092925D01*
X235481349Y-104092930D01*
X235504161Y-104102379D01*
X235613380Y-104147619D01*
X235613384Y-104147619D01*
X235613385Y-104147620D01*
X235753542Y-104175500D01*
X235753545Y-104175500D01*
X235896457Y-104175500D01*
X235990751Y-104156742D01*
X236036620Y-104147619D01*
X236168653Y-104092929D01*
X236287479Y-104013532D01*
X236388532Y-103912479D01*
X236467929Y-103793653D01*
X236522619Y-103661620D01*
X236545653Y-103545823D01*
X236550500Y-103521457D01*
X236550500Y-103378542D01*
X236522620Y-103238385D01*
X236522619Y-103238384D01*
X236522619Y-103238380D01*
X236477124Y-103128545D01*
X236467930Y-103106349D01*
X236467925Y-103106340D01*
X236388532Y-102987521D01*
X236388529Y-102987517D01*
X236287482Y-102886470D01*
X236287478Y-102886467D01*
X236168659Y-102807074D01*
X236168650Y-102807069D01*
X236036620Y-102752381D01*
X236036614Y-102752379D01*
X235896457Y-102724500D01*
X235896455Y-102724500D01*
X235753545Y-102724500D01*
X235753543Y-102724500D01*
X235613385Y-102752379D01*
X235613379Y-102752381D01*
X235481349Y-102807069D01*
X235481340Y-102807074D01*
X235362521Y-102886467D01*
X235362517Y-102886470D01*
X235261470Y-102987517D01*
X235261467Y-102987521D01*
X235182074Y-103106340D01*
X235182069Y-103106349D01*
X235127381Y-103238379D01*
X235127379Y-103238385D01*
X235099500Y-103378542D01*
X235099500Y-103378545D01*
X235099500Y-103521455D01*
X235099500Y-103521457D01*
X235099499Y-103521457D01*
X229752123Y-103521457D01*
X229797619Y-103411620D01*
X229813071Y-103333936D01*
X229825500Y-103271457D01*
X229825500Y-103128542D01*
X229797620Y-102988385D01*
X229797619Y-102988384D01*
X229797619Y-102988380D01*
X229742929Y-102856347D01*
X229742928Y-102856346D01*
X229742925Y-102856340D01*
X229663532Y-102737521D01*
X229663529Y-102737517D01*
X229562482Y-102636470D01*
X229562478Y-102636467D01*
X229443659Y-102557074D01*
X229443650Y-102557069D01*
X229311620Y-102502381D01*
X229311614Y-102502379D01*
X229171457Y-102474500D01*
X229171455Y-102474500D01*
X229028545Y-102474500D01*
X229028543Y-102474500D01*
X228888385Y-102502379D01*
X228888375Y-102502382D01*
X228863615Y-102512638D01*
X228794145Y-102520105D01*
X228731667Y-102488829D01*
X228696016Y-102428739D01*
X228698512Y-102358914D01*
X228728482Y-102310397D01*
X230285515Y-100753365D01*
X230361281Y-100622135D01*
X230400500Y-100475767D01*
X230400500Y-100332181D01*
X230420185Y-100265142D01*
X230421360Y-100263347D01*
X230467929Y-100193653D01*
X230522619Y-100061620D01*
X230537538Y-99986620D01*
X230550500Y-99921457D01*
X230550500Y-99778542D01*
X230526859Y-99659695D01*
X230533086Y-99590103D01*
X230575949Y-99534926D01*
X230601024Y-99520942D01*
X230668646Y-99492932D01*
X230668646Y-99492931D01*
X230668653Y-99492929D01*
X230775618Y-99421457D01*
X237549499Y-99421457D01*
X237577379Y-99561614D01*
X237577381Y-99561620D01*
X237632069Y-99693650D01*
X237632074Y-99693659D01*
X237711467Y-99812478D01*
X237711470Y-99812482D01*
X237812517Y-99913529D01*
X237812521Y-99913532D01*
X237931340Y-99992925D01*
X237931344Y-99992927D01*
X237931347Y-99992929D01*
X237955030Y-100002738D01*
X237998036Y-100020553D01*
X238052439Y-100064394D01*
X238074504Y-100130689D01*
X238065145Y-100182564D01*
X238053118Y-100211602D01*
X238052380Y-100213383D01*
X238052379Y-100213386D01*
X238024500Y-100353542D01*
X238024500Y-100353545D01*
X238024500Y-100496455D01*
X238024500Y-100496457D01*
X238024499Y-100496457D01*
X238052379Y-100636614D01*
X238052381Y-100636620D01*
X238107069Y-100768650D01*
X238107074Y-100768659D01*
X238186467Y-100887478D01*
X238186470Y-100887482D01*
X238287517Y-100988529D01*
X238287521Y-100988532D01*
X238406340Y-101067925D01*
X238406346Y-101067928D01*
X238406347Y-101067929D01*
X238538380Y-101122619D01*
X238538384Y-101122619D01*
X238538385Y-101122620D01*
X238678542Y-101150500D01*
X238678545Y-101150500D01*
X238821457Y-101150500D01*
X238915751Y-101131742D01*
X238961620Y-101122619D01*
X239093653Y-101067929D01*
X239212479Y-100988532D01*
X239313532Y-100887479D01*
X239392929Y-100768653D01*
X239447619Y-100636620D01*
X239475500Y-100496455D01*
X239475500Y-100353545D01*
X239475500Y-100353542D01*
X239447620Y-100213385D01*
X239447619Y-100213384D01*
X239447619Y-100213380D01*
X239420309Y-100147449D01*
X239412841Y-100077985D01*
X239420306Y-100052556D01*
X239447619Y-99986620D01*
X239475500Y-99846455D01*
X239475500Y-99703545D01*
X239475500Y-99703542D01*
X239447620Y-99563385D01*
X239447619Y-99563384D01*
X239447619Y-99563380D01*
X239392929Y-99431347D01*
X239392928Y-99431346D01*
X239392925Y-99431340D01*
X239313532Y-99312521D01*
X239313529Y-99312517D01*
X239212482Y-99211470D01*
X239212478Y-99211467D01*
X239093659Y-99132074D01*
X239093649Y-99132069D01*
X238991850Y-99089902D01*
X238937446Y-99046061D01*
X238924742Y-99022795D01*
X238924507Y-99022229D01*
X238917929Y-99006347D01*
X238917926Y-99006342D01*
X238917925Y-99006340D01*
X238838532Y-98887521D01*
X238838529Y-98887517D01*
X238737482Y-98786470D01*
X238737478Y-98786467D01*
X238618659Y-98707074D01*
X238618650Y-98707069D01*
X238486620Y-98652381D01*
X238486614Y-98652379D01*
X238346457Y-98624500D01*
X238346455Y-98624500D01*
X238203545Y-98624500D01*
X238203543Y-98624500D01*
X238063385Y-98652379D01*
X238063379Y-98652381D01*
X237931349Y-98707069D01*
X237931340Y-98707074D01*
X237812521Y-98786467D01*
X237812517Y-98786470D01*
X237711470Y-98887517D01*
X237711467Y-98887521D01*
X237632074Y-99006340D01*
X237632069Y-99006349D01*
X237577381Y-99138379D01*
X237577379Y-99138385D01*
X237549500Y-99278542D01*
X237549500Y-99278545D01*
X237549500Y-99421455D01*
X237549500Y-99421457D01*
X237549499Y-99421457D01*
X230775618Y-99421457D01*
X230787479Y-99413532D01*
X230888532Y-99312479D01*
X230891958Y-99307350D01*
X230945568Y-99262543D01*
X230970873Y-99254619D01*
X231010425Y-99246751D01*
X231111620Y-99226622D01*
X231243653Y-99171932D01*
X231243662Y-99171926D01*
X231247515Y-99169352D01*
X231247517Y-99169351D01*
X231337930Y-99108938D01*
X231362479Y-99092535D01*
X231463532Y-98991482D01*
X231542929Y-98872656D01*
X231597619Y-98740623D01*
X231625500Y-98600458D01*
X231625500Y-98457548D01*
X231625500Y-98457545D01*
X231597620Y-98317388D01*
X231597619Y-98317387D01*
X231597619Y-98317383D01*
X231579837Y-98274454D01*
X231572368Y-98204984D01*
X231579838Y-98179547D01*
X231597616Y-98136628D01*
X231597616Y-98136625D01*
X231597619Y-98136620D01*
X231625500Y-97996455D01*
X231625500Y-97853545D01*
X231625500Y-97853542D01*
X231597620Y-97713385D01*
X231597619Y-97713384D01*
X231597619Y-97713380D01*
X231542929Y-97581347D01*
X231542928Y-97581346D01*
X231542925Y-97581340D01*
X231463532Y-97462521D01*
X231463529Y-97462517D01*
X231362482Y-97361470D01*
X231362478Y-97361467D01*
X231243659Y-97282074D01*
X231243650Y-97282069D01*
X231111620Y-97227381D01*
X231111614Y-97227379D01*
X230977041Y-97200610D01*
X230915130Y-97168225D01*
X230898130Y-97147882D01*
X230888533Y-97133519D01*
X230888529Y-97133514D01*
X230787482Y-97032467D01*
X230787478Y-97032464D01*
X230668659Y-96953071D01*
X230668650Y-96953066D01*
X230536620Y-96898378D01*
X230536614Y-96898376D01*
X230396457Y-96870497D01*
X230396455Y-96870497D01*
X230253545Y-96870497D01*
X230253543Y-96870497D01*
X230113385Y-96898376D01*
X230113379Y-96898378D01*
X229981349Y-96953066D01*
X229981340Y-96953071D01*
X229862521Y-97032464D01*
X229862517Y-97032467D01*
X229761471Y-97133513D01*
X229761468Y-97133518D01*
X229754203Y-97144390D01*
X229700593Y-97189195D01*
X229659491Y-97197752D01*
X229659605Y-97198903D01*
X229653542Y-97199499D01*
X229513385Y-97227379D01*
X229513379Y-97227381D01*
X229381349Y-97282069D01*
X229381340Y-97282074D01*
X229262521Y-97361467D01*
X229262517Y-97361470D01*
X229161470Y-97462517D01*
X229161467Y-97462521D01*
X229082074Y-97581340D01*
X229082069Y-97581349D01*
X229027381Y-97713379D01*
X229027379Y-97713385D01*
X228999500Y-97853542D01*
X228999500Y-97853545D01*
X228999500Y-97996455D01*
X228999500Y-97996457D01*
X228999499Y-97996457D01*
X229027379Y-98136613D01*
X229027380Y-98136616D01*
X229027381Y-98136620D01*
X229039157Y-98165050D01*
X229046625Y-98234518D01*
X229039158Y-98259946D01*
X229027381Y-98288380D01*
X229027380Y-98288383D01*
X229027379Y-98288386D01*
X228999500Y-98428542D01*
X228999500Y-98428545D01*
X228999500Y-98571455D01*
X228999500Y-98571457D01*
X228999499Y-98571457D01*
X229027379Y-98711614D01*
X229027381Y-98711620D01*
X229082069Y-98843650D01*
X229082074Y-98843659D01*
X229161467Y-98962478D01*
X229161470Y-98962482D01*
X229262517Y-99063529D01*
X229262525Y-99063535D01*
X229330475Y-99108938D01*
X229375281Y-99162550D01*
X229383988Y-99231875D01*
X229353834Y-99294902D01*
X229349267Y-99299721D01*
X229261467Y-99387521D01*
X229182074Y-99506340D01*
X229182069Y-99506349D01*
X229127381Y-99638379D01*
X229127379Y-99638385D01*
X229099500Y-99778542D01*
X229099500Y-99778545D01*
X229099500Y-99921455D01*
X229099500Y-99921457D01*
X229099499Y-99921457D01*
X229127379Y-100061614D01*
X229127381Y-100061620D01*
X229155990Y-100130689D01*
X229160731Y-100142133D01*
X229168200Y-100211602D01*
X229136925Y-100274082D01*
X229133851Y-100277267D01*
X227165600Y-102245518D01*
X227104277Y-102279003D01*
X227034585Y-102274019D01*
X226978652Y-102232147D01*
X226956302Y-102182029D01*
X226947620Y-102138385D01*
X226947619Y-102138384D01*
X226947619Y-102138380D01*
X226905318Y-102036258D01*
X226892930Y-102006349D01*
X226892925Y-102006340D01*
X226813532Y-101887521D01*
X226813529Y-101887517D01*
X226712482Y-101786470D01*
X226712478Y-101786467D01*
X226593659Y-101707074D01*
X226593650Y-101707069D01*
X226461620Y-101652381D01*
X226461614Y-101652379D01*
X226321457Y-101624500D01*
X226321455Y-101624500D01*
X226178545Y-101624500D01*
X226178543Y-101624500D01*
X226038385Y-101652379D01*
X226038379Y-101652381D01*
X225906349Y-101707069D01*
X225906340Y-101707074D01*
X225787521Y-101786467D01*
X225787517Y-101786470D01*
X225686470Y-101887517D01*
X225686465Y-101887524D01*
X225681876Y-101894392D01*
X225628263Y-101939197D01*
X225578775Y-101949500D01*
X225528543Y-101949500D01*
X225388385Y-101977379D01*
X225388379Y-101977381D01*
X225256349Y-102032069D01*
X225256340Y-102032074D01*
X225137521Y-102111467D01*
X225137517Y-102111470D01*
X225036470Y-102212517D01*
X225036467Y-102212521D01*
X224957074Y-102331340D01*
X224957069Y-102331349D01*
X224902381Y-102463379D01*
X224902379Y-102463385D01*
X224874500Y-102603542D01*
X224874500Y-102603545D01*
X224874500Y-102746455D01*
X224874500Y-102746457D01*
X224874499Y-102746457D01*
X223740993Y-102746457D01*
X223720823Y-102726287D01*
X223720821Y-102726285D01*
X223683676Y-102704839D01*
X223683675Y-102704838D01*
X223588681Y-102649993D01*
X223588682Y-102649993D01*
X223576595Y-102646754D01*
X223441293Y-102610500D01*
X223288707Y-102610500D01*
X223153404Y-102646754D01*
X223141318Y-102649993D01*
X223009182Y-102726282D01*
X223009176Y-102726287D01*
X222901287Y-102834176D01*
X222901282Y-102834182D01*
X222824993Y-102966318D01*
X222824992Y-102966322D01*
X222785500Y-103113707D01*
X217725500Y-103113707D01*
X217725500Y-97333707D01*
X222785500Y-97333707D01*
X222785500Y-97486293D01*
X222824992Y-97633678D01*
X222824993Y-97633681D01*
X222901282Y-97765817D01*
X222901284Y-97765819D01*
X222901285Y-97765821D01*
X223009179Y-97873715D01*
X223009180Y-97873716D01*
X223009182Y-97873717D01*
X223141318Y-97950006D01*
X223141319Y-97950006D01*
X223141322Y-97950008D01*
X223288707Y-97989500D01*
X223288710Y-97989500D01*
X223441290Y-97989500D01*
X223441293Y-97989500D01*
X223508630Y-97971457D01*
X225224499Y-97971457D01*
X225252379Y-98111614D01*
X225252381Y-98111620D01*
X225307069Y-98243650D01*
X225307074Y-98243659D01*
X225386467Y-98362478D01*
X225386470Y-98362482D01*
X225487517Y-98463529D01*
X225487521Y-98463532D01*
X225606340Y-98542925D01*
X225606346Y-98542928D01*
X225606347Y-98542929D01*
X225738380Y-98597619D01*
X225738384Y-98597619D01*
X225738385Y-98597620D01*
X225878542Y-98625500D01*
X225878545Y-98625500D01*
X226021457Y-98625500D01*
X226115751Y-98606742D01*
X226161620Y-98597619D01*
X226293653Y-98542929D01*
X226343608Y-98509549D01*
X226410285Y-98488671D01*
X226477665Y-98507155D01*
X226481392Y-98509550D01*
X226531339Y-98542924D01*
X226531341Y-98542925D01*
X226531347Y-98542929D01*
X226663380Y-98597619D01*
X226663384Y-98597619D01*
X226663385Y-98597620D01*
X226803542Y-98625500D01*
X226803545Y-98625500D01*
X226946457Y-98625500D01*
X227040751Y-98606742D01*
X227086620Y-98597619D01*
X227218653Y-98542929D01*
X227337479Y-98463532D01*
X227438532Y-98362479D01*
X227517929Y-98243653D01*
X227572619Y-98111620D01*
X227600500Y-97971455D01*
X227600500Y-97828545D01*
X227600500Y-97828542D01*
X227572620Y-97688385D01*
X227572619Y-97688384D01*
X227572619Y-97688380D01*
X227517929Y-97556347D01*
X227517928Y-97556346D01*
X227517925Y-97556340D01*
X227438532Y-97437521D01*
X227438529Y-97437517D01*
X227337482Y-97336470D01*
X227337478Y-97336467D01*
X227218659Y-97257074D01*
X227218650Y-97257069D01*
X227086620Y-97202381D01*
X227086614Y-97202379D01*
X226946457Y-97174500D01*
X226946455Y-97174500D01*
X226803545Y-97174500D01*
X226803543Y-97174500D01*
X226663385Y-97202379D01*
X226663379Y-97202381D01*
X226531349Y-97257069D01*
X226531340Y-97257074D01*
X226481391Y-97290450D01*
X226414714Y-97311328D01*
X226347333Y-97292844D01*
X226343609Y-97290450D01*
X226293659Y-97257074D01*
X226293650Y-97257069D01*
X226161620Y-97202381D01*
X226161614Y-97202379D01*
X226021457Y-97174500D01*
X226021455Y-97174500D01*
X225878545Y-97174500D01*
X225878543Y-97174500D01*
X225738385Y-97202379D01*
X225738379Y-97202381D01*
X225606349Y-97257069D01*
X225606340Y-97257074D01*
X225487521Y-97336467D01*
X225487517Y-97336470D01*
X225386470Y-97437517D01*
X225386467Y-97437521D01*
X225307074Y-97556340D01*
X225307069Y-97556349D01*
X225252381Y-97688379D01*
X225252379Y-97688385D01*
X225224500Y-97828542D01*
X225224500Y-97828545D01*
X225224500Y-97971455D01*
X225224500Y-97971457D01*
X225224499Y-97971457D01*
X223508630Y-97971457D01*
X223588678Y-97950008D01*
X223720821Y-97873715D01*
X223828715Y-97765821D01*
X223905008Y-97633678D01*
X223944500Y-97486293D01*
X223944500Y-97333707D01*
X223905008Y-97186322D01*
X223828715Y-97054179D01*
X223720821Y-96946285D01*
X223720819Y-96946284D01*
X223720817Y-96946282D01*
X223588681Y-96869993D01*
X223588682Y-96869993D01*
X223576595Y-96866754D01*
X223441293Y-96830500D01*
X223288707Y-96830500D01*
X223153404Y-96866754D01*
X223141318Y-96869993D01*
X223009182Y-96946282D01*
X223009176Y-96946287D01*
X222901287Y-97054176D01*
X222901282Y-97054182D01*
X222824993Y-97186318D01*
X222820690Y-97202379D01*
X222785500Y-97333707D01*
X217725500Y-97333707D01*
X217725500Y-96621457D01*
X227899499Y-96621457D01*
X227927379Y-96761614D01*
X227927381Y-96761620D01*
X227982069Y-96893650D01*
X227982074Y-96893659D01*
X228061467Y-97012478D01*
X228061470Y-97012482D01*
X228162517Y-97113529D01*
X228162521Y-97113532D01*
X228281340Y-97192925D01*
X228281349Y-97192930D01*
X228304161Y-97202379D01*
X228413380Y-97247619D01*
X228413384Y-97247619D01*
X228413385Y-97247620D01*
X228553542Y-97275500D01*
X228553545Y-97275500D01*
X228696457Y-97275500D01*
X228790751Y-97256742D01*
X228836620Y-97247619D01*
X228968653Y-97192929D01*
X229087479Y-97113532D01*
X229188532Y-97012479D01*
X229267929Y-96893653D01*
X229322619Y-96761620D01*
X229350500Y-96621455D01*
X229350500Y-96478545D01*
X229350500Y-96478542D01*
X229322620Y-96338385D01*
X229322619Y-96338384D01*
X229322619Y-96338380D01*
X229267929Y-96206347D01*
X229267928Y-96206346D01*
X229267925Y-96206340D01*
X229188532Y-96087521D01*
X229188529Y-96087517D01*
X229087482Y-95986470D01*
X229087478Y-95986467D01*
X228968659Y-95907074D01*
X228968650Y-95907069D01*
X228836620Y-95852381D01*
X228836614Y-95852379D01*
X228696457Y-95824500D01*
X228696455Y-95824500D01*
X228553545Y-95824500D01*
X228553543Y-95824500D01*
X228413385Y-95852379D01*
X228413379Y-95852381D01*
X228281349Y-95907069D01*
X228281340Y-95907074D01*
X228162521Y-95986467D01*
X228162517Y-95986470D01*
X228061470Y-96087517D01*
X228061467Y-96087521D01*
X227982074Y-96206340D01*
X227982069Y-96206349D01*
X227927381Y-96338379D01*
X227927379Y-96338385D01*
X227899500Y-96478542D01*
X227899500Y-96478545D01*
X227899500Y-96621455D01*
X227899500Y-96621457D01*
X227899499Y-96621457D01*
X217725500Y-96621457D01*
X217725500Y-94724000D01*
X217745185Y-94656961D01*
X217797989Y-94611206D01*
X217849500Y-94600000D01*
X227075000Y-94600000D01*
X227075000Y-94017101D01*
X227094685Y-93950062D01*
X227147489Y-93904307D01*
X227216647Y-93894363D01*
X227257450Y-93907741D01*
X227508556Y-94041961D01*
X227803619Y-94164180D01*
X228109240Y-94256889D01*
X228422477Y-94319196D01*
X228740313Y-94350500D01*
X228740316Y-94350500D01*
X229059684Y-94350500D01*
X229059687Y-94350500D01*
X229377523Y-94319196D01*
X229690760Y-94256889D01*
X229996381Y-94164180D01*
X230291444Y-94041961D01*
X230573106Y-93891409D01*
X230838656Y-93713975D01*
X231085535Y-93511366D01*
X231311366Y-93285535D01*
X231513975Y-93038656D01*
X231691409Y-92773106D01*
X231841961Y-92491444D01*
X231964180Y-92196381D01*
X232056889Y-91890760D01*
X232119196Y-91577523D01*
X232125615Y-91512346D01*
X232151775Y-91447560D01*
X232208809Y-91407200D01*
X232249018Y-91400500D01*
X234728712Y-91400500D01*
X234748925Y-91406435D01*
G37*
%TD.AperFunction*%
%TD*%
M02*
