%TF.GenerationSoftware,KiCad,Pcbnew,9.0.0*%
%TF.CreationDate,2025-02-28T21:47:31+01:00*%
%TF.ProjectId,ESP32S3_M.2_Board,45535033-3253-4335-9f4d-2e325f426f61,rev?*%
%TF.SameCoordinates,Original*%
%TF.FileFunction,Profile,NP*%
%FSLAX46Y46*%
G04 Gerber Fmt 4.6, Leading zero omitted, Abs format (unit mm)*
G04 Created by KiCad (PCBNEW 9.0.0) date 2025-02-28 21:47:31*
%MOMM*%
%LPD*%
G01*
G04 APERTURE LIST*
%TA.AperFunction,Profile*%
%ADD10C,0.050000*%
%TD*%
G04 APERTURE END LIST*
D10*
%TO.C,J2*%
X217425000Y-91600000D02*
X217425000Y-128900000D01*
X217625000Y-129100000D02*
X218450000Y-129100000D01*
X218950000Y-129600000D02*
X218950000Y-132900000D01*
X219150000Y-133100000D02*
X233900000Y-133100000D01*
X233900000Y-130200000D02*
X233900000Y-133100000D01*
X235100000Y-130200000D02*
X235100000Y-133100000D01*
X235100000Y-133100000D02*
X238650000Y-133100000D01*
X238850000Y-132900000D02*
X238850000Y-129600000D01*
X239350000Y-129100000D02*
X240200000Y-129100000D01*
X239900000Y-91100000D02*
X217925000Y-91100000D01*
X240400000Y-128900000D02*
X240400000Y-91600000D01*
X217425000Y-91600000D02*
G75*
G02*
X217925000Y-91100000I500001J-1D01*
G01*
X217625000Y-129100000D02*
G75*
G02*
X217425000Y-128900000I1J200001D01*
G01*
X218450000Y-129100000D02*
G75*
G02*
X218950000Y-129600000I-1J-500001D01*
G01*
X219150000Y-133100000D02*
G75*
G02*
X218950000Y-132900000I1J200001D01*
G01*
X233900000Y-130200000D02*
G75*
G02*
X234500000Y-129600000I600000J0D01*
G01*
X234500000Y-129600000D02*
G75*
G02*
X235100000Y-130200000I0J-600000D01*
G01*
X238850000Y-129600000D02*
G75*
G02*
X239350000Y-129100000I500000J0D01*
G01*
X238850000Y-132900000D02*
G75*
G02*
X238650000Y-133100000I-200000J0D01*
G01*
X239900000Y-91100000D02*
G75*
G02*
X240400000Y-91600000I0J-500000D01*
G01*
X240400000Y-128900000D02*
G75*
G02*
X240200000Y-129100000I-200000J0D01*
G01*
%TD*%
M02*
