%TF.GenerationSoftware,KiCad,Pcbnew,9.0.0*%
%TF.CreationDate,2025-02-28T21:47:30+01:00*%
%TF.ProjectId,ESP32S3_M.2_Board,45535033-3253-4335-9f4d-2e325f426f61,rev?*%
%TF.SameCoordinates,Original*%
%TF.FileFunction,Copper,L1,Top*%
%TF.FilePolarity,Positive*%
%FSLAX46Y46*%
G04 Gerber Fmt 4.6, Leading zero omitted, Abs format (unit mm)*
G04 Created by KiCad (PCBNEW 9.0.0) date 2025-02-28 21:47:30*
%MOMM*%
%LPD*%
G01*
G04 APERTURE LIST*
G04 Aperture macros list*
%AMRoundRect*
0 Rectangle with rounded corners*
0 $1 Rounding radius*
0 $2 $3 $4 $5 $6 $7 $8 $9 X,Y pos of 4 corners*
0 Add a 4 corners polygon primitive as box body*
4,1,4,$2,$3,$4,$5,$6,$7,$8,$9,$2,$3,0*
0 Add four circle primitives for the rounded corners*
1,1,$1+$1,$2,$3*
1,1,$1+$1,$4,$5*
1,1,$1+$1,$6,$7*
1,1,$1+$1,$8,$9*
0 Add four rect primitives between the rounded corners*
20,1,$1+$1,$2,$3,$4,$5,0*
20,1,$1+$1,$4,$5,$6,$7,0*
20,1,$1+$1,$6,$7,$8,$9,0*
20,1,$1+$1,$8,$9,$2,$3,0*%
G04 Aperture macros list end*
%TA.AperFunction,SMDPad,CuDef*%
%ADD10R,1.340000X0.700000*%
%TD*%
%TA.AperFunction,SMDPad,CuDef*%
%ADD11R,0.300000X0.900000*%
%TD*%
%TA.AperFunction,SMDPad,CuDef*%
%ADD12R,1.650000X0.250000*%
%TD*%
%TA.AperFunction,SMDPad,CuDef*%
%ADD13C,1.000000*%
%TD*%
%TA.AperFunction,ComponentPad*%
%ADD14O,1.800000X1.000000*%
%TD*%
%TA.AperFunction,ComponentPad*%
%ADD15O,2.100000X1.000000*%
%TD*%
%TA.AperFunction,SMDPad,CuDef*%
%ADD16RoundRect,0.160000X0.160000X-0.197500X0.160000X0.197500X-0.160000X0.197500X-0.160000X-0.197500X0*%
%TD*%
%TA.AperFunction,SMDPad,CuDef*%
%ADD17RoundRect,0.155000X-0.212500X-0.155000X0.212500X-0.155000X0.212500X0.155000X-0.212500X0.155000X0*%
%TD*%
%TA.AperFunction,SMDPad,CuDef*%
%ADD18RoundRect,0.100000X-0.162635X0.021213X0.021213X-0.162635X0.162635X-0.021213X-0.021213X0.162635X0*%
%TD*%
%TA.AperFunction,SMDPad,CuDef*%
%ADD19RoundRect,0.237500X0.237500X-0.287500X0.237500X0.287500X-0.237500X0.287500X-0.237500X-0.287500X0*%
%TD*%
%TA.AperFunction,SMDPad,CuDef*%
%ADD20RoundRect,0.050000X-0.350000X-0.050000X0.350000X-0.050000X0.350000X0.050000X-0.350000X0.050000X0*%
%TD*%
%TA.AperFunction,SMDPad,CuDef*%
%ADD21RoundRect,0.050000X-0.050000X-0.350000X0.050000X-0.350000X0.050000X0.350000X-0.050000X0.350000X0*%
%TD*%
%TA.AperFunction,HeatsinkPad*%
%ADD22R,4.000000X4.000000*%
%TD*%
%TA.AperFunction,SMDPad,CuDef*%
%ADD23RoundRect,0.237500X0.300000X0.237500X-0.300000X0.237500X-0.300000X-0.237500X0.300000X-0.237500X0*%
%TD*%
%TA.AperFunction,SMDPad,CuDef*%
%ADD24RoundRect,0.155000X0.212500X0.155000X-0.212500X0.155000X-0.212500X-0.155000X0.212500X-0.155000X0*%
%TD*%
%TA.AperFunction,SMDPad,CuDef*%
%ADD25RoundRect,0.155000X-0.155000X0.212500X-0.155000X-0.212500X0.155000X-0.212500X0.155000X0.212500X0*%
%TD*%
%TA.AperFunction,SMDPad,CuDef*%
%ADD26R,1.000000X1.450000*%
%TD*%
%TA.AperFunction,SMDPad,CuDef*%
%ADD27R,1.150000X1.800000*%
%TD*%
%TA.AperFunction,SMDPad,CuDef*%
%ADD28RoundRect,0.100000X0.100000X-0.130000X0.100000X0.130000X-0.100000X0.130000X-0.100000X-0.130000X0*%
%TD*%
%TA.AperFunction,ComponentPad*%
%ADD29C,5.500000*%
%TD*%
%TA.AperFunction,SMDPad,CuDef*%
%ADD30R,0.350000X2.500000*%
%TD*%
%TA.AperFunction,SMDPad,CuDef*%
%ADD31RoundRect,0.160000X0.197500X0.160000X-0.197500X0.160000X-0.197500X-0.160000X0.197500X-0.160000X0*%
%TD*%
%TA.AperFunction,ViaPad*%
%ADD32C,0.450000*%
%TD*%
%TA.AperFunction,Conductor*%
%ADD33C,0.250000*%
%TD*%
%TA.AperFunction,Conductor*%
%ADD34C,0.150000*%
%TD*%
%TA.AperFunction,Conductor*%
%ADD35C,0.300000*%
%TD*%
G04 APERTURE END LIST*
D10*
%TO.P,LED1,1,DO*%
%TO.N,unconnected-(LED1-DO-Pad1)*%
X225990000Y-98750000D03*
%TO.P,LED1,2,GND*%
%TO.N,Earth*%
X225990000Y-99850000D03*
%TO.P,LED1,3,DI*%
%TO.N,/GPIO46*%
X228460000Y-99850000D03*
%TO.P,LED1,4,VDD*%
%TO.N,+3V3*%
X228460000Y-98750000D03*
%TD*%
D11*
%TO.P,U4,1,~{CS}*%
%TO.N,/FLASH_QSPI_nCS*%
X238040000Y-114910000D03*
%TO.P,U4,2,DO(IO1)*%
%TO.N,/FLASH_QSPI_DO*%
X238540000Y-114910000D03*
%TO.P,U4,3,IO2*%
%TO.N,/FLASH_QSPI_nWP*%
X239040000Y-114910000D03*
%TO.P,U4,4,GND*%
%TO.N,Earth*%
X239540000Y-114910000D03*
%TO.P,U4,5,DI(IO0)*%
%TO.N,/FLASH_QSPI_DI*%
X239540000Y-112110000D03*
%TO.P,U4,6,CLK*%
%TO.N,/FLASH_QSPI_CLK*%
X239040000Y-112110000D03*
%TO.P,U4,7,IO3*%
%TO.N,/FLASH_QSPI_nH*%
X238540000Y-112110000D03*
%TO.P,U4,8,VCC*%
%TO.N,VDD_SPI*%
X238040000Y-112110000D03*
D12*
%TO.P,U4,9,EP*%
%TO.N,Earth*%
X238790000Y-113510000D03*
%TD*%
D13*
%TO.P,TP10,1,1*%
%TO.N,/GPIO46*%
X227525000Y-103250000D03*
%TD*%
D14*
%TO.P,J1,S1,SHIELD*%
%TO.N,Earth*%
X219685000Y-104620000D03*
D15*
X223865000Y-104620000D03*
D14*
X219685000Y-95980000D03*
D15*
X223865000Y-95980000D03*
%TD*%
D16*
%TO.P,R5,1*%
%TO.N,VBUS*%
X239550000Y-107197500D03*
%TO.P,R5,2*%
%TO.N,Net-(U2-EN)*%
X239550000Y-106002500D03*
%TD*%
D17*
%TO.P,C16,1*%
%TO.N,+3V3*%
X230340000Y-106075000D03*
%TO.P,C16,2*%
%TO.N,Earth*%
X231475000Y-106075000D03*
%TD*%
D18*
%TO.P,R3,1*%
%TO.N,/USB_D-*%
X231623726Y-119673726D03*
%TO.P,R3,2*%
%TO.N,/M.2_USB_D-*%
X232076274Y-120126274D03*
%TD*%
D19*
%TO.P,L3,1,1*%
%TO.N,/RF1*%
X221875000Y-101075000D03*
%TO.P,L3,2,2*%
%TO.N,/RF2*%
X221875000Y-99325000D03*
%TD*%
D20*
%TO.P,U3,1,LNA_IN*%
%TO.N,/RF1*%
X225485000Y-109980000D03*
%TO.P,U3,2,VDD3P3*%
%TO.N,+3V3_RF*%
X225485000Y-110380000D03*
%TO.P,U3,3,VDD3P3*%
X225485000Y-110780000D03*
%TO.P,U3,4,CHIP_PU*%
%TO.N,/CHIP_PU*%
X225485000Y-111180000D03*
%TO.P,U3,5,GPIO0*%
%TO.N,/CHIP_BOOT*%
X225485000Y-111580000D03*
%TO.P,U3,6,GPIO1*%
%TO.N,/GPIO1*%
X225485000Y-111980000D03*
%TO.P,U3,7,GPIO2*%
%TO.N,/GPIO2*%
X225485000Y-112380000D03*
%TO.P,U3,8,GPIO3*%
%TO.N,/GPIO3*%
X225485000Y-112780000D03*
%TO.P,U3,9,GPIO4*%
%TO.N,/GPIO4*%
X225485000Y-113180000D03*
%TO.P,U3,10,GPIO5*%
%TO.N,/GPIO5*%
X225485000Y-113580000D03*
%TO.P,U3,11,GPIO6*%
%TO.N,/GPIO6*%
X225485000Y-113980000D03*
%TO.P,U3,12,GPIO7*%
%TO.N,/GPIO7*%
X225485000Y-114380000D03*
%TO.P,U3,13,GPIO8*%
%TO.N,/GPIO8*%
X225485000Y-114780000D03*
%TO.P,U3,14,GPIO9*%
%TO.N,/GPIO9*%
X225485000Y-115180000D03*
D21*
%TO.P,U3,15,GPIO10*%
%TO.N,/GPIO10*%
X226335000Y-116030000D03*
%TO.P,U3,16,GPIO11*%
%TO.N,/GPIO11*%
X226735000Y-116030000D03*
%TO.P,U3,17,GPIO12*%
%TO.N,/GPIO12*%
X227135000Y-116030000D03*
%TO.P,U3,18,GPIO13*%
%TO.N,/GPIO13*%
X227535000Y-116030000D03*
%TO.P,U3,19,GPIO14*%
%TO.N,/GPIO14*%
X227935000Y-116030000D03*
%TO.P,U3,20,VDD3P3_RTC*%
%TO.N,+3V3*%
X228335000Y-116030000D03*
%TO.P,U3,21,XTAL_32K_P*%
%TO.N,/OSC32_IN*%
X228735000Y-116030000D03*
%TO.P,U3,22,XTAL_32K_N*%
%TO.N,/OSC32_OUT*%
X229135000Y-116030000D03*
%TO.P,U3,23,GPIO17*%
%TO.N,/GPIO17*%
X229535000Y-116030000D03*
%TO.P,U3,24,GPIO18*%
%TO.N,/GPIO18*%
X229935000Y-116030000D03*
%TO.P,U3,25,GPIO19/USB_D-*%
%TO.N,/USB_D-*%
X230335000Y-116030000D03*
%TO.P,U3,26,GPIO20/USB_D+*%
%TO.N,/USB_D+*%
X230735000Y-116030000D03*
%TO.P,U3,27,GPIO21*%
%TO.N,/GPIO21*%
X231135000Y-116030000D03*
%TO.P,U3,28,SPICS1*%
%TO.N,/SPICS1*%
X231535000Y-116030000D03*
D20*
%TO.P,U3,29,VDD_SPI*%
%TO.N,VDD_SPI*%
X232385000Y-115180000D03*
%TO.P,U3,30,SPIHD*%
%TO.N,/FLASH_QSPI_nH*%
X232385000Y-114780000D03*
%TO.P,U3,31,SPIWP*%
%TO.N,/FLASH_QSPI_nWP*%
X232385000Y-114380000D03*
%TO.P,U3,32,SPICS0*%
%TO.N,/FLASH_QSPI_nCS*%
X232385000Y-113980000D03*
%TO.P,U3,33,SPICLK*%
%TO.N,/FLASH_QSPI_CLK*%
X232385000Y-113580000D03*
%TO.P,U3,34,SPIQ*%
%TO.N,/FLASH_QSPI_DO*%
X232385000Y-113180000D03*
%TO.P,U3,35,SPID*%
%TO.N,/FLASH_QSPI_DI*%
X232385000Y-112780000D03*
%TO.P,U3,36,SPICLK_N*%
%TO.N,/SPICLK_N*%
X232385000Y-112380000D03*
%TO.P,U3,37,SPICLK_P*%
%TO.N,/SPICLK_P*%
X232385000Y-111980000D03*
%TO.P,U3,38,GPIO33*%
%TO.N,/GPIO33*%
X232385000Y-111580000D03*
%TO.P,U3,39,GPIO34*%
%TO.N,/GPIO34*%
X232385000Y-111180000D03*
%TO.P,U3,40,GPIO35*%
%TO.N,/GPIO35*%
X232385000Y-110780000D03*
%TO.P,U3,41,GPIO36*%
%TO.N,/GPIO36*%
X232385000Y-110380000D03*
%TO.P,U3,42,GPIO37*%
%TO.N,/GPIO37*%
X232385000Y-109980000D03*
D21*
%TO.P,U3,43,GPIO38*%
%TO.N,/GPIO38*%
X231535000Y-109130000D03*
%TO.P,U3,44,MTCK*%
%TO.N,/MTCK*%
X231135000Y-109130000D03*
%TO.P,U3,45,MTDO*%
%TO.N,/MTDO*%
X230735000Y-109130000D03*
%TO.P,U3,46,VDD3P3_CPU*%
%TO.N,+3V3*%
X230335000Y-109130000D03*
%TO.P,U3,47,MTDI*%
%TO.N,/MTDI*%
X229935000Y-109130000D03*
%TO.P,U3,48,MTMS*%
%TO.N,/MTMS*%
X229535000Y-109130000D03*
%TO.P,U3,49,U0TXD*%
%TO.N,/U0TXD*%
X229135000Y-109130000D03*
%TO.P,U3,50,U0RXD*%
%TO.N,/U0RXD*%
X228735000Y-109130000D03*
%TO.P,U3,51,GPIO45*%
%TO.N,/GPIO45*%
X228335000Y-109130000D03*
%TO.P,U3,52,GPIO46*%
%TO.N,/GPIO46*%
X227935000Y-109130000D03*
%TO.P,U3,53,XTAL_N*%
%TO.N,/OSC_OUT*%
X227535000Y-109130000D03*
%TO.P,U3,54,XTAL_P*%
%TO.N,/OSC_IN*%
X227135000Y-109130000D03*
%TO.P,U3,55,VDDA*%
%TO.N,+3V3*%
X226735000Y-109130000D03*
%TO.P,U3,56,VDDA*%
X226335000Y-109130000D03*
D22*
%TO.P,U3,57,GND*%
%TO.N,Earth*%
X228935000Y-112580000D03*
%TD*%
D23*
%TO.P,C15,1*%
%TO.N,/RF2*%
X221812500Y-97675000D03*
%TO.P,C15,2*%
%TO.N,Earth*%
X220087500Y-97675000D03*
%TD*%
D24*
%TO.P,C23,1*%
%TO.N,+3V3*%
X227667500Y-96550000D03*
%TO.P,C23,2*%
%TO.N,Earth*%
X226532500Y-96550000D03*
%TD*%
D25*
%TO.P,C18,1*%
%TO.N,+3V3*%
X226650000Y-119707500D03*
%TO.P,C18,2*%
%TO.N,Earth*%
X226650000Y-120842500D03*
%TD*%
D26*
%TO.P,RST1,1,1*%
%TO.N,Earth*%
X232625000Y-101825000D03*
X232625000Y-96675000D03*
%TO.P,RST1,2,2*%
%TO.N,/CHIP_PU*%
X234325000Y-101825000D03*
X234325000Y-96675000D03*
%TD*%
D17*
%TO.P,C2,1*%
%TO.N,+3V3*%
X238282500Y-126575000D03*
%TO.P,C2,2*%
%TO.N,Earth*%
X239417500Y-126575000D03*
%TD*%
D23*
%TO.P,C12,1*%
%TO.N,/RF1*%
X221837500Y-102825000D03*
%TO.P,C12,2*%
%TO.N,Earth*%
X220112500Y-102825000D03*
%TD*%
D27*
%TO.P,ANT1,1,FEED*%
%TO.N,/RF2*%
X221825000Y-93150000D03*
%TO.P,ANT1,2,NC*%
%TO.N,unconnected-(ANT1-NC-Pad2)*%
X218825000Y-93150000D03*
%TD*%
D25*
%TO.P,C11,1*%
%TO.N,+3V3*%
X227800000Y-119707500D03*
%TO.P,C11,2*%
%TO.N,Earth*%
X227800000Y-120842500D03*
%TD*%
D17*
%TO.P,C1,1*%
%TO.N,+3V3*%
X238290000Y-123375000D03*
%TO.P,C1,2*%
%TO.N,Earth*%
X239425000Y-123375000D03*
%TD*%
D13*
%TO.P,TP9,1,1*%
%TO.N,VDD_SPI*%
X235300000Y-117300000D03*
%TD*%
D18*
%TO.P,R4,1*%
%TO.N,/USB_D+*%
X232223726Y-119073726D03*
%TO.P,R4,2*%
%TO.N,/M.2_USB_D+*%
X232676274Y-119526274D03*
%TD*%
D28*
%TO.P,JP1,1,A*%
%TO.N,Net-(J2-1)*%
X237900000Y-128770000D03*
%TO.P,JP1,2,B*%
%TO.N,+3V3*%
X237900000Y-128130000D03*
%TD*%
D17*
%TO.P,C3,1*%
%TO.N,+3V3*%
X238290000Y-124975000D03*
%TO.P,C3,2*%
%TO.N,Earth*%
X239425000Y-124975000D03*
%TD*%
D13*
%TO.P,TP5,1,1*%
%TO.N,+3V3_RF*%
X219200000Y-112200000D03*
%TD*%
D29*
%TO.P,J2,MOUNTING-HOLE,MP1*%
%TO.N,unconnected-(J2-MP1-PadMOUNTING-HOLE)*%
X228900000Y-91100000D03*
D30*
%TO.P,J2,P$1,1*%
%TO.N,Net-(J2-1)*%
X238150000Y-131850000D03*
%TO.P,J2,P$3,3*%
X237650000Y-131850000D03*
%TO.P,J2,P$5,5*%
%TO.N,Earth*%
X237150000Y-131850000D03*
%TO.P,J2,P$7,7*%
X236650000Y-131850000D03*
%TO.P,J2,P$9,9*%
X236150000Y-131850000D03*
%TO.P,J2,P$11,11*%
X235650000Y-131850000D03*
%TO.P,J2,P$21,21*%
X233150000Y-131850000D03*
%TO.P,J2,P$23,23*%
%TO.N,/M.2_USB_D+*%
X232650000Y-131850000D03*
%TO.P,J2,P$25,25*%
%TO.N,/M.2_USB_D-*%
X232150000Y-131850000D03*
%TO.P,J2,P$27,27*%
%TO.N,Earth*%
X231650000Y-131850000D03*
%TO.P,J2,P$29,29*%
%TO.N,/GPIO14*%
X231150000Y-131850000D03*
%TO.P,J2,P$31,31*%
%TO.N,/GPIO13*%
X230650000Y-131850000D03*
%TO.P,J2,P$33,33*%
%TO.N,Earth*%
X230150000Y-131850000D03*
%TO.P,J2,P$35,35*%
%TO.N,/GPIO12*%
X229650000Y-131850000D03*
%TO.P,J2,P$37,37*%
%TO.N,/GPIO11*%
X229150000Y-131850000D03*
%TO.P,J2,P$39,39*%
%TO.N,Earth*%
X228650000Y-131850000D03*
%TO.P,J2,P$41,41*%
%TO.N,/GPIO10*%
X228150000Y-131850000D03*
%TO.P,J2,P$43,43*%
%TO.N,/GPIO9*%
X227650000Y-131850000D03*
%TO.P,J2,P$45,45*%
%TO.N,Earth*%
X227150000Y-131850000D03*
%TO.P,J2,P$47,47*%
%TO.N,/GPIO8*%
X226650000Y-131850000D03*
%TO.P,J2,P$49,49*%
%TO.N,/GPIO7*%
X226150000Y-131850000D03*
%TO.P,J2,P$51,51*%
%TO.N,Earth*%
X225650000Y-131850000D03*
%TO.P,J2,P$53,53*%
%TO.N,/GPIO6*%
X225150000Y-131850000D03*
%TO.P,J2,P$55,55*%
%TO.N,/GPIO5*%
X224650000Y-131850000D03*
%TO.P,J2,P$57,57*%
%TO.N,Earth*%
X224150000Y-131850000D03*
%TO.P,J2,P$59,59*%
%TO.N,/GPIO4*%
X223650000Y-131850000D03*
%TO.P,J2,P$61,61*%
%TO.N,/GPIO3*%
X223150000Y-131850000D03*
%TO.P,J2,P$63,63*%
%TO.N,Earth*%
X222650000Y-131850000D03*
%TO.P,J2,P$65,65*%
%TO.N,/GPIO2*%
X222150000Y-131850000D03*
%TO.P,J2,P$67,67*%
%TO.N,/GPIO1*%
X221650000Y-131850000D03*
%TO.P,J2,P$69,69*%
%TO.N,Earth*%
X221150000Y-131850000D03*
%TO.P,J2,P$71,71*%
%TO.N,/CHIP_BOOT*%
X220650000Y-131850000D03*
%TO.P,J2,P$73,73*%
%TO.N,/CHIP_PU*%
X220150000Y-131850000D03*
%TO.P,J2,P$75,75*%
%TO.N,Earth*%
X219650000Y-131850000D03*
%TD*%
D31*
%TO.P,R10,1*%
%TO.N,+3V3*%
X234797500Y-103450000D03*
%TO.P,R10,2*%
%TO.N,/CHIP_PU*%
X233602500Y-103450000D03*
%TD*%
D13*
%TO.P,TP7,1,1*%
%TO.N,+3V3*%
X230750000Y-103850000D03*
%TD*%
D24*
%TO.P,C25,1*%
%TO.N,/CHIP_PU*%
X234967500Y-93525000D03*
%TO.P,C25,2*%
%TO.N,Earth*%
X233832500Y-93525000D03*
%TD*%
D17*
%TO.P,C26,1*%
%TO.N,/CHIP_BOOT*%
X236382500Y-93525000D03*
%TO.P,C26,2*%
%TO.N,Earth*%
X237517500Y-93525000D03*
%TD*%
D26*
%TO.P,BOOT1,1,1*%
%TO.N,Earth*%
X238700000Y-96675000D03*
X238700000Y-101825000D03*
%TO.P,BOOT1,2,2*%
%TO.N,/CHIP_BOOT*%
X237000000Y-96675000D03*
X237000000Y-101825000D03*
%TD*%
D32*
%TO.N,VBUS*%
X230325000Y-98850000D03*
X230325000Y-97595997D03*
X226250000Y-102350000D03*
X229100000Y-103200000D03*
X225600000Y-102675000D03*
X230900000Y-98529003D03*
X239850000Y-108850000D03*
X226875000Y-97900000D03*
X230900000Y-97925000D03*
X230325000Y-98200000D03*
X229725000Y-98500000D03*
X225950000Y-97900000D03*
X229725000Y-97925000D03*
%TO.N,Earth*%
X222880000Y-129650000D03*
X235550000Y-95350000D03*
X239150000Y-113900000D03*
X218700000Y-97650000D03*
X224390000Y-129635000D03*
X232425000Y-124125000D03*
X230875000Y-96100000D03*
X218548439Y-106630888D03*
X218365000Y-121475000D03*
X231500000Y-105175000D03*
X237500000Y-91800000D03*
X218365000Y-118690000D03*
X225575000Y-96675000D03*
X228200000Y-100750000D03*
X231650000Y-101850000D03*
X239425000Y-122400000D03*
X218700000Y-102825000D03*
X233390000Y-129582500D03*
X219880000Y-129677500D03*
X236650000Y-129725000D03*
X225915000Y-129632500D03*
X239425000Y-125800000D03*
X231450000Y-115075000D03*
X228880000Y-129625000D03*
X220899569Y-111701651D03*
X218350000Y-113825000D03*
X234900000Y-107800000D03*
X223575000Y-106550000D03*
X238900000Y-98175000D03*
X235100000Y-129050000D03*
X233500000Y-117600000D03*
X233850000Y-91750000D03*
X226000000Y-120850000D03*
X231880000Y-129597500D03*
X221400000Y-110150000D03*
X236650000Y-129120997D03*
X239100000Y-117300000D03*
X232400000Y-121450000D03*
X221390000Y-129677500D03*
X230390000Y-129625000D03*
X239425000Y-127425000D03*
X223400000Y-109300000D03*
X226000000Y-103700000D03*
X227390000Y-129625000D03*
X235100000Y-128445997D03*
%TO.N,+3V3*%
X238875000Y-103150000D03*
X225600000Y-108600000D03*
X224900000Y-108750000D03*
X237375000Y-123200000D03*
X238650000Y-103725000D03*
X235825000Y-103450000D03*
X238750000Y-100425000D03*
X226025000Y-119700000D03*
X237375000Y-123925000D03*
X235550000Y-91750000D03*
X237375000Y-125375000D03*
X238750000Y-99775000D03*
X219500000Y-121475000D03*
X228625000Y-96550000D03*
X230340000Y-107735000D03*
X237375000Y-124650000D03*
X238275000Y-99350000D03*
X237400000Y-109550000D03*
%TO.N,/OSC_IN*%
X224425000Y-107975000D03*
%TO.N,/OSC_OUT*%
X223825000Y-107350000D03*
%TO.N,/OSC32_IN*%
X229225000Y-121125000D03*
%TO.N,/OSC32_OUT*%
X229365000Y-119960000D03*
%TO.N,VDD_SPI*%
X235300000Y-116000000D03*
X237100000Y-112500000D03*
X233500000Y-116750000D03*
%TO.N,/USB_D+*%
X230050000Y-105250000D03*
X231406100Y-118593900D03*
%TO.N,/USB_D-*%
X228150000Y-105250000D03*
X230537200Y-118562800D03*
%TO.N,/FLASH_QSPI_nCS*%
X237200000Y-114910000D03*
%TO.N,/FLASH_QSPI_nH*%
X237100000Y-113412500D03*
X235440000Y-115085000D03*
%TO.N,/FLASH_QSPI_DO*%
X235065000Y-112935000D03*
X236165000Y-113510000D03*
%TO.N,+3V3_RF*%
X219500000Y-113825000D03*
%TO.N,/CHIP_PU*%
X233000000Y-104925000D03*
X226375000Y-110450000D03*
%TO.N,/CHIP_BOOT*%
X226350000Y-111575000D03*
X233125000Y-106175000D03*
%TO.N,/GPIO33*%
X235640000Y-109460000D03*
%TO.N,/GPIO18*%
X231840000Y-126385000D03*
%TO.N,/GPIO35*%
X234015000Y-109460000D03*
%TO.N,/GPIO21*%
X232137500Y-118187500D03*
%TO.N,/SPICLK_P*%
X236465000Y-109460000D03*
%TO.N,/MTCK*%
X232825000Y-106950000D03*
%TO.N,/GPIO37*%
X232390000Y-109460000D03*
%TO.N,/GPIO17*%
X231827500Y-127297500D03*
%TO.N,/MTDO*%
X231800000Y-106950000D03*
%TO.N,/GPIO34*%
X234815000Y-109460000D03*
%TO.N,/U0RXD*%
X228515000Y-110060000D03*
%TO.N,/U0TXD*%
X229340000Y-110060000D03*
%TO.N,/SPICS1*%
X233212500Y-118412500D03*
%TO.N,/MTDI*%
X229740000Y-106960000D03*
%TO.N,/GPIO36*%
X233215000Y-109460000D03*
%TO.N,/GPIO46*%
X229825000Y-99850000D03*
X227315000Y-106960000D03*
%TO.N,/SPICLK_N*%
X237015000Y-110310000D03*
%TO.N,/MTMS*%
X228940000Y-106960000D03*
%TO.N,/GPIO38*%
X233625000Y-106950000D03*
%TO.N,/GPIO45*%
X228140000Y-106960000D03*
%TO.N,Net-(U2-EN)*%
X239775000Y-104800000D03*
%TD*%
D33*
%TO.N,Earth*%
X223865000Y-95980000D02*
X224560000Y-96675000D01*
X224560000Y-96675000D02*
X225575000Y-96675000D01*
X223865000Y-104620000D02*
X225080000Y-104620000D01*
X225080000Y-104620000D02*
X226000000Y-103700000D01*
X218700000Y-104075000D02*
X218700000Y-102825000D01*
X219245000Y-104620000D02*
X218700000Y-104075000D01*
X219685000Y-104620000D02*
X219245000Y-104620000D01*
X223865000Y-95980000D02*
X225887500Y-95980000D01*
X226457500Y-96550000D02*
X225887500Y-95980000D01*
X226532500Y-96550000D02*
X226457500Y-96550000D01*
X218700000Y-96450000D02*
X218700000Y-97650000D01*
X219170000Y-95980000D02*
X218700000Y-96450000D01*
X219685000Y-95980000D02*
X219170000Y-95980000D01*
D34*
%TO.N,/USB_D+*%
X231743900Y-118593900D02*
X232223726Y-119073726D01*
X231406100Y-118593900D02*
X231743900Y-118593900D01*
X230735000Y-117922800D02*
X230735000Y-116030000D01*
X231406100Y-118593900D02*
X230735000Y-117922800D01*
%TO.N,/GPIO21*%
X231135000Y-117185000D02*
X231135000Y-116030000D01*
X232137500Y-118187500D02*
X231135000Y-117185000D01*
%TO.N,/SPICS1*%
X231535000Y-116735000D02*
X231535000Y-116030000D01*
X233212500Y-118412500D02*
X231535000Y-116735000D01*
%TO.N,/FLASH_QSPI_nWP*%
X237500000Y-115900000D02*
X238625000Y-115900000D01*
D33*
%TO.N,Earth*%
X230875000Y-96100000D02*
X231450000Y-96675000D01*
X231450000Y-96675000D02*
X232625000Y-96675000D01*
D34*
%TO.N,/GPIO46*%
X229825000Y-100950000D02*
X229825000Y-99850000D01*
X227525000Y-103250000D02*
X229825000Y-100950000D01*
%TO.N,/GPIO14*%
X227935000Y-116940000D02*
X227935000Y-116030000D01*
X225420000Y-119455000D02*
X227935000Y-116940000D01*
X225420000Y-121765000D02*
X225420000Y-119455000D01*
X231150000Y-130460000D02*
X231315000Y-130295000D01*
X231150000Y-131860000D02*
X231150000Y-130460000D01*
X231315000Y-130295000D02*
X231315000Y-127660000D01*
X231315000Y-127660000D02*
X225420000Y-121765000D01*
%TO.N,/GPIO10*%
X224250000Y-118625000D02*
X226335000Y-116540000D01*
X228315000Y-127590000D02*
X224250000Y-123525000D01*
X226335000Y-116540000D02*
X226335000Y-116030000D01*
X228315000Y-130295000D02*
X228315000Y-127590000D01*
X228150000Y-130460000D02*
X228315000Y-130295000D01*
X224250000Y-123525000D02*
X224250000Y-118625000D01*
X228150000Y-131860000D02*
X228150000Y-130460000D01*
%TO.N,/GPIO12*%
X227135000Y-116765000D02*
X227135000Y-116030000D01*
X224866000Y-119034000D02*
X227135000Y-116765000D01*
X224866000Y-122566000D02*
X224866000Y-119034000D01*
X229650000Y-130460000D02*
X229815000Y-130295000D01*
X229815000Y-130295000D02*
X229815000Y-127515000D01*
X229815000Y-127515000D02*
X224866000Y-122566000D01*
X229650000Y-131860000D02*
X229650000Y-130460000D01*
%TO.N,/GPIO13*%
X225143000Y-122143000D02*
X230965000Y-127965000D01*
X227535000Y-116865000D02*
X225143000Y-119257000D01*
X230965000Y-127965000D02*
X230965000Y-130145000D01*
X230965000Y-130145000D02*
X230650000Y-130460000D01*
X227535000Y-116030000D02*
X227535000Y-116865000D01*
X225143000Y-119257000D02*
X225143000Y-122143000D01*
X230650000Y-130460000D02*
X230650000Y-131860000D01*
%TO.N,/GPIO11*%
X226735000Y-116640000D02*
X224589000Y-118786000D01*
%TO.N,+3V3_RF*%
X219200000Y-113525000D02*
X219500000Y-113825000D01*
X219200000Y-112200000D02*
X219200000Y-113525000D01*
%TO.N,VDD_SPI*%
X233230000Y-115180000D02*
X232385000Y-115180000D01*
X233500000Y-115450000D02*
X233230000Y-115180000D01*
X233500000Y-116750000D02*
X233500000Y-115450000D01*
X235300000Y-117300000D02*
X235300000Y-116000000D01*
%TO.N,VBUS*%
X239850000Y-108850000D02*
X239550000Y-108550000D01*
X239550000Y-108550000D02*
X239550000Y-107197500D01*
%TO.N,Earth*%
X231890000Y-130110000D02*
X231890000Y-129717500D01*
X222640000Y-131870000D02*
X222640000Y-130360000D01*
D33*
X236650000Y-131850000D02*
X236650000Y-129725000D01*
D34*
X227390000Y-129697500D02*
X227380000Y-129687500D01*
D33*
X238700000Y-101825000D02*
X238700000Y-101625000D01*
X239425000Y-123375000D02*
X239425000Y-122400000D01*
D34*
X231890000Y-129717500D02*
X231865000Y-129692500D01*
D33*
X237125000Y-129595997D02*
X237125000Y-131825000D01*
X239425000Y-127425000D02*
X239425000Y-126582500D01*
X238700000Y-94707500D02*
X237517500Y-93525000D01*
D34*
X231635000Y-130365000D02*
X231890000Y-130110000D01*
X219880000Y-130120000D02*
X219880000Y-129677500D01*
X221150000Y-130350000D02*
X221390000Y-130110000D01*
X225915000Y-129732500D02*
X225870000Y-129687500D01*
X224140000Y-130360000D02*
X224390000Y-130110000D01*
D33*
X231500000Y-105175000D02*
X231500000Y-106050000D01*
X239100000Y-117300000D02*
X239540000Y-116860000D01*
X235650000Y-131850000D02*
X235650000Y-129600000D01*
X233850000Y-91750000D02*
X233832500Y-91767500D01*
X239625000Y-98900000D02*
X238900000Y-98175000D01*
X236150000Y-129495997D02*
X236150000Y-131850000D01*
X218725000Y-97675000D02*
X218700000Y-97650000D01*
X238900000Y-98175000D02*
X238900000Y-96875000D01*
D34*
X219650000Y-130350000D02*
X219880000Y-130120000D01*
X233385000Y-129702500D02*
X233375000Y-129692500D01*
D33*
X239540000Y-116860000D02*
X239540000Y-114910000D01*
D34*
X225915000Y-130085000D02*
X225915000Y-129732500D01*
X221150000Y-131860000D02*
X221150000Y-130350000D01*
X225640000Y-131870000D02*
X225640000Y-130360000D01*
D33*
X228935000Y-112585000D02*
X228935000Y-112580000D01*
X226000000Y-120850000D02*
X226007500Y-120842500D01*
D34*
X222640000Y-130360000D02*
X222870000Y-130130000D01*
D33*
X233832500Y-91767500D02*
X233832500Y-93525000D01*
X220112500Y-102825000D02*
X218700000Y-102825000D01*
X226007500Y-120842500D02*
X226650000Y-120842500D01*
X231675000Y-101825000D02*
X232625000Y-101825000D01*
D34*
X228875000Y-130125000D02*
X228875000Y-129682500D01*
X225640000Y-130360000D02*
X225915000Y-130085000D01*
X230145000Y-130355000D02*
X230385000Y-130115000D01*
D33*
X227200000Y-100750000D02*
X226300000Y-99850000D01*
X237125000Y-131825000D02*
X237150000Y-131850000D01*
D34*
X233135000Y-130365000D02*
X233385000Y-130115000D01*
D33*
X236650000Y-129120997D02*
X237125000Y-129595997D01*
X239425000Y-124975000D02*
X239425000Y-125800000D01*
X235650000Y-129600000D02*
X235100000Y-129050000D01*
X226300000Y-99850000D02*
X225990000Y-99850000D01*
X235100000Y-128445997D02*
X236150000Y-129495997D01*
X237500000Y-91800000D02*
X237500000Y-93507500D01*
D34*
X219650000Y-131860000D02*
X219650000Y-130350000D01*
X230385000Y-130115000D02*
X230385000Y-129682500D01*
D33*
X239425000Y-126582500D02*
X239417500Y-126575000D01*
D34*
X227140000Y-130360000D02*
X227390000Y-130110000D01*
D33*
X239625000Y-100700000D02*
X239625000Y-98900000D01*
X238700000Y-101625000D02*
X239625000Y-100700000D01*
D34*
X224390000Y-130110000D02*
X224390000Y-129697500D01*
X227140000Y-131870000D02*
X227140000Y-130360000D01*
D33*
X228200000Y-100750000D02*
X227200000Y-100750000D01*
X220087500Y-97675000D02*
X218725000Y-97675000D01*
X231500000Y-106050000D02*
X231475000Y-106075000D01*
D34*
X233385000Y-130115000D02*
X233385000Y-129702500D01*
X228645000Y-130355000D02*
X228875000Y-130125000D01*
D33*
X237500000Y-93507500D02*
X237517500Y-93525000D01*
D34*
X227390000Y-130110000D02*
X227390000Y-129697500D01*
D33*
X238900000Y-96875000D02*
X238700000Y-96675000D01*
D34*
X221390000Y-130110000D02*
X221390000Y-129677500D01*
X230145000Y-131865000D02*
X230145000Y-130355000D01*
X224390000Y-129697500D02*
X224380000Y-129687500D01*
D33*
X239150000Y-113525000D02*
X239150000Y-113900000D01*
D34*
X228645000Y-131865000D02*
X228645000Y-130355000D01*
D33*
X231450000Y-115075000D02*
X231425000Y-115075000D01*
X238700000Y-96675000D02*
X238700000Y-94707500D01*
D34*
X233135000Y-131875000D02*
X233135000Y-130365000D01*
X222870000Y-130130000D02*
X222870000Y-129687500D01*
D33*
X231425000Y-115075000D02*
X228935000Y-112585000D01*
D34*
X224140000Y-131870000D02*
X224140000Y-130360000D01*
D33*
X231650000Y-101850000D02*
X231675000Y-101825000D01*
X226650000Y-120842500D02*
X227800000Y-120842500D01*
D34*
X231635000Y-131875000D02*
X231635000Y-130365000D01*
%TO.N,+3V3*%
X224900000Y-108550000D02*
X225150000Y-108300000D01*
D33*
X230340000Y-106075000D02*
X230345000Y-106080000D01*
D34*
X226450000Y-108300000D02*
X226735000Y-108585000D01*
D33*
X230345000Y-107730000D02*
X230340000Y-107735000D01*
D34*
X226735000Y-108585000D02*
X226735000Y-109130000D01*
X225150000Y-108300000D02*
X226450000Y-108300000D01*
X226032500Y-119707500D02*
X226025000Y-119700000D01*
X225805000Y-108600000D02*
X226335000Y-109130000D01*
X226650000Y-119707500D02*
X227800000Y-119707500D01*
D33*
X227667500Y-96550000D02*
X227667500Y-97192500D01*
X227667500Y-96550000D02*
X228625000Y-96550000D01*
X237900000Y-128130000D02*
X237900000Y-126957500D01*
X227667500Y-97192500D02*
X228460000Y-97985000D01*
X230750000Y-105665000D02*
X230340000Y-106075000D01*
X230750000Y-103850000D02*
X230750000Y-105665000D01*
D34*
X228335000Y-117865000D02*
X227800000Y-118400000D01*
X226650000Y-119707500D02*
X226032500Y-119707500D01*
D33*
X230345000Y-106080000D02*
X230345000Y-107730000D01*
D34*
X224900000Y-108750000D02*
X224900000Y-108550000D01*
X230335000Y-109130000D02*
X230335000Y-107740000D01*
D33*
X228460000Y-97985000D02*
X228460000Y-98750000D01*
D34*
X228335000Y-116030000D02*
X228335000Y-117865000D01*
X225600000Y-108600000D02*
X225805000Y-108600000D01*
D33*
X234797500Y-103450000D02*
X235825000Y-103450000D01*
X237900000Y-126957500D02*
X238282500Y-126575000D01*
D34*
X227800000Y-118400000D02*
X227800000Y-119707500D01*
X230335000Y-107740000D02*
X230340000Y-107735000D01*
%TO.N,/OSC_IN*%
X226605000Y-107975000D02*
X227135000Y-108505000D01*
X224425000Y-107975000D02*
X226605000Y-107975000D01*
X227135000Y-108505000D02*
X227135000Y-109130000D01*
%TO.N,/OSC_OUT*%
X226530000Y-107350000D02*
X227535000Y-108355000D01*
X227535000Y-108355000D02*
X227535000Y-109130000D01*
X223825000Y-107350000D02*
X226530000Y-107350000D01*
%TO.N,/OSC32_IN*%
X229225000Y-121125000D02*
X228735000Y-120635000D01*
X228735000Y-120635000D02*
X228735000Y-116030000D01*
%TO.N,/OSC32_OUT*%
X229135000Y-119730000D02*
X229135000Y-116030000D01*
X229365000Y-119960000D02*
X229135000Y-119730000D01*
%TO.N,VDD_SPI*%
X237490000Y-112110000D02*
X238040000Y-112110000D01*
X237100000Y-112500000D02*
X237490000Y-112110000D01*
%TO.N,/USB_D-*%
X230335000Y-118360600D02*
X230537200Y-118562800D01*
X230562800Y-118562800D02*
X231623726Y-119623726D01*
X231623726Y-119623726D02*
X231623726Y-119673726D01*
X230537200Y-118562800D02*
X230562800Y-118562800D01*
X230335000Y-116030000D02*
X230335000Y-118360600D01*
%TO.N,/M.2_USB_D-*%
X232465000Y-126560000D02*
X233100000Y-125925000D01*
X232465000Y-130120000D02*
X232465000Y-126560000D01*
X233100000Y-125925000D02*
X233100000Y-121100000D01*
X232125000Y-130460000D02*
X232465000Y-130120000D01*
X233100000Y-121100000D02*
X232126274Y-120126274D01*
X232126274Y-120126274D02*
X232076274Y-120126274D01*
X232125000Y-131860000D02*
X232125000Y-130460000D01*
%TO.N,/M.2_USB_D+*%
X232815000Y-130270000D02*
X232815000Y-126660000D01*
X233400000Y-126075000D02*
X233400000Y-120250000D01*
X232625000Y-130460000D02*
X232815000Y-130270000D01*
X233400000Y-120250000D02*
X232676274Y-119526274D01*
X232815000Y-126660000D02*
X233400000Y-126075000D01*
X232625000Y-131860000D02*
X232625000Y-130460000D01*
%TO.N,/FLASH_QSPI_nCS*%
X232385000Y-113980000D02*
X235860000Y-113980000D01*
X237350000Y-114910000D02*
X238040000Y-114910000D01*
X237350000Y-114910000D02*
X237200000Y-114910000D01*
X235860000Y-113980000D02*
X236790000Y-114910000D01*
X236790000Y-114910000D02*
X237350000Y-114910000D01*
%TO.N,/FLASH_QSPI_CLK*%
X235204889Y-113580000D02*
X237584889Y-111200000D01*
X232385000Y-113580000D02*
X235204889Y-113580000D01*
X239040000Y-111460000D02*
X239040000Y-112110000D01*
X238780000Y-111200000D02*
X239040000Y-111460000D01*
X237584889Y-111200000D02*
X238780000Y-111200000D01*
%TO.N,/RF1*%
X221875000Y-102787500D02*
X221837500Y-102825000D01*
D35*
X221837500Y-102825000D02*
X221850000Y-102825000D01*
X221875000Y-101075000D02*
X221875000Y-102787500D01*
X221850000Y-102825000D02*
X221850000Y-108311242D01*
X223518758Y-109980000D02*
X225485000Y-109980000D01*
X221850000Y-108311242D02*
G75*
G03*
X223518758Y-109980000I1668800J42D01*
G01*
D34*
%TO.N,/RF2*%
X221812500Y-93162500D02*
X221825000Y-93150000D01*
D35*
X221875000Y-97737500D02*
X221812500Y-97675000D01*
X221812500Y-97675000D02*
X221812500Y-93162500D01*
X221875000Y-99325000D02*
X221875000Y-97737500D01*
D34*
%TO.N,/FLASH_QSPI_DI*%
X239540000Y-112110000D02*
X239540000Y-111310000D01*
X239540000Y-111310000D02*
X239115000Y-110885000D01*
X234420000Y-112780000D02*
X232385000Y-112780000D01*
X236315000Y-110885000D02*
X234420000Y-112780000D01*
X239115000Y-110885000D02*
X236315000Y-110885000D01*
%TO.N,/FLASH_QSPI_nH*%
X237100000Y-113412500D02*
X237562500Y-112950000D01*
X238540000Y-112660000D02*
X238540000Y-112110000D01*
X234135000Y-115085000D02*
X233830000Y-114780000D01*
X233830000Y-114780000D02*
X232385000Y-114780000D01*
X238250000Y-112950000D02*
X238540000Y-112660000D01*
X237562500Y-112950000D02*
X238250000Y-112950000D01*
X235440000Y-115085000D02*
X234135000Y-115085000D01*
%TO.N,/FLASH_QSPI_nWP*%
X232385000Y-114380000D02*
X235535000Y-114380000D01*
X238625000Y-115900000D02*
X239040000Y-115485000D01*
X239040000Y-115485000D02*
X239040000Y-114910000D01*
X237055000Y-115900000D02*
X237500000Y-115900000D01*
X235535000Y-114380000D02*
X237055000Y-115900000D01*
%TO.N,/FLASH_QSPI_DO*%
X238390000Y-114060000D02*
X238540000Y-114210000D01*
X235065000Y-112935000D02*
X234808000Y-113192000D01*
X234808000Y-113192000D02*
X232397000Y-113192000D01*
X232397000Y-113192000D02*
X232385000Y-113180000D01*
X236165000Y-113510000D02*
X236715000Y-114060000D01*
X236715000Y-114060000D02*
X238390000Y-114060000D01*
X238540000Y-114210000D02*
X238540000Y-114910000D01*
%TO.N,+3V3_RF*%
X222606108Y-110780000D02*
X222593054Y-110793054D01*
X223006109Y-110380000D02*
X222593054Y-110793054D01*
X225485000Y-110380000D02*
X223006109Y-110380000D01*
X219561109Y-113825000D02*
X219500000Y-113825000D01*
X225485000Y-110780000D02*
X222606108Y-110780000D01*
X222593054Y-110793054D02*
X219561109Y-113825000D01*
%TO.N,/CHIP_PU*%
X234325000Y-102052500D02*
X234325000Y-101825000D01*
X233000000Y-104850000D02*
X233000000Y-104025000D01*
X220150000Y-130425000D02*
X220435000Y-130140000D01*
X234967500Y-95807500D02*
X234967500Y-93525000D01*
X222945000Y-111180000D02*
X225485000Y-111180000D01*
X234325000Y-101825000D02*
X234325000Y-96675000D01*
X234325000Y-96450000D02*
X234967500Y-95807500D01*
X226375000Y-110450000D02*
X226375000Y-110750000D01*
X233000000Y-104025000D02*
X233575000Y-103450000D01*
X233575000Y-103450000D02*
X233602500Y-103450000D01*
X220435000Y-113690000D02*
X222945000Y-111180000D01*
X220150000Y-131860000D02*
X220150000Y-130425000D01*
X226375000Y-110750000D02*
X225945000Y-111180000D01*
X233602500Y-102775000D02*
X234325000Y-102052500D01*
X220435000Y-130140000D02*
X220435000Y-113690000D01*
X234325000Y-96675000D02*
X234325000Y-96450000D01*
X233602500Y-103450000D02*
X233602500Y-102775000D01*
X225945000Y-111180000D02*
X225485000Y-111180000D01*
%TO.N,/CHIP_BOOT*%
X223120000Y-111580000D02*
X220815000Y-113885000D01*
X237000000Y-104820000D02*
X237000000Y-101825000D01*
X220815000Y-113885000D02*
X220815000Y-130335000D01*
X236575000Y-96032500D02*
X236575000Y-96250000D01*
X225485000Y-111580000D02*
X223120000Y-111580000D01*
X220815000Y-130335000D02*
X220650000Y-130500000D01*
X235645000Y-106175000D02*
X237000000Y-104820000D01*
X236382500Y-95840000D02*
X236575000Y-96032500D01*
X236575000Y-96250000D02*
X237000000Y-96675000D01*
X236382500Y-93525000D02*
X236382500Y-95840000D01*
X237000000Y-101825000D02*
X237000000Y-96675000D01*
X233125000Y-106175000D02*
X235645000Y-106175000D01*
X220650000Y-130500000D02*
X220650000Y-131860000D01*
X226345000Y-111580000D02*
X225485000Y-111580000D01*
X226350000Y-111575000D02*
X226345000Y-111580000D01*
%TO.N,/GPIO33*%
X233667662Y-111485000D02*
X235592662Y-109560000D01*
X232385000Y-111580000D02*
X233570000Y-111580000D01*
X233570000Y-111580000D02*
X233665000Y-111485000D01*
X233665000Y-111485000D02*
X233667662Y-111485000D01*
%TO.N,/GPIO18*%
X231840000Y-126385000D02*
X231840000Y-120810000D01*
X231840000Y-120810000D02*
X229935000Y-118905000D01*
X229935000Y-118905000D02*
X229935000Y-116030000D01*
%TO.N,/GPIO9*%
X224670000Y-115180000D02*
X225485000Y-115180000D01*
X227650000Y-131860000D02*
X227650000Y-130460000D01*
X223900000Y-115950000D02*
X224670000Y-115180000D01*
X223900000Y-123920000D02*
X223900000Y-115950000D01*
X227650000Y-130460000D02*
X227965000Y-130145000D01*
X227965000Y-130145000D02*
X227965000Y-127985000D01*
X227965000Y-127985000D02*
X223900000Y-123920000D01*
%TO.N,/GPIO2*%
X222315000Y-127715000D02*
X222315000Y-130210000D01*
X223395000Y-112380000D02*
X221500000Y-114275000D01*
X222150000Y-130375000D02*
X222150000Y-131860000D01*
X221500000Y-126900000D02*
X222315000Y-127715000D01*
X222315000Y-130210000D02*
X222150000Y-130375000D01*
X221500000Y-114275000D02*
X221500000Y-126900000D01*
X225485000Y-112380000D02*
X223395000Y-112380000D01*
%TO.N,/GPIO5*%
X222525000Y-125570000D02*
X222525000Y-114986637D01*
X222525000Y-114986637D02*
X223931637Y-113580000D01*
X223931637Y-113580000D02*
X225485000Y-113580000D01*
X224965000Y-128010000D02*
X222525000Y-125570000D01*
X224650000Y-130460000D02*
X224965000Y-130145000D01*
X224650000Y-131860000D02*
X224650000Y-130460000D01*
X224965000Y-130145000D02*
X224965000Y-128010000D01*
%TO.N,/GPIO8*%
X226650000Y-130460000D02*
X226650000Y-131860000D01*
X223550000Y-124400000D02*
X226815000Y-127665000D01*
X226815000Y-130295000D02*
X226650000Y-130460000D01*
X223550000Y-115700000D02*
X223550000Y-124400000D01*
X225485000Y-114780000D02*
X224470000Y-114780000D01*
X226815000Y-127665000D02*
X226815000Y-130295000D01*
X224470000Y-114780000D02*
X223550000Y-115700000D01*
%TO.N,/GPIO7*%
X226150000Y-130460000D02*
X226150000Y-131860000D01*
X226490000Y-130120000D02*
X226150000Y-130460000D01*
X224310245Y-114380000D02*
X223200000Y-115490245D01*
X225485000Y-114380000D02*
X224310245Y-114380000D01*
X223200000Y-124770000D02*
X226490000Y-128060000D01*
X223200000Y-115490245D02*
X223200000Y-124770000D01*
X226490000Y-128060000D02*
X226490000Y-130120000D01*
%TO.N,/GPIO3*%
X223440000Y-130085000D02*
X223440000Y-128003578D01*
X223557500Y-112780000D02*
X225485000Y-112780000D01*
X221850000Y-114487500D02*
X223557500Y-112780000D01*
X223440000Y-128003578D02*
X221850000Y-126413578D01*
X223150000Y-131860000D02*
X223150000Y-130375000D01*
X223150000Y-130375000D02*
X223440000Y-130085000D01*
X221850000Y-126413578D02*
X221850000Y-114487500D01*
%TO.N,/GPIO35*%
X234015000Y-109835000D02*
X233065000Y-110785000D01*
X233065000Y-110785000D02*
X232390000Y-110785000D01*
X234015000Y-109460000D02*
X234015000Y-109835000D01*
%TO.N,/SPICLK_P*%
X236465000Y-109485000D02*
X236465000Y-109460000D01*
X233970000Y-111980000D02*
X236465000Y-109485000D01*
X232385000Y-111980000D02*
X233970000Y-111980000D01*
%TO.N,/MTCK*%
X231135000Y-108640000D02*
X232825000Y-106950000D01*
X231135000Y-109130000D02*
X231135000Y-108640000D01*
%TO.N,/GPIO37*%
X232390000Y-109460000D02*
X232390000Y-109975000D01*
X232390000Y-109975000D02*
X232385000Y-109980000D01*
%TO.N,/GPIO17*%
X231215000Y-126685000D02*
X231215000Y-121015000D01*
X231827500Y-127297500D02*
X231215000Y-126685000D01*
X229535000Y-119335000D02*
X229535000Y-116030000D01*
X231215000Y-121015000D02*
X229535000Y-119335000D01*
%TO.N,/MTDO*%
X230735000Y-108305000D02*
X230735000Y-109130000D01*
X231800000Y-106950000D02*
X231800000Y-107240000D01*
X231800000Y-107240000D02*
X230735000Y-108305000D01*
%TO.N,/GPIO34*%
X232385000Y-111180000D02*
X233270000Y-111180000D01*
X233270000Y-111180000D02*
X234815000Y-109635000D01*
X234815000Y-109635000D02*
X234815000Y-109460000D01*
%TO.N,/GPIO4*%
X223815000Y-127740000D02*
X222175000Y-126100000D01*
X223796800Y-113180000D02*
X225485000Y-113180000D01*
X223650000Y-131860000D02*
X223650000Y-130375000D01*
X223650000Y-130375000D02*
X223815000Y-130210000D01*
X222175000Y-126100000D02*
X222175000Y-114801800D01*
X222175000Y-114801800D02*
X223796800Y-113180000D01*
X223815000Y-130210000D02*
X223815000Y-127740000D01*
%TO.N,/U0RXD*%
X228735000Y-109840000D02*
X228735000Y-109130000D01*
X228515000Y-110060000D02*
X228735000Y-109840000D01*
%TO.N,/U0TXD*%
X229135000Y-109855000D02*
X229135000Y-109130000D01*
X229340000Y-110060000D02*
X229135000Y-109855000D01*
%TO.N,/GPIO1*%
X221650000Y-130344974D02*
X221650000Y-131860000D01*
X221150000Y-127219264D02*
X221965000Y-128034264D01*
X221965000Y-130029974D02*
X221650000Y-130344974D01*
X221150000Y-114085028D02*
X221150000Y-127219264D01*
X221965000Y-128034264D02*
X221965000Y-130029974D01*
X223255028Y-111980000D02*
X221150000Y-114085028D01*
X225485000Y-111980000D02*
X223255028Y-111980000D01*
%TO.N,/MTDI*%
X229945000Y-108235000D02*
X229740000Y-108030000D01*
X229740000Y-108030000D02*
X229740000Y-106960000D01*
X229945000Y-109130000D02*
X229945000Y-108235000D01*
%TO.N,/GPIO36*%
X232935000Y-110365000D02*
X232370000Y-110365000D01*
X233215000Y-109485000D02*
X233215000Y-110085000D01*
X233215000Y-110085000D02*
X232935000Y-110365000D01*
%TO.N,/GPIO46*%
X229825000Y-99850000D02*
X228460000Y-99850000D01*
X227935000Y-108080000D02*
X227935000Y-109130000D01*
X227315000Y-107460000D02*
X227935000Y-108080000D01*
X227315000Y-106960000D02*
X227315000Y-107460000D01*
%TO.N,/SPICLK_N*%
X232385000Y-112380000D02*
X234270000Y-112380000D01*
X234270000Y-112380000D02*
X236340000Y-110310000D01*
X237015000Y-110310000D02*
X236340000Y-110310000D01*
%TO.N,/MTMS*%
X228940000Y-107685000D02*
X228940000Y-106960000D01*
X229540000Y-109120000D02*
X229540000Y-108285000D01*
X229540000Y-108285000D02*
X228940000Y-107685000D01*
%TO.N,/GPIO6*%
X222875000Y-125225000D02*
X222875000Y-115225000D01*
X225340000Y-130161738D02*
X225340000Y-127690000D01*
X224120000Y-113980000D02*
X225485000Y-113980000D01*
X225150000Y-131860000D02*
X225150000Y-130351738D01*
X222875000Y-115225000D02*
X224120000Y-113980000D01*
X225150000Y-130351738D02*
X225340000Y-130161738D01*
X225340000Y-127690000D02*
X222875000Y-125225000D01*
%TO.N,/GPIO38*%
X233625000Y-106950000D02*
X232750000Y-107825000D01*
X232350000Y-107825000D02*
X231540000Y-108635000D01*
X232750000Y-107825000D02*
X232350000Y-107825000D01*
X231540000Y-108635000D02*
X231540000Y-109135000D01*
%TO.N,/GPIO11*%
X224589000Y-123033264D02*
X229465000Y-127909264D01*
X229465000Y-130145000D02*
X229150000Y-130460000D01*
X224589000Y-118786000D02*
X224589000Y-123033264D01*
X229465000Y-127909264D02*
X229465000Y-130145000D01*
X229150000Y-130460000D02*
X229150000Y-131860000D01*
X226735000Y-116030000D02*
X226735000Y-116640000D01*
%TO.N,/GPIO45*%
X228335000Y-108030000D02*
X228335000Y-109130000D01*
X228140000Y-106960000D02*
X228140000Y-107835000D01*
X228140000Y-107835000D02*
X228335000Y-108030000D01*
%TO.N,Net-(J2-1)*%
X238150000Y-131838750D02*
X238150000Y-130188750D01*
X237650000Y-131850000D02*
X237650000Y-130200000D01*
X238150000Y-130188750D02*
X238050000Y-130088750D01*
X237650000Y-130200000D02*
X237750000Y-130100000D01*
X237900000Y-129411250D02*
X237900000Y-128750000D01*
X237750000Y-130100000D02*
X237750000Y-129572500D01*
X238050000Y-129561250D02*
X237900000Y-129411250D01*
X238050000Y-130088750D02*
X238050000Y-129561250D01*
X237750000Y-129572500D02*
X237900000Y-129422500D01*
%TO.N,Net-(U2-EN)*%
X239775000Y-104800000D02*
X239550000Y-105025000D01*
X239550000Y-105025000D02*
X239550000Y-106002500D01*
%TD*%
%TA.AperFunction,Conductor*%
%TO.N,+3V3*%
G36*
X238015677Y-122669685D02*
G01*
X238036319Y-122686319D01*
X238063681Y-122713681D01*
X238097166Y-122775004D01*
X238100000Y-122801362D01*
X238100000Y-127800000D01*
X238127819Y-127827819D01*
X238161304Y-127889142D01*
X238156320Y-127958834D01*
X238114448Y-128014767D01*
X238048984Y-128039184D01*
X238040138Y-128039500D01*
X237760643Y-128039500D01*
X237715182Y-128045485D01*
X237646147Y-128034717D01*
X237593893Y-127988336D01*
X237575000Y-127922545D01*
X237575000Y-127624999D01*
X236824600Y-127062199D01*
X236782779Y-127006228D01*
X236775000Y-126962999D01*
X236775000Y-122801362D01*
X236783644Y-122771921D01*
X236790168Y-122741935D01*
X236793922Y-122736919D01*
X236794685Y-122734323D01*
X236811319Y-122713681D01*
X236838681Y-122686319D01*
X236900004Y-122652834D01*
X236926362Y-122650000D01*
X237948638Y-122650000D01*
X238015677Y-122669685D01*
G37*
%TD.AperFunction*%
%TD*%
M02*
