%TF.GenerationSoftware,KiCad,Pcbnew,9.0.4*%
%TF.CreationDate,2025-08-29T16:06:17+02:00*%
%TF.ProjectId,LiBo_BaseBoard,4c69426f-5f42-4617-9365-426f6172642e,rev?*%
%TF.SameCoordinates,Original*%
%TF.FileFunction,Soldermask,Bot*%
%TF.FilePolarity,Negative*%
%FSLAX46Y46*%
G04 Gerber Fmt 4.6, Leading zero omitted, Abs format (unit mm)*
G04 Created by KiCad (PCBNEW 9.0.4) date 2025-08-29 16:06:17*
%MOMM*%
%LPD*%
G01*
G04 APERTURE LIST*
G04 Aperture macros list*
%AMRoundRect*
0 Rectangle with rounded corners*
0 $1 Rounding radius*
0 $2 $3 $4 $5 $6 $7 $8 $9 X,Y pos of 4 corners*
0 Add a 4 corners polygon primitive as box body*
4,1,4,$2,$3,$4,$5,$6,$7,$8,$9,$2,$3,0*
0 Add four circle primitives for the rounded corners*
1,1,$1+$1,$2,$3*
1,1,$1+$1,$4,$5*
1,1,$1+$1,$6,$7*
1,1,$1+$1,$8,$9*
0 Add four rect primitives between the rounded corners*
20,1,$1+$1,$2,$3,$4,$5,0*
20,1,$1+$1,$4,$5,$6,$7,0*
20,1,$1+$1,$6,$7,$8,$9,0*
20,1,$1+$1,$8,$9,$2,$3,0*%
G04 Aperture macros list end*
%ADD10C,2.000000*%
%ADD11R,1.400000X1.400000*%
%ADD12C,1.400000*%
%ADD13R,1.700000X1.700000*%
%ADD14O,1.700000X1.700000*%
%ADD15C,0.650000*%
%ADD16O,1.000000X2.100000*%
%ADD17O,1.000000X1.800000*%
%ADD18R,1.000000X1.000000*%
%ADD19O,1.000000X1.000000*%
%ADD20C,1.000000*%
%ADD21C,1.440000*%
%ADD22C,1.150000*%
%ADD23C,1.650000*%
%ADD24RoundRect,0.250000X-0.475000X0.337500X-0.475000X-0.337500X0.475000X-0.337500X0.475000X0.337500X0*%
%ADD25R,1.400000X0.300000*%
%ADD26RoundRect,0.250000X0.350000X0.450000X-0.350000X0.450000X-0.350000X-0.450000X0.350000X-0.450000X0*%
%ADD27RoundRect,0.150000X-0.512500X-0.150000X0.512500X-0.150000X0.512500X0.150000X-0.512500X0.150000X0*%
%ADD28RoundRect,0.250000X-0.450000X0.350000X-0.450000X-0.350000X0.450000X-0.350000X0.450000X0.350000X0*%
%ADD29RoundRect,0.250000X0.325000X0.450000X-0.325000X0.450000X-0.325000X-0.450000X0.325000X-0.450000X0*%
%ADD30RoundRect,0.250000X0.475000X-0.337500X0.475000X0.337500X-0.475000X0.337500X-0.475000X-0.337500X0*%
%ADD31RoundRect,0.250000X-0.350000X-0.450000X0.350000X-0.450000X0.350000X0.450000X-0.350000X0.450000X0*%
%ADD32RoundRect,0.250000X0.450000X-0.350000X0.450000X0.350000X-0.450000X0.350000X-0.450000X-0.350000X0*%
%ADD33R,1.400000X0.480000*%
%ADD34R,1.525000X0.560000*%
%ADD35R,2.725000X2.000000*%
%ADD36RoundRect,0.150000X-0.150000X0.512500X-0.150000X-0.512500X0.150000X-0.512500X0.150000X0.512500X0*%
G04 APERTURE END LIST*
D10*
%TO.C,J4*%
X226800000Y-85025000D03*
X226800000Y-95125000D03*
D11*
X221750000Y-87575000D03*
D12*
X221750000Y-90075000D03*
%TD*%
D13*
%TO.C,J10*%
X213075000Y-123900000D03*
D14*
X210535000Y-123900000D03*
X207995000Y-123900000D03*
X205455000Y-123900000D03*
X202915000Y-123900000D03*
X200375000Y-123900000D03*
X197835000Y-123900000D03*
X195295000Y-123900000D03*
X192755000Y-123900000D03*
X190215000Y-123900000D03*
X187675000Y-123900000D03*
X185135000Y-123900000D03*
X182595000Y-123900000D03*
X180055000Y-123900000D03*
X177515000Y-123900000D03*
X174975000Y-123900000D03*
X172435000Y-123900000D03*
X169895000Y-123900000D03*
%TD*%
D15*
%TO.C,J1*%
X200145000Y-36300000D03*
X194365000Y-36300000D03*
D16*
X201575000Y-36800000D03*
D17*
X201575000Y-32620000D03*
D16*
X192935000Y-36800000D03*
D17*
X192935000Y-32620000D03*
%TD*%
D18*
%TO.C,J7*%
X152105000Y-70685000D03*
D19*
X153375000Y-70685000D03*
X152105000Y-71955000D03*
X153375000Y-71955000D03*
X152105000Y-73225000D03*
X153375000Y-73225000D03*
X152105000Y-74495000D03*
X153375000Y-74495000D03*
X152105000Y-75765000D03*
X153375000Y-75765000D03*
X152105000Y-77035000D03*
X153375000Y-77035000D03*
X152105000Y-78305000D03*
X153375000Y-78305000D03*
%TD*%
D20*
%TO.C,J6*%
X151407500Y-41213750D03*
X151407500Y-49213750D03*
%TD*%
D13*
%TO.C,J5*%
X172800000Y-92625000D03*
D14*
X175340000Y-92625000D03*
X177880000Y-92625000D03*
X180420000Y-92625000D03*
X182960000Y-92625000D03*
X185500000Y-92625000D03*
X188040000Y-92625000D03*
X190580000Y-92625000D03*
X193120000Y-92625000D03*
X195660000Y-92625000D03*
X198200000Y-92625000D03*
X200740000Y-92625000D03*
X203280000Y-92625000D03*
X205820000Y-92625000D03*
X208360000Y-92625000D03*
X210900000Y-92625000D03*
%TD*%
D21*
%TO.C,RV1*%
X165350000Y-96225000D03*
X165350000Y-93685000D03*
X165350000Y-91145000D03*
%TD*%
D10*
%TO.C,J3*%
X226800000Y-104000000D03*
X226800000Y-114100000D03*
D11*
X221750000Y-106550000D03*
D12*
X221750000Y-109050000D03*
%TD*%
D13*
%TO.C,J8*%
X152200000Y-113515000D03*
D14*
X152200000Y-110975000D03*
X152200000Y-108435000D03*
X152200000Y-105895000D03*
X152200000Y-103355000D03*
X152200000Y-100815000D03*
X152200000Y-98275000D03*
X152200000Y-95735000D03*
X152200000Y-93195000D03*
X152200000Y-90655000D03*
%TD*%
D22*
%TO.C,J2*%
X209225000Y-60000000D03*
D23*
X209225000Y-80000000D03*
%TD*%
D24*
%TO.C,C10*%
X187650000Y-107137500D03*
X187650000Y-109212500D03*
%TD*%
D25*
%TO.C,IC2*%
X207452500Y-110005000D03*
X207452500Y-110505000D03*
X207452500Y-111005000D03*
X207452500Y-111505000D03*
X207452500Y-112005000D03*
X203052500Y-112005000D03*
X203052500Y-111505000D03*
X203052500Y-111005000D03*
X203052500Y-110505000D03*
X203052500Y-110005000D03*
%TD*%
D26*
%TO.C,R6*%
X185987500Y-48725000D03*
X183987500Y-48725000D03*
%TD*%
D27*
%TO.C,U2*%
X184137500Y-45700000D03*
X184137500Y-44750000D03*
X184137500Y-43800000D03*
X186412500Y-43800000D03*
X186412500Y-45700000D03*
%TD*%
D28*
%TO.C,R4*%
X191937500Y-43800000D03*
X191937500Y-45800000D03*
%TD*%
D24*
%TO.C,C11*%
X184900000Y-107137500D03*
X184900000Y-109212500D03*
%TD*%
D29*
%TO.C,L1*%
X185312500Y-39775000D03*
X183262500Y-39775000D03*
%TD*%
D30*
%TO.C,C2*%
X214150000Y-47500000D03*
X214150000Y-45425000D03*
%TD*%
D24*
%TO.C,C4*%
X189812500Y-43787500D03*
X189812500Y-45862500D03*
%TD*%
%TO.C,C1*%
X204725000Y-45425000D03*
X204725000Y-47500000D03*
%TD*%
D31*
%TO.C,R5*%
X183987500Y-51075000D03*
X185987500Y-51075000D03*
%TD*%
D32*
%TO.C,R16*%
X211125000Y-110600000D03*
X211125000Y-108600000D03*
%TD*%
D33*
%TO.C,IC1*%
X210613000Y-43587500D03*
D34*
X210550000Y-45087500D03*
D33*
X210613000Y-46587500D03*
D35*
X208425000Y-45087500D03*
%TD*%
D36*
%TO.C,U3*%
X180760000Y-106542500D03*
X181710000Y-106542500D03*
X182660000Y-106542500D03*
X182660000Y-108817500D03*
X181710000Y-108817500D03*
X180760000Y-108817500D03*
%TD*%
D20*
%TO.C,TP3*%
X191925000Y-49425000D03*
%TD*%
D30*
%TO.C,C12*%
X200025000Y-110537500D03*
X200025000Y-108462500D03*
%TD*%
D24*
%TO.C,C5*%
X177645000Y-46326250D03*
X177645000Y-48401250D03*
%TD*%
D30*
%TO.C,C13*%
X197375000Y-110537500D03*
X197375000Y-108462500D03*
%TD*%
M02*
