M48
; DRILL file {KiCad 9.0.4} date 2025-08-29T16:06:19+0200
; FORMAT={-:-/ absolute / inch / decimal}
; #@! TF.CreationDate,2025-08-29T16:06:19+02:00
; #@! TF.GenerationSoftware,Kicad,Pcbnew,9.0.4
; #@! TF.FileFunction,Plated,1,2,PTH
FMAT,2
INCH
; #@! TA.AperFunction,Plated,PTH,ViaDrill
T1C0.0118
; #@! TA.AperFunction,Plated,PTH,ComponentDrill
T2C0.0236
; #@! TA.AperFunction,Plated,PTH,ComponentDrill
T3C0.0256
; #@! TA.AperFunction,Plated,PTH,ComponentDrill
T4C0.0315
; #@! TA.AperFunction,Plated,PTH,ComponentDrill
T5C0.0354
; #@! TA.AperFunction,Plated,PTH,ComponentDrill
T6C0.0394
; #@! TA.AperFunction,Plated,PTH,ViaDrill
T7C0.0787
%
G90
G05
T1
X5.9559Y-1.7551
X5.9559Y-1.8551
X5.9559Y-2.0551
X5.9559Y-2.3551
X5.9559Y-2.4551
X5.9559Y-3.3551
X5.9559Y-3.4551
X5.9559Y-4.6551
X5.9559Y-4.7551
X5.9764Y-2.1683
X5.9774Y-1.4685
X6.0559Y-1.4551
X6.0559Y-1.5551
X6.0559Y-1.6551
X6.0559Y-1.7551
X6.0559Y-1.8551
X6.0559Y-1.9551
X6.0559Y-2.0551
X6.0559Y-2.1551
X6.0559Y-3.2551
X6.0984Y-2.4203
X6.1378Y-2.9803
X6.1388Y-2.873
X6.1465Y-2.7835
X6.1467Y-2.6841
X6.1545Y-3.0541
X6.1559Y-1.2551
X6.1559Y-1.3551
X6.1559Y-1.4551
X6.1559Y-1.5551
X6.1559Y-1.6551
X6.1559Y-1.7551
X6.1559Y-1.9551
X6.1559Y-2.0551
X6.1559Y-2.1551
X6.1559Y-3.1551
X6.1559Y-4.6551
X6.1559Y-4.8551
X6.1959Y-3.0128
X6.2441Y-2.4203
X6.2465Y-2.7835
X6.2467Y-2.6841
X6.2559Y-1.2551
X6.2559Y-1.3551
X6.2559Y-1.4551
X6.2559Y-1.5551
X6.2559Y-1.9551
X6.2559Y-2.0551
X6.2559Y-2.1551
X6.2559Y-2.2551
X6.2559Y-2.3551
X6.2559Y-4.6551
X6.2559Y-4.7551
X6.2785Y-2.9724
X6.3179Y-2.8346
X6.3465Y-2.7835
X6.3467Y-2.6841
X6.3484Y-2.8543
X6.3514Y-2.5797
X6.3546Y-2.1434
X6.3553Y-1.4685
X6.3559Y-1.2551
X6.3559Y-1.3551
X6.3559Y-2.2551
X6.3559Y-2.3551
X6.3559Y-2.4551
X6.3559Y-3.3551
X6.3559Y-4.6551
X6.3559Y-4.7551
X6.3559Y-4.8551
X6.373Y-2.8937
X6.4035Y-2.9134
X6.4222Y-2.6073
X6.437Y-2.9528
X6.4537Y-1.689
X6.4559Y-1.2551
X6.4559Y-1.3551
X6.4559Y-1.4551
X6.4559Y-1.5551
X6.4559Y-1.9551
X6.4559Y-2.1551
X6.4559Y-2.2551
X6.4559Y-2.3551
X6.4559Y-2.5551
X6.4559Y-3.2551
X6.4559Y-4.0551
X6.4559Y-4.1551
X6.4559Y-4.2551
X6.4559Y-4.3551
X6.4559Y-4.4551
X6.4559Y-4.5551
X6.4559Y-4.6551
X6.4559Y-4.7551
X6.4559Y-4.8551
X6.4675Y-2.9724
X6.4705Y-1.7766
X6.4921Y-3.0118
X6.5167Y-1.9892
X6.5226Y-3.0315
X6.5443Y-4.0069
X6.5443Y-4.0699
X6.5559Y-1.2551
X6.5559Y-1.3551
X6.5559Y-1.4551
X6.5559Y-1.5551
X6.5559Y-1.6551
X6.5559Y-2.1551
X6.5559Y-2.2551
X6.5559Y-2.4551
X6.5559Y-2.5551
X6.5559Y-2.6551
X6.5559Y-3.8551
X6.5559Y-4.1551
X6.5559Y-4.2551
X6.5559Y-4.3551
X6.5559Y-4.4551
X6.5559Y-4.5551
X6.5559Y-4.7551
X6.5559Y-4.8551
X6.5827Y-3.7372
X6.6319Y-3.7392
X6.6516Y-3.7736
X6.6526Y-3.7028
X6.6559Y-1.2551
X6.6559Y-1.3551
X6.6559Y-2.1551
X6.6559Y-2.3551
X6.6559Y-2.4551
X6.6559Y-2.5551
X6.6559Y-3.1551
X6.6559Y-3.2551
X6.6559Y-3.3551
X6.6559Y-3.4551
X6.6617Y-1.6374
X6.7139Y-1.973
X6.7395Y-1.6374
X6.7559Y-1.2551
X6.7559Y-1.3551
X6.7559Y-2.2551
X6.7559Y-2.3551
X6.7559Y-2.4551
X6.7559Y-3.2551
X6.7559Y-3.3551
X6.7906Y-1.973
X6.8281Y-1.6255
X6.8559Y-1.2551
X6.8559Y-1.3551
X6.8559Y-1.7551
X6.8559Y-2.1551
X6.8559Y-2.2551
X6.8559Y-2.3551
X6.8559Y-2.4551
X6.8559Y-3.2551
X6.8559Y-3.3551
X6.8559Y-3.9551
X6.8559Y-4.2551
X6.8559Y-4.3551
X6.8789Y-1.9803
X6.8898Y-4.2008
X6.8907Y-4.0079
X6.9559Y-1.2551
X6.9559Y-1.3551
X6.9559Y-2.1551
X6.9559Y-2.2551
X6.9559Y-2.3551
X6.9559Y-2.4551
X6.9559Y-2.5551
X6.9559Y-2.6551
X6.9559Y-3.2551
X6.9559Y-3.3551
X6.9559Y-3.8551
X6.9559Y-3.9551
X6.9559Y-4.3551
X6.9559Y-4.4551
X7.0059Y-2.0541
X7.0551Y-1.5906
X7.0559Y-1.2551
X7.0559Y-1.3551
X7.0559Y-2.3551
X7.0559Y-2.4551
X7.0559Y-2.5551
X7.0559Y-2.6551
X7.0559Y-3.2551
X7.0559Y-3.3551
X7.0559Y-3.7551
X7.0559Y-3.8551
X7.0559Y-3.9551
X7.0748Y-4.2844
X7.0955Y-2.2283
X7.0955Y-2.3012
X7.1181Y-2.2047
X7.1181Y-2.2785
X7.1417Y-2.2283
X7.1417Y-2.3219
X7.1557Y-2.6545
X7.1559Y-1.2551
X7.1559Y-1.3551
X7.1559Y-2.4551
X7.1559Y-2.5551
X7.1559Y-3.2551
X7.1559Y-3.3551
X7.1559Y-3.7551
X7.1559Y-3.8551
X7.1559Y-3.9551
X7.1703Y-4.1358
X7.1913Y-4.3337
X7.1978Y-1.7618
X7.25Y-1.8307
X7.2557Y-2.6545
X7.2559Y-1.2551
X7.2559Y-2.3551
X7.2559Y-2.4551
X7.2559Y-2.5551
X7.2559Y-3.1551
X7.2559Y-3.2551
X7.2559Y-3.3551
X7.2559Y-3.7551
X7.2559Y-3.8551
X7.2559Y-3.9551
X7.3557Y-2.6545
X7.3559Y-1.2551
X7.3559Y-1.5551
X7.3559Y-1.6551
X7.3559Y-2.3551
X7.3559Y-2.4551
X7.3559Y-2.5551
X7.3559Y-3.1551
X7.3559Y-3.2551
X7.3559Y-3.7551
X7.3559Y-3.8551
X7.3559Y-3.9551
X7.4134Y-2.0807
X7.4213Y-3.3415
X7.4557Y-2.6545
X7.4559Y-2.3551
X7.4559Y-2.4551
X7.4559Y-2.5551
X7.4559Y-3.1551
X7.4559Y-3.7551
X7.4559Y-3.8551
X7.4559Y-3.9551
X7.4616Y-3.2982
X7.4734Y-3.3415
X7.5157Y-3.2982
X7.5408Y-4.2702
X7.5559Y-2.3551
X7.5559Y-2.4551
X7.5559Y-2.5551
X7.5559Y-2.6551
X7.5559Y-3.1551
X7.5559Y-3.7551
X7.5559Y-3.8551
X7.5559Y-3.9551
X7.5559Y-4.1551
X7.5566Y-1.8455
X7.6191Y-1.5246
X7.6559Y-1.2551
X7.6559Y-2.3551
X7.6559Y-2.4551
X7.6559Y-2.5551
X7.6559Y-2.6551
X7.6559Y-3.1551
X7.6559Y-3.3551
X7.6559Y-3.7551
X7.6559Y-3.8551
X7.6559Y-3.9551
X7.6559Y-4.1551
X7.6559Y-4.2551
X7.6559Y-4.4551
X7.6561Y-3.2972
X7.6713Y-1.5295
X7.7559Y-1.2551
X7.7559Y-2.0551
X7.7559Y-2.3551
X7.7559Y-2.4551
X7.7559Y-2.5551
X7.7559Y-2.6551
X7.7559Y-3.1551
X7.7559Y-3.3551
X7.7559Y-3.7551
X7.7559Y-3.8551
X7.7559Y-4.1551
X7.7561Y-3.2972
X7.7579Y-1.5531
X7.7584Y-1.7402
X7.8484Y-4.1348
X7.8559Y-1.2551
X7.8559Y-2.3551
X7.8559Y-2.4551
X7.8559Y-2.5551
X7.8559Y-2.6551
X7.8559Y-3.1551
X7.8559Y-3.3551
X7.8559Y-3.7551
X7.8559Y-3.8551
X7.8561Y-3.2972
X7.8602Y-1.5266
X7.8912Y-4.1353
X7.9065Y-1.5276
X7.9559Y-1.5551
X7.9559Y-2.4551
X7.9559Y-2.5551
X7.9559Y-2.6551
X7.9559Y-3.1551
X7.9559Y-3.3551
X7.9559Y-3.7551
X7.9559Y-3.8551
X7.9561Y-3.2972
X7.9764Y-2.0492
X8.0453Y-4.4852
X8.0516Y-4.1486
X8.0559Y-1.2551
X8.0559Y-1.6551
X8.0559Y-2.0551
X8.0559Y-3.3551
X8.0559Y-3.7551
X8.0559Y-3.8551
X8.0561Y-3.2972
X8.0664Y-2.4119
X8.0915Y-3.1102
X8.0935Y-2.5787
X8.0935Y-2.6368
X8.0945Y-2.6969
X8.0945Y-2.7461
X8.1043Y-4.314
X8.1043Y-4.3514
X8.1309Y-4.4852
X8.1467Y-3.2756
X8.1516Y-4.1486
X8.1559Y-1.2551
X8.1559Y-1.4551
X8.1559Y-1.6551
X8.1559Y-1.8551
X8.1559Y-2.0551
X8.1559Y-2.3551
X8.1559Y-3.1551
X8.1559Y-3.7551
X8.1559Y-3.8551
X8.1693Y-3.4646
X8.2018Y-2.4409
X8.2018Y-4.0778
X8.2018Y-4.1447
X8.2037Y-2.815
X8.2037Y-2.874
X8.2037Y-2.9331
X8.2037Y-2.9921
X8.2037Y-3.0512
X8.2037Y-3.4656
X8.2313Y-4.0325
X8.2313Y-4.126
X8.25Y-2.6181
X8.251Y-2.7362
X8.2559Y-1.2551
X8.2559Y-2.0551
X8.2559Y-2.9551
X8.2559Y-3.0551
X8.3435Y-4.4096
X8.3559Y-1.2551
X8.3559Y-1.6551
X8.3559Y-1.7551
X8.3559Y-2.0551
X8.3559Y-2.2551
X8.3559Y-3.8551
X8.3559Y-4.1551
X8.3637Y-2.6373
X8.3642Y-2.6693
X8.3642Y-2.7018
X8.3642Y-2.7352
X8.378Y-2.7697
X8.3868Y-2.5984
X8.3888Y-2.8248
X8.3888Y-2.8839
X8.3888Y-2.9429
X8.3888Y-3.002
X8.3888Y-3.0364
X8.3898Y-3.0699
X8.3898Y-3.1191
X8.4559Y-1.2551
X8.4559Y-1.6551
X8.4559Y-3.3551
X8.4559Y-4.4551
X8.4646Y-2.0502
X8.4715Y-4.0423
X8.501Y-2.6585
X8.501Y-2.7067
X8.501Y-2.747
X8.5098Y-2.4409
X8.5098Y-2.4803
X8.5128Y-3.0807
X8.5128Y-3.1132
X8.5541Y-2.6722
X8.5541Y-2.7215
X8.5559Y-1.2551
X8.5559Y-1.6551
X8.5559Y-1.7551
X8.5559Y-2.0551
X8.5559Y-2.2551
X8.5559Y-3.6551
X8.5559Y-3.7551
X8.5559Y-3.8551
X8.5559Y-4.0551
X8.5559Y-4.3551
X8.5559Y-4.4551
X8.5559Y-4.5551
X8.5559Y-4.6551
X8.5559Y-4.7551
X8.5559Y-4.8551
X8.5945Y-2.6722
X8.5945Y-2.7215
X8.6559Y-1.2551
X8.6559Y-1.6551
X8.6559Y-1.7551
X8.6559Y-1.8551
X8.6559Y-2.0551
X8.6559Y-3.5551
X8.6559Y-3.6551
X8.6559Y-3.7551
X8.6559Y-4.0551
X8.6559Y-4.1551
X8.6559Y-4.3551
X8.6559Y-4.4551
X8.6559Y-4.5551
X8.6559Y-4.7551
X8.6559Y-4.8551
X8.7559Y-1.2551
X8.7559Y-1.6551
X8.7559Y-1.7551
X8.7559Y-1.8551
X8.7559Y-1.9551
X8.7559Y-4.0551
X8.7559Y-4.4551
X8.7559Y-4.5551
X8.7559Y-4.7551
X8.7559Y-4.8551
X8.7736Y-3.0364
X8.7844Y-3.1132
X8.7992Y-3.0807
X8.8559Y-1.2551
X8.8559Y-1.6551
X8.8559Y-1.7551
X8.8559Y-1.8551
X8.8559Y-2.0551
X8.8559Y-2.1551
X8.8559Y-2.2551
X8.8559Y-2.3551
X8.8559Y-2.4551
X8.8559Y-2.5551
X8.8559Y-2.6551
X8.8559Y-3.3551
X8.8559Y-3.4551
X8.8559Y-3.5551
X8.8559Y-3.6551
X8.8559Y-3.7551
X8.8559Y-4.4551
X8.8559Y-4.5551
X8.8559Y-4.7551
X8.8559Y-4.8551
X8.9559Y-1.2551
X8.9559Y-1.6551
X8.9559Y-1.7551
X8.9559Y-2.2551
X8.9559Y-2.3551
X8.9559Y-2.5551
X8.9559Y-2.7551
X8.9559Y-2.8551
X8.9559Y-2.9551
X8.9559Y-3.1551
X8.9559Y-3.2551
X8.9559Y-3.4551
X8.9559Y-3.5551
X8.9559Y-3.6551
X8.9559Y-4.2551
X8.9559Y-4.3551
X8.9559Y-4.7551
X8.9559Y-4.8551
X9.0559Y-1.2551
X9.0559Y-1.7551
X9.0559Y-2.2551
X9.0559Y-2.3551
X9.0559Y-2.7551
X9.0559Y-3.1551
X9.0559Y-3.2551
X9.0559Y-3.3551
X9.0559Y-3.4551
X9.0559Y-3.5551
X9.0559Y-3.6551
X9.0559Y-3.7551
X9.0559Y-4.0551
X9.0559Y-4.1551
X9.0559Y-4.2551
X9.0559Y-4.3551
X9.0559Y-4.4551
X9.0559Y-4.5551
X9.0559Y-4.7551
X9.1559Y-1.2551
X9.1559Y-2.2551
X9.1559Y-2.3551
X9.1559Y-2.7551
X9.1559Y-3.1551
X9.1559Y-3.2551
X9.1559Y-3.3551
X9.1559Y-3.4551
X9.1559Y-3.5551
X9.1559Y-3.6551
X9.1559Y-3.7551
X9.1559Y-4.0551
X9.1559Y-4.1551
X9.1559Y-4.2551
X9.1559Y-4.3551
X9.1559Y-4.4551
X9.1559Y-4.5551
X9.1612Y-1.9254
X9.1969Y-2.1102
X9.25Y-2.564
X9.253Y-2.9537
X9.2559Y-1.2551
X9.2559Y-1.6551
X9.2559Y-1.9551
X9.2559Y-2.1551
X9.2559Y-2.2551
X9.2559Y-2.3551
X9.2559Y-2.7551
X9.2559Y-3.1551
X9.2559Y-3.2551
X9.2559Y-3.3551
X9.2559Y-3.4551
X9.2559Y-3.5551
X9.2559Y-3.6551
X9.2559Y-3.7551
X9.2559Y-4.0551
X9.2559Y-4.1551
X9.2559Y-4.2551
X9.2559Y-4.3551
X9.2559Y-4.4551
X9.2559Y-4.5551
X9.2559Y-4.8551
X9.3559Y-1.4551
X9.3559Y-1.5551
X9.3559Y-1.6551
X9.3559Y-1.7551
X9.3559Y-2.1551
X9.3559Y-2.2551
X9.3559Y-2.3551
X9.3559Y-3.1551
X9.3559Y-3.2551
X9.3559Y-3.3551
X9.3559Y-3.4551
X9.3559Y-3.5551
X9.3559Y-3.6551
X9.3559Y-3.7551
X9.3559Y-4.0551
X9.3559Y-4.1551
X9.3559Y-4.2551
X9.3559Y-4.3551
X9.3559Y-4.4551
X9.3559Y-4.7551
X9.3602Y-2.563
X9.3612Y-2.9537
X9.4559Y-1.4551
X9.4559Y-1.5551
X9.4559Y-1.6551
X9.4559Y-1.7551
X9.4559Y-1.8551
X9.4559Y-4.6551
X9.4559Y-4.7551
T3
X5.9884Y-2.7829
X5.9884Y-2.8329
X5.9884Y-2.8829
X5.9884Y-2.9329
X5.9884Y-2.9829
X5.9884Y-3.0329
X5.9884Y-3.0829
X6.0384Y-2.7829
X6.0384Y-2.8329
X6.0384Y-2.8829
X6.0384Y-2.9329
X6.0384Y-2.9829
X6.0384Y-3.0329
X6.0384Y-3.0829
T4
X6.5098Y-3.5884
X6.5098Y-3.6884
X6.5098Y-3.7884
T5
X8.7303Y-3.4478
X8.7303Y-3.5463
X8.7303Y-4.1949
X8.7303Y-4.2933
T6
X5.9921Y-3.5691
X5.9921Y-3.6691
X5.9921Y-3.7691
X5.9921Y-3.8691
X5.9921Y-3.9691
X5.9921Y-4.0691
X5.9921Y-4.1691
X5.9921Y-4.2691
X5.9921Y-4.3691
X5.9921Y-4.4691
X6.6888Y-4.878
X6.7888Y-4.878
X6.8031Y-3.6467
X6.8888Y-4.878
X6.9031Y-3.6467
X6.9888Y-4.878
X7.0031Y-3.6467
X7.0888Y-4.878
X7.1031Y-3.6467
X7.1888Y-4.878
X7.2031Y-3.6467
X7.2888Y-4.878
X7.3031Y-3.6467
X7.3888Y-4.878
X7.4031Y-3.6467
X7.4888Y-4.878
X7.5031Y-3.6467
X7.5888Y-4.878
X7.6031Y-3.6467
X7.6888Y-4.878
X7.7031Y-3.6467
X7.7888Y-4.878
X7.8031Y-3.6467
X7.8888Y-4.878
X7.9031Y-3.6467
X7.9888Y-4.878
X8.0031Y-3.6467
X8.0888Y-4.878
X8.1031Y-3.6467
X8.1888Y-4.878
X8.2031Y-3.6467
X8.2888Y-4.878
X8.3031Y-3.6467
X8.3888Y-4.878
T7
X6.0089Y-1.3012
X6.0089Y-4.8671
X9.3878Y-1.3012
X9.3878Y-4.8671
T2
G00X7.5959Y-1.3
M15
G01X7.5959Y-1.2685
M16
G05
G00X7.5959Y-1.4705
M15
G01X7.5959Y-1.4272
M16
G05
G00X7.936Y-1.3
M15
G01X7.936Y-1.2685
M16
G05
G00X7.936Y-1.4705
M15
G01X7.936Y-1.4272
M16
G05
M30
