%TF.GenerationSoftware,KiCad,Pcbnew,9.0.4*%
%TF.CreationDate,2025-08-29T16:06:17+02:00*%
%TF.ProjectId,LiBo_BaseBoard,4c69426f-5f42-4617-9365-426f6172642e,rev?*%
%TF.SameCoordinates,Original*%
%TF.FileFunction,Soldermask,Top*%
%TF.FilePolarity,Negative*%
%FSLAX46Y46*%
G04 Gerber Fmt 4.6, Leading zero omitted, Abs format (unit mm)*
G04 Created by KiCad (PCBNEW 9.0.4) date 2025-08-29 16:06:17*
%MOMM*%
%LPD*%
G01*
G04 APERTURE LIST*
G04 Aperture macros list*
%AMRoundRect*
0 Rectangle with rounded corners*
0 $1 Rounding radius*
0 $2 $3 $4 $5 $6 $7 $8 $9 X,Y pos of 4 corners*
0 Add a 4 corners polygon primitive as box body*
4,1,4,$2,$3,$4,$5,$6,$7,$8,$9,$2,$3,0*
0 Add four circle primitives for the rounded corners*
1,1,$1+$1,$2,$3*
1,1,$1+$1,$4,$5*
1,1,$1+$1,$6,$7*
1,1,$1+$1,$8,$9*
0 Add four rect primitives between the rounded corners*
20,1,$1+$1,$2,$3,$4,$5,0*
20,1,$1+$1,$4,$5,$6,$7,0*
20,1,$1+$1,$6,$7,$8,$9,0*
20,1,$1+$1,$8,$9,$2,$3,0*%
G04 Aperture macros list end*
%ADD10C,2.000000*%
%ADD11R,1.400000X1.400000*%
%ADD12C,1.400000*%
%ADD13RoundRect,0.250000X-0.350000X-0.450000X0.350000X-0.450000X0.350000X0.450000X-0.350000X0.450000X0*%
%ADD14RoundRect,0.250000X-0.337500X-0.475000X0.337500X-0.475000X0.337500X0.475000X-0.337500X0.475000X0*%
%ADD15R,1.700000X1.700000*%
%ADD16O,1.700000X1.700000*%
%ADD17RoundRect,0.250000X-0.325000X-0.450000X0.325000X-0.450000X0.325000X0.450000X-0.325000X0.450000X0*%
%ADD18RoundRect,0.250000X-0.450000X0.350000X-0.450000X-0.350000X0.450000X-0.350000X0.450000X0.350000X0*%
%ADD19RoundRect,0.250000X0.350000X0.450000X-0.350000X0.450000X-0.350000X-0.450000X0.350000X-0.450000X0*%
%ADD20RoundRect,0.250000X0.475000X-0.337500X0.475000X0.337500X-0.475000X0.337500X-0.475000X-0.337500X0*%
%ADD21C,1.000000*%
%ADD22RoundRect,0.250000X0.450000X-0.350000X0.450000X0.350000X-0.450000X0.350000X-0.450000X-0.350000X0*%
%ADD23R,1.340000X0.700000*%
%ADD24RoundRect,0.150000X-0.150000X0.512500X-0.150000X-0.512500X0.150000X-0.512500X0.150000X0.512500X0*%
%ADD25C,0.650000*%
%ADD26RoundRect,0.150000X0.150000X0.425000X-0.150000X0.425000X-0.150000X-0.425000X0.150000X-0.425000X0*%
%ADD27RoundRect,0.075000X0.075000X0.500000X-0.075000X0.500000X-0.075000X-0.500000X0.075000X-0.500000X0*%
%ADD28O,1.000000X2.100000*%
%ADD29O,1.000000X1.800000*%
%ADD30R,0.350000X1.600000*%
%ADD31R,1.000000X1.000000*%
%ADD32O,1.000000X1.000000*%
%ADD33R,1.600000X0.700000*%
%ADD34R,1.500000X1.600000*%
%ADD35R,1.500000X1.200000*%
%ADD36R,2.200000X1.200000*%
%ADD37R,1.450000X1.000000*%
%ADD38RoundRect,0.250000X0.337500X0.475000X-0.337500X0.475000X-0.337500X-0.475000X0.337500X-0.475000X0*%
%ADD39C,1.440000*%
%ADD40C,1.150000*%
%ADD41C,1.650000*%
%ADD42R,1.550000X0.300000*%
%ADD43R,2.750000X1.200000*%
G04 APERTURE END LIST*
D10*
%TO.C,J4*%
X226800000Y-85025000D03*
X226800000Y-95125000D03*
D11*
X221750000Y-87575000D03*
D12*
X221750000Y-90075000D03*
%TD*%
D13*
%TO.C,R18*%
X213175000Y-107100000D03*
X215175000Y-107100000D03*
%TD*%
D14*
%TO.C,C8*%
X174720000Y-52188750D03*
X176795000Y-52188750D03*
%TD*%
D15*
%TO.C,J10*%
X213075000Y-123900000D03*
D16*
X210535000Y-123900000D03*
X207995000Y-123900000D03*
X205455000Y-123900000D03*
X202915000Y-123900000D03*
X200375000Y-123900000D03*
X197835000Y-123900000D03*
X195295000Y-123900000D03*
X192755000Y-123900000D03*
X190215000Y-123900000D03*
X187675000Y-123900000D03*
X185135000Y-123900000D03*
X182595000Y-123900000D03*
X180055000Y-123900000D03*
X177515000Y-123900000D03*
X174975000Y-123900000D03*
X172435000Y-123900000D03*
X169895000Y-123900000D03*
%TD*%
D13*
%TO.C,R20*%
X188300000Y-50000000D03*
X190300000Y-50000000D03*
%TD*%
D17*
%TO.C,D1*%
X214975000Y-48075000D03*
X217025000Y-48075000D03*
%TD*%
D18*
%TO.C,R3*%
X203825000Y-35600000D03*
X203825000Y-37600000D03*
%TD*%
D19*
%TO.C,R12*%
X177882500Y-46213750D03*
X175882500Y-46213750D03*
%TD*%
D20*
%TO.C,C3*%
X231735000Y-76937500D03*
X231735000Y-74862500D03*
%TD*%
D21*
%TO.C,TP2*%
X193525000Y-41925000D03*
%TD*%
D13*
%TO.C,R21*%
X200775000Y-50100000D03*
X202775000Y-50100000D03*
%TD*%
D14*
%TO.C,C7*%
X230287500Y-53600000D03*
X232362500Y-53600000D03*
%TD*%
D22*
%TO.C,R14*%
X153200000Y-63462353D03*
X153200000Y-61462353D03*
%TD*%
D23*
%TO.C,LED1*%
X232695000Y-50970000D03*
X232695000Y-49870000D03*
X230225000Y-49870000D03*
X230225000Y-50970000D03*
%TD*%
D21*
%TO.C,TP6*%
X214125000Y-109825000D03*
%TD*%
D24*
%TO.C,U1*%
X198000000Y-40687500D03*
X197050000Y-40687500D03*
X196100000Y-40687500D03*
X196100000Y-42962500D03*
X197050000Y-42962500D03*
X198000000Y-42962500D03*
%TD*%
D17*
%TO.C,D3*%
X200752527Y-47975000D03*
X202802527Y-47975000D03*
%TD*%
D13*
%TO.C,R19*%
X215000000Y-50150000D03*
X217000000Y-50150000D03*
%TD*%
%TO.C,R17*%
X213175000Y-104025000D03*
X215175000Y-104025000D03*
%TD*%
D25*
%TO.C,J1*%
X200145000Y-36300000D03*
X194365000Y-36300000D03*
D26*
X200455000Y-37375000D03*
X199655000Y-37375000D03*
D27*
X198505000Y-37375000D03*
X197505000Y-37375000D03*
X197005000Y-37375000D03*
X196005000Y-37375000D03*
D26*
X194855000Y-37375000D03*
X194055000Y-37375000D03*
X194055000Y-37375000D03*
X194855000Y-37375000D03*
D27*
X195505000Y-37375000D03*
X196505000Y-37375000D03*
X198005000Y-37375000D03*
X199005000Y-37375000D03*
D26*
X199655000Y-37375000D03*
X200455000Y-37375000D03*
D28*
X201575000Y-36800000D03*
D29*
X201575000Y-32620000D03*
D28*
X192935000Y-36800000D03*
D29*
X192935000Y-32620000D03*
%TD*%
D30*
%TO.C,IC4*%
X173125000Y-43093750D03*
X172475000Y-43093750D03*
X171825000Y-43093750D03*
X171175000Y-43093750D03*
X170525000Y-43093750D03*
X169875000Y-43093750D03*
X169225000Y-43093750D03*
X169225000Y-48693750D03*
X169875000Y-48693750D03*
X170525000Y-48693750D03*
X171175000Y-48693750D03*
X171825000Y-48693750D03*
X172475000Y-48693750D03*
X173125000Y-48693750D03*
%TD*%
D17*
%TO.C,D2*%
X188325000Y-47950000D03*
X190375000Y-47950000D03*
%TD*%
D31*
%TO.C,J7*%
X152105000Y-70685000D03*
D32*
X153375000Y-70685000D03*
X152105000Y-71955000D03*
X153375000Y-71955000D03*
X152105000Y-73225000D03*
X153375000Y-73225000D03*
X152105000Y-74495000D03*
X153375000Y-74495000D03*
X152105000Y-75765000D03*
X153375000Y-75765000D03*
X152105000Y-77035000D03*
X153375000Y-77035000D03*
X152105000Y-78305000D03*
X153375000Y-78305000D03*
%TD*%
D13*
%TO.C,R11*%
X166782500Y-52138750D03*
X168782500Y-52138750D03*
%TD*%
D18*
%TO.C,R1*%
X229585000Y-74925000D03*
X229585000Y-76925000D03*
%TD*%
D21*
%TO.C,J6*%
X151407500Y-41213750D03*
X151407500Y-49213750D03*
D33*
X162407500Y-48413750D03*
X162407500Y-47313750D03*
X162407500Y-46213750D03*
X162407500Y-45113750D03*
X162407500Y-44013750D03*
X162407500Y-42913750D03*
X162407500Y-41813750D03*
X162407500Y-40713750D03*
X162407500Y-39613750D03*
D34*
X161407500Y-53013750D03*
D35*
X161407500Y-38413750D03*
D36*
X151807500Y-38413750D03*
X151807500Y-53913750D03*
%TD*%
D22*
%TO.C,R13*%
X156550000Y-63475000D03*
X156550000Y-61475000D03*
%TD*%
D21*
%TO.C,TP4*%
X166450000Y-48950000D03*
%TD*%
D37*
%TO.C,BOOT1*%
X233825000Y-65125000D03*
X238975000Y-65125000D03*
X233825000Y-66825000D03*
X238975000Y-66825000D03*
%TD*%
%TO.C,RST1*%
X233825000Y-75025000D03*
X238975000Y-75025000D03*
X233825000Y-76725000D03*
X238975000Y-76725000D03*
%TD*%
D38*
%TO.C,C9*%
X174812500Y-95950000D03*
X172737500Y-95950000D03*
%TD*%
D19*
%TO.C,R15*%
X215175000Y-100325000D03*
X213175000Y-100325000D03*
%TD*%
D18*
%TO.C,R9*%
X173007500Y-37538750D03*
X173007500Y-39538750D03*
%TD*%
D20*
%TO.C,C6*%
X231675000Y-67037500D03*
X231675000Y-64962500D03*
%TD*%
D21*
%TO.C,TP1*%
X200525000Y-41900000D03*
%TD*%
D15*
%TO.C,J5*%
X172800000Y-92625000D03*
D16*
X175340000Y-92625000D03*
X177880000Y-92625000D03*
X180420000Y-92625000D03*
X182960000Y-92625000D03*
X185500000Y-92625000D03*
X188040000Y-92625000D03*
X190580000Y-92625000D03*
X193120000Y-92625000D03*
X195660000Y-92625000D03*
X198200000Y-92625000D03*
X200740000Y-92625000D03*
X203280000Y-92625000D03*
X205820000Y-92625000D03*
X208360000Y-92625000D03*
X210900000Y-92625000D03*
%TD*%
D39*
%TO.C,RV1*%
X165350000Y-96225000D03*
X165350000Y-93685000D03*
X165350000Y-91145000D03*
%TD*%
D18*
%TO.C,R10*%
X169932500Y-37538750D03*
X169932500Y-39538750D03*
%TD*%
D13*
%TO.C,R8*%
X206925000Y-84425000D03*
X208925000Y-84425000D03*
%TD*%
D10*
%TO.C,J3*%
X226800000Y-104000000D03*
X226800000Y-114100000D03*
D11*
X221750000Y-106550000D03*
D12*
X221750000Y-109050000D03*
%TD*%
D15*
%TO.C,J8*%
X152200000Y-113515000D03*
D16*
X152200000Y-110975000D03*
X152200000Y-108435000D03*
X152200000Y-105895000D03*
X152200000Y-103355000D03*
X152200000Y-100815000D03*
X152200000Y-98275000D03*
X152200000Y-95735000D03*
X152200000Y-93195000D03*
X152200000Y-90655000D03*
%TD*%
D21*
%TO.C,TP5*%
X214175000Y-97700000D03*
%TD*%
D18*
%TO.C,R7*%
X229550000Y-65025000D03*
X229550000Y-67025000D03*
%TD*%
%TO.C,R2*%
X190650000Y-35625000D03*
X190650000Y-37625000D03*
%TD*%
D40*
%TO.C,J2*%
X209225000Y-60000000D03*
D41*
X209225000Y-80000000D03*
D42*
X214500000Y-60750000D03*
X206950000Y-61000000D03*
X214500000Y-61250000D03*
X206950000Y-61500000D03*
X214500000Y-61750000D03*
X206950000Y-62000000D03*
X214500000Y-62250000D03*
X206950000Y-62500000D03*
X214500000Y-62750000D03*
X206950000Y-63000000D03*
X214500000Y-63250000D03*
X206950000Y-65500000D03*
X214500000Y-65750000D03*
X206950000Y-66000000D03*
X214500000Y-66250000D03*
X206950000Y-66500000D03*
X214500000Y-66750000D03*
X206950000Y-67000000D03*
X214500000Y-67250000D03*
X206950000Y-67500000D03*
X214500000Y-67750000D03*
X206950000Y-68000000D03*
X214500000Y-68250000D03*
X206950000Y-68500000D03*
X214500000Y-68750000D03*
X206950000Y-69000000D03*
X214500000Y-69250000D03*
X206950000Y-69500000D03*
X214500000Y-69750000D03*
X206950000Y-70000000D03*
X214500000Y-70250000D03*
X206950000Y-70500000D03*
X214500000Y-70750000D03*
X206950000Y-71000000D03*
X214500000Y-71250000D03*
X206950000Y-71500000D03*
X214500000Y-71750000D03*
X206950000Y-72000000D03*
X214500000Y-72250000D03*
X206950000Y-72500000D03*
X214500000Y-72750000D03*
X206950000Y-73000000D03*
X214500000Y-73250000D03*
X206950000Y-73500000D03*
X214500000Y-73750000D03*
X206950000Y-74000000D03*
X214500000Y-74250000D03*
X206950000Y-74500000D03*
X214500000Y-74750000D03*
X206950000Y-75000000D03*
X214500000Y-75250000D03*
X206950000Y-75500000D03*
X214500000Y-75750000D03*
X206950000Y-76000000D03*
X214500000Y-76250000D03*
X206950000Y-76500000D03*
X214500000Y-76750000D03*
X206950000Y-77000000D03*
X214500000Y-77250000D03*
X206950000Y-77500000D03*
X214500000Y-77750000D03*
X206950000Y-78000000D03*
X214500000Y-78250000D03*
X206950000Y-78500000D03*
X214500000Y-78750000D03*
X206950000Y-79000000D03*
X214500000Y-79250000D03*
D43*
X213725000Y-59650000D03*
X213725000Y-80350000D03*
%TD*%
M02*
