%TF.GenerationSoftware,KiCad,Pcbnew,9.0.4*%
%TF.CreationDate,2025-08-29T15:54:19+02:00*%
%TF.ProjectId,M.2_Arduino_Module_Board,4d2e325f-4172-4647-9569-6e6f5f4d6f64,rev?*%
%TF.SameCoordinates,Original*%
%TF.FileFunction,Soldermask,Top*%
%TF.FilePolarity,Negative*%
%FSLAX46Y46*%
G04 Gerber Fmt 4.6, Leading zero omitted, Abs format (unit mm)*
G04 Created by KiCad (PCBNEW 9.0.4) date 2025-08-29 15:54:19*
%MOMM*%
%LPD*%
G01*
G04 APERTURE LIST*
G04 Aperture macros list*
%AMRoundRect*
0 Rectangle with rounded corners*
0 $1 Rounding radius*
0 $2 $3 $4 $5 $6 $7 $8 $9 X,Y pos of 4 corners*
0 Add a 4 corners polygon primitive as box body*
4,1,4,$2,$3,$4,$5,$6,$7,$8,$9,$2,$3,0*
0 Add four circle primitives for the rounded corners*
1,1,$1+$1,$2,$3*
1,1,$1+$1,$4,$5*
1,1,$1+$1,$6,$7*
1,1,$1+$1,$8,$9*
0 Add four rect primitives between the rounded corners*
20,1,$1+$1,$2,$3,$4,$5,0*
20,1,$1+$1,$4,$5,$6,$7,0*
20,1,$1+$1,$6,$7,$8,$9,0*
20,1,$1+$1,$8,$9,$2,$3,0*%
G04 Aperture macros list end*
%ADD10C,3.200000*%
%ADD11R,1.600000X1.600000*%
%ADD12O,1.600000X1.600000*%
%ADD13O,3.200000X10.000000*%
%ADD14R,0.700000X1.340000*%
%ADD15RoundRect,0.155000X0.212500X0.155000X-0.212500X0.155000X-0.212500X-0.155000X0.212500X-0.155000X0*%
%ADD16C,1.150000*%
%ADD17C,1.650000*%
%ADD18R,0.300000X1.550000*%
%ADD19R,1.200000X2.750000*%
%ADD20RoundRect,0.155000X-0.155000X0.212500X-0.155000X-0.212500X0.155000X-0.212500X0.155000X0.212500X0*%
%ADD21C,0.650000*%
%ADD22RoundRect,0.150000X0.150000X0.425000X-0.150000X0.425000X-0.150000X-0.425000X0.150000X-0.425000X0*%
%ADD23RoundRect,0.075000X0.075000X0.500000X-0.075000X0.500000X-0.075000X-0.500000X0.075000X-0.500000X0*%
%ADD24O,1.000000X2.100000*%
%ADD25O,1.000000X1.800000*%
%ADD26RoundRect,0.160000X-0.160000X0.197500X-0.160000X-0.197500X0.160000X-0.197500X0.160000X0.197500X0*%
%ADD27RoundRect,0.160000X0.160000X-0.197500X0.160000X0.197500X-0.160000X0.197500X-0.160000X-0.197500X0*%
%ADD28RoundRect,0.155000X0.155000X-0.212500X0.155000X0.212500X-0.155000X0.212500X-0.155000X-0.212500X0*%
%ADD29R,1.400000X0.480000*%
%ADD30R,1.525000X0.560000*%
%ADD31R,2.725000X2.000000*%
%ADD32RoundRect,0.150000X0.512500X0.150000X-0.512500X0.150000X-0.512500X-0.150000X0.512500X-0.150000X0*%
%ADD33R,1.000000X1.450000*%
G04 APERTURE END LIST*
D10*
%TO.C,A1*%
X194170000Y-104275000D03*
X161150000Y-52205000D03*
X209410000Y-53475000D03*
X166230000Y-104275000D03*
D11*
X161150000Y-66175000D03*
D12*
X161150000Y-68715000D03*
X161150000Y-71255000D03*
X161150000Y-73795000D03*
X161150000Y-76335000D03*
X161150000Y-78875000D03*
X161150000Y-81415000D03*
X161150000Y-83955000D03*
X161150000Y-89035000D03*
X161150000Y-91575000D03*
X161150000Y-94115000D03*
X161150000Y-96655000D03*
X161150000Y-99195000D03*
X161150000Y-101735000D03*
X209410000Y-101735000D03*
X209410000Y-99195000D03*
X209410000Y-96655000D03*
X209410000Y-94115000D03*
X209410000Y-91575000D03*
X209410000Y-89035000D03*
X209410000Y-86495000D03*
X209410000Y-83955000D03*
X209410000Y-79895000D03*
X209410000Y-77355000D03*
X209410000Y-74815000D03*
X209410000Y-72275000D03*
X209410000Y-69735000D03*
X209410000Y-67195000D03*
X209410000Y-64655000D03*
X209410000Y-62115000D03*
X209410000Y-59575000D03*
X209410000Y-57035000D03*
%TD*%
D13*
%TO.C,*%
X185000000Y-99670000D03*
%TD*%
D14*
%TO.C,LED1*%
X200350000Y-54615000D03*
X199250000Y-54615000D03*
X199250000Y-57085000D03*
X200350000Y-57085000D03*
%TD*%
D15*
%TO.C,C2*%
X171792500Y-48600000D03*
X170657500Y-48600000D03*
%TD*%
D16*
%TO.C,J2*%
X174975000Y-60900000D03*
D17*
X194975000Y-60900000D03*
D18*
X175725000Y-55625000D03*
X175975000Y-63175000D03*
X176225000Y-55625000D03*
X176475000Y-63175000D03*
X176725000Y-55625000D03*
X176975000Y-63175000D03*
X177225000Y-55625000D03*
X177475000Y-63175000D03*
X177725000Y-55625000D03*
X177975000Y-63175000D03*
X178225000Y-55625000D03*
X180475000Y-63175000D03*
X180725000Y-55625000D03*
X180975000Y-63175000D03*
X181225000Y-55625000D03*
X181475000Y-63175000D03*
X181725000Y-55625000D03*
X181975000Y-63175000D03*
X182225000Y-55625000D03*
X182475000Y-63175000D03*
X182725000Y-55625000D03*
X182975000Y-63175000D03*
X183225000Y-55625000D03*
X183475000Y-63175000D03*
X183725000Y-55625000D03*
X183975000Y-63175000D03*
X184225000Y-55625000D03*
X184475000Y-63175000D03*
X184725000Y-55625000D03*
X184975000Y-63175000D03*
X185225000Y-55625000D03*
X185475000Y-63175000D03*
X185725000Y-55625000D03*
X185975000Y-63175000D03*
X186225000Y-55625000D03*
X186475000Y-63175000D03*
X186725000Y-55625000D03*
X186975000Y-63175000D03*
X187225000Y-55625000D03*
X187475000Y-63175000D03*
X187725000Y-55625000D03*
X187975000Y-63175000D03*
X188225000Y-55625000D03*
X188475000Y-63175000D03*
X188725000Y-55625000D03*
X188975000Y-63175000D03*
X189225000Y-55625000D03*
X189475000Y-63175000D03*
X189725000Y-55625000D03*
X189975000Y-63175000D03*
X190225000Y-55625000D03*
X190475000Y-63175000D03*
X190725000Y-55625000D03*
X190975000Y-63175000D03*
X191225000Y-55625000D03*
X191475000Y-63175000D03*
X191725000Y-55625000D03*
X191975000Y-63175000D03*
X192225000Y-55625000D03*
X192475000Y-63175000D03*
X192725000Y-55625000D03*
X192975000Y-63175000D03*
X193225000Y-55625000D03*
X193475000Y-63175000D03*
X193725000Y-55625000D03*
X193975000Y-63175000D03*
X194225000Y-55625000D03*
D19*
X174625000Y-56400000D03*
X195325000Y-56400000D03*
%TD*%
D20*
%TO.C,C6*%
X205100000Y-45732500D03*
X205100000Y-46867500D03*
%TD*%
D21*
%TO.C,J1*%
X197490000Y-43815000D03*
X191710000Y-43815000D03*
D22*
X197800000Y-44890000D03*
X197000000Y-44890000D03*
D23*
X195850000Y-44890000D03*
X194850000Y-44890000D03*
X194350000Y-44890000D03*
X193350000Y-44890000D03*
D22*
X192200000Y-44890000D03*
X191400000Y-44890000D03*
X191400000Y-44890000D03*
X192200000Y-44890000D03*
D23*
X192850000Y-44890000D03*
X193850000Y-44890000D03*
X195350000Y-44890000D03*
X196350000Y-44890000D03*
D22*
X197000000Y-44890000D03*
X197800000Y-44890000D03*
D24*
X198920000Y-44315000D03*
D25*
X198920000Y-40135000D03*
D24*
X190280000Y-44315000D03*
D25*
X190280000Y-40135000D03*
%TD*%
D26*
%TO.C,R7*%
X205110000Y-42922500D03*
X205110000Y-44117500D03*
%TD*%
%TO.C,R2*%
X188425000Y-42552500D03*
X188425000Y-43747500D03*
%TD*%
D20*
%TO.C,C1*%
X177250000Y-44407500D03*
X177250000Y-45542500D03*
%TD*%
D27*
%TO.C,R1*%
X165600000Y-47047500D03*
X165600000Y-45852500D03*
%TD*%
D28*
%TO.C,C3*%
X165600000Y-43317500D03*
X165600000Y-42182500D03*
%TD*%
D29*
%TO.C,IC1*%
X171808250Y-42950000D03*
D30*
X171871250Y-44450000D03*
D29*
X171808250Y-45950000D03*
D31*
X173996250Y-44450000D03*
%TD*%
D28*
%TO.C,C7*%
X202575000Y-55717500D03*
X202575000Y-54582500D03*
%TD*%
D32*
%TO.C,U1*%
X189262500Y-49550000D03*
X189262500Y-48600000D03*
X189262500Y-47650000D03*
X186987500Y-47650000D03*
X186987500Y-48600000D03*
X186987500Y-49550000D03*
%TD*%
D33*
%TO.C,RST1*%
X160900000Y-47325000D03*
X160900000Y-42175000D03*
X162600000Y-47325000D03*
X162600000Y-42175000D03*
%TD*%
D26*
%TO.C,R3*%
X200675000Y-42477500D03*
X200675000Y-43672500D03*
%TD*%
D33*
%TO.C,BOOT1*%
X209750000Y-42175000D03*
X209750000Y-47325000D03*
X208050000Y-42175000D03*
X208050000Y-47325000D03*
%TD*%
M02*
