%TF.GenerationSoftware,KiCad,Pcbnew,9.0.4*%
%TF.CreationDate,2025-08-29T15:54:19+02:00*%
%TF.ProjectId,M.2_Arduino_Module_Board,4d2e325f-4172-4647-9569-6e6f5f4d6f64,rev?*%
%TF.SameCoordinates,Original*%
%TF.FileFunction,Legend,Bot*%
%TF.FilePolarity,Positive*%
%FSLAX46Y46*%
G04 Gerber Fmt 4.6, Leading zero omitted, Abs format (unit mm)*
G04 Created by KiCad (PCBNEW 9.0.4) date 2025-08-29 15:54:19*
%MOMM*%
%LPD*%
G01*
G04 APERTURE LIST*
%ADD10C,0.300000*%
%ADD11C,0.200000*%
%ADD12C,0.150000*%
%ADD13C,0.120000*%
%ADD14C,0.000000*%
G04 APERTURE END LIST*
D10*
X180845000Y-67027500D02*
G75*
G02*
X181845000Y-68027500I0J-1000000D01*
G01*
X167065535Y-68027500D02*
G75*
G02*
X168065535Y-67027535I999965J0D01*
G01*
X181845000Y-79730000D02*
G75*
G02*
X180845000Y-80730000I-1000000J0D01*
G01*
X168065535Y-80730000D02*
G75*
G02*
X167065500Y-79730000I-35J1000000D01*
G01*
X181845000Y-68027500D02*
X181845000Y-79730000D01*
X168065535Y-67027500D02*
X180845000Y-67027500D01*
X167065535Y-79730000D02*
X167065535Y-68027500D01*
X180845000Y-80730000D02*
X168065535Y-80730000D01*
D11*
G36*
X176671844Y-71212239D02*
G01*
X176696513Y-71236907D01*
X176726318Y-71296517D01*
X176726318Y-71439779D01*
X176696513Y-71499387D01*
X176671844Y-71524057D01*
X176612235Y-71553863D01*
X176468973Y-71553863D01*
X176409363Y-71524058D01*
X176384696Y-71499390D01*
X176354890Y-71439778D01*
X176354890Y-71296517D01*
X176384695Y-71236907D01*
X176409363Y-71212238D01*
X176468973Y-71182434D01*
X176612235Y-71182434D01*
X176671844Y-71212239D01*
G37*
G36*
X176671844Y-70783668D02*
G01*
X176696513Y-70808336D01*
X176726318Y-70867946D01*
X176726318Y-70868351D01*
X176696513Y-70927960D01*
X176671844Y-70952628D01*
X176612235Y-70982434D01*
X176468973Y-70982434D01*
X176409363Y-70952629D01*
X176384695Y-70927960D01*
X176354890Y-70868350D01*
X176354890Y-70867946D01*
X176384695Y-70808336D01*
X176409363Y-70783667D01*
X176468973Y-70753863D01*
X176612235Y-70753863D01*
X176671844Y-70783668D01*
G37*
G36*
X178862320Y-70783668D02*
G01*
X178886989Y-70808336D01*
X178916794Y-70867946D01*
X178916794Y-71058827D01*
X178886989Y-71118436D01*
X178862320Y-71143104D01*
X178802711Y-71172910D01*
X178659449Y-71172910D01*
X178599839Y-71143105D01*
X178575171Y-71118436D01*
X178545366Y-71058826D01*
X178545366Y-70867946D01*
X178575171Y-70808336D01*
X178599839Y-70783667D01*
X178659449Y-70753863D01*
X178802711Y-70753863D01*
X178862320Y-70783668D01*
G37*
G36*
X171964413Y-69486674D02*
G01*
X171964413Y-69934496D01*
X171945568Y-69943919D01*
X171802306Y-69943919D01*
X171742696Y-69914114D01*
X171718029Y-69889446D01*
X171688223Y-69829834D01*
X171688223Y-69591335D01*
X171718028Y-69531725D01*
X171742696Y-69507056D01*
X171802306Y-69477252D01*
X171945568Y-69477252D01*
X171964413Y-69486674D01*
G37*
G36*
X174227972Y-69785121D02*
G01*
X174250127Y-69829430D01*
X174250127Y-69877454D01*
X174227972Y-69921763D01*
X174183663Y-69943919D01*
X173992782Y-69943919D01*
X173973937Y-69934496D01*
X173973937Y-69762966D01*
X174183663Y-69762966D01*
X174227972Y-69785121D01*
G37*
G36*
X176466068Y-69499407D02*
G01*
X176488223Y-69543716D01*
X176488223Y-69588604D01*
X176216737Y-69534307D01*
X176234188Y-69499406D01*
X176278497Y-69477252D01*
X176421759Y-69477252D01*
X176466068Y-69499407D01*
G37*
G36*
X177323211Y-69499407D02*
G01*
X177345366Y-69543716D01*
X177345366Y-69588604D01*
X177073880Y-69534307D01*
X177091331Y-69499406D01*
X177135640Y-69477252D01*
X177278902Y-69477252D01*
X177323211Y-69499407D01*
G37*
G36*
X179821556Y-69943919D02*
G01*
X179699687Y-69943919D01*
X179594622Y-69908897D01*
X179527552Y-69841827D01*
X179492098Y-69770918D01*
X179450128Y-69603037D01*
X179450128Y-69484800D01*
X179492098Y-69316918D01*
X179527551Y-69246012D01*
X179594623Y-69178940D01*
X179699687Y-69143919D01*
X179821556Y-69143919D01*
X179821556Y-69943919D01*
G37*
G36*
X169132733Y-67889463D02*
G01*
X169154888Y-67933772D01*
X169154888Y-67978660D01*
X168883402Y-67924363D01*
X168900853Y-67889462D01*
X168945162Y-67867308D01*
X169088424Y-67867308D01*
X169132733Y-67889463D01*
G37*
G36*
X171433748Y-67897113D02*
G01*
X171458417Y-67921781D01*
X171488222Y-67981391D01*
X171488222Y-68219891D01*
X171458417Y-68279499D01*
X171433748Y-68304169D01*
X171374139Y-68333975D01*
X171230877Y-68333975D01*
X171212032Y-68324552D01*
X171212032Y-67876730D01*
X171230877Y-67867308D01*
X171374139Y-67867308D01*
X171433748Y-67897113D01*
G37*
G36*
X172338510Y-67897113D02*
G01*
X172363179Y-67921781D01*
X172392984Y-67981391D01*
X172392984Y-68219891D01*
X172363179Y-68279499D01*
X172338510Y-68304169D01*
X172278901Y-68333975D01*
X172183258Y-68333975D01*
X172123648Y-68304170D01*
X172098981Y-68279502D01*
X172069175Y-68219890D01*
X172069175Y-67981391D01*
X172098980Y-67921781D01*
X172123648Y-67897112D01*
X172183258Y-67867308D01*
X172278901Y-67867308D01*
X172338510Y-67897113D01*
G37*
G36*
X175148034Y-67897113D02*
G01*
X175172703Y-67921781D01*
X175202508Y-67981391D01*
X175202508Y-68219891D01*
X175172703Y-68279499D01*
X175148034Y-68304169D01*
X175088425Y-68333975D01*
X174992782Y-68333975D01*
X174933172Y-68304170D01*
X174908505Y-68279502D01*
X174878699Y-68219890D01*
X174878699Y-67981391D01*
X174908504Y-67921781D01*
X174933172Y-67897112D01*
X174992782Y-67867308D01*
X175088425Y-67867308D01*
X175148034Y-67897113D01*
G37*
G36*
X178338510Y-67897113D02*
G01*
X178363179Y-67921781D01*
X178392984Y-67981391D01*
X178392984Y-68219891D01*
X178363179Y-68279499D01*
X178338510Y-68304169D01*
X178278901Y-68333975D01*
X178135639Y-68333975D01*
X178116794Y-68324552D01*
X178116794Y-67876730D01*
X178135639Y-67867308D01*
X178278901Y-67867308D01*
X178338510Y-67897113D01*
G37*
G36*
X179830433Y-68048260D02*
G01*
X179631728Y-68048260D01*
X179731080Y-67750202D01*
X179830433Y-68048260D01*
G37*
G36*
X180274739Y-71864974D02*
G01*
X168567587Y-71864974D01*
X168567587Y-71634354D01*
X170442525Y-71634354D01*
X170442525Y-71673372D01*
X170457457Y-71709420D01*
X170485047Y-71737010D01*
X170521095Y-71751942D01*
X170540604Y-71753863D01*
X171112032Y-71753863D01*
X171131541Y-71751942D01*
X171167589Y-71737010D01*
X171195179Y-71709420D01*
X171210111Y-71673372D01*
X171210111Y-71634354D01*
X171195179Y-71598306D01*
X171167589Y-71570716D01*
X171131541Y-71555784D01*
X171112032Y-71553863D01*
X170926318Y-71553863D01*
X170926318Y-70942904D01*
X170946083Y-70962669D01*
X170953749Y-70968960D01*
X170955482Y-70970958D01*
X170958493Y-70972853D01*
X170961237Y-70975105D01*
X170963674Y-70976114D01*
X170972073Y-70981401D01*
X171067310Y-71029020D01*
X171085619Y-71036026D01*
X171124539Y-71038792D01*
X171161555Y-71026453D01*
X171191032Y-71000888D01*
X171208481Y-70965990D01*
X171211246Y-70927070D01*
X171198908Y-70890054D01*
X171173343Y-70860577D01*
X171156753Y-70850134D01*
X171076031Y-70809773D01*
X170999267Y-70733009D01*
X170954841Y-70666370D01*
X171298532Y-70666370D01*
X171302879Y-70685486D01*
X171636212Y-71685485D01*
X171644203Y-71703386D01*
X171648886Y-71708785D01*
X171652081Y-71715175D01*
X171661552Y-71723390D01*
X171669768Y-71732862D01*
X171676156Y-71736056D01*
X171681557Y-71740740D01*
X171693458Y-71744707D01*
X171704667Y-71750311D01*
X171711791Y-71750817D01*
X171718573Y-71753078D01*
X171731082Y-71752188D01*
X171743587Y-71753078D01*
X171750365Y-71750818D01*
X171757493Y-71750312D01*
X171768709Y-71744703D01*
X171780603Y-71740739D01*
X171786000Y-71736058D01*
X171792392Y-71732862D01*
X171800610Y-71723386D01*
X171810079Y-71715174D01*
X171813272Y-71708787D01*
X171817957Y-71703386D01*
X171825948Y-71685486D01*
X171979346Y-71225291D01*
X173012033Y-71225291D01*
X173012033Y-71463386D01*
X173013954Y-71482895D01*
X173015329Y-71486215D01*
X173015584Y-71489799D01*
X173022590Y-71508107D01*
X173070209Y-71603345D01*
X173075492Y-71611737D01*
X173076504Y-71614181D01*
X173078760Y-71616930D01*
X173080652Y-71619935D01*
X173082646Y-71621664D01*
X173088941Y-71629334D01*
X173136559Y-71676954D01*
X173144227Y-71683247D01*
X173145959Y-71685244D01*
X173148967Y-71687137D01*
X173151713Y-71689391D01*
X173154153Y-71690401D01*
X173162550Y-71695687D01*
X173257787Y-71743306D01*
X173276096Y-71750312D01*
X173279679Y-71750566D01*
X173283000Y-71751942D01*
X173302509Y-71753863D01*
X173540604Y-71753863D01*
X173560113Y-71751942D01*
X173563433Y-71750566D01*
X173567017Y-71750312D01*
X173585325Y-71743306D01*
X173680563Y-71695687D01*
X173688958Y-71690402D01*
X173691400Y-71689391D01*
X173694147Y-71687135D01*
X173697153Y-71685244D01*
X173698883Y-71683249D01*
X173706553Y-71676954D01*
X173754172Y-71629334D01*
X173766609Y-71614181D01*
X173781540Y-71578132D01*
X173781539Y-71539114D01*
X173766608Y-71503066D01*
X173739017Y-71475476D01*
X173702969Y-71460545D01*
X173663951Y-71460546D01*
X173627903Y-71475477D01*
X173612749Y-71487914D01*
X173576606Y-71524057D01*
X173516997Y-71553863D01*
X173326116Y-71553863D01*
X173266506Y-71524058D01*
X173241839Y-71499390D01*
X173212033Y-71439778D01*
X173212033Y-71248898D01*
X173241838Y-71189288D01*
X173266506Y-71164619D01*
X173326116Y-71134815D01*
X173516997Y-71134815D01*
X173576606Y-71164620D01*
X173612750Y-71200763D01*
X173627903Y-71213200D01*
X173632557Y-71215127D01*
X173636453Y-71218315D01*
X173650446Y-71222537D01*
X173663952Y-71228131D01*
X173668986Y-71228131D01*
X173673808Y-71229586D01*
X173688359Y-71228131D01*
X173702970Y-71228131D01*
X173707619Y-71226205D01*
X173712632Y-71225704D01*
X173725515Y-71218792D01*
X173739018Y-71213200D01*
X173742578Y-71209639D01*
X173747016Y-71207259D01*
X173756271Y-71195946D01*
X173766608Y-71185610D01*
X173768535Y-71180957D01*
X173771723Y-71177061D01*
X173775945Y-71163066D01*
X173781539Y-71149562D01*
X173781539Y-71144528D01*
X173782994Y-71139706D01*
X173782965Y-71120103D01*
X173755389Y-70844339D01*
X173964414Y-70844339D01*
X173964414Y-70939577D01*
X173965386Y-70949450D01*
X173965199Y-70952084D01*
X173965986Y-70955547D01*
X173966335Y-70959086D01*
X173967346Y-70961528D01*
X173969546Y-70971200D01*
X174017165Y-71114056D01*
X174025156Y-71131957D01*
X174027511Y-71134672D01*
X174028886Y-71137991D01*
X174041322Y-71153145D01*
X174442039Y-71553863D01*
X174064414Y-71553863D01*
X174044905Y-71555784D01*
X174008857Y-71570716D01*
X173981267Y-71598306D01*
X173966335Y-71634354D01*
X173966335Y-71673372D01*
X173981267Y-71709420D01*
X174008857Y-71737010D01*
X174044905Y-71751942D01*
X174064414Y-71753863D01*
X174683461Y-71753863D01*
X174702970Y-71751942D01*
X174739018Y-71737010D01*
X174766608Y-71709420D01*
X174781540Y-71673372D01*
X174781540Y-71634354D01*
X174766608Y-71598306D01*
X174754172Y-71583152D01*
X174424422Y-71253401D01*
X174966335Y-71253401D01*
X174966335Y-71292419D01*
X174981267Y-71328467D01*
X175008857Y-71356057D01*
X175044905Y-71370989D01*
X175064414Y-71372910D01*
X175826318Y-71372910D01*
X175845827Y-71370989D01*
X175881875Y-71356057D01*
X175909465Y-71328467D01*
X175924397Y-71292419D01*
X175924397Y-71253401D01*
X175909465Y-71217353D01*
X175881875Y-71189763D01*
X175845827Y-71174831D01*
X175826318Y-71172910D01*
X175064414Y-71172910D01*
X175044905Y-71174831D01*
X175008857Y-71189763D01*
X174981267Y-71217353D01*
X174966335Y-71253401D01*
X174424422Y-71253401D01*
X174199435Y-71028414D01*
X174164414Y-70923350D01*
X174164414Y-70867946D01*
X174194219Y-70808336D01*
X174218887Y-70783667D01*
X174278497Y-70753863D01*
X174469378Y-70753863D01*
X174528987Y-70783668D01*
X174565131Y-70819811D01*
X174580284Y-70832248D01*
X174616333Y-70847179D01*
X174655351Y-70847179D01*
X174662208Y-70844339D01*
X176154890Y-70844339D01*
X176154890Y-70891958D01*
X176156811Y-70911467D01*
X176158186Y-70914787D01*
X176158441Y-70918371D01*
X176165447Y-70936679D01*
X176213066Y-71031917D01*
X176218351Y-71040313D01*
X176219362Y-71042753D01*
X176221615Y-71045499D01*
X176223509Y-71048507D01*
X176225503Y-71050236D01*
X176231798Y-71057907D01*
X176256325Y-71082434D01*
X176231798Y-71106961D01*
X176225503Y-71114631D01*
X176223509Y-71116361D01*
X176221615Y-71119368D01*
X176219362Y-71122115D01*
X176218351Y-71124554D01*
X176213066Y-71132951D01*
X176165447Y-71228189D01*
X176158441Y-71246497D01*
X176158186Y-71250080D01*
X176156811Y-71253401D01*
X176154890Y-71272910D01*
X176154890Y-71463386D01*
X176156811Y-71482895D01*
X176158186Y-71486215D01*
X176158441Y-71489799D01*
X176165447Y-71508107D01*
X176213066Y-71603345D01*
X176218349Y-71611737D01*
X176219361Y-71614181D01*
X176221617Y-71616930D01*
X176223509Y-71619935D01*
X176225503Y-71621664D01*
X176231798Y-71629334D01*
X176279416Y-71676954D01*
X176287084Y-71683247D01*
X176288816Y-71685244D01*
X176291824Y-71687137D01*
X176294570Y-71689391D01*
X176297010Y-71690401D01*
X176305407Y-71695687D01*
X176400644Y-71743306D01*
X176418953Y-71750312D01*
X176422536Y-71750566D01*
X176425857Y-71751942D01*
X176445366Y-71753863D01*
X176635842Y-71753863D01*
X176655351Y-71751942D01*
X176658671Y-71750566D01*
X176662255Y-71750312D01*
X176680563Y-71743306D01*
X176775801Y-71695687D01*
X176784196Y-71690402D01*
X176786638Y-71689391D01*
X176789385Y-71687135D01*
X176792391Y-71685244D01*
X176794121Y-71683249D01*
X176801791Y-71676954D01*
X176849410Y-71629334D01*
X176855702Y-71621667D01*
X176857699Y-71619936D01*
X176859592Y-71616928D01*
X176861847Y-71614181D01*
X176862858Y-71611739D01*
X176868142Y-71603345D01*
X176915761Y-71508108D01*
X176922767Y-71489799D01*
X176923021Y-71486215D01*
X176924397Y-71482895D01*
X176926318Y-71463386D01*
X176926318Y-71272910D01*
X176924397Y-71253401D01*
X177156811Y-71253401D01*
X177156811Y-71292419D01*
X177171743Y-71328467D01*
X177199333Y-71356057D01*
X177235381Y-71370989D01*
X177254890Y-71372910D01*
X178016794Y-71372910D01*
X178036303Y-71370989D01*
X178072351Y-71356057D01*
X178099941Y-71328467D01*
X178114873Y-71292419D01*
X178114873Y-71253401D01*
X178099941Y-71217353D01*
X178072351Y-71189763D01*
X178036303Y-71174831D01*
X178016794Y-71172910D01*
X177254890Y-71172910D01*
X177235381Y-71174831D01*
X177199333Y-71189763D01*
X177171743Y-71217353D01*
X177156811Y-71253401D01*
X176924397Y-71253401D01*
X176923021Y-71250080D01*
X176922767Y-71246497D01*
X176915761Y-71228188D01*
X176868142Y-71132951D01*
X176862856Y-71124554D01*
X176861846Y-71122114D01*
X176859592Y-71119368D01*
X176857699Y-71116360D01*
X176855701Y-71114627D01*
X176849409Y-71106961D01*
X176824882Y-71082434D01*
X176849409Y-71057907D01*
X176855701Y-71050240D01*
X176857699Y-71048508D01*
X176859592Y-71045499D01*
X176861846Y-71042754D01*
X176862856Y-71040313D01*
X176868142Y-71031917D01*
X176915761Y-70936680D01*
X176922767Y-70918371D01*
X176923021Y-70914787D01*
X176924397Y-70911467D01*
X176926318Y-70891958D01*
X176926318Y-70844339D01*
X178345366Y-70844339D01*
X178345366Y-71225291D01*
X178345701Y-71228693D01*
X178345484Y-71230152D01*
X178346563Y-71237449D01*
X178347287Y-71244800D01*
X178347851Y-71246163D01*
X178348352Y-71249545D01*
X178395971Y-71440020D01*
X178400077Y-71451515D01*
X178400557Y-71453939D01*
X178401728Y-71456135D01*
X178402566Y-71458481D01*
X178404037Y-71460467D01*
X178409780Y-71471237D01*
X178505018Y-71614094D01*
X178505060Y-71614145D01*
X178505075Y-71614181D01*
X178511298Y-71621763D01*
X178517438Y-71629261D01*
X178517469Y-71629281D01*
X178517512Y-71629334D01*
X178565130Y-71676954D01*
X178572798Y-71683247D01*
X178574530Y-71685244D01*
X178577538Y-71687137D01*
X178580284Y-71689391D01*
X178582724Y-71690401D01*
X178591121Y-71695687D01*
X178686358Y-71743306D01*
X178704667Y-71750312D01*
X178708250Y-71750566D01*
X178711571Y-71751942D01*
X178731080Y-71753863D01*
X178921556Y-71753863D01*
X178941065Y-71751942D01*
X178977113Y-71737010D01*
X179004703Y-71709420D01*
X179019635Y-71673372D01*
X179019635Y-71634354D01*
X179004703Y-71598306D01*
X178977113Y-71570716D01*
X178941065Y-71555784D01*
X178921556Y-71553863D01*
X178754687Y-71553863D01*
X178695077Y-71524058D01*
X178665936Y-71494916D01*
X178585798Y-71374709D01*
X178581507Y-71357546D01*
X178591120Y-71362353D01*
X178609429Y-71369359D01*
X178613012Y-71369613D01*
X178616333Y-71370989D01*
X178635842Y-71372910D01*
X178826318Y-71372910D01*
X178845827Y-71370989D01*
X178849147Y-71369613D01*
X178852731Y-71369359D01*
X178871039Y-71362353D01*
X178966277Y-71314734D01*
X178974673Y-71309448D01*
X178977113Y-71308438D01*
X178979859Y-71306184D01*
X178982867Y-71304291D01*
X178984596Y-71302296D01*
X178992267Y-71296002D01*
X179039885Y-71248383D01*
X179046177Y-71240716D01*
X179048175Y-71238984D01*
X179050068Y-71235975D01*
X179052322Y-71233230D01*
X179053332Y-71230789D01*
X179058618Y-71222393D01*
X179106237Y-71127156D01*
X179113243Y-71108847D01*
X179113497Y-71105263D01*
X179114873Y-71101943D01*
X179116794Y-71082434D01*
X179116794Y-70844339D01*
X179297747Y-70844339D01*
X179297747Y-70939577D01*
X179298719Y-70949450D01*
X179298532Y-70952084D01*
X179299319Y-70955547D01*
X179299668Y-70959086D01*
X179300679Y-70961528D01*
X179302879Y-70971200D01*
X179350498Y-71114056D01*
X179358489Y-71131957D01*
X179360844Y-71134672D01*
X179362219Y-71137991D01*
X179374655Y-71153145D01*
X179775372Y-71553863D01*
X179397747Y-71553863D01*
X179378238Y-71555784D01*
X179342190Y-71570716D01*
X179314600Y-71598306D01*
X179299668Y-71634354D01*
X179299668Y-71673372D01*
X179314600Y-71709420D01*
X179342190Y-71737010D01*
X179378238Y-71751942D01*
X179397747Y-71753863D01*
X180016794Y-71753863D01*
X180036303Y-71751942D01*
X180072351Y-71737010D01*
X180099941Y-71709420D01*
X180114873Y-71673372D01*
X180114873Y-71634354D01*
X180099941Y-71598306D01*
X180087505Y-71583152D01*
X179532768Y-71028414D01*
X179497747Y-70923350D01*
X179497747Y-70867946D01*
X179527552Y-70808336D01*
X179552220Y-70783667D01*
X179611830Y-70753863D01*
X179802711Y-70753863D01*
X179862320Y-70783668D01*
X179898464Y-70819811D01*
X179913617Y-70832248D01*
X179949666Y-70847179D01*
X179988684Y-70847179D01*
X180024732Y-70832248D01*
X180052322Y-70804658D01*
X180067253Y-70768610D01*
X180067253Y-70729592D01*
X180052322Y-70693543D01*
X180039885Y-70678390D01*
X179992267Y-70630771D01*
X179984596Y-70624476D01*
X179982867Y-70622482D01*
X179979859Y-70620588D01*
X179977113Y-70618335D01*
X179974673Y-70617324D01*
X179966277Y-70612039D01*
X179871039Y-70564420D01*
X179852731Y-70557414D01*
X179849147Y-70557159D01*
X179845827Y-70555784D01*
X179826318Y-70553863D01*
X179588223Y-70553863D01*
X179568714Y-70555784D01*
X179565393Y-70557159D01*
X179561810Y-70557414D01*
X179543501Y-70564420D01*
X179448264Y-70612039D01*
X179439867Y-70617324D01*
X179437427Y-70618335D01*
X179434681Y-70620588D01*
X179431673Y-70622482D01*
X179429940Y-70624479D01*
X179422274Y-70630772D01*
X179374655Y-70678390D01*
X179368360Y-70686060D01*
X179366366Y-70687790D01*
X179364472Y-70690797D01*
X179362219Y-70693544D01*
X179361208Y-70695983D01*
X179355923Y-70704380D01*
X179308304Y-70799618D01*
X179301298Y-70817926D01*
X179301043Y-70821509D01*
X179299668Y-70824830D01*
X179297747Y-70844339D01*
X179116794Y-70844339D01*
X179114873Y-70824830D01*
X179113497Y-70821509D01*
X179113243Y-70817926D01*
X179106237Y-70799617D01*
X179058618Y-70704380D01*
X179053332Y-70695983D01*
X179052322Y-70693543D01*
X179050068Y-70690797D01*
X179048175Y-70687789D01*
X179046177Y-70686056D01*
X179039885Y-70678390D01*
X178992267Y-70630771D01*
X178984596Y-70624476D01*
X178982867Y-70622482D01*
X178979859Y-70620588D01*
X178977113Y-70618335D01*
X178974673Y-70617324D01*
X178966277Y-70612039D01*
X178871039Y-70564420D01*
X178852731Y-70557414D01*
X178849147Y-70557159D01*
X178845827Y-70555784D01*
X178826318Y-70553863D01*
X178635842Y-70553863D01*
X178616333Y-70555784D01*
X178613012Y-70557159D01*
X178609429Y-70557414D01*
X178591120Y-70564420D01*
X178495883Y-70612039D01*
X178487486Y-70617324D01*
X178485046Y-70618335D01*
X178482300Y-70620588D01*
X178479292Y-70622482D01*
X178477559Y-70624479D01*
X178469893Y-70630772D01*
X178422274Y-70678390D01*
X178415979Y-70686060D01*
X178413985Y-70687790D01*
X178412091Y-70690797D01*
X178409838Y-70693544D01*
X178408827Y-70695983D01*
X178403542Y-70704380D01*
X178355923Y-70799618D01*
X178348917Y-70817926D01*
X178348662Y-70821509D01*
X178347287Y-70824830D01*
X178345366Y-70844339D01*
X176926318Y-70844339D01*
X176924397Y-70824830D01*
X176923021Y-70821509D01*
X176922767Y-70817926D01*
X176915761Y-70799617D01*
X176868142Y-70704380D01*
X176862856Y-70695983D01*
X176861846Y-70693543D01*
X176859592Y-70690797D01*
X176857699Y-70687789D01*
X176855701Y-70686056D01*
X176849409Y-70678390D01*
X176801791Y-70630771D01*
X176794120Y-70624476D01*
X176792391Y-70622482D01*
X176789383Y-70620588D01*
X176786637Y-70618335D01*
X176784197Y-70617324D01*
X176775801Y-70612039D01*
X176680563Y-70564420D01*
X176662255Y-70557414D01*
X176658671Y-70557159D01*
X176655351Y-70555784D01*
X176635842Y-70553863D01*
X176445366Y-70553863D01*
X176425857Y-70555784D01*
X176422536Y-70557159D01*
X176418953Y-70557414D01*
X176400644Y-70564420D01*
X176305407Y-70612039D01*
X176297010Y-70617324D01*
X176294570Y-70618335D01*
X176291824Y-70620588D01*
X176288816Y-70622482D01*
X176287083Y-70624479D01*
X176279417Y-70630772D01*
X176231798Y-70678390D01*
X176225503Y-70686060D01*
X176223509Y-70687790D01*
X176221615Y-70690797D01*
X176219362Y-70693544D01*
X176218351Y-70695983D01*
X176213066Y-70704380D01*
X176165447Y-70799618D01*
X176158441Y-70817926D01*
X176158186Y-70821509D01*
X176156811Y-70824830D01*
X176154890Y-70844339D01*
X174662208Y-70844339D01*
X174691399Y-70832248D01*
X174718989Y-70804658D01*
X174733920Y-70768610D01*
X174733920Y-70729592D01*
X174718989Y-70693543D01*
X174706552Y-70678390D01*
X174658934Y-70630771D01*
X174651263Y-70624476D01*
X174649534Y-70622482D01*
X174646526Y-70620588D01*
X174643780Y-70618335D01*
X174641340Y-70617324D01*
X174632944Y-70612039D01*
X174537706Y-70564420D01*
X174519398Y-70557414D01*
X174515814Y-70557159D01*
X174512494Y-70555784D01*
X174492985Y-70553863D01*
X174254890Y-70553863D01*
X174235381Y-70555784D01*
X174232060Y-70557159D01*
X174228477Y-70557414D01*
X174210168Y-70564420D01*
X174114931Y-70612039D01*
X174106534Y-70617324D01*
X174104094Y-70618335D01*
X174101348Y-70620588D01*
X174098340Y-70622482D01*
X174096607Y-70624479D01*
X174088941Y-70630772D01*
X174041322Y-70678390D01*
X174035027Y-70686060D01*
X174033033Y-70687790D01*
X174031139Y-70690797D01*
X174028886Y-70693544D01*
X174027875Y-70695983D01*
X174022590Y-70704380D01*
X173974971Y-70799618D01*
X173967965Y-70817926D01*
X173967710Y-70821509D01*
X173966335Y-70824830D01*
X173964414Y-70844339D01*
X173755389Y-70844339D01*
X173735346Y-70643913D01*
X173733921Y-70636804D01*
X173733921Y-70634354D01*
X173732969Y-70632056D01*
X173731493Y-70624692D01*
X173724583Y-70611811D01*
X173718989Y-70598306D01*
X173715428Y-70594745D01*
X173713048Y-70590308D01*
X173701735Y-70581052D01*
X173691399Y-70570716D01*
X173686746Y-70568788D01*
X173682850Y-70565601D01*
X173668860Y-70561380D01*
X173655351Y-70555784D01*
X173647873Y-70555047D01*
X173645495Y-70554330D01*
X173643058Y-70554573D01*
X173635842Y-70553863D01*
X173159652Y-70553863D01*
X173140143Y-70555784D01*
X173104095Y-70570716D01*
X173076505Y-70598306D01*
X173061573Y-70634354D01*
X173061573Y-70673372D01*
X173076505Y-70709420D01*
X173104095Y-70737010D01*
X173140143Y-70751942D01*
X173159652Y-70753863D01*
X173545343Y-70753863D01*
X173563770Y-70938135D01*
X173563433Y-70938111D01*
X173560113Y-70936736D01*
X173540604Y-70934815D01*
X173302509Y-70934815D01*
X173283000Y-70936736D01*
X173279679Y-70938111D01*
X173276096Y-70938366D01*
X173257787Y-70945372D01*
X173162550Y-70992991D01*
X173154153Y-70998276D01*
X173151713Y-70999287D01*
X173148967Y-71001540D01*
X173145959Y-71003434D01*
X173144226Y-71005431D01*
X173136560Y-71011724D01*
X173088941Y-71059342D01*
X173082646Y-71067012D01*
X173080652Y-71068742D01*
X173078758Y-71071749D01*
X173076505Y-71074496D01*
X173075494Y-71076935D01*
X173070209Y-71085332D01*
X173022590Y-71180570D01*
X173015584Y-71198878D01*
X173015329Y-71202461D01*
X173013954Y-71205782D01*
X173012033Y-71225291D01*
X171979346Y-71225291D01*
X172159281Y-70685486D01*
X172163628Y-70666371D01*
X172160862Y-70627451D01*
X172143412Y-70592552D01*
X172113936Y-70566987D01*
X172076920Y-70554648D01*
X172038000Y-70557415D01*
X172003101Y-70574864D01*
X171977536Y-70604340D01*
X171969545Y-70622241D01*
X171731080Y-71337635D01*
X171492615Y-70622240D01*
X171484624Y-70604340D01*
X171459059Y-70574864D01*
X171424160Y-70557414D01*
X171385240Y-70554648D01*
X171348224Y-70566986D01*
X171318748Y-70592551D01*
X171301298Y-70627450D01*
X171298532Y-70666370D01*
X170954841Y-70666370D01*
X170909523Y-70598393D01*
X170909478Y-70598338D01*
X170909465Y-70598306D01*
X170909391Y-70598232D01*
X170897103Y-70583226D01*
X170888874Y-70577715D01*
X170881875Y-70570716D01*
X170872823Y-70566966D01*
X170864683Y-70561515D01*
X170854975Y-70559573D01*
X170845827Y-70555784D01*
X170836028Y-70555784D01*
X170826423Y-70553863D01*
X170816712Y-70555784D01*
X170806809Y-70555784D01*
X170797756Y-70559533D01*
X170788146Y-70561435D01*
X170779907Y-70566927D01*
X170770761Y-70570716D01*
X170763834Y-70577642D01*
X170755681Y-70583078D01*
X170750170Y-70591306D01*
X170743171Y-70598306D01*
X170739421Y-70607357D01*
X170733970Y-70615498D01*
X170732028Y-70625205D01*
X170728239Y-70634354D01*
X170726338Y-70653656D01*
X170726318Y-70653758D01*
X170726324Y-70653792D01*
X170726318Y-70653863D01*
X170726318Y-71553863D01*
X170540604Y-71553863D01*
X170521095Y-71555784D01*
X170485047Y-71570716D01*
X170457457Y-71598306D01*
X170442525Y-71634354D01*
X168567587Y-71634354D01*
X168567587Y-69567728D01*
X171488223Y-69567728D01*
X171488223Y-69853442D01*
X171490144Y-69872951D01*
X171491519Y-69876271D01*
X171491774Y-69879855D01*
X171498780Y-69898163D01*
X171546399Y-69993401D01*
X171551682Y-70001793D01*
X171552694Y-70004237D01*
X171554950Y-70006986D01*
X171556842Y-70009991D01*
X171558836Y-70011720D01*
X171565131Y-70019390D01*
X171612749Y-70067010D01*
X171620417Y-70073303D01*
X171622149Y-70075300D01*
X171625157Y-70077193D01*
X171627903Y-70079447D01*
X171630343Y-70080457D01*
X171638740Y-70085743D01*
X171733977Y-70133362D01*
X171752286Y-70140368D01*
X171755869Y-70140622D01*
X171759190Y-70141998D01*
X171778699Y-70143919D01*
X171964413Y-70143919D01*
X171964413Y-70377252D01*
X171966334Y-70396761D01*
X171981266Y-70432809D01*
X172008856Y-70460399D01*
X172044904Y-70475331D01*
X172083922Y-70475331D01*
X172119970Y-70460399D01*
X172147560Y-70432809D01*
X172162492Y-70396761D01*
X172164413Y-70377252D01*
X172164413Y-69520109D01*
X172440603Y-69520109D01*
X172440603Y-70043919D01*
X172442524Y-70063428D01*
X172457456Y-70099476D01*
X172485046Y-70127066D01*
X172521094Y-70141998D01*
X172560112Y-70141998D01*
X172596160Y-70127066D01*
X172623750Y-70099476D01*
X172638682Y-70063428D01*
X172640603Y-70043919D01*
X172640603Y-69543716D01*
X172662758Y-69499406D01*
X172707068Y-69477252D01*
X172802711Y-69477252D01*
X172847020Y-69499407D01*
X172869175Y-69543716D01*
X172869175Y-70043919D01*
X172871096Y-70063428D01*
X172886028Y-70099476D01*
X172913618Y-70127066D01*
X172949666Y-70141998D01*
X172988684Y-70141998D01*
X173024732Y-70127066D01*
X173052322Y-70099476D01*
X173067254Y-70063428D01*
X173069175Y-70043919D01*
X173069175Y-69543716D01*
X173091330Y-69499406D01*
X173135639Y-69477252D01*
X173231282Y-69477252D01*
X173290891Y-69507057D01*
X173297746Y-69513911D01*
X173297746Y-70043919D01*
X173299667Y-70063428D01*
X173314599Y-70099476D01*
X173342189Y-70127066D01*
X173378237Y-70141998D01*
X173417255Y-70141998D01*
X173453303Y-70127066D01*
X173480893Y-70099476D01*
X173495825Y-70063428D01*
X173497746Y-70043919D01*
X173497746Y-69520109D01*
X173773937Y-69520109D01*
X173773937Y-70043919D01*
X173775858Y-70063428D01*
X173790790Y-70099476D01*
X173818380Y-70127066D01*
X173854428Y-70141998D01*
X173893446Y-70141998D01*
X173919850Y-70131060D01*
X173924453Y-70133362D01*
X173942762Y-70140368D01*
X173946345Y-70140622D01*
X173949666Y-70141998D01*
X173969175Y-70143919D01*
X174207270Y-70143919D01*
X174226779Y-70141998D01*
X174230099Y-70140622D01*
X174233683Y-70140368D01*
X174251991Y-70133362D01*
X174347229Y-70085743D01*
X174350491Y-70083689D01*
X174352031Y-70083176D01*
X174353947Y-70081513D01*
X174363819Y-70075300D01*
X174372034Y-70065826D01*
X174381508Y-70057611D01*
X174387721Y-70047739D01*
X174389384Y-70045823D01*
X174389896Y-70044284D01*
X174391951Y-70041021D01*
X174393223Y-70038477D01*
X174631228Y-70038477D01*
X174636746Y-70077103D01*
X174656625Y-70110677D01*
X174687840Y-70134088D01*
X174725638Y-70143771D01*
X174764264Y-70138253D01*
X174797838Y-70118374D01*
X174811080Y-70103919D01*
X175012032Y-69835982D01*
X175012032Y-70043919D01*
X175013953Y-70063428D01*
X175028885Y-70099476D01*
X175056475Y-70127066D01*
X175092523Y-70141998D01*
X175131541Y-70141998D01*
X175167589Y-70127066D01*
X175195179Y-70099476D01*
X175210111Y-70063428D01*
X175212032Y-70043919D01*
X175212032Y-69357743D01*
X175347287Y-69357743D01*
X175347287Y-69396761D01*
X175362219Y-69432809D01*
X175389809Y-69460399D01*
X175425857Y-69475331D01*
X175445366Y-69477252D01*
X175583461Y-69477252D01*
X175583461Y-69877454D01*
X175561306Y-69921763D01*
X175516997Y-69943919D01*
X175445366Y-69943919D01*
X175425857Y-69945840D01*
X175389809Y-69960772D01*
X175362219Y-69988362D01*
X175347287Y-70024410D01*
X175347287Y-70063428D01*
X175362219Y-70099476D01*
X175389809Y-70127066D01*
X175425857Y-70141998D01*
X175445366Y-70143919D01*
X175540604Y-70143919D01*
X175560113Y-70141998D01*
X175563433Y-70140622D01*
X175567017Y-70140368D01*
X175585325Y-70133362D01*
X175680563Y-70085743D01*
X175683825Y-70083689D01*
X175685365Y-70083176D01*
X175687281Y-70081513D01*
X175697153Y-70075300D01*
X175705368Y-70065826D01*
X175714842Y-70057611D01*
X175721055Y-70047739D01*
X175722718Y-70045823D01*
X175723230Y-70044284D01*
X175725285Y-70041021D01*
X175772904Y-69945782D01*
X175779910Y-69927474D01*
X175780164Y-69923890D01*
X175781540Y-69920570D01*
X175783461Y-69901061D01*
X175783461Y-69520109D01*
X176012033Y-69520109D01*
X176012033Y-69615347D01*
X176013954Y-69634856D01*
X176017703Y-69643908D01*
X176019605Y-69653519D01*
X176025097Y-69661757D01*
X176028886Y-69670904D01*
X176035812Y-69677830D01*
X176041248Y-69685984D01*
X176049476Y-69691494D01*
X176056476Y-69698494D01*
X176065527Y-69702243D01*
X176073668Y-69707695D01*
X176092421Y-69713405D01*
X176092522Y-69713425D01*
X176092524Y-69713426D01*
X176092526Y-69713426D01*
X176488223Y-69792565D01*
X176488223Y-69877454D01*
X176466068Y-69921763D01*
X176421759Y-69943919D01*
X176278497Y-69943919D01*
X176204373Y-69906857D01*
X176186065Y-69899851D01*
X176147145Y-69897085D01*
X176110129Y-69909424D01*
X176080652Y-69934988D01*
X176063203Y-69969887D01*
X176060437Y-70008807D01*
X176072776Y-70045823D01*
X176098340Y-70075300D01*
X176114931Y-70085743D01*
X176210168Y-70133362D01*
X176228477Y-70140368D01*
X176232060Y-70140622D01*
X176235381Y-70141998D01*
X176254890Y-70143919D01*
X176445366Y-70143919D01*
X176464875Y-70141998D01*
X176468195Y-70140622D01*
X176471779Y-70140368D01*
X176490087Y-70133362D01*
X176585325Y-70085743D01*
X176588587Y-70083689D01*
X176590127Y-70083176D01*
X176592043Y-70081513D01*
X176601915Y-70075300D01*
X176610130Y-70065826D01*
X176619604Y-70057611D01*
X176625817Y-70047739D01*
X176627480Y-70045823D01*
X176627992Y-70044284D01*
X176630047Y-70041021D01*
X176677666Y-69945782D01*
X176684672Y-69927474D01*
X176684926Y-69923890D01*
X176686302Y-69920570D01*
X176688223Y-69901061D01*
X176688223Y-69520109D01*
X176869176Y-69520109D01*
X176869176Y-69615347D01*
X176871097Y-69634856D01*
X176874846Y-69643908D01*
X176876748Y-69653519D01*
X176882240Y-69661757D01*
X176886029Y-69670904D01*
X176892955Y-69677830D01*
X176898391Y-69685984D01*
X176906619Y-69691494D01*
X176913619Y-69698494D01*
X176922670Y-69702243D01*
X176930811Y-69707695D01*
X176949564Y-69713405D01*
X176949665Y-69713425D01*
X176949667Y-69713426D01*
X176949669Y-69713426D01*
X177345366Y-69792565D01*
X177345366Y-69877454D01*
X177323211Y-69921763D01*
X177278902Y-69943919D01*
X177135640Y-69943919D01*
X177061516Y-69906857D01*
X177043208Y-69899851D01*
X177004288Y-69897085D01*
X176967272Y-69909424D01*
X176937795Y-69934988D01*
X176920346Y-69969887D01*
X176917580Y-70008807D01*
X176929919Y-70045823D01*
X176955483Y-70075300D01*
X176972074Y-70085743D01*
X177067311Y-70133362D01*
X177085620Y-70140368D01*
X177089203Y-70140622D01*
X177092524Y-70141998D01*
X177112033Y-70143919D01*
X177302509Y-70143919D01*
X177322018Y-70141998D01*
X177325338Y-70140622D01*
X177328922Y-70140368D01*
X177347230Y-70133362D01*
X177442468Y-70085743D01*
X177445730Y-70083689D01*
X177447270Y-70083176D01*
X177449186Y-70081513D01*
X177459058Y-70075300D01*
X177467273Y-70065826D01*
X177476747Y-70057611D01*
X177482960Y-70047739D01*
X177484623Y-70045823D01*
X177485135Y-70044284D01*
X177487190Y-70041021D01*
X177534809Y-69945782D01*
X177541815Y-69927474D01*
X177542069Y-69923890D01*
X177543445Y-69920570D01*
X177545366Y-69901061D01*
X177545366Y-69520109D01*
X177543445Y-69500600D01*
X177542069Y-69497279D01*
X177541815Y-69493696D01*
X177534809Y-69475387D01*
X177487190Y-69380150D01*
X177485135Y-69376886D01*
X177484623Y-69375348D01*
X177482961Y-69373432D01*
X177476747Y-69363559D01*
X177467271Y-69355341D01*
X177459058Y-69345871D01*
X177449186Y-69339657D01*
X177447270Y-69337995D01*
X177445731Y-69337481D01*
X177442468Y-69335428D01*
X177347230Y-69287809D01*
X177328922Y-69280803D01*
X177325338Y-69280548D01*
X177322018Y-69279173D01*
X177302509Y-69277252D01*
X177112033Y-69277252D01*
X177092524Y-69279173D01*
X177089203Y-69280548D01*
X177085620Y-69280803D01*
X177067311Y-69287809D01*
X176972074Y-69335428D01*
X176968810Y-69337482D01*
X176967272Y-69337995D01*
X176965356Y-69339656D01*
X176955483Y-69345871D01*
X176947265Y-69355346D01*
X176937795Y-69363560D01*
X176931581Y-69373431D01*
X176929919Y-69375348D01*
X176929405Y-69376886D01*
X176927352Y-69380150D01*
X176879733Y-69475388D01*
X176872727Y-69493696D01*
X176872472Y-69497279D01*
X176871097Y-69500600D01*
X176869176Y-69520109D01*
X176688223Y-69520109D01*
X176686302Y-69500600D01*
X176684926Y-69497279D01*
X176684672Y-69493696D01*
X176677666Y-69475387D01*
X176630047Y-69380150D01*
X176627992Y-69376886D01*
X176627480Y-69375348D01*
X176625818Y-69373432D01*
X176619604Y-69363559D01*
X176610128Y-69355341D01*
X176601915Y-69345871D01*
X176592043Y-69339657D01*
X176590127Y-69337995D01*
X176588588Y-69337481D01*
X176585325Y-69335428D01*
X176490087Y-69287809D01*
X176471779Y-69280803D01*
X176468195Y-69280548D01*
X176464875Y-69279173D01*
X176445366Y-69277252D01*
X176254890Y-69277252D01*
X176235381Y-69279173D01*
X176232060Y-69280548D01*
X176228477Y-69280803D01*
X176210168Y-69287809D01*
X176114931Y-69335428D01*
X176111667Y-69337482D01*
X176110129Y-69337995D01*
X176108213Y-69339656D01*
X176098340Y-69345871D01*
X176090122Y-69355346D01*
X176080652Y-69363560D01*
X176074438Y-69373431D01*
X176072776Y-69375348D01*
X176072262Y-69376886D01*
X176070209Y-69380150D01*
X176022590Y-69475388D01*
X176015584Y-69493696D01*
X176015329Y-69497279D01*
X176013954Y-69500600D01*
X176012033Y-69520109D01*
X175783461Y-69520109D01*
X175783461Y-69477252D01*
X175826318Y-69477252D01*
X175845827Y-69475331D01*
X175881875Y-69460399D01*
X175909465Y-69432809D01*
X175924397Y-69396761D01*
X175924397Y-69357743D01*
X175909465Y-69321695D01*
X175881875Y-69294105D01*
X175845827Y-69279173D01*
X175826318Y-69277252D01*
X175783461Y-69277252D01*
X175783461Y-69043919D01*
X177773938Y-69043919D01*
X177773938Y-70043919D01*
X177775859Y-70063428D01*
X177790791Y-70099476D01*
X177818381Y-70127066D01*
X177854429Y-70141998D01*
X177893447Y-70141998D01*
X177929495Y-70127066D01*
X177957085Y-70099476D01*
X177972017Y-70063428D01*
X177973938Y-70043919D01*
X177973938Y-69620109D01*
X178345366Y-69620109D01*
X178345366Y-70043919D01*
X178347287Y-70063428D01*
X178362219Y-70099476D01*
X178389809Y-70127066D01*
X178425857Y-70141998D01*
X178464875Y-70141998D01*
X178500923Y-70127066D01*
X178528513Y-70099476D01*
X178543445Y-70063428D01*
X178545366Y-70043919D01*
X178545366Y-69976791D01*
X178775858Y-69976791D01*
X178775858Y-70015809D01*
X178782321Y-70031412D01*
X178790790Y-70051858D01*
X178790794Y-70051862D01*
X178803226Y-70067011D01*
X178850845Y-70114629D01*
X178865998Y-70127066D01*
X178875001Y-70130795D01*
X178902047Y-70141998D01*
X178941065Y-70141998D01*
X178977113Y-70127066D01*
X178992267Y-70114630D01*
X179039885Y-70067011D01*
X179052322Y-70051858D01*
X179059074Y-70035556D01*
X179067253Y-70015810D01*
X179067254Y-69976792D01*
X179052323Y-69940743D01*
X179039886Y-69925590D01*
X178992267Y-69877970D01*
X178977114Y-69865533D01*
X178954920Y-69856340D01*
X178952520Y-69855346D01*
X178941065Y-69850601D01*
X178902047Y-69850601D01*
X178891489Y-69854974D01*
X178865999Y-69865532D01*
X178865998Y-69865533D01*
X178850844Y-69877970D01*
X178803226Y-69925590D01*
X178790789Y-69940743D01*
X178781831Y-69962372D01*
X178775858Y-69976791D01*
X178545366Y-69976791D01*
X178545366Y-69472490D01*
X179250128Y-69472490D01*
X179250128Y-69615347D01*
X179250463Y-69618749D01*
X179250246Y-69620208D01*
X179251325Y-69627505D01*
X179252049Y-69634856D01*
X179252613Y-69636219D01*
X179253114Y-69639601D01*
X179300733Y-69830076D01*
X179301246Y-69831513D01*
X179301298Y-69832236D01*
X179304406Y-69840360D01*
X179307328Y-69848537D01*
X179307758Y-69849117D01*
X179308304Y-69850544D01*
X179355923Y-69945782D01*
X179361205Y-69954174D01*
X179362218Y-69956618D01*
X179364474Y-69959367D01*
X179366366Y-69962372D01*
X179368360Y-69964101D01*
X179374655Y-69971771D01*
X179469893Y-70067011D01*
X179485046Y-70079447D01*
X179488365Y-70080822D01*
X179491081Y-70083177D01*
X179508981Y-70091168D01*
X179651838Y-70138787D01*
X179661510Y-70140986D01*
X179663952Y-70141998D01*
X179667489Y-70142346D01*
X179670953Y-70143134D01*
X179673587Y-70142946D01*
X179683461Y-70143919D01*
X179921556Y-70143919D01*
X179941065Y-70141998D01*
X179977113Y-70127066D01*
X180004703Y-70099476D01*
X180019635Y-70063428D01*
X180021556Y-70043919D01*
X180021556Y-69043919D01*
X180019635Y-69024410D01*
X180004703Y-68988362D01*
X179977113Y-68960772D01*
X179941065Y-68945840D01*
X179921556Y-68943919D01*
X179683461Y-68943919D01*
X179673587Y-68944891D01*
X179670953Y-68944704D01*
X179667489Y-68945491D01*
X179663952Y-68945840D01*
X179661510Y-68946851D01*
X179651838Y-68949051D01*
X179508981Y-68996670D01*
X179491081Y-69004661D01*
X179488365Y-69007016D01*
X179485047Y-69008391D01*
X179469893Y-69020827D01*
X179374655Y-69116065D01*
X179368360Y-69123735D01*
X179366366Y-69125465D01*
X179364472Y-69128472D01*
X179362219Y-69131219D01*
X179361208Y-69133658D01*
X179355923Y-69142055D01*
X179308304Y-69237293D01*
X179307758Y-69238719D01*
X179307328Y-69239300D01*
X179304406Y-69247476D01*
X179301298Y-69255601D01*
X179301246Y-69256323D01*
X179300733Y-69257761D01*
X179253114Y-69448236D01*
X179252613Y-69451617D01*
X179252049Y-69452981D01*
X179251325Y-69460331D01*
X179250246Y-69467629D01*
X179250463Y-69469087D01*
X179250128Y-69472490D01*
X178545366Y-69472490D01*
X178545366Y-69043919D01*
X178543445Y-69024410D01*
X178528513Y-68988362D01*
X178500923Y-68960772D01*
X178464875Y-68945840D01*
X178425857Y-68945840D01*
X178389809Y-68960772D01*
X178362219Y-68988362D01*
X178347287Y-69024410D01*
X178345366Y-69043919D01*
X178345366Y-69420109D01*
X177973938Y-69420109D01*
X177973938Y-69043919D01*
X177972017Y-69024410D01*
X177957085Y-68988362D01*
X177929495Y-68960772D01*
X177893447Y-68945840D01*
X177854429Y-68945840D01*
X177818381Y-68960772D01*
X177790791Y-68988362D01*
X177775859Y-69024410D01*
X177773938Y-69043919D01*
X175783461Y-69043919D01*
X175781540Y-69024410D01*
X175766608Y-68988362D01*
X175739018Y-68960772D01*
X175702970Y-68945840D01*
X175663952Y-68945840D01*
X175627904Y-68960772D01*
X175600314Y-68988362D01*
X175585382Y-69024410D01*
X175583461Y-69043919D01*
X175583461Y-69277252D01*
X175445366Y-69277252D01*
X175425857Y-69279173D01*
X175389809Y-69294105D01*
X175362219Y-69321695D01*
X175347287Y-69357743D01*
X175212032Y-69357743D01*
X175212032Y-69043919D01*
X175210111Y-69024410D01*
X175195179Y-68988362D01*
X175167589Y-68960772D01*
X175131541Y-68945840D01*
X175092523Y-68945840D01*
X175056475Y-68960772D01*
X175028885Y-68988362D01*
X175013953Y-69024410D01*
X175012032Y-69043919D01*
X175012032Y-69516782D01*
X174801791Y-69306541D01*
X174786637Y-69294105D01*
X174750589Y-69279173D01*
X174711571Y-69279173D01*
X174675523Y-69294105D01*
X174647933Y-69321695D01*
X174633001Y-69357743D01*
X174633001Y-69396761D01*
X174647933Y-69432809D01*
X174660369Y-69447963D01*
X174884756Y-69672349D01*
X174651080Y-69983919D01*
X174640911Y-70000679D01*
X174631228Y-70038477D01*
X174393223Y-70038477D01*
X174439570Y-69945782D01*
X174446576Y-69927474D01*
X174446830Y-69923890D01*
X174448206Y-69920570D01*
X174450127Y-69901061D01*
X174450127Y-69805823D01*
X174448206Y-69786314D01*
X174446830Y-69782993D01*
X174446576Y-69779410D01*
X174439570Y-69761101D01*
X174391951Y-69665864D01*
X174389896Y-69662600D01*
X174389384Y-69661062D01*
X174387722Y-69659146D01*
X174381508Y-69649273D01*
X174372032Y-69641055D01*
X174363819Y-69631585D01*
X174353947Y-69625371D01*
X174352031Y-69623709D01*
X174350492Y-69623195D01*
X174347229Y-69621142D01*
X174251991Y-69573523D01*
X174233683Y-69566517D01*
X174230099Y-69566262D01*
X174226779Y-69564887D01*
X174207270Y-69562966D01*
X173992782Y-69562966D01*
X173973937Y-69553543D01*
X173973937Y-69543716D01*
X173996092Y-69499406D01*
X174040401Y-69477252D01*
X174183663Y-69477252D01*
X174257786Y-69514314D01*
X174276095Y-69521320D01*
X174315015Y-69524086D01*
X174352031Y-69511747D01*
X174381508Y-69486182D01*
X174398957Y-69451284D01*
X174401722Y-69412364D01*
X174389384Y-69375348D01*
X174363819Y-69345871D01*
X174347229Y-69335428D01*
X174251991Y-69287809D01*
X174233683Y-69280803D01*
X174230099Y-69280548D01*
X174226779Y-69279173D01*
X174207270Y-69277252D01*
X174016794Y-69277252D01*
X173997285Y-69279173D01*
X173993964Y-69280548D01*
X173990381Y-69280803D01*
X173972072Y-69287809D01*
X173876835Y-69335428D01*
X173873571Y-69337482D01*
X173872033Y-69337995D01*
X173870117Y-69339656D01*
X173860244Y-69345871D01*
X173852026Y-69355346D01*
X173842556Y-69363560D01*
X173836342Y-69373431D01*
X173834680Y-69375348D01*
X173834166Y-69376886D01*
X173832113Y-69380150D01*
X173784494Y-69475388D01*
X173777488Y-69493696D01*
X173777233Y-69497279D01*
X173775858Y-69500600D01*
X173773937Y-69520109D01*
X173497746Y-69520109D01*
X173497746Y-69377252D01*
X173495825Y-69357743D01*
X173480893Y-69321695D01*
X173453303Y-69294105D01*
X173417255Y-69279173D01*
X173378237Y-69279173D01*
X173342189Y-69294105D01*
X173332193Y-69304100D01*
X173299610Y-69287809D01*
X173281302Y-69280803D01*
X173277718Y-69280548D01*
X173274398Y-69279173D01*
X173254889Y-69277252D01*
X173112032Y-69277252D01*
X173092523Y-69279173D01*
X173089202Y-69280548D01*
X173085619Y-69280803D01*
X173067310Y-69287809D01*
X172972073Y-69335428D01*
X172969174Y-69337252D01*
X172966277Y-69335428D01*
X172871039Y-69287809D01*
X172852731Y-69280803D01*
X172849147Y-69280548D01*
X172845827Y-69279173D01*
X172826318Y-69277252D01*
X172683461Y-69277252D01*
X172663952Y-69279173D01*
X172660631Y-69280548D01*
X172657048Y-69280803D01*
X172638740Y-69287809D01*
X172543501Y-69335428D01*
X172540237Y-69337482D01*
X172538699Y-69337995D01*
X172536782Y-69339657D01*
X172526911Y-69345871D01*
X172518695Y-69355344D01*
X172509222Y-69363560D01*
X172503008Y-69373431D01*
X172501346Y-69375348D01*
X172500832Y-69376887D01*
X172498779Y-69380150D01*
X172451160Y-69475388D01*
X172444154Y-69493696D01*
X172443899Y-69497279D01*
X172442524Y-69500600D01*
X172440603Y-69520109D01*
X172164413Y-69520109D01*
X172164413Y-69377252D01*
X172162492Y-69357743D01*
X172147560Y-69321695D01*
X172119970Y-69294105D01*
X172083922Y-69279173D01*
X172044904Y-69279173D01*
X172018499Y-69290110D01*
X172013896Y-69287809D01*
X171995588Y-69280803D01*
X171992004Y-69280548D01*
X171988684Y-69279173D01*
X171969175Y-69277252D01*
X171778699Y-69277252D01*
X171759190Y-69279173D01*
X171755869Y-69280548D01*
X171752286Y-69280803D01*
X171733977Y-69287809D01*
X171638740Y-69335428D01*
X171630343Y-69340713D01*
X171627903Y-69341724D01*
X171625157Y-69343977D01*
X171622149Y-69345871D01*
X171620416Y-69347868D01*
X171612750Y-69354161D01*
X171565131Y-69401779D01*
X171558836Y-69409449D01*
X171556842Y-69411179D01*
X171554948Y-69414186D01*
X171552695Y-69416933D01*
X171551684Y-69419372D01*
X171546399Y-69427769D01*
X171498780Y-69523007D01*
X171491774Y-69541315D01*
X171491519Y-69544898D01*
X171490144Y-69548219D01*
X171488223Y-69567728D01*
X168567587Y-69567728D01*
X168567587Y-67910165D01*
X168678698Y-67910165D01*
X168678698Y-68005403D01*
X168680619Y-68024912D01*
X168684368Y-68033964D01*
X168686270Y-68043575D01*
X168691762Y-68051813D01*
X168695551Y-68060960D01*
X168702477Y-68067886D01*
X168707913Y-68076040D01*
X168716141Y-68081550D01*
X168723141Y-68088550D01*
X168732192Y-68092299D01*
X168740333Y-68097751D01*
X168759086Y-68103461D01*
X168759187Y-68103481D01*
X168759189Y-68103482D01*
X168759191Y-68103482D01*
X169154888Y-68182621D01*
X169154888Y-68267510D01*
X169132733Y-68311819D01*
X169088424Y-68333975D01*
X168945162Y-68333975D01*
X168871038Y-68296913D01*
X168852730Y-68289907D01*
X168813810Y-68287141D01*
X168776794Y-68299480D01*
X168747317Y-68325044D01*
X168729868Y-68359943D01*
X168727102Y-68398863D01*
X168739441Y-68435879D01*
X168765005Y-68465356D01*
X168781596Y-68475799D01*
X168876833Y-68523418D01*
X168895142Y-68530424D01*
X168898725Y-68530678D01*
X168902046Y-68532054D01*
X168921555Y-68533975D01*
X169112031Y-68533975D01*
X169131540Y-68532054D01*
X169134860Y-68530678D01*
X169138444Y-68530424D01*
X169156752Y-68523418D01*
X169251990Y-68475799D01*
X169255252Y-68473745D01*
X169256792Y-68473232D01*
X169258708Y-68471569D01*
X169268580Y-68465356D01*
X169276795Y-68455882D01*
X169286269Y-68447667D01*
X169292482Y-68437795D01*
X169294145Y-68435879D01*
X169294657Y-68434340D01*
X169296712Y-68431077D01*
X169301516Y-68421468D01*
X169489007Y-68421468D01*
X169491773Y-68460388D01*
X169509222Y-68495287D01*
X169538699Y-68520851D01*
X169575715Y-68533190D01*
X169614635Y-68530424D01*
X169632943Y-68523418D01*
X169728181Y-68475799D01*
X169731443Y-68473745D01*
X169732983Y-68473232D01*
X169734899Y-68471569D01*
X169744771Y-68465356D01*
X169752986Y-68455882D01*
X169762460Y-68447667D01*
X169768673Y-68437795D01*
X169770336Y-68435879D01*
X169770848Y-68434340D01*
X169772903Y-68431077D01*
X169820522Y-68335838D01*
X169827528Y-68317530D01*
X169827782Y-68313946D01*
X169829158Y-68310626D01*
X169831079Y-68291117D01*
X169831079Y-67767308D01*
X170107270Y-67767308D01*
X170107270Y-68433975D01*
X170109191Y-68453484D01*
X170124123Y-68489532D01*
X170151713Y-68517122D01*
X170187761Y-68532054D01*
X170226779Y-68532054D01*
X170262827Y-68517122D01*
X170272822Y-68507126D01*
X170305405Y-68523418D01*
X170323714Y-68530424D01*
X170327297Y-68530678D01*
X170330618Y-68532054D01*
X170350127Y-68533975D01*
X170492984Y-68533975D01*
X170512493Y-68532054D01*
X170515813Y-68530678D01*
X170519397Y-68530424D01*
X170537705Y-68523418D01*
X170632943Y-68475799D01*
X170636205Y-68473745D01*
X170637745Y-68473232D01*
X170639661Y-68471569D01*
X170649533Y-68465356D01*
X170657748Y-68455882D01*
X170667222Y-68447667D01*
X170673435Y-68437795D01*
X170675098Y-68435879D01*
X170675610Y-68434340D01*
X170677665Y-68431077D01*
X170725284Y-68335838D01*
X170732290Y-68317530D01*
X170732544Y-68313946D01*
X170733920Y-68310626D01*
X170735841Y-68291117D01*
X170735841Y-67767308D01*
X170733920Y-67747799D01*
X170718988Y-67711751D01*
X170691398Y-67684161D01*
X170655350Y-67669229D01*
X170616332Y-67669229D01*
X170580284Y-67684161D01*
X170552694Y-67711751D01*
X170537762Y-67747799D01*
X170535841Y-67767308D01*
X170535841Y-68267510D01*
X170513686Y-68311819D01*
X170469377Y-68333975D01*
X170373734Y-68333975D01*
X170314124Y-68304170D01*
X170307270Y-68297315D01*
X170307270Y-67767308D01*
X170305349Y-67747799D01*
X170290417Y-67711751D01*
X170262827Y-67684161D01*
X170226779Y-67669229D01*
X170187761Y-67669229D01*
X170151713Y-67684161D01*
X170124123Y-67711751D01*
X170109191Y-67747799D01*
X170107270Y-67767308D01*
X169831079Y-67767308D01*
X169831079Y-67433975D01*
X171012032Y-67433975D01*
X171012032Y-68433975D01*
X171013953Y-68453484D01*
X171028885Y-68489532D01*
X171056475Y-68517122D01*
X171092523Y-68532054D01*
X171131541Y-68532054D01*
X171157945Y-68521116D01*
X171162548Y-68523418D01*
X171180857Y-68530424D01*
X171184440Y-68530678D01*
X171187761Y-68532054D01*
X171207270Y-68533975D01*
X171397746Y-68533975D01*
X171417255Y-68532054D01*
X171420575Y-68530678D01*
X171424159Y-68530424D01*
X171442467Y-68523418D01*
X171537705Y-68475799D01*
X171546100Y-68470514D01*
X171548542Y-68469503D01*
X171551289Y-68467247D01*
X171554295Y-68465356D01*
X171556025Y-68463361D01*
X171563695Y-68457066D01*
X171611314Y-68409446D01*
X171617606Y-68401779D01*
X171619603Y-68400048D01*
X171621496Y-68397040D01*
X171623751Y-68394293D01*
X171624762Y-68391851D01*
X171630046Y-68383457D01*
X171677665Y-68288220D01*
X171684671Y-68269911D01*
X171684925Y-68266327D01*
X171686301Y-68263007D01*
X171688222Y-68243498D01*
X171688222Y-67957784D01*
X171869175Y-67957784D01*
X171869175Y-68243498D01*
X171871096Y-68263007D01*
X171872471Y-68266327D01*
X171872726Y-68269911D01*
X171879732Y-68288219D01*
X171927351Y-68383457D01*
X171932634Y-68391849D01*
X171933646Y-68394293D01*
X171935902Y-68397042D01*
X171937794Y-68400047D01*
X171939788Y-68401776D01*
X171946083Y-68409446D01*
X171993701Y-68457066D01*
X172001369Y-68463359D01*
X172003101Y-68465356D01*
X172006109Y-68467249D01*
X172008855Y-68469503D01*
X172011295Y-68470513D01*
X172019692Y-68475799D01*
X172114929Y-68523418D01*
X172133238Y-68530424D01*
X172136821Y-68530678D01*
X172140142Y-68532054D01*
X172159651Y-68533975D01*
X172302508Y-68533975D01*
X172322017Y-68532054D01*
X172325337Y-68530678D01*
X172328921Y-68530424D01*
X172347229Y-68523418D01*
X172442467Y-68475799D01*
X172450862Y-68470514D01*
X172453304Y-68469503D01*
X172456051Y-68467247D01*
X172459057Y-68465356D01*
X172460787Y-68463361D01*
X172468457Y-68457066D01*
X172516076Y-68409446D01*
X172522368Y-68401779D01*
X172524365Y-68400048D01*
X172526258Y-68397040D01*
X172528513Y-68394293D01*
X172529524Y-68391851D01*
X172534808Y-68383457D01*
X172582427Y-68288220D01*
X172589433Y-68269911D01*
X172589687Y-68266327D01*
X172591063Y-68263007D01*
X172592984Y-68243498D01*
X172592984Y-67957784D01*
X172591063Y-67938275D01*
X172589687Y-67934954D01*
X172589433Y-67931371D01*
X172582427Y-67913062D01*
X172534808Y-67817825D01*
X172529522Y-67809428D01*
X172528512Y-67806988D01*
X172526258Y-67804242D01*
X172524365Y-67801234D01*
X172522367Y-67799501D01*
X172516075Y-67791835D01*
X172468457Y-67744216D01*
X172460786Y-67737921D01*
X172459057Y-67735927D01*
X172456049Y-67734033D01*
X172453303Y-67731780D01*
X172450863Y-67730769D01*
X172442467Y-67725484D01*
X172347229Y-67677865D01*
X172328921Y-67670859D01*
X172325337Y-67670604D01*
X172322017Y-67669229D01*
X172302508Y-67667308D01*
X172159651Y-67667308D01*
X172140142Y-67669229D01*
X172136821Y-67670604D01*
X172133238Y-67670859D01*
X172114929Y-67677865D01*
X172019692Y-67725484D01*
X172011295Y-67730769D01*
X172008855Y-67731780D01*
X172006109Y-67734033D01*
X172003101Y-67735927D01*
X172001368Y-67737924D01*
X171993702Y-67744217D01*
X171946083Y-67791835D01*
X171939788Y-67799505D01*
X171937794Y-67801235D01*
X171935900Y-67804242D01*
X171933647Y-67806989D01*
X171932636Y-67809428D01*
X171927351Y-67817825D01*
X171879732Y-67913063D01*
X171872726Y-67931371D01*
X171872471Y-67934954D01*
X171871096Y-67938275D01*
X171869175Y-67957784D01*
X171688222Y-67957784D01*
X171686301Y-67938275D01*
X171684925Y-67934954D01*
X171684671Y-67931371D01*
X171677665Y-67913062D01*
X171630046Y-67817825D01*
X171624760Y-67809428D01*
X171623750Y-67806988D01*
X171621496Y-67804242D01*
X171619603Y-67801234D01*
X171617605Y-67799501D01*
X171611313Y-67791835D01*
X171563695Y-67744216D01*
X171556024Y-67737921D01*
X171554295Y-67735927D01*
X171551287Y-67734033D01*
X171548541Y-67731780D01*
X171546101Y-67730769D01*
X171537705Y-67725484D01*
X171442467Y-67677865D01*
X171424159Y-67670859D01*
X171420575Y-67670604D01*
X171417255Y-67669229D01*
X171397746Y-67667308D01*
X171212032Y-67667308D01*
X171212032Y-67433975D01*
X172821556Y-67433975D01*
X172821556Y-68433975D01*
X172823477Y-68453484D01*
X172838409Y-68489532D01*
X172865999Y-68517122D01*
X172902047Y-68532054D01*
X172941065Y-68532054D01*
X172977113Y-68517122D01*
X173004703Y-68489532D01*
X173019635Y-68453484D01*
X173021556Y-68433975D01*
X173021556Y-67884731D01*
X173164271Y-68190549D01*
X173168503Y-68197694D01*
X173169383Y-68200112D01*
X173170948Y-68201821D01*
X173174262Y-68207415D01*
X173185472Y-68217681D01*
X173195734Y-68228887D01*
X173199759Y-68230765D01*
X173203037Y-68233767D01*
X173217319Y-68238960D01*
X173231092Y-68245388D01*
X173235531Y-68245583D01*
X173239706Y-68247101D01*
X173254889Y-68246433D01*
X173270072Y-68247101D01*
X173274245Y-68245583D01*
X173278687Y-68245388D01*
X173292471Y-68238955D01*
X173306741Y-68233766D01*
X173310014Y-68230768D01*
X173314044Y-68228888D01*
X173324313Y-68217673D01*
X173335516Y-68207415D01*
X173338827Y-68201824D01*
X173340396Y-68200112D01*
X173341276Y-68197690D01*
X173345507Y-68190549D01*
X173488222Y-67884730D01*
X173488222Y-68433975D01*
X173490143Y-68453484D01*
X173505075Y-68489532D01*
X173532665Y-68517122D01*
X173568713Y-68532054D01*
X173607731Y-68532054D01*
X173643779Y-68517122D01*
X173671369Y-68489532D01*
X173686301Y-68453484D01*
X173688222Y-68433975D01*
X173688222Y-67957784D01*
X174678699Y-67957784D01*
X174678699Y-68243498D01*
X174680620Y-68263007D01*
X174681995Y-68266327D01*
X174682250Y-68269911D01*
X174689256Y-68288219D01*
X174736875Y-68383457D01*
X174742158Y-68391849D01*
X174743170Y-68394293D01*
X174745426Y-68397042D01*
X174747318Y-68400047D01*
X174749312Y-68401776D01*
X174755607Y-68409446D01*
X174803225Y-68457066D01*
X174810893Y-68463359D01*
X174812625Y-68465356D01*
X174815633Y-68467249D01*
X174818379Y-68469503D01*
X174820819Y-68470513D01*
X174829216Y-68475799D01*
X174924453Y-68523418D01*
X174942762Y-68530424D01*
X174946345Y-68530678D01*
X174949666Y-68532054D01*
X174969175Y-68533975D01*
X175112032Y-68533975D01*
X175131541Y-68532054D01*
X175134861Y-68530678D01*
X175138445Y-68530424D01*
X175156753Y-68523418D01*
X175251991Y-68475799D01*
X175260386Y-68470514D01*
X175262828Y-68469503D01*
X175265575Y-68467247D01*
X175268581Y-68465356D01*
X175270311Y-68463361D01*
X175277981Y-68457066D01*
X175325600Y-68409446D01*
X175331892Y-68401779D01*
X175333889Y-68400048D01*
X175335782Y-68397040D01*
X175338037Y-68394293D01*
X175339048Y-68391851D01*
X175344332Y-68383457D01*
X175391951Y-68288220D01*
X175398957Y-68269911D01*
X175399211Y-68266327D01*
X175400587Y-68263007D01*
X175402508Y-68243498D01*
X175402508Y-67957784D01*
X175400587Y-67938275D01*
X175399211Y-67934954D01*
X175398957Y-67931371D01*
X175391951Y-67913062D01*
X175390502Y-67910165D01*
X175631080Y-67910165D01*
X175631080Y-68433975D01*
X175633001Y-68453484D01*
X175647933Y-68489532D01*
X175675523Y-68517122D01*
X175711571Y-68532054D01*
X175750589Y-68532054D01*
X175786637Y-68517122D01*
X175814227Y-68489532D01*
X175829159Y-68453484D01*
X175831080Y-68433975D01*
X175831080Y-67933772D01*
X175853235Y-67889462D01*
X175897544Y-67867308D01*
X175993187Y-67867308D01*
X176052796Y-67897113D01*
X176059651Y-67903967D01*
X176059651Y-68433975D01*
X176061572Y-68453484D01*
X176076504Y-68489532D01*
X176104094Y-68517122D01*
X176140142Y-68532054D01*
X176179160Y-68532054D01*
X176215208Y-68517122D01*
X176242798Y-68489532D01*
X176257730Y-68453484D01*
X176259651Y-68433975D01*
X176259651Y-67767308D01*
X176535841Y-67767308D01*
X176535841Y-68433975D01*
X176537762Y-68453484D01*
X176552694Y-68489532D01*
X176580284Y-68517122D01*
X176616332Y-68532054D01*
X176655350Y-68532054D01*
X176691398Y-68517122D01*
X176718988Y-68489532D01*
X176733920Y-68453484D01*
X176735841Y-68433975D01*
X176735841Y-67767308D01*
X177012032Y-67767308D01*
X177012032Y-68433975D01*
X177013953Y-68453484D01*
X177028885Y-68489532D01*
X177056475Y-68517122D01*
X177092523Y-68532054D01*
X177131541Y-68532054D01*
X177167589Y-68517122D01*
X177177584Y-68507126D01*
X177210167Y-68523418D01*
X177228476Y-68530424D01*
X177232059Y-68530678D01*
X177235380Y-68532054D01*
X177254889Y-68533975D01*
X177397746Y-68533975D01*
X177417255Y-68532054D01*
X177420575Y-68530678D01*
X177424159Y-68530424D01*
X177442467Y-68523418D01*
X177537705Y-68475799D01*
X177540967Y-68473745D01*
X177542507Y-68473232D01*
X177544423Y-68471569D01*
X177554295Y-68465356D01*
X177562510Y-68455882D01*
X177571984Y-68447667D01*
X177578197Y-68437795D01*
X177579860Y-68435879D01*
X177580372Y-68434340D01*
X177582427Y-68431077D01*
X177630046Y-68335838D01*
X177637052Y-68317530D01*
X177637306Y-68313946D01*
X177638682Y-68310626D01*
X177640603Y-68291117D01*
X177640603Y-67767308D01*
X177638682Y-67747799D01*
X177623750Y-67711751D01*
X177596160Y-67684161D01*
X177560112Y-67669229D01*
X177521094Y-67669229D01*
X177485046Y-67684161D01*
X177457456Y-67711751D01*
X177442524Y-67747799D01*
X177440603Y-67767308D01*
X177440603Y-68267510D01*
X177418448Y-68311819D01*
X177374139Y-68333975D01*
X177278496Y-68333975D01*
X177218886Y-68304170D01*
X177212032Y-68297315D01*
X177212032Y-67767308D01*
X177210111Y-67747799D01*
X177195179Y-67711751D01*
X177167589Y-67684161D01*
X177131541Y-67669229D01*
X177092523Y-67669229D01*
X177056475Y-67684161D01*
X177028885Y-67711751D01*
X177013953Y-67747799D01*
X177012032Y-67767308D01*
X176735841Y-67767308D01*
X176733920Y-67747799D01*
X176718988Y-67711751D01*
X176691398Y-67684161D01*
X176655350Y-67669229D01*
X176616332Y-67669229D01*
X176580284Y-67684161D01*
X176552694Y-67711751D01*
X176537762Y-67747799D01*
X176535841Y-67767308D01*
X176259651Y-67767308D01*
X176257730Y-67747799D01*
X176242798Y-67711751D01*
X176215208Y-67684161D01*
X176179160Y-67669229D01*
X176140142Y-67669229D01*
X176104094Y-67684161D01*
X176094098Y-67694156D01*
X176061515Y-67677865D01*
X176043207Y-67670859D01*
X176039623Y-67670604D01*
X176036303Y-67669229D01*
X176016794Y-67667308D01*
X175873937Y-67667308D01*
X175854428Y-67669229D01*
X175851107Y-67670604D01*
X175847524Y-67670859D01*
X175829215Y-67677865D01*
X175733978Y-67725484D01*
X175730714Y-67727538D01*
X175729176Y-67728051D01*
X175727260Y-67729712D01*
X175717387Y-67735927D01*
X175709169Y-67745402D01*
X175699699Y-67753616D01*
X175693485Y-67763487D01*
X175691823Y-67765404D01*
X175691309Y-67766942D01*
X175689256Y-67770206D01*
X175641637Y-67865444D01*
X175634631Y-67883752D01*
X175634376Y-67887335D01*
X175633001Y-67890656D01*
X175631080Y-67910165D01*
X175390502Y-67910165D01*
X175344332Y-67817825D01*
X175339046Y-67809428D01*
X175338036Y-67806988D01*
X175335782Y-67804242D01*
X175333889Y-67801234D01*
X175331891Y-67799501D01*
X175325599Y-67791835D01*
X175277981Y-67744216D01*
X175270310Y-67737921D01*
X175268581Y-67735927D01*
X175265573Y-67734033D01*
X175262827Y-67731780D01*
X175260387Y-67730769D01*
X175251991Y-67725484D01*
X175156753Y-67677865D01*
X175138445Y-67670859D01*
X175134861Y-67670604D01*
X175131541Y-67669229D01*
X175112032Y-67667308D01*
X174969175Y-67667308D01*
X174949666Y-67669229D01*
X174946345Y-67670604D01*
X174942762Y-67670859D01*
X174924453Y-67677865D01*
X174829216Y-67725484D01*
X174820819Y-67730769D01*
X174818379Y-67731780D01*
X174815633Y-67734033D01*
X174812625Y-67735927D01*
X174810892Y-67737924D01*
X174803226Y-67744217D01*
X174755607Y-67791835D01*
X174749312Y-67799505D01*
X174747318Y-67801235D01*
X174745424Y-67804242D01*
X174743171Y-67806989D01*
X174742160Y-67809428D01*
X174736875Y-67817825D01*
X174689256Y-67913063D01*
X174682250Y-67931371D01*
X174681995Y-67934954D01*
X174680620Y-67938275D01*
X174678699Y-67957784D01*
X173688222Y-67957784D01*
X173688222Y-67462085D01*
X176490143Y-67462085D01*
X176490143Y-67501103D01*
X176505075Y-67537151D01*
X176517511Y-67552305D01*
X176565130Y-67599923D01*
X176580283Y-67612360D01*
X176590841Y-67616733D01*
X176616332Y-67627292D01*
X176655350Y-67627292D01*
X176691398Y-67612360D01*
X176706552Y-67599924D01*
X176754170Y-67552305D01*
X176766607Y-67537152D01*
X176781538Y-67501103D01*
X176781538Y-67462085D01*
X176779752Y-67457772D01*
X176769895Y-67433975D01*
X177916794Y-67433975D01*
X177916794Y-68433975D01*
X177918715Y-68453484D01*
X177933647Y-68489532D01*
X177961237Y-68517122D01*
X177997285Y-68532054D01*
X178036303Y-68532054D01*
X178062707Y-68521116D01*
X178067310Y-68523418D01*
X178085619Y-68530424D01*
X178089202Y-68530678D01*
X178092523Y-68532054D01*
X178112032Y-68533975D01*
X178302508Y-68533975D01*
X178322017Y-68532054D01*
X178325337Y-68530678D01*
X178328921Y-68530424D01*
X178347229Y-68523418D01*
X178442467Y-68475799D01*
X178450862Y-68470514D01*
X178453304Y-68469503D01*
X178456051Y-68467247D01*
X178459057Y-68465356D01*
X178460787Y-68463361D01*
X178468457Y-68457066D01*
X178516076Y-68409446D01*
X178522368Y-68401779D01*
X178524365Y-68400048D01*
X178526258Y-68397040D01*
X178528513Y-68394293D01*
X178529524Y-68391851D01*
X178534808Y-68383457D01*
X178582427Y-68288220D01*
X178589433Y-68269911D01*
X178589687Y-68266327D01*
X178591063Y-68263007D01*
X178592984Y-68243498D01*
X178592984Y-67957784D01*
X178591063Y-67938275D01*
X178589687Y-67934954D01*
X178589433Y-67931371D01*
X178582427Y-67913062D01*
X178534808Y-67817825D01*
X178529522Y-67809428D01*
X178528512Y-67806988D01*
X178526258Y-67804242D01*
X178524365Y-67801234D01*
X178522367Y-67799501D01*
X178516075Y-67791835D01*
X178472040Y-67747799D01*
X178680620Y-67747799D01*
X178680620Y-67786817D01*
X178695552Y-67822865D01*
X178723142Y-67850455D01*
X178759190Y-67865387D01*
X178778699Y-67867308D01*
X178850330Y-67867308D01*
X178909939Y-67897113D01*
X178934608Y-67921781D01*
X178964413Y-67981391D01*
X178964413Y-68433975D01*
X178966334Y-68453484D01*
X178981266Y-68489532D01*
X179008856Y-68517122D01*
X179044904Y-68532054D01*
X179083922Y-68532054D01*
X179119970Y-68517122D01*
X179147560Y-68489532D01*
X179162492Y-68453484D01*
X179164413Y-68433975D01*
X179164413Y-68421468D01*
X179298532Y-68421468D01*
X179301298Y-68460388D01*
X179318748Y-68495287D01*
X179348224Y-68520852D01*
X179385240Y-68533190D01*
X179424160Y-68530424D01*
X179459059Y-68512974D01*
X179484624Y-68483498D01*
X179492615Y-68465598D01*
X179565061Y-68248260D01*
X179897099Y-68248260D01*
X179969545Y-68465597D01*
X179977536Y-68483498D01*
X180003101Y-68512974D01*
X180038000Y-68530423D01*
X180076920Y-68533190D01*
X180113936Y-68520851D01*
X180143412Y-68495286D01*
X180160862Y-68460387D01*
X180163628Y-68421467D01*
X180159281Y-68402352D01*
X179825948Y-67402352D01*
X179817957Y-67384452D01*
X179813272Y-67379050D01*
X179810079Y-67372664D01*
X179800610Y-67364451D01*
X179792392Y-67354976D01*
X179786000Y-67351779D01*
X179780603Y-67347099D01*
X179768709Y-67343134D01*
X179757493Y-67337526D01*
X179750365Y-67337019D01*
X179743587Y-67334760D01*
X179731082Y-67335649D01*
X179718573Y-67334760D01*
X179711791Y-67337020D01*
X179704667Y-67337527D01*
X179693458Y-67343130D01*
X179681557Y-67347098D01*
X179676156Y-67351781D01*
X179669768Y-67354976D01*
X179661552Y-67364447D01*
X179652081Y-67372663D01*
X179648886Y-67379052D01*
X179644203Y-67384452D01*
X179636212Y-67402353D01*
X179302879Y-68402352D01*
X179298532Y-68421468D01*
X179164413Y-68421468D01*
X179164413Y-67767308D01*
X179162492Y-67747799D01*
X179147560Y-67711751D01*
X179119970Y-67684161D01*
X179083922Y-67669229D01*
X179044904Y-67669229D01*
X179008856Y-67684161D01*
X178982987Y-67710029D01*
X178918658Y-67677865D01*
X178900350Y-67670859D01*
X178896766Y-67670604D01*
X178893446Y-67669229D01*
X178873937Y-67667308D01*
X178778699Y-67667308D01*
X178759190Y-67669229D01*
X178723142Y-67684161D01*
X178695552Y-67711751D01*
X178680620Y-67747799D01*
X178472040Y-67747799D01*
X178468457Y-67744216D01*
X178460786Y-67737921D01*
X178459057Y-67735927D01*
X178456049Y-67734033D01*
X178453303Y-67731780D01*
X178450863Y-67730769D01*
X178442467Y-67725484D01*
X178347229Y-67677865D01*
X178328921Y-67670859D01*
X178325337Y-67670604D01*
X178322017Y-67669229D01*
X178302508Y-67667308D01*
X178116794Y-67667308D01*
X178116794Y-67433975D01*
X178114873Y-67414466D01*
X178099941Y-67378418D01*
X178072351Y-67350828D01*
X178036303Y-67335896D01*
X177997285Y-67335896D01*
X177961237Y-67350828D01*
X177933647Y-67378418D01*
X177918715Y-67414466D01*
X177916794Y-67433975D01*
X176769895Y-67433975D01*
X176766607Y-67426036D01*
X176754170Y-67410883D01*
X176706552Y-67363264D01*
X176691398Y-67350828D01*
X176655350Y-67335896D01*
X176616332Y-67335896D01*
X176590841Y-67346454D01*
X176580283Y-67350828D01*
X176565130Y-67363265D01*
X176517511Y-67410883D01*
X176505076Y-67426036D01*
X176505075Y-67426037D01*
X176490143Y-67462085D01*
X173688222Y-67462085D01*
X173688222Y-67433975D01*
X173686959Y-67421151D01*
X173687063Y-67418792D01*
X173686602Y-67417524D01*
X173686301Y-67414466D01*
X173679660Y-67398435D01*
X173673729Y-67382123D01*
X173672222Y-67380477D01*
X173671369Y-67378418D01*
X173659107Y-67366156D01*
X173647377Y-67353347D01*
X173645353Y-67352402D01*
X173643779Y-67350828D01*
X173627763Y-67344193D01*
X173612020Y-67336847D01*
X173609790Y-67336749D01*
X173607731Y-67335896D01*
X173590379Y-67335896D01*
X173573039Y-67335134D01*
X173570943Y-67335896D01*
X173568713Y-67335896D01*
X173552682Y-67342536D01*
X173536370Y-67348468D01*
X173534724Y-67349974D01*
X173532665Y-67350828D01*
X173520397Y-67363095D01*
X173507595Y-67374820D01*
X173506028Y-67377464D01*
X173505075Y-67378418D01*
X173504171Y-67380599D01*
X173497604Y-67391686D01*
X173254888Y-67911789D01*
X173012174Y-67391686D01*
X173005606Y-67380599D01*
X173004703Y-67378418D01*
X173003749Y-67377464D01*
X173002183Y-67374820D01*
X172989386Y-67363101D01*
X172977113Y-67350828D01*
X172975051Y-67349974D01*
X172973408Y-67348469D01*
X172957106Y-67342540D01*
X172941065Y-67335896D01*
X172938834Y-67335896D01*
X172936739Y-67335134D01*
X172919399Y-67335896D01*
X172902047Y-67335896D01*
X172899987Y-67336749D01*
X172897759Y-67336847D01*
X172882028Y-67344188D01*
X172865999Y-67350828D01*
X172864422Y-67352404D01*
X172862401Y-67353348D01*
X172850682Y-67366144D01*
X172838409Y-67378418D01*
X172837555Y-67380479D01*
X172836050Y-67382123D01*
X172830121Y-67398424D01*
X172823477Y-67414466D01*
X172823175Y-67417524D01*
X172822715Y-67418792D01*
X172822818Y-67421151D01*
X172821556Y-67433975D01*
X171212032Y-67433975D01*
X171210111Y-67414466D01*
X171195179Y-67378418D01*
X171167589Y-67350828D01*
X171131541Y-67335896D01*
X171092523Y-67335896D01*
X171056475Y-67350828D01*
X171028885Y-67378418D01*
X171013953Y-67414466D01*
X171012032Y-67433975D01*
X169831079Y-67433975D01*
X169829158Y-67414466D01*
X169814226Y-67378418D01*
X169786636Y-67350828D01*
X169750588Y-67335896D01*
X169711570Y-67335896D01*
X169675522Y-67350828D01*
X169647932Y-67378418D01*
X169633000Y-67414466D01*
X169631079Y-67433975D01*
X169631079Y-68267510D01*
X169608924Y-68311819D01*
X169543501Y-68344532D01*
X169526910Y-68354975D01*
X169501346Y-68384452D01*
X169489007Y-68421468D01*
X169301516Y-68421468D01*
X169344331Y-68335838D01*
X169351337Y-68317530D01*
X169351591Y-68313946D01*
X169352967Y-68310626D01*
X169354888Y-68291117D01*
X169354888Y-67910165D01*
X169352967Y-67890656D01*
X169351591Y-67887335D01*
X169351337Y-67883752D01*
X169344331Y-67865443D01*
X169296712Y-67770206D01*
X169294657Y-67766942D01*
X169294145Y-67765404D01*
X169292483Y-67763488D01*
X169286269Y-67753615D01*
X169276793Y-67745397D01*
X169268580Y-67735927D01*
X169258708Y-67729713D01*
X169256792Y-67728051D01*
X169255253Y-67727537D01*
X169251990Y-67725484D01*
X169156752Y-67677865D01*
X169138444Y-67670859D01*
X169134860Y-67670604D01*
X169131540Y-67669229D01*
X169112031Y-67667308D01*
X168921555Y-67667308D01*
X168902046Y-67669229D01*
X168898725Y-67670604D01*
X168895142Y-67670859D01*
X168876833Y-67677865D01*
X168781596Y-67725484D01*
X168778332Y-67727538D01*
X168776794Y-67728051D01*
X168774878Y-67729712D01*
X168765005Y-67735927D01*
X168756787Y-67745402D01*
X168747317Y-67753616D01*
X168741103Y-67763487D01*
X168739441Y-67765404D01*
X168738927Y-67766942D01*
X168736874Y-67770206D01*
X168689255Y-67865444D01*
X168682249Y-67883752D01*
X168681994Y-67887335D01*
X168680619Y-67890656D01*
X168678698Y-67910165D01*
X168567587Y-67910165D01*
X168567587Y-67223649D01*
X180274739Y-67223649D01*
X180274739Y-71864974D01*
G37*
X168533015Y-67136644D02*
X180358015Y-67136644D01*
X180358015Y-71961644D01*
X168533015Y-71961644D01*
X168533015Y-67136644D01*
D12*
X204876666Y-60154819D02*
X205209999Y-59678628D01*
X205448094Y-60154819D02*
X205448094Y-59154819D01*
X205448094Y-59154819D02*
X205067142Y-59154819D01*
X205067142Y-59154819D02*
X204971904Y-59202438D01*
X204971904Y-59202438D02*
X204924285Y-59250057D01*
X204924285Y-59250057D02*
X204876666Y-59345295D01*
X204876666Y-59345295D02*
X204876666Y-59488152D01*
X204876666Y-59488152D02*
X204924285Y-59583390D01*
X204924285Y-59583390D02*
X204971904Y-59631009D01*
X204971904Y-59631009D02*
X205067142Y-59678628D01*
X205067142Y-59678628D02*
X205448094Y-59678628D01*
X204305237Y-59583390D02*
X204400475Y-59535771D01*
X204400475Y-59535771D02*
X204448094Y-59488152D01*
X204448094Y-59488152D02*
X204495713Y-59392914D01*
X204495713Y-59392914D02*
X204495713Y-59345295D01*
X204495713Y-59345295D02*
X204448094Y-59250057D01*
X204448094Y-59250057D02*
X204400475Y-59202438D01*
X204400475Y-59202438D02*
X204305237Y-59154819D01*
X204305237Y-59154819D02*
X204114761Y-59154819D01*
X204114761Y-59154819D02*
X204019523Y-59202438D01*
X204019523Y-59202438D02*
X203971904Y-59250057D01*
X203971904Y-59250057D02*
X203924285Y-59345295D01*
X203924285Y-59345295D02*
X203924285Y-59392914D01*
X203924285Y-59392914D02*
X203971904Y-59488152D01*
X203971904Y-59488152D02*
X204019523Y-59535771D01*
X204019523Y-59535771D02*
X204114761Y-59583390D01*
X204114761Y-59583390D02*
X204305237Y-59583390D01*
X204305237Y-59583390D02*
X204400475Y-59631009D01*
X204400475Y-59631009D02*
X204448094Y-59678628D01*
X204448094Y-59678628D02*
X204495713Y-59773866D01*
X204495713Y-59773866D02*
X204495713Y-59964342D01*
X204495713Y-59964342D02*
X204448094Y-60059580D01*
X204448094Y-60059580D02*
X204400475Y-60107200D01*
X204400475Y-60107200D02*
X204305237Y-60154819D01*
X204305237Y-60154819D02*
X204114761Y-60154819D01*
X204114761Y-60154819D02*
X204019523Y-60107200D01*
X204019523Y-60107200D02*
X203971904Y-60059580D01*
X203971904Y-60059580D02*
X203924285Y-59964342D01*
X203924285Y-59964342D02*
X203924285Y-59773866D01*
X203924285Y-59773866D02*
X203971904Y-59678628D01*
X203971904Y-59678628D02*
X204019523Y-59631009D01*
X204019523Y-59631009D02*
X204114761Y-59583390D01*
X204856666Y-57534819D02*
X205189999Y-57058628D01*
X205428094Y-57534819D02*
X205428094Y-56534819D01*
X205428094Y-56534819D02*
X205047142Y-56534819D01*
X205047142Y-56534819D02*
X204951904Y-56582438D01*
X204951904Y-56582438D02*
X204904285Y-56630057D01*
X204904285Y-56630057D02*
X204856666Y-56725295D01*
X204856666Y-56725295D02*
X204856666Y-56868152D01*
X204856666Y-56868152D02*
X204904285Y-56963390D01*
X204904285Y-56963390D02*
X204951904Y-57011009D01*
X204951904Y-57011009D02*
X205047142Y-57058628D01*
X205047142Y-57058628D02*
X205428094Y-57058628D01*
X204380475Y-57534819D02*
X204189999Y-57534819D01*
X204189999Y-57534819D02*
X204094761Y-57487200D01*
X204094761Y-57487200D02*
X204047142Y-57439580D01*
X204047142Y-57439580D02*
X203951904Y-57296723D01*
X203951904Y-57296723D02*
X203904285Y-57106247D01*
X203904285Y-57106247D02*
X203904285Y-56725295D01*
X203904285Y-56725295D02*
X203951904Y-56630057D01*
X203951904Y-56630057D02*
X203999523Y-56582438D01*
X203999523Y-56582438D02*
X204094761Y-56534819D01*
X204094761Y-56534819D02*
X204285237Y-56534819D01*
X204285237Y-56534819D02*
X204380475Y-56582438D01*
X204380475Y-56582438D02*
X204428094Y-56630057D01*
X204428094Y-56630057D02*
X204475713Y-56725295D01*
X204475713Y-56725295D02*
X204475713Y-56963390D01*
X204475713Y-56963390D02*
X204428094Y-57058628D01*
X204428094Y-57058628D02*
X204380475Y-57106247D01*
X204380475Y-57106247D02*
X204285237Y-57153866D01*
X204285237Y-57153866D02*
X204094761Y-57153866D01*
X204094761Y-57153866D02*
X203999523Y-57106247D01*
X203999523Y-57106247D02*
X203951904Y-57058628D01*
X203951904Y-57058628D02*
X203904285Y-56963390D01*
D13*
%TO.C,A1*%
X212080000Y-102547893D02*
G75*
G02*
X211933556Y-102901450I-500000J-7D01*
G01*
X210576446Y-104258554D02*
G75*
G02*
X210222893Y-104404995I-353546J353554D01*
G01*
X211580000Y-38105000D02*
G75*
G02*
X212080000Y-38605000I-1J-500001D01*
G01*
X163897107Y-106945000D02*
G75*
G02*
X163543550Y-106798556I-7J500000D01*
G01*
X198853553Y-104551447D02*
G75*
G02*
X199207107Y-104405005I353547J-353553D01*
G01*
X196606446Y-106798554D02*
G75*
G02*
X196252893Y-106944995I-353546J353554D01*
G01*
X160942893Y-104405000D02*
G75*
G02*
X161296449Y-104551443I7J-500000D01*
G01*
X158980000Y-104405000D02*
G75*
G02*
X158480000Y-103905000I0J500000D01*
G01*
X158480000Y-38605000D02*
G75*
G02*
X158980000Y-38105000I500001J-1D01*
G01*
X158980000Y-38105000D02*
X202550000Y-38105000D01*
X158480000Y-103905000D02*
X158480000Y-38605000D01*
X160942893Y-104405000D02*
X158980000Y-104405000D01*
X163543553Y-106798553D02*
X161296446Y-104551446D01*
X196252893Y-106945000D02*
X163897107Y-106945000D01*
X198853553Y-104551447D02*
X196606446Y-106798554D01*
X202550000Y-38105000D02*
X211580000Y-38105000D01*
X210222893Y-104405000D02*
X199207107Y-104405000D01*
X212080000Y-38605000D02*
X212080000Y-102547893D01*
X211933553Y-102901447D02*
X210576446Y-104258554D01*
D14*
%TO.C,G\u002A\u002A\u002A*%
G36*
X180045234Y-75891127D02*
G01*
X180118287Y-75925313D01*
X180166239Y-75981344D01*
X180169414Y-76047457D01*
X180125348Y-76116710D01*
X180115653Y-76126127D01*
X180051483Y-76168900D01*
X179991713Y-76165253D01*
X179925286Y-76115095D01*
X179902213Y-76090955D01*
X179869831Y-76040332D01*
X179877990Y-75994514D01*
X179926834Y-75936796D01*
X179934271Y-75929533D01*
X179991044Y-75890828D01*
X180045234Y-75891127D01*
G37*
G36*
X173303010Y-76742741D02*
G01*
X173279856Y-76864397D01*
X173222233Y-76976001D01*
X173127802Y-77069000D01*
X173106269Y-77083565D01*
X173051644Y-77109723D01*
X172986843Y-77119774D01*
X172892354Y-77117762D01*
X172839642Y-77113464D01*
X172744855Y-77094285D01*
X172684211Y-77060180D01*
X172647876Y-77028724D01*
X172635193Y-77027969D01*
X172639179Y-77061272D01*
X172640528Y-77070851D01*
X172634264Y-77097337D01*
X172601080Y-77111260D01*
X172529510Y-77118615D01*
X172411110Y-77126213D01*
X172411110Y-76678461D01*
X172646790Y-76678461D01*
X172657936Y-76774501D01*
X172708906Y-76860349D01*
X172775361Y-76908076D01*
X172861205Y-76925021D01*
X172943935Y-76904101D01*
X173010564Y-76849025D01*
X173048105Y-76763499D01*
X173051475Y-76665758D01*
X173021949Y-76575912D01*
X172965443Y-76512074D01*
X172890394Y-76480090D01*
X172805239Y-76485805D01*
X172718414Y-76535065D01*
X172675017Y-76587652D01*
X172646790Y-76678461D01*
X172411110Y-76678461D01*
X172411110Y-76537711D01*
X172411110Y-75949209D01*
X172529510Y-75956806D01*
X172647910Y-75964404D01*
X172639342Y-76157583D01*
X172637142Y-76238867D01*
X172642244Y-76314262D01*
X172659911Y-76348485D01*
X172693445Y-76346327D01*
X172746148Y-76312581D01*
X172762848Y-76303014D01*
X172829493Y-76283676D01*
X172910715Y-76275984D01*
X172983693Y-76282958D01*
X173097766Y-76326611D01*
X173189074Y-76402968D01*
X173255279Y-76503475D01*
X173294038Y-76619584D01*
X173297402Y-76665758D01*
X173303010Y-76742741D01*
G37*
G36*
X173881767Y-76699732D02*
G01*
X173881767Y-77123481D01*
X173769598Y-77123481D01*
X173724137Y-77123001D01*
X173677826Y-77115849D01*
X173659440Y-77092271D01*
X173655139Y-77042470D01*
X173652159Y-76970745D01*
X173647531Y-76899144D01*
X173646508Y-76886356D01*
X173641741Y-76813424D01*
X173637359Y-76729757D01*
X173629356Y-76673827D01*
X173589853Y-76584700D01*
X173525945Y-76523232D01*
X173446688Y-76500321D01*
X173428792Y-76499865D01*
X173398438Y-76490109D01*
X173385777Y-76457332D01*
X173383239Y-76388152D01*
X173383415Y-76362477D01*
X173388471Y-76305587D01*
X173405741Y-76281175D01*
X173442193Y-76275984D01*
X173443372Y-76275994D01*
X173504400Y-76291863D01*
X173568369Y-76328859D01*
X173635589Y-76381735D01*
X173649417Y-76328859D01*
X173664621Y-76297435D01*
X173701170Y-76280299D01*
X173772505Y-76275984D01*
X173881767Y-76275984D01*
X173881767Y-76699732D01*
G37*
G36*
X174867859Y-76937307D02*
G01*
X174839237Y-77012843D01*
X174771533Y-77074724D01*
X174758644Y-77082113D01*
X174644985Y-77117927D01*
X174522317Y-77114925D01*
X174410281Y-77073189D01*
X174399290Y-77066517D01*
X174352389Y-77040669D01*
X174334706Y-77041140D01*
X174335502Y-77067050D01*
X174335766Y-77068713D01*
X174330455Y-77095700D01*
X174296976Y-77110658D01*
X174224505Y-77118615D01*
X174106105Y-77126213D01*
X174106472Y-76819499D01*
X174106478Y-76818815D01*
X174358644Y-76818815D01*
X174359400Y-76873208D01*
X174386666Y-76919014D01*
X174443464Y-76952084D01*
X174528601Y-76961490D01*
X174606209Y-76927165D01*
X174628595Y-76907447D01*
X174651593Y-76870754D01*
X174639441Y-76832158D01*
X174618706Y-76811263D01*
X174555113Y-76781849D01*
X174474881Y-76766389D01*
X174398990Y-76770280D01*
X174382565Y-76777960D01*
X174358644Y-76818815D01*
X174106478Y-76818815D01*
X174107477Y-76711126D01*
X174113250Y-76588533D01*
X174126424Y-76499827D01*
X174149558Y-76435589D01*
X174185208Y-76386400D01*
X174235934Y-76342839D01*
X174237052Y-76342018D01*
X174319897Y-76304337D01*
X174431545Y-76283218D01*
X174553469Y-76280574D01*
X174667144Y-76298317D01*
X174691858Y-76305245D01*
X174768873Y-76330814D01*
X174806929Y-76356950D01*
X174813928Y-76392640D01*
X174797772Y-76446869D01*
X174782818Y-76481894D01*
X174755273Y-76513449D01*
X174717060Y-76511100D01*
X174628692Y-76488461D01*
X174523753Y-76480051D01*
X174436713Y-76493001D01*
X174377331Y-76525560D01*
X174355369Y-76575977D01*
X174356693Y-76592199D01*
X174371644Y-76613210D01*
X174412809Y-76622721D01*
X174491959Y-76624953D01*
X174621562Y-76634881D01*
X174743787Y-76672408D01*
X174826851Y-76736380D01*
X174868845Y-76825208D01*
X174868444Y-76870754D01*
X174867859Y-76937307D01*
G37*
G36*
X175884001Y-76749715D02*
G01*
X175852657Y-76885747D01*
X175781520Y-76992381D01*
X175669627Y-77071305D01*
X175531883Y-77116453D01*
X175388796Y-77122319D01*
X175252878Y-77090679D01*
X175135057Y-77024095D01*
X175046260Y-76925130D01*
X175008576Y-76839464D01*
X174989304Y-76709994D01*
X174989612Y-76707335D01*
X175229943Y-76707335D01*
X175247729Y-76793467D01*
X175303206Y-76874851D01*
X175315596Y-76885502D01*
X175389342Y-76916708D01*
X175477540Y-76921676D01*
X175556198Y-76898193D01*
X175586061Y-76869315D01*
X175621151Y-76799602D01*
X175640471Y-76715958D01*
X175637382Y-76639532D01*
X175608897Y-76581202D01*
X175558136Y-76524853D01*
X175498919Y-76490285D01*
X175417161Y-76478088D01*
X175343457Y-76501833D01*
X175283734Y-76553381D01*
X175243921Y-76624594D01*
X175229943Y-76707335D01*
X174989612Y-76707335D01*
X175004456Y-76579319D01*
X175053723Y-76466361D01*
X175065975Y-76449342D01*
X175166066Y-76356850D01*
X175295073Y-76297162D01*
X175441305Y-76276022D01*
X175567896Y-76291560D01*
X175698223Y-76350993D01*
X175809510Y-76456196D01*
X175818490Y-76467619D01*
X175859787Y-76531956D01*
X175879711Y-76599353D01*
X175885727Y-76692997D01*
X175885028Y-76715958D01*
X175884001Y-76749715D01*
G37*
G36*
X176992804Y-76556206D02*
G01*
X176992768Y-76610316D01*
X176991979Y-76763341D01*
X176991521Y-76799438D01*
X176990286Y-76896869D01*
X176987849Y-77003312D01*
X176984826Y-77075081D01*
X176981375Y-77104587D01*
X176972935Y-77109124D01*
X176923672Y-77116523D01*
X176840641Y-77121113D01*
X176734684Y-77123016D01*
X176616644Y-77122350D01*
X176497362Y-77119236D01*
X176387681Y-77113793D01*
X176298441Y-77106141D01*
X176240484Y-77096400D01*
X176134991Y-77046002D01*
X176060911Y-76968420D01*
X176020806Y-76874086D01*
X176017004Y-76773367D01*
X176018437Y-76769386D01*
X176277066Y-76769386D01*
X176286456Y-76832046D01*
X176330100Y-76885267D01*
X176355243Y-76898627D01*
X176439203Y-76917835D01*
X176566901Y-76924070D01*
X176748303Y-76924070D01*
X176748303Y-76799438D01*
X176748303Y-76674806D01*
X176559716Y-76674806D01*
X176549227Y-76674845D01*
X176451660Y-76678809D01*
X176370683Y-76688001D01*
X176322915Y-76700609D01*
X176302643Y-76715592D01*
X176277066Y-76769386D01*
X176018437Y-76769386D01*
X176051837Y-76676631D01*
X176127633Y-76594244D01*
X176164025Y-76565028D01*
X176183357Y-76536032D01*
X176167881Y-76513384D01*
X176139645Y-76486772D01*
X176092844Y-76402743D01*
X176083622Y-76349245D01*
X176330586Y-76349245D01*
X176332892Y-76388787D01*
X176371833Y-76428470D01*
X176397538Y-76445619D01*
X176469147Y-76468483D01*
X176575108Y-76475395D01*
X176639059Y-76473540D01*
X176702219Y-76466753D01*
X176730689Y-76456700D01*
X176732643Y-76451129D01*
X176737651Y-76406156D01*
X176738392Y-76338300D01*
X176735840Y-76238594D01*
X176612860Y-76230810D01*
X176536849Y-76228222D01*
X176442394Y-76237398D01*
X176380929Y-76266012D01*
X176343298Y-76316989D01*
X176330586Y-76349245D01*
X176083622Y-76349245D01*
X176075290Y-76300910D01*
X176075819Y-76279115D01*
X176092487Y-76193870D01*
X176135827Y-76128684D01*
X176210283Y-76081493D01*
X176320299Y-76050235D01*
X176470319Y-76032848D01*
X176664786Y-76027267D01*
X176992555Y-76026720D01*
X176992702Y-76338300D01*
X176992804Y-76556206D01*
G37*
G36*
X177670580Y-76699732D02*
G01*
X177670580Y-77123481D01*
X177545948Y-77123481D01*
X177421316Y-77123481D01*
X177421316Y-76877857D01*
X177420494Y-76770142D01*
X177416313Y-76690801D01*
X177406429Y-76638330D01*
X177388501Y-76600798D01*
X177360190Y-76566277D01*
X177309612Y-76524652D01*
X177223095Y-76500321D01*
X177205178Y-76500134D01*
X177165745Y-76492759D01*
X177149985Y-76464075D01*
X177147125Y-76399833D01*
X177154233Y-76332403D01*
X177184182Y-76287361D01*
X177240217Y-76283296D01*
X177325211Y-76318906D01*
X177359551Y-76337470D01*
X177402241Y-76356233D01*
X177422583Y-76351318D01*
X177434587Y-76323289D01*
X177447520Y-76299665D01*
X177486002Y-76281054D01*
X177560091Y-76275984D01*
X177670580Y-76275984D01*
X177670580Y-76699732D01*
G37*
G36*
X178692562Y-76699732D02*
G01*
X178686633Y-76761236D01*
X178645272Y-76882084D01*
X178573177Y-76989940D01*
X178480688Y-77066884D01*
X178422303Y-77093341D01*
X178294202Y-77121356D01*
X178160104Y-77119443D01*
X178036047Y-77088687D01*
X177938069Y-77030174D01*
X177929709Y-77022471D01*
X177909861Y-76995774D01*
X177918939Y-76967428D01*
X177960319Y-76920849D01*
X177965097Y-76915880D01*
X178009396Y-76875393D01*
X178041213Y-76867708D01*
X178078549Y-76887789D01*
X178147212Y-76916021D01*
X178239009Y-76924121D01*
X178328232Y-76909879D01*
X178393445Y-76874217D01*
X178427234Y-76833993D01*
X178443298Y-76800205D01*
X178421937Y-76790406D01*
X178358527Y-76781133D01*
X178261150Y-76773736D01*
X178137950Y-76769047D01*
X177832601Y-76762048D01*
X177839940Y-76650286D01*
X177840054Y-76648584D01*
X177852618Y-76588977D01*
X178069402Y-76588977D01*
X178072782Y-76600967D01*
X178098530Y-76615392D01*
X178156865Y-76622838D01*
X178256350Y-76624953D01*
X178273833Y-76624869D01*
X178359860Y-76621689D01*
X178420408Y-76614837D01*
X178443298Y-76605573D01*
X178433395Y-76578537D01*
X178404495Y-76530794D01*
X178368976Y-76499817D01*
X178300350Y-76479078D01*
X178221371Y-76480178D01*
X178146749Y-76500564D01*
X178091190Y-76537681D01*
X178069402Y-76588977D01*
X177852618Y-76588977D01*
X177868067Y-76515688D01*
X177934222Y-76412862D01*
X178042488Y-76333907D01*
X178139369Y-76295690D01*
X178274059Y-76280525D01*
X178402742Y-76304545D01*
X178517175Y-76363115D01*
X178609118Y-76451594D01*
X178670327Y-76565346D01*
X178676983Y-76605573D01*
X178692562Y-76699732D01*
G37*
G36*
X179689618Y-77123481D02*
G01*
X179564986Y-77123481D01*
X179497670Y-77120914D01*
X179453080Y-77109251D01*
X179440354Y-77085452D01*
X179436969Y-77064038D01*
X179416848Y-77062163D01*
X179366813Y-77085452D01*
X179339314Y-77097633D01*
X179225663Y-77120750D01*
X179102008Y-77114060D01*
X178991290Y-77078016D01*
X178969231Y-77065252D01*
X178882697Y-76983722D01*
X178826103Y-76875656D01*
X178799440Y-76752052D01*
X178801206Y-76682600D01*
X179039519Y-76682600D01*
X179052011Y-76779989D01*
X179102714Y-76862887D01*
X179140705Y-76892861D01*
X179227237Y-76923231D01*
X179315724Y-76915578D01*
X179389530Y-76869517D01*
X179392211Y-76866555D01*
X179431671Y-76789672D01*
X179442963Y-76694500D01*
X179426492Y-76601115D01*
X179382663Y-76529593D01*
X179362338Y-76512845D01*
X179276044Y-76477902D01*
X179184470Y-76485939D01*
X179102714Y-76536578D01*
X179065241Y-76588244D01*
X179039519Y-76682600D01*
X178801206Y-76682600D01*
X178802698Y-76623908D01*
X178835868Y-76502225D01*
X178898943Y-76397999D01*
X178991911Y-76322231D01*
X178996081Y-76320046D01*
X179086780Y-76289272D01*
X179189546Y-76277430D01*
X179285205Y-76285029D01*
X179354579Y-76312581D01*
X179389033Y-76335816D01*
X179420611Y-76349970D01*
X179422757Y-76348700D01*
X179431909Y-76316131D01*
X179440017Y-76248452D01*
X179445537Y-76157583D01*
X179452817Y-75964404D01*
X179571217Y-75956806D01*
X179689618Y-75949209D01*
X179689618Y-76536345D01*
X179689618Y-76694500D01*
X179689618Y-77123481D01*
G37*
G36*
X180138293Y-76701098D02*
G01*
X180138293Y-77126213D01*
X180019893Y-77118615D01*
X179980321Y-77114952D01*
X179926229Y-77104591D01*
X179907724Y-77092323D01*
X179909071Y-77078838D01*
X179911009Y-77022133D01*
X179912558Y-76929978D01*
X179913584Y-76811245D01*
X179913955Y-76674806D01*
X179913955Y-76275984D01*
X180026124Y-76275984D01*
X180138293Y-76275984D01*
X180138293Y-76701098D01*
G37*
G36*
X181085496Y-76558483D02*
G01*
X181085403Y-76614938D01*
X181084164Y-76767852D01*
X181081664Y-76901031D01*
X181078131Y-77006945D01*
X181073793Y-77078066D01*
X181068879Y-77106864D01*
X181059291Y-77109927D01*
X181007584Y-77115289D01*
X180919749Y-77119588D01*
X180804834Y-77122445D01*
X180671884Y-77123481D01*
X180646480Y-77123483D01*
X180501840Y-77123013D01*
X180399342Y-77119750D01*
X180332272Y-77110975D01*
X180293915Y-77093968D01*
X180277556Y-77066010D01*
X180276480Y-77024379D01*
X180283972Y-76966357D01*
X180293901Y-76896474D01*
X180558835Y-76901044D01*
X180823769Y-76905613D01*
X180830576Y-76466166D01*
X180837382Y-76026720D01*
X180961439Y-76026720D01*
X181085496Y-76026720D01*
X181085496Y-76558483D01*
G37*
G36*
X172523980Y-77386985D02*
G01*
X172558266Y-77396859D01*
X172632784Y-77441231D01*
X172688390Y-77503801D01*
X172710226Y-77569972D01*
X172709776Y-77580764D01*
X172679503Y-77653363D01*
X172601319Y-77716655D01*
X172474595Y-77771178D01*
X172389665Y-77803678D01*
X172320234Y-77846641D01*
X172292181Y-77895198D01*
X172300782Y-77954326D01*
X172302165Y-77957365D01*
X172338916Y-77988751D01*
X172400427Y-78010347D01*
X172427556Y-78014449D01*
X172490556Y-78013896D01*
X172564778Y-77996279D01*
X172666605Y-77958398D01*
X172693249Y-77951496D01*
X172712942Y-77962819D01*
X172705979Y-77992393D01*
X172676643Y-78028602D01*
X172629215Y-78059829D01*
X172610064Y-78067594D01*
X172512440Y-78088064D01*
X172409444Y-78085968D01*
X172318468Y-78063107D01*
X172256904Y-78021283D01*
X172250530Y-78012943D01*
X172216896Y-77934037D01*
X172219193Y-77852834D01*
X172257386Y-77787800D01*
X172278677Y-77772289D01*
X172344989Y-77737493D01*
X172425639Y-77705625D01*
X172517004Y-77672154D01*
X172575270Y-77640072D01*
X172603286Y-77603916D01*
X172610521Y-77556024D01*
X172610363Y-77549671D01*
X172586441Y-77491620D01*
X172523722Y-77461472D01*
X172424910Y-77459810D01*
X172292709Y-77487221D01*
X172251613Y-77491559D01*
X172236625Y-77466840D01*
X172246566Y-77445969D01*
X172293442Y-77416682D01*
X172365322Y-77394305D01*
X172447178Y-77383014D01*
X172523980Y-77386985D01*
G37*
G36*
X173404176Y-77412940D02*
G01*
X173502342Y-77465200D01*
X173571187Y-77532795D01*
X173603112Y-77594815D01*
X173626880Y-77715995D01*
X173609268Y-77838554D01*
X173552941Y-77950298D01*
X173460564Y-78039030D01*
X173390221Y-78074346D01*
X173277383Y-78095611D01*
X173240268Y-78093196D01*
X173162204Y-78077432D01*
X173087488Y-78051884D01*
X173031431Y-78022328D01*
X173009343Y-77994536D01*
X173018309Y-77969240D01*
X173058861Y-77960023D01*
X173125149Y-77983421D01*
X173191731Y-78009247D01*
X173301864Y-78017360D01*
X173402670Y-77986216D01*
X173483135Y-77920144D01*
X173532246Y-77823469D01*
X173536286Y-77806701D01*
X173539325Y-77695700D01*
X173504906Y-77597725D01*
X173441162Y-77520121D01*
X173356223Y-77470232D01*
X173258221Y-77455404D01*
X173155287Y-77482981D01*
X173082224Y-77513293D01*
X173028490Y-77520114D01*
X173009343Y-77497952D01*
X173016198Y-77479447D01*
X173059054Y-77442441D01*
X173129159Y-77408262D01*
X173212434Y-77384757D01*
X173296719Y-77384280D01*
X173404176Y-77412940D01*
G37*
G36*
X174010302Y-77397687D02*
G01*
X174028684Y-77401372D01*
X174041387Y-77416809D01*
X174049453Y-77451617D01*
X174053925Y-77513417D01*
X174055844Y-77609827D01*
X174056252Y-77748469D01*
X174055858Y-77877956D01*
X174053963Y-77977307D01*
X174049628Y-78040925D01*
X174041919Y-78076155D01*
X174029898Y-78090345D01*
X174012631Y-78090841D01*
X174000551Y-78086657D01*
X173986438Y-78070400D01*
X173976855Y-78035384D01*
X173970740Y-77973834D01*
X173967031Y-77877978D01*
X173964663Y-77740043D01*
X173964580Y-77733463D01*
X173963317Y-77598707D01*
X173964162Y-77505756D01*
X173968098Y-77446894D01*
X173976108Y-77414404D01*
X173989176Y-77400569D01*
X174008284Y-77397672D01*
X174010302Y-77397687D01*
G37*
G36*
X174999644Y-77400477D02*
G01*
X175012520Y-77415315D01*
X175020882Y-77449801D01*
X175025681Y-77511484D01*
X175027864Y-77607914D01*
X175028381Y-77746641D01*
X175028328Y-77790393D01*
X175027042Y-77919047D01*
X175023485Y-78006855D01*
X175016919Y-78060858D01*
X175006606Y-78088096D01*
X174991808Y-78095611D01*
X174981813Y-78092940D01*
X174968155Y-78071921D01*
X174958778Y-78023642D01*
X174952513Y-77940574D01*
X174948187Y-77815189D01*
X174941139Y-77534767D01*
X174743314Y-77796494D01*
X174683598Y-77875140D01*
X174610433Y-77969415D01*
X174558071Y-78032796D01*
X174521307Y-78071048D01*
X174494941Y-78089937D01*
X174473769Y-78095229D01*
X174471339Y-78092322D01*
X174464939Y-78053763D01*
X174459777Y-77977360D01*
X174456330Y-77872018D01*
X174455074Y-77746641D01*
X174455127Y-77703288D01*
X174456409Y-77574500D01*
X174459963Y-77486582D01*
X174466525Y-77432496D01*
X174476832Y-77405205D01*
X174491620Y-77397672D01*
X174498950Y-77398969D01*
X174513819Y-77416677D01*
X174523977Y-77461196D01*
X174530695Y-77540205D01*
X174535242Y-77661380D01*
X174542317Y-77925088D01*
X174710546Y-77710932D01*
X174765065Y-77641011D01*
X174831054Y-77554903D01*
X174881920Y-77486802D01*
X174909722Y-77447224D01*
X174937615Y-77417111D01*
X174984525Y-77397672D01*
X174999644Y-77400477D01*
G37*
G36*
X176078881Y-77850620D02*
G01*
X176020508Y-77959121D01*
X175918146Y-78046855D01*
X175876846Y-78067708D01*
X175757836Y-78094656D01*
X175633875Y-78084878D01*
X175524727Y-78038778D01*
X175475673Y-78001673D01*
X175415015Y-77928759D01*
X175386489Y-77837486D01*
X175384218Y-77714285D01*
X175384371Y-77712123D01*
X175457445Y-77712123D01*
X175467308Y-77812221D01*
X175508781Y-77906171D01*
X175582166Y-77981929D01*
X175600684Y-77992766D01*
X175685251Y-78016005D01*
X175781406Y-78016021D01*
X175863416Y-77991900D01*
X175929233Y-77943301D01*
X175982561Y-77856536D01*
X175999957Y-77738492D01*
X175995828Y-77662914D01*
X175974774Y-77602279D01*
X175927649Y-77545313D01*
X175904556Y-77524056D01*
X175817649Y-77475521D01*
X175717032Y-77468559D01*
X175594281Y-77502078D01*
X175531328Y-77541652D01*
X175478886Y-77617919D01*
X175457445Y-77712123D01*
X175384371Y-77712123D01*
X175386219Y-77685955D01*
X175398371Y-77604678D01*
X175424025Y-77546826D01*
X175471304Y-77491625D01*
X175486916Y-77476481D01*
X175541090Y-77435672D01*
X175604014Y-77413834D01*
X175696200Y-77402874D01*
X175807336Y-77402710D01*
X175915090Y-77429628D01*
X175995058Y-77490619D01*
X176055247Y-77589854D01*
X176056938Y-77593721D01*
X176091585Y-77726953D01*
X176090400Y-77738492D01*
X176078881Y-77850620D01*
G37*
G36*
X176947714Y-77746641D02*
G01*
X176947630Y-77801935D01*
X176946257Y-77926705D01*
X176942605Y-78011315D01*
X176935909Y-78062907D01*
X176925404Y-78088625D01*
X176910324Y-78095611D01*
X176889984Y-78089023D01*
X176868671Y-78051990D01*
X176866307Y-78029681D01*
X176858858Y-77970979D01*
X176856234Y-77950819D01*
X176850658Y-77889968D01*
X176843003Y-77866637D01*
X176809493Y-77850655D01*
X176738438Y-77846347D01*
X176676813Y-77848975D01*
X176633731Y-77863811D01*
X176596271Y-77901073D01*
X176548892Y-77970979D01*
X176522476Y-78009595D01*
X176465981Y-78073169D01*
X176420999Y-78095611D01*
X176400463Y-78092724D01*
X176395052Y-78076461D01*
X176413724Y-78037801D01*
X176459143Y-77967818D01*
X176545204Y-77840025D01*
X176472269Y-77778654D01*
X176427702Y-77727150D01*
X176397019Y-77637149D01*
X176401150Y-77600934D01*
X176476152Y-77600934D01*
X176484956Y-77674742D01*
X176529512Y-77732765D01*
X176542795Y-77740582D01*
X176617609Y-77763137D01*
X176716460Y-77771568D01*
X176848008Y-77771568D01*
X176848008Y-77614401D01*
X176848008Y-77457235D01*
X176707456Y-77464108D01*
X176682896Y-77465696D01*
X176582841Y-77482662D01*
X176520508Y-77512969D01*
X176503909Y-77531115D01*
X176476152Y-77600934D01*
X176401150Y-77600934D01*
X176407777Y-77542828D01*
X176460516Y-77458855D01*
X176477718Y-77442553D01*
X176512986Y-77418541D01*
X176558858Y-77405002D01*
X176628407Y-77399018D01*
X176734707Y-77397672D01*
X176947714Y-77397672D01*
X176947714Y-77614401D01*
X176947714Y-77746641D01*
G37*
G36*
X177555631Y-77397799D02*
G01*
X177670791Y-77400008D01*
X177744053Y-77405473D01*
X177781389Y-77414859D01*
X177788770Y-77428830D01*
X177784861Y-77435098D01*
X177743064Y-77453207D01*
X177668292Y-77459988D01*
X177558411Y-77459988D01*
X177551434Y-77777799D01*
X177547836Y-77904211D01*
X177542517Y-77998762D01*
X177534734Y-78057373D01*
X177523496Y-78087253D01*
X177507813Y-78095611D01*
X177493035Y-78088769D01*
X177482156Y-78061748D01*
X177475468Y-78007116D01*
X177472098Y-77917467D01*
X177471168Y-77785397D01*
X177471168Y-77475182D01*
X177354716Y-77467585D01*
X177319615Y-77463962D01*
X177257171Y-77449089D01*
X177228007Y-77428830D01*
X177227525Y-77423868D01*
X177243967Y-77411414D01*
X177292311Y-77403337D01*
X177378519Y-77398978D01*
X177508558Y-77397672D01*
X177555631Y-77397799D01*
G37*
G36*
X178426705Y-77418203D02*
G01*
X178500611Y-77462622D01*
X178582283Y-77552295D01*
X178630381Y-77661530D01*
X178640363Y-77778457D01*
X178607688Y-77891206D01*
X178605119Y-77896023D01*
X178551560Y-77971156D01*
X178483175Y-78037871D01*
X178418372Y-78078007D01*
X178367582Y-78090626D01*
X178277320Y-78094683D01*
X178184250Y-78082793D01*
X178101507Y-78058093D01*
X178042228Y-78023717D01*
X178019549Y-77982802D01*
X178031459Y-77953795D01*
X178071145Y-77951687D01*
X178130251Y-77984235D01*
X178143766Y-77993083D01*
X178224965Y-78017242D01*
X178322386Y-78014678D01*
X178414757Y-77985311D01*
X178485804Y-77925489D01*
X178531495Y-77835860D01*
X178545315Y-77733085D01*
X178525464Y-77631468D01*
X178470142Y-77545313D01*
X178419806Y-77502379D01*
X178360554Y-77478428D01*
X178276277Y-77472451D01*
X178239753Y-77473976D01*
X178158908Y-77487131D01*
X178102547Y-77509382D01*
X178083696Y-77521908D01*
X178048680Y-77533079D01*
X178020457Y-77510935D01*
X178010221Y-77495378D01*
X178015889Y-77468796D01*
X178062268Y-77438750D01*
X178173247Y-77394679D01*
X178299941Y-77383498D01*
X178426705Y-77418203D01*
G37*
G36*
X179440354Y-77746641D02*
G01*
X179440354Y-78095611D01*
X179178627Y-78095611D01*
X179109664Y-78095315D01*
X179013258Y-78092692D01*
X178954360Y-78086403D01*
X178924923Y-78075295D01*
X178916899Y-78058221D01*
X178925597Y-78039796D01*
X178958017Y-78028239D01*
X179022848Y-78022428D01*
X179128774Y-78020832D01*
X179340648Y-78020832D01*
X179340648Y-77896200D01*
X179340648Y-77771568D01*
X179151623Y-77771568D01*
X179109125Y-77771271D01*
X179024723Y-77767114D01*
X178981408Y-77757192D01*
X178972901Y-77740410D01*
X178990440Y-77725960D01*
X179055080Y-77710663D01*
X179163246Y-77701901D01*
X179343288Y-77694551D01*
X179335737Y-77579372D01*
X179328185Y-77464192D01*
X179138260Y-77469854D01*
X179063853Y-77471157D01*
X178991164Y-77467827D01*
X178951042Y-77456852D01*
X178933400Y-77436594D01*
X178931509Y-77421635D01*
X178946343Y-77409279D01*
X178987345Y-77401998D01*
X179062404Y-77398545D01*
X179179409Y-77397672D01*
X179440354Y-77397672D01*
X179440354Y-77746641D01*
G37*
G36*
X180183358Y-77400365D02*
G01*
X180197194Y-77413675D01*
X180205906Y-77445449D01*
X180210672Y-77503534D01*
X180212668Y-77595777D01*
X180213072Y-77730024D01*
X180213013Y-77758280D01*
X180211339Y-77879082D01*
X180207712Y-77979306D01*
X180202596Y-78049196D01*
X180196455Y-78078993D01*
X180188724Y-78082304D01*
X180140446Y-78089117D01*
X180059961Y-78093843D01*
X179959654Y-78095611D01*
X179949493Y-78095603D01*
X179844747Y-78093844D01*
X179780544Y-78087997D01*
X179748310Y-78076609D01*
X179739471Y-78058221D01*
X179743754Y-78043868D01*
X179769926Y-78029868D01*
X179827809Y-78022790D01*
X179926419Y-78020832D01*
X180113367Y-78020832D01*
X180113367Y-77709252D01*
X180113620Y-77603592D01*
X180115362Y-77507865D01*
X180119898Y-77447507D01*
X180128522Y-77414422D01*
X180142530Y-77400509D01*
X180163219Y-77397672D01*
X180163222Y-77397672D01*
X180183358Y-77400365D01*
G37*
G36*
X181060570Y-77746641D02*
G01*
X181060570Y-78095611D01*
X180798843Y-78095611D01*
X180739553Y-78095389D01*
X180639179Y-78092903D01*
X180577229Y-78086771D01*
X180545832Y-78075899D01*
X180537115Y-78059192D01*
X180545149Y-78042582D01*
X180578745Y-78029425D01*
X180646088Y-78020957D01*
X180755221Y-78015570D01*
X180973327Y-78008368D01*
X180973327Y-77896200D01*
X180973327Y-77784031D01*
X180792611Y-77776707D01*
X180747954Y-77774530D01*
X180666926Y-77766540D01*
X180624293Y-77753382D01*
X180611895Y-77733086D01*
X180615489Y-77720543D01*
X180641351Y-77706222D01*
X180699576Y-77698866D01*
X180798843Y-77696788D01*
X180985791Y-77696788D01*
X180985791Y-77584620D01*
X180985791Y-77472451D01*
X180773916Y-77472451D01*
X180669508Y-77470916D01*
X180604014Y-77465195D01*
X180571087Y-77453754D01*
X180562042Y-77435061D01*
X180563221Y-77427280D01*
X180579226Y-77412481D01*
X180620442Y-77403434D01*
X180695069Y-77398907D01*
X180811306Y-77397672D01*
X181060570Y-77397672D01*
X181060570Y-77746641D01*
G37*
G36*
X168777307Y-78673569D02*
G01*
X168784319Y-78980498D01*
X168871561Y-78980498D01*
X168958803Y-78980498D01*
X168965826Y-78687613D01*
X168972849Y-78394728D01*
X169041122Y-78394728D01*
X169109395Y-78394728D01*
X169105205Y-78587907D01*
X169105133Y-78591326D01*
X169104951Y-78702157D01*
X169108238Y-78808232D01*
X169114308Y-78887024D01*
X169118639Y-78919231D01*
X169131721Y-78969415D01*
X169158431Y-78989380D01*
X169211455Y-78992961D01*
X169295310Y-78992961D01*
X169295310Y-78693844D01*
X169295310Y-78394728D01*
X169369298Y-78394728D01*
X169443286Y-78394728D01*
X169450309Y-78687613D01*
X169457331Y-78980498D01*
X169538342Y-78988309D01*
X169619353Y-78996120D01*
X169619353Y-78695424D01*
X169619353Y-78394728D01*
X169694132Y-78394728D01*
X169768911Y-78394728D01*
X169768911Y-78683715D01*
X169769004Y-78744372D01*
X169770400Y-78849381D01*
X169774623Y-78917229D01*
X169783123Y-78956709D01*
X169797353Y-78976615D01*
X169818764Y-78985739D01*
X169823001Y-78986919D01*
X169837594Y-78993998D01*
X169848691Y-79009286D01*
X169856770Y-79038733D01*
X169862309Y-79088288D01*
X169865785Y-79163900D01*
X169867677Y-79271517D01*
X169868461Y-79417089D01*
X169868617Y-79606565D01*
X169868617Y-80214355D01*
X168697076Y-80214355D01*
X167525535Y-80214355D01*
X167525535Y-79605392D01*
X167525535Y-78996428D01*
X167581620Y-78988463D01*
X167599609Y-78984900D01*
X167617830Y-78973428D01*
X167629644Y-78946580D01*
X167636860Y-78895741D01*
X167641285Y-78812291D01*
X167644727Y-78687613D01*
X167651749Y-78394728D01*
X167725738Y-78394728D01*
X167799726Y-78394728D01*
X167799726Y-78695424D01*
X167799726Y-78996120D01*
X167880737Y-78988309D01*
X167961747Y-78980498D01*
X167968770Y-78687613D01*
X167975793Y-78394728D01*
X168049781Y-78394728D01*
X168123769Y-78394728D01*
X168123769Y-78693844D01*
X168123769Y-78992961D01*
X168211011Y-78992961D01*
X168298254Y-78992961D01*
X168298254Y-78693844D01*
X168298254Y-78394728D01*
X168372242Y-78394728D01*
X168446230Y-78394728D01*
X168453253Y-78687613D01*
X168460275Y-78980498D01*
X168540507Y-78988251D01*
X168620738Y-78996003D01*
X168627749Y-78689134D01*
X168634760Y-78382264D01*
X168702528Y-78374452D01*
X168770296Y-78366640D01*
X168777307Y-78673569D01*
G37*
G36*
X171718850Y-73776527D02*
G01*
X171912582Y-73969122D01*
X171912582Y-74262592D01*
X171912582Y-74556062D01*
X171787950Y-74556062D01*
X171663318Y-74556062D01*
X171663318Y-74680694D01*
X171663318Y-74805326D01*
X171787950Y-74805326D01*
X171912582Y-74805326D01*
X171912582Y-74942421D01*
X171912582Y-75079517D01*
X171787950Y-75079517D01*
X171663318Y-75079517D01*
X171663318Y-75204149D01*
X171663318Y-75328781D01*
X171787950Y-75328781D01*
X171912582Y-75328781D01*
X171912582Y-75453413D01*
X171912582Y-75578045D01*
X171786647Y-75578045D01*
X171660712Y-75578045D01*
X171668247Y-75708908D01*
X171675781Y-75839772D01*
X171794181Y-75847369D01*
X171912582Y-75854966D01*
X171912582Y-75976867D01*
X171912582Y-76098767D01*
X171794181Y-76106365D01*
X171675781Y-76113962D01*
X171668183Y-76232362D01*
X171660586Y-76350763D01*
X171786584Y-76350763D01*
X171912582Y-76350763D01*
X171912582Y-76487858D01*
X171912582Y-76624953D01*
X171787950Y-76624953D01*
X171663318Y-76624953D01*
X171663318Y-76749585D01*
X171663318Y-76874217D01*
X171787950Y-76874217D01*
X171912582Y-76874217D01*
X171912582Y-77011312D01*
X171912582Y-77148408D01*
X171787950Y-77148408D01*
X171663318Y-77148408D01*
X171663318Y-77273040D01*
X171663318Y-77397672D01*
X171787950Y-77397672D01*
X171912582Y-77397672D01*
X171912582Y-77522304D01*
X171912582Y-77646936D01*
X171827378Y-77646936D01*
X171744971Y-77651087D01*
X171692465Y-77671202D01*
X171668819Y-77717246D01*
X171663318Y-77799161D01*
X171663318Y-77921126D01*
X171787950Y-77921126D01*
X171912582Y-77921126D01*
X171912582Y-78058221D01*
X171912582Y-78195316D01*
X171786584Y-78195316D01*
X171660586Y-78195316D01*
X171668183Y-78313717D01*
X171675781Y-78432117D01*
X171794181Y-78439714D01*
X171912582Y-78447312D01*
X171912582Y-78569212D01*
X171912582Y-78691113D01*
X171794181Y-78698710D01*
X171675781Y-78706308D01*
X171668247Y-78837171D01*
X171660712Y-78968035D01*
X171786647Y-78968035D01*
X171912582Y-78968035D01*
X171912582Y-79397464D01*
X171912582Y-79826893D01*
X171719987Y-80020624D01*
X171527392Y-80214355D01*
X170860026Y-80214355D01*
X170192660Y-80214355D01*
X170192660Y-77285503D01*
X170192660Y-74356651D01*
X170491777Y-74356651D01*
X170790894Y-74356651D01*
X170790894Y-74119850D01*
X170790894Y-73883049D01*
X170491777Y-73883049D01*
X170192660Y-73883049D01*
X170192660Y-73733491D01*
X170192660Y-73583933D01*
X170858890Y-73583933D01*
X171525119Y-73583933D01*
X171718850Y-73776527D01*
G37*
G36*
X201788820Y-79876290D02*
G01*
X201788567Y-79916363D01*
X201784942Y-80028410D01*
X201777914Y-80111066D01*
X201768637Y-80148757D01*
X201736572Y-80158232D01*
X201659488Y-80165970D01*
X201556718Y-80168940D01*
X201519516Y-80168700D01*
X201426105Y-80163449D01*
X201378373Y-80149287D01*
X201364982Y-80123528D01*
X201379378Y-80096500D01*
X201431076Y-80082194D01*
X201531490Y-80078117D01*
X201612672Y-80076930D01*
X201669938Y-80068594D01*
X201693448Y-80046507D01*
X201697998Y-80004091D01*
X201697294Y-79983335D01*
X201683951Y-79947466D01*
X201641490Y-79929666D01*
X201554195Y-79920837D01*
X201510085Y-79916836D01*
X201433493Y-79899404D01*
X201415725Y-79876968D01*
X201456634Y-79855696D01*
X201556074Y-79841757D01*
X201596749Y-79838807D01*
X201664391Y-79828117D01*
X201691460Y-79806530D01*
X201692307Y-79766072D01*
X201689028Y-79749136D01*
X201668450Y-79716600D01*
X201618630Y-79699408D01*
X201523921Y-79690540D01*
X201490077Y-79688171D01*
X201401256Y-79675184D01*
X201368547Y-79658482D01*
X201388932Y-79641857D01*
X201459390Y-79629100D01*
X201576901Y-79624005D01*
X201788820Y-79624005D01*
X201788820Y-79876290D01*
G37*
G36*
X201080678Y-79624149D02*
G01*
X201101688Y-79637732D01*
X201114561Y-79680748D01*
X201121019Y-79763546D01*
X201122789Y-79896472D01*
X201122789Y-80168940D01*
X200938621Y-80168940D01*
X200835719Y-80165526D01*
X200778288Y-80153448D01*
X200766898Y-80131097D01*
X200773428Y-80121887D01*
X200824446Y-80097979D01*
X200905654Y-80083945D01*
X201031967Y-80074636D01*
X201031967Y-79849320D01*
X201032962Y-79764514D01*
X201039277Y-79679139D01*
X201053346Y-79635960D01*
X201077378Y-79624005D01*
X201080678Y-79624149D01*
G37*
G36*
X200517306Y-79896472D02*
G01*
X200517306Y-80168940D01*
X200318002Y-80168940D01*
X200305443Y-80168913D01*
X200197745Y-80164827D01*
X200142134Y-80152724D01*
X200131155Y-80131097D01*
X200140613Y-80119747D01*
X200196096Y-80097231D01*
X200281918Y-80084155D01*
X200346713Y-80077357D01*
X200409007Y-80056537D01*
X200435198Y-80017791D01*
X200441771Y-79983173D01*
X200430645Y-79947156D01*
X200382302Y-79930681D01*
X200285205Y-79926746D01*
X200234865Y-79925252D01*
X200172497Y-79911780D01*
X200154017Y-79881335D01*
X200164328Y-79857098D01*
X200211565Y-79840661D01*
X200307493Y-79835924D01*
X200368271Y-79835242D01*
X200428855Y-79828219D01*
X200451781Y-79807990D01*
X200451295Y-79767807D01*
X200447585Y-79748779D01*
X200426871Y-79716293D01*
X200377161Y-79699289D01*
X200282682Y-79690540D01*
X200271675Y-79689862D01*
X200171963Y-79677579D01*
X200129429Y-79660567D01*
X200141636Y-79643111D01*
X200206147Y-79629496D01*
X200320524Y-79624005D01*
X200517306Y-79624005D01*
X200517306Y-79896472D01*
G37*
G36*
X199725162Y-79627372D02*
G01*
X199816136Y-79684856D01*
X199878889Y-79770203D01*
X199905971Y-79872114D01*
X199889934Y-79979295D01*
X199823330Y-80080446D01*
X199803800Y-80099120D01*
X199719088Y-80153783D01*
X199617466Y-80168940D01*
X199528620Y-80158707D01*
X199454985Y-80124439D01*
X199427437Y-80072641D01*
X199434192Y-80066246D01*
X199483263Y-80061269D01*
X199564225Y-80067750D01*
X199629831Y-80074248D01*
X199705083Y-80066490D01*
X199761007Y-80032205D01*
X199807136Y-79967184D01*
X199815153Y-79873245D01*
X199768021Y-79777838D01*
X199721190Y-79737350D01*
X199647393Y-79703563D01*
X199577395Y-79693966D01*
X199533546Y-79714586D01*
X199495233Y-79742164D01*
X199449380Y-79737913D01*
X199427437Y-79702652D01*
X199427772Y-79698999D01*
X199458544Y-79660674D01*
X199524040Y-79626526D01*
X199613415Y-79609048D01*
X199725162Y-79627372D01*
G37*
G36*
X199029384Y-79624033D02*
G01*
X199141355Y-79628392D01*
X199217619Y-79639025D01*
X199245793Y-79654279D01*
X199243389Y-79666465D01*
X199205609Y-79687371D01*
X199117128Y-79686137D01*
X199108345Y-79685686D01*
X199085167Y-79695101D01*
X199071782Y-79730405D01*
X199065629Y-79803139D01*
X199064148Y-79924843D01*
X199062650Y-80034602D01*
X199055931Y-80116384D01*
X199041959Y-80157588D01*
X199018737Y-80168940D01*
X198998623Y-80161229D01*
X198983225Y-80125591D01*
X198975464Y-80051014D01*
X198973325Y-79926746D01*
X198973325Y-79684553D01*
X198882503Y-79684553D01*
X198881373Y-79684551D01*
X198817988Y-79675536D01*
X198791681Y-79654279D01*
X198791893Y-79652860D01*
X198824586Y-79637930D01*
X198904329Y-79627762D01*
X199018737Y-79624005D01*
X199029384Y-79624033D01*
G37*
G36*
X198579762Y-79896472D02*
G01*
X198579738Y-79916272D01*
X198577474Y-80042335D01*
X198570304Y-80119569D01*
X198556505Y-80158321D01*
X198534350Y-80168940D01*
X198502478Y-80150222D01*
X198488939Y-80078117D01*
X198487255Y-80039919D01*
X198467919Y-79997425D01*
X198414965Y-79987295D01*
X198353265Y-80004816D01*
X198287342Y-80078117D01*
X198281972Y-80086899D01*
X198235058Y-80145122D01*
X198194808Y-80168940D01*
X198170854Y-80163403D01*
X198158673Y-80124072D01*
X198190857Y-80051633D01*
X198196436Y-80042162D01*
X198207838Y-79988259D01*
X198175720Y-79924211D01*
X198136757Y-79849524D01*
X198135671Y-79830662D01*
X198229939Y-79830662D01*
X198244443Y-79861882D01*
X198286978Y-79889323D01*
X198369883Y-79896472D01*
X198402071Y-79896278D01*
X198462064Y-79888789D01*
X198485154Y-79858755D01*
X198488939Y-79790513D01*
X198484605Y-79722883D01*
X198461137Y-79691100D01*
X198403903Y-79684553D01*
X198379916Y-79685413D01*
X198287530Y-79709750D01*
X198234055Y-79761091D01*
X198229939Y-79830662D01*
X198135671Y-79830662D01*
X198131538Y-79758910D01*
X198178712Y-79687541D01*
X198274033Y-79640783D01*
X198413254Y-79624005D01*
X198579762Y-79624005D01*
X198579762Y-79790513D01*
X198579762Y-79896472D01*
G37*
G36*
X197915349Y-79859523D02*
G01*
X197896965Y-79973242D01*
X197825237Y-80080446D01*
X197815507Y-80089958D01*
X197727105Y-80151291D01*
X197626126Y-80168940D01*
X197614062Y-80168765D01*
X197515740Y-80147109D01*
X197427016Y-80080446D01*
X197411668Y-80064226D01*
X197349031Y-79956710D01*
X197347669Y-79905444D01*
X197438861Y-79905444D01*
X197469469Y-79998612D01*
X197491927Y-80028401D01*
X197574253Y-80084471D01*
X197669194Y-80083218D01*
X197769928Y-80024063D01*
X197771536Y-80022643D01*
X197816622Y-79947559D01*
X197817545Y-79858722D01*
X197781601Y-79773619D01*
X197716084Y-79709734D01*
X197628289Y-79684553D01*
X197590402Y-79688805D01*
X197508207Y-79732982D01*
X197454734Y-79811048D01*
X197438861Y-79905444D01*
X197347669Y-79905444D01*
X197346042Y-79844227D01*
X197403046Y-79731786D01*
X197484080Y-79653273D01*
X197595324Y-79610177D01*
X197721216Y-79625413D01*
X197804467Y-79666716D01*
X197883484Y-79752833D01*
X197915110Y-79858722D01*
X197915349Y-79859523D01*
G37*
G36*
X197074721Y-79607016D02*
G01*
X197087408Y-79649718D01*
X197094269Y-79737810D01*
X197096329Y-79878812D01*
X197096212Y-79924114D01*
X197093548Y-80046402D01*
X197086166Y-80121224D01*
X197072484Y-80158697D01*
X197050918Y-80168940D01*
X197039360Y-80167061D01*
X197018860Y-80142177D01*
X197008422Y-80079455D01*
X197005507Y-79967643D01*
X197005507Y-79766346D01*
X196853121Y-79967643D01*
X196776320Y-80065680D01*
X196704876Y-80142055D01*
X196657317Y-80164678D01*
X196629042Y-80132194D01*
X196615451Y-80043245D01*
X196611943Y-79896472D01*
X196611944Y-79891751D01*
X196613956Y-79759593D01*
X196620877Y-79677592D01*
X196634323Y-79635733D01*
X196655909Y-79624005D01*
X196682276Y-79640713D01*
X196699318Y-79698820D01*
X196708889Y-79807812D01*
X196717902Y-79991620D01*
X196869273Y-79802292D01*
X196887621Y-79779594D01*
X196961886Y-79692711D01*
X197022743Y-79628967D01*
X197058486Y-79600825D01*
X197074721Y-79607016D01*
G37*
G36*
X196283935Y-79627023D02*
G01*
X196297236Y-79672788D01*
X196306026Y-79765917D01*
X196309201Y-79896472D01*
X196308866Y-79941544D01*
X196303781Y-80061249D01*
X196293433Y-80140360D01*
X196278927Y-80168940D01*
X196273919Y-80165921D01*
X196260619Y-80120157D01*
X196251829Y-80027027D01*
X196248653Y-79896472D01*
X196248989Y-79851401D01*
X196254073Y-79731696D01*
X196264421Y-79652584D01*
X196278927Y-79624005D01*
X196283935Y-79627023D01*
G37*
G36*
X195821200Y-79637273D02*
G01*
X195857438Y-79659169D01*
X195940045Y-79748692D01*
X195974097Y-79858568D01*
X195957383Y-79974063D01*
X195887692Y-80080446D01*
X195865204Y-80101806D01*
X195781529Y-80154501D01*
X195679480Y-80168940D01*
X195628268Y-80165102D01*
X195548497Y-80140034D01*
X195502978Y-80099126D01*
X195504843Y-80051230D01*
X195533869Y-80039827D01*
X195600214Y-80061699D01*
X195667221Y-80085306D01*
X195762869Y-80074655D01*
X195840878Y-80007060D01*
X195876028Y-79934837D01*
X195875618Y-79834239D01*
X195817247Y-79744165D01*
X195766947Y-79709454D01*
X195669141Y-79694004D01*
X195544779Y-79728922D01*
X195507520Y-79736346D01*
X195491800Y-79704145D01*
X195492315Y-79698790D01*
X195527299Y-79657515D01*
X195607981Y-79621901D01*
X195666989Y-79606885D01*
X195742164Y-79606082D01*
X195821200Y-79637273D01*
G37*
G36*
X195122222Y-79606722D02*
G01*
X195185650Y-79650871D01*
X195195044Y-79660560D01*
X195247460Y-79742683D01*
X195240992Y-79815583D01*
X195175200Y-79880188D01*
X195049643Y-79937427D01*
X195022734Y-79947864D01*
X194957731Y-79985151D01*
X194931728Y-80020615D01*
X194934542Y-80031732D01*
X194974349Y-80059427D01*
X195043023Y-80073244D01*
X195117121Y-80070481D01*
X195173204Y-80048439D01*
X195204466Y-80030602D01*
X195236400Y-80050966D01*
X195239146Y-80081653D01*
X195203034Y-80128121D01*
X195199591Y-80130577D01*
X195111693Y-80165263D01*
X195012857Y-80166176D01*
X194920589Y-80138445D01*
X194852391Y-80087199D01*
X194825769Y-80017569D01*
X194848116Y-79955169D01*
X194916004Y-79892393D01*
X195013740Y-79850449D01*
X195032718Y-79845265D01*
X195111115Y-79807985D01*
X195138949Y-79761638D01*
X195111319Y-79713123D01*
X195104601Y-79707825D01*
X195050795Y-79688467D01*
X194974843Y-79706427D01*
X194911042Y-79723236D01*
X194867894Y-79709510D01*
X194864854Y-79669331D01*
X194914024Y-79631261D01*
X195014187Y-79604361D01*
X195043434Y-79600408D01*
X195122222Y-79606722D01*
G37*
G36*
X204478877Y-78959838D02*
G01*
X204478505Y-79084791D01*
X204475874Y-79175252D01*
X204471156Y-79218208D01*
X204454708Y-79232656D01*
X204389183Y-79247497D01*
X204289835Y-79251599D01*
X204172582Y-79245964D01*
X204053342Y-79231590D01*
X203948034Y-79209478D01*
X203872575Y-79180625D01*
X203850002Y-79166652D01*
X203745537Y-79066120D01*
X203687739Y-78942495D01*
X203675955Y-78808195D01*
X203677125Y-78803578D01*
X203865018Y-78803578D01*
X203884189Y-78933199D01*
X203919649Y-79000137D01*
X203969752Y-79049436D01*
X203987962Y-79056833D01*
X204066329Y-79072733D01*
X204163349Y-79079071D01*
X204301573Y-79079071D01*
X204301573Y-78821740D01*
X204301573Y-78564410D01*
X204169422Y-78564410D01*
X204099497Y-78569880D01*
X203979073Y-78613642D01*
X203898780Y-78694300D01*
X203865018Y-78803578D01*
X203677125Y-78803578D01*
X203709532Y-78675640D01*
X203787819Y-78557247D01*
X203910162Y-78465437D01*
X203990906Y-78434909D01*
X204095694Y-78420230D01*
X204241025Y-78420025D01*
X204468081Y-78428177D01*
X204476629Y-78804924D01*
X204476817Y-78813404D01*
X204476934Y-78821740D01*
X204478877Y-78959838D01*
G37*
G36*
X202382414Y-78975432D02*
G01*
X202480079Y-79206506D01*
X202480183Y-79206763D01*
X202460935Y-79223495D01*
X202401685Y-79230441D01*
X202327046Y-79214484D01*
X202278715Y-79154756D01*
X202256725Y-79116165D01*
X202221945Y-79091830D01*
X202160056Y-79081401D01*
X202054368Y-79079262D01*
X202044507Y-79079277D01*
X201943033Y-79081813D01*
X201882530Y-79093502D01*
X201844821Y-79121307D01*
X201811726Y-79172188D01*
X201786912Y-79211688D01*
X201744286Y-79247855D01*
X201690630Y-79243921D01*
X201645886Y-79229117D01*
X201613712Y-79215558D01*
X201614284Y-79210306D01*
X201631054Y-79162504D01*
X201666581Y-79073266D01*
X201716801Y-78952626D01*
X201740193Y-78898038D01*
X201940191Y-78898038D01*
X201941105Y-78901929D01*
X201976112Y-78920249D01*
X202046150Y-78927700D01*
X202058685Y-78927613D01*
X202120378Y-78920069D01*
X202145133Y-78892463D01*
X202135726Y-78833694D01*
X202094933Y-78732663D01*
X202042247Y-78613312D01*
X201991219Y-78740845D01*
X201977177Y-78777088D01*
X201950698Y-78853802D01*
X201940191Y-78898038D01*
X201740193Y-78898038D01*
X201777653Y-78810618D01*
X201806308Y-78744691D01*
X201866819Y-78607956D01*
X201911401Y-78515132D01*
X201945753Y-78457723D01*
X201975577Y-78427236D01*
X202006574Y-78415173D01*
X202044444Y-78413040D01*
X202073214Y-78414703D01*
X202100493Y-78423888D01*
X202127873Y-78446639D01*
X202158671Y-78489001D01*
X202196206Y-78557017D01*
X202243796Y-78656732D01*
X202304759Y-78794189D01*
X202346865Y-78892463D01*
X202382414Y-78975432D01*
G37*
G36*
X200750449Y-78415336D02*
G01*
X200772942Y-78430229D01*
X200784643Y-78469708D01*
X200789079Y-78545759D01*
X200789774Y-78670370D01*
X200790250Y-78717844D01*
X200795393Y-78825166D01*
X200804985Y-78899751D01*
X200817525Y-78927700D01*
X200823095Y-78927155D01*
X200855367Y-78898977D01*
X200862268Y-78886057D01*
X200898634Y-78830306D01*
X200958060Y-78744736D01*
X201031967Y-78641843D01*
X201048170Y-78619718D01*
X201128007Y-78516000D01*
X201187005Y-78453000D01*
X201234975Y-78421739D01*
X201281728Y-78413236D01*
X201364982Y-78413040D01*
X201364982Y-78821740D01*
X201364982Y-79230441D01*
X201275384Y-79230441D01*
X201185786Y-79230441D01*
X201176993Y-78987542D01*
X201168200Y-78744643D01*
X200986555Y-78986183D01*
X200935616Y-79051414D01*
X200855033Y-79144903D01*
X200787675Y-79211579D01*
X200744362Y-79240096D01*
X200707071Y-79247630D01*
X200661108Y-79256593D01*
X200658125Y-79253465D01*
X200650364Y-79207757D01*
X200644105Y-79115962D01*
X200639925Y-78988772D01*
X200638403Y-78836878D01*
X200638403Y-78413040D01*
X200714088Y-78413040D01*
X200750449Y-78415336D01*
G37*
G36*
X199259302Y-78414841D02*
G01*
X199289386Y-78431759D01*
X199304434Y-78479122D01*
X199312327Y-78571979D01*
X199321478Y-78730918D01*
X199510691Y-78739931D01*
X199699905Y-78748944D01*
X199699905Y-78578981D01*
X199699905Y-78573201D01*
X199701522Y-78479462D01*
X199711126Y-78431715D01*
X199735933Y-78416060D01*
X199783159Y-78418597D01*
X199866412Y-78428177D01*
X199874960Y-78804924D01*
X199875137Y-78812861D01*
X199877109Y-78959723D01*
X199876495Y-79085494D01*
X199873503Y-79177031D01*
X199868342Y-79221193D01*
X199840101Y-79246818D01*
X199776540Y-79260715D01*
X199773083Y-79260709D01*
X199732065Y-79256316D01*
X199710197Y-79234062D01*
X199701477Y-79179722D01*
X199699905Y-79079071D01*
X199699905Y-78897426D01*
X199518260Y-78897426D01*
X199336615Y-78897426D01*
X199336202Y-79010954D01*
X199334015Y-79086023D01*
X199318021Y-79188434D01*
X199283561Y-79243985D01*
X199227125Y-79260715D01*
X199154970Y-79260715D01*
X199154970Y-78836878D01*
X199154970Y-78413040D01*
X199229073Y-78413040D01*
X199259302Y-78414841D01*
G37*
G36*
X198821955Y-78816695D02*
G01*
X198821882Y-78851014D01*
X198819850Y-78997732D01*
X198815445Y-79119459D01*
X198809231Y-79204343D01*
X198801772Y-79240533D01*
X198784627Y-79246083D01*
X198716667Y-79253621D01*
X198611065Y-79258794D01*
X198481883Y-79260715D01*
X198182176Y-79260715D01*
X198191756Y-79177462D01*
X198195370Y-79151166D01*
X198208378Y-79118473D01*
X198241256Y-79100234D01*
X198307555Y-79090997D01*
X198420822Y-79085313D01*
X198640310Y-79076418D01*
X198640310Y-78986922D01*
X198640310Y-78897426D01*
X198443528Y-78897426D01*
X198411389Y-78897382D01*
X198318839Y-78894985D01*
X198269668Y-78885087D01*
X198250197Y-78862426D01*
X198246746Y-78821740D01*
X198246860Y-78809379D01*
X198253092Y-78773783D01*
X198278828Y-78754871D01*
X198337747Y-78747382D01*
X198443528Y-78746055D01*
X198640310Y-78746055D01*
X198640310Y-78655233D01*
X198640310Y-78564410D01*
X198428391Y-78564410D01*
X198371882Y-78564273D01*
X198284100Y-78561328D01*
X198237733Y-78550897D01*
X198219588Y-78528266D01*
X198216472Y-78488725D01*
X198216472Y-78413040D01*
X198519213Y-78413040D01*
X198821955Y-78413040D01*
X198821955Y-78816695D01*
G37*
G36*
X197066055Y-78488725D02*
G01*
X197066012Y-78495316D01*
X197057656Y-78540794D01*
X197022979Y-78560279D01*
X196944958Y-78564410D01*
X196823862Y-78564410D01*
X196823862Y-78895206D01*
X196822885Y-79037791D01*
X196818746Y-79136571D01*
X196809797Y-79195729D01*
X196794391Y-79225913D01*
X196770882Y-79237771D01*
X196738793Y-79243679D01*
X196695086Y-79241090D01*
X196666927Y-79213798D01*
X196650964Y-79152851D01*
X196643845Y-79049298D01*
X196642217Y-78894187D01*
X196642217Y-78564410D01*
X196521120Y-78564410D01*
X196510575Y-78564383D01*
X196437810Y-78559161D01*
X196406633Y-78537488D01*
X196400024Y-78488725D01*
X196400024Y-78413040D01*
X196733039Y-78413040D01*
X197066055Y-78413040D01*
X197066055Y-78488725D01*
G37*
G36*
X196157831Y-78819521D02*
G01*
X196157584Y-78926389D01*
X196155576Y-79059628D01*
X196150516Y-79147773D01*
X196141187Y-79200437D01*
X196126371Y-79227232D01*
X196104851Y-79237771D01*
X196045673Y-79243107D01*
X195992833Y-79213176D01*
X195976186Y-79135315D01*
X195965059Y-79066637D01*
X195934245Y-78987022D01*
X195894489Y-78923423D01*
X195856640Y-78897426D01*
X195831497Y-78918466D01*
X195782931Y-78977315D01*
X195722419Y-79060713D01*
X195712609Y-79074836D01*
X195640806Y-79166588D01*
X195579032Y-79217193D01*
X195513037Y-79238770D01*
X195507917Y-79239532D01*
X195439069Y-79245941D01*
X195403766Y-79242256D01*
X195403296Y-79241439D01*
X195416728Y-79209416D01*
X195457736Y-79143442D01*
X195518233Y-79056631D01*
X195527663Y-79043672D01*
X195613067Y-78924712D01*
X195665191Y-78840738D01*
X195685524Y-78778465D01*
X195675557Y-78724608D01*
X195636780Y-78665883D01*
X195570682Y-78589004D01*
X195429647Y-78428177D01*
X195523179Y-78418548D01*
X195538287Y-78417372D01*
X195588065Y-78422667D01*
X195639113Y-78449326D01*
X195703954Y-78505713D01*
X195795108Y-78600193D01*
X195973505Y-78791466D01*
X195974845Y-78602253D01*
X195976186Y-78413040D01*
X196067008Y-78413040D01*
X196157831Y-78413040D01*
X196157831Y-78819521D01*
G37*
G36*
X195119263Y-78933795D02*
G01*
X195170747Y-79045646D01*
X195208903Y-79124413D01*
X195228444Y-79158822D01*
X195248790Y-79189534D01*
X195230352Y-79219707D01*
X195158135Y-79230441D01*
X195156682Y-79230438D01*
X195078804Y-79213502D01*
X195032179Y-79154756D01*
X195009829Y-79115729D01*
X194974871Y-79091648D01*
X194912649Y-79081286D01*
X194806550Y-79079071D01*
X194799321Y-79079074D01*
X194696450Y-79081373D01*
X194635666Y-79092331D01*
X194599501Y-79118376D01*
X194570484Y-79165937D01*
X194554597Y-79194122D01*
X194510507Y-79236769D01*
X194448610Y-79238093D01*
X194397500Y-79222759D01*
X194371657Y-79201479D01*
X194372445Y-79197546D01*
X194389583Y-79150842D01*
X194425715Y-79062436D01*
X194476337Y-78943168D01*
X194506119Y-78874720D01*
X194705941Y-78874720D01*
X194707713Y-78892725D01*
X194736400Y-78920105D01*
X194810632Y-78927700D01*
X194835402Y-78927627D01*
X194889918Y-78922660D01*
X194910439Y-78900396D01*
X194901074Y-78847755D01*
X194865929Y-78751657D01*
X194815267Y-78619001D01*
X194761239Y-78720371D01*
X194754779Y-78732852D01*
X194720560Y-78813632D01*
X194705941Y-78874720D01*
X194506119Y-78874720D01*
X194536943Y-78803876D01*
X194555792Y-78761065D01*
X194617448Y-78623060D01*
X194662579Y-78529677D01*
X194697277Y-78472207D01*
X194727631Y-78441939D01*
X194759731Y-78430166D01*
X194799669Y-78428177D01*
X194802211Y-78428179D01*
X194842551Y-78430616D01*
X194874898Y-78443754D01*
X194905643Y-78476573D01*
X194941179Y-78538053D01*
X194987899Y-78637174D01*
X195052195Y-78782918D01*
X195059735Y-78800132D01*
X195104388Y-78900396D01*
X195119263Y-78933795D01*
G37*
G36*
X203399451Y-79004097D02*
G01*
X203442951Y-79108853D01*
X203472975Y-79183376D01*
X203484172Y-79215026D01*
X203459899Y-79225735D01*
X203398209Y-79230441D01*
X203329334Y-79216305D01*
X203279030Y-79157542D01*
X203264110Y-79130130D01*
X203229388Y-79099775D01*
X203167886Y-79083327D01*
X203062724Y-79074288D01*
X203054649Y-79073834D01*
X202955804Y-79070316D01*
X202899269Y-79077575D01*
X202868065Y-79101302D01*
X202845214Y-79147187D01*
X202831345Y-79176450D01*
X202787142Y-79219519D01*
X202709857Y-79230441D01*
X202608920Y-79230441D01*
X202701926Y-79010954D01*
X202748753Y-78900732D01*
X202939237Y-78900732D01*
X202946419Y-78910640D01*
X202992876Y-78923517D01*
X203060939Y-78927195D01*
X203125179Y-78921185D01*
X203160167Y-78904994D01*
X203161044Y-78890498D01*
X203145860Y-78831663D01*
X203113568Y-78749430D01*
X203054385Y-78616572D01*
X202996811Y-78745168D01*
X202979851Y-78784252D01*
X202950748Y-78858891D01*
X202939237Y-78900732D01*
X202748753Y-78900732D01*
X202763409Y-78866235D01*
X202833377Y-78704252D01*
X202887019Y-78586279D01*
X202928428Y-78505359D01*
X202961696Y-78454532D01*
X202990915Y-78426842D01*
X203020178Y-78415331D01*
X203053576Y-78413040D01*
X203058620Y-78413080D01*
X203132228Y-78432106D01*
X203179881Y-78496294D01*
X203197718Y-78535531D01*
X203241609Y-78634826D01*
X203293429Y-78754444D01*
X203347827Y-78881748D01*
X203351519Y-78890498D01*
X203399451Y-79004097D01*
G37*
G36*
X197913731Y-78820681D02*
G01*
X197913731Y-79230441D01*
X197595852Y-79230441D01*
X197277974Y-79230441D01*
X197277974Y-79154756D01*
X197278808Y-79128173D01*
X197289183Y-79100314D01*
X197321842Y-79085678D01*
X197389540Y-79080014D01*
X197505030Y-79079071D01*
X197732086Y-79079071D01*
X197732086Y-78988248D01*
X197732086Y-78897426D01*
X197535304Y-78897426D01*
X197503165Y-78897382D01*
X197410615Y-78894985D01*
X197361444Y-78885087D01*
X197341973Y-78862426D01*
X197338522Y-78821740D01*
X197338636Y-78809379D01*
X197344868Y-78773783D01*
X197370603Y-78754871D01*
X197429523Y-78747382D01*
X197535304Y-78746055D01*
X197732086Y-78746055D01*
X197732086Y-78656559D01*
X197732086Y-78567063D01*
X197512598Y-78558168D01*
X197492911Y-78557346D01*
X197386505Y-78550732D01*
X197326178Y-78539761D01*
X197299267Y-78520427D01*
X197293111Y-78488725D01*
X197293150Y-78484966D01*
X197298913Y-78458742D01*
X197322022Y-78441496D01*
X197373277Y-78430820D01*
X197463476Y-78424307D01*
X197603421Y-78419549D01*
X197913731Y-78410921D01*
X197913731Y-78820681D01*
G37*
G36*
X194005827Y-78419080D02*
G01*
X194114327Y-78428177D01*
X194122774Y-78829309D01*
X194131221Y-79230441D01*
X194039520Y-79230441D01*
X193947819Y-79230441D01*
X193945826Y-78965543D01*
X193943833Y-78700644D01*
X193831243Y-78927489D01*
X193786764Y-79013948D01*
X193725119Y-79113487D01*
X193673791Y-79157215D01*
X193626275Y-79145809D01*
X193576067Y-79079948D01*
X193516664Y-78960313D01*
X193505627Y-78936274D01*
X193457466Y-78839564D01*
X193417542Y-78771674D01*
X193393580Y-78746055D01*
X193388894Y-78747983D01*
X193375993Y-78786728D01*
X193374239Y-78859583D01*
X193374984Y-78873243D01*
X193377910Y-78986719D01*
X193376842Y-79101776D01*
X193376069Y-79122247D01*
X193367869Y-79193407D01*
X193344920Y-79223946D01*
X193296925Y-79230441D01*
X193221240Y-79230441D01*
X193221240Y-78821740D01*
X193221240Y-78413040D01*
X193320471Y-78413040D01*
X193366970Y-78415996D01*
X193404898Y-78432059D01*
X193440903Y-78471620D01*
X193484301Y-78545071D01*
X193544407Y-78662801D01*
X193669111Y-78912563D01*
X193783219Y-78661274D01*
X193897327Y-78409984D01*
X194005827Y-78419080D01*
G37*
G36*
X192888224Y-78821740D02*
G01*
X192888224Y-79230441D01*
X192800506Y-79230441D01*
X192747692Y-79226370D01*
X192720044Y-79200078D01*
X192717252Y-79132682D01*
X192717605Y-79082753D01*
X192703137Y-79047512D01*
X192658304Y-79029016D01*
X192568200Y-79015553D01*
X192543871Y-79012272D01*
X192393393Y-78977323D01*
X192293951Y-78920010D01*
X192239050Y-78834705D01*
X192223157Y-78722585D01*
X192403838Y-78722585D01*
X192420743Y-78795584D01*
X192481494Y-78837627D01*
X192545783Y-78855967D01*
X192632865Y-78867152D01*
X192661253Y-78865783D01*
X192691449Y-78850533D01*
X192704050Y-78805681D01*
X192706579Y-78715781D01*
X192706579Y-78564410D01*
X192591538Y-78564410D01*
X192579589Y-78564523D01*
X192477087Y-78581687D01*
X192420935Y-78632325D01*
X192403838Y-78722585D01*
X192223157Y-78722585D01*
X192222193Y-78715781D01*
X192227701Y-78645997D01*
X192269667Y-78540579D01*
X192355848Y-78468168D01*
X192489730Y-78426433D01*
X192674802Y-78413040D01*
X192888224Y-78413040D01*
X192888224Y-78715781D01*
X192888224Y-78821740D01*
G37*
G36*
X205330875Y-72900355D02*
G01*
X205330765Y-73457047D01*
X205330488Y-73959071D01*
X205329965Y-74409438D01*
X205329119Y-74811160D01*
X205327873Y-75167251D01*
X205326151Y-75480721D01*
X205323873Y-75754584D01*
X205320964Y-75991851D01*
X205317346Y-76195533D01*
X205312941Y-76368645D01*
X205307672Y-76514196D01*
X205301463Y-76635200D01*
X205294235Y-76734669D01*
X205285911Y-76815615D01*
X205276415Y-76881049D01*
X205265668Y-76933985D01*
X205253594Y-76977433D01*
X205240114Y-77014407D01*
X205225153Y-77047917D01*
X205208633Y-77080978D01*
X205126320Y-77203831D01*
X204985531Y-77342903D01*
X204815906Y-77458629D01*
X204634785Y-77537223D01*
X204614153Y-77538836D01*
X204535356Y-77541002D01*
X204400913Y-77543054D01*
X204213683Y-77544986D01*
X203976525Y-77546788D01*
X203692299Y-77548452D01*
X203363863Y-77549970D01*
X202994077Y-77551334D01*
X202585801Y-77552536D01*
X202141892Y-77553568D01*
X201665212Y-77554422D01*
X201158618Y-77555088D01*
X200624969Y-77555561D01*
X200067126Y-77555830D01*
X199487948Y-77555888D01*
X198890293Y-77555727D01*
X198277020Y-77555339D01*
X191995137Y-77550227D01*
X191855050Y-77481208D01*
X191704350Y-77388152D01*
X191534678Y-77224061D01*
X191408143Y-77022445D01*
X191329106Y-76853922D01*
X191329106Y-72358212D01*
X191783218Y-72358212D01*
X191783222Y-72790482D01*
X191783262Y-73352285D01*
X191783379Y-73858607D01*
X191783612Y-74312416D01*
X191784002Y-74716680D01*
X191784589Y-75074368D01*
X191785413Y-75388449D01*
X191786515Y-75661890D01*
X191787936Y-75897660D01*
X191789714Y-76098727D01*
X191791892Y-76268061D01*
X191794508Y-76408628D01*
X191797604Y-76523398D01*
X191801219Y-76615339D01*
X191805394Y-76687420D01*
X191810169Y-76742608D01*
X191815585Y-76783872D01*
X191821682Y-76814181D01*
X191828499Y-76836503D01*
X191836078Y-76853806D01*
X191844459Y-76869059D01*
X191849642Y-76877618D01*
X191930732Y-76968639D01*
X192040087Y-77043135D01*
X192174474Y-77111252D01*
X198321278Y-77107740D01*
X198649205Y-77107531D01*
X199247430Y-77107038D01*
X199828336Y-77106417D01*
X200389041Y-77105676D01*
X200926663Y-77104823D01*
X201438321Y-77103868D01*
X201921131Y-77102819D01*
X202372212Y-77101685D01*
X202788683Y-77100474D01*
X203167661Y-77099195D01*
X203506265Y-77097857D01*
X203801612Y-77096468D01*
X204050820Y-77095037D01*
X204251008Y-77093573D01*
X204399293Y-77092084D01*
X204492795Y-77090580D01*
X204528629Y-77089068D01*
X204621963Y-77048053D01*
X204728748Y-76963590D01*
X204809122Y-76859103D01*
X204812790Y-76851791D01*
X204819654Y-76833267D01*
X204825845Y-76807215D01*
X204831400Y-76770688D01*
X204836351Y-76720741D01*
X204840734Y-76654430D01*
X204844583Y-76568807D01*
X204847932Y-76460928D01*
X204850815Y-76327847D01*
X204853268Y-76166619D01*
X204855323Y-75974298D01*
X204857017Y-75747938D01*
X204858382Y-75484594D01*
X204859454Y-75181321D01*
X204860267Y-74835173D01*
X204860854Y-74443204D01*
X204861252Y-74002469D01*
X204861493Y-73510023D01*
X204861613Y-72962919D01*
X204861645Y-72358212D01*
X204861641Y-71971735D01*
X204861602Y-71405470D01*
X204861488Y-70894919D01*
X204861258Y-70437116D01*
X204860873Y-70029095D01*
X204860293Y-69667889D01*
X204859478Y-69350531D01*
X204858388Y-69074057D01*
X204856984Y-68835498D01*
X204855226Y-68631890D01*
X204853073Y-68460265D01*
X204850486Y-68317658D01*
X204847425Y-68201102D01*
X204843851Y-68107630D01*
X204839723Y-68034277D01*
X204835001Y-67978076D01*
X204829646Y-67936060D01*
X204823618Y-67905265D01*
X204816877Y-67882722D01*
X204809383Y-67865466D01*
X204801097Y-67850531D01*
X204796651Y-67843182D01*
X204729822Y-67755360D01*
X204655074Y-67684023D01*
X204569600Y-67620310D01*
X198322431Y-67620310D01*
X192075262Y-67620310D01*
X191989789Y-67684023D01*
X191983660Y-67688732D01*
X191908251Y-67763102D01*
X191843766Y-67850531D01*
X191838454Y-67859822D01*
X191830671Y-67875873D01*
X191823656Y-67896112D01*
X191817369Y-67923506D01*
X191811769Y-67961020D01*
X191806818Y-68011622D01*
X191802474Y-68078277D01*
X191798699Y-68163952D01*
X191795453Y-68271614D01*
X191792695Y-68404228D01*
X191790386Y-68564761D01*
X191788487Y-68756179D01*
X191786956Y-68981448D01*
X191785754Y-69243535D01*
X191784842Y-69545406D01*
X191784180Y-69890028D01*
X191783728Y-70280366D01*
X191783445Y-70719387D01*
X191783292Y-71210058D01*
X191783230Y-71755344D01*
X191783218Y-72358212D01*
X191329106Y-72358212D01*
X191329106Y-72357576D01*
X191329106Y-67861230D01*
X191428554Y-67659223D01*
X191444894Y-67627155D01*
X191567768Y-67444558D01*
X191722926Y-67308104D01*
X191920661Y-67208365D01*
X191922456Y-67207686D01*
X191941513Y-67201099D01*
X191963819Y-67195042D01*
X191991865Y-67189495D01*
X192028144Y-67184434D01*
X192075145Y-67179838D01*
X192135362Y-67175684D01*
X192211283Y-67171949D01*
X192305402Y-67168612D01*
X192420209Y-67165650D01*
X192558195Y-67163041D01*
X192721853Y-67160762D01*
X192913672Y-67158792D01*
X193136144Y-67157107D01*
X193391761Y-67155686D01*
X193683013Y-67154506D01*
X194012393Y-67153545D01*
X194382390Y-67152781D01*
X194795497Y-67152190D01*
X195254205Y-67151752D01*
X195761005Y-67151444D01*
X196318388Y-67151243D01*
X196928846Y-67151127D01*
X197594869Y-67151074D01*
X198318950Y-67151061D01*
X198974636Y-67151089D01*
X199653163Y-67151198D01*
X200275734Y-67151406D01*
X200844775Y-67151730D01*
X201362712Y-67152188D01*
X201831970Y-67152799D01*
X202254974Y-67153579D01*
X202634150Y-67154547D01*
X202971923Y-67155720D01*
X203270719Y-67157116D01*
X203532963Y-67158753D01*
X203761081Y-67160648D01*
X203957498Y-67162819D01*
X204124639Y-67165284D01*
X204264930Y-67168061D01*
X204380796Y-67171167D01*
X204474663Y-67174620D01*
X204548956Y-67178438D01*
X204606101Y-67182639D01*
X204648523Y-67187240D01*
X204678647Y-67192259D01*
X204698899Y-67197713D01*
X204867508Y-67274631D01*
X205049173Y-67413085D01*
X205187883Y-67593966D01*
X205282315Y-67815868D01*
X205285379Y-67826990D01*
X205291846Y-67857541D01*
X205297678Y-67897934D01*
X205302908Y-67951155D01*
X205307566Y-68020184D01*
X205311687Y-68108005D01*
X205315301Y-68217600D01*
X205318440Y-68351952D01*
X205321138Y-68514044D01*
X205323426Y-68706858D01*
X205325337Y-68933376D01*
X205326902Y-69196582D01*
X205328154Y-69499457D01*
X205329126Y-69844986D01*
X205329848Y-70236149D01*
X205330354Y-70675930D01*
X205330675Y-71167311D01*
X205330845Y-71713276D01*
X205330894Y-72316806D01*
X205330893Y-72358212D01*
X205330875Y-72900355D01*
G37*
G36*
X199104982Y-73282428D02*
G01*
X199111849Y-73325365D01*
X199156483Y-73509061D01*
X199224809Y-73713023D01*
X199308351Y-73913980D01*
X199398634Y-74088662D01*
X199532528Y-74288713D01*
X199769940Y-74554202D01*
X200048426Y-74776504D01*
X200101925Y-74811389D01*
X200245806Y-74894808D01*
X200392728Y-74962013D01*
X200550874Y-75014577D01*
X200728428Y-75054077D01*
X200933572Y-75082087D01*
X201174492Y-75100182D01*
X201459369Y-75109938D01*
X201796389Y-75112929D01*
X202424577Y-75113159D01*
X202424577Y-74840692D01*
X202424577Y-74568224D01*
X203075471Y-74568224D01*
X203726365Y-74568224D01*
X203726365Y-75448783D01*
X203726365Y-76329341D01*
X202189952Y-76315381D01*
X202012690Y-76313747D01*
X201678759Y-76310360D01*
X201396519Y-76306679D01*
X201159954Y-76302224D01*
X200963046Y-76296513D01*
X200799779Y-76289067D01*
X200664136Y-76279405D01*
X200550102Y-76267047D01*
X200451659Y-76251513D01*
X200362791Y-76232321D01*
X200277481Y-76208993D01*
X200189712Y-76181047D01*
X200093468Y-76148004D01*
X200092881Y-76147799D01*
X199675355Y-75971237D01*
X199293436Y-75746446D01*
X198949305Y-75475677D01*
X198645140Y-75161183D01*
X198383119Y-74805217D01*
X198165423Y-74410032D01*
X197994229Y-73977879D01*
X197983802Y-73945447D01*
X197935484Y-73780816D01*
X197891635Y-73609908D01*
X197855854Y-73448676D01*
X197831745Y-73313071D01*
X197822908Y-73219046D01*
X197822908Y-73145340D01*
X198454550Y-73145340D01*
X199086192Y-73145340D01*
X199104982Y-73282428D01*
G37*
G36*
X194084052Y-71571137D02*
G01*
X194015936Y-71571111D01*
X193977571Y-71577450D01*
X193949380Y-71608495D01*
X193965128Y-71648859D01*
X194023504Y-71679750D01*
X194071754Y-71702312D01*
X194080349Y-71719134D01*
X194099190Y-71756012D01*
X194083536Y-71798442D01*
X194023504Y-71813278D01*
X193988876Y-71817675D01*
X193950851Y-71846624D01*
X193959304Y-71884455D01*
X194015936Y-71909563D01*
X194059252Y-71926151D01*
X194083276Y-71968800D01*
X194093727Y-71987354D01*
X194095633Y-72005691D01*
X194082312Y-72045588D01*
X194025610Y-72055471D01*
X193988454Y-72060378D01*
X193950653Y-72089479D01*
X193959114Y-72126903D01*
X194015936Y-72151756D01*
X194059318Y-72167840D01*
X194084052Y-72221979D01*
X194072890Y-72262126D01*
X194015936Y-72292201D01*
X193984030Y-72301110D01*
X193950471Y-72334999D01*
X193952988Y-72343559D01*
X193961189Y-72371451D01*
X194016137Y-72388487D01*
X194084454Y-72388487D01*
X194074923Y-72939762D01*
X194074640Y-72956127D01*
X194064825Y-73523767D01*
X193702455Y-73871919D01*
X193340085Y-74220072D01*
X193341210Y-74709698D01*
X193342336Y-75199324D01*
X193251514Y-75290146D01*
X193236695Y-75305748D01*
X193172222Y-75413760D01*
X193166663Y-75525583D01*
X193220558Y-75635214D01*
X193250168Y-75667434D01*
X193348562Y-75724193D01*
X193455320Y-75730259D01*
X193554604Y-75687135D01*
X193630572Y-75596323D01*
X193636509Y-75584022D01*
X193658418Y-75469999D01*
X193629370Y-75359617D01*
X193554163Y-75273167D01*
X193546941Y-75267868D01*
X193525921Y-75245958D01*
X193511281Y-75211887D01*
X193501881Y-75155978D01*
X193496579Y-75068554D01*
X193494235Y-74939938D01*
X193493707Y-74760455D01*
X193493707Y-74315423D01*
X193860966Y-74315423D01*
X193863701Y-74475307D01*
X193867017Y-74609335D01*
X193871838Y-74724643D01*
X193879308Y-74797790D01*
X193891305Y-74838851D01*
X193909708Y-74857896D01*
X193936397Y-74864998D01*
X193940080Y-74865493D01*
X193977745Y-74864015D01*
X194004499Y-74843127D01*
X194022154Y-74794606D01*
X194032521Y-74710230D01*
X194037413Y-74581778D01*
X194038641Y-74401027D01*
X194037387Y-74259300D01*
X194031055Y-74126492D01*
X194017593Y-74043966D01*
X193995036Y-74006006D01*
X193961418Y-74006901D01*
X193914773Y-74040935D01*
X193900924Y-74054613D01*
X193880639Y-74085634D01*
X193868105Y-74131900D01*
X193861991Y-74204725D01*
X193860966Y-74315423D01*
X193493707Y-74315423D01*
X193493707Y-74290088D01*
X193909730Y-73891790D01*
X194039056Y-73767884D01*
X194168540Y-73643644D01*
X194280870Y-73535679D01*
X194367176Y-73452513D01*
X194418592Y-73402670D01*
X194511431Y-73311848D01*
X194488024Y-72979277D01*
X194482004Y-72875692D01*
X194478913Y-72749665D01*
X194482215Y-72660361D01*
X194491788Y-72619536D01*
X194506592Y-72608002D01*
X194556119Y-72605559D01*
X194596902Y-72646569D01*
X194613850Y-72718765D01*
X194622404Y-72786581D01*
X194644124Y-72827462D01*
X194650568Y-72837697D01*
X194662783Y-72897263D01*
X194671238Y-72995807D01*
X194674398Y-73118559D01*
X194674397Y-73127600D01*
X194673315Y-73254795D01*
X194667423Y-73337839D01*
X194652647Y-73392229D01*
X194624911Y-73433462D01*
X194580142Y-73477036D01*
X194485886Y-73563126D01*
X194497200Y-74215384D01*
X194508515Y-74867642D01*
X194597511Y-74960534D01*
X194648925Y-75027198D01*
X194688337Y-75140122D01*
X194685956Y-75157207D01*
X194673108Y-75249396D01*
X194603079Y-75344138D01*
X194545905Y-75383639D01*
X194442172Y-75413286D01*
X194344988Y-75397489D01*
X194262994Y-75345710D01*
X194204828Y-75267412D01*
X194179132Y-75172059D01*
X194181847Y-75153924D01*
X194320967Y-75153924D01*
X194342588Y-75220571D01*
X194398906Y-75256196D01*
X194469628Y-75255243D01*
X194528620Y-75219984D01*
X194553302Y-75157207D01*
X194549489Y-75137295D01*
X194510217Y-75083851D01*
X194449172Y-75044938D01*
X194392324Y-75039540D01*
X194341654Y-75083247D01*
X194320967Y-75153924D01*
X194181847Y-75153924D01*
X194194545Y-75069114D01*
X194259707Y-74968041D01*
X194341383Y-74882790D01*
X194341383Y-74316806D01*
X194341382Y-74312191D01*
X194340175Y-74135131D01*
X194336925Y-73981209D01*
X194332008Y-73859775D01*
X194325800Y-73780184D01*
X194318677Y-73751786D01*
X194313166Y-73752195D01*
X194245244Y-73786229D01*
X194194306Y-73860574D01*
X194173635Y-73956484D01*
X194171607Y-74132194D01*
X194168497Y-74356473D01*
X194167613Y-74401027D01*
X194165042Y-74530535D01*
X194160836Y-74660642D01*
X194155473Y-74753054D01*
X194148547Y-74814031D01*
X194139651Y-74849835D01*
X194128379Y-74866727D01*
X194114327Y-74870966D01*
X194112652Y-74871029D01*
X194098398Y-74879636D01*
X194087549Y-74907556D01*
X194079663Y-74961661D01*
X194074298Y-75048822D01*
X194071013Y-75175912D01*
X194069366Y-75349801D01*
X194068915Y-75577362D01*
X194068660Y-75699308D01*
X194067178Y-75888728D01*
X194064552Y-76052252D01*
X194060986Y-76181218D01*
X194056685Y-76266962D01*
X194051853Y-76300821D01*
X194046010Y-76302732D01*
X193992220Y-76307913D01*
X193890243Y-76312756D01*
X193749141Y-76316968D01*
X193577980Y-76320257D01*
X193385822Y-76322330D01*
X192736853Y-76326776D01*
X192736853Y-73534428D01*
X192850047Y-73534428D01*
X192850431Y-73632671D01*
X192892832Y-73724801D01*
X192981807Y-73797662D01*
X193042225Y-73822333D01*
X193158051Y-73831463D01*
X193253555Y-73789587D01*
X193318422Y-73702990D01*
X193342336Y-73577958D01*
X193345361Y-73551344D01*
X193367211Y-73499061D01*
X193415492Y-73431220D01*
X193496450Y-73339568D01*
X193616330Y-73215849D01*
X193890324Y-72939762D01*
X193881229Y-72747378D01*
X193875008Y-72650534D01*
X193863397Y-72586964D01*
X193841565Y-72556688D01*
X193804017Y-72545320D01*
X193773905Y-72543142D01*
X193748569Y-72556960D01*
X193738012Y-72603260D01*
X193735900Y-72696059D01*
X193735063Y-72758611D01*
X193727805Y-72814036D01*
X193706868Y-72864294D01*
X193664993Y-72921403D01*
X193594922Y-72997386D01*
X193489396Y-73104262D01*
X193438462Y-73155262D01*
X193345691Y-73245321D01*
X193279987Y-73301502D01*
X193231006Y-73330692D01*
X193188402Y-73339780D01*
X193141830Y-73335653D01*
X193055424Y-73334604D01*
X192957101Y-73372236D01*
X192887123Y-73443230D01*
X192850047Y-73534428D01*
X192736853Y-73534428D01*
X192736853Y-72756916D01*
X192857568Y-72756916D01*
X192896634Y-72848371D01*
X192981212Y-72919404D01*
X193055612Y-72951895D01*
X193129533Y-72958406D01*
X193206102Y-72927130D01*
X193240550Y-72904997D01*
X193316426Y-72819155D01*
X193341373Y-72704941D01*
X193343563Y-72677783D01*
X193376980Y-72594337D01*
X193457141Y-72500590D01*
X193457549Y-72500192D01*
X193538813Y-72430127D01*
X193610228Y-72396895D01*
X193697547Y-72388487D01*
X193719022Y-72388238D01*
X193808154Y-72376394D01*
X193846012Y-72343559D01*
X193838719Y-72285259D01*
X193825188Y-72265561D01*
X193771094Y-72243681D01*
X193669190Y-72237116D01*
X193620324Y-72238098D01*
X193539606Y-72250593D01*
X193469441Y-72286063D01*
X193383966Y-72355216D01*
X193337953Y-72394586D01*
X193268300Y-72443345D01*
X193208424Y-72461610D01*
X193137127Y-72458224D01*
X193064650Y-72458359D01*
X192967557Y-72495759D01*
X192897620Y-72567035D01*
X192859427Y-72658612D01*
X192857568Y-72756916D01*
X192736853Y-72756916D01*
X192736853Y-72329264D01*
X192736853Y-72014192D01*
X192791347Y-72014192D01*
X192791603Y-72030642D01*
X192811311Y-72124710D01*
X192871748Y-72198232D01*
X192930065Y-72237660D01*
X193040165Y-72262948D01*
X193150175Y-72231095D01*
X193251514Y-72143341D01*
X193285463Y-72115359D01*
X193341195Y-72096985D01*
X193431517Y-72085794D01*
X193569392Y-72079169D01*
X193685802Y-72074801D01*
X193772153Y-72067848D01*
X193820539Y-72055658D01*
X193842989Y-72034962D01*
X193851533Y-72002491D01*
X193851844Y-72000284D01*
X193853084Y-71968800D01*
X193838629Y-71949375D01*
X193797266Y-71939102D01*
X193717782Y-71935072D01*
X193588964Y-71934375D01*
X193462021Y-71933402D01*
X193374618Y-71927792D01*
X193316679Y-71913586D01*
X193272380Y-71886826D01*
X193225897Y-71843552D01*
X193183528Y-71807211D01*
X193075670Y-71757816D01*
X192970025Y-71758724D01*
X192879091Y-71805028D01*
X192815366Y-71891820D01*
X192791347Y-72014192D01*
X192736853Y-72014192D01*
X192736853Y-70541985D01*
X192837016Y-70541985D01*
X192849348Y-70643523D01*
X192901843Y-70730793D01*
X192989413Y-70790152D01*
X193106970Y-70807959D01*
X193147810Y-70807441D01*
X193230782Y-70827859D01*
X193311320Y-70889206D01*
X193402884Y-70976930D01*
X193402884Y-71364830D01*
X193402884Y-71752730D01*
X193632046Y-71752730D01*
X193706176Y-71752479D01*
X193792495Y-71749311D01*
X193837424Y-71739448D01*
X193853068Y-71719134D01*
X193851533Y-71684613D01*
X193850228Y-71676516D01*
X193832571Y-71637509D01*
X193787337Y-71617193D01*
X193698057Y-71607269D01*
X193554255Y-71598042D01*
X193554255Y-71260393D01*
X193554255Y-70922744D01*
X193442111Y-70807898D01*
X193441952Y-70807735D01*
X193372674Y-70727933D01*
X193341318Y-70661514D01*
X193337187Y-70585840D01*
X193337856Y-70545384D01*
X193317049Y-70466770D01*
X193254878Y-70389100D01*
X193246740Y-70381148D01*
X193145421Y-70314040D01*
X193043930Y-70307221D01*
X192940042Y-70360488D01*
X192869936Y-70439818D01*
X192837016Y-70541985D01*
X192736853Y-70541985D01*
X192736853Y-69163125D01*
X192999410Y-69163125D01*
X193022368Y-69285055D01*
X193026217Y-69293781D01*
X193073640Y-69365316D01*
X193127653Y-69405607D01*
X193136130Y-69408536D01*
X193170728Y-69433373D01*
X193186939Y-69484513D01*
X193190965Y-69578930D01*
X193192213Y-69642067D01*
X193200687Y-69694835D01*
X193223442Y-69745074D01*
X193267532Y-69804198D01*
X193340012Y-69883622D01*
X193447934Y-69994760D01*
X193704902Y-70257360D01*
X193712832Y-70846106D01*
X193714574Y-70972457D01*
X193717499Y-71142785D01*
X193721285Y-71265389D01*
X193726957Y-71348326D01*
X193735540Y-71399652D01*
X193748060Y-71427425D01*
X193765543Y-71439703D01*
X193789015Y-71444543D01*
X193832989Y-71442256D01*
X193875839Y-71405837D01*
X193876381Y-71404157D01*
X193881374Y-71354898D01*
X193884559Y-71256230D01*
X193885833Y-71118342D01*
X193885095Y-70951421D01*
X193882242Y-70765655D01*
X193870072Y-70173873D01*
X193606204Y-69914707D01*
X193564152Y-69873253D01*
X193464933Y-69772615D01*
X193400404Y-69699564D01*
X193363302Y-69643891D01*
X193346367Y-69595391D01*
X193342336Y-69543858D01*
X193357461Y-69447622D01*
X193418021Y-69361073D01*
X193475754Y-69281401D01*
X193496029Y-69181632D01*
X193474805Y-69084135D01*
X193420098Y-69000559D01*
X193339920Y-68942559D01*
X193242287Y-68921786D01*
X193135212Y-68949892D01*
X193108090Y-68966004D01*
X193029614Y-69051934D01*
X192999410Y-69163125D01*
X192736853Y-69163125D01*
X192736853Y-68331752D01*
X193402884Y-68331752D01*
X194068915Y-68331752D01*
X194068915Y-68638025D01*
X194068882Y-68685857D01*
X194067664Y-68807714D01*
X194063031Y-68882506D01*
X194052749Y-68920576D01*
X194034584Y-68932267D01*
X194006303Y-68927923D01*
X193993909Y-68925173D01*
X193888911Y-68932363D01*
X193788645Y-68982765D01*
X193717379Y-69064875D01*
X193687670Y-69158483D01*
X193704633Y-69270052D01*
X193781028Y-69373296D01*
X193809513Y-69404280D01*
X193847954Y-69482887D01*
X193866500Y-69599642D01*
X193877881Y-69687635D01*
X193909956Y-69775798D01*
X193972246Y-69854898D01*
X194065475Y-69951419D01*
X194074764Y-70761278D01*
X194078859Y-71118342D01*
X194084052Y-71571137D01*
G37*
G36*
X197449716Y-75174730D02*
G01*
X197551848Y-75177535D01*
X197616680Y-75183300D01*
X197652095Y-75192749D01*
X197665980Y-75206602D01*
X197666220Y-75225581D01*
X197666116Y-75226110D01*
X197648564Y-75270343D01*
X197607080Y-75358286D01*
X197546303Y-75480599D01*
X197470868Y-75627945D01*
X197385415Y-75790987D01*
X197298504Y-75954138D01*
X197225721Y-76087491D01*
X197172617Y-76178731D01*
X197134969Y-76233984D01*
X197108556Y-76259378D01*
X197089157Y-76261040D01*
X197072549Y-76245099D01*
X197037394Y-76189514D01*
X196984180Y-76095869D01*
X196918312Y-75974584D01*
X196844968Y-75835771D01*
X196769329Y-75689545D01*
X196696573Y-75546021D01*
X196631879Y-75415311D01*
X196580428Y-75307530D01*
X196547398Y-75232792D01*
X196537970Y-75201210D01*
X196570790Y-75193942D01*
X196654544Y-75187215D01*
X196779477Y-75181528D01*
X196935867Y-75177324D01*
X197113994Y-75175042D01*
X197302397Y-75174165D01*
X197449716Y-75174730D01*
G37*
G36*
X193461497Y-75384590D02*
G01*
X193503864Y-75421671D01*
X193522060Y-75491625D01*
X193487652Y-75561216D01*
X193459630Y-75582248D01*
X193391954Y-75593155D01*
X193335612Y-75560272D01*
X193312062Y-75492053D01*
X193312100Y-75488076D01*
X193334396Y-75409255D01*
X193388643Y-75371561D01*
X193461497Y-75384590D01*
G37*
G36*
X197414360Y-74845379D02*
G01*
X197511945Y-74848824D01*
X197573407Y-74856233D01*
X197607171Y-74868217D01*
X197621662Y-74885387D01*
X197627397Y-74908677D01*
X197621662Y-74977641D01*
X197609456Y-74993261D01*
X197578114Y-75005761D01*
X197519960Y-75013622D01*
X197426569Y-75017455D01*
X197289519Y-75017872D01*
X197100384Y-75015484D01*
X196596806Y-75007199D01*
X196596806Y-74931514D01*
X196596806Y-74855829D01*
X197100384Y-74847544D01*
X197272230Y-74845286D01*
X197414360Y-74845379D01*
G37*
G36*
X197131931Y-74537964D02*
G01*
X197313467Y-74538827D01*
X197444362Y-74541606D01*
X197533140Y-74547093D01*
X197588322Y-74556081D01*
X197618433Y-74569366D01*
X197631995Y-74587739D01*
X197635684Y-74618635D01*
X197605455Y-74670993D01*
X197561715Y-74683898D01*
X197456177Y-74693353D01*
X197292190Y-74697216D01*
X197070738Y-74695444D01*
X196581669Y-74686430D01*
X196581669Y-74612190D01*
X196581669Y-74537950D01*
X197097279Y-74537950D01*
X197131931Y-74537964D01*
G37*
G36*
X204241025Y-72267349D02*
G01*
X204240984Y-72402597D01*
X204240256Y-72812351D01*
X204238587Y-73164204D01*
X204235942Y-73460184D01*
X204232284Y-73702320D01*
X204227577Y-73892640D01*
X204221784Y-74033173D01*
X204214869Y-74125948D01*
X204206796Y-74172993D01*
X204205457Y-74176687D01*
X204153290Y-74261170D01*
X204078131Y-74328768D01*
X204055541Y-74341355D01*
X204020927Y-74355167D01*
X203974921Y-74365843D01*
X203910500Y-74373783D01*
X203820642Y-74379388D01*
X203698325Y-74383059D01*
X203536527Y-74385195D01*
X203328225Y-74386197D01*
X203066399Y-74386466D01*
X202874188Y-74386333D01*
X202631075Y-74385097D01*
X202437872Y-74381779D01*
X202288188Y-74375434D01*
X202175631Y-74365118D01*
X202093812Y-74349887D01*
X202036339Y-74328795D01*
X201996821Y-74300900D01*
X201968866Y-74265255D01*
X201946085Y-74220918D01*
X201946058Y-74220859D01*
X201934516Y-74172018D01*
X201925341Y-74079478D01*
X201918413Y-73939876D01*
X201913613Y-73749845D01*
X201910821Y-73506022D01*
X201909917Y-73205041D01*
X201909917Y-72268544D01*
X201839976Y-72250990D01*
X201808907Y-72247901D01*
X201720890Y-72244677D01*
X201585715Y-72242331D01*
X201410904Y-72240921D01*
X201203979Y-72240499D01*
X200972462Y-72241122D01*
X200723874Y-72242844D01*
X199677713Y-72252253D01*
X199585840Y-72350644D01*
X199518799Y-72406530D01*
X199410511Y-72447540D01*
X199304247Y-72441349D01*
X199212813Y-72392550D01*
X199149014Y-72305739D01*
X199125659Y-72185512D01*
X199126331Y-72178247D01*
X199257033Y-72178247D01*
X199274093Y-72233427D01*
X199305235Y-72268574D01*
X199369755Y-72295297D01*
X199435069Y-72291288D01*
X199476359Y-72254021D01*
X199483594Y-72229189D01*
X199475658Y-72141198D01*
X199420290Y-72074273D01*
X199406808Y-72066675D01*
X199359378Y-72062896D01*
X199303722Y-72105183D01*
X199281960Y-72128428D01*
X199257033Y-72178247D01*
X199126331Y-72178247D01*
X199133099Y-72105086D01*
X199176530Y-72009129D01*
X199266508Y-71939320D01*
X199356681Y-71907983D01*
X199454790Y-71922579D01*
X199553192Y-71994923D01*
X199644014Y-72085745D01*
X200776965Y-72085745D01*
X201909917Y-72085745D01*
X201909917Y-71266840D01*
X201909952Y-71191107D01*
X201910767Y-70953606D01*
X201912944Y-70767482D01*
X201916856Y-70625555D01*
X201922878Y-70520646D01*
X201931383Y-70445575D01*
X201942745Y-70393163D01*
X201957339Y-70356231D01*
X201967502Y-70337311D01*
X201997141Y-70292951D01*
X202035098Y-70257683D01*
X202087902Y-70230477D01*
X202162080Y-70210304D01*
X202264161Y-70196136D01*
X202400672Y-70186942D01*
X202578142Y-70181695D01*
X202803097Y-70179364D01*
X203082067Y-70178921D01*
X203258040Y-70179097D01*
X203491411Y-70180205D01*
X203675589Y-70183331D01*
X203817534Y-70189615D01*
X203924204Y-70200196D01*
X204002559Y-70216216D01*
X204059557Y-70238812D01*
X204102158Y-70269127D01*
X204137319Y-70308299D01*
X204172000Y-70357469D01*
X204241025Y-70459896D01*
X204241025Y-72229189D01*
X204241025Y-72267349D01*
G37*
G36*
X197384123Y-74211051D02*
G01*
X197504502Y-74218065D01*
X197581890Y-74232701D01*
X197622989Y-74256529D01*
X197634503Y-74291121D01*
X197623135Y-74338047D01*
X197621631Y-74341599D01*
X197606441Y-74359100D01*
X197574157Y-74371219D01*
X197516094Y-74378649D01*
X197423567Y-74382082D01*
X197287892Y-74382211D01*
X197100384Y-74379727D01*
X196596806Y-74371442D01*
X196596806Y-74295757D01*
X196596806Y-74220072D01*
X197084448Y-74211774D01*
X197214051Y-74210087D01*
X197384123Y-74211051D01*
G37*
G36*
X195219434Y-74133071D02*
G01*
X195177214Y-74236621D01*
X195083099Y-74319740D01*
X194998202Y-74349506D01*
X194890569Y-74340956D01*
X194796531Y-74288241D01*
X194729947Y-74199966D01*
X194707795Y-74098975D01*
X194871180Y-74098975D01*
X194872998Y-74137253D01*
X194894602Y-74182447D01*
X194954606Y-74199394D01*
X195016434Y-74194551D01*
X195060935Y-74149494D01*
X195062539Y-74062901D01*
X195035378Y-74022550D01*
X194961588Y-74008153D01*
X194914047Y-74010924D01*
X194878694Y-74034636D01*
X194871180Y-74098975D01*
X194707795Y-74098975D01*
X194704672Y-74084736D01*
X194705637Y-74074623D01*
X194731508Y-74009828D01*
X194781620Y-73936488D01*
X194802237Y-73910938D01*
X194825420Y-73874115D01*
X194841906Y-73828520D01*
X194853319Y-73763802D01*
X194861281Y-73669609D01*
X194867415Y-73535588D01*
X194873345Y-73351388D01*
X194878253Y-73194513D01*
X194885614Y-72998929D01*
X194893627Y-72852320D01*
X194903279Y-72747679D01*
X194915559Y-72677999D01*
X194931454Y-72636274D01*
X194951951Y-72615497D01*
X194978038Y-72608662D01*
X194997110Y-72606280D01*
X195012854Y-72606488D01*
X195024285Y-72616629D01*
X195032036Y-72643932D01*
X195036739Y-72695629D01*
X195039028Y-72778951D01*
X195039534Y-72901129D01*
X195038891Y-73069393D01*
X195037731Y-73290974D01*
X195035207Y-73815035D01*
X195127270Y-73901035D01*
X195142734Y-73916382D01*
X195208395Y-74022016D01*
X195212459Y-74062901D01*
X195219434Y-74133071D01*
G37*
G36*
X201612508Y-71202758D02*
G01*
X201580422Y-71306213D01*
X201514846Y-71388703D01*
X201425519Y-71437084D01*
X201322178Y-71438211D01*
X201319544Y-71437596D01*
X201277827Y-71440190D01*
X201224549Y-71469191D01*
X201150435Y-71531128D01*
X201046215Y-71632529D01*
X200836809Y-71843552D01*
X199957378Y-71843552D01*
X199077948Y-71843552D01*
X198821955Y-72100882D01*
X198565961Y-72358212D01*
X198110423Y-72358212D01*
X197654885Y-72358212D01*
X197429344Y-72585268D01*
X197418083Y-72596614D01*
X197323266Y-72693692D01*
X197266735Y-72756791D01*
X197243678Y-72793280D01*
X197249281Y-72810530D01*
X197278731Y-72815911D01*
X197304778Y-72816919D01*
X197378842Y-72813192D01*
X197440278Y-72791463D01*
X197506971Y-72742890D01*
X197596804Y-72658627D01*
X197749127Y-72509583D01*
X199323464Y-72509583D01*
X200897801Y-72509583D01*
X201062241Y-72676091D01*
X201143991Y-72755535D01*
X201213267Y-72810130D01*
X201272515Y-72836038D01*
X201337160Y-72842599D01*
X201400642Y-72847440D01*
X201512650Y-72890937D01*
X201582861Y-72976402D01*
X201606178Y-73094866D01*
X201607175Y-73099929D01*
X201603958Y-73166516D01*
X201581256Y-73238213D01*
X201527407Y-73294513D01*
X201507520Y-73308974D01*
X201392158Y-73354058D01*
X201275045Y-73342294D01*
X201169302Y-73274419D01*
X201126958Y-73226918D01*
X201099094Y-73162220D01*
X201100979Y-73109534D01*
X201249640Y-73109534D01*
X201250644Y-73117343D01*
X201275983Y-73177361D01*
X201340240Y-73200134D01*
X201399174Y-73196377D01*
X201454372Y-73157799D01*
X201465851Y-73094866D01*
X201425530Y-73024243D01*
X201377064Y-72990633D01*
X201309918Y-72986701D01*
X201261889Y-73029028D01*
X201249640Y-73109534D01*
X201100979Y-73109534D01*
X201102258Y-73073809D01*
X201106982Y-73006595D01*
X201093963Y-72951739D01*
X201054498Y-72891888D01*
X200980045Y-72808497D01*
X200842036Y-72660954D01*
X199346544Y-72660954D01*
X199112307Y-72661026D01*
X198806076Y-72661481D01*
X198551872Y-72662495D01*
X198344572Y-72664226D01*
X198179053Y-72666835D01*
X198050191Y-72670481D01*
X197952864Y-72675323D01*
X197881948Y-72681521D01*
X197832319Y-72689235D01*
X197798855Y-72698624D01*
X197776432Y-72709847D01*
X197724580Y-72751392D01*
X197701812Y-72785532D01*
X197701860Y-72785789D01*
X197733402Y-72791963D01*
X197819096Y-72797583D01*
X197952794Y-72802502D01*
X198128348Y-72806578D01*
X198339610Y-72809667D01*
X198580430Y-72811624D01*
X198844660Y-72812305D01*
X199987509Y-72812285D01*
X200077371Y-72905859D01*
X200263722Y-73099909D01*
X200278813Y-73115620D01*
X200387727Y-73227885D01*
X200466231Y-73304034D01*
X200524407Y-73351070D01*
X200572338Y-73375996D01*
X200620106Y-73385816D01*
X200677794Y-73387533D01*
X200756623Y-73391733D01*
X200824484Y-73414840D01*
X200878399Y-73467301D01*
X200890390Y-73483445D01*
X200937345Y-73595414D01*
X200930470Y-73655946D01*
X200924622Y-73707435D01*
X200852651Y-73813700D01*
X200825743Y-73838602D01*
X200726999Y-73893334D01*
X200626644Y-73888355D01*
X200519629Y-73823817D01*
X200474199Y-73780891D01*
X200436016Y-73713460D01*
X200428987Y-73643684D01*
X200580029Y-73643684D01*
X200614184Y-73714494D01*
X200630743Y-73728998D01*
X200696066Y-73748000D01*
X200758292Y-73706866D01*
X200782739Y-73655946D01*
X200776652Y-73590407D01*
X200740367Y-73538305D01*
X200686034Y-73515237D01*
X200625803Y-73536798D01*
X200597911Y-73568513D01*
X200580029Y-73643684D01*
X200428987Y-73643684D01*
X200426484Y-73618835D01*
X200425389Y-73579269D01*
X200416501Y-73529678D01*
X200392568Y-73480053D01*
X200346449Y-73419903D01*
X200270999Y-73338737D01*
X200159078Y-73226063D01*
X199891672Y-72959896D01*
X198539412Y-72981624D01*
X197187151Y-73003352D01*
X197187151Y-73452773D01*
X197187151Y-73902193D01*
X197397284Y-73902193D01*
X197523609Y-73907051D01*
X197603122Y-73924465D01*
X197636229Y-73957597D01*
X197629759Y-74009603D01*
X197599220Y-74024919D01*
X197519277Y-74038269D01*
X197402449Y-74048190D01*
X197260897Y-74054613D01*
X197106785Y-74057466D01*
X196952274Y-74056679D01*
X196809529Y-74052181D01*
X196690713Y-74043903D01*
X196607986Y-74031773D01*
X196573514Y-74015721D01*
X196573393Y-74015373D01*
X196566118Y-73960043D01*
X196595849Y-73925320D01*
X196670210Y-73907329D01*
X196796827Y-73902193D01*
X197005507Y-73902193D01*
X197005513Y-73440513D01*
X197005519Y-72978832D01*
X196668798Y-72984281D01*
X196586762Y-72985750D01*
X196464446Y-72989822D01*
X196382463Y-72997821D01*
X196327417Y-73012569D01*
X196285910Y-73036885D01*
X196244546Y-73073590D01*
X196182763Y-73121024D01*
X196070680Y-73159203D01*
X195960984Y-73143540D01*
X195866303Y-73074021D01*
X195816500Y-72997263D01*
X195800625Y-72925666D01*
X195952709Y-72925666D01*
X195994234Y-72984705D01*
X196038785Y-73013266D01*
X196087369Y-73017939D01*
X196140531Y-72976670D01*
X196180899Y-72905859D01*
X196170351Y-72840542D01*
X196117418Y-72795996D01*
X196030832Y-72787295D01*
X195990049Y-72803450D01*
X195952764Y-72857432D01*
X195952709Y-72925666D01*
X195800625Y-72925666D01*
X195793050Y-72891503D01*
X195813734Y-72793731D01*
X195869241Y-72712428D01*
X195950262Y-72656073D01*
X196047487Y-72633147D01*
X196151607Y-72652130D01*
X196253311Y-72721502D01*
X196278790Y-72746500D01*
X196318105Y-72778241D01*
X196362898Y-72797677D01*
X196426936Y-72807826D01*
X196523988Y-72811703D01*
X196667819Y-72812324D01*
X196991505Y-72812324D01*
X197293111Y-72509583D01*
X197594716Y-72206842D01*
X198052181Y-72206842D01*
X198509646Y-72206842D01*
X198757908Y-71949512D01*
X199006169Y-71692181D01*
X199884501Y-71692181D01*
X200762832Y-71692181D01*
X200939202Y-71505110D01*
X200996742Y-71443338D01*
X201060519Y-71368601D01*
X201093892Y-71313382D01*
X201104568Y-71263264D01*
X201100253Y-71203830D01*
X201098084Y-71163652D01*
X201247201Y-71163652D01*
X201262269Y-71230501D01*
X201275620Y-71248890D01*
X201340167Y-71290813D01*
X201408155Y-71282997D01*
X201459963Y-71225896D01*
X201462642Y-71219913D01*
X201479409Y-71153149D01*
X201455336Y-71101271D01*
X201397576Y-71064942D01*
X201331611Y-71069657D01*
X201275900Y-71106299D01*
X201247201Y-71163652D01*
X201098084Y-71163652D01*
X201096274Y-71130135D01*
X201117675Y-71066774D01*
X201177218Y-70997338D01*
X201213241Y-70965437D01*
X201322314Y-70911046D01*
X201429503Y-70911892D01*
X201523732Y-70966004D01*
X201593927Y-71071414D01*
X201601367Y-71091481D01*
X201607541Y-71153149D01*
X201612508Y-71202758D01*
G37*
G36*
X194307433Y-72613992D02*
G01*
X194347096Y-72647205D01*
X194365916Y-72731787D01*
X194368203Y-72796017D01*
X194353788Y-72833746D01*
X194312936Y-72842599D01*
X194272616Y-72832930D01*
X194250560Y-72783837D01*
X194245508Y-72749006D01*
X194218816Y-72705456D01*
X194205880Y-72691406D01*
X194212772Y-72654781D01*
X194251347Y-72622873D01*
X194304863Y-72613564D01*
X194307433Y-72613992D01*
G37*
G36*
X195219994Y-72616665D02*
G01*
X195257614Y-72642671D01*
X195274230Y-72713934D01*
X195276524Y-72772716D01*
X195258167Y-72805491D01*
X195204195Y-72812324D01*
X195157089Y-72808150D01*
X195133166Y-72781527D01*
X195134161Y-72713934D01*
X195137309Y-72688436D01*
X195158815Y-72631379D01*
X195204195Y-72615543D01*
X195219994Y-72616665D01*
G37*
G36*
X194796299Y-72632991D02*
G01*
X194820118Y-72714181D01*
X194822626Y-72760835D01*
X194809647Y-72802300D01*
X194767139Y-72812324D01*
X194736130Y-72808125D01*
X194710956Y-72777832D01*
X194704672Y-72704145D01*
X194706593Y-72654624D01*
X194721579Y-72611246D01*
X194757652Y-72606002D01*
X194796299Y-72632991D01*
G37*
G36*
X195514376Y-72369739D02*
G01*
X195566682Y-72404031D01*
X195568187Y-72452078D01*
X195515279Y-72498354D01*
X195486441Y-72512288D01*
X195429411Y-72531574D01*
X195405698Y-72511963D01*
X195400977Y-72447024D01*
X195403911Y-72395034D01*
X195425867Y-72364033D01*
X195483972Y-72363770D01*
X195514376Y-72369739D01*
G37*
G36*
X197176863Y-72305465D02*
G01*
X197112842Y-72405000D01*
X197059439Y-72446969D01*
X196949624Y-72481723D01*
X196836288Y-72462031D01*
X196733039Y-72388487D01*
X196648198Y-72297664D01*
X196138116Y-72297331D01*
X196079930Y-72297248D01*
X195859574Y-72295611D01*
X195691512Y-72291213D01*
X195569041Y-72283124D01*
X195485456Y-72270418D01*
X195434053Y-72252165D01*
X195420051Y-72238812D01*
X196828555Y-72238812D01*
X196851305Y-72294786D01*
X196915817Y-72321760D01*
X196970611Y-72322405D01*
X197014208Y-72309145D01*
X197019660Y-72302814D01*
X197036428Y-72240471D01*
X197021069Y-72168288D01*
X196979414Y-72118258D01*
X196957127Y-72109156D01*
X196888956Y-72114332D01*
X196840395Y-72162108D01*
X196828555Y-72238812D01*
X195420051Y-72238812D01*
X195408126Y-72227439D01*
X195400970Y-72195312D01*
X195401802Y-72177569D01*
X195409331Y-72160651D01*
X195431251Y-72148770D01*
X195475253Y-72141268D01*
X195549027Y-72137488D01*
X195660266Y-72136772D01*
X195816661Y-72138463D01*
X196025902Y-72141905D01*
X196650841Y-72152653D01*
X196724408Y-72058651D01*
X196760958Y-72016579D01*
X196826368Y-71975043D01*
X196918254Y-71964649D01*
X196982548Y-71971400D01*
X197086773Y-72018346D01*
X197157872Y-72098658D01*
X197189887Y-72198858D01*
X197184803Y-72240471D01*
X197176863Y-72305465D01*
G37*
G36*
X194993440Y-71489018D02*
G01*
X195101823Y-71497547D01*
X195159128Y-71510721D01*
X195159951Y-71511164D01*
X195183447Y-71528200D01*
X195199791Y-71556168D01*
X195210267Y-71604990D01*
X195216160Y-71684589D01*
X195218753Y-71804886D01*
X195219333Y-71975805D01*
X195219134Y-72035437D01*
X195216778Y-72184829D01*
X195212181Y-72307939D01*
X195205870Y-72393346D01*
X195198374Y-72429628D01*
X195190181Y-72432692D01*
X195132383Y-72438748D01*
X195030003Y-72442565D01*
X194894340Y-72443832D01*
X194736693Y-72442242D01*
X194295971Y-72433898D01*
X194295971Y-71964649D01*
X194295971Y-71495400D01*
X194697448Y-71486950D01*
X194843308Y-71485617D01*
X194993440Y-71489018D01*
G37*
G36*
X200878077Y-71274426D02*
G01*
X200865937Y-71300095D01*
X200787635Y-71389255D01*
X200680659Y-71430704D01*
X200558556Y-71418341D01*
X200490921Y-71400147D01*
X200437658Y-71406329D01*
X200384382Y-71446879D01*
X200381287Y-71449763D01*
X200357284Y-71469101D01*
X200327400Y-71483836D01*
X200283826Y-71494593D01*
X200218753Y-71501996D01*
X200124369Y-71506668D01*
X199992867Y-71509233D01*
X199816436Y-71510315D01*
X199587267Y-71510537D01*
X198857912Y-71510537D01*
X198653322Y-71722456D01*
X198489207Y-71892449D01*
X198448731Y-71934375D01*
X198150957Y-71934375D01*
X198099313Y-71934696D01*
X197966368Y-71939720D01*
X197882427Y-71950364D01*
X197853182Y-71966025D01*
X197852894Y-71969105D01*
X197829127Y-72013344D01*
X197778873Y-72071984D01*
X197741841Y-72103646D01*
X197638409Y-72145293D01*
X197529930Y-72128651D01*
X197423282Y-72054067D01*
X197366945Y-71989890D01*
X197343781Y-71929512D01*
X197348409Y-71857424D01*
X197494317Y-71857424D01*
X197508430Y-71926806D01*
X197537168Y-71961779D01*
X197605314Y-71987160D01*
X197686062Y-71953703D01*
X197711979Y-71932287D01*
X197728774Y-71892449D01*
X197707889Y-71829664D01*
X197666649Y-71771403D01*
X197606220Y-71758231D01*
X197599939Y-71759296D01*
X197528509Y-71795228D01*
X197494317Y-71857424D01*
X197348409Y-71857424D01*
X197348904Y-71849716D01*
X197365975Y-71783844D01*
X197429552Y-71681547D01*
X197524135Y-71621484D01*
X197638989Y-71612434D01*
X197724257Y-71640759D01*
X197808908Y-71706358D01*
X197831751Y-71732772D01*
X197867900Y-71760078D01*
X197918996Y-71774726D01*
X198000229Y-71780242D01*
X198126787Y-71780152D01*
X198382980Y-71777301D01*
X198500442Y-71643919D01*
X198617904Y-71510537D01*
X197863927Y-71510537D01*
X197109951Y-71510537D01*
X196884410Y-71737593D01*
X196658869Y-71964649D01*
X196122532Y-71964649D01*
X196012076Y-71965138D01*
X195832971Y-71968537D01*
X195694824Y-71974872D01*
X195604155Y-71983785D01*
X195567485Y-71994923D01*
X195538978Y-72014034D01*
X195474876Y-72025197D01*
X195419192Y-72012531D01*
X195400977Y-71964649D01*
X195411230Y-71925031D01*
X195462476Y-71904100D01*
X195500334Y-71896085D01*
X195541400Y-71858689D01*
X195552273Y-71844696D01*
X195583997Y-71831512D01*
X195643502Y-71822481D01*
X195738974Y-71816900D01*
X195878604Y-71814066D01*
X196070579Y-71813278D01*
X196582332Y-71813278D01*
X196819989Y-71586222D01*
X197057646Y-71359166D01*
X198656427Y-71359166D01*
X198765295Y-71359156D01*
X199103212Y-71358924D01*
X199386915Y-71358274D01*
X199621312Y-71357057D01*
X199811312Y-71355124D01*
X199961825Y-71352327D01*
X200077760Y-71348517D01*
X200164025Y-71343544D01*
X200225529Y-71337261D01*
X200267183Y-71329519D01*
X200293894Y-71320169D01*
X200310572Y-71309063D01*
X200344610Y-71266057D01*
X200365936Y-71201600D01*
X200369386Y-71187129D01*
X200522323Y-71187129D01*
X200548787Y-71254661D01*
X200574415Y-71276783D01*
X200638403Y-71298618D01*
X200655220Y-71297549D01*
X200720002Y-71265740D01*
X200750805Y-71204604D01*
X200742857Y-71134293D01*
X200691383Y-71074961D01*
X200648995Y-71059338D01*
X200585318Y-71073222D01*
X200538797Y-71121235D01*
X200522323Y-71187129D01*
X200369386Y-71187129D01*
X200390271Y-71099522D01*
X200455450Y-71001394D01*
X200543921Y-70936844D01*
X200597197Y-70920541D01*
X200709699Y-70923052D01*
X200804704Y-70970471D01*
X200871546Y-71052023D01*
X200899559Y-71156933D01*
X200890843Y-71204604D01*
X200878077Y-71274426D01*
G37*
G36*
X195490610Y-71662227D02*
G01*
X195539844Y-71679981D01*
X195552348Y-71737593D01*
X195552028Y-71751540D01*
X195534275Y-71800774D01*
X195476663Y-71813278D01*
X195462715Y-71812958D01*
X195413481Y-71795205D01*
X195400977Y-71737593D01*
X195401297Y-71723645D01*
X195419051Y-71674411D01*
X195476663Y-71661907D01*
X195490610Y-71662227D01*
G37*
G36*
X197394418Y-70248920D02*
G01*
X197363758Y-70337598D01*
X197315799Y-70416837D01*
X197263956Y-70461460D01*
X197260359Y-70463030D01*
X197239150Y-70486354D01*
X197226003Y-70538044D01*
X197219300Y-70628797D01*
X197217426Y-70769315D01*
X197217426Y-71059314D01*
X197406639Y-71050301D01*
X197595852Y-71041288D01*
X197595852Y-70466079D01*
X197595828Y-70363595D01*
X197595278Y-70189976D01*
X197593288Y-70064855D01*
X197588926Y-69980080D01*
X197581262Y-69927499D01*
X197569368Y-69898957D01*
X197552313Y-69886303D01*
X197529167Y-69881384D01*
X197527849Y-69881186D01*
X197468644Y-69847860D01*
X197436046Y-69786896D01*
X197444314Y-69724634D01*
X197446298Y-69722398D01*
X197490895Y-69708051D01*
X197577134Y-69697924D01*
X197688461Y-69694088D01*
X197913731Y-69694088D01*
X197913731Y-69784911D01*
X197911877Y-69824878D01*
X197891917Y-69866087D01*
X197837392Y-69875733D01*
X197761053Y-69875733D01*
X197769275Y-70458510D01*
X197777497Y-71041288D01*
X198830018Y-71041288D01*
X199882539Y-71041288D01*
X200143226Y-70779489D01*
X200155763Y-70766883D01*
X200264451Y-70655152D01*
X200336918Y-70573307D01*
X200380551Y-70510961D01*
X200402737Y-70457730D01*
X200410597Y-70405005D01*
X200552338Y-70405005D01*
X200575749Y-70463541D01*
X200597333Y-70484075D01*
X200666014Y-70510376D01*
X200733263Y-70498284D01*
X200775098Y-70449489D01*
X200779983Y-70394863D01*
X200749334Y-70337285D01*
X200691548Y-70308196D01*
X200624874Y-70315012D01*
X200567565Y-70365150D01*
X200552338Y-70405005D01*
X200410597Y-70405005D01*
X200410862Y-70403229D01*
X200421353Y-70341847D01*
X200473575Y-70245517D01*
X200556194Y-70181411D01*
X200655290Y-70152312D01*
X200756945Y-70161006D01*
X200847239Y-70210277D01*
X200912253Y-70302911D01*
X200932411Y-70376033D01*
X200930821Y-70394863D01*
X200922833Y-70489478D01*
X200866487Y-70581834D01*
X200771957Y-70641595D01*
X200647832Y-70657255D01*
X200641499Y-70656788D01*
X200589582Y-70655341D01*
X200544615Y-70663821D01*
X200496606Y-70688764D01*
X200435563Y-70736710D01*
X200351494Y-70814196D01*
X200234405Y-70927760D01*
X200013022Y-71144055D01*
X199947783Y-71207795D01*
X198392633Y-71207795D01*
X196837483Y-71207795D01*
X196611943Y-71434851D01*
X196386402Y-71661907D01*
X195969375Y-71661907D01*
X195911569Y-71661831D01*
X195758953Y-71660238D01*
X195655460Y-71655860D01*
X195592351Y-71647744D01*
X195560893Y-71634940D01*
X195552348Y-71616496D01*
X195537003Y-71586513D01*
X195474557Y-71571085D01*
X195456033Y-71570604D01*
X195411166Y-71554720D01*
X195406440Y-71505837D01*
X195425628Y-71464818D01*
X195476301Y-71432294D01*
X195533174Y-71430396D01*
X195571691Y-71465168D01*
X195582992Y-71480277D01*
X195618656Y-71495201D01*
X195686303Y-71504470D01*
X195795439Y-71509207D01*
X195955573Y-71510537D01*
X196322047Y-71510537D01*
X196451858Y-71383137D01*
X196509679Y-71323865D01*
X196561643Y-71264172D01*
X196581669Y-71231766D01*
X196578996Y-71226713D01*
X196537885Y-71213212D01*
X196462901Y-71207795D01*
X196427929Y-71209009D01*
X196337074Y-71233096D01*
X196253311Y-71298618D01*
X196219655Y-71328935D01*
X196112241Y-71383406D01*
X196001355Y-71377457D01*
X195887686Y-71311064D01*
X195834074Y-71253800D01*
X195792560Y-71149734D01*
X195796000Y-71126581D01*
X195950928Y-71126581D01*
X195977393Y-71194113D01*
X196003021Y-71216235D01*
X196067008Y-71238069D01*
X196083826Y-71237000D01*
X196148607Y-71205192D01*
X196179411Y-71144055D01*
X196171462Y-71073744D01*
X196119988Y-71014413D01*
X196077600Y-70998790D01*
X196013924Y-71012674D01*
X195967402Y-71060686D01*
X195950928Y-71126581D01*
X195796000Y-71126581D01*
X195808848Y-71040112D01*
X195883035Y-70932999D01*
X195948791Y-70879187D01*
X196053641Y-70842822D01*
X196159398Y-70866905D01*
X196266696Y-70951467D01*
X196367573Y-71058428D01*
X196709245Y-71049858D01*
X197050918Y-71041288D01*
X197059547Y-70766935D01*
X197059867Y-70756729D01*
X197062904Y-70630046D01*
X197060442Y-70549571D01*
X197049566Y-70501887D01*
X197027356Y-70473577D01*
X196990896Y-70451224D01*
X196948665Y-70422336D01*
X196890880Y-70340207D01*
X196875726Y-70242539D01*
X196877662Y-70234145D01*
X197016679Y-70234145D01*
X197037387Y-70286369D01*
X197059882Y-70306046D01*
X197127307Y-70327794D01*
X197195836Y-70318946D01*
X197238331Y-70280319D01*
X197242556Y-70214397D01*
X197207635Y-70159080D01*
X197149491Y-70128628D01*
X197086172Y-70132104D01*
X197035728Y-70178573D01*
X197016679Y-70234145D01*
X196877662Y-70234145D01*
X196898716Y-70142858D01*
X196955358Y-70054690D01*
X197041162Y-69991563D01*
X197151637Y-69967002D01*
X197161438Y-69967541D01*
X197236314Y-69997648D01*
X197313806Y-70060336D01*
X197374522Y-70136721D01*
X197399070Y-70207923D01*
X197398335Y-70214397D01*
X197394418Y-70248920D01*
G37*
G36*
X196888504Y-69181741D02*
G01*
X196866086Y-69288841D01*
X196793588Y-69385683D01*
X196737879Y-69443690D01*
X196709620Y-69509833D01*
X196702765Y-69607518D01*
X196702765Y-69749657D01*
X195991667Y-70440884D01*
X195839516Y-70589225D01*
X195667470Y-70758715D01*
X195532738Y-70894245D01*
X195431362Y-71000110D01*
X195359382Y-71080606D01*
X195312838Y-71140029D01*
X195287772Y-71182676D01*
X195280225Y-71212841D01*
X195270356Y-71270382D01*
X195242038Y-71308709D01*
X195235508Y-71311208D01*
X195181084Y-71315902D01*
X195149456Y-71275584D01*
X195134347Y-71182922D01*
X195133667Y-71173272D01*
X195133770Y-71105116D01*
X195151173Y-71050979D01*
X195195276Y-70992874D01*
X195275477Y-70912808D01*
X195326475Y-70863993D01*
X195587050Y-70614468D01*
X195807772Y-70402642D01*
X195991951Y-70224990D01*
X196142893Y-70077985D01*
X196263905Y-69958098D01*
X196358294Y-69861802D01*
X196429368Y-69785571D01*
X196480434Y-69725878D01*
X196514799Y-69679194D01*
X196535770Y-69641993D01*
X196546655Y-69610747D01*
X196550761Y-69581930D01*
X196551395Y-69552014D01*
X196550296Y-69516577D01*
X196539972Y-69448609D01*
X196522300Y-69421621D01*
X196484587Y-69402861D01*
X196431477Y-69355364D01*
X196404658Y-69320513D01*
X196370527Y-69218968D01*
X196371817Y-69207111D01*
X196527158Y-69207111D01*
X196550533Y-69269364D01*
X196613076Y-69294346D01*
X196683711Y-69293206D01*
X196722668Y-69258113D01*
X196733039Y-69176423D01*
X196721530Y-69114506D01*
X196671038Y-69073008D01*
X196667296Y-69071878D01*
X196591795Y-69075593D01*
X196540276Y-69125151D01*
X196527158Y-69207111D01*
X196371817Y-69207111D01*
X196382014Y-69113359D01*
X196432335Y-69018984D01*
X196514701Y-68951140D01*
X196622329Y-68925125D01*
X196706789Y-68937417D01*
X196803704Y-68992176D01*
X196865993Y-69078235D01*
X196887347Y-69176423D01*
X196888504Y-69181741D01*
G37*
G36*
X195264640Y-70554669D02*
G01*
X195198637Y-70656035D01*
X195188527Y-70666602D01*
X195137070Y-70737512D01*
X195114684Y-70799160D01*
X195093840Y-70861045D01*
X195044557Y-70928459D01*
X195007886Y-70974621D01*
X194980487Y-71042300D01*
X194985321Y-71095453D01*
X195024232Y-71116973D01*
X195037670Y-71118434D01*
X195060011Y-71145061D01*
X195057280Y-71215364D01*
X195056319Y-71222065D01*
X195046170Y-71289434D01*
X195040461Y-71321323D01*
X195034638Y-71326707D01*
X194992312Y-71330069D01*
X194937484Y-71319958D01*
X194903046Y-71301193D01*
X194893555Y-71270307D01*
X194879744Y-71193137D01*
X194866920Y-71091648D01*
X194861549Y-71033830D01*
X194860294Y-70945480D01*
X194875741Y-70884427D01*
X194911601Y-70828837D01*
X194975288Y-70747871D01*
X194866257Y-70645042D01*
X194841497Y-70621262D01*
X194788246Y-70559681D01*
X194769475Y-70504555D01*
X194774896Y-70434477D01*
X194921004Y-70434477D01*
X194934975Y-70503922D01*
X194991016Y-70553257D01*
X195064541Y-70563434D01*
X195128042Y-70527192D01*
X195149693Y-70474027D01*
X195137761Y-70405098D01*
X195095143Y-70351423D01*
X195032918Y-70335347D01*
X195026805Y-70336380D01*
X194955313Y-70372264D01*
X194921004Y-70434477D01*
X194774896Y-70434477D01*
X194775066Y-70432274D01*
X194817578Y-70310763D01*
X194896506Y-70227879D01*
X195001923Y-70193336D01*
X195124511Y-70212983D01*
X195188937Y-70249454D01*
X195257111Y-70335368D01*
X195283239Y-70442443D01*
X195278005Y-70474027D01*
X195264640Y-70554669D01*
G37*
G36*
X194777720Y-71118489D02*
G01*
X194816554Y-71140310D01*
X194825769Y-71202750D01*
X194820111Y-71266560D01*
X194804539Y-71309756D01*
X194796769Y-71316609D01*
X194746998Y-71326503D01*
X194703414Y-71289117D01*
X194680049Y-71215116D01*
X194677705Y-71157628D01*
X194695457Y-71124080D01*
X194748165Y-71116973D01*
X194777720Y-71118489D01*
G37*
G36*
X194587110Y-70291723D02*
G01*
X194603997Y-70296934D01*
X194623178Y-70310254D01*
X194635727Y-70338292D01*
X194642615Y-70390208D01*
X194644815Y-70475163D01*
X194643301Y-70602319D01*
X194639045Y-70780836D01*
X194636242Y-70873000D01*
X194629354Y-71028722D01*
X194620880Y-71158207D01*
X194611637Y-71250020D01*
X194602444Y-71292725D01*
X194584242Y-71310656D01*
X194527773Y-71322574D01*
X194522973Y-71321413D01*
X194505777Y-71309451D01*
X194494038Y-71279872D01*
X194487091Y-71224096D01*
X194484271Y-71133546D01*
X194484914Y-70999642D01*
X194488356Y-70813806D01*
X194491245Y-70694898D01*
X194496077Y-70540883D01*
X194501302Y-70415858D01*
X194506460Y-70330340D01*
X194511092Y-70294845D01*
X194531460Y-70286264D01*
X194587110Y-70291723D01*
G37*
G36*
X194337035Y-71089727D02*
G01*
X194364563Y-71118345D01*
X194371657Y-71190438D01*
X194371641Y-71194396D01*
X194358742Y-71274091D01*
X194318677Y-71308023D01*
X194289751Y-71315812D01*
X194258129Y-71325380D01*
X194256407Y-71322998D01*
X194252231Y-71282696D01*
X194250560Y-71207795D01*
X194253988Y-71137899D01*
X194271496Y-71096854D01*
X194311108Y-71086699D01*
X194337035Y-71089727D01*
G37*
G36*
X203726365Y-69177731D02*
G01*
X203726365Y-70027104D01*
X203075471Y-70027104D01*
X202424577Y-70027104D01*
X202424577Y-69788440D01*
X202424297Y-69716160D01*
X202420932Y-69624169D01*
X202410867Y-69572590D01*
X202390558Y-69548426D01*
X202356460Y-69538679D01*
X202328799Y-69536554D01*
X202243809Y-69533893D01*
X202113876Y-69531804D01*
X201948220Y-69530385D01*
X201756064Y-69529737D01*
X201546627Y-69529958D01*
X201391484Y-69530705D01*
X201157046Y-69533799D01*
X200967303Y-69540591D01*
X200812113Y-69552759D01*
X200681332Y-69571984D01*
X200564816Y-69599943D01*
X200452422Y-69638318D01*
X200334007Y-69688788D01*
X200199428Y-69753032D01*
X199921082Y-69921139D01*
X199669630Y-70141258D01*
X199456825Y-70405688D01*
X199286178Y-70710743D01*
X199211080Y-70874780D01*
X198559036Y-70874780D01*
X197906992Y-70874780D01*
X197928172Y-70761252D01*
X197948042Y-70677457D01*
X198004434Y-70506760D01*
X198083059Y-70314495D01*
X198176389Y-70118470D01*
X198276891Y-69936496D01*
X198422250Y-69714204D01*
X198704756Y-69367686D01*
X199028492Y-69064899D01*
X199391720Y-68807183D01*
X199792703Y-68595877D01*
X200229702Y-68432318D01*
X200502169Y-68348834D01*
X202114267Y-68338596D01*
X203726365Y-68328358D01*
X203726365Y-69177731D01*
G37*
G36*
X194049819Y-69438346D02*
G01*
X194063709Y-69484104D01*
X194068452Y-69578774D01*
X194065825Y-69660603D01*
X194056262Y-69703472D01*
X194038641Y-69694088D01*
X194017892Y-69636775D01*
X194009730Y-69555398D01*
X194016646Y-69479938D01*
X194038641Y-69436758D01*
X194049819Y-69438346D01*
G37*
G36*
X197849179Y-69431612D02*
G01*
X197915263Y-69453041D01*
X197938008Y-69494330D01*
X197924215Y-69559062D01*
X197911844Y-69577048D01*
X197872911Y-69593137D01*
X197798164Y-69599138D01*
X197675404Y-69596904D01*
X197595134Y-69593546D01*
X197510278Y-69586745D01*
X197465304Y-69574040D01*
X197447582Y-69550813D01*
X197444482Y-69512444D01*
X197445420Y-69486099D01*
X197456333Y-69457873D01*
X197489881Y-69441858D01*
X197558695Y-69433434D01*
X197675404Y-69427983D01*
X197732957Y-69426462D01*
X197849179Y-69431612D01*
G37*
G36*
X197760278Y-69164616D02*
G01*
X197840404Y-69168487D01*
X197882907Y-69180647D01*
X197901101Y-69205852D01*
X197908300Y-69248857D01*
X197918006Y-69333423D01*
X197681244Y-69324542D01*
X197592238Y-69320826D01*
X197508880Y-69313936D01*
X197464786Y-69301135D01*
X197447478Y-69277967D01*
X197444482Y-69239976D01*
X197445316Y-69213393D01*
X197455691Y-69185534D01*
X197488350Y-69170898D01*
X197556047Y-69165234D01*
X197671538Y-69164291D01*
X197760278Y-69164616D01*
G37*
G36*
X194010886Y-69106022D02*
G01*
X194055151Y-69153216D01*
X194062679Y-69199009D01*
X194021342Y-69252951D01*
X193999294Y-69272519D01*
X193929111Y-69298460D01*
X193863051Y-69264196D01*
X193862227Y-69263365D01*
X193827988Y-69197691D01*
X193839100Y-69134820D01*
X193882197Y-69089051D01*
X193943914Y-69074685D01*
X194010886Y-69106022D01*
G37*
G36*
X197723502Y-68397739D02*
G01*
X197739618Y-68424500D01*
X197756559Y-68512787D01*
X197762360Y-68653338D01*
X197762600Y-68727488D01*
X197765935Y-68812049D01*
X197776717Y-68856531D01*
X197799301Y-68873791D01*
X197838045Y-68876687D01*
X197870958Y-68878856D01*
X197905585Y-68902601D01*
X197913731Y-68967509D01*
X197913731Y-69058332D01*
X197671538Y-69058332D01*
X197640647Y-69058273D01*
X197530491Y-69055838D01*
X197466498Y-69047930D01*
X197436871Y-69031963D01*
X197429808Y-69005352D01*
X197430916Y-68985305D01*
X197459271Y-68915927D01*
X197535304Y-68858389D01*
X197556273Y-68843723D01*
X197581992Y-68803768D01*
X197596783Y-68733184D01*
X197604957Y-68617033D01*
X197614197Y-68505740D01*
X197637234Y-68413174D01*
X197673429Y-68377618D01*
X197723502Y-68397739D01*
G37*
G36*
X193124680Y-73483919D02*
G01*
X193181879Y-73522552D01*
X193201594Y-73581890D01*
X193173606Y-73642761D01*
X193143215Y-73668257D01*
X193073503Y-73687161D01*
X193010526Y-73646316D01*
X192998392Y-73628346D01*
X192988135Y-73560339D01*
X193020773Y-73502682D01*
X193085981Y-73478355D01*
X193124680Y-73483919D01*
G37*
G36*
X193156592Y-72631474D02*
G01*
X193189649Y-72687082D01*
X193179339Y-72768682D01*
X193176259Y-72775437D01*
X193130927Y-72808020D01*
X193066185Y-72804123D01*
X193007215Y-72764376D01*
X192995310Y-72746570D01*
X192989761Y-72685321D01*
X193029383Y-72635873D01*
X193103028Y-72615543D01*
X193156592Y-72631474D01*
G37*
G36*
X193105244Y-71933156D02*
G01*
X193106937Y-71935259D01*
X193141566Y-71999270D01*
X193128913Y-72058282D01*
X193105880Y-72085977D01*
X193043942Y-72112751D01*
X192978841Y-72107253D01*
X192936874Y-72068132D01*
X192923520Y-72024947D01*
X192928634Y-71952126D01*
X192984587Y-71901135D01*
X193011335Y-71888490D01*
X193057771Y-71887871D01*
X193105244Y-71933156D01*
G37*
G36*
X193153519Y-70482033D02*
G01*
X193190582Y-70535888D01*
X193178561Y-70621246D01*
X193151676Y-70649234D01*
X193077610Y-70657320D01*
X193042641Y-70651319D01*
X193003411Y-70623286D01*
X192994184Y-70556901D01*
X192996942Y-70509143D01*
X193020546Y-70473628D01*
X193084591Y-70466079D01*
X193153519Y-70482033D01*
G37*
G36*
X193239633Y-69058721D02*
G01*
X193295916Y-69083818D01*
X193349038Y-69131715D01*
X193372610Y-69179428D01*
X193363184Y-69204313D01*
X193325037Y-69252951D01*
X193283835Y-69288176D01*
X193237607Y-69295065D01*
X193175244Y-69258430D01*
X193152351Y-69239741D01*
X193133654Y-69199624D01*
X193153672Y-69137333D01*
X193190338Y-69083196D01*
X193233565Y-69058332D01*
X193239633Y-69058721D01*
G37*
D13*
%TO.C,R8*%
X206782379Y-59955000D02*
X207117621Y-59955000D01*
X206782379Y-59195000D02*
X207117621Y-59195000D01*
%TO.C,R9*%
X206782379Y-57405000D02*
X207117621Y-57405000D01*
X206782379Y-56645000D02*
X207117621Y-56645000D01*
%TD*%
M02*
