%TF.GenerationSoftware,KiCad,Pcbnew,9.0.4*%
%TF.CreationDate,2025-08-29T15:54:19+02:00*%
%TF.ProjectId,M.2_Arduino_Module_Board,4d2e325f-4172-4647-9569-6e6f5f4d6f64,rev?*%
%TF.SameCoordinates,Original*%
%TF.FileFunction,Soldermask,Bot*%
%TF.FilePolarity,Negative*%
%FSLAX46Y46*%
G04 Gerber Fmt 4.6, Leading zero omitted, Abs format (unit mm)*
G04 Created by KiCad (PCBNEW 9.0.4) date 2025-08-29 15:54:19*
%MOMM*%
%LPD*%
G01*
G04 APERTURE LIST*
G04 Aperture macros list*
%AMRoundRect*
0 Rectangle with rounded corners*
0 $1 Rounding radius*
0 $2 $3 $4 $5 $6 $7 $8 $9 X,Y pos of 4 corners*
0 Add a 4 corners polygon primitive as box body*
4,1,4,$2,$3,$4,$5,$6,$7,$8,$9,$2,$3,0*
0 Add four circle primitives for the rounded corners*
1,1,$1+$1,$2,$3*
1,1,$1+$1,$4,$5*
1,1,$1+$1,$6,$7*
1,1,$1+$1,$8,$9*
0 Add four rect primitives between the rounded corners*
20,1,$1+$1,$2,$3,$4,$5,0*
20,1,$1+$1,$4,$5,$6,$7,0*
20,1,$1+$1,$6,$7,$8,$9,0*
20,1,$1+$1,$8,$9,$2,$3,0*%
G04 Aperture macros list end*
%ADD10C,3.200000*%
%ADD11R,1.600000X1.600000*%
%ADD12O,1.600000X1.600000*%
%ADD13O,3.200000X10.000000*%
%ADD14RoundRect,0.160000X-0.197500X-0.160000X0.197500X-0.160000X0.197500X0.160000X-0.197500X0.160000X0*%
%ADD15C,1.150000*%
%ADD16C,1.650000*%
%ADD17C,0.650000*%
%ADD18O,1.000000X2.100000*%
%ADD19O,1.000000X1.800000*%
G04 APERTURE END LIST*
D10*
%TO.C,A1*%
X194170000Y-104275000D03*
X161150000Y-52205000D03*
X209410000Y-53475000D03*
X166230000Y-104275000D03*
D11*
X161150000Y-66175000D03*
D12*
X161150000Y-68715000D03*
X161150000Y-71255000D03*
X161150000Y-73795000D03*
X161150000Y-76335000D03*
X161150000Y-78875000D03*
X161150000Y-81415000D03*
X161150000Y-83955000D03*
X161150000Y-89035000D03*
X161150000Y-91575000D03*
X161150000Y-94115000D03*
X161150000Y-96655000D03*
X161150000Y-99195000D03*
X161150000Y-101735000D03*
X209410000Y-101735000D03*
X209410000Y-99195000D03*
X209410000Y-96655000D03*
X209410000Y-94115000D03*
X209410000Y-91575000D03*
X209410000Y-89035000D03*
X209410000Y-86495000D03*
X209410000Y-83955000D03*
X209410000Y-79895000D03*
X209410000Y-77355000D03*
X209410000Y-74815000D03*
X209410000Y-72275000D03*
X209410000Y-69735000D03*
X209410000Y-67195000D03*
X209410000Y-64655000D03*
X209410000Y-62115000D03*
X209410000Y-59575000D03*
X209410000Y-57035000D03*
%TD*%
D13*
%TO.C,*%
X185000000Y-99670000D03*
%TD*%
D14*
%TO.C,R8*%
X206352500Y-59575000D03*
X207547500Y-59575000D03*
%TD*%
D15*
%TO.C,J2*%
X174975000Y-60900000D03*
D16*
X194975000Y-60900000D03*
%TD*%
D17*
%TO.C,J1*%
X197490000Y-43815000D03*
X191710000Y-43815000D03*
D18*
X198920000Y-44315000D03*
D19*
X198920000Y-40135000D03*
D18*
X190280000Y-44315000D03*
D19*
X190280000Y-40135000D03*
%TD*%
D14*
%TO.C,R9*%
X206352500Y-57025000D03*
X207547500Y-57025000D03*
%TD*%
M02*
