%TF.GenerationSoftware,KiCad,Pcbnew,9.0.4*%
%TF.CreationDate,2025-08-29T15:54:18+02:00*%
%TF.ProjectId,M.2_Arduino_Module_Board,4d2e325f-4172-4647-9569-6e6f5f4d6f64,rev?*%
%TF.SameCoordinates,Original*%
%TF.FileFunction,Copper,L1,Top*%
%TF.FilePolarity,Positive*%
%FSLAX46Y46*%
G04 Gerber Fmt 4.6, Leading zero omitted, Abs format (unit mm)*
G04 Created by KiCad (PCBNEW 9.0.4) date 2025-08-29 15:54:18*
%MOMM*%
%LPD*%
G01*
G04 APERTURE LIST*
G04 Aperture macros list*
%AMRoundRect*
0 Rectangle with rounded corners*
0 $1 Rounding radius*
0 $2 $3 $4 $5 $6 $7 $8 $9 X,Y pos of 4 corners*
0 Add a 4 corners polygon primitive as box body*
4,1,4,$2,$3,$4,$5,$6,$7,$8,$9,$2,$3,0*
0 Add four circle primitives for the rounded corners*
1,1,$1+$1,$2,$3*
1,1,$1+$1,$4,$5*
1,1,$1+$1,$6,$7*
1,1,$1+$1,$8,$9*
0 Add four rect primitives between the rounded corners*
20,1,$1+$1,$2,$3,$4,$5,0*
20,1,$1+$1,$4,$5,$6,$7,0*
20,1,$1+$1,$6,$7,$8,$9,0*
20,1,$1+$1,$8,$9,$2,$3,0*%
G04 Aperture macros list end*
%TA.AperFunction,ComponentPad*%
%ADD10R,1.600000X1.600000*%
%TD*%
%TA.AperFunction,ComponentPad*%
%ADD11O,1.600000X1.600000*%
%TD*%
%TA.AperFunction,SMDPad,CuDef*%
%ADD12R,0.700000X1.340000*%
%TD*%
%TA.AperFunction,SMDPad,CuDef*%
%ADD13RoundRect,0.155000X0.212500X0.155000X-0.212500X0.155000X-0.212500X-0.155000X0.212500X-0.155000X0*%
%TD*%
%TA.AperFunction,SMDPad,CuDef*%
%ADD14R,0.300000X1.550000*%
%TD*%
%TA.AperFunction,SMDPad,CuDef*%
%ADD15R,1.200000X2.750000*%
%TD*%
%TA.AperFunction,SMDPad,CuDef*%
%ADD16RoundRect,0.155000X-0.155000X0.212500X-0.155000X-0.212500X0.155000X-0.212500X0.155000X0.212500X0*%
%TD*%
%TA.AperFunction,SMDPad,CuDef*%
%ADD17RoundRect,0.150000X0.150000X0.425000X-0.150000X0.425000X-0.150000X-0.425000X0.150000X-0.425000X0*%
%TD*%
%TA.AperFunction,SMDPad,CuDef*%
%ADD18RoundRect,0.075000X0.075000X0.500000X-0.075000X0.500000X-0.075000X-0.500000X0.075000X-0.500000X0*%
%TD*%
%TA.AperFunction,ComponentPad*%
%ADD19O,1.000000X2.100000*%
%TD*%
%TA.AperFunction,ComponentPad*%
%ADD20O,1.000000X1.800000*%
%TD*%
%TA.AperFunction,SMDPad,CuDef*%
%ADD21RoundRect,0.160000X-0.160000X0.197500X-0.160000X-0.197500X0.160000X-0.197500X0.160000X0.197500X0*%
%TD*%
%TA.AperFunction,SMDPad,CuDef*%
%ADD22RoundRect,0.160000X0.160000X-0.197500X0.160000X0.197500X-0.160000X0.197500X-0.160000X-0.197500X0*%
%TD*%
%TA.AperFunction,SMDPad,CuDef*%
%ADD23RoundRect,0.155000X0.155000X-0.212500X0.155000X0.212500X-0.155000X0.212500X-0.155000X-0.212500X0*%
%TD*%
%TA.AperFunction,SMDPad,CuDef*%
%ADD24R,1.400000X0.480000*%
%TD*%
%TA.AperFunction,SMDPad,CuDef*%
%ADD25R,1.525000X0.560000*%
%TD*%
%TA.AperFunction,SMDPad,CuDef*%
%ADD26R,2.725000X2.000000*%
%TD*%
%TA.AperFunction,SMDPad,CuDef*%
%ADD27RoundRect,0.150000X0.512500X0.150000X-0.512500X0.150000X-0.512500X-0.150000X0.512500X-0.150000X0*%
%TD*%
%TA.AperFunction,SMDPad,CuDef*%
%ADD28R,1.000000X1.450000*%
%TD*%
%TA.AperFunction,ViaPad*%
%ADD29C,0.500000*%
%TD*%
%TA.AperFunction,Conductor*%
%ADD30C,0.200000*%
%TD*%
%TA.AperFunction,Conductor*%
%ADD31C,0.250000*%
%TD*%
%TA.AperFunction,Conductor*%
%ADD32C,0.150000*%
%TD*%
G04 APERTURE END LIST*
D10*
%TO.P,A1,1,NC*%
%TO.N,unconnected-(A1-NC-Pad1)*%
X161150000Y-66175000D03*
D11*
%TO.P,A1,2,IOREF*%
%TO.N,+3V3*%
X161150000Y-68715000D03*
%TO.P,A1,3,~{RESET}*%
%TO.N,/CHIP_PU*%
X161150000Y-71255000D03*
%TO.P,A1,4,3V3*%
%TO.N,+3V3*%
X161150000Y-73795000D03*
%TO.P,A1,5,+5V*%
%TO.N,+5V*%
X161150000Y-76335000D03*
%TO.P,A1,6,GND*%
%TO.N,Earth*%
X161150000Y-78875000D03*
%TO.P,A1,7,GND*%
X161150000Y-81415000D03*
%TO.P,A1,8,VIN*%
%TO.N,VBUS*%
X161150000Y-83955000D03*
%TO.P,A1,9,A0*%
%TO.N,/GPIO6*%
X161150000Y-89035000D03*
%TO.P,A1,10,A1*%
%TO.N,/GPIO5*%
X161150000Y-91575000D03*
%TO.P,A1,11,A2*%
%TO.N,/GPIO4*%
X161150000Y-94115000D03*
%TO.P,A1,12,A3*%
%TO.N,/GPIO3*%
X161150000Y-96655000D03*
%TO.P,A1,13,SDA/A4*%
%TO.N,/GPIO2*%
X161150000Y-99195000D03*
%TO.P,A1,14,SCL/A5*%
%TO.N,/GPIO1*%
X161150000Y-101735000D03*
%TO.P,A1,15,D0/RX*%
%TO.N,/U0RXD*%
X209410000Y-101735000D03*
%TO.P,A1,16,D1/TX*%
%TO.N,/U0TXD*%
X209410000Y-99195000D03*
%TO.P,A1,17,D2*%
%TO.N,/GPIO17*%
X209410000Y-96655000D03*
%TO.P,A1,18,D3*%
%TO.N,/GPIO18*%
X209410000Y-94115000D03*
%TO.P,A1,19,D4*%
%TO.N,/GPIO33*%
X209410000Y-91575000D03*
%TO.P,A1,20,D5*%
%TO.N,/GPIO34*%
X209410000Y-89035000D03*
%TO.P,A1,21,D6*%
%TO.N,/GPIO35*%
X209410000Y-86495000D03*
%TO.P,A1,22,D7*%
%TO.N,/GPIO36*%
X209410000Y-83955000D03*
%TO.P,A1,23,D8*%
%TO.N,/GPIO12*%
X209410000Y-79895000D03*
%TO.P,A1,24,D9*%
%TO.N,/GPIO11*%
X209410000Y-77355000D03*
%TO.P,A1,25,D10*%
%TO.N,/GPIO10*%
X209410000Y-74815000D03*
%TO.P,A1,26,D11*%
%TO.N,/GPIO9*%
X209410000Y-72275000D03*
%TO.P,A1,27,D12*%
%TO.N,/GPIO8*%
X209410000Y-69735000D03*
%TO.P,A1,28,D13*%
%TO.N,/GPIO7*%
X209410000Y-67195000D03*
%TO.P,A1,29,GND*%
%TO.N,Earth*%
X209410000Y-64655000D03*
%TO.P,A1,30,AREF*%
%TO.N,+3V3*%
X209410000Y-62115000D03*
%TO.P,A1,31,SDA/A4*%
%TO.N,/GPIO2*%
X209410000Y-59575000D03*
%TO.P,A1,32,SCL/A5*%
%TO.N,/GPIO1*%
X209410000Y-57035000D03*
%TD*%
D12*
%TO.P,LED1,1,DO*%
%TO.N,unconnected-(LED1-DO-Pad1)*%
X200350000Y-54615000D03*
%TO.P,LED1,2,GND*%
%TO.N,Earth*%
X199250000Y-54615000D03*
%TO.P,LED1,3,DI*%
%TO.N,/GPIO45*%
X199250000Y-57085000D03*
%TO.P,LED1,4,VDD*%
%TO.N,+3V3*%
X200350000Y-57085000D03*
%TD*%
D13*
%TO.P,C2,1*%
%TO.N,+5V*%
X171792500Y-48600000D03*
%TO.P,C2,2*%
%TO.N,Earth*%
X170657500Y-48600000D03*
%TD*%
D14*
%TO.P,J2,1,1*%
%TO.N,+3V3*%
X175725000Y-55625000D03*
%TO.P,J2,2,2*%
%TO.N,VBUS*%
X175975000Y-63175000D03*
%TO.P,J2,3,3*%
%TO.N,+3V3*%
X176225000Y-55625000D03*
%TO.P,J2,4,4*%
%TO.N,VBUS*%
X176475000Y-63175000D03*
%TO.P,J2,5,5*%
%TO.N,Earth*%
X176725000Y-55625000D03*
%TO.P,J2,6,6*%
X176975000Y-63175000D03*
%TO.P,J2,7,7*%
X177225000Y-55625000D03*
%TO.P,J2,8,8*%
%TO.N,/SPICS1*%
X177475000Y-63175000D03*
%TO.P,J2,9,9*%
%TO.N,Earth*%
X177725000Y-55625000D03*
%TO.P,J2,10,10*%
%TO.N,/GPIO21*%
X177975000Y-63175000D03*
%TO.P,J2,11,11*%
%TO.N,Earth*%
X178225000Y-55625000D03*
%TO.P,J2,20,20*%
X180475000Y-63175000D03*
%TO.P,J2,21,21*%
X180725000Y-55625000D03*
%TO.P,J2,22,22*%
%TO.N,/GPIO17*%
X180975000Y-63175000D03*
%TO.P,J2,23,23*%
%TO.N,/USB_D+*%
X181225000Y-55625000D03*
%TO.P,J2,24,24*%
%TO.N,/GPIO18*%
X181475000Y-63175000D03*
%TO.P,J2,25,25*%
%TO.N,/USB_D-*%
X181725000Y-55625000D03*
%TO.P,J2,26,26*%
%TO.N,Earth*%
X181975000Y-63175000D03*
%TO.P,J2,27,27*%
X182225000Y-55625000D03*
%TO.P,J2,28,28*%
%TO.N,/SPICLK_N*%
X182475000Y-63175000D03*
%TO.P,J2,29,29*%
%TO.N,/GPIO14*%
X182725000Y-55625000D03*
%TO.P,J2,30,30*%
%TO.N,/SPICLK_P*%
X182975000Y-63175000D03*
%TO.P,J2,31,31*%
%TO.N,/GPIO13*%
X183225000Y-55625000D03*
%TO.P,J2,32,32*%
%TO.N,Earth*%
X183475000Y-63175000D03*
%TO.P,J2,33,33*%
X183725000Y-55625000D03*
%TO.P,J2,34,34*%
%TO.N,/GPIO33*%
X183975000Y-63175000D03*
%TO.P,J2,35,35*%
%TO.N,/GPIO12*%
X184225000Y-55625000D03*
%TO.P,J2,36,36*%
%TO.N,/GPIO34*%
X184475000Y-63175000D03*
%TO.P,J2,37,37*%
%TO.N,/GPIO11*%
X184725000Y-55625000D03*
%TO.P,J2,38,38*%
%TO.N,Earth*%
X184975000Y-63175000D03*
%TO.P,J2,39,39*%
X185225000Y-55625000D03*
%TO.P,J2,40,40*%
%TO.N,/GPIO35*%
X185475000Y-63175000D03*
%TO.P,J2,41,41*%
%TO.N,/GPIO10*%
X185725000Y-55625000D03*
%TO.P,J2,42,42*%
%TO.N,/GPIO36*%
X185975000Y-63175000D03*
%TO.P,J2,43,43*%
%TO.N,/GPIO9*%
X186225000Y-55625000D03*
%TO.P,J2,44,44*%
%TO.N,Earth*%
X186475000Y-63175000D03*
%TO.P,J2,45,45*%
X186725000Y-55625000D03*
%TO.P,J2,46,46*%
%TO.N,/GPIO37*%
X186975000Y-63175000D03*
%TO.P,J2,47,47*%
%TO.N,/GPIO8*%
X187225000Y-55625000D03*
%TO.P,J2,48,48*%
%TO.N,/GPIO38*%
X187475000Y-63175000D03*
%TO.P,J2,49,49*%
%TO.N,/GPIO7*%
X187725000Y-55625000D03*
%TO.P,J2,50,50*%
%TO.N,Earth*%
X187975000Y-63175000D03*
%TO.P,J2,51,51*%
X188225000Y-55625000D03*
%TO.P,J2,52,52*%
%TO.N,/MTCK*%
X188475000Y-63175000D03*
%TO.P,J2,53,53*%
%TO.N,/GPIO6*%
X188725000Y-55625000D03*
%TO.P,J2,54,54*%
%TO.N,/MTDO*%
X188975000Y-63175000D03*
%TO.P,J2,55,55*%
%TO.N,/GPIO5*%
X189225000Y-55625000D03*
%TO.P,J2,56,56*%
%TO.N,Earth*%
X189475000Y-63175000D03*
%TO.P,J2,57,57*%
X189725000Y-55625000D03*
%TO.P,J2,58,58*%
%TO.N,/MTDI*%
X189975000Y-63175000D03*
%TO.P,J2,59,59*%
%TO.N,/GPIO4*%
X190225000Y-55625000D03*
%TO.P,J2,60,60*%
%TO.N,/MTMS*%
X190475000Y-63175000D03*
%TO.P,J2,61,61*%
%TO.N,/GPIO3*%
X190725000Y-55625000D03*
%TO.P,J2,62,62*%
%TO.N,Earth*%
X190975000Y-63175000D03*
%TO.P,J2,63,63*%
X191225000Y-55625000D03*
%TO.P,J2,64,64*%
%TO.N,/U0TXD*%
X191475000Y-63175000D03*
%TO.P,J2,65,65*%
%TO.N,/GPIO2*%
X191725000Y-55625000D03*
%TO.P,J2,66,66*%
%TO.N,/U0RXD*%
X191975000Y-63175000D03*
%TO.P,J2,67,67*%
%TO.N,/GPIO1*%
X192225000Y-55625000D03*
%TO.P,J2,68,68*%
%TO.N,Earth*%
X192475000Y-63175000D03*
%TO.P,J2,69,69*%
X192725000Y-55625000D03*
%TO.P,J2,70,70*%
%TO.N,/GPIO45*%
X192975000Y-63175000D03*
%TO.P,J2,71,71*%
%TO.N,/CHIP_BOOT*%
X193225000Y-55625000D03*
%TO.P,J2,72,72*%
%TO.N,/GPIO46*%
X193475000Y-63175000D03*
%TO.P,J2,73,73*%
%TO.N,/CHIP_PU*%
X193725000Y-55625000D03*
%TO.P,J2,74,74*%
%TO.N,Earth*%
X193975000Y-63175000D03*
%TO.P,J2,75,75*%
X194225000Y-55625000D03*
D15*
%TO.P,J2,MP1,MP1*%
%TO.N,unconnected-(J2-PadMP1)*%
X174625000Y-56400000D03*
%TO.P,J2,MP2,MP2*%
%TO.N,unconnected-(J2-PadMP2)*%
X195325000Y-56400000D03*
%TD*%
D16*
%TO.P,C6,1*%
%TO.N,/CHIP_BOOT*%
X205100000Y-45732500D03*
%TO.P,C6,2*%
%TO.N,Earth*%
X205100000Y-46867500D03*
%TD*%
D17*
%TO.P,J1,A1,GND*%
%TO.N,Earth*%
X197800000Y-44890000D03*
%TO.P,J1,A4,VBUS*%
%TO.N,VBUS*%
X197000000Y-44890000D03*
D18*
%TO.P,J1,A5,CC1*%
%TO.N,/USB_CC1*%
X195850000Y-44890000D03*
%TO.P,J1,A6,D+*%
%TO.N,/USB_D+*%
X194850000Y-44890000D03*
%TO.P,J1,A7,D-*%
%TO.N,/USB_D-*%
X194350000Y-44890000D03*
%TO.P,J1,A8,SBU1*%
%TO.N,unconnected-(J1-SBU1-PadA8)*%
X193350000Y-44890000D03*
D17*
%TO.P,J1,A9,VBUS*%
%TO.N,VBUS*%
X192200000Y-44890000D03*
%TO.P,J1,A12,GND*%
%TO.N,Earth*%
X191400000Y-44890000D03*
%TO.P,J1,B1,GND*%
X191400000Y-44890000D03*
%TO.P,J1,B4,VBUS*%
%TO.N,VBUS*%
X192200000Y-44890000D03*
D18*
%TO.P,J1,B5,CC2*%
%TO.N,/USB_CC2*%
X192850000Y-44890000D03*
%TO.P,J1,B6,D+*%
%TO.N,/USB_D+*%
X193850000Y-44890000D03*
%TO.P,J1,B7,D-*%
%TO.N,/USB_D-*%
X195350000Y-44890000D03*
%TO.P,J1,B8,SBU2*%
%TO.N,unconnected-(J1-SBU2-PadB8)*%
X196350000Y-44890000D03*
D17*
%TO.P,J1,B9,VBUS*%
%TO.N,VBUS*%
X197000000Y-44890000D03*
%TO.P,J1,B12,GND*%
%TO.N,Earth*%
X197800000Y-44890000D03*
D19*
%TO.P,J1,S1,SHIELD*%
X198920000Y-44315000D03*
D20*
X198920000Y-40135000D03*
D19*
X190280000Y-44315000D03*
D20*
X190280000Y-40135000D03*
%TD*%
D21*
%TO.P,R7,1*%
%TO.N,+3V3*%
X205110000Y-42922500D03*
%TO.P,R7,2*%
%TO.N,/CHIP_BOOT*%
X205110000Y-44117500D03*
%TD*%
%TO.P,R2,1*%
%TO.N,/USB_CC2*%
X188425000Y-42552500D03*
%TO.P,R2,2*%
%TO.N,Earth*%
X188425000Y-43747500D03*
%TD*%
D16*
%TO.P,C1,1*%
%TO.N,VBUS*%
X177250000Y-44407500D03*
%TO.P,C1,2*%
%TO.N,Earth*%
X177250000Y-45542500D03*
%TD*%
D22*
%TO.P,R1,1*%
%TO.N,+3V3*%
X165600000Y-47047500D03*
%TO.P,R1,2*%
%TO.N,/CHIP_PU*%
X165600000Y-45852500D03*
%TD*%
D23*
%TO.P,C3,1*%
%TO.N,/CHIP_PU*%
X165600000Y-43317500D03*
%TO.P,C3,2*%
%TO.N,Earth*%
X165600000Y-42182500D03*
%TD*%
D24*
%TO.P,IC1,1,GND*%
%TO.N,Earth*%
X171808250Y-42950000D03*
D25*
%TO.P,IC1,2,VIN_1*%
%TO.N,VBUS*%
X171871250Y-44450000D03*
D24*
%TO.P,IC1,3,VOUT*%
%TO.N,+5V*%
X171808250Y-45950000D03*
D26*
%TO.P,IC1,4,VIN_2*%
%TO.N,VBUS*%
X173996250Y-44450000D03*
%TD*%
D23*
%TO.P,C7,1*%
%TO.N,+3V3*%
X202575000Y-55717500D03*
%TO.P,C7,2*%
%TO.N,Earth*%
X202575000Y-54582500D03*
%TD*%
D27*
%TO.P,U1,1,I/O1*%
%TO.N,/USB_D-*%
X189262500Y-49550000D03*
%TO.P,U1,2,GND*%
%TO.N,Earth*%
X189262500Y-48600000D03*
%TO.P,U1,3,I/O2*%
%TO.N,/USB_D+*%
X189262500Y-47650000D03*
%TO.P,U1,4,I/O2*%
X186987500Y-47650000D03*
%TO.P,U1,5,VBUS*%
%TO.N,VBUS*%
X186987500Y-48600000D03*
%TO.P,U1,6,I/O1*%
%TO.N,/USB_D-*%
X186987500Y-49550000D03*
%TD*%
D28*
%TO.P,RST1,1,1*%
%TO.N,Earth*%
X160900000Y-47325000D03*
X160900000Y-42175000D03*
%TO.P,RST1,2,2*%
%TO.N,/CHIP_PU*%
X162600000Y-47325000D03*
X162600000Y-42175000D03*
%TD*%
D21*
%TO.P,R3,1*%
%TO.N,/USB_CC1*%
X200675000Y-42477500D03*
%TO.P,R3,2*%
%TO.N,Earth*%
X200675000Y-43672500D03*
%TD*%
D28*
%TO.P,BOOT1,1,1*%
%TO.N,Earth*%
X209750000Y-42175000D03*
X209750000Y-47325000D03*
%TO.P,BOOT1,2,2*%
%TO.N,/CHIP_BOOT*%
X208050000Y-42175000D03*
X208050000Y-47325000D03*
%TD*%
D29*
%TO.N,/GPIO45*%
X199250000Y-58450000D03*
%TO.N,+3V3*%
X178425000Y-47400000D03*
X165600000Y-53675000D03*
X205125000Y-41975000D03*
X202575000Y-57125000D03*
%TO.N,Earth*%
X185225001Y-54125001D03*
X190775000Y-48625000D03*
X187700000Y-54125000D03*
X209750000Y-48800000D03*
X169750000Y-42975000D03*
X177275000Y-46550000D03*
X186725000Y-54125000D03*
X205100000Y-47800000D03*
X209725000Y-43450000D03*
%TO.N,VBUS*%
X192200000Y-46200000D03*
X185475000Y-48600000D03*
X197000000Y-46200000D03*
X181300000Y-48600000D03*
%TO.N,/U0TXD*%
X195550000Y-69699998D03*
%TO.N,/GPIO1*%
X192250000Y-53750000D03*
%TO.N,/CHIP_BOOT*%
X193250000Y-57000000D03*
X202325000Y-45750000D03*
%TO.N,/GPIO45*%
X197125000Y-63575000D03*
%TO.N,/GPIO5*%
X189224999Y-57100000D03*
%TO.N,/U0RXD*%
X195000000Y-68100000D03*
%TO.N,/GPIO2*%
X191750001Y-54224999D03*
%TO.N,/GPIO6*%
X188725000Y-54200000D03*
%TO.N,/CHIP_PU*%
X168800000Y-45875000D03*
X193750000Y-54050000D03*
%TO.N,/GPIO4*%
X190225001Y-53775001D03*
%TO.N,/GPIO3*%
X190725001Y-57075000D03*
%TD*%
D30*
%TO.N,/USB_D-*%
X191262500Y-49687500D02*
X194350000Y-46600000D01*
D31*
%TO.N,Earth*%
X169775000Y-42950000D02*
X169750000Y-42975000D01*
X171808250Y-42950000D02*
X169775000Y-42950000D01*
%TO.N,+3V3*%
X202535000Y-57085000D02*
X202575000Y-57125000D01*
X200350000Y-57085000D02*
X202535000Y-57085000D01*
X202575000Y-55717500D02*
X202575000Y-57125000D01*
X202575000Y-60525000D02*
X202575000Y-55717500D01*
X204165000Y-62115000D02*
X202575000Y-60525000D01*
X209410000Y-62115000D02*
X204165000Y-62115000D01*
D32*
%TO.N,/GPIO45*%
X199250000Y-57085000D02*
X199250000Y-58450000D01*
%TO.N,/GPIO2*%
X210650000Y-59575000D02*
X209410000Y-59575000D01*
X211000000Y-59225000D02*
X210650000Y-59575000D01*
X204400000Y-52450000D02*
X207675000Y-55725000D01*
X207675000Y-55725000D02*
X210625000Y-55725000D01*
X210625000Y-55725000D02*
X211000000Y-56100000D01*
X192250000Y-52450000D02*
X204400000Y-52450000D01*
X191750001Y-52949999D02*
X192250000Y-52450000D01*
X191750001Y-54224999D02*
X191750001Y-52949999D01*
X211000000Y-56100000D02*
X211000000Y-59225000D01*
%TO.N,/GPIO1*%
X207685000Y-57035000D02*
X207635000Y-56985000D01*
X209410000Y-57035000D02*
X207685000Y-57035000D01*
D31*
%TO.N,Earth*%
X209750000Y-43425000D02*
X209725000Y-43450000D01*
X209750000Y-42175000D02*
X209750000Y-43425000D01*
D32*
%TO.N,/CHIP_BOOT*%
X205100000Y-45732500D02*
X202342500Y-45732500D01*
X202342500Y-45732500D02*
X202325000Y-45750000D01*
D31*
%TO.N,Earth*%
X200032500Y-44315000D02*
X200675000Y-43672500D01*
X198920000Y-44315000D02*
X200032500Y-44315000D01*
D32*
%TO.N,/USB_CC1*%
X195850000Y-43275000D02*
X195850000Y-44890000D01*
X196647500Y-42477500D02*
X195850000Y-43275000D01*
X200675000Y-42477500D02*
X196647500Y-42477500D01*
D31*
%TO.N,Earth*%
X189000000Y-44350000D02*
X190245000Y-44350000D01*
X188425000Y-43775000D02*
X189000000Y-44350000D01*
X188425000Y-43747500D02*
X188425000Y-43775000D01*
X190245000Y-44350000D02*
X190280000Y-44315000D01*
D32*
%TO.N,/USB_CC2*%
X192850000Y-43200000D02*
X192850000Y-44890000D01*
X192127500Y-42477500D02*
X192850000Y-43200000D01*
X188425000Y-42552500D02*
X188500000Y-42477500D01*
X188500000Y-42477500D02*
X192127500Y-42477500D01*
D31*
%TO.N,Earth*%
X177250000Y-46525000D02*
X177275000Y-46550000D01*
X177250000Y-45542500D02*
X177250000Y-46525000D01*
%TO.N,VBUS*%
X177046250Y-44407500D02*
X177250000Y-44407500D01*
X177003750Y-44450000D02*
X177046250Y-44407500D01*
X181300000Y-47650000D02*
X181300000Y-48600000D01*
X178082500Y-44432500D02*
X181300000Y-47650000D01*
X173996250Y-44450000D02*
X177003750Y-44450000D01*
X177275000Y-44432500D02*
X178082500Y-44432500D01*
X177250000Y-44407500D02*
X177275000Y-44432500D01*
%TO.N,+5V*%
X160085000Y-76335000D02*
X161150000Y-76335000D01*
X159400000Y-75650000D02*
X160085000Y-76335000D01*
X159400000Y-62700000D02*
X159400000Y-75650000D01*
X171788750Y-48603750D02*
X171788750Y-50311250D01*
X171788750Y-45969500D02*
X171808250Y-45950000D01*
X171788750Y-50311250D02*
X159400000Y-62700000D01*
X171792500Y-48600000D02*
X171788750Y-48596250D01*
X171792500Y-48600000D02*
X171788750Y-48603750D01*
X171788750Y-48596250D02*
X171788750Y-45969500D01*
D32*
%TO.N,/CHIP_PU*%
X168777500Y-45852500D02*
X168800000Y-45875000D01*
X165600000Y-45852500D02*
X168777500Y-45852500D01*
%TO.N,/GPIO3*%
X190725000Y-57074999D02*
X190725001Y-57075000D01*
X190725000Y-55625000D02*
X190725000Y-57074999D01*
%TO.N,/GPIO5*%
X189225000Y-57099999D02*
X189224999Y-57100000D01*
X189225000Y-55625000D02*
X189225000Y-57099999D01*
D31*
%TO.N,+3V3*%
X175725000Y-50100000D02*
X178425000Y-47400000D01*
X175725000Y-55625000D02*
X175725000Y-50100000D01*
X165600000Y-47047500D02*
X165600000Y-53675000D01*
X205125000Y-42907500D02*
X205110000Y-42922500D01*
X205125000Y-41975000D02*
X205125000Y-42907500D01*
%TO.N,Earth*%
X190750000Y-48600000D02*
X190775000Y-48625000D01*
X197800000Y-44890000D02*
X198040000Y-44650000D01*
X198585000Y-44650000D02*
X198920000Y-44315000D01*
X188224999Y-54649999D02*
X187700000Y-54125000D01*
X191210000Y-44700000D02*
X190665000Y-44700000D01*
X189262500Y-48600000D02*
X190750000Y-48600000D01*
X191400000Y-44890000D02*
X191210000Y-44700000D01*
X190665000Y-44700000D02*
X190280000Y-44315000D01*
X205100000Y-46867500D02*
X205100000Y-47800000D01*
X186724999Y-55624999D02*
X186725000Y-54125000D01*
X209750000Y-47325000D02*
X209750000Y-48800000D01*
X188224999Y-55649999D02*
X188224999Y-54649999D01*
X198040000Y-44650000D02*
X198585000Y-44650000D01*
X185225000Y-55625000D02*
X185225001Y-54125001D01*
D30*
%TO.N,+3V3*%
X209377500Y-62147500D02*
X209410000Y-62115000D01*
D31*
X175725000Y-58325000D02*
X175725000Y-55625000D01*
X164555000Y-73795000D02*
X165350000Y-73000000D01*
X161150000Y-68715000D02*
X163650000Y-68715000D01*
X163650000Y-68715000D02*
X165335000Y-68715000D01*
X175725000Y-55625000D02*
X176225000Y-55625000D01*
X165335000Y-68715000D02*
X175725000Y-58325000D01*
X165350000Y-68730000D02*
X165335000Y-68715000D01*
X165350000Y-73000000D02*
X165350000Y-68730000D01*
X161150000Y-73795000D02*
X164555000Y-73795000D01*
%TO.N,VBUS*%
X176475000Y-63175000D02*
X176475000Y-74075000D01*
X176475000Y-74075000D02*
X166595000Y-83955000D01*
X181300000Y-48600000D02*
X180700000Y-48600000D01*
X166595000Y-83955000D02*
X161150000Y-83955000D01*
X180700000Y-48600000D02*
X179350000Y-49950000D01*
X179350000Y-49950000D02*
X179350000Y-57300000D01*
X197000000Y-44890000D02*
X197000000Y-46000000D01*
X175975000Y-63175000D02*
X176475000Y-63175000D01*
X179350000Y-57300000D02*
X176475000Y-60175000D01*
X197000000Y-46000000D02*
X197000000Y-46200000D01*
X192200000Y-46200000D02*
X192200000Y-44890000D01*
X185475000Y-48600000D02*
X186987500Y-48600000D01*
X176475000Y-60175000D02*
X176475000Y-63175000D01*
D32*
%TO.N,/U0TXD*%
X191475000Y-63175000D02*
X191475000Y-65625000D01*
X191475000Y-65625000D02*
X195550000Y-69699998D01*
%TO.N,/GPIO1*%
X192225000Y-54021175D02*
X192230001Y-54026176D01*
X203629000Y-52979000D02*
X207635000Y-56985000D01*
X192230001Y-54423822D02*
X192225000Y-54428823D01*
X192225000Y-54428823D02*
X192225000Y-55625000D01*
X192250000Y-53750000D02*
X192250000Y-53250000D01*
X192230001Y-54026176D02*
X192230001Y-54423822D01*
X192521000Y-52979000D02*
X203629000Y-52979000D01*
X192250000Y-53250000D02*
X192521000Y-52979000D01*
X192225000Y-53775000D02*
X192225000Y-54021175D01*
%TO.N,/CHIP_BOOT*%
X208050000Y-47100000D02*
X208050000Y-47325000D01*
X205100000Y-45670000D02*
X205110000Y-45660000D01*
X205110000Y-44117500D02*
X206332500Y-44117500D01*
X193225000Y-56975000D02*
X193250000Y-57000000D01*
X206682500Y-45732500D02*
X208050000Y-47100000D01*
X205100000Y-45732500D02*
X206682500Y-45732500D01*
X205100000Y-45732500D02*
X205100000Y-45670000D01*
X208050000Y-42400000D02*
X208050000Y-42175000D01*
X193225000Y-55625000D02*
X193225000Y-56975000D01*
X205110000Y-45660000D02*
X205110000Y-44117500D01*
X206332500Y-44117500D02*
X208050000Y-42400000D01*
%TO.N,/GPIO35*%
X185475000Y-67925000D02*
X185475000Y-63175000D01*
X209410000Y-86495000D02*
X204045000Y-86495000D01*
X204045000Y-86495000D02*
X185475000Y-67925000D01*
%TO.N,/GPIO45*%
X195575000Y-65125000D02*
X197125000Y-63575000D01*
X193450000Y-65125000D02*
X195575000Y-65125000D01*
X192975000Y-64650000D02*
X193450000Y-65125000D01*
X192975000Y-63175000D02*
X192975000Y-64650000D01*
%TO.N,/GPIO36*%
X204355000Y-83955000D02*
X196600000Y-76200000D01*
X186049000Y-65649000D02*
X186049000Y-63486868D01*
X185975000Y-63412868D02*
X185975000Y-63175000D01*
X209410000Y-83955000D02*
X204355000Y-83955000D01*
X197971000Y-77571000D02*
X186049000Y-65649000D01*
X186049000Y-63486868D02*
X185975000Y-63412868D01*
%TO.N,/GPIO34*%
X184475000Y-69625000D02*
X184475000Y-63175000D01*
X203885000Y-89035000D02*
X184475000Y-69625000D01*
X209410000Y-89035000D02*
X203885000Y-89035000D01*
%TO.N,/GPIO33*%
X203675000Y-91575000D02*
X184099000Y-71999000D01*
X209410000Y-91575000D02*
X203675000Y-91575000D01*
X184099000Y-71999000D02*
X184099000Y-63100000D01*
%TO.N,/U0RXD*%
X191975000Y-63175000D02*
X191975000Y-65075000D01*
X191975000Y-65075000D02*
X195000000Y-68100000D01*
%TO.N,/GPIO6*%
X188725000Y-55625000D02*
X188725000Y-54200000D01*
%TO.N,/GPIO18*%
X203615000Y-94115000D02*
X209410000Y-94115000D01*
X181475000Y-71975000D02*
X203615000Y-94115000D01*
X181475000Y-63175000D02*
X181475000Y-71975000D01*
%TO.N,/CHIP_PU*%
X162600000Y-42400000D02*
X162600000Y-42175000D01*
X163517500Y-43317500D02*
X162600000Y-42400000D01*
X193725000Y-55625000D02*
X193725000Y-54075000D01*
X165600000Y-45852500D02*
X165600000Y-43317500D01*
X162600000Y-47100000D02*
X162600000Y-47325000D01*
X163847500Y-45852500D02*
X162600000Y-47100000D01*
X165600000Y-43317500D02*
X163517500Y-43317500D01*
X165600000Y-45852500D02*
X163847500Y-45852500D01*
X193725000Y-54075000D02*
X193750000Y-54050000D01*
%TO.N,/GPIO4*%
X190225000Y-55625000D02*
X190225001Y-53775001D01*
%TO.N,/GPIO17*%
X209410000Y-96655000D02*
X203405000Y-96655000D01*
X180975000Y-74225000D02*
X180975000Y-63175000D01*
X203405000Y-96655000D02*
X180975000Y-74225000D01*
D30*
%TO.N,/USB_D-*%
X186987500Y-49550000D02*
X186850000Y-49687500D01*
X189262500Y-49550000D02*
X186987500Y-49550000D01*
X189400000Y-49687500D02*
X189262500Y-49550000D01*
X181725000Y-51500000D02*
X181725000Y-55625000D01*
X186850000Y-49687500D02*
X183537500Y-49687500D01*
X194350000Y-44890000D02*
X194350000Y-46600000D01*
X195050000Y-46600000D02*
X194350000Y-46600000D01*
X195350000Y-46300000D02*
X195050000Y-46600000D01*
X195350000Y-44890000D02*
X195350000Y-46300000D01*
X191262500Y-49687500D02*
X189400000Y-49687500D01*
X183537500Y-49687500D02*
X181725000Y-51500000D01*
%TO.N,/USB_D+*%
X189262500Y-47650000D02*
X186987500Y-47650000D01*
X183512500Y-47787500D02*
X186850000Y-47787500D01*
X194850000Y-43675000D02*
X194650000Y-43475000D01*
X181225000Y-50075000D02*
X183512500Y-47787500D01*
X181225000Y-55625000D02*
X181225000Y-50075000D01*
X194850000Y-44890000D02*
X194850000Y-43675000D01*
X194650000Y-43475000D02*
X194025000Y-43475000D01*
X186850000Y-47787500D02*
X186987500Y-47650000D01*
X193850000Y-45984314D02*
X192184314Y-47650000D01*
X194025000Y-43475000D02*
X193850000Y-43650000D01*
X192184314Y-47650000D02*
X189262500Y-47650000D01*
X193850000Y-43650000D02*
X193850000Y-45984314D01*
D32*
%TO.N,/GPIO11*%
X186600000Y-59300000D02*
X184725000Y-57425000D01*
X196502944Y-59300000D02*
X186600000Y-59300000D01*
X200500000Y-63297056D02*
X196502944Y-59300000D01*
X205255000Y-77355000D02*
X200500000Y-72600000D01*
X184725000Y-57425000D02*
X184725000Y-55625000D01*
X200500000Y-72600000D02*
X200500000Y-63297056D01*
X209410000Y-77355000D02*
X205255000Y-77355000D01*
%TO.N,/GPIO10*%
X185725000Y-57375000D02*
X185725000Y-55625000D01*
X200800000Y-63172792D02*
X196627208Y-59000000D01*
X187350000Y-59000000D02*
X185725000Y-57375000D01*
X200800000Y-69900000D02*
X200800000Y-63172792D01*
X196627208Y-59000000D02*
X187350000Y-59000000D01*
X205715000Y-74815000D02*
X200800000Y-69900000D01*
X209410000Y-74815000D02*
X205715000Y-74815000D01*
%TO.N,/GPIO9*%
X196751472Y-58700000D02*
X187600000Y-58700000D01*
X201100000Y-63048528D02*
X196751472Y-58700000D01*
X201100000Y-67600000D02*
X201100000Y-63048528D01*
X205775000Y-72275000D02*
X201100000Y-67600000D01*
X186225000Y-57325000D02*
X186225000Y-55625000D01*
X187600000Y-58700000D02*
X186225000Y-57325000D01*
X209410000Y-72275000D02*
X205775000Y-72275000D01*
%TO.N,/GPIO8*%
X205935000Y-69735000D02*
X209410000Y-69735000D01*
X201400000Y-65200000D02*
X205935000Y-69735000D01*
X201400000Y-62924264D02*
X201400000Y-65200000D01*
X196875736Y-58400000D02*
X201400000Y-62924264D01*
X187225000Y-57325000D02*
X188300000Y-58400000D01*
X188300000Y-58400000D02*
X196875736Y-58400000D01*
X187225000Y-55625000D02*
X187225000Y-57325000D01*
%TO.N,/GPIO12*%
X186300000Y-59600000D02*
X184225000Y-57525000D01*
X196378680Y-59600000D02*
X186300000Y-59600000D01*
X184225000Y-57525000D02*
X184225000Y-55625000D01*
X200200000Y-63421320D02*
X196378680Y-59600000D01*
X200200000Y-74900000D02*
X200200000Y-63421320D01*
X205195000Y-79895000D02*
X200200000Y-74900000D01*
X209410000Y-79895000D02*
X205195000Y-79895000D01*
%TO.N,/GPIO7*%
X206095000Y-67195000D02*
X209410000Y-67195000D01*
X188700000Y-58100000D02*
X197000000Y-58100000D01*
X187725000Y-57125000D02*
X188700000Y-58100000D01*
X197000000Y-58100000D02*
X206095000Y-67195000D01*
X187725000Y-55625000D02*
X187725000Y-57125000D01*
%TD*%
%TA.AperFunction,Conductor*%
%TO.N,Earth*%
G36*
X161400000Y-80981988D02*
G01*
X161342993Y-80949075D01*
X161215826Y-80915000D01*
X161084174Y-80915000D01*
X160957007Y-80949075D01*
X160900000Y-80981988D01*
X160900000Y-79308012D01*
X160957007Y-79340925D01*
X161084174Y-79375000D01*
X161215826Y-79375000D01*
X161342993Y-79340925D01*
X161400000Y-79308012D01*
X161400000Y-80981988D01*
G37*
%TD.AperFunction*%
%TA.AperFunction,Conductor*%
G36*
X194027826Y-46336111D02*
G01*
X194049500Y-46388437D01*
X194049500Y-46444877D01*
X194027826Y-46497203D01*
X191159703Y-49365326D01*
X191107377Y-49387000D01*
X190235891Y-49387000D01*
X190183565Y-49365326D01*
X190161891Y-49313000D01*
X190183565Y-49260674D01*
X190292682Y-49151556D01*
X190376281Y-49010199D01*
X190422099Y-48852493D01*
X190422296Y-48850000D01*
X188102704Y-48850000D01*
X188102900Y-48852493D01*
X188148718Y-49010199D01*
X188224200Y-49137831D01*
X188232180Y-49193903D01*
X188198174Y-49239195D01*
X188160505Y-49249500D01*
X187862759Y-49249500D01*
X187810433Y-49227826D01*
X187806928Y-49224068D01*
X187800547Y-49216733D01*
X187789198Y-49193517D01*
X187721193Y-49125512D01*
X187719502Y-49123568D01*
X187711261Y-49098969D01*
X187701333Y-49075000D01*
X187702382Y-49072465D01*
X187701511Y-49069864D01*
X187713079Y-49046641D01*
X187723007Y-49022674D01*
X187735482Y-49010199D01*
X187789198Y-48956483D01*
X187840573Y-48851393D01*
X187850500Y-48783260D01*
X187850500Y-48416740D01*
X187840573Y-48348607D01*
X187789198Y-48243517D01*
X187723007Y-48177326D01*
X187713079Y-48153358D01*
X187701511Y-48130136D01*
X187702436Y-48127663D01*
X187701333Y-48125000D01*
X187719502Y-48076432D01*
X187721193Y-48074487D01*
X187789198Y-48006483D01*
X187800547Y-47983266D01*
X187806928Y-47975932D01*
X187824235Y-47967309D01*
X187838730Y-47954510D01*
X187855573Y-47951699D01*
X187857623Y-47950678D01*
X187858976Y-47951131D01*
X187862759Y-47950500D01*
X188160505Y-47950500D01*
X188212831Y-47972174D01*
X188234505Y-48024500D01*
X188224200Y-48062169D01*
X188148718Y-48189800D01*
X188102900Y-48347506D01*
X188102704Y-48350000D01*
X190422296Y-48350000D01*
X190422099Y-48347506D01*
X190376281Y-48189800D01*
X190300800Y-48062169D01*
X190292820Y-48006097D01*
X190326826Y-47960805D01*
X190364495Y-47950500D01*
X192223878Y-47950500D01*
X192223878Y-47950499D01*
X192300303Y-47930021D01*
X192368825Y-47890460D01*
X192424774Y-47834511D01*
X193923174Y-46336111D01*
X193975500Y-46314437D01*
X194027826Y-46336111D01*
G37*
%TD.AperFunction*%
%TA.AperFunction,Conductor*%
G36*
X211585751Y-38406411D02*
G01*
X211597444Y-38408262D01*
X211630074Y-38413430D01*
X211652090Y-38420584D01*
X211686821Y-38438280D01*
X211705549Y-38451887D01*
X211733112Y-38479450D01*
X211746720Y-38498180D01*
X211764414Y-38532906D01*
X211771569Y-38554926D01*
X211778589Y-38599248D01*
X211779500Y-38610824D01*
X211779500Y-102500299D01*
X211779499Y-102500303D01*
X211779499Y-102521092D01*
X211779499Y-102540741D01*
X211779499Y-102543048D01*
X211778866Y-102552705D01*
X211773974Y-102589872D01*
X211768975Y-102608532D01*
X211756502Y-102638646D01*
X211746842Y-102655378D01*
X211724046Y-102685086D01*
X211717664Y-102692363D01*
X210397617Y-104012412D01*
X210397616Y-104012413D01*
X210367390Y-104042638D01*
X210360112Y-104049020D01*
X210330371Y-104071840D01*
X210313645Y-104081496D01*
X210294531Y-104089414D01*
X210283531Y-104093970D01*
X210264871Y-104098969D01*
X210227667Y-104103866D01*
X210218010Y-104104499D01*
X210169345Y-104104499D01*
X210169333Y-104104500D01*
X199163299Y-104104500D01*
X199163231Y-104104504D01*
X199144109Y-104104504D01*
X199019663Y-104124213D01*
X199019646Y-104124217D01*
X198899831Y-104163146D01*
X198899824Y-104163149D01*
X198787556Y-104220350D01*
X198685615Y-104294414D01*
X198685606Y-104294422D01*
X198669043Y-104310984D01*
X198669044Y-104310985D01*
X198641069Y-104338960D01*
X198607413Y-104372615D01*
X198607412Y-104372616D01*
X196427617Y-106552412D01*
X196427616Y-106552413D01*
X196397390Y-106582638D01*
X196390113Y-106589020D01*
X196385369Y-106592659D01*
X196360371Y-106611840D01*
X196343645Y-106621496D01*
X196343633Y-106621502D01*
X196313531Y-106633970D01*
X196294871Y-106638969D01*
X196257667Y-106643866D01*
X196248010Y-106644499D01*
X196199345Y-106644499D01*
X196199333Y-106644500D01*
X163950665Y-106644500D01*
X163944699Y-106644499D01*
X163944697Y-106644499D01*
X163923572Y-106644499D01*
X163901949Y-106644499D01*
X163901948Y-106644498D01*
X163892294Y-106643866D01*
X163855127Y-106638974D01*
X163836468Y-106633975D01*
X163806348Y-106621499D01*
X163789622Y-106611842D01*
X163759912Y-106589045D01*
X163752634Y-106582663D01*
X161542585Y-104372614D01*
X161542584Y-104372612D01*
X161532813Y-104362841D01*
X161532808Y-104362829D01*
X161464381Y-104294405D01*
X161362445Y-104220345D01*
X161355802Y-104216961D01*
X161355801Y-104216960D01*
X161250182Y-104163146D01*
X161250169Y-104163141D01*
X161220342Y-104153450D01*
X164375500Y-104153450D01*
X164375500Y-104396550D01*
X164383514Y-104457426D01*
X164407230Y-104637569D01*
X164470149Y-104872387D01*
X164563179Y-105096980D01*
X164563180Y-105096983D01*
X164563181Y-105096984D01*
X164684731Y-105307516D01*
X164832722Y-105500380D01*
X165004620Y-105672278D01*
X165197484Y-105820269D01*
X165408016Y-105941819D01*
X165632612Y-106034850D01*
X165867429Y-106097769D01*
X166108450Y-106129500D01*
X166108452Y-106129500D01*
X166351548Y-106129500D01*
X166351550Y-106129500D01*
X166592571Y-106097769D01*
X166827388Y-106034850D01*
X167051984Y-105941819D01*
X167262516Y-105820269D01*
X167455380Y-105672278D01*
X167627278Y-105500380D01*
X167775269Y-105307516D01*
X167896819Y-105096984D01*
X167989850Y-104872388D01*
X168052769Y-104637571D01*
X168084500Y-104396550D01*
X168084500Y-104153450D01*
X168052769Y-103912429D01*
X167989850Y-103677612D01*
X167896819Y-103453016D01*
X167775269Y-103242484D01*
X167627278Y-103049620D01*
X167455380Y-102877722D01*
X167262516Y-102729731D01*
X167262517Y-102729731D01*
X167262515Y-102729730D01*
X167051983Y-102608180D01*
X167051980Y-102608179D01*
X166827387Y-102515149D01*
X166592569Y-102452230D01*
X166415010Y-102428854D01*
X166351550Y-102420500D01*
X166108450Y-102420500D01*
X166052372Y-102427882D01*
X165867430Y-102452230D01*
X165632612Y-102515149D01*
X165408019Y-102608179D01*
X165408016Y-102608180D01*
X165197484Y-102729730D01*
X165004615Y-102877726D01*
X164832726Y-103049615D01*
X164684730Y-103242484D01*
X164563180Y-103453016D01*
X164563179Y-103453019D01*
X164470149Y-103677612D01*
X164407230Y-103912430D01*
X164381944Y-104104500D01*
X164375500Y-104153450D01*
X161220342Y-104153450D01*
X161130353Y-104124212D01*
X161130336Y-104124208D01*
X161005891Y-104104499D01*
X161005890Y-104104499D01*
X160942889Y-104104500D01*
X158985824Y-104104500D01*
X158974248Y-104103589D01*
X158929926Y-104096569D01*
X158907906Y-104089414D01*
X158873180Y-104071720D01*
X158854450Y-104058112D01*
X158826887Y-104030549D01*
X158813279Y-104011819D01*
X158799024Y-103983842D01*
X158795584Y-103977090D01*
X158788430Y-103955072D01*
X158781411Y-103910750D01*
X158780500Y-103899175D01*
X158780500Y-101636460D01*
X160149500Y-101636460D01*
X160149500Y-101833539D01*
X160187947Y-102026829D01*
X160187950Y-102026839D01*
X160263367Y-102208913D01*
X160372860Y-102372781D01*
X160512218Y-102512139D01*
X160676086Y-102621632D01*
X160838573Y-102688936D01*
X160858165Y-102697051D01*
X161051459Y-102735500D01*
X161051461Y-102735500D01*
X161248539Y-102735500D01*
X161248541Y-102735500D01*
X161441835Y-102697051D01*
X161623914Y-102621632D01*
X161787782Y-102512139D01*
X161927139Y-102372782D01*
X162036632Y-102208914D01*
X162112051Y-102026835D01*
X162150500Y-101833541D01*
X162150500Y-101636459D01*
X162112051Y-101443165D01*
X162036632Y-101261086D01*
X161927139Y-101097218D01*
X161787782Y-100957861D01*
X161623914Y-100848368D01*
X161623915Y-100848368D01*
X161623913Y-100848367D01*
X161441839Y-100772950D01*
X161441829Y-100772947D01*
X161312388Y-100747200D01*
X161248541Y-100734500D01*
X161051459Y-100734500D01*
X160996662Y-100745399D01*
X160858170Y-100772947D01*
X160858160Y-100772950D01*
X160676086Y-100848367D01*
X160512218Y-100957860D01*
X160512217Y-100957862D01*
X160372862Y-101097217D01*
X160372860Y-101097218D01*
X160263367Y-101261086D01*
X160187950Y-101443160D01*
X160187947Y-101443170D01*
X160149500Y-101636460D01*
X158780500Y-101636460D01*
X158780500Y-99096460D01*
X160149500Y-99096460D01*
X160149500Y-99293539D01*
X160187947Y-99486829D01*
X160187950Y-99486839D01*
X160263367Y-99668913D01*
X160263368Y-99668914D01*
X160372861Y-99832782D01*
X160512218Y-99972139D01*
X160676086Y-100081632D01*
X160858165Y-100157051D01*
X161051459Y-100195500D01*
X161051461Y-100195500D01*
X161248539Y-100195500D01*
X161248541Y-100195500D01*
X161441835Y-100157051D01*
X161623914Y-100081632D01*
X161787782Y-99972139D01*
X161927139Y-99832782D01*
X162036632Y-99668914D01*
X162112051Y-99486835D01*
X162150500Y-99293541D01*
X162150500Y-99096459D01*
X162112051Y-98903165D01*
X162036632Y-98721086D01*
X161927139Y-98557218D01*
X161787782Y-98417861D01*
X161623914Y-98308368D01*
X161623915Y-98308368D01*
X161623913Y-98308367D01*
X161441839Y-98232950D01*
X161441829Y-98232947D01*
X161312388Y-98207200D01*
X161248541Y-98194500D01*
X161051459Y-98194500D01*
X160996662Y-98205399D01*
X160858170Y-98232947D01*
X160858160Y-98232950D01*
X160676086Y-98308367D01*
X160512218Y-98417860D01*
X160512217Y-98417862D01*
X160372862Y-98557217D01*
X160372860Y-98557218D01*
X160263367Y-98721086D01*
X160187950Y-98903160D01*
X160187947Y-98903170D01*
X160149500Y-99096460D01*
X158780500Y-99096460D01*
X158780500Y-96556460D01*
X160149500Y-96556460D01*
X160149500Y-96753539D01*
X160187947Y-96946829D01*
X160187950Y-96946839D01*
X160263367Y-97128913D01*
X160263368Y-97128914D01*
X160372861Y-97292782D01*
X160512218Y-97432139D01*
X160676086Y-97541632D01*
X160858165Y-97617051D01*
X161051459Y-97655500D01*
X161051461Y-97655500D01*
X161248539Y-97655500D01*
X161248541Y-97655500D01*
X161441835Y-97617051D01*
X161623914Y-97541632D01*
X161787782Y-97432139D01*
X161927139Y-97292782D01*
X162036632Y-97128914D01*
X162112051Y-96946835D01*
X162150500Y-96753541D01*
X162150500Y-96556459D01*
X162112051Y-96363165D01*
X162036632Y-96181086D01*
X162014826Y-96148451D01*
X183145500Y-96148451D01*
X183145500Y-103191548D01*
X183177230Y-103432569D01*
X183240149Y-103667387D01*
X183333179Y-103891980D01*
X183333180Y-103891983D01*
X183454730Y-104102515D01*
X183471383Y-104124217D01*
X183602722Y-104295380D01*
X183774620Y-104467278D01*
X183967484Y-104615269D01*
X184178016Y-104736819D01*
X184402612Y-104829850D01*
X184637429Y-104892769D01*
X184878450Y-104924500D01*
X184878452Y-104924500D01*
X185121548Y-104924500D01*
X185121550Y-104924500D01*
X185362571Y-104892769D01*
X185597388Y-104829850D01*
X185821984Y-104736819D01*
X186032516Y-104615269D01*
X186225380Y-104467278D01*
X186397278Y-104295380D01*
X186506186Y-104153450D01*
X192315500Y-104153450D01*
X192315500Y-104396550D01*
X192323514Y-104457426D01*
X192347230Y-104637569D01*
X192410149Y-104872387D01*
X192503179Y-105096980D01*
X192503180Y-105096983D01*
X192503181Y-105096984D01*
X192624731Y-105307516D01*
X192772722Y-105500380D01*
X192944620Y-105672278D01*
X193137484Y-105820269D01*
X193348016Y-105941819D01*
X193572612Y-106034850D01*
X193807429Y-106097769D01*
X194048450Y-106129500D01*
X194048452Y-106129500D01*
X194291548Y-106129500D01*
X194291550Y-106129500D01*
X194532571Y-106097769D01*
X194767388Y-106034850D01*
X194991984Y-105941819D01*
X195202516Y-105820269D01*
X195395380Y-105672278D01*
X195567278Y-105500380D01*
X195715269Y-105307516D01*
X195836819Y-105096984D01*
X195929850Y-104872388D01*
X195992769Y-104637571D01*
X196024500Y-104396550D01*
X196024500Y-104153450D01*
X195992769Y-103912429D01*
X195929850Y-103677612D01*
X195836819Y-103453016D01*
X195715269Y-103242484D01*
X195567278Y-103049620D01*
X195395380Y-102877722D01*
X195202516Y-102729731D01*
X195202517Y-102729731D01*
X195202515Y-102729730D01*
X194991983Y-102608180D01*
X194991980Y-102608179D01*
X194767387Y-102515149D01*
X194532569Y-102452230D01*
X194355010Y-102428854D01*
X194291550Y-102420500D01*
X194048450Y-102420500D01*
X193992372Y-102427882D01*
X193807430Y-102452230D01*
X193572612Y-102515149D01*
X193348019Y-102608179D01*
X193348016Y-102608180D01*
X193137484Y-102729730D01*
X192944615Y-102877726D01*
X192772726Y-103049615D01*
X192624730Y-103242484D01*
X192503180Y-103453016D01*
X192503179Y-103453019D01*
X192410149Y-103677612D01*
X192347230Y-103912430D01*
X192321944Y-104104500D01*
X192315500Y-104153450D01*
X186506186Y-104153450D01*
X186528617Y-104124217D01*
X186542613Y-104105978D01*
X186542613Y-104105977D01*
X186543744Y-104104504D01*
X186545269Y-104102516D01*
X186666819Y-103891984D01*
X186759850Y-103667388D01*
X186822769Y-103432571D01*
X186854500Y-103191550D01*
X186854500Y-101636460D01*
X208409500Y-101636460D01*
X208409500Y-101833539D01*
X208447947Y-102026829D01*
X208447950Y-102026839D01*
X208523367Y-102208913D01*
X208632860Y-102372781D01*
X208772218Y-102512139D01*
X208936086Y-102621632D01*
X209098573Y-102688936D01*
X209118165Y-102697051D01*
X209311459Y-102735500D01*
X209311461Y-102735500D01*
X209508539Y-102735500D01*
X209508541Y-102735500D01*
X209701835Y-102697051D01*
X209883914Y-102621632D01*
X210047782Y-102512139D01*
X210187139Y-102372782D01*
X210296632Y-102208914D01*
X210372051Y-102026835D01*
X210410500Y-101833541D01*
X210410500Y-101636459D01*
X210372051Y-101443165D01*
X210296632Y-101261086D01*
X210187139Y-101097218D01*
X210047782Y-100957861D01*
X209883914Y-100848368D01*
X209883915Y-100848368D01*
X209883913Y-100848367D01*
X209701839Y-100772950D01*
X209701829Y-100772947D01*
X209572388Y-100747200D01*
X209508541Y-100734500D01*
X209311459Y-100734500D01*
X209256662Y-100745399D01*
X209118170Y-100772947D01*
X209118160Y-100772950D01*
X208936086Y-100848367D01*
X208772218Y-100957860D01*
X208772217Y-100957862D01*
X208632862Y-101097217D01*
X208632860Y-101097218D01*
X208523367Y-101261086D01*
X208447950Y-101443160D01*
X208447947Y-101443170D01*
X208409500Y-101636460D01*
X186854500Y-101636460D01*
X186854500Y-99096460D01*
X208409500Y-99096460D01*
X208409500Y-99293539D01*
X208447947Y-99486829D01*
X208447950Y-99486839D01*
X208523367Y-99668913D01*
X208523368Y-99668914D01*
X208632861Y-99832782D01*
X208772218Y-99972139D01*
X208936086Y-100081632D01*
X209118165Y-100157051D01*
X209311459Y-100195500D01*
X209311461Y-100195500D01*
X209508539Y-100195500D01*
X209508541Y-100195500D01*
X209701835Y-100157051D01*
X209883914Y-100081632D01*
X210047782Y-99972139D01*
X210187139Y-99832782D01*
X210296632Y-99668914D01*
X210372051Y-99486835D01*
X210410500Y-99293541D01*
X210410500Y-99096459D01*
X210372051Y-98903165D01*
X210296632Y-98721086D01*
X210187139Y-98557218D01*
X210047782Y-98417861D01*
X209883914Y-98308368D01*
X209883915Y-98308368D01*
X209883913Y-98308367D01*
X209701839Y-98232950D01*
X209701829Y-98232947D01*
X209572388Y-98207200D01*
X209508541Y-98194500D01*
X209311459Y-98194500D01*
X209256662Y-98205399D01*
X209118170Y-98232947D01*
X209118160Y-98232950D01*
X208936086Y-98308367D01*
X208772218Y-98417860D01*
X208772217Y-98417862D01*
X208632862Y-98557217D01*
X208632860Y-98557218D01*
X208523367Y-98721086D01*
X208447950Y-98903160D01*
X208447947Y-98903170D01*
X208409500Y-99096460D01*
X186854500Y-99096460D01*
X186854500Y-96148450D01*
X186822769Y-95907429D01*
X186759850Y-95672612D01*
X186666819Y-95448016D01*
X186545269Y-95237484D01*
X186397278Y-95044620D01*
X186225380Y-94872722D01*
X186032516Y-94724731D01*
X186032517Y-94724731D01*
X186032515Y-94724730D01*
X185821983Y-94603180D01*
X185821980Y-94603179D01*
X185597387Y-94510149D01*
X185362569Y-94447230D01*
X185185010Y-94423854D01*
X185121550Y-94415500D01*
X184878450Y-94415500D01*
X184822372Y-94422882D01*
X184637430Y-94447230D01*
X184402612Y-94510149D01*
X184178019Y-94603179D01*
X184178016Y-94603180D01*
X183967484Y-94724730D01*
X183774615Y-94872726D01*
X183602726Y-95044615D01*
X183454730Y-95237484D01*
X183333180Y-95448016D01*
X183333179Y-95448019D01*
X183240149Y-95672612D01*
X183177230Y-95907430D01*
X183145500Y-96148451D01*
X162014826Y-96148451D01*
X161927139Y-96017218D01*
X161787782Y-95877861D01*
X161623914Y-95768368D01*
X161623915Y-95768368D01*
X161623913Y-95768367D01*
X161441839Y-95692950D01*
X161441829Y-95692947D01*
X161312388Y-95667200D01*
X161248541Y-95654500D01*
X161051459Y-95654500D01*
X160996662Y-95665399D01*
X160858170Y-95692947D01*
X160858160Y-95692950D01*
X160676086Y-95768367D01*
X160512218Y-95877860D01*
X160512217Y-95877862D01*
X160372862Y-96017217D01*
X160372860Y-96017218D01*
X160263367Y-96181086D01*
X160187950Y-96363160D01*
X160187947Y-96363170D01*
X160149500Y-96556460D01*
X158780500Y-96556460D01*
X158780500Y-94016460D01*
X160149500Y-94016460D01*
X160149500Y-94213539D01*
X160187947Y-94406829D01*
X160187950Y-94406839D01*
X160263367Y-94588913D01*
X160272900Y-94603179D01*
X160372861Y-94752782D01*
X160512218Y-94892139D01*
X160676086Y-95001632D01*
X160858165Y-95077051D01*
X161051459Y-95115500D01*
X161051461Y-95115500D01*
X161248539Y-95115500D01*
X161248541Y-95115500D01*
X161441835Y-95077051D01*
X161623914Y-95001632D01*
X161787782Y-94892139D01*
X161927139Y-94752782D01*
X162036632Y-94588914D01*
X162112051Y-94406835D01*
X162150500Y-94213541D01*
X162150500Y-94016459D01*
X162112051Y-93823165D01*
X162036632Y-93641086D01*
X161927139Y-93477218D01*
X161787782Y-93337861D01*
X161623914Y-93228368D01*
X161623915Y-93228368D01*
X161623913Y-93228367D01*
X161441839Y-93152950D01*
X161441829Y-93152947D01*
X161312388Y-93127200D01*
X161248541Y-93114500D01*
X161051459Y-93114500D01*
X160996662Y-93125399D01*
X160858170Y-93152947D01*
X160858160Y-93152950D01*
X160676086Y-93228367D01*
X160512218Y-93337860D01*
X160512217Y-93337862D01*
X160372862Y-93477217D01*
X160372860Y-93477218D01*
X160263367Y-93641086D01*
X160187950Y-93823160D01*
X160187947Y-93823170D01*
X160149500Y-94016460D01*
X158780500Y-94016460D01*
X158780500Y-91476460D01*
X160149500Y-91476460D01*
X160149500Y-91673539D01*
X160187947Y-91866829D01*
X160187950Y-91866839D01*
X160263367Y-92048913D01*
X160263368Y-92048914D01*
X160372861Y-92212782D01*
X160512218Y-92352139D01*
X160676086Y-92461632D01*
X160858165Y-92537051D01*
X161051459Y-92575500D01*
X161051461Y-92575500D01*
X161248539Y-92575500D01*
X161248541Y-92575500D01*
X161441835Y-92537051D01*
X161623914Y-92461632D01*
X161787782Y-92352139D01*
X161927139Y-92212782D01*
X162036632Y-92048914D01*
X162112051Y-91866835D01*
X162150500Y-91673541D01*
X162150500Y-91476459D01*
X162112051Y-91283165D01*
X162036632Y-91101086D01*
X161927139Y-90937218D01*
X161787782Y-90797861D01*
X161623914Y-90688368D01*
X161623915Y-90688368D01*
X161623913Y-90688367D01*
X161441839Y-90612950D01*
X161441829Y-90612947D01*
X161312388Y-90587200D01*
X161248541Y-90574500D01*
X161051459Y-90574500D01*
X160996662Y-90585399D01*
X160858170Y-90612947D01*
X160858160Y-90612950D01*
X160676086Y-90688367D01*
X160512218Y-90797860D01*
X160512217Y-90797862D01*
X160372862Y-90937217D01*
X160372860Y-90937218D01*
X160263367Y-91101086D01*
X160187950Y-91283160D01*
X160187947Y-91283170D01*
X160149500Y-91476460D01*
X158780500Y-91476460D01*
X158780500Y-88936460D01*
X160149500Y-88936460D01*
X160149500Y-89133539D01*
X160187947Y-89326829D01*
X160187950Y-89326839D01*
X160263367Y-89508913D01*
X160263368Y-89508914D01*
X160372861Y-89672782D01*
X160512218Y-89812139D01*
X160676086Y-89921632D01*
X160858165Y-89997051D01*
X161051459Y-90035500D01*
X161051461Y-90035500D01*
X161248539Y-90035500D01*
X161248541Y-90035500D01*
X161441835Y-89997051D01*
X161623914Y-89921632D01*
X161787782Y-89812139D01*
X161927139Y-89672782D01*
X162036632Y-89508914D01*
X162112051Y-89326835D01*
X162150500Y-89133541D01*
X162150500Y-88936459D01*
X162112051Y-88743165D01*
X162036632Y-88561086D01*
X161927139Y-88397218D01*
X161787782Y-88257861D01*
X161623914Y-88148368D01*
X161623915Y-88148368D01*
X161623913Y-88148367D01*
X161441839Y-88072950D01*
X161441829Y-88072947D01*
X161312388Y-88047200D01*
X161248541Y-88034500D01*
X161051459Y-88034500D01*
X160996662Y-88045399D01*
X160858170Y-88072947D01*
X160858160Y-88072950D01*
X160676086Y-88148367D01*
X160512218Y-88257860D01*
X160512217Y-88257862D01*
X160372862Y-88397217D01*
X160372860Y-88397218D01*
X160263367Y-88561086D01*
X160187950Y-88743160D01*
X160187947Y-88743170D01*
X160149500Y-88936460D01*
X158780500Y-88936460D01*
X158780500Y-78625000D01*
X159873391Y-78625000D01*
X160716988Y-78625000D01*
X160684075Y-78682007D01*
X160650000Y-78809174D01*
X160650000Y-78940826D01*
X160684075Y-79067993D01*
X160716988Y-79125000D01*
X159873391Y-79125000D01*
X159882010Y-79179416D01*
X159882012Y-79179427D01*
X159945240Y-79374021D01*
X160038139Y-79556349D01*
X160158411Y-79721888D01*
X160158420Y-79721898D01*
X160303102Y-79866580D01*
X160303111Y-79866588D01*
X160468650Y-79986860D01*
X160649616Y-80079065D01*
X160686399Y-80122132D01*
X160681956Y-80178595D01*
X160649616Y-80210935D01*
X160468650Y-80303139D01*
X160303111Y-80423411D01*
X160158411Y-80568111D01*
X160038139Y-80733650D01*
X159945240Y-80915978D01*
X159882012Y-81110572D01*
X159882010Y-81110583D01*
X159873391Y-81165000D01*
X160716988Y-81165000D01*
X160684075Y-81222007D01*
X160650000Y-81349174D01*
X160650000Y-81480826D01*
X160684075Y-81607993D01*
X160716988Y-81665000D01*
X159873391Y-81665000D01*
X159882010Y-81719416D01*
X159882012Y-81719427D01*
X159945240Y-81914021D01*
X160038139Y-82096349D01*
X160158411Y-82261888D01*
X160158420Y-82261898D01*
X160303102Y-82406580D01*
X160303111Y-82406588D01*
X160468650Y-82526860D01*
X160650978Y-82619759D01*
X160845578Y-82682989D01*
X160900000Y-82691607D01*
X160900000Y-81848012D01*
X160957007Y-81880925D01*
X161084174Y-81915000D01*
X161215826Y-81915000D01*
X161342993Y-81880925D01*
X161400000Y-81848012D01*
X161400000Y-82691606D01*
X161454421Y-82682989D01*
X161649021Y-82619759D01*
X161831349Y-82526860D01*
X161996888Y-82406588D01*
X161996898Y-82406580D01*
X162141580Y-82261898D01*
X162141588Y-82261888D01*
X162261860Y-82096349D01*
X162354759Y-81914021D01*
X162417987Y-81719427D01*
X162417989Y-81719416D01*
X162426609Y-81665000D01*
X161583012Y-81665000D01*
X161615925Y-81607993D01*
X161650000Y-81480826D01*
X161650000Y-81349174D01*
X161615925Y-81222007D01*
X161583012Y-81165000D01*
X162426609Y-81165000D01*
X162417989Y-81110583D01*
X162417987Y-81110572D01*
X162354759Y-80915978D01*
X162261860Y-80733650D01*
X162141588Y-80568111D01*
X162141580Y-80568102D01*
X161996898Y-80423420D01*
X161996888Y-80423411D01*
X161831349Y-80303139D01*
X161650383Y-80210935D01*
X161613600Y-80167868D01*
X161618043Y-80111405D01*
X161650383Y-80079065D01*
X161831349Y-79986860D01*
X161996888Y-79866588D01*
X161996898Y-79866580D01*
X162141580Y-79721898D01*
X162141588Y-79721888D01*
X162261860Y-79556349D01*
X162354759Y-79374021D01*
X162417987Y-79179427D01*
X162417989Y-79179416D01*
X162426609Y-79125000D01*
X161583012Y-79125000D01*
X161615925Y-79067993D01*
X161650000Y-78940826D01*
X161650000Y-78809174D01*
X161615925Y-78682007D01*
X161583012Y-78625000D01*
X162426609Y-78625000D01*
X162417989Y-78570583D01*
X162417987Y-78570572D01*
X162354759Y-78375978D01*
X162261860Y-78193650D01*
X162141588Y-78028111D01*
X162141580Y-78028102D01*
X161996898Y-77883420D01*
X161996888Y-77883411D01*
X161831349Y-77763139D01*
X161649021Y-77670240D01*
X161454427Y-77607012D01*
X161454416Y-77607010D01*
X161400000Y-77598391D01*
X161400000Y-78441988D01*
X161342993Y-78409075D01*
X161215826Y-78375000D01*
X161084174Y-78375000D01*
X160957007Y-78409075D01*
X160900000Y-78441988D01*
X160900000Y-77598391D01*
X160845583Y-77607010D01*
X160845572Y-77607012D01*
X160650978Y-77670240D01*
X160468650Y-77763139D01*
X160303111Y-77883411D01*
X160158411Y-78028111D01*
X160038139Y-78193650D01*
X159945240Y-78375978D01*
X159882012Y-78570572D01*
X159882010Y-78570583D01*
X159873391Y-78625000D01*
X158780500Y-78625000D01*
X158780500Y-62657147D01*
X159074500Y-62657147D01*
X159074500Y-75607147D01*
X159074500Y-75692853D01*
X159096682Y-75775639D01*
X159096683Y-75775641D01*
X159096684Y-75775643D01*
X159139532Y-75849858D01*
X159139533Y-75849859D01*
X159139535Y-75849862D01*
X159824534Y-76534861D01*
X159824535Y-76534862D01*
X159885138Y-76595465D01*
X159959362Y-76638318D01*
X160042144Y-76660499D01*
X160042145Y-76660500D01*
X160042147Y-76660500D01*
X160127853Y-76660500D01*
X160152448Y-76660500D01*
X160204774Y-76682174D01*
X160220815Y-76706182D01*
X160263365Y-76808909D01*
X160263367Y-76808912D01*
X160263368Y-76808914D01*
X160372861Y-76972782D01*
X160512218Y-77112139D01*
X160676086Y-77221632D01*
X160858165Y-77297051D01*
X161051459Y-77335500D01*
X161051461Y-77335500D01*
X161248539Y-77335500D01*
X161248541Y-77335500D01*
X161441835Y-77297051D01*
X161623914Y-77221632D01*
X161787782Y-77112139D01*
X161927139Y-76972782D01*
X162036632Y-76808914D01*
X162112051Y-76626835D01*
X162150500Y-76433541D01*
X162150500Y-76236459D01*
X162112051Y-76043165D01*
X162036632Y-75861086D01*
X161927139Y-75697218D01*
X161787782Y-75557861D01*
X161756333Y-75536847D01*
X161623913Y-75448367D01*
X161441839Y-75372950D01*
X161441829Y-75372947D01*
X161312388Y-75347200D01*
X161248541Y-75334500D01*
X161051459Y-75334500D01*
X160996662Y-75345399D01*
X160858170Y-75372947D01*
X160858160Y-75372950D01*
X160676086Y-75448367D01*
X160512218Y-75557860D01*
X160512217Y-75557862D01*
X160372862Y-75697217D01*
X160372860Y-75697218D01*
X160263365Y-75861089D01*
X160249525Y-75894501D01*
X160209475Y-75934548D01*
X160152838Y-75934546D01*
X160128833Y-75918506D01*
X159747174Y-75536847D01*
X159725500Y-75484521D01*
X159725500Y-71156459D01*
X160149500Y-71156459D01*
X160149500Y-71353541D01*
X160156428Y-71388368D01*
X160187947Y-71546829D01*
X160187950Y-71546839D01*
X160263367Y-71728913D01*
X160367584Y-71884884D01*
X160372861Y-71892782D01*
X160512218Y-72032139D01*
X160676086Y-72141632D01*
X160858165Y-72217051D01*
X161051459Y-72255500D01*
X161051461Y-72255500D01*
X161248539Y-72255500D01*
X161248541Y-72255500D01*
X161441835Y-72217051D01*
X161623914Y-72141632D01*
X161787782Y-72032139D01*
X161927139Y-71892782D01*
X162036632Y-71728914D01*
X162112051Y-71546835D01*
X162150500Y-71353541D01*
X162150500Y-71156459D01*
X162112051Y-70963165D01*
X162036632Y-70781086D01*
X161927139Y-70617218D01*
X161787782Y-70477861D01*
X161658446Y-70391441D01*
X161623913Y-70368367D01*
X161441839Y-70292950D01*
X161441829Y-70292947D01*
X161312388Y-70267200D01*
X161248541Y-70254500D01*
X161051459Y-70254500D01*
X160998094Y-70265115D01*
X160858170Y-70292947D01*
X160858160Y-70292950D01*
X160676086Y-70368367D01*
X160512218Y-70477860D01*
X160512217Y-70477862D01*
X160372862Y-70617217D01*
X160372860Y-70617218D01*
X160263367Y-70781086D01*
X160187950Y-70963160D01*
X160187947Y-70963170D01*
X160155850Y-71124535D01*
X160149500Y-71156459D01*
X159725500Y-71156459D01*
X159725500Y-68616459D01*
X160149500Y-68616459D01*
X160149500Y-68813541D01*
X160156428Y-68848368D01*
X160187947Y-69006829D01*
X160187950Y-69006839D01*
X160263367Y-69188913D01*
X160324363Y-69280199D01*
X160372861Y-69352782D01*
X160512218Y-69492139D01*
X160676086Y-69601632D01*
X160858165Y-69677051D01*
X161051459Y-69715500D01*
X161051461Y-69715500D01*
X161248539Y-69715500D01*
X161248541Y-69715500D01*
X161441835Y-69677051D01*
X161623914Y-69601632D01*
X161787782Y-69492139D01*
X161927139Y-69352782D01*
X162036632Y-69188914D01*
X162079185Y-69086182D01*
X162119233Y-69046133D01*
X162147552Y-69040500D01*
X163607147Y-69040500D01*
X164950500Y-69040500D01*
X165002826Y-69062174D01*
X165024500Y-69114500D01*
X165024500Y-72834521D01*
X165002826Y-72886847D01*
X164441847Y-73447826D01*
X164389521Y-73469500D01*
X162147552Y-73469500D01*
X162095226Y-73447826D01*
X162079185Y-73423818D01*
X162036634Y-73321090D01*
X162036633Y-73321088D01*
X162036632Y-73321086D01*
X161927139Y-73157218D01*
X161787782Y-73017861D01*
X161630521Y-72912782D01*
X161623913Y-72908367D01*
X161441839Y-72832950D01*
X161441829Y-72832947D01*
X161312388Y-72807200D01*
X161248541Y-72794500D01*
X161051459Y-72794500D01*
X160996662Y-72805399D01*
X160858170Y-72832947D01*
X160858160Y-72832950D01*
X160676086Y-72908367D01*
X160512218Y-73017860D01*
X160512217Y-73017862D01*
X160372862Y-73157217D01*
X160372860Y-73157218D01*
X160263367Y-73321086D01*
X160187950Y-73503160D01*
X160187947Y-73503170D01*
X160155850Y-73664535D01*
X160149500Y-73696459D01*
X160149500Y-73893541D01*
X160156428Y-73928368D01*
X160187947Y-74086829D01*
X160187950Y-74086839D01*
X160263367Y-74268913D01*
X160372860Y-74432781D01*
X160512218Y-74572139D01*
X160676086Y-74681632D01*
X160853773Y-74755232D01*
X160858165Y-74757051D01*
X161051459Y-74795500D01*
X161051461Y-74795500D01*
X161248539Y-74795500D01*
X161248541Y-74795500D01*
X161441835Y-74757051D01*
X161623914Y-74681632D01*
X161787782Y-74572139D01*
X161927139Y-74432782D01*
X162036632Y-74268914D01*
X162079185Y-74166182D01*
X162119233Y-74126133D01*
X162147552Y-74120500D01*
X164597851Y-74120500D01*
X164597853Y-74120500D01*
X164680639Y-74098318D01*
X164754862Y-74055465D01*
X165549859Y-73260466D01*
X165549862Y-73260465D01*
X165610465Y-73199862D01*
X165652895Y-73126371D01*
X165652904Y-73126376D01*
X165652915Y-73126335D01*
X165653318Y-73125639D01*
X165675500Y-73042853D01*
X165675500Y-72957147D01*
X165675500Y-68865478D01*
X165697173Y-68813153D01*
X174185198Y-60325128D01*
X174237521Y-60303456D01*
X174289847Y-60325130D01*
X174311521Y-60377456D01*
X174299050Y-60418568D01*
X174239903Y-60507088D01*
X174177378Y-60658039D01*
X174177375Y-60658050D01*
X174145500Y-60818301D01*
X174145500Y-60981698D01*
X174177375Y-61141949D01*
X174177378Y-61141960D01*
X174239903Y-61292911D01*
X174239905Y-61292914D01*
X174239906Y-61292916D01*
X174330685Y-61428776D01*
X174446224Y-61544315D01*
X174582084Y-61635094D01*
X174582089Y-61635096D01*
X174582088Y-61635096D01*
X174733039Y-61697621D01*
X174733044Y-61697623D01*
X174893301Y-61729500D01*
X174893302Y-61729500D01*
X175056698Y-61729500D01*
X175056699Y-61729500D01*
X175216956Y-61697623D01*
X175367916Y-61635094D01*
X175503776Y-61544315D01*
X175619315Y-61428776D01*
X175710094Y-61292916D01*
X175772623Y-61141956D01*
X175804500Y-60981699D01*
X175804500Y-60818301D01*
X175772623Y-60658044D01*
X175772621Y-60658039D01*
X175710096Y-60507088D01*
X175710095Y-60507086D01*
X175710094Y-60507084D01*
X175619315Y-60371224D01*
X175503776Y-60255685D01*
X175367916Y-60164906D01*
X175367912Y-60164904D01*
X175367910Y-60164903D01*
X175367911Y-60164903D01*
X175216960Y-60102378D01*
X175216949Y-60102375D01*
X175087366Y-60076600D01*
X175056699Y-60070500D01*
X174893301Y-60070500D01*
X174862634Y-60076600D01*
X174733050Y-60102375D01*
X174733039Y-60102378D01*
X174582088Y-60164903D01*
X174493568Y-60224050D01*
X174438019Y-60235099D01*
X174390927Y-60203633D01*
X174379878Y-60148084D01*
X174400127Y-60110199D01*
X175985465Y-58524862D01*
X176028318Y-58450639D01*
X176050500Y-58367853D01*
X176050500Y-58282147D01*
X176050500Y-56756023D01*
X176072174Y-56703697D01*
X176124500Y-56682023D01*
X176176826Y-56703697D01*
X176183740Y-56711676D01*
X176217811Y-56757188D01*
X176332911Y-56843353D01*
X176332912Y-56843354D01*
X176467619Y-56893596D01*
X176467624Y-56893597D01*
X176527171Y-56900000D01*
X176575000Y-56900000D01*
X176875000Y-56900000D01*
X176922827Y-56900000D01*
X176967087Y-56895240D01*
X176982913Y-56895240D01*
X177027173Y-56900000D01*
X177075000Y-56900000D01*
X177375000Y-56900000D01*
X177422827Y-56900000D01*
X177467087Y-56895240D01*
X177482913Y-56895240D01*
X177527173Y-56900000D01*
X177575000Y-56900000D01*
X177875000Y-56900000D01*
X177922827Y-56900000D01*
X177967087Y-56895240D01*
X177982913Y-56895240D01*
X178027173Y-56900000D01*
X178075000Y-56900000D01*
X178375000Y-56900000D01*
X178422829Y-56900000D01*
X178482375Y-56893597D01*
X178482380Y-56893596D01*
X178617087Y-56843354D01*
X178617088Y-56843353D01*
X178732188Y-56757188D01*
X178818353Y-56642088D01*
X178818354Y-56642087D01*
X178868596Y-56507380D01*
X178868597Y-56507375D01*
X178875000Y-56447828D01*
X178875000Y-55775000D01*
X178375000Y-55775000D01*
X178375000Y-56900000D01*
X178075000Y-56900000D01*
X178075000Y-55775000D01*
X177875000Y-55775000D01*
X177875000Y-56900000D01*
X177575000Y-56900000D01*
X177575000Y-55775000D01*
X177375000Y-55775000D01*
X177375000Y-56900000D01*
X177075000Y-56900000D01*
X177075000Y-55775000D01*
X176875000Y-55775000D01*
X176875000Y-56900000D01*
X176575000Y-56900000D01*
X176575000Y-56428459D01*
X176575357Y-56421203D01*
X176575500Y-56419751D01*
X176575500Y-55475000D01*
X176875000Y-55475000D01*
X177075000Y-55475000D01*
X177375000Y-55475000D01*
X177575000Y-55475000D01*
X177875000Y-55475000D01*
X178075000Y-55475000D01*
X178375000Y-55475000D01*
X178875000Y-55475000D01*
X178875000Y-54802171D01*
X178868597Y-54742624D01*
X178868596Y-54742619D01*
X178818354Y-54607912D01*
X178818353Y-54607911D01*
X178732188Y-54492811D01*
X178617088Y-54406646D01*
X178617087Y-54406645D01*
X178482380Y-54356403D01*
X178482375Y-54356402D01*
X178422829Y-54350000D01*
X178375000Y-54350000D01*
X178375000Y-55475000D01*
X178075000Y-55475000D01*
X178075000Y-54350000D01*
X178027170Y-54350000D01*
X177982910Y-54354758D01*
X177967090Y-54354758D01*
X177922830Y-54350000D01*
X177875000Y-54350000D01*
X177875000Y-55475000D01*
X177575000Y-55475000D01*
X177575000Y-54350000D01*
X177527170Y-54350000D01*
X177482910Y-54354758D01*
X177467090Y-54354758D01*
X177422830Y-54350000D01*
X177375000Y-54350000D01*
X177375000Y-55475000D01*
X177075000Y-55475000D01*
X177075000Y-54350000D01*
X177027170Y-54350000D01*
X176982910Y-54354758D01*
X176967090Y-54354758D01*
X176922830Y-54350000D01*
X176875000Y-54350000D01*
X176875000Y-55475000D01*
X176575500Y-55475000D01*
X176575500Y-54830246D01*
X176575356Y-54828783D01*
X176575000Y-54821536D01*
X176575000Y-54350000D01*
X176527171Y-54350000D01*
X176467624Y-54356402D01*
X176467619Y-54356403D01*
X176332912Y-54406645D01*
X176332911Y-54406646D01*
X176217810Y-54492811D01*
X176183739Y-54538324D01*
X176135030Y-54567223D01*
X176080152Y-54553215D01*
X176051253Y-54504506D01*
X176050500Y-54493976D01*
X176050500Y-50265478D01*
X176072174Y-50213152D01*
X178413152Y-47872174D01*
X178465478Y-47850500D01*
X178484311Y-47850500D01*
X178484311Y-47850499D01*
X178598886Y-47819799D01*
X178701613Y-47760489D01*
X178785489Y-47676613D01*
X178844799Y-47573886D01*
X178875499Y-47459311D01*
X178875500Y-47459311D01*
X178875500Y-47340689D01*
X178875499Y-47340688D01*
X178844800Y-47226117D01*
X178844798Y-47226112D01*
X178785491Y-47123390D01*
X178785490Y-47123389D01*
X178785489Y-47123387D01*
X178701613Y-47039511D01*
X178701610Y-47039509D01*
X178701609Y-47039508D01*
X178598887Y-46980201D01*
X178598882Y-46980199D01*
X178484311Y-46949500D01*
X178484309Y-46949500D01*
X178365691Y-46949500D01*
X178365689Y-46949500D01*
X178251117Y-46980199D01*
X178251112Y-46980201D01*
X178148390Y-47039508D01*
X178064508Y-47123390D01*
X178005201Y-47226112D01*
X178005199Y-47226117D01*
X177974500Y-47340688D01*
X177974500Y-47359521D01*
X177952826Y-47411847D01*
X175464532Y-49900141D01*
X175421682Y-49974361D01*
X175418028Y-49987999D01*
X175418028Y-49988000D01*
X175399500Y-50057144D01*
X175399500Y-54729316D01*
X175394424Y-54756251D01*
X175391496Y-54763741D01*
X175386133Y-54771769D01*
X175383824Y-54783374D01*
X175381444Y-54789466D01*
X175366008Y-54805536D01*
X175353627Y-54824063D01*
X175346935Y-54825393D01*
X175342211Y-54830313D01*
X175319941Y-54830762D01*
X175298084Y-54835109D01*
X175249237Y-54825393D01*
X175244748Y-54824500D01*
X174005252Y-54824500D01*
X173983720Y-54828783D01*
X173946767Y-54836133D01*
X173880449Y-54880447D01*
X173880447Y-54880449D01*
X173836133Y-54946767D01*
X173836133Y-54946769D01*
X173824500Y-55005252D01*
X173824500Y-57794748D01*
X173830418Y-57824500D01*
X173836133Y-57853232D01*
X173850515Y-57874755D01*
X173880448Y-57919552D01*
X173924560Y-57949027D01*
X173946767Y-57963866D01*
X173946768Y-57963866D01*
X173946769Y-57963867D01*
X174005252Y-57975500D01*
X174005254Y-57975500D01*
X175244746Y-57975500D01*
X175244748Y-57975500D01*
X175303231Y-57963867D01*
X175303231Y-57963866D01*
X175310379Y-57962445D01*
X175311162Y-57966384D01*
X175311872Y-57966383D01*
X175325500Y-57960739D01*
X175339071Y-57966360D01*
X175353761Y-57966348D01*
X175364198Y-57976768D01*
X175377826Y-57982413D01*
X175383447Y-57995985D01*
X175393843Y-58006363D01*
X175399500Y-58034739D01*
X175399500Y-58159521D01*
X175377826Y-58211847D01*
X165221847Y-68367826D01*
X165169521Y-68389500D01*
X162147552Y-68389500D01*
X162095226Y-68367826D01*
X162079185Y-68343818D01*
X162036634Y-68241090D01*
X162036633Y-68241088D01*
X162036632Y-68241086D01*
X161927139Y-68077218D01*
X161787782Y-67937861D01*
X161770202Y-67926114D01*
X161623913Y-67828367D01*
X161441839Y-67752950D01*
X161441829Y-67752947D01*
X161312388Y-67727200D01*
X161248541Y-67714500D01*
X161051459Y-67714500D01*
X160996662Y-67725399D01*
X160858170Y-67752947D01*
X160858160Y-67752950D01*
X160676086Y-67828367D01*
X160512218Y-67937860D01*
X160512217Y-67937862D01*
X160372862Y-68077217D01*
X160372860Y-68077218D01*
X160263367Y-68241086D01*
X160187950Y-68423160D01*
X160187947Y-68423170D01*
X160162620Y-68550499D01*
X160149500Y-68616459D01*
X159725500Y-68616459D01*
X159725500Y-65355253D01*
X160149500Y-65355253D01*
X160149500Y-66994746D01*
X160161133Y-67053232D01*
X160190017Y-67096459D01*
X160205448Y-67119552D01*
X160249560Y-67149027D01*
X160271767Y-67163866D01*
X160271768Y-67163866D01*
X160271769Y-67163867D01*
X160330252Y-67175500D01*
X160330254Y-67175500D01*
X161969746Y-67175500D01*
X161969748Y-67175500D01*
X162028231Y-67163867D01*
X162094552Y-67119552D01*
X162138867Y-67053231D01*
X162150500Y-66994748D01*
X162150500Y-65355252D01*
X162138867Y-65296769D01*
X162094552Y-65230448D01*
X162072343Y-65215608D01*
X162028232Y-65186133D01*
X162028233Y-65186133D01*
X161998989Y-65180316D01*
X161969748Y-65174500D01*
X160330252Y-65174500D01*
X160301010Y-65180316D01*
X160271767Y-65186133D01*
X160205449Y-65230447D01*
X160205447Y-65230449D01*
X160161133Y-65296767D01*
X160149500Y-65355253D01*
X159725500Y-65355253D01*
X159725500Y-62865478D01*
X159747173Y-62813153D01*
X172049215Y-50511112D01*
X172092068Y-50436889D01*
X172114250Y-50354103D01*
X172114250Y-50268397D01*
X172114250Y-49143492D01*
X172135924Y-49091166D01*
X172155749Y-49077011D01*
X172214429Y-49048324D01*
X172298324Y-48964429D01*
X172350433Y-48857840D01*
X172360500Y-48788742D01*
X172360500Y-48411258D01*
X172350433Y-48342160D01*
X172298324Y-48235571D01*
X172214429Y-48151676D01*
X172214428Y-48151675D01*
X172214429Y-48151675D01*
X172155749Y-48122988D01*
X172118259Y-48080534D01*
X172114250Y-48056507D01*
X172114250Y-46464500D01*
X172135924Y-46412174D01*
X172188250Y-46390500D01*
X172527996Y-46390500D01*
X172527998Y-46390500D01*
X172586481Y-46378867D01*
X172652802Y-46334552D01*
X172697117Y-46268231D01*
X172708750Y-46209748D01*
X172708750Y-45821149D01*
X176440000Y-45821149D01*
X176442922Y-45858281D01*
X176489093Y-46017200D01*
X176573335Y-46159645D01*
X176690354Y-46276664D01*
X176832799Y-46360906D01*
X176991724Y-46407078D01*
X176999999Y-46407729D01*
X177000000Y-46407729D01*
X177500000Y-46407729D01*
X177508274Y-46407078D01*
X177508276Y-46407078D01*
X177667200Y-46360906D01*
X177809645Y-46276664D01*
X177926664Y-46159645D01*
X178010906Y-46017200D01*
X178057077Y-45858281D01*
X178060000Y-45821149D01*
X178060000Y-45792500D01*
X177500000Y-45792500D01*
X177500000Y-46407729D01*
X177000000Y-46407729D01*
X177000000Y-45792500D01*
X176440000Y-45792500D01*
X176440000Y-45821149D01*
X172708750Y-45821149D01*
X172708750Y-45724500D01*
X172730424Y-45672174D01*
X172782750Y-45650500D01*
X175378496Y-45650500D01*
X175378498Y-45650500D01*
X175436981Y-45638867D01*
X175503302Y-45594552D01*
X175547617Y-45528231D01*
X175559250Y-45469748D01*
X175559250Y-44849500D01*
X175580924Y-44797174D01*
X175633250Y-44775500D01*
X176544538Y-44775500D01*
X176596864Y-44797174D01*
X176618538Y-44849500D01*
X176596864Y-44901826D01*
X176573335Y-44925354D01*
X176489093Y-45067799D01*
X176442922Y-45226718D01*
X176440000Y-45263850D01*
X176440000Y-45292500D01*
X178060000Y-45292500D01*
X178060000Y-45263850D01*
X178057077Y-45226718D01*
X178010906Y-45067799D01*
X177952214Y-44968557D01*
X177944234Y-44912485D01*
X177978240Y-44867193D01*
X178034312Y-44859213D01*
X178068235Y-44878562D01*
X180952826Y-47763153D01*
X180974500Y-47815479D01*
X180974500Y-48200500D01*
X180952826Y-48252826D01*
X180900500Y-48274500D01*
X180657145Y-48274500D01*
X180574366Y-48296680D01*
X180574357Y-48296684D01*
X180506635Y-48335782D01*
X180506636Y-48335783D01*
X180500141Y-48339533D01*
X180500139Y-48339534D01*
X179089532Y-49750141D01*
X179046682Y-49824359D01*
X179046680Y-49824364D01*
X179028962Y-49890490D01*
X179024500Y-49907142D01*
X179024500Y-57134521D01*
X179002826Y-57186847D01*
X176214532Y-59975141D01*
X176171684Y-60049356D01*
X176171680Y-60049365D01*
X176157476Y-60102378D01*
X176149500Y-60132144D01*
X176149500Y-62125500D01*
X176127826Y-62177826D01*
X176075500Y-62199500D01*
X175805252Y-62199500D01*
X175776010Y-62205316D01*
X175746767Y-62211133D01*
X175680449Y-62255447D01*
X175680447Y-62255449D01*
X175636133Y-62321767D01*
X175636133Y-62321769D01*
X175624500Y-62380252D01*
X175624500Y-63969748D01*
X175632255Y-64008736D01*
X175636133Y-64028232D01*
X175655610Y-64057380D01*
X175680448Y-64094552D01*
X175724560Y-64124027D01*
X175746767Y-64138866D01*
X175746768Y-64138866D01*
X175746769Y-64138867D01*
X175805252Y-64150500D01*
X175805254Y-64150500D01*
X176075500Y-64150500D01*
X176127826Y-64172174D01*
X176149500Y-64224500D01*
X176149500Y-73909521D01*
X176127826Y-73961847D01*
X166481847Y-83607826D01*
X166429521Y-83629500D01*
X162147552Y-83629500D01*
X162095226Y-83607826D01*
X162079185Y-83583818D01*
X162036634Y-83481090D01*
X162036633Y-83481088D01*
X162036632Y-83481086D01*
X161927139Y-83317218D01*
X161787782Y-83177861D01*
X161623914Y-83068368D01*
X161623915Y-83068368D01*
X161623913Y-83068367D01*
X161441839Y-82992950D01*
X161441829Y-82992947D01*
X161312388Y-82967200D01*
X161248541Y-82954500D01*
X161051459Y-82954500D01*
X160996662Y-82965399D01*
X160858170Y-82992947D01*
X160858160Y-82992950D01*
X160676086Y-83068367D01*
X160512218Y-83177860D01*
X160512217Y-83177862D01*
X160372862Y-83317217D01*
X160372860Y-83317218D01*
X160263367Y-83481086D01*
X160187950Y-83663160D01*
X160187947Y-83663170D01*
X160149500Y-83856460D01*
X160149500Y-84053539D01*
X160187947Y-84246829D01*
X160187950Y-84246839D01*
X160263367Y-84428913D01*
X160263368Y-84428914D01*
X160372861Y-84592782D01*
X160512218Y-84732139D01*
X160676086Y-84841632D01*
X160858165Y-84917051D01*
X161051459Y-84955500D01*
X161051461Y-84955500D01*
X161248539Y-84955500D01*
X161248541Y-84955500D01*
X161441835Y-84917051D01*
X161623914Y-84841632D01*
X161787782Y-84732139D01*
X161927139Y-84592782D01*
X162036632Y-84428914D01*
X162079185Y-84326182D01*
X162119233Y-84286133D01*
X162147552Y-84280500D01*
X166637851Y-84280500D01*
X166637853Y-84280500D01*
X166720639Y-84258318D01*
X166794862Y-84215465D01*
X176735465Y-74274862D01*
X176778318Y-74200639D01*
X176800500Y-74117853D01*
X176800500Y-74032147D01*
X176800500Y-64505152D01*
X176822174Y-64452826D01*
X176825000Y-64450000D01*
X176825000Y-63978459D01*
X176825357Y-63971203D01*
X176825500Y-63969751D01*
X176825500Y-62380246D01*
X177124500Y-62380246D01*
X177124500Y-63969751D01*
X177124643Y-63971203D01*
X177125000Y-63978459D01*
X177125000Y-64450000D01*
X177172829Y-64450000D01*
X177232375Y-64443597D01*
X177232380Y-64443596D01*
X177367087Y-64393354D01*
X177367088Y-64393353D01*
X177482188Y-64307188D01*
X177568353Y-64192087D01*
X177570021Y-64189035D01*
X177614121Y-64153497D01*
X177623160Y-64151448D01*
X177629024Y-64150500D01*
X177644748Y-64150500D01*
X177703231Y-64138867D01*
X177703947Y-64138388D01*
X177713191Y-64136894D01*
X177732858Y-64141549D01*
X177738808Y-64141527D01*
X177739621Y-64137445D01*
X177746768Y-64138866D01*
X177746769Y-64138867D01*
X177805252Y-64150500D01*
X177805254Y-64150500D01*
X178144746Y-64150500D01*
X178144748Y-64150500D01*
X178203231Y-64138867D01*
X178269552Y-64094552D01*
X178313867Y-64028231D01*
X178319915Y-63997828D01*
X179825000Y-63997828D01*
X179831402Y-64057375D01*
X179831403Y-64057380D01*
X179881645Y-64192087D01*
X179881646Y-64192088D01*
X179967811Y-64307188D01*
X180082911Y-64393353D01*
X180082912Y-64393354D01*
X180217619Y-64443596D01*
X180217624Y-64443597D01*
X180277171Y-64450000D01*
X180325000Y-64450000D01*
X180325000Y-63325000D01*
X179825000Y-63325000D01*
X179825000Y-63997828D01*
X178319915Y-63997828D01*
X178325500Y-63969748D01*
X178325500Y-62380252D01*
X178324548Y-62375464D01*
X178322392Y-62364625D01*
X178319914Y-62352171D01*
X179825000Y-62352171D01*
X179825000Y-63025000D01*
X180325000Y-63025000D01*
X180325000Y-62380246D01*
X180624500Y-62380246D01*
X180624500Y-63969751D01*
X180624643Y-63971203D01*
X180625000Y-63978459D01*
X180625000Y-64450000D01*
X180625500Y-64450000D01*
X180677826Y-64471674D01*
X180699500Y-64524000D01*
X180699500Y-74279799D01*
X180721965Y-74334034D01*
X180741442Y-74381057D01*
X180741444Y-74381059D01*
X203248941Y-96888557D01*
X203248940Y-96888557D01*
X203278599Y-96900841D01*
X203350200Y-96930500D01*
X208391738Y-96930500D01*
X208444064Y-96952174D01*
X208460105Y-96976182D01*
X208523367Y-97128913D01*
X208523368Y-97128914D01*
X208632861Y-97292782D01*
X208772218Y-97432139D01*
X208936086Y-97541632D01*
X209118165Y-97617051D01*
X209311459Y-97655500D01*
X209311461Y-97655500D01*
X209508539Y-97655500D01*
X209508541Y-97655500D01*
X209701835Y-97617051D01*
X209883914Y-97541632D01*
X210047782Y-97432139D01*
X210187139Y-97292782D01*
X210296632Y-97128914D01*
X210372051Y-96946835D01*
X210410500Y-96753541D01*
X210410500Y-96556459D01*
X210372051Y-96363165D01*
X210296632Y-96181086D01*
X210187139Y-96017218D01*
X210047782Y-95877861D01*
X209883914Y-95768368D01*
X209883915Y-95768368D01*
X209883913Y-95768367D01*
X209701839Y-95692950D01*
X209701829Y-95692947D01*
X209572388Y-95667200D01*
X209508541Y-95654500D01*
X209311459Y-95654500D01*
X209256662Y-95665399D01*
X209118170Y-95692947D01*
X209118160Y-95692950D01*
X208936086Y-95768367D01*
X208772218Y-95877860D01*
X208772217Y-95877862D01*
X208632862Y-96017217D01*
X208632860Y-96017218D01*
X208523367Y-96181086D01*
X208460105Y-96333818D01*
X208420057Y-96373867D01*
X208391738Y-96379500D01*
X203549768Y-96379500D01*
X203497442Y-96357826D01*
X181272174Y-74132558D01*
X181250500Y-74080232D01*
X181250500Y-72318767D01*
X181272174Y-72266441D01*
X181324500Y-72244767D01*
X181376826Y-72266441D01*
X203458941Y-94348557D01*
X203458940Y-94348557D01*
X203488599Y-94360841D01*
X203560200Y-94390500D01*
X208391738Y-94390500D01*
X208444064Y-94412174D01*
X208460104Y-94436181D01*
X208474326Y-94470516D01*
X208523367Y-94588913D01*
X208532900Y-94603179D01*
X208632861Y-94752782D01*
X208772218Y-94892139D01*
X208936086Y-95001632D01*
X209118165Y-95077051D01*
X209311459Y-95115500D01*
X209311461Y-95115500D01*
X209508539Y-95115500D01*
X209508541Y-95115500D01*
X209701835Y-95077051D01*
X209883914Y-95001632D01*
X210047782Y-94892139D01*
X210187139Y-94752782D01*
X210296632Y-94588914D01*
X210372051Y-94406835D01*
X210410500Y-94213541D01*
X210410500Y-94016459D01*
X210372051Y-93823165D01*
X210296632Y-93641086D01*
X210187139Y-93477218D01*
X210047782Y-93337861D01*
X209883914Y-93228368D01*
X209883915Y-93228368D01*
X209883913Y-93228367D01*
X209701839Y-93152950D01*
X209701829Y-93152947D01*
X209572388Y-93127200D01*
X209508541Y-93114500D01*
X209311459Y-93114500D01*
X209256662Y-93125399D01*
X209118170Y-93152947D01*
X209118160Y-93152950D01*
X208936086Y-93228367D01*
X208772218Y-93337860D01*
X208772217Y-93337862D01*
X208632862Y-93477217D01*
X208632860Y-93477218D01*
X208523367Y-93641086D01*
X208460105Y-93793818D01*
X208420057Y-93833867D01*
X208391738Y-93839500D01*
X203759768Y-93839500D01*
X203707442Y-93817826D01*
X181772174Y-71882558D01*
X181750500Y-71830232D01*
X181750500Y-64524000D01*
X181772174Y-64471674D01*
X181824500Y-64450000D01*
X181825000Y-64450000D01*
X181825000Y-63978459D01*
X181825357Y-63971203D01*
X181825500Y-63969751D01*
X181825500Y-62380246D01*
X182124500Y-62380246D01*
X182124500Y-63969751D01*
X182124643Y-63971203D01*
X182125000Y-63978459D01*
X182125000Y-64450000D01*
X182172829Y-64450000D01*
X182232375Y-64443597D01*
X182232380Y-64443596D01*
X182367087Y-64393354D01*
X182367088Y-64393353D01*
X182482188Y-64307188D01*
X182568353Y-64192087D01*
X182570021Y-64189035D01*
X182614121Y-64153497D01*
X182623160Y-64151448D01*
X182629024Y-64150500D01*
X182644748Y-64150500D01*
X182703231Y-64138867D01*
X182703947Y-64138388D01*
X182713191Y-64136894D01*
X182732858Y-64141549D01*
X182738808Y-64141527D01*
X182739621Y-64137445D01*
X182746768Y-64138866D01*
X182746769Y-64138867D01*
X182805252Y-64150500D01*
X182805254Y-64150500D01*
X182815031Y-64150500D01*
X182867357Y-64172174D01*
X182879979Y-64189035D01*
X182881646Y-64192087D01*
X182967811Y-64307188D01*
X183082911Y-64393353D01*
X183082912Y-64393354D01*
X183217619Y-64443596D01*
X183217624Y-64443597D01*
X183277171Y-64450000D01*
X183325000Y-64450000D01*
X183325000Y-63978459D01*
X183325357Y-63971203D01*
X183325500Y-63969751D01*
X183325500Y-62380246D01*
X183624500Y-62380246D01*
X183624500Y-63969751D01*
X183624643Y-63971203D01*
X183625000Y-63978459D01*
X183625000Y-64450000D01*
X183672829Y-64450000D01*
X183732374Y-64443597D01*
X183732476Y-64443574D01*
X183732524Y-64443581D01*
X183736978Y-64443103D01*
X183737109Y-64444324D01*
X183788385Y-64452629D01*
X183821515Y-64498565D01*
X183823500Y-64515589D01*
X183823500Y-72053800D01*
X183850483Y-72118941D01*
X183865442Y-72155057D01*
X183865443Y-72155058D01*
X203518942Y-91808558D01*
X203620200Y-91850500D01*
X208391738Y-91850500D01*
X208444064Y-91872174D01*
X208460105Y-91896182D01*
X208523367Y-92048913D01*
X208523368Y-92048914D01*
X208632861Y-92212782D01*
X208772218Y-92352139D01*
X208936086Y-92461632D01*
X209118165Y-92537051D01*
X209311459Y-92575500D01*
X209311461Y-92575500D01*
X209508539Y-92575500D01*
X209508541Y-92575500D01*
X209701835Y-92537051D01*
X209883914Y-92461632D01*
X210047782Y-92352139D01*
X210187139Y-92212782D01*
X210296632Y-92048914D01*
X210372051Y-91866835D01*
X210410500Y-91673541D01*
X210410500Y-91476459D01*
X210372051Y-91283165D01*
X210296632Y-91101086D01*
X210187139Y-90937218D01*
X210047782Y-90797861D01*
X209883914Y-90688368D01*
X209883915Y-90688368D01*
X209883913Y-90688367D01*
X209701839Y-90612950D01*
X209701829Y-90612947D01*
X209572388Y-90587200D01*
X209508541Y-90574500D01*
X209311459Y-90574500D01*
X209256662Y-90585399D01*
X209118170Y-90612947D01*
X209118160Y-90612950D01*
X208936086Y-90688367D01*
X208772218Y-90797860D01*
X208772217Y-90797862D01*
X208632862Y-90937217D01*
X208632860Y-90937218D01*
X208523367Y-91101086D01*
X208460105Y-91253818D01*
X208420057Y-91293867D01*
X208391738Y-91299500D01*
X203819768Y-91299500D01*
X203767442Y-91277826D01*
X184396174Y-71906558D01*
X184374500Y-71854232D01*
X184374500Y-70092767D01*
X184396174Y-70040441D01*
X184448500Y-70018767D01*
X184500825Y-70040440D01*
X194182272Y-79721888D01*
X203728941Y-89268557D01*
X203728940Y-89268557D01*
X203758599Y-89280841D01*
X203830200Y-89310500D01*
X208391738Y-89310500D01*
X208444064Y-89332174D01*
X208460105Y-89356182D01*
X208523367Y-89508913D01*
X208523368Y-89508914D01*
X208632861Y-89672782D01*
X208772218Y-89812139D01*
X208936086Y-89921632D01*
X209118165Y-89997051D01*
X209311459Y-90035500D01*
X209311461Y-90035500D01*
X209508539Y-90035500D01*
X209508541Y-90035500D01*
X209701835Y-89997051D01*
X209883914Y-89921632D01*
X210047782Y-89812139D01*
X210187139Y-89672782D01*
X210296632Y-89508914D01*
X210372051Y-89326835D01*
X210410500Y-89133541D01*
X210410500Y-88936459D01*
X210372051Y-88743165D01*
X210296632Y-88561086D01*
X210187139Y-88397218D01*
X210047782Y-88257861D01*
X209883914Y-88148368D01*
X209883915Y-88148368D01*
X209883913Y-88148367D01*
X209701839Y-88072950D01*
X209701829Y-88072947D01*
X209572388Y-88047200D01*
X209508541Y-88034500D01*
X209311459Y-88034500D01*
X209256662Y-88045399D01*
X209118170Y-88072947D01*
X209118160Y-88072950D01*
X208936086Y-88148367D01*
X208772218Y-88257860D01*
X208772217Y-88257862D01*
X208632862Y-88397217D01*
X208632860Y-88397218D01*
X208523367Y-88561086D01*
X208460105Y-88713818D01*
X208420057Y-88753867D01*
X208391738Y-88759500D01*
X204029768Y-88759500D01*
X203977442Y-88737826D01*
X184772174Y-69532558D01*
X184750500Y-69480232D01*
X184750500Y-64524000D01*
X184772174Y-64471674D01*
X184824500Y-64450000D01*
X184825000Y-64450000D01*
X184825000Y-63978459D01*
X184825357Y-63971203D01*
X184825500Y-63969751D01*
X184825500Y-62380246D01*
X185124500Y-62380246D01*
X185124500Y-63969751D01*
X185124643Y-63971203D01*
X185125000Y-63978459D01*
X185125000Y-64450000D01*
X185125500Y-64450000D01*
X185177826Y-64471674D01*
X185199500Y-64524000D01*
X185199500Y-67979800D01*
X185226590Y-68045200D01*
X185241443Y-68081058D01*
X203888942Y-86728557D01*
X203990200Y-86770500D01*
X204099800Y-86770500D01*
X208391738Y-86770500D01*
X208444064Y-86792174D01*
X208460105Y-86816182D01*
X208523367Y-86968913D01*
X208523368Y-86968914D01*
X208632861Y-87132782D01*
X208772218Y-87272139D01*
X208936086Y-87381632D01*
X209118165Y-87457051D01*
X209311459Y-87495500D01*
X209311461Y-87495500D01*
X209508539Y-87495500D01*
X209508541Y-87495500D01*
X209701835Y-87457051D01*
X209883914Y-87381632D01*
X210047782Y-87272139D01*
X210187139Y-87132782D01*
X210296632Y-86968914D01*
X210372051Y-86786835D01*
X210410500Y-86593541D01*
X210410500Y-86396459D01*
X210372051Y-86203165D01*
X210296632Y-86021086D01*
X210187139Y-85857218D01*
X210047782Y-85717861D01*
X209883914Y-85608368D01*
X209883915Y-85608368D01*
X209883913Y-85608367D01*
X209701839Y-85532950D01*
X209701829Y-85532947D01*
X209572388Y-85507200D01*
X209508541Y-85494500D01*
X209311459Y-85494500D01*
X209256662Y-85505399D01*
X209118170Y-85532947D01*
X209118160Y-85532950D01*
X208936086Y-85608367D01*
X208772218Y-85717860D01*
X208772217Y-85717862D01*
X208632862Y-85857217D01*
X208632860Y-85857218D01*
X208523367Y-86021086D01*
X208460105Y-86173818D01*
X208420057Y-86213867D01*
X208391738Y-86219500D01*
X204189767Y-86219500D01*
X204137441Y-86197826D01*
X185772174Y-67832559D01*
X185750500Y-67780233D01*
X185750500Y-65918767D01*
X185772174Y-65866441D01*
X185824500Y-65844767D01*
X185876825Y-65866440D01*
X191864616Y-71854232D01*
X197825348Y-77814964D01*
X197825350Y-77814965D01*
X204198941Y-84188557D01*
X204198940Y-84188557D01*
X204228599Y-84200841D01*
X204300200Y-84230500D01*
X208391738Y-84230500D01*
X208444064Y-84252174D01*
X208460104Y-84276181D01*
X208464227Y-84286133D01*
X208523367Y-84428913D01*
X208523368Y-84428914D01*
X208632861Y-84592782D01*
X208772218Y-84732139D01*
X208936086Y-84841632D01*
X209118165Y-84917051D01*
X209311459Y-84955500D01*
X209311461Y-84955500D01*
X209508539Y-84955500D01*
X209508541Y-84955500D01*
X209701835Y-84917051D01*
X209883914Y-84841632D01*
X210047782Y-84732139D01*
X210187139Y-84592782D01*
X210296632Y-84428914D01*
X210372051Y-84246835D01*
X210410500Y-84053541D01*
X210410500Y-83856459D01*
X210372051Y-83663165D01*
X210296632Y-83481086D01*
X210187139Y-83317218D01*
X210047782Y-83177861D01*
X209883914Y-83068368D01*
X209883915Y-83068368D01*
X209883913Y-83068367D01*
X209701839Y-82992950D01*
X209701829Y-82992947D01*
X209572388Y-82967200D01*
X209508541Y-82954500D01*
X209311459Y-82954500D01*
X209256662Y-82965399D01*
X209118170Y-82992947D01*
X209118160Y-82992950D01*
X208936086Y-83068367D01*
X208772218Y-83177860D01*
X208772217Y-83177862D01*
X208632862Y-83317217D01*
X208632860Y-83317218D01*
X208523367Y-83481086D01*
X208480815Y-83583818D01*
X208461894Y-83629500D01*
X208460105Y-83633818D01*
X208420057Y-83673867D01*
X208391738Y-83679500D01*
X204499768Y-83679500D01*
X204447442Y-83657826D01*
X198214965Y-77425350D01*
X198214965Y-77425349D01*
X186346174Y-65556558D01*
X186324500Y-65504232D01*
X186324500Y-64481152D01*
X186325000Y-64479944D01*
X186325000Y-63978459D01*
X186325357Y-63971203D01*
X186325500Y-63969751D01*
X186325500Y-62380246D01*
X186624500Y-62380246D01*
X186624500Y-63969751D01*
X186624643Y-63971203D01*
X186625000Y-63978459D01*
X186625000Y-64450000D01*
X186672829Y-64450000D01*
X186732375Y-64443597D01*
X186732380Y-64443596D01*
X186867087Y-64393354D01*
X186867088Y-64393353D01*
X186982188Y-64307188D01*
X187068353Y-64192087D01*
X187070021Y-64189035D01*
X187114121Y-64153497D01*
X187123160Y-64151448D01*
X187129024Y-64150500D01*
X187144748Y-64150500D01*
X187203231Y-64138867D01*
X187203947Y-64138388D01*
X187213191Y-64136894D01*
X187232858Y-64141549D01*
X187238808Y-64141527D01*
X187239621Y-64137445D01*
X187246768Y-64138866D01*
X187246769Y-64138867D01*
X187305252Y-64150500D01*
X187305254Y-64150500D01*
X187315031Y-64150500D01*
X187367357Y-64172174D01*
X187379979Y-64189035D01*
X187381646Y-64192087D01*
X187467811Y-64307188D01*
X187582911Y-64393353D01*
X187582912Y-64393354D01*
X187717619Y-64443596D01*
X187717624Y-64443597D01*
X187777171Y-64450000D01*
X187825000Y-64450000D01*
X187825000Y-63978459D01*
X187825357Y-63971203D01*
X187825500Y-63969751D01*
X187825500Y-62380246D01*
X188124500Y-62380246D01*
X188124500Y-63969751D01*
X188124643Y-63971203D01*
X188125000Y-63978459D01*
X188125000Y-64450000D01*
X188172829Y-64450000D01*
X188232375Y-64443597D01*
X188232380Y-64443596D01*
X188367087Y-64393354D01*
X188367088Y-64393353D01*
X188482188Y-64307188D01*
X188568353Y-64192087D01*
X188570021Y-64189035D01*
X188614121Y-64153497D01*
X188623160Y-64151448D01*
X188629024Y-64150500D01*
X188644748Y-64150500D01*
X188703231Y-64138867D01*
X188703947Y-64138388D01*
X188713191Y-64136894D01*
X188732858Y-64141549D01*
X188738808Y-64141527D01*
X188739621Y-64137445D01*
X188746768Y-64138866D01*
X188746769Y-64138867D01*
X188805252Y-64150500D01*
X188805254Y-64150500D01*
X188815031Y-64150500D01*
X188867357Y-64172174D01*
X188879979Y-64189035D01*
X188881646Y-64192087D01*
X188967811Y-64307188D01*
X189082911Y-64393353D01*
X189082912Y-64393354D01*
X189217619Y-64443596D01*
X189217624Y-64443597D01*
X189277171Y-64450000D01*
X189325000Y-64450000D01*
X189325000Y-63978459D01*
X189325357Y-63971203D01*
X189325500Y-63969751D01*
X189325500Y-62380246D01*
X189624500Y-62380246D01*
X189624500Y-63969751D01*
X189624643Y-63971203D01*
X189625000Y-63978459D01*
X189625000Y-64450000D01*
X189672829Y-64450000D01*
X189732375Y-64443597D01*
X189732380Y-64443596D01*
X189867087Y-64393354D01*
X189867088Y-64393353D01*
X189982188Y-64307188D01*
X190068353Y-64192087D01*
X190070021Y-64189035D01*
X190114121Y-64153497D01*
X190123160Y-64151448D01*
X190129024Y-64150500D01*
X190144748Y-64150500D01*
X190203231Y-64138867D01*
X190203947Y-64138388D01*
X190213191Y-64136894D01*
X190232858Y-64141549D01*
X190238808Y-64141527D01*
X190239621Y-64137445D01*
X190246768Y-64138866D01*
X190246769Y-64138867D01*
X190305252Y-64150500D01*
X190305254Y-64150500D01*
X190315031Y-64150500D01*
X190367357Y-64172174D01*
X190379979Y-64189035D01*
X190381646Y-64192087D01*
X190467811Y-64307188D01*
X190582911Y-64393353D01*
X190582912Y-64393354D01*
X190717619Y-64443596D01*
X190717624Y-64443597D01*
X190777171Y-64450000D01*
X190825000Y-64450000D01*
X190825000Y-63978459D01*
X190825357Y-63971203D01*
X190825500Y-63969751D01*
X190825500Y-62380246D01*
X191124500Y-62380246D01*
X191124500Y-63969751D01*
X191124643Y-63971203D01*
X191125000Y-63978459D01*
X191125000Y-64450000D01*
X191125500Y-64450000D01*
X191177826Y-64471674D01*
X191199500Y-64524000D01*
X191199500Y-65679799D01*
X191199499Y-65679799D01*
X191229158Y-65751400D01*
X191229158Y-65751401D01*
X191241441Y-65781056D01*
X191241443Y-65781059D01*
X195077826Y-69617440D01*
X195099500Y-69669766D01*
X195099500Y-69759309D01*
X195130199Y-69873880D01*
X195130201Y-69873885D01*
X195189508Y-69976607D01*
X195189509Y-69976608D01*
X195189511Y-69976611D01*
X195273387Y-70060487D01*
X195376114Y-70119797D01*
X195376115Y-70119797D01*
X195376117Y-70119798D01*
X195433402Y-70135147D01*
X195490688Y-70150497D01*
X195490689Y-70150498D01*
X195490691Y-70150498D01*
X195609311Y-70150498D01*
X195609311Y-70150497D01*
X195723886Y-70119797D01*
X195826613Y-70060487D01*
X195910489Y-69976611D01*
X195969799Y-69873884D01*
X196000499Y-69759309D01*
X196000500Y-69759309D01*
X196000500Y-69640687D01*
X196000499Y-69640686D01*
X195999366Y-69636459D01*
X195969799Y-69526112D01*
X195910489Y-69423385D01*
X195826613Y-69339509D01*
X195826610Y-69339507D01*
X195826609Y-69339506D01*
X195723887Y-69280199D01*
X195723882Y-69280197D01*
X195609311Y-69249498D01*
X195609309Y-69249498D01*
X195519766Y-69249498D01*
X195467440Y-69227824D01*
X194916442Y-68676826D01*
X194894768Y-68624500D01*
X194916442Y-68572174D01*
X194968768Y-68550500D01*
X195059311Y-68550500D01*
X195059311Y-68550499D01*
X195173886Y-68519799D01*
X195276613Y-68460489D01*
X195360489Y-68376613D01*
X195419799Y-68273886D01*
X195450499Y-68159311D01*
X195450500Y-68159311D01*
X195450500Y-68040689D01*
X195450499Y-68040688D01*
X195419800Y-67926117D01*
X195419798Y-67926112D01*
X195360491Y-67823390D01*
X195360490Y-67823389D01*
X195360489Y-67823387D01*
X195276613Y-67739511D01*
X195276610Y-67739509D01*
X195276609Y-67739508D01*
X195173887Y-67680201D01*
X195173882Y-67680199D01*
X195059311Y-67649500D01*
X195059309Y-67649500D01*
X194969767Y-67649500D01*
X194917441Y-67627826D01*
X192272174Y-64982559D01*
X192250500Y-64930233D01*
X192250500Y-64524000D01*
X192272174Y-64471674D01*
X192324500Y-64450000D01*
X192325000Y-64450000D01*
X192325000Y-63978459D01*
X192325357Y-63971203D01*
X192325500Y-63969751D01*
X192325500Y-62380246D01*
X192624500Y-62380246D01*
X192624500Y-63969751D01*
X192624643Y-63971203D01*
X192625000Y-63978459D01*
X192625000Y-64450000D01*
X192625500Y-64450000D01*
X192677826Y-64471674D01*
X192699500Y-64524000D01*
X192699500Y-64704800D01*
X192738727Y-64799501D01*
X192741442Y-64806056D01*
X192741444Y-64806059D01*
X193293941Y-65358557D01*
X193293940Y-65358557D01*
X193323599Y-65370841D01*
X193395200Y-65400500D01*
X195629798Y-65400500D01*
X195629800Y-65400500D01*
X195731058Y-65358557D01*
X195808557Y-65281058D01*
X197042440Y-64047173D01*
X197094766Y-64025500D01*
X197184311Y-64025500D01*
X197184311Y-64025499D01*
X197298886Y-63994799D01*
X197401613Y-63935489D01*
X197485489Y-63851613D01*
X197544799Y-63748886D01*
X197575499Y-63634311D01*
X197575500Y-63634311D01*
X197575500Y-63515689D01*
X197575499Y-63515688D01*
X197544800Y-63401117D01*
X197544798Y-63401112D01*
X197485491Y-63298390D01*
X197485490Y-63298389D01*
X197485489Y-63298387D01*
X197401613Y-63214511D01*
X197401610Y-63214509D01*
X197401609Y-63214508D01*
X197298887Y-63155201D01*
X197298882Y-63155199D01*
X197184311Y-63124500D01*
X197184309Y-63124500D01*
X197065691Y-63124500D01*
X197065689Y-63124500D01*
X196951117Y-63155199D01*
X196951112Y-63155201D01*
X196848390Y-63214508D01*
X196764508Y-63298390D01*
X196705201Y-63401112D01*
X196705199Y-63401117D01*
X196674500Y-63515688D01*
X196674500Y-63605232D01*
X196652826Y-63657558D01*
X195482559Y-64827826D01*
X195430233Y-64849500D01*
X193594768Y-64849500D01*
X193542442Y-64827826D01*
X193272174Y-64557558D01*
X193250500Y-64505232D01*
X193250500Y-64239232D01*
X193272174Y-64186906D01*
X193324500Y-64165232D01*
X193376826Y-64186906D01*
X193383740Y-64194885D01*
X193467811Y-64307188D01*
X193582911Y-64393353D01*
X193582912Y-64393354D01*
X193717619Y-64443596D01*
X193717624Y-64443597D01*
X193777171Y-64450000D01*
X193825000Y-64450000D01*
X194125000Y-64450000D01*
X194172829Y-64450000D01*
X194232375Y-64443597D01*
X194232380Y-64443596D01*
X194367087Y-64393354D01*
X194367088Y-64393353D01*
X194482188Y-64307188D01*
X194568353Y-64192088D01*
X194568354Y-64192087D01*
X194618596Y-64057380D01*
X194618597Y-64057375D01*
X194625000Y-63997828D01*
X194625000Y-63325000D01*
X194125000Y-63325000D01*
X194125000Y-64450000D01*
X193825000Y-64450000D01*
X193825000Y-63978459D01*
X193825357Y-63971203D01*
X193825500Y-63969751D01*
X193825500Y-63025000D01*
X194125000Y-63025000D01*
X194625000Y-63025000D01*
X194625000Y-62352171D01*
X194618597Y-62292624D01*
X194618596Y-62292619D01*
X194568354Y-62157912D01*
X194568353Y-62157911D01*
X194482188Y-62042811D01*
X194413151Y-61991129D01*
X194317764Y-61938249D01*
X194232380Y-61906403D01*
X194232375Y-61906402D01*
X194172829Y-61900000D01*
X194125000Y-61900000D01*
X194125000Y-63025000D01*
X193825500Y-63025000D01*
X193825500Y-62380246D01*
X193825356Y-62378783D01*
X193825000Y-62371536D01*
X193825000Y-61900000D01*
X193777171Y-61900000D01*
X193717624Y-61906402D01*
X193717619Y-61906403D01*
X193582912Y-61956645D01*
X193582911Y-61956646D01*
X193467811Y-62042811D01*
X193381646Y-62157912D01*
X193379979Y-62160965D01*
X193335879Y-62196503D01*
X193326839Y-62198552D01*
X193320974Y-62199500D01*
X193305252Y-62199500D01*
X193246769Y-62211133D01*
X193246054Y-62211610D01*
X193236808Y-62213105D01*
X193217136Y-62208448D01*
X193211196Y-62208448D01*
X193210379Y-62212555D01*
X193203231Y-62211133D01*
X193144748Y-62199500D01*
X193134969Y-62199500D01*
X193082643Y-62177826D01*
X193070021Y-62160965D01*
X193068353Y-62157912D01*
X192982188Y-62042811D01*
X192867088Y-61956646D01*
X192867087Y-61956645D01*
X192732380Y-61906403D01*
X192732375Y-61906402D01*
X192672829Y-61900000D01*
X192625000Y-61900000D01*
X192625000Y-62371536D01*
X192624644Y-62378783D01*
X192624500Y-62380246D01*
X192325500Y-62380246D01*
X192325356Y-62378783D01*
X192325000Y-62371536D01*
X192325000Y-61900000D01*
X192277171Y-61900000D01*
X192217624Y-61906402D01*
X192217619Y-61906403D01*
X192082912Y-61956645D01*
X192082911Y-61956646D01*
X191967811Y-62042811D01*
X191881646Y-62157912D01*
X191879979Y-62160965D01*
X191835879Y-62196503D01*
X191826839Y-62198552D01*
X191820974Y-62199500D01*
X191805252Y-62199500D01*
X191746769Y-62211133D01*
X191746054Y-62211610D01*
X191736808Y-62213105D01*
X191717136Y-62208448D01*
X191711196Y-62208448D01*
X191710379Y-62212555D01*
X191703231Y-62211133D01*
X191644748Y-62199500D01*
X191634969Y-62199500D01*
X191582643Y-62177826D01*
X191570021Y-62160965D01*
X191568353Y-62157912D01*
X191482188Y-62042811D01*
X191367088Y-61956646D01*
X191367087Y-61956645D01*
X191232380Y-61906403D01*
X191232375Y-61906402D01*
X191172829Y-61900000D01*
X191125000Y-61900000D01*
X191125000Y-62371536D01*
X191124644Y-62378783D01*
X191124500Y-62380246D01*
X190825500Y-62380246D01*
X190825356Y-62378783D01*
X190825000Y-62371536D01*
X190825000Y-61900000D01*
X190777171Y-61900000D01*
X190717624Y-61906402D01*
X190717619Y-61906403D01*
X190582912Y-61956645D01*
X190582911Y-61956646D01*
X190467811Y-62042811D01*
X190381646Y-62157912D01*
X190379979Y-62160965D01*
X190335879Y-62196503D01*
X190326839Y-62198552D01*
X190320974Y-62199500D01*
X190305252Y-62199500D01*
X190246769Y-62211133D01*
X190246054Y-62211610D01*
X190236808Y-62213105D01*
X190217136Y-62208448D01*
X190211196Y-62208448D01*
X190210379Y-62212555D01*
X190203231Y-62211133D01*
X190144748Y-62199500D01*
X190134969Y-62199500D01*
X190082643Y-62177826D01*
X190070021Y-62160965D01*
X190068353Y-62157912D01*
X189982188Y-62042811D01*
X189867088Y-61956646D01*
X189867087Y-61956645D01*
X189732380Y-61906403D01*
X189732375Y-61906402D01*
X189672829Y-61900000D01*
X189625000Y-61900000D01*
X189625000Y-62371536D01*
X189624644Y-62378783D01*
X189624500Y-62380246D01*
X189325500Y-62380246D01*
X189325356Y-62378783D01*
X189325000Y-62371536D01*
X189325000Y-61900000D01*
X189277171Y-61900000D01*
X189217624Y-61906402D01*
X189217619Y-61906403D01*
X189082912Y-61956645D01*
X189082911Y-61956646D01*
X188967811Y-62042811D01*
X188881646Y-62157912D01*
X188879979Y-62160965D01*
X188835879Y-62196503D01*
X188826839Y-62198552D01*
X188820974Y-62199500D01*
X188805252Y-62199500D01*
X188746769Y-62211133D01*
X188746054Y-62211610D01*
X188736808Y-62213105D01*
X188717136Y-62208448D01*
X188711196Y-62208448D01*
X188710379Y-62212555D01*
X188703231Y-62211133D01*
X188644748Y-62199500D01*
X188634969Y-62199500D01*
X188582643Y-62177826D01*
X188570021Y-62160965D01*
X188568353Y-62157912D01*
X188482188Y-62042811D01*
X188367088Y-61956646D01*
X188367087Y-61956645D01*
X188232380Y-61906403D01*
X188232375Y-61906402D01*
X188172829Y-61900000D01*
X188125000Y-61900000D01*
X188125000Y-62371536D01*
X188124644Y-62378783D01*
X188124500Y-62380246D01*
X187825500Y-62380246D01*
X187825356Y-62378783D01*
X187825000Y-62371536D01*
X187825000Y-61900000D01*
X187777171Y-61900000D01*
X187717624Y-61906402D01*
X187717619Y-61906403D01*
X187582912Y-61956645D01*
X187582911Y-61956646D01*
X187467811Y-62042811D01*
X187381646Y-62157912D01*
X187379979Y-62160965D01*
X187335879Y-62196503D01*
X187326839Y-62198552D01*
X187320974Y-62199500D01*
X187305252Y-62199500D01*
X187246769Y-62211133D01*
X187246054Y-62211610D01*
X187236808Y-62213105D01*
X187217136Y-62208448D01*
X187211196Y-62208448D01*
X187210379Y-62212555D01*
X187203231Y-62211133D01*
X187144748Y-62199500D01*
X187134969Y-62199500D01*
X187082643Y-62177826D01*
X187070021Y-62160965D01*
X187068353Y-62157912D01*
X186982188Y-62042811D01*
X186867088Y-61956646D01*
X186867087Y-61956645D01*
X186732380Y-61906403D01*
X186732375Y-61906402D01*
X186672829Y-61900000D01*
X186625000Y-61900000D01*
X186625000Y-62371536D01*
X186624644Y-62378783D01*
X186624500Y-62380246D01*
X186325500Y-62380246D01*
X186325356Y-62378783D01*
X186325000Y-62371536D01*
X186325000Y-61900000D01*
X186277171Y-61900000D01*
X186217624Y-61906402D01*
X186217619Y-61906403D01*
X186082912Y-61956645D01*
X186082911Y-61956646D01*
X185967811Y-62042811D01*
X185881646Y-62157912D01*
X185879979Y-62160965D01*
X185835879Y-62196503D01*
X185826839Y-62198552D01*
X185820974Y-62199500D01*
X185805252Y-62199500D01*
X185746769Y-62211133D01*
X185746054Y-62211610D01*
X185736808Y-62213105D01*
X185717136Y-62208448D01*
X185711196Y-62208448D01*
X185710379Y-62212555D01*
X185703231Y-62211133D01*
X185644748Y-62199500D01*
X185634969Y-62199500D01*
X185582643Y-62177826D01*
X185570021Y-62160965D01*
X185568353Y-62157912D01*
X185482188Y-62042811D01*
X185367088Y-61956646D01*
X185367087Y-61956645D01*
X185232380Y-61906403D01*
X185232375Y-61906402D01*
X185172829Y-61900000D01*
X185125000Y-61900000D01*
X185125000Y-62371536D01*
X185124644Y-62378783D01*
X185124500Y-62380246D01*
X184825500Y-62380246D01*
X184825356Y-62378783D01*
X184825000Y-62371536D01*
X184825000Y-61900000D01*
X184777171Y-61900000D01*
X184717624Y-61906402D01*
X184717619Y-61906403D01*
X184582912Y-61956645D01*
X184582911Y-61956646D01*
X184467811Y-62042811D01*
X184381646Y-62157912D01*
X184379979Y-62160965D01*
X184335879Y-62196503D01*
X184326839Y-62198552D01*
X184320974Y-62199500D01*
X184305252Y-62199500D01*
X184246769Y-62211133D01*
X184246054Y-62211610D01*
X184236808Y-62213105D01*
X184217136Y-62208448D01*
X184211196Y-62208448D01*
X184210379Y-62212555D01*
X184203231Y-62211133D01*
X184144748Y-62199500D01*
X184134969Y-62199500D01*
X184082643Y-62177826D01*
X184070021Y-62160965D01*
X184068353Y-62157912D01*
X183982188Y-62042811D01*
X183867088Y-61956646D01*
X183867087Y-61956645D01*
X183732380Y-61906403D01*
X183732375Y-61906402D01*
X183672829Y-61900000D01*
X183625000Y-61900000D01*
X183625000Y-62371536D01*
X183624644Y-62378783D01*
X183624500Y-62380246D01*
X183325500Y-62380246D01*
X183325356Y-62378783D01*
X183325000Y-62371536D01*
X183325000Y-61900000D01*
X183277171Y-61900000D01*
X183217624Y-61906402D01*
X183217619Y-61906403D01*
X183082912Y-61956645D01*
X183082911Y-61956646D01*
X182967811Y-62042811D01*
X182881646Y-62157912D01*
X182879979Y-62160965D01*
X182835879Y-62196503D01*
X182826839Y-62198552D01*
X182820974Y-62199500D01*
X182805252Y-62199500D01*
X182746769Y-62211133D01*
X182746054Y-62211610D01*
X182736808Y-62213105D01*
X182717136Y-62208448D01*
X182711196Y-62208448D01*
X182710379Y-62212555D01*
X182703231Y-62211133D01*
X182644748Y-62199500D01*
X182634969Y-62199500D01*
X182582643Y-62177826D01*
X182570021Y-62160965D01*
X182568353Y-62157912D01*
X182482188Y-62042811D01*
X182367088Y-61956646D01*
X182367087Y-61956645D01*
X182232380Y-61906403D01*
X182232375Y-61906402D01*
X182172829Y-61900000D01*
X182125000Y-61900000D01*
X182125000Y-62371536D01*
X182124644Y-62378783D01*
X182124500Y-62380246D01*
X181825500Y-62380246D01*
X181825356Y-62378783D01*
X181825000Y-62371536D01*
X181825000Y-61900000D01*
X181777171Y-61900000D01*
X181717624Y-61906402D01*
X181717619Y-61906403D01*
X181582912Y-61956645D01*
X181582911Y-61956646D01*
X181467811Y-62042811D01*
X181381646Y-62157912D01*
X181379979Y-62160965D01*
X181335879Y-62196503D01*
X181326839Y-62198552D01*
X181320974Y-62199500D01*
X181305252Y-62199500D01*
X181246769Y-62211133D01*
X181246054Y-62211610D01*
X181236808Y-62213105D01*
X181217136Y-62208448D01*
X181211196Y-62208448D01*
X181210379Y-62212555D01*
X181203231Y-62211133D01*
X181144748Y-62199500D01*
X181134969Y-62199500D01*
X181082643Y-62177826D01*
X181070021Y-62160965D01*
X181068353Y-62157912D01*
X180982188Y-62042811D01*
X180867088Y-61956646D01*
X180867087Y-61956645D01*
X180732380Y-61906403D01*
X180732375Y-61906402D01*
X180672829Y-61900000D01*
X180625000Y-61900000D01*
X180625000Y-62371536D01*
X180624644Y-62378783D01*
X180624500Y-62380246D01*
X180325000Y-62380246D01*
X180325000Y-61900000D01*
X180277171Y-61900000D01*
X180217624Y-61906402D01*
X180217619Y-61906403D01*
X180082912Y-61956645D01*
X180082911Y-61956646D01*
X179967811Y-62042811D01*
X179881646Y-62157911D01*
X179881645Y-62157912D01*
X179831403Y-62292619D01*
X179831402Y-62292624D01*
X179825000Y-62352171D01*
X178319914Y-62352171D01*
X178318959Y-62347373D01*
X178313867Y-62321769D01*
X178269552Y-62255448D01*
X178224999Y-62225678D01*
X178203232Y-62211133D01*
X178203233Y-62211133D01*
X178173989Y-62205316D01*
X178144748Y-62199500D01*
X177805252Y-62199500D01*
X177746769Y-62211133D01*
X177746768Y-62211133D01*
X177739621Y-62212555D01*
X177739130Y-62210089D01*
X177713192Y-62213105D01*
X177703945Y-62211610D01*
X177703231Y-62211133D01*
X177644748Y-62199500D01*
X177629026Y-62199500D01*
X177623161Y-62198552D01*
X177603733Y-62186562D01*
X177582643Y-62177826D01*
X177576686Y-62169869D01*
X177574964Y-62168806D01*
X177574535Y-62166995D01*
X177570021Y-62160965D01*
X177568353Y-62157912D01*
X177482188Y-62042811D01*
X177367088Y-61956646D01*
X177367087Y-61956645D01*
X177232380Y-61906403D01*
X177232375Y-61906402D01*
X177172829Y-61900000D01*
X177125000Y-61900000D01*
X177125000Y-62371536D01*
X177124644Y-62378783D01*
X177124500Y-62380246D01*
X176825500Y-62380246D01*
X176825356Y-62378783D01*
X176825000Y-62371536D01*
X176825000Y-61900000D01*
X176822174Y-61897174D01*
X176800500Y-61844848D01*
X176800500Y-60340478D01*
X176822173Y-60288153D01*
X179610465Y-57499862D01*
X179653318Y-57425639D01*
X179675500Y-57342853D01*
X179675500Y-57257147D01*
X179675500Y-56447828D01*
X180075000Y-56447828D01*
X180081402Y-56507375D01*
X180081403Y-56507380D01*
X180131645Y-56642087D01*
X180131646Y-56642088D01*
X180217811Y-56757188D01*
X180332911Y-56843353D01*
X180332912Y-56843354D01*
X180467619Y-56893596D01*
X180467624Y-56893597D01*
X180527171Y-56900000D01*
X180575000Y-56900000D01*
X180575000Y-55775000D01*
X180075000Y-55775000D01*
X180075000Y-56447828D01*
X179675500Y-56447828D01*
X179675500Y-54802171D01*
X180075000Y-54802171D01*
X180075000Y-55475000D01*
X180575000Y-55475000D01*
X180575000Y-54830246D01*
X180874500Y-54830246D01*
X180874500Y-56419751D01*
X180874643Y-56421203D01*
X180875000Y-56428459D01*
X180875000Y-56900000D01*
X180922829Y-56900000D01*
X180982375Y-56893597D01*
X180982380Y-56893596D01*
X181117087Y-56843354D01*
X181117088Y-56843353D01*
X181232188Y-56757188D01*
X181318353Y-56642087D01*
X181320021Y-56639035D01*
X181364121Y-56603497D01*
X181373160Y-56601448D01*
X181379024Y-56600500D01*
X181394748Y-56600500D01*
X181453231Y-56588867D01*
X181453947Y-56588388D01*
X181463191Y-56586894D01*
X181482858Y-56591549D01*
X181488808Y-56591527D01*
X181489621Y-56587445D01*
X181496768Y-56588866D01*
X181496769Y-56588867D01*
X181555252Y-56600500D01*
X181555254Y-56600500D01*
X181565031Y-56600500D01*
X181617357Y-56622174D01*
X181629979Y-56639035D01*
X181631646Y-56642087D01*
X181717811Y-56757188D01*
X181832911Y-56843353D01*
X181832912Y-56843354D01*
X181967619Y-56893596D01*
X181967624Y-56893597D01*
X182027171Y-56900000D01*
X182075000Y-56900000D01*
X182075000Y-56428459D01*
X182075357Y-56421203D01*
X182075500Y-56419751D01*
X182075500Y-54830246D01*
X182374500Y-54830246D01*
X182374500Y-56419751D01*
X182374643Y-56421203D01*
X182375000Y-56428459D01*
X182375000Y-56900000D01*
X182422829Y-56900000D01*
X182482375Y-56893597D01*
X182482380Y-56893596D01*
X182617087Y-56843354D01*
X182617088Y-56843353D01*
X182732188Y-56757188D01*
X182818353Y-56642087D01*
X182820021Y-56639035D01*
X182864121Y-56603497D01*
X182873160Y-56601448D01*
X182879024Y-56600500D01*
X182894748Y-56600500D01*
X182953231Y-56588867D01*
X182953947Y-56588388D01*
X182963191Y-56586894D01*
X182982858Y-56591549D01*
X182988808Y-56591527D01*
X182989621Y-56587445D01*
X182996768Y-56588866D01*
X182996769Y-56588867D01*
X183055252Y-56600500D01*
X183055254Y-56600500D01*
X183065031Y-56600500D01*
X183117357Y-56622174D01*
X183129979Y-56639035D01*
X183131646Y-56642087D01*
X183217811Y-56757188D01*
X183332911Y-56843353D01*
X183332912Y-56843354D01*
X183467619Y-56893596D01*
X183467624Y-56893597D01*
X183527171Y-56900000D01*
X183575000Y-56900000D01*
X183575000Y-56428459D01*
X183575357Y-56421203D01*
X183575500Y-56419751D01*
X183575500Y-54830246D01*
X183874500Y-54830246D01*
X183874500Y-56419751D01*
X183874643Y-56421203D01*
X183875000Y-56428459D01*
X183875000Y-56900000D01*
X183875500Y-56900000D01*
X183927826Y-56921674D01*
X183949500Y-56974000D01*
X183949500Y-57579799D01*
X183982123Y-57658557D01*
X183982123Y-57658558D01*
X183991441Y-57681055D01*
X183991444Y-57681059D01*
X186143941Y-59833557D01*
X186143940Y-59833557D01*
X186173599Y-59845841D01*
X186245200Y-59875500D01*
X194320801Y-59875500D01*
X194373127Y-59897174D01*
X194394801Y-59949500D01*
X194373127Y-60001826D01*
X194364297Y-60009367D01*
X194271757Y-60076600D01*
X194151600Y-60196757D01*
X194051730Y-60334216D01*
X194051727Y-60334222D01*
X193974588Y-60485614D01*
X193974586Y-60485619D01*
X193922083Y-60647205D01*
X193922080Y-60647218D01*
X193895500Y-60815041D01*
X193895500Y-60984958D01*
X193922080Y-61152781D01*
X193922083Y-61152794D01*
X193974586Y-61314380D01*
X193974588Y-61314385D01*
X194051727Y-61465777D01*
X194051730Y-61465783D01*
X194151600Y-61603242D01*
X194151604Y-61603247D01*
X194271753Y-61723396D01*
X194271756Y-61723398D01*
X194271757Y-61723399D01*
X194388642Y-61808322D01*
X194388648Y-61808325D01*
X194409219Y-61823271D01*
X194488212Y-61863520D01*
X194560613Y-61900411D01*
X194560619Y-61900413D01*
X194722205Y-61952916D01*
X194722211Y-61952917D01*
X194722216Y-61952919D01*
X194834100Y-61970639D01*
X194890041Y-61979500D01*
X194890042Y-61979500D01*
X195059959Y-61979500D01*
X195101914Y-61972854D01*
X195227784Y-61952919D01*
X195227791Y-61952916D01*
X195227794Y-61952916D01*
X195301156Y-61929078D01*
X195389384Y-61900412D01*
X195540781Y-61823271D01*
X195678247Y-61723396D01*
X195798396Y-61603247D01*
X195898271Y-61465781D01*
X195975412Y-61314384D01*
X196027865Y-61152950D01*
X196027916Y-61152794D01*
X196027916Y-61152791D01*
X196027919Y-61152784D01*
X196054500Y-60984958D01*
X196054500Y-60815042D01*
X196027919Y-60647216D01*
X196027917Y-60647211D01*
X196027916Y-60647205D01*
X195975413Y-60485619D01*
X195975411Y-60485614D01*
X195941249Y-60418568D01*
X195898271Y-60334219D01*
X195891667Y-60325130D01*
X195798399Y-60196757D01*
X195798398Y-60196756D01*
X195798396Y-60196753D01*
X195678247Y-60076604D01*
X195678244Y-60076601D01*
X195678242Y-60076600D01*
X195585703Y-60009367D01*
X195556110Y-59961076D01*
X195569332Y-59906004D01*
X195617623Y-59876411D01*
X195629199Y-59875500D01*
X196233913Y-59875500D01*
X196286239Y-59897174D01*
X199902826Y-63513761D01*
X199924500Y-63566087D01*
X199924500Y-74954800D01*
X199957753Y-75035078D01*
X199957753Y-75035082D01*
X199966441Y-75056055D01*
X199966443Y-75056058D01*
X205038942Y-80128558D01*
X205140200Y-80170500D01*
X208391738Y-80170500D01*
X208444064Y-80192174D01*
X208460105Y-80216182D01*
X208523367Y-80368913D01*
X208559788Y-80423420D01*
X208632861Y-80532782D01*
X208772218Y-80672139D01*
X208936086Y-80781632D01*
X209118165Y-80857051D01*
X209311459Y-80895500D01*
X209311461Y-80895500D01*
X209508539Y-80895500D01*
X209508541Y-80895500D01*
X209701835Y-80857051D01*
X209883914Y-80781632D01*
X210047782Y-80672139D01*
X210187139Y-80532782D01*
X210296632Y-80368914D01*
X210372051Y-80186835D01*
X210410500Y-79993541D01*
X210410500Y-79796459D01*
X210372051Y-79603165D01*
X210296632Y-79421086D01*
X210187139Y-79257218D01*
X210047782Y-79117861D01*
X209973150Y-79067993D01*
X209883913Y-79008367D01*
X209701839Y-78932950D01*
X209701829Y-78932947D01*
X209572388Y-78907200D01*
X209508541Y-78894500D01*
X209311459Y-78894500D01*
X209256662Y-78905399D01*
X209118170Y-78932947D01*
X209118160Y-78932950D01*
X208936086Y-79008367D01*
X208772218Y-79117860D01*
X208772217Y-79117862D01*
X208632862Y-79257217D01*
X208632860Y-79257218D01*
X208523367Y-79421086D01*
X208460105Y-79573818D01*
X208420057Y-79613867D01*
X208391738Y-79619500D01*
X205339768Y-79619500D01*
X205287442Y-79597826D01*
X200497174Y-74807558D01*
X200475500Y-74755232D01*
X200475500Y-73143767D01*
X200497174Y-73091441D01*
X200549500Y-73069767D01*
X200601825Y-73091440D01*
X202883331Y-75372947D01*
X205098941Y-77588557D01*
X205098940Y-77588557D01*
X205128599Y-77600841D01*
X205128601Y-77600842D01*
X205200200Y-77630500D01*
X208391738Y-77630500D01*
X208444064Y-77652174D01*
X208460105Y-77676182D01*
X208523367Y-77828913D01*
X208559788Y-77883420D01*
X208632861Y-77992782D01*
X208772218Y-78132139D01*
X208936086Y-78241632D01*
X209118165Y-78317051D01*
X209311459Y-78355500D01*
X209311461Y-78355500D01*
X209508539Y-78355500D01*
X209508541Y-78355500D01*
X209701835Y-78317051D01*
X209883914Y-78241632D01*
X210047782Y-78132139D01*
X210187139Y-77992782D01*
X210296632Y-77828914D01*
X210372051Y-77646835D01*
X210410500Y-77453541D01*
X210410500Y-77256459D01*
X210372051Y-77063165D01*
X210296632Y-76881086D01*
X210187139Y-76717218D01*
X210047782Y-76577861D01*
X209983430Y-76534862D01*
X209883913Y-76468367D01*
X209701839Y-76392950D01*
X209701829Y-76392947D01*
X209572388Y-76367200D01*
X209508541Y-76354500D01*
X209311459Y-76354500D01*
X209256662Y-76365399D01*
X209118170Y-76392947D01*
X209118160Y-76392950D01*
X208936086Y-76468367D01*
X208772218Y-76577860D01*
X208772217Y-76577862D01*
X208632862Y-76717217D01*
X208632860Y-76717218D01*
X208523367Y-76881086D01*
X208460105Y-77033818D01*
X208420057Y-77073867D01*
X208391738Y-77079500D01*
X205399768Y-77079500D01*
X205347442Y-77057826D01*
X200797174Y-72507558D01*
X200775500Y-72455232D01*
X200775500Y-70443767D01*
X200797174Y-70391441D01*
X200849500Y-70369767D01*
X200901826Y-70391441D01*
X205558941Y-75048557D01*
X205558944Y-75048559D01*
X205577049Y-75056058D01*
X205660200Y-75090500D01*
X208391738Y-75090500D01*
X208444064Y-75112174D01*
X208460105Y-75136182D01*
X208523367Y-75288913D01*
X208629912Y-75448368D01*
X208632861Y-75452782D01*
X208772218Y-75592139D01*
X208936086Y-75701632D01*
X209118165Y-75777051D01*
X209311459Y-75815500D01*
X209311461Y-75815500D01*
X209508539Y-75815500D01*
X209508541Y-75815500D01*
X209701835Y-75777051D01*
X209883914Y-75701632D01*
X210047782Y-75592139D01*
X210187139Y-75452782D01*
X210296632Y-75288914D01*
X210372051Y-75106835D01*
X210410500Y-74913541D01*
X210410500Y-74716459D01*
X210372051Y-74523165D01*
X210296632Y-74341086D01*
X210187139Y-74177218D01*
X210047782Y-74037861D01*
X210039231Y-74032147D01*
X209883913Y-73928367D01*
X209701839Y-73852950D01*
X209701829Y-73852947D01*
X209572388Y-73827200D01*
X209508541Y-73814500D01*
X209311459Y-73814500D01*
X209256662Y-73825399D01*
X209118170Y-73852947D01*
X209118160Y-73852950D01*
X208936086Y-73928367D01*
X208772218Y-74037860D01*
X208772217Y-74037862D01*
X208632862Y-74177217D01*
X208632860Y-74177218D01*
X208523367Y-74341086D01*
X208460105Y-74493818D01*
X208420057Y-74533867D01*
X208391738Y-74539500D01*
X205859768Y-74539500D01*
X205807442Y-74517826D01*
X201097174Y-69807558D01*
X201075500Y-69755232D01*
X201075500Y-68143767D01*
X201097174Y-68091441D01*
X201149500Y-68069767D01*
X201201825Y-68091440D01*
X203478751Y-70368367D01*
X205618941Y-72508557D01*
X205618940Y-72508557D01*
X205648599Y-72520841D01*
X205720200Y-72550500D01*
X208391738Y-72550500D01*
X208444064Y-72572174D01*
X208460105Y-72596182D01*
X208523367Y-72748913D01*
X208629912Y-72908368D01*
X208632861Y-72912782D01*
X208772218Y-73052139D01*
X208936086Y-73161632D01*
X209118165Y-73237051D01*
X209311459Y-73275500D01*
X209311461Y-73275500D01*
X209508539Y-73275500D01*
X209508541Y-73275500D01*
X209701835Y-73237051D01*
X209883914Y-73161632D01*
X210047782Y-73052139D01*
X210187139Y-72912782D01*
X210296632Y-72748914D01*
X210372051Y-72566835D01*
X210410500Y-72373541D01*
X210410500Y-72176459D01*
X210372051Y-71983165D01*
X210296632Y-71801086D01*
X210187139Y-71637218D01*
X210047782Y-71497861D01*
X209883914Y-71388368D01*
X209883915Y-71388368D01*
X209883913Y-71388367D01*
X209701839Y-71312950D01*
X209701829Y-71312947D01*
X209572388Y-71287200D01*
X209508541Y-71274500D01*
X209311459Y-71274500D01*
X209256662Y-71285399D01*
X209118170Y-71312947D01*
X209118160Y-71312950D01*
X208936086Y-71388367D01*
X208772218Y-71497860D01*
X208772217Y-71497862D01*
X208632862Y-71637217D01*
X208632860Y-71637218D01*
X208523367Y-71801086D01*
X208460105Y-71953818D01*
X208420057Y-71993867D01*
X208391738Y-71999500D01*
X205919768Y-71999500D01*
X205867442Y-71977826D01*
X201397174Y-67507558D01*
X201375500Y-67455232D01*
X201375500Y-65743767D01*
X201397174Y-65691441D01*
X201449500Y-65669767D01*
X201501825Y-65691440D01*
X205778942Y-69968558D01*
X205880200Y-70010500D01*
X205989800Y-70010500D01*
X208391738Y-70010500D01*
X208444064Y-70032174D01*
X208460105Y-70056182D01*
X208523367Y-70208913D01*
X208629912Y-70368368D01*
X208632861Y-70372782D01*
X208772218Y-70512139D01*
X208936086Y-70621632D01*
X209118165Y-70697051D01*
X209311459Y-70735500D01*
X209311461Y-70735500D01*
X209508539Y-70735500D01*
X209508541Y-70735500D01*
X209701835Y-70697051D01*
X209883914Y-70621632D01*
X210047782Y-70512139D01*
X210187139Y-70372782D01*
X210296632Y-70208914D01*
X210372051Y-70026835D01*
X210410500Y-69833541D01*
X210410500Y-69636459D01*
X210372051Y-69443165D01*
X210296632Y-69261086D01*
X210187139Y-69097218D01*
X210047782Y-68957861D01*
X209883914Y-68848368D01*
X209883915Y-68848368D01*
X209883913Y-68848367D01*
X209701839Y-68772950D01*
X209701829Y-68772947D01*
X209572388Y-68747200D01*
X209508541Y-68734500D01*
X209311459Y-68734500D01*
X209256662Y-68745399D01*
X209118170Y-68772947D01*
X209118160Y-68772950D01*
X208936086Y-68848367D01*
X208772218Y-68957860D01*
X208772217Y-68957862D01*
X208632862Y-69097217D01*
X208632860Y-69097218D01*
X208523367Y-69261086D01*
X208460105Y-69413818D01*
X208420057Y-69453867D01*
X208391738Y-69459500D01*
X206079768Y-69459500D01*
X206027442Y-69437826D01*
X201697174Y-65107558D01*
X201675500Y-65055232D01*
X201675500Y-63343767D01*
X201697174Y-63291441D01*
X201749500Y-63269767D01*
X201801825Y-63291440D01*
X203876825Y-65366441D01*
X205938941Y-67428557D01*
X205938940Y-67428557D01*
X205968599Y-67440841D01*
X206040200Y-67470500D01*
X208391738Y-67470500D01*
X208444064Y-67492174D01*
X208460105Y-67516182D01*
X208523367Y-67668913D01*
X208629912Y-67828368D01*
X208632861Y-67832782D01*
X208772218Y-67972139D01*
X208936086Y-68081632D01*
X209118165Y-68157051D01*
X209311459Y-68195500D01*
X209311461Y-68195500D01*
X209508539Y-68195500D01*
X209508541Y-68195500D01*
X209701835Y-68157051D01*
X209883914Y-68081632D01*
X210047782Y-67972139D01*
X210187139Y-67832782D01*
X210296632Y-67668914D01*
X210372051Y-67486835D01*
X210410500Y-67293541D01*
X210410500Y-67096459D01*
X210372051Y-66903165D01*
X210296632Y-66721086D01*
X210187139Y-66557218D01*
X210047782Y-66417861D01*
X209883914Y-66308368D01*
X209883915Y-66308368D01*
X209883913Y-66308367D01*
X209701839Y-66232950D01*
X209701829Y-66232947D01*
X209572388Y-66207200D01*
X209508541Y-66194500D01*
X209311459Y-66194500D01*
X209256662Y-66205399D01*
X209118170Y-66232947D01*
X209118160Y-66232950D01*
X208936086Y-66308367D01*
X208772218Y-66417860D01*
X208772217Y-66417862D01*
X208632862Y-66557217D01*
X208632860Y-66557218D01*
X208523367Y-66721086D01*
X208460105Y-66873818D01*
X208420057Y-66913867D01*
X208391738Y-66919500D01*
X206239768Y-66919500D01*
X206187442Y-66897826D01*
X205208383Y-65918767D01*
X203694616Y-64405000D01*
X208133391Y-64405000D01*
X208976988Y-64405000D01*
X208944075Y-64462007D01*
X208910000Y-64589174D01*
X208910000Y-64720826D01*
X208944075Y-64847993D01*
X208976988Y-64905000D01*
X208133391Y-64905000D01*
X208142010Y-64959416D01*
X208142012Y-64959427D01*
X208205240Y-65154021D01*
X208298139Y-65336349D01*
X208418411Y-65501888D01*
X208418420Y-65501898D01*
X208563102Y-65646580D01*
X208563111Y-65646588D01*
X208728650Y-65766860D01*
X208910978Y-65859759D01*
X209105578Y-65922989D01*
X209160000Y-65931607D01*
X209160000Y-65088012D01*
X209217007Y-65120925D01*
X209344174Y-65155000D01*
X209475826Y-65155000D01*
X209602993Y-65120925D01*
X209660000Y-65088012D01*
X209660000Y-65931606D01*
X209714421Y-65922989D01*
X209909021Y-65859759D01*
X210091349Y-65766860D01*
X210256888Y-65646588D01*
X210256898Y-65646580D01*
X210401580Y-65501898D01*
X210401588Y-65501888D01*
X210521860Y-65336349D01*
X210614759Y-65154021D01*
X210677987Y-64959427D01*
X210677989Y-64959416D01*
X210686609Y-64905000D01*
X209843012Y-64905000D01*
X209875925Y-64847993D01*
X209910000Y-64720826D01*
X209910000Y-64589174D01*
X209875925Y-64462007D01*
X209843012Y-64405000D01*
X210686609Y-64405000D01*
X210677989Y-64350583D01*
X210677987Y-64350572D01*
X210614759Y-64155978D01*
X210521860Y-63973650D01*
X210401588Y-63808111D01*
X210401580Y-63808102D01*
X210256898Y-63663420D01*
X210256888Y-63663411D01*
X210091349Y-63543139D01*
X209909021Y-63450240D01*
X209714427Y-63387012D01*
X209714416Y-63387010D01*
X209660000Y-63378391D01*
X209660000Y-64221988D01*
X209602993Y-64189075D01*
X209475826Y-64155000D01*
X209344174Y-64155000D01*
X209217007Y-64189075D01*
X209160000Y-64221988D01*
X209160000Y-63378391D01*
X209105583Y-63387010D01*
X209105572Y-63387012D01*
X208910978Y-63450240D01*
X208728650Y-63543139D01*
X208563111Y-63663411D01*
X208418411Y-63808111D01*
X208298139Y-63973650D01*
X208205240Y-64155978D01*
X208142012Y-64350572D01*
X208142010Y-64350583D01*
X208133391Y-64405000D01*
X203694616Y-64405000D01*
X197156058Y-57866443D01*
X197054800Y-57824500D01*
X197054799Y-57824500D01*
X196199500Y-57824500D01*
X196147174Y-57802826D01*
X196125500Y-57750500D01*
X196125500Y-56395253D01*
X198699500Y-56395253D01*
X198699500Y-57774746D01*
X198711133Y-57833232D01*
X198738879Y-57874755D01*
X198755448Y-57899552D01*
X198785377Y-57919550D01*
X198821767Y-57943866D01*
X198821768Y-57943866D01*
X198821769Y-57943867D01*
X198880252Y-57955500D01*
X198900500Y-57955500D01*
X198952826Y-57977174D01*
X198974500Y-58029500D01*
X198974500Y-58057746D01*
X198952826Y-58110072D01*
X198889508Y-58173390D01*
X198830201Y-58276112D01*
X198830199Y-58276117D01*
X198799500Y-58390688D01*
X198799500Y-58509311D01*
X198830199Y-58623882D01*
X198830201Y-58623887D01*
X198889508Y-58726609D01*
X198889509Y-58726610D01*
X198889511Y-58726613D01*
X198973387Y-58810489D01*
X199076114Y-58869799D01*
X199076115Y-58869799D01*
X199076117Y-58869800D01*
X199133402Y-58885149D01*
X199190688Y-58900499D01*
X199190689Y-58900500D01*
X199190691Y-58900500D01*
X199309311Y-58900500D01*
X199309311Y-58900499D01*
X199423886Y-58869799D01*
X199526613Y-58810489D01*
X199610489Y-58726613D01*
X199669799Y-58623886D01*
X199700499Y-58509311D01*
X199700500Y-58509311D01*
X199700500Y-58390689D01*
X199700499Y-58390688D01*
X199694380Y-58367853D01*
X199669799Y-58276114D01*
X199632694Y-58211847D01*
X199610491Y-58173390D01*
X199610490Y-58173389D01*
X199610489Y-58173387D01*
X199547174Y-58110072D01*
X199525500Y-58057746D01*
X199525500Y-58029500D01*
X199547174Y-57977174D01*
X199599500Y-57955500D01*
X199619746Y-57955500D01*
X199619748Y-57955500D01*
X199678231Y-57943867D01*
X199744552Y-57899552D01*
X199744556Y-57899545D01*
X199747674Y-57896429D01*
X199800000Y-57874755D01*
X199852326Y-57896429D01*
X199855445Y-57899548D01*
X199855448Y-57899552D01*
X199885377Y-57919550D01*
X199921767Y-57943866D01*
X199921768Y-57943866D01*
X199921769Y-57943867D01*
X199980252Y-57955500D01*
X199980254Y-57955500D01*
X200719746Y-57955500D01*
X200719748Y-57955500D01*
X200778231Y-57943867D01*
X200844552Y-57899552D01*
X200888867Y-57833231D01*
X200900500Y-57774748D01*
X200900500Y-57484500D01*
X200922174Y-57432174D01*
X200974500Y-57410500D01*
X202175500Y-57410500D01*
X202227826Y-57432174D01*
X202249500Y-57484500D01*
X202249500Y-60482147D01*
X202249500Y-60567853D01*
X202271682Y-60650639D01*
X202271683Y-60650641D01*
X202271684Y-60650643D01*
X202314532Y-60724858D01*
X202314533Y-60724859D01*
X202314535Y-60724862D01*
X203133989Y-61544315D01*
X203901946Y-62312272D01*
X203901951Y-62312278D01*
X203904535Y-62314862D01*
X203965138Y-62375465D01*
X204019473Y-62406835D01*
X204039362Y-62418318D01*
X204039363Y-62418318D01*
X204039365Y-62418319D01*
X204080755Y-62429409D01*
X204122145Y-62440500D01*
X204122146Y-62440501D01*
X204122148Y-62440501D01*
X204212383Y-62440501D01*
X204212399Y-62440500D01*
X208412448Y-62440500D01*
X208464774Y-62462174D01*
X208480815Y-62486182D01*
X208523365Y-62588909D01*
X208523367Y-62588912D01*
X208523368Y-62588914D01*
X208632861Y-62752782D01*
X208772218Y-62892139D01*
X208936086Y-63001632D01*
X209118165Y-63077051D01*
X209311459Y-63115500D01*
X209311461Y-63115500D01*
X209508539Y-63115500D01*
X209508541Y-63115500D01*
X209701835Y-63077051D01*
X209883914Y-63001632D01*
X210047782Y-62892139D01*
X210187139Y-62752782D01*
X210296632Y-62588914D01*
X210372051Y-62406835D01*
X210410500Y-62213541D01*
X210410500Y-62016459D01*
X210372051Y-61823165D01*
X210296632Y-61641086D01*
X210187139Y-61477218D01*
X210047782Y-61337861D01*
X210012647Y-61314384D01*
X209883913Y-61228367D01*
X209701839Y-61152950D01*
X209701829Y-61152947D01*
X209572388Y-61127200D01*
X209508541Y-61114500D01*
X209311459Y-61114500D01*
X209256662Y-61125399D01*
X209118170Y-61152947D01*
X209118160Y-61152950D01*
X208936086Y-61228367D01*
X208772218Y-61337860D01*
X208772217Y-61337862D01*
X208632862Y-61477217D01*
X208632860Y-61477218D01*
X208523365Y-61641090D01*
X208480815Y-61743818D01*
X208440767Y-61783867D01*
X208412448Y-61789500D01*
X204330478Y-61789500D01*
X204278152Y-61767826D01*
X202922174Y-60411847D01*
X202900500Y-60359521D01*
X202900500Y-57467253D01*
X202922173Y-57414928D01*
X202935489Y-57401613D01*
X202994799Y-57298886D01*
X203025499Y-57184311D01*
X203025500Y-57184311D01*
X203025500Y-57065689D01*
X203025499Y-57065688D01*
X202994800Y-56951117D01*
X202994798Y-56951112D01*
X202961591Y-56893596D01*
X202935489Y-56848387D01*
X202930453Y-56843351D01*
X202922173Y-56835070D01*
X202900500Y-56782746D01*
X202900500Y-56288548D01*
X202922174Y-56236222D01*
X202934713Y-56227269D01*
X202934440Y-56226886D01*
X202939425Y-56223325D01*
X202939429Y-56223324D01*
X203023324Y-56139429D01*
X203075433Y-56032840D01*
X203085500Y-55963742D01*
X203085500Y-55471258D01*
X203075815Y-55404787D01*
X203089718Y-55349886D01*
X203111376Y-55330424D01*
X203134646Y-55316663D01*
X203251664Y-55199645D01*
X203335906Y-55057200D01*
X203382077Y-54898281D01*
X203385000Y-54861149D01*
X203385000Y-54832500D01*
X201765000Y-54832500D01*
X201765000Y-54861149D01*
X201767922Y-54898281D01*
X201814093Y-55057200D01*
X201898335Y-55199645D01*
X202015354Y-55316664D01*
X202038626Y-55330427D01*
X202072632Y-55375719D01*
X202074184Y-55404791D01*
X202064500Y-55471252D01*
X202064500Y-55963747D01*
X202074567Y-56032841D01*
X202126675Y-56139428D01*
X202210571Y-56223324D01*
X202215560Y-56226886D01*
X202214082Y-56228955D01*
X202245488Y-56264514D01*
X202249500Y-56288548D01*
X202249500Y-56685500D01*
X202227826Y-56737826D01*
X202175500Y-56759500D01*
X200974500Y-56759500D01*
X200922174Y-56737826D01*
X200900500Y-56685500D01*
X200900500Y-56395253D01*
X200900000Y-56392738D01*
X200888867Y-56336769D01*
X200844552Y-56270448D01*
X200822343Y-56255608D01*
X200778232Y-56226133D01*
X200778233Y-56226133D01*
X200748989Y-56220316D01*
X200719748Y-56214500D01*
X199980252Y-56214500D01*
X199951010Y-56220316D01*
X199921767Y-56226133D01*
X199855449Y-56270447D01*
X199852326Y-56273571D01*
X199800000Y-56295245D01*
X199747674Y-56273571D01*
X199744554Y-56270451D01*
X199744552Y-56270448D01*
X199722343Y-56255608D01*
X199678232Y-56226133D01*
X199678233Y-56226133D01*
X199648989Y-56220316D01*
X199619748Y-56214500D01*
X198880252Y-56214500D01*
X198851010Y-56220316D01*
X198821767Y-56226133D01*
X198755449Y-56270447D01*
X198755447Y-56270449D01*
X198711133Y-56336767D01*
X198699500Y-56395253D01*
X196125500Y-56395253D01*
X196125500Y-55332828D01*
X198400000Y-55332828D01*
X198406402Y-55392375D01*
X198406403Y-55392380D01*
X198456645Y-55527087D01*
X198456646Y-55527088D01*
X198542811Y-55642188D01*
X198657911Y-55728353D01*
X198657912Y-55728354D01*
X198792619Y-55778596D01*
X198792624Y-55778597D01*
X198852171Y-55785000D01*
X199000000Y-55785000D01*
X199500000Y-55785000D01*
X199647829Y-55785000D01*
X199707375Y-55778597D01*
X199707380Y-55778596D01*
X199842087Y-55728354D01*
X199842088Y-55728353D01*
X199957188Y-55642188D01*
X200043353Y-55527087D01*
X200045021Y-55524035D01*
X200089121Y-55488497D01*
X200109969Y-55485500D01*
X200719746Y-55485500D01*
X200719748Y-55485500D01*
X200778231Y-55473867D01*
X200844552Y-55429552D01*
X200888867Y-55363231D01*
X200900500Y-55304748D01*
X200900500Y-54303850D01*
X201765000Y-54303850D01*
X201765000Y-54332500D01*
X202325000Y-54332500D01*
X202825000Y-54332500D01*
X203385000Y-54332500D01*
X203385000Y-54303850D01*
X203382077Y-54266718D01*
X203335906Y-54107799D01*
X203251664Y-53965354D01*
X203134645Y-53848335D01*
X202992200Y-53764093D01*
X202833277Y-53717922D01*
X202825000Y-53717270D01*
X202825000Y-54332500D01*
X202325000Y-54332500D01*
X202325000Y-53717270D01*
X202316723Y-53717922D01*
X202316721Y-53717922D01*
X202157799Y-53764093D01*
X202015354Y-53848335D01*
X201898335Y-53965354D01*
X201814093Y-54107799D01*
X201767922Y-54266718D01*
X201765000Y-54303850D01*
X200900500Y-54303850D01*
X200900500Y-53925252D01*
X200888867Y-53866769D01*
X200844552Y-53800448D01*
X200804053Y-53773387D01*
X200778232Y-53756133D01*
X200778233Y-53756133D01*
X200748751Y-53750269D01*
X200719748Y-53744500D01*
X200109969Y-53744500D01*
X200057643Y-53722826D01*
X200045021Y-53705965D01*
X200043353Y-53702912D01*
X199957188Y-53587811D01*
X199842088Y-53501646D01*
X199842087Y-53501645D01*
X199707380Y-53451403D01*
X199707375Y-53451402D01*
X199647829Y-53445000D01*
X199500000Y-53445000D01*
X199500000Y-55785000D01*
X199000000Y-55785000D01*
X199000000Y-54865000D01*
X198400000Y-54865000D01*
X198400000Y-55332828D01*
X196125500Y-55332828D01*
X196125500Y-55005253D01*
X196125500Y-55005252D01*
X196113867Y-54946769D01*
X196069552Y-54880448D01*
X196046433Y-54865000D01*
X196003232Y-54836133D01*
X196003233Y-54836133D01*
X195966280Y-54828783D01*
X195944748Y-54824500D01*
X194943871Y-54824500D01*
X194891545Y-54802826D01*
X194870295Y-54758410D01*
X194868597Y-54742624D01*
X194868596Y-54742619D01*
X194818354Y-54607912D01*
X194818353Y-54607911D01*
X194732188Y-54492811D01*
X194617088Y-54406646D01*
X194617087Y-54406645D01*
X194482380Y-54356403D01*
X194482375Y-54356402D01*
X194422829Y-54350000D01*
X194375000Y-54350000D01*
X194375000Y-56900000D01*
X194422827Y-56900000D01*
X194442588Y-56897875D01*
X194496931Y-56913830D01*
X194524076Y-56963539D01*
X194524500Y-56971451D01*
X194524500Y-57750500D01*
X194502826Y-57802826D01*
X194450500Y-57824500D01*
X188844768Y-57824500D01*
X188792442Y-57802826D01*
X188022174Y-57032558D01*
X188000500Y-56980232D01*
X188000500Y-56974000D01*
X188022174Y-56921674D01*
X188074500Y-56900000D01*
X188075000Y-56900000D01*
X188075000Y-56428459D01*
X188075357Y-56421203D01*
X188075500Y-56419751D01*
X188075500Y-54830246D01*
X188075356Y-54828783D01*
X188075000Y-54821536D01*
X188075000Y-54350000D01*
X188027171Y-54350000D01*
X187967624Y-54356402D01*
X187967619Y-54356403D01*
X187832912Y-54406645D01*
X187832911Y-54406646D01*
X187717811Y-54492811D01*
X187631646Y-54607912D01*
X187629979Y-54610965D01*
X187585879Y-54646503D01*
X187576839Y-54648552D01*
X187570974Y-54649500D01*
X187555252Y-54649500D01*
X187496769Y-54661133D01*
X187496054Y-54661610D01*
X187486808Y-54663105D01*
X187467136Y-54658448D01*
X187461196Y-54658448D01*
X187460379Y-54662555D01*
X187453231Y-54661133D01*
X187394748Y-54649500D01*
X187384969Y-54649500D01*
X187332643Y-54627826D01*
X187320021Y-54610965D01*
X187318353Y-54607912D01*
X187232188Y-54492811D01*
X187117088Y-54406646D01*
X187117087Y-54406645D01*
X186982380Y-54356403D01*
X186982375Y-54356402D01*
X186922829Y-54350000D01*
X186875000Y-54350000D01*
X186875000Y-54821536D01*
X186874644Y-54828783D01*
X186874500Y-54830246D01*
X186874500Y-56419751D01*
X186874643Y-56421203D01*
X186875000Y-56428459D01*
X186875000Y-56900000D01*
X186875500Y-56900000D01*
X186927826Y-56921674D01*
X186949500Y-56974000D01*
X186949500Y-57379800D01*
X186982923Y-57460489D01*
X186989735Y-57476934D01*
X186989736Y-57476936D01*
X186991443Y-57481058D01*
X187808558Y-58298174D01*
X187830232Y-58350500D01*
X187808558Y-58402826D01*
X187756232Y-58424500D01*
X187744768Y-58424500D01*
X187692442Y-58402826D01*
X186522174Y-57232558D01*
X186500500Y-57180232D01*
X186500500Y-56974000D01*
X186522174Y-56921674D01*
X186574500Y-56900000D01*
X186575000Y-56900000D01*
X186575000Y-56428459D01*
X186575357Y-56421203D01*
X186575500Y-56419751D01*
X186575500Y-54830246D01*
X186575356Y-54828783D01*
X186575000Y-54821536D01*
X186575000Y-54350000D01*
X186527171Y-54350000D01*
X186467624Y-54356402D01*
X186467619Y-54356403D01*
X186332912Y-54406645D01*
X186332911Y-54406646D01*
X186217811Y-54492811D01*
X186131646Y-54607912D01*
X186129979Y-54610965D01*
X186085879Y-54646503D01*
X186076839Y-54648552D01*
X186070974Y-54649500D01*
X186055252Y-54649500D01*
X185996769Y-54661133D01*
X185996054Y-54661610D01*
X185986808Y-54663105D01*
X185967136Y-54658448D01*
X185961196Y-54658448D01*
X185960379Y-54662555D01*
X185953231Y-54661133D01*
X185894748Y-54649500D01*
X185884969Y-54649500D01*
X185832643Y-54627826D01*
X185820021Y-54610965D01*
X185818353Y-54607912D01*
X185732188Y-54492811D01*
X185617088Y-54406646D01*
X185617087Y-54406645D01*
X185482380Y-54356403D01*
X185482375Y-54356402D01*
X185422829Y-54350000D01*
X185375000Y-54350000D01*
X185375000Y-54821536D01*
X185374644Y-54828783D01*
X185374500Y-54830246D01*
X185374500Y-56419751D01*
X185374643Y-56421203D01*
X185375000Y-56428459D01*
X185375000Y-56900000D01*
X185375500Y-56900000D01*
X185427826Y-56921674D01*
X185449500Y-56974000D01*
X185449500Y-57429799D01*
X185449499Y-57429799D01*
X185480442Y-57504500D01*
X185489140Y-57525500D01*
X185491443Y-57531058D01*
X186236497Y-58276112D01*
X186858559Y-58898174D01*
X186880233Y-58950500D01*
X186858559Y-59002826D01*
X186806233Y-59024500D01*
X186744768Y-59024500D01*
X186692442Y-59002826D01*
X185022174Y-57332558D01*
X185000500Y-57280232D01*
X185000500Y-56974000D01*
X185022174Y-56921674D01*
X185074500Y-56900000D01*
X185075000Y-56900000D01*
X185075000Y-56428459D01*
X185075357Y-56421203D01*
X185075500Y-56419751D01*
X185075500Y-54830246D01*
X185075356Y-54828783D01*
X185075000Y-54821536D01*
X185075000Y-54350000D01*
X185027171Y-54350000D01*
X184967624Y-54356402D01*
X184967619Y-54356403D01*
X184832912Y-54406645D01*
X184832911Y-54406646D01*
X184717811Y-54492811D01*
X184631646Y-54607912D01*
X184629979Y-54610965D01*
X184585879Y-54646503D01*
X184576839Y-54648552D01*
X184570974Y-54649500D01*
X184555252Y-54649500D01*
X184496769Y-54661133D01*
X184496054Y-54661610D01*
X184486808Y-54663105D01*
X184467136Y-54658448D01*
X184461196Y-54658448D01*
X184460379Y-54662555D01*
X184453231Y-54661133D01*
X184394748Y-54649500D01*
X184384969Y-54649500D01*
X184332643Y-54627826D01*
X184320021Y-54610965D01*
X184318353Y-54607912D01*
X184232188Y-54492811D01*
X184117088Y-54406646D01*
X184117087Y-54406645D01*
X183982380Y-54356403D01*
X183982375Y-54356402D01*
X183922829Y-54350000D01*
X183875000Y-54350000D01*
X183875000Y-54821536D01*
X183874644Y-54828783D01*
X183874500Y-54830246D01*
X183575500Y-54830246D01*
X183575356Y-54828783D01*
X183575000Y-54821536D01*
X183575000Y-54350000D01*
X183527171Y-54350000D01*
X183467624Y-54356402D01*
X183467619Y-54356403D01*
X183332912Y-54406645D01*
X183332911Y-54406646D01*
X183217811Y-54492811D01*
X183131646Y-54607912D01*
X183129979Y-54610965D01*
X183085879Y-54646503D01*
X183076839Y-54648552D01*
X183070974Y-54649500D01*
X183055252Y-54649500D01*
X182996769Y-54661133D01*
X182996054Y-54661610D01*
X182986808Y-54663105D01*
X182967136Y-54658448D01*
X182961196Y-54658448D01*
X182960379Y-54662555D01*
X182953231Y-54661133D01*
X182894748Y-54649500D01*
X182884969Y-54649500D01*
X182832643Y-54627826D01*
X182820021Y-54610965D01*
X182818353Y-54607912D01*
X182732188Y-54492811D01*
X182617088Y-54406646D01*
X182617087Y-54406645D01*
X182482380Y-54356403D01*
X182482375Y-54356402D01*
X182422829Y-54350000D01*
X182375000Y-54350000D01*
X182375000Y-54821536D01*
X182374644Y-54828783D01*
X182374500Y-54830246D01*
X182075500Y-54830246D01*
X182075356Y-54828783D01*
X182075000Y-54821536D01*
X182075000Y-54350000D01*
X182057676Y-54332676D01*
X182047174Y-54328326D01*
X182025500Y-54276000D01*
X182025500Y-54140688D01*
X188274500Y-54140688D01*
X188274500Y-54259311D01*
X188305199Y-54373882D01*
X188305201Y-54373887D01*
X188365086Y-54477609D01*
X188375000Y-54514609D01*
X188375000Y-54821536D01*
X188374644Y-54828783D01*
X188374500Y-54830246D01*
X188374500Y-56419751D01*
X188374643Y-56421203D01*
X188375000Y-56428459D01*
X188375000Y-56900000D01*
X188422829Y-56900000D01*
X188482375Y-56893597D01*
X188482380Y-56893596D01*
X188617087Y-56843354D01*
X188617088Y-56843353D01*
X188732187Y-56757189D01*
X188733269Y-56755745D01*
X188734164Y-56755213D01*
X188735931Y-56753447D01*
X188736381Y-56753897D01*
X188781975Y-56726839D01*
X188836854Y-56740840D01*
X188865760Y-56789546D01*
X188856600Y-56837085D01*
X188805201Y-56926111D01*
X188805198Y-56926117D01*
X188774499Y-57040688D01*
X188774499Y-57159311D01*
X188805198Y-57273882D01*
X188805200Y-57273887D01*
X188864507Y-57376609D01*
X188864508Y-57376610D01*
X188864510Y-57376613D01*
X188948386Y-57460489D01*
X188948388Y-57460490D01*
X188948389Y-57460491D01*
X189051111Y-57519798D01*
X189051113Y-57519799D01*
X189051114Y-57519799D01*
X189051116Y-57519800D01*
X189072389Y-57525500D01*
X189165687Y-57550499D01*
X189165688Y-57550500D01*
X189165690Y-57550500D01*
X189284310Y-57550500D01*
X189284310Y-57550499D01*
X189398885Y-57519799D01*
X189501612Y-57460489D01*
X189585488Y-57376613D01*
X189644798Y-57273886D01*
X189675498Y-57159311D01*
X189675499Y-57159311D01*
X189675499Y-57040689D01*
X189675498Y-57040688D01*
X189644799Y-56926117D01*
X189644797Y-56926112D01*
X189584914Y-56822392D01*
X189575000Y-56785392D01*
X189575000Y-56428459D01*
X189575357Y-56421203D01*
X189575500Y-56419751D01*
X189575500Y-54830246D01*
X189575356Y-54828783D01*
X189575000Y-54821536D01*
X189575000Y-54350000D01*
X189527171Y-54350000D01*
X189467624Y-54356402D01*
X189467619Y-54356403D01*
X189332912Y-54406645D01*
X189332911Y-54406646D01*
X189256525Y-54463829D01*
X189201647Y-54477836D01*
X189152938Y-54448936D01*
X189138931Y-54394058D01*
X189143812Y-54376267D01*
X189144798Y-54373887D01*
X189144799Y-54373886D01*
X189175499Y-54259311D01*
X189175500Y-54259311D01*
X189175500Y-54140689D01*
X189175499Y-54140688D01*
X189171429Y-54125500D01*
X189147311Y-54035489D01*
X189144800Y-54026117D01*
X189144798Y-54026112D01*
X189085491Y-53923390D01*
X189085490Y-53923389D01*
X189085489Y-53923387D01*
X189001613Y-53839511D01*
X189001610Y-53839509D01*
X189001609Y-53839508D01*
X188898887Y-53780201D01*
X188898882Y-53780199D01*
X188784311Y-53749500D01*
X188784309Y-53749500D01*
X188665691Y-53749500D01*
X188665689Y-53749500D01*
X188551117Y-53780199D01*
X188551112Y-53780201D01*
X188448390Y-53839508D01*
X188364508Y-53923390D01*
X188305201Y-54026112D01*
X188305199Y-54026117D01*
X188274500Y-54140688D01*
X182025500Y-54140688D01*
X182025500Y-53715689D01*
X189774501Y-53715689D01*
X189774501Y-53834312D01*
X189805200Y-53948883D01*
X189805202Y-53948888D01*
X189864509Y-54051610D01*
X189864510Y-54051611D01*
X189864512Y-54051614D01*
X189927826Y-54114928D01*
X189949500Y-54167253D01*
X189949500Y-54276000D01*
X189927826Y-54328326D01*
X189875500Y-54350000D01*
X189875000Y-54350000D01*
X189875000Y-54821536D01*
X189874644Y-54828783D01*
X189874500Y-54830246D01*
X189874500Y-56419751D01*
X189874643Y-56421203D01*
X189875000Y-56428459D01*
X189875000Y-56900000D01*
X189922829Y-56900000D01*
X189982375Y-56893597D01*
X189982380Y-56893596D01*
X190117087Y-56843354D01*
X190117093Y-56843351D01*
X190218294Y-56767591D01*
X190273171Y-56753583D01*
X190321880Y-56782483D01*
X190335888Y-56837360D01*
X190326727Y-56863829D01*
X190305204Y-56901108D01*
X190305200Y-56901117D01*
X190274501Y-57015688D01*
X190274501Y-57134311D01*
X190305200Y-57248882D01*
X190305202Y-57248887D01*
X190364509Y-57351609D01*
X190364510Y-57351610D01*
X190364512Y-57351613D01*
X190448388Y-57435489D01*
X190448390Y-57435490D01*
X190448391Y-57435491D01*
X190551113Y-57494798D01*
X190551115Y-57494799D01*
X190551116Y-57494799D01*
X190551118Y-57494800D01*
X190569995Y-57499858D01*
X190665689Y-57525499D01*
X190665690Y-57525500D01*
X190665692Y-57525500D01*
X190784312Y-57525500D01*
X190784312Y-57525499D01*
X190898887Y-57494799D01*
X191001614Y-57435489D01*
X191085490Y-57351613D01*
X191144800Y-57248886D01*
X191175500Y-57134311D01*
X191175501Y-57134311D01*
X191175501Y-57015689D01*
X191175500Y-57015688D01*
X191155404Y-56940688D01*
X192799500Y-56940688D01*
X192799500Y-57059311D01*
X192830199Y-57173882D01*
X192830201Y-57173887D01*
X192889508Y-57276609D01*
X192889509Y-57276610D01*
X192889511Y-57276613D01*
X192973387Y-57360489D01*
X192973389Y-57360490D01*
X192973390Y-57360491D01*
X193076112Y-57419798D01*
X193076114Y-57419799D01*
X193076115Y-57419799D01*
X193076117Y-57419800D01*
X193097924Y-57425643D01*
X193190688Y-57450499D01*
X193190689Y-57450500D01*
X193190691Y-57450500D01*
X193309311Y-57450500D01*
X193309311Y-57450499D01*
X193423886Y-57419799D01*
X193526613Y-57360489D01*
X193610489Y-57276613D01*
X193669799Y-57173886D01*
X193700499Y-57059311D01*
X193700500Y-57059311D01*
X193700500Y-56940689D01*
X193695348Y-56921465D01*
X193689988Y-56901460D01*
X193697379Y-56845309D01*
X193742312Y-56810830D01*
X193798465Y-56818221D01*
X193805812Y-56823068D01*
X193832907Y-56843351D01*
X193832912Y-56843354D01*
X193967619Y-56893596D01*
X193967624Y-56893597D01*
X194027171Y-56900000D01*
X194075000Y-56900000D01*
X194075000Y-56428459D01*
X194075357Y-56421203D01*
X194075500Y-56419751D01*
X194075500Y-54830246D01*
X194075356Y-54828783D01*
X194075000Y-54821536D01*
X194075000Y-54392753D01*
X194096673Y-54340428D01*
X194110489Y-54326613D01*
X194169799Y-54223886D01*
X194200499Y-54109311D01*
X194200500Y-54109311D01*
X194200500Y-53990689D01*
X194200499Y-53990688D01*
X194180043Y-53914343D01*
X194175442Y-53897171D01*
X198400000Y-53897171D01*
X198400000Y-54365000D01*
X199000000Y-54365000D01*
X199000000Y-53445000D01*
X198852171Y-53445000D01*
X198792624Y-53451402D01*
X198792619Y-53451403D01*
X198657912Y-53501645D01*
X198657911Y-53501646D01*
X198542811Y-53587811D01*
X198456646Y-53702911D01*
X198456645Y-53702912D01*
X198406403Y-53837619D01*
X198406402Y-53837624D01*
X198400000Y-53897171D01*
X194175442Y-53897171D01*
X194169800Y-53876117D01*
X194169798Y-53876112D01*
X194110491Y-53773390D01*
X194110490Y-53773389D01*
X194110489Y-53773387D01*
X194026613Y-53689511D01*
X194026610Y-53689509D01*
X194026609Y-53689508D01*
X193923887Y-53630201D01*
X193923882Y-53630199D01*
X193809311Y-53599500D01*
X193809309Y-53599500D01*
X193690691Y-53599500D01*
X193690689Y-53599500D01*
X193576117Y-53630199D01*
X193576112Y-53630201D01*
X193473390Y-53689508D01*
X193389508Y-53773390D01*
X193330201Y-53876112D01*
X193330199Y-53876117D01*
X193299500Y-53990688D01*
X193299500Y-54109311D01*
X193330199Y-54223882D01*
X193330201Y-54223887D01*
X193389508Y-54326609D01*
X193389509Y-54326610D01*
X193389511Y-54326613D01*
X193427826Y-54364928D01*
X193449500Y-54417253D01*
X193449500Y-54560767D01*
X193427826Y-54613093D01*
X193375500Y-54634767D01*
X193323174Y-54613093D01*
X193316260Y-54605114D01*
X193232188Y-54492811D01*
X193117088Y-54406646D01*
X193117087Y-54406645D01*
X192982380Y-54356403D01*
X192982375Y-54356402D01*
X192922829Y-54350000D01*
X192875000Y-54350000D01*
X192875000Y-54821536D01*
X192874644Y-54828783D01*
X192874500Y-54830246D01*
X192874500Y-56419751D01*
X192874643Y-56421203D01*
X192875000Y-56428459D01*
X192875000Y-56728691D01*
X192865086Y-56765691D01*
X192830201Y-56826112D01*
X192830199Y-56826117D01*
X192799500Y-56940688D01*
X191155404Y-56940688D01*
X191144801Y-56901117D01*
X191144799Y-56901112D01*
X191084914Y-56797388D01*
X191075000Y-56760388D01*
X191075000Y-56428459D01*
X191075357Y-56421203D01*
X191075500Y-56419751D01*
X191075500Y-54830246D01*
X191075356Y-54828783D01*
X191075000Y-54821536D01*
X191075000Y-54350000D01*
X191027171Y-54350000D01*
X190967624Y-54356402D01*
X190967619Y-54356403D01*
X190832912Y-54406645D01*
X190832911Y-54406646D01*
X190717811Y-54492811D01*
X190633740Y-54605114D01*
X190585030Y-54634014D01*
X190530153Y-54620007D01*
X190501253Y-54571297D01*
X190500500Y-54560767D01*
X190500500Y-54167255D01*
X190501149Y-54165687D01*
X191299501Y-54165687D01*
X191299501Y-54284310D01*
X191330200Y-54398881D01*
X191330202Y-54398886D01*
X191365086Y-54459305D01*
X191375000Y-54496305D01*
X191375000Y-54821536D01*
X191374644Y-54828783D01*
X191374500Y-54830246D01*
X191374500Y-56419751D01*
X191374643Y-56421203D01*
X191375000Y-56428459D01*
X191375000Y-56900000D01*
X191422829Y-56900000D01*
X191482375Y-56893597D01*
X191482380Y-56893596D01*
X191617087Y-56843354D01*
X191617088Y-56843353D01*
X191732188Y-56757188D01*
X191818353Y-56642087D01*
X191820021Y-56639035D01*
X191864121Y-56603497D01*
X191873160Y-56601448D01*
X191879024Y-56600500D01*
X191894748Y-56600500D01*
X191953231Y-56588867D01*
X191953947Y-56588388D01*
X191963191Y-56586894D01*
X191982858Y-56591549D01*
X191988808Y-56591527D01*
X191989621Y-56587445D01*
X191996768Y-56588866D01*
X191996769Y-56588867D01*
X192055252Y-56600500D01*
X192055254Y-56600500D01*
X192065031Y-56600500D01*
X192117357Y-56622174D01*
X192129979Y-56639035D01*
X192131646Y-56642087D01*
X192217811Y-56757188D01*
X192332911Y-56843353D01*
X192332912Y-56843354D01*
X192467619Y-56893596D01*
X192467624Y-56893597D01*
X192527171Y-56900000D01*
X192575000Y-56900000D01*
X192575000Y-56428459D01*
X192575357Y-56421203D01*
X192575500Y-56419751D01*
X192575500Y-54830246D01*
X192575356Y-54828783D01*
X192575000Y-54821536D01*
X192575000Y-54350000D01*
X192571817Y-54346817D01*
X192527175Y-54328326D01*
X192505501Y-54276000D01*
X192505501Y-54162252D01*
X192527174Y-54109927D01*
X192610489Y-54026613D01*
X192669799Y-53923886D01*
X192700499Y-53809311D01*
X192700500Y-53809311D01*
X192700500Y-53690689D01*
X192700499Y-53690688D01*
X192669800Y-53576117D01*
X192669798Y-53576112D01*
X192610490Y-53473389D01*
X192610488Y-53473386D01*
X192565684Y-53428581D01*
X192544010Y-53376255D01*
X192565685Y-53323930D01*
X192613442Y-53276174D01*
X192665767Y-53254500D01*
X203484233Y-53254500D01*
X203536558Y-53276173D01*
X205555955Y-55295571D01*
X207468941Y-57208557D01*
X207528941Y-57268557D01*
X207528944Y-57268559D01*
X207557126Y-57280232D01*
X207630200Y-57310500D01*
X208391738Y-57310500D01*
X208444064Y-57332174D01*
X208460105Y-57356182D01*
X208523367Y-57508913D01*
X208570732Y-57579799D01*
X208632861Y-57672782D01*
X208772218Y-57812139D01*
X208936086Y-57921632D01*
X209118165Y-57997051D01*
X209311459Y-58035500D01*
X209311461Y-58035500D01*
X209508539Y-58035500D01*
X209508541Y-58035500D01*
X209701835Y-57997051D01*
X209883914Y-57921632D01*
X210047782Y-57812139D01*
X210187139Y-57672782D01*
X210296632Y-57508914D01*
X210372051Y-57326835D01*
X210410500Y-57133541D01*
X210410500Y-56936459D01*
X210372051Y-56743165D01*
X210370537Y-56739511D01*
X210296632Y-56561086D01*
X210187139Y-56397218D01*
X210047781Y-56257860D01*
X209883913Y-56148367D01*
X209870634Y-56142867D01*
X209830585Y-56102819D01*
X209830585Y-56046182D01*
X209870633Y-56006133D01*
X209898952Y-56000500D01*
X210480233Y-56000500D01*
X210532559Y-56022174D01*
X210702826Y-56192441D01*
X210724500Y-56244767D01*
X210724500Y-59080232D01*
X210702826Y-59132558D01*
X210557559Y-59277826D01*
X210505233Y-59299500D01*
X210428262Y-59299500D01*
X210375936Y-59277826D01*
X210359895Y-59253818D01*
X210296632Y-59101086D01*
X210187139Y-58937218D01*
X210047781Y-58797860D01*
X209883913Y-58688367D01*
X209701839Y-58612950D01*
X209701829Y-58612947D01*
X209572388Y-58587200D01*
X209508541Y-58574500D01*
X209311459Y-58574500D01*
X209256662Y-58585399D01*
X209118170Y-58612947D01*
X209118160Y-58612950D01*
X208936086Y-58688367D01*
X208772218Y-58797860D01*
X208772217Y-58797862D01*
X208632862Y-58937217D01*
X208632860Y-58937218D01*
X208523367Y-59101086D01*
X208447950Y-59283160D01*
X208447947Y-59283170D01*
X208409500Y-59476460D01*
X208409500Y-59673539D01*
X208447947Y-59866829D01*
X208447950Y-59866839D01*
X208523367Y-60048913D01*
X208622151Y-60196753D01*
X208632861Y-60212782D01*
X208772218Y-60352139D01*
X208936086Y-60461632D01*
X209118165Y-60537051D01*
X209311459Y-60575500D01*
X209311461Y-60575500D01*
X209508539Y-60575500D01*
X209508541Y-60575500D01*
X209701835Y-60537051D01*
X209883914Y-60461632D01*
X210047782Y-60352139D01*
X210187139Y-60212782D01*
X210296632Y-60048914D01*
X210359895Y-59896181D01*
X210399943Y-59856133D01*
X210428262Y-59850500D01*
X210704798Y-59850500D01*
X210704800Y-59850500D01*
X210806058Y-59808557D01*
X210883557Y-59731058D01*
X210883556Y-59731058D01*
X210918517Y-59696097D01*
X210918516Y-59696097D01*
X211233558Y-59381058D01*
X211275500Y-59279800D01*
X211275500Y-59170200D01*
X211275500Y-56045200D01*
X211239611Y-55958557D01*
X211238027Y-55954734D01*
X211233558Y-55943943D01*
X211233556Y-55943940D01*
X210781059Y-55491444D01*
X210781057Y-55491442D01*
X210721742Y-55466873D01*
X210679800Y-55449500D01*
X210679799Y-55449500D01*
X209749083Y-55449500D01*
X209696757Y-55427826D01*
X209675083Y-55375500D01*
X209696757Y-55323174D01*
X209739424Y-55302133D01*
X209749617Y-55300790D01*
X209772571Y-55297769D01*
X210007388Y-55234850D01*
X210231984Y-55141819D01*
X210442516Y-55020269D01*
X210635380Y-54872278D01*
X210807278Y-54700380D01*
X210955269Y-54507516D01*
X211076819Y-54296984D01*
X211169850Y-54072388D01*
X211232769Y-53837571D01*
X211264500Y-53596550D01*
X211264500Y-53353450D01*
X211232769Y-53112429D01*
X211169850Y-52877612D01*
X211076819Y-52653016D01*
X210955269Y-52442484D01*
X210807278Y-52249620D01*
X210635380Y-52077722D01*
X210442516Y-51929731D01*
X210442517Y-51929731D01*
X210442515Y-51929730D01*
X210231983Y-51808180D01*
X210231980Y-51808179D01*
X210007387Y-51715149D01*
X209772569Y-51652230D01*
X209595010Y-51628854D01*
X209531550Y-51620500D01*
X209288450Y-51620500D01*
X209232372Y-51627882D01*
X209047430Y-51652230D01*
X208812612Y-51715149D01*
X208588019Y-51808179D01*
X208588016Y-51808180D01*
X208377484Y-51929730D01*
X208184615Y-52077726D01*
X208012726Y-52249615D01*
X207864730Y-52442484D01*
X207743180Y-52653016D01*
X207743179Y-52653019D01*
X207650149Y-52877612D01*
X207587230Y-53112430D01*
X207559677Y-53321720D01*
X207555500Y-53353450D01*
X207555500Y-53596550D01*
X207556254Y-53602278D01*
X207587230Y-53837569D01*
X207650149Y-54072387D01*
X207743179Y-54296980D01*
X207743180Y-54296983D01*
X207856914Y-54493976D01*
X207864731Y-54507516D01*
X208012722Y-54700380D01*
X208184620Y-54872278D01*
X208377484Y-55020269D01*
X208588016Y-55141819D01*
X208812612Y-55234850D01*
X209047429Y-55297769D01*
X209064983Y-55300080D01*
X209080576Y-55302133D01*
X209129625Y-55330451D01*
X209144284Y-55385159D01*
X209115966Y-55434208D01*
X209070917Y-55449500D01*
X207819768Y-55449500D01*
X207767442Y-55427826D01*
X206967442Y-54627826D01*
X204556058Y-52216443D01*
X204454800Y-52174500D01*
X192195200Y-52174500D01*
X192123598Y-52204158D01*
X192093945Y-52216440D01*
X192093942Y-52216442D01*
X191593943Y-52716442D01*
X191516443Y-52793942D01*
X191474501Y-52895199D01*
X191474501Y-53832745D01*
X191452827Y-53885071D01*
X191389509Y-53948389D01*
X191330202Y-54051111D01*
X191330200Y-54051116D01*
X191299501Y-54165687D01*
X190501149Y-54165687D01*
X190522173Y-54114930D01*
X190585490Y-54051614D01*
X190644800Y-53948887D01*
X190675500Y-53834312D01*
X190675501Y-53834312D01*
X190675501Y-53715690D01*
X190675500Y-53715689D01*
X190672894Y-53705965D01*
X190644800Y-53601115D01*
X190643868Y-53599500D01*
X190585492Y-53498391D01*
X190585491Y-53498390D01*
X190585490Y-53498388D01*
X190501614Y-53414512D01*
X190501611Y-53414510D01*
X190501610Y-53414509D01*
X190398888Y-53355202D01*
X190398883Y-53355200D01*
X190284312Y-53324501D01*
X190284310Y-53324501D01*
X190165692Y-53324501D01*
X190165690Y-53324501D01*
X190051118Y-53355200D01*
X190051113Y-53355202D01*
X189948391Y-53414509D01*
X189864509Y-53498391D01*
X189805202Y-53601113D01*
X189805200Y-53601118D01*
X189774501Y-53715689D01*
X182025500Y-53715689D01*
X182025500Y-51655123D01*
X182047174Y-51602797D01*
X183640297Y-50009674D01*
X183692623Y-49988000D01*
X186248947Y-49988000D01*
X186281446Y-49995518D01*
X186373607Y-50040573D01*
X186441740Y-50050500D01*
X186441746Y-50050500D01*
X187533254Y-50050500D01*
X187533260Y-50050500D01*
X187601393Y-50040573D01*
X187706483Y-49989198D01*
X187789198Y-49906483D01*
X187796278Y-49891999D01*
X187838730Y-49854510D01*
X187862759Y-49850500D01*
X188387241Y-49850500D01*
X188439567Y-49872174D01*
X188453720Y-49891997D01*
X188460802Y-49906483D01*
X188543517Y-49989198D01*
X188648607Y-50040573D01*
X188716740Y-50050500D01*
X188716746Y-50050500D01*
X189808254Y-50050500D01*
X189808260Y-50050500D01*
X189876393Y-50040573D01*
X189968553Y-49995518D01*
X190001053Y-49988000D01*
X191302064Y-49988000D01*
X191302064Y-49987999D01*
X191378489Y-49967521D01*
X191447011Y-49927960D01*
X191502960Y-49872011D01*
X194228822Y-47146149D01*
X204290000Y-47146149D01*
X204292922Y-47183281D01*
X204339093Y-47342200D01*
X204423335Y-47484645D01*
X204540354Y-47601664D01*
X204682799Y-47685906D01*
X204841724Y-47732078D01*
X204849999Y-47732729D01*
X204850000Y-47732729D01*
X205350000Y-47732729D01*
X205358274Y-47732078D01*
X205358276Y-47732078D01*
X205517200Y-47685906D01*
X205659645Y-47601664D01*
X205776664Y-47484645D01*
X205860906Y-47342200D01*
X205907077Y-47183281D01*
X205910000Y-47146149D01*
X205910000Y-47117500D01*
X205350000Y-47117500D01*
X205350000Y-47732729D01*
X204850000Y-47732729D01*
X204850000Y-47117500D01*
X204290000Y-47117500D01*
X204290000Y-47146149D01*
X194228822Y-47146149D01*
X194452797Y-46922174D01*
X194505123Y-46900500D01*
X195089564Y-46900500D01*
X195089564Y-46900499D01*
X195165989Y-46880021D01*
X195234511Y-46840460D01*
X195290460Y-46784511D01*
X195590460Y-46484511D01*
X195611326Y-46448369D01*
X195630021Y-46415989D01*
X195650499Y-46339564D01*
X195650500Y-46339564D01*
X195650500Y-45736301D01*
X195672174Y-45683975D01*
X195724500Y-45662301D01*
X195738927Y-45663721D01*
X195747867Y-45665500D01*
X195952132Y-45665499D01*
X196032495Y-45649515D01*
X196058887Y-45631879D01*
X196114436Y-45620830D01*
X196141112Y-45631879D01*
X196167505Y-45649515D01*
X196247867Y-45665500D01*
X196452132Y-45665499D01*
X196532495Y-45649515D01*
X196559387Y-45631545D01*
X196614936Y-45620496D01*
X196662028Y-45651961D01*
X196674500Y-45693074D01*
X196674500Y-45857746D01*
X196652827Y-45910070D01*
X196639511Y-45923386D01*
X196639509Y-45923389D01*
X196580201Y-46026112D01*
X196580199Y-46026117D01*
X196549500Y-46140688D01*
X196549500Y-46259311D01*
X196580199Y-46373882D01*
X196580201Y-46373887D01*
X196639508Y-46476609D01*
X196639509Y-46476610D01*
X196639511Y-46476613D01*
X196723387Y-46560489D01*
X196826114Y-46619799D01*
X196826115Y-46619799D01*
X196826117Y-46619800D01*
X196883402Y-46635149D01*
X196940688Y-46650499D01*
X196940689Y-46650500D01*
X196940691Y-46650500D01*
X197059311Y-46650500D01*
X197059311Y-46650499D01*
X197173886Y-46619799D01*
X197276613Y-46560489D01*
X197360489Y-46476613D01*
X197419799Y-46373886D01*
X197450499Y-46259311D01*
X197450500Y-46259311D01*
X197450500Y-46140689D01*
X197450499Y-46140688D01*
X197448173Y-46132009D01*
X197424408Y-46043314D01*
X197431800Y-45987162D01*
X197476733Y-45952684D01*
X197516532Y-45953100D01*
X197547508Y-45962099D01*
X197550000Y-45962295D01*
X197550000Y-45140000D01*
X197532676Y-45122676D01*
X197522174Y-45118326D01*
X197500500Y-45066000D01*
X197500500Y-44714000D01*
X197522174Y-44661674D01*
X197574500Y-44640000D01*
X197726000Y-44640000D01*
X197778326Y-44661674D01*
X197800000Y-44714000D01*
X197800000Y-44890000D01*
X197976000Y-44890000D01*
X198028326Y-44911674D01*
X198050000Y-44964000D01*
X198050000Y-45962295D01*
X198052493Y-45962099D01*
X198210199Y-45916281D01*
X198351556Y-45832683D01*
X198401974Y-45782265D01*
X198454299Y-45760590D01*
X198482619Y-45766223D01*
X198628310Y-45826570D01*
X198628317Y-45826572D01*
X198669999Y-45834863D01*
X198670000Y-45834863D01*
X198670000Y-45031988D01*
X198679940Y-45049205D01*
X198735795Y-45105060D01*
X198804204Y-45144556D01*
X198880504Y-45165000D01*
X198959496Y-45165000D01*
X199035796Y-45144556D01*
X199104205Y-45105060D01*
X199160060Y-45049205D01*
X199170000Y-45031988D01*
X199170000Y-45834863D01*
X199211682Y-45826572D01*
X199211693Y-45826569D01*
X199393675Y-45751190D01*
X199484223Y-45690688D01*
X201874500Y-45690688D01*
X201874500Y-45809311D01*
X201905199Y-45923882D01*
X201905201Y-45923887D01*
X201964508Y-46026609D01*
X201964509Y-46026610D01*
X201964511Y-46026613D01*
X202048387Y-46110489D01*
X202048389Y-46110490D01*
X202048390Y-46110491D01*
X202133527Y-46159645D01*
X202151114Y-46169799D01*
X202151115Y-46169799D01*
X202151117Y-46169800D01*
X202208402Y-46185149D01*
X202265688Y-46200499D01*
X202265689Y-46200500D01*
X202265691Y-46200500D01*
X202384311Y-46200500D01*
X202384311Y-46200499D01*
X202498886Y-46169799D01*
X202601613Y-46110489D01*
X202682428Y-46029674D01*
X202734754Y-46008000D01*
X204487038Y-46008000D01*
X204539364Y-46029674D01*
X204561038Y-46082000D01*
X204539364Y-46134326D01*
X204423335Y-46250354D01*
X204339093Y-46392799D01*
X204292922Y-46551718D01*
X204290000Y-46588850D01*
X204290000Y-46617500D01*
X205910000Y-46617500D01*
X205910000Y-46588850D01*
X205907077Y-46551718D01*
X205860906Y-46392799D01*
X205776664Y-46250354D01*
X205660636Y-46134326D01*
X205638962Y-46082000D01*
X205660636Y-46029674D01*
X205712962Y-46008000D01*
X206537733Y-46008000D01*
X206590059Y-46029674D01*
X207327826Y-46767441D01*
X207349500Y-46819767D01*
X207349500Y-48069748D01*
X207356055Y-48102700D01*
X207361133Y-48128232D01*
X207383233Y-48161306D01*
X207405448Y-48194552D01*
X207449560Y-48224027D01*
X207471767Y-48238866D01*
X207471768Y-48238866D01*
X207471769Y-48238867D01*
X207530252Y-48250500D01*
X207530254Y-48250500D01*
X208569746Y-48250500D01*
X208569748Y-48250500D01*
X208628231Y-48238867D01*
X208628232Y-48238866D01*
X208628233Y-48238866D01*
X208647359Y-48226086D01*
X208677398Y-48206013D01*
X208732945Y-48194962D01*
X208780038Y-48226427D01*
X208787845Y-48241680D01*
X208806646Y-48292088D01*
X208892811Y-48407188D01*
X209007911Y-48493353D01*
X209007912Y-48493354D01*
X209142619Y-48543596D01*
X209142624Y-48543597D01*
X209202171Y-48550000D01*
X209500000Y-48550000D01*
X210000000Y-48550000D01*
X210297829Y-48550000D01*
X210357375Y-48543597D01*
X210357380Y-48543596D01*
X210492087Y-48493354D01*
X210492088Y-48493353D01*
X210607188Y-48407188D01*
X210693353Y-48292088D01*
X210693354Y-48292087D01*
X210743596Y-48157380D01*
X210743597Y-48157375D01*
X210750000Y-48097828D01*
X210750000Y-47575000D01*
X210000000Y-47575000D01*
X210000000Y-48550000D01*
X209500000Y-48550000D01*
X209500000Y-47075000D01*
X210000000Y-47075000D01*
X210750000Y-47075000D01*
X210750000Y-46552171D01*
X210743597Y-46492624D01*
X210743596Y-46492619D01*
X210693354Y-46357912D01*
X210693353Y-46357911D01*
X210607188Y-46242811D01*
X210492088Y-46156646D01*
X210492087Y-46156645D01*
X210357380Y-46106403D01*
X210357375Y-46106402D01*
X210297829Y-46100000D01*
X210000000Y-46100000D01*
X210000000Y-47075000D01*
X209500000Y-47075000D01*
X209500000Y-46100000D01*
X209202171Y-46100000D01*
X209142624Y-46106402D01*
X209142619Y-46106403D01*
X209007912Y-46156645D01*
X209007911Y-46156646D01*
X208892811Y-46242811D01*
X208806646Y-46357911D01*
X208787845Y-46408319D01*
X208749251Y-46449771D01*
X208692650Y-46451792D01*
X208677398Y-46443986D01*
X208628232Y-46411133D01*
X208628233Y-46411133D01*
X208598989Y-46405316D01*
X208569748Y-46399500D01*
X208569746Y-46399500D01*
X207769767Y-46399500D01*
X207717441Y-46377826D01*
X206838557Y-45498942D01*
X206835063Y-45497495D01*
X206835060Y-45497494D01*
X206776861Y-45473387D01*
X206737300Y-45457000D01*
X206737299Y-45457000D01*
X205666103Y-45457000D01*
X205613777Y-45435326D01*
X205599622Y-45415501D01*
X205548324Y-45310571D01*
X205464428Y-45226675D01*
X205464429Y-45226675D01*
X205426999Y-45208377D01*
X205389509Y-45165923D01*
X205385500Y-45141896D01*
X205385500Y-44706001D01*
X205407174Y-44653675D01*
X205427000Y-44639520D01*
X205482375Y-44612449D01*
X205567449Y-44527375D01*
X205612854Y-44434499D01*
X205655308Y-44397009D01*
X205679335Y-44393000D01*
X206387298Y-44393000D01*
X206387300Y-44393000D01*
X206488558Y-44351057D01*
X206566057Y-44273558D01*
X206566056Y-44273558D01*
X206601017Y-44238597D01*
X206601016Y-44238597D01*
X207717442Y-43122174D01*
X207769768Y-43100500D01*
X208569746Y-43100500D01*
X208569748Y-43100500D01*
X208628231Y-43088867D01*
X208628232Y-43088866D01*
X208628233Y-43088866D01*
X208654584Y-43071258D01*
X208677398Y-43056013D01*
X208732945Y-43044962D01*
X208780038Y-43076427D01*
X208787845Y-43091680D01*
X208806646Y-43142088D01*
X208892811Y-43257188D01*
X209007911Y-43343353D01*
X209007912Y-43343354D01*
X209142619Y-43393596D01*
X209142624Y-43393597D01*
X209202171Y-43400000D01*
X209500000Y-43400000D01*
X210000000Y-43400000D01*
X210297829Y-43400000D01*
X210357375Y-43393597D01*
X210357380Y-43393596D01*
X210492087Y-43343354D01*
X210492088Y-43343353D01*
X210607188Y-43257188D01*
X210693353Y-43142088D01*
X210693354Y-43142087D01*
X210743596Y-43007380D01*
X210743597Y-43007375D01*
X210750000Y-42947828D01*
X210750000Y-42425000D01*
X210000000Y-42425000D01*
X210000000Y-43400000D01*
X209500000Y-43400000D01*
X209500000Y-41925000D01*
X210000000Y-41925000D01*
X210750000Y-41925000D01*
X210750000Y-41402171D01*
X210743597Y-41342624D01*
X210743596Y-41342619D01*
X210693354Y-41207912D01*
X210693353Y-41207911D01*
X210607188Y-41092811D01*
X210492088Y-41006646D01*
X210492087Y-41006645D01*
X210357380Y-40956403D01*
X210357375Y-40956402D01*
X210297829Y-40950000D01*
X210000000Y-40950000D01*
X210000000Y-41925000D01*
X209500000Y-41925000D01*
X209500000Y-40950000D01*
X209202171Y-40950000D01*
X209142624Y-40956402D01*
X209142619Y-40956403D01*
X209007912Y-41006645D01*
X209007911Y-41006646D01*
X208892811Y-41092811D01*
X208806646Y-41207911D01*
X208787845Y-41258319D01*
X208749251Y-41299771D01*
X208692650Y-41301792D01*
X208677398Y-41293986D01*
X208628232Y-41261133D01*
X208628233Y-41261133D01*
X208598989Y-41255316D01*
X208569748Y-41249500D01*
X207530252Y-41249500D01*
X207501010Y-41255316D01*
X207471767Y-41261133D01*
X207405449Y-41305447D01*
X207405447Y-41305449D01*
X207361133Y-41371767D01*
X207349500Y-41430253D01*
X207349500Y-42680232D01*
X207327826Y-42732558D01*
X206240059Y-43820326D01*
X206187733Y-43842000D01*
X205679334Y-43842000D01*
X205627008Y-43820326D01*
X205612855Y-43800504D01*
X205567449Y-43707625D01*
X205482375Y-43622551D01*
X205408592Y-43586480D01*
X205371102Y-43544026D01*
X205374612Y-43487498D01*
X205408590Y-43453520D01*
X205482375Y-43417449D01*
X205567449Y-43332375D01*
X205620291Y-43224286D01*
X205630500Y-43154215D01*
X205630499Y-42690786D01*
X205628962Y-42680232D01*
X205620292Y-42620719D01*
X205620291Y-42620715D01*
X205620291Y-42620714D01*
X205567449Y-42512625D01*
X205482375Y-42427551D01*
X205482374Y-42427550D01*
X205481497Y-42426924D01*
X205481080Y-42426256D01*
X205478039Y-42423215D01*
X205478742Y-42422511D01*
X205478100Y-42421481D01*
X205472174Y-42419027D01*
X205463503Y-42398095D01*
X205451509Y-42378877D01*
X205450500Y-42366701D01*
X205450500Y-42317253D01*
X205472173Y-42264928D01*
X205485489Y-42251613D01*
X205544799Y-42148886D01*
X205575499Y-42034311D01*
X205575500Y-42034311D01*
X205575500Y-41915689D01*
X205575499Y-41915688D01*
X205544800Y-41801117D01*
X205544798Y-41801112D01*
X205485491Y-41698390D01*
X205485490Y-41698389D01*
X205485489Y-41698387D01*
X205401613Y-41614511D01*
X205401610Y-41614509D01*
X205401609Y-41614508D01*
X205298887Y-41555201D01*
X205298882Y-41555199D01*
X205184311Y-41524500D01*
X205184309Y-41524500D01*
X205065691Y-41524500D01*
X205065689Y-41524500D01*
X204951117Y-41555199D01*
X204951112Y-41555201D01*
X204848390Y-41614508D01*
X204764508Y-41698390D01*
X204705201Y-41801112D01*
X204705199Y-41801117D01*
X204674500Y-41915688D01*
X204674500Y-42034311D01*
X204705199Y-42148882D01*
X204705201Y-42148887D01*
X204764508Y-42251609D01*
X204764509Y-42251610D01*
X204764511Y-42251613D01*
X204777826Y-42264928D01*
X204799500Y-42317253D01*
X204799500Y-42351109D01*
X204777826Y-42403435D01*
X204758002Y-42417589D01*
X204737624Y-42427551D01*
X204652551Y-42512624D01*
X204599709Y-42620713D01*
X204589500Y-42690780D01*
X204589500Y-43154214D01*
X204599707Y-43224280D01*
X204599708Y-43224284D01*
X204599709Y-43224286D01*
X204652551Y-43332375D01*
X204737625Y-43417449D01*
X204811405Y-43453518D01*
X204811407Y-43453519D01*
X204848897Y-43495973D01*
X204845387Y-43552501D01*
X204811407Y-43586480D01*
X204801504Y-43591322D01*
X204737624Y-43622551D01*
X204652551Y-43707624D01*
X204599709Y-43815713D01*
X204589500Y-43885780D01*
X204589500Y-44349214D01*
X204599707Y-44419280D01*
X204599708Y-44419284D01*
X204652551Y-44527375D01*
X204737625Y-44612449D01*
X204793000Y-44639520D01*
X204830490Y-44681973D01*
X204834500Y-44706001D01*
X204834500Y-45132118D01*
X204812826Y-45184444D01*
X204793002Y-45198598D01*
X204735570Y-45226676D01*
X204651675Y-45310571D01*
X204600378Y-45415501D01*
X204557924Y-45452991D01*
X204533897Y-45457000D01*
X202699754Y-45457000D01*
X202647429Y-45435326D01*
X202601613Y-45389511D01*
X202601610Y-45389509D01*
X202498887Y-45330201D01*
X202498882Y-45330199D01*
X202384311Y-45299500D01*
X202384309Y-45299500D01*
X202265691Y-45299500D01*
X202265689Y-45299500D01*
X202151117Y-45330199D01*
X202151112Y-45330201D01*
X202048390Y-45389508D01*
X201964508Y-45473390D01*
X201905201Y-45576112D01*
X201905199Y-45576117D01*
X201874500Y-45690688D01*
X199484223Y-45690688D01*
X199557459Y-45641753D01*
X199557460Y-45641752D01*
X199565698Y-45633515D01*
X199696752Y-45502460D01*
X199696753Y-45502459D01*
X199806190Y-45338675D01*
X199881569Y-45156693D01*
X199881572Y-45156682D01*
X199920000Y-44963490D01*
X199920000Y-44565000D01*
X199220000Y-44565000D01*
X199220000Y-44065000D01*
X199926000Y-44065000D01*
X199978326Y-44086674D01*
X200000000Y-44139000D01*
X200000000Y-44288381D01*
X200104975Y-44393356D01*
X200242140Y-44476275D01*
X200395153Y-44523955D01*
X200425000Y-44526667D01*
X200925000Y-44526667D01*
X200954846Y-44523955D01*
X201107859Y-44476275D01*
X201245024Y-44393356D01*
X201358356Y-44280024D01*
X201441275Y-44142859D01*
X201488955Y-43989846D01*
X201488957Y-43989836D01*
X201494999Y-43923347D01*
X201495000Y-43923338D01*
X201495000Y-43922500D01*
X200925000Y-43922500D01*
X200925000Y-44526667D01*
X200425000Y-44526667D01*
X200425000Y-43746500D01*
X200446674Y-43694174D01*
X200499000Y-43672500D01*
X200675000Y-43672500D01*
X200675000Y-43496500D01*
X200696674Y-43444174D01*
X200749000Y-43422500D01*
X201495000Y-43422500D01*
X201495000Y-43421662D01*
X201494999Y-43421652D01*
X201488957Y-43355163D01*
X201488955Y-43355153D01*
X201441275Y-43202140D01*
X201358356Y-43064975D01*
X201245024Y-42951643D01*
X201191804Y-42919470D01*
X201158237Y-42873851D01*
X201163607Y-42823640D01*
X201185290Y-42779288D01*
X201185289Y-42779288D01*
X201185291Y-42779286D01*
X201195500Y-42709215D01*
X201195499Y-42245786D01*
X201195231Y-42243943D01*
X201185292Y-42175719D01*
X201185291Y-42175715D01*
X201185291Y-42175714D01*
X201132449Y-42067625D01*
X201047375Y-41982551D01*
X200939286Y-41929709D01*
X200869215Y-41919500D01*
X200869214Y-41919500D01*
X200480785Y-41919500D01*
X200410719Y-41929707D01*
X200410715Y-41929708D01*
X200302624Y-41982551D01*
X200217551Y-42067624D01*
X200172146Y-42160501D01*
X200129692Y-42197991D01*
X200105665Y-42202000D01*
X196592700Y-42202000D01*
X196521098Y-42231658D01*
X196491445Y-42243940D01*
X196491442Y-42243942D01*
X195693942Y-43041443D01*
X195616442Y-43118943D01*
X195574500Y-43220200D01*
X195574500Y-44048671D01*
X195552826Y-44100997D01*
X195500500Y-44122671D01*
X195486064Y-44121249D01*
X195465732Y-44117205D01*
X195452133Y-44114500D01*
X195452132Y-44114500D01*
X195247868Y-44114500D01*
X195238931Y-44116278D01*
X195183383Y-44105225D01*
X195151921Y-44058130D01*
X195150500Y-44043699D01*
X195150500Y-43635439D01*
X195149941Y-43633354D01*
X195139129Y-43593000D01*
X195138679Y-43591322D01*
X195130023Y-43559015D01*
X195130021Y-43559010D01*
X195090462Y-43490492D01*
X195090461Y-43490491D01*
X195090460Y-43490489D01*
X194834511Y-43234540D01*
X194809673Y-43220200D01*
X194808778Y-43219683D01*
X194765990Y-43194979D01*
X194765985Y-43194977D01*
X194689564Y-43174500D01*
X194689562Y-43174500D01*
X193985438Y-43174500D01*
X193985436Y-43174500D01*
X193909014Y-43194977D01*
X193909009Y-43194979D01*
X193865327Y-43220200D01*
X193840488Y-43234540D01*
X193609540Y-43465488D01*
X193569979Y-43534009D01*
X193569977Y-43534014D01*
X193549500Y-43610435D01*
X193549500Y-44043698D01*
X193527826Y-44096024D01*
X193475500Y-44117698D01*
X193461067Y-44116277D01*
X193459515Y-44115968D01*
X193452133Y-44114500D01*
X193452131Y-44114500D01*
X193247868Y-44114500D01*
X193213935Y-44121250D01*
X193158387Y-44110200D01*
X193126922Y-44063107D01*
X193125500Y-44048672D01*
X193125500Y-43145200D01*
X193094872Y-43071258D01*
X193083557Y-43043941D01*
X193083556Y-43043940D01*
X192283557Y-42243942D01*
X192283543Y-42243933D01*
X192283157Y-42243776D01*
X192182300Y-42202000D01*
X188957669Y-42202000D01*
X188905343Y-42180326D01*
X188891188Y-42160500D01*
X188882450Y-42142626D01*
X188797375Y-42057551D01*
X188689286Y-42004709D01*
X188689272Y-42004707D01*
X188619215Y-41994500D01*
X188619214Y-41994500D01*
X188230785Y-41994500D01*
X188160719Y-42004707D01*
X188160715Y-42004708D01*
X188052624Y-42057551D01*
X187967551Y-42142624D01*
X187914709Y-42250713D01*
X187904500Y-42320780D01*
X187904500Y-42784214D01*
X187914707Y-42854280D01*
X187914709Y-42854287D01*
X187936393Y-42898642D01*
X187939902Y-42955170D01*
X187908196Y-42994469D01*
X187854976Y-43026642D01*
X187741643Y-43139975D01*
X187658724Y-43277140D01*
X187611044Y-43430153D01*
X187611042Y-43430163D01*
X187605000Y-43496652D01*
X187605000Y-43497500D01*
X188351000Y-43497500D01*
X188403326Y-43519174D01*
X188425000Y-43571500D01*
X188425000Y-43747500D01*
X188601000Y-43747500D01*
X188653326Y-43769174D01*
X188675000Y-43821500D01*
X188675000Y-44601667D01*
X188704846Y-44598955D01*
X188857859Y-44551275D01*
X188990619Y-44471020D01*
X188990620Y-44471019D01*
X188995023Y-44468357D01*
X189108356Y-44355024D01*
X189191274Y-44217861D01*
X189199999Y-44189861D01*
X189200000Y-44189855D01*
X189200000Y-44139000D01*
X189221674Y-44086674D01*
X189274000Y-44065000D01*
X189980000Y-44065000D01*
X189980000Y-44565000D01*
X189280000Y-44565000D01*
X189280000Y-44963490D01*
X189318427Y-45156682D01*
X189318430Y-45156693D01*
X189393809Y-45338675D01*
X189503246Y-45502459D01*
X189642540Y-45641753D01*
X189806324Y-45751190D01*
X189988306Y-45826569D01*
X189988317Y-45826572D01*
X190029999Y-45834863D01*
X190030000Y-45834863D01*
X190530000Y-45834863D01*
X190571682Y-45826572D01*
X190571689Y-45826570D01*
X190717380Y-45766223D01*
X190774017Y-45766223D01*
X190798025Y-45782264D01*
X190848443Y-45832682D01*
X190989800Y-45916281D01*
X191147506Y-45962099D01*
X191150000Y-45962295D01*
X191150000Y-45140000D01*
X190530000Y-45140000D01*
X190530000Y-45834863D01*
X190030000Y-45834863D01*
X190030000Y-45031988D01*
X190039940Y-45049205D01*
X190095795Y-45105060D01*
X190164204Y-45144556D01*
X190240504Y-45165000D01*
X190319496Y-45165000D01*
X190395796Y-45144556D01*
X190464205Y-45105060D01*
X190520060Y-45049205D01*
X190559556Y-44980796D01*
X190580000Y-44904496D01*
X190580000Y-44640000D01*
X191326000Y-44640000D01*
X191378326Y-44661674D01*
X191400000Y-44714000D01*
X191400000Y-44890000D01*
X191576000Y-44890000D01*
X191628326Y-44911674D01*
X191650000Y-44964000D01*
X191650000Y-45962295D01*
X191652496Y-45962099D01*
X191683467Y-45953101D01*
X191739762Y-45959315D01*
X191775174Y-46003516D01*
X191775591Y-46043314D01*
X191751827Y-46132009D01*
X191749500Y-46140692D01*
X191749500Y-46259311D01*
X191780199Y-46373882D01*
X191780201Y-46373887D01*
X191839508Y-46476609D01*
X191839509Y-46476610D01*
X191839511Y-46476613D01*
X191923387Y-46560489D01*
X192026114Y-46619799D01*
X192026115Y-46619799D01*
X192026117Y-46619800D01*
X192083402Y-46635149D01*
X192140688Y-46650499D01*
X192140689Y-46650500D01*
X192140691Y-46650500D01*
X192259311Y-46650500D01*
X192259311Y-46650499D01*
X192373886Y-46619799D01*
X192476613Y-46560489D01*
X192560489Y-46476613D01*
X192619799Y-46373886D01*
X192650499Y-46259311D01*
X192650500Y-46259311D01*
X192650500Y-46140689D01*
X192650499Y-46140688D01*
X192648173Y-46132009D01*
X192625900Y-46048882D01*
X192619800Y-46026117D01*
X192619798Y-46026112D01*
X192581232Y-45959315D01*
X192560489Y-45923387D01*
X192560488Y-45923386D01*
X192547173Y-45910070D01*
X192525500Y-45857746D01*
X192525500Y-45693074D01*
X192547174Y-45640748D01*
X192599500Y-45619074D01*
X192640612Y-45631545D01*
X192667505Y-45649515D01*
X192747867Y-45665500D01*
X192952132Y-45665499D01*
X193032495Y-45649515D01*
X193058887Y-45631879D01*
X193114436Y-45620830D01*
X193141112Y-45631879D01*
X193167505Y-45649515D01*
X193247867Y-45665500D01*
X193452132Y-45665499D01*
X193461064Y-45663722D01*
X193468497Y-45665200D01*
X193475500Y-45662300D01*
X193495441Y-45670560D01*
X193516612Y-45674771D01*
X193520823Y-45681073D01*
X193527826Y-45683974D01*
X193536086Y-45703916D01*
X193548078Y-45721863D01*
X193549500Y-45736300D01*
X193549500Y-45829191D01*
X193527826Y-45881517D01*
X192081517Y-47327826D01*
X192029191Y-47349500D01*
X190137759Y-47349500D01*
X190085433Y-47327826D01*
X190071279Y-47308002D01*
X190064198Y-47293517D01*
X189981483Y-47210802D01*
X189981482Y-47210801D01*
X189876394Y-47159427D01*
X189808264Y-47149500D01*
X189808260Y-47149500D01*
X188716740Y-47149500D01*
X188716735Y-47149500D01*
X188648606Y-47159427D01*
X188648605Y-47159427D01*
X188543517Y-47210801D01*
X188460802Y-47293516D01*
X188460802Y-47293517D01*
X188453721Y-47308000D01*
X188411270Y-47345490D01*
X188387241Y-47349500D01*
X187862759Y-47349500D01*
X187810433Y-47327826D01*
X187796279Y-47308002D01*
X187789198Y-47293517D01*
X187706483Y-47210802D01*
X187706482Y-47210801D01*
X187601394Y-47159427D01*
X187533264Y-47149500D01*
X187533260Y-47149500D01*
X186441740Y-47149500D01*
X186441735Y-47149500D01*
X186373606Y-47159427D01*
X186373605Y-47159427D01*
X186268517Y-47210801D01*
X186185801Y-47293517D01*
X186134427Y-47398605D01*
X186134427Y-47398606D01*
X186134427Y-47398607D01*
X186130775Y-47423670D01*
X186101784Y-47472323D01*
X186057549Y-47487000D01*
X183552062Y-47487000D01*
X183472938Y-47487000D01*
X183396512Y-47507478D01*
X183396511Y-47507478D01*
X183396509Y-47507479D01*
X183396507Y-47507480D01*
X183327992Y-47547037D01*
X181040489Y-49834540D01*
X180984540Y-49890488D01*
X180944979Y-49959009D01*
X180944977Y-49959014D01*
X180924500Y-50035435D01*
X180924500Y-54276000D01*
X180902826Y-54328326D01*
X180892323Y-54332676D01*
X180875000Y-54350000D01*
X180875000Y-54821536D01*
X180874644Y-54828783D01*
X180874500Y-54830246D01*
X180575000Y-54830246D01*
X180575000Y-54350000D01*
X180527171Y-54350000D01*
X180467624Y-54356402D01*
X180467619Y-54356403D01*
X180332912Y-54406645D01*
X180332911Y-54406646D01*
X180217811Y-54492811D01*
X180131646Y-54607911D01*
X180131645Y-54607912D01*
X180081403Y-54742619D01*
X180081402Y-54742624D01*
X180075000Y-54802171D01*
X179675500Y-54802171D01*
X179675500Y-50115479D01*
X179697174Y-50063153D01*
X180813153Y-48947174D01*
X180865479Y-48925500D01*
X180957747Y-48925500D01*
X181010071Y-48947173D01*
X181023387Y-48960489D01*
X181126114Y-49019799D01*
X181126115Y-49019799D01*
X181126117Y-49019800D01*
X181183402Y-49035149D01*
X181240688Y-49050499D01*
X181240689Y-49050500D01*
X181240691Y-49050500D01*
X181359311Y-49050500D01*
X181359311Y-49050499D01*
X181473886Y-49019799D01*
X181576613Y-48960489D01*
X181660489Y-48876613D01*
X181719799Y-48773886D01*
X181750499Y-48659311D01*
X181750500Y-48659311D01*
X181750500Y-48540689D01*
X181750499Y-48540688D01*
X181719800Y-48426117D01*
X181719798Y-48426112D01*
X181671328Y-48342160D01*
X181660489Y-48323387D01*
X181660488Y-48323386D01*
X181647173Y-48310070D01*
X181625500Y-48257746D01*
X181625500Y-47607147D01*
X181616588Y-47573886D01*
X181616588Y-47573885D01*
X181603319Y-47524365D01*
X181603318Y-47524361D01*
X181590586Y-47502310D01*
X181560467Y-47450141D01*
X181560466Y-47450140D01*
X181560465Y-47450138D01*
X178282362Y-44172035D01*
X178282359Y-44172033D01*
X178282358Y-44172032D01*
X178208143Y-44129184D01*
X178208141Y-44129183D01*
X178208140Y-44129182D01*
X178208139Y-44129182D01*
X178125353Y-44107000D01*
X178125351Y-44107000D01*
X177803881Y-44107000D01*
X177792331Y-44102216D01*
X177779853Y-44102991D01*
X177767176Y-44091796D01*
X177751555Y-44085326D01*
X177737400Y-44065501D01*
X177705060Y-43999349D01*
X177704570Y-43998347D01*
X187605000Y-43998347D01*
X187611042Y-44064836D01*
X187611044Y-44064846D01*
X187658724Y-44217859D01*
X187741643Y-44355024D01*
X187854975Y-44468356D01*
X187992140Y-44551275D01*
X188145153Y-44598955D01*
X188175000Y-44601667D01*
X188175000Y-43997500D01*
X187605000Y-43997500D01*
X187605000Y-43998347D01*
X177704570Y-43998347D01*
X177698324Y-43985571D01*
X177614428Y-43901675D01*
X177614429Y-43901675D01*
X177507841Y-43849567D01*
X177438747Y-43839500D01*
X177438742Y-43839500D01*
X177061258Y-43839500D01*
X177061252Y-43839500D01*
X176992158Y-43849567D01*
X176885571Y-43901675D01*
X176801675Y-43985571D01*
X176754045Y-44083001D01*
X176711592Y-44120491D01*
X176687564Y-44124500D01*
X175633250Y-44124500D01*
X175580924Y-44102826D01*
X175559250Y-44050500D01*
X175559250Y-43430253D01*
X175553232Y-43400000D01*
X175547617Y-43371769D01*
X175542648Y-43364333D01*
X175532777Y-43349560D01*
X175503302Y-43305448D01*
X175460931Y-43277136D01*
X175436982Y-43261133D01*
X175436983Y-43261133D01*
X175407739Y-43255316D01*
X175378498Y-43249500D01*
X173082250Y-43249500D01*
X173029924Y-43227826D01*
X173018502Y-43200252D01*
X173008250Y-43190000D01*
X172048250Y-43190000D01*
X172048250Y-43690000D01*
X172359250Y-43690000D01*
X172411576Y-43711674D01*
X172433250Y-43764000D01*
X172433250Y-43895500D01*
X172411576Y-43947826D01*
X172359250Y-43969500D01*
X171089002Y-43969500D01*
X171059760Y-43975316D01*
X171030517Y-43981133D01*
X170964199Y-44025447D01*
X170964197Y-44025449D01*
X170919883Y-44091767D01*
X170915361Y-44114501D01*
X170908250Y-44150252D01*
X170908250Y-44749748D01*
X170916005Y-44788736D01*
X170919883Y-44808232D01*
X170949358Y-44852343D01*
X170964198Y-44874552D01*
X171005016Y-44901826D01*
X171030517Y-44918866D01*
X171030518Y-44918866D01*
X171030519Y-44918867D01*
X171089002Y-44930500D01*
X172359250Y-44930500D01*
X172411576Y-44952174D01*
X172433250Y-45004500D01*
X172433250Y-45435500D01*
X172411576Y-45487826D01*
X172359250Y-45509500D01*
X171088502Y-45509500D01*
X171063325Y-45514508D01*
X171030017Y-45521133D01*
X170963699Y-45565447D01*
X170963697Y-45565449D01*
X170919383Y-45631767D01*
X170913310Y-45662300D01*
X170907750Y-45690252D01*
X170907750Y-46209748D01*
X170912870Y-46235489D01*
X170919383Y-46268232D01*
X170940945Y-46300500D01*
X170963698Y-46334552D01*
X170998657Y-46357911D01*
X171030017Y-46378866D01*
X171030018Y-46378866D01*
X171030019Y-46378867D01*
X171088502Y-46390500D01*
X171389250Y-46390500D01*
X171441576Y-46412174D01*
X171463250Y-46464500D01*
X171463250Y-47933288D01*
X171441576Y-47985614D01*
X171389250Y-48007288D01*
X171336924Y-47985614D01*
X171274645Y-47923335D01*
X171132200Y-47839093D01*
X170973281Y-47792922D01*
X170936149Y-47790000D01*
X170907500Y-47790000D01*
X170907500Y-49410000D01*
X170936149Y-49410000D01*
X170973281Y-49407077D01*
X171132200Y-49360906D01*
X171274645Y-49276664D01*
X171336924Y-49214386D01*
X171389250Y-49192712D01*
X171441576Y-49214386D01*
X171463250Y-49266712D01*
X171463250Y-50145771D01*
X171441576Y-50198097D01*
X159139532Y-62500141D01*
X159096681Y-62574361D01*
X159096682Y-62574362D01*
X159074500Y-62657147D01*
X158780500Y-62657147D01*
X158780500Y-52083451D01*
X159295500Y-52083451D01*
X159295500Y-52326548D01*
X159327230Y-52567569D01*
X159390149Y-52802387D01*
X159483179Y-53026980D01*
X159483180Y-53026983D01*
X159504618Y-53064114D01*
X159604731Y-53237516D01*
X159752722Y-53430380D01*
X159924620Y-53602278D01*
X160117484Y-53750269D01*
X160328016Y-53871819D01*
X160552612Y-53964850D01*
X160787429Y-54027769D01*
X161028450Y-54059500D01*
X161028452Y-54059500D01*
X161271548Y-54059500D01*
X161271550Y-54059500D01*
X161512571Y-54027769D01*
X161747388Y-53964850D01*
X161971984Y-53871819D01*
X162182516Y-53750269D01*
X162375380Y-53602278D01*
X162547278Y-53430380D01*
X162695269Y-53237516D01*
X162816819Y-53026984D01*
X162909850Y-52802388D01*
X162972769Y-52567571D01*
X163004500Y-52326550D01*
X163004500Y-52083450D01*
X162972769Y-51842429D01*
X162909850Y-51607612D01*
X162816819Y-51383016D01*
X162695269Y-51172484D01*
X162547278Y-50979620D01*
X162375380Y-50807722D01*
X162182516Y-50659731D01*
X162182517Y-50659731D01*
X162182515Y-50659730D01*
X161971983Y-50538180D01*
X161971980Y-50538179D01*
X161747387Y-50445149D01*
X161512569Y-50382230D01*
X161335010Y-50358854D01*
X161271550Y-50350500D01*
X161028450Y-50350500D01*
X160972372Y-50357882D01*
X160787430Y-50382230D01*
X160552612Y-50445149D01*
X160328019Y-50538179D01*
X160328016Y-50538180D01*
X160117484Y-50659730D01*
X159924615Y-50807726D01*
X159752726Y-50979615D01*
X159604730Y-51172484D01*
X159483180Y-51383016D01*
X159483179Y-51383019D01*
X159390149Y-51607612D01*
X159327230Y-51842430D01*
X159295500Y-52083451D01*
X158780500Y-52083451D01*
X158780500Y-48097828D01*
X159900000Y-48097828D01*
X159906402Y-48157375D01*
X159906403Y-48157380D01*
X159956645Y-48292087D01*
X159956646Y-48292088D01*
X160042811Y-48407188D01*
X160157911Y-48493353D01*
X160157912Y-48493354D01*
X160292619Y-48543596D01*
X160292624Y-48543597D01*
X160352171Y-48550000D01*
X160650000Y-48550000D01*
X160650000Y-47575000D01*
X159900000Y-47575000D01*
X159900000Y-48097828D01*
X158780500Y-48097828D01*
X158780500Y-46552171D01*
X159900000Y-46552171D01*
X159900000Y-47075000D01*
X160650000Y-47075000D01*
X160650000Y-46100000D01*
X160352171Y-46100000D01*
X160292624Y-46106402D01*
X160292619Y-46106403D01*
X160157912Y-46156645D01*
X160157911Y-46156646D01*
X160042811Y-46242811D01*
X159956646Y-46357911D01*
X159956645Y-46357912D01*
X159906403Y-46492619D01*
X159906402Y-46492624D01*
X159900000Y-46552171D01*
X158780500Y-46552171D01*
X158780500Y-42947828D01*
X159900000Y-42947828D01*
X159906402Y-43007375D01*
X159906403Y-43007380D01*
X159956645Y-43142087D01*
X159956646Y-43142088D01*
X160042811Y-43257188D01*
X160157911Y-43343353D01*
X160157912Y-43343354D01*
X160292619Y-43393596D01*
X160292624Y-43393597D01*
X160352171Y-43400000D01*
X160650000Y-43400000D01*
X161150000Y-43400000D01*
X161447829Y-43400000D01*
X161507375Y-43393597D01*
X161507380Y-43393596D01*
X161642087Y-43343354D01*
X161642088Y-43343353D01*
X161757188Y-43257188D01*
X161843352Y-43142089D01*
X161862153Y-43091682D01*
X161900746Y-43050229D01*
X161957347Y-43048206D01*
X161972594Y-43056009D01*
X162021769Y-43088867D01*
X162080252Y-43100500D01*
X162880233Y-43100500D01*
X162932559Y-43122174D01*
X163283943Y-43473558D01*
X163361442Y-43551057D01*
X163462700Y-43593000D01*
X165033897Y-43593000D01*
X165086223Y-43614674D01*
X165100378Y-43634499D01*
X165151675Y-43739428D01*
X165151676Y-43739429D01*
X165235571Y-43823324D01*
X165283001Y-43846511D01*
X165320491Y-43888964D01*
X165324500Y-43912992D01*
X165324500Y-45263997D01*
X165302826Y-45316323D01*
X165283002Y-45330477D01*
X165227627Y-45357549D01*
X165227626Y-45357550D01*
X165142551Y-45442624D01*
X165097146Y-45535501D01*
X165054692Y-45572991D01*
X165030665Y-45577000D01*
X163792700Y-45577000D01*
X163727039Y-45604198D01*
X163727038Y-45604198D01*
X163691443Y-45618941D01*
X163691440Y-45618943D01*
X162932559Y-46377826D01*
X162880233Y-46399500D01*
X162080252Y-46399500D01*
X162051010Y-46405316D01*
X162021767Y-46411133D01*
X161972601Y-46443986D01*
X161917052Y-46455036D01*
X161869960Y-46423571D01*
X161862154Y-46408318D01*
X161843354Y-46357912D01*
X161843353Y-46357911D01*
X161757188Y-46242811D01*
X161642088Y-46156646D01*
X161642087Y-46156645D01*
X161507380Y-46106403D01*
X161507375Y-46106402D01*
X161447829Y-46100000D01*
X161150000Y-46100000D01*
X161150000Y-48550000D01*
X161447829Y-48550000D01*
X161507375Y-48543597D01*
X161507380Y-48543596D01*
X161642087Y-48493354D01*
X161642088Y-48493353D01*
X161757188Y-48407188D01*
X161843352Y-48292089D01*
X161862153Y-48241682D01*
X161900746Y-48200229D01*
X161957347Y-48198206D01*
X161972594Y-48206009D01*
X162021769Y-48238867D01*
X162080252Y-48250500D01*
X162080254Y-48250500D01*
X163119746Y-48250500D01*
X163119748Y-48250500D01*
X163178231Y-48238867D01*
X163244552Y-48194552D01*
X163288867Y-48128231D01*
X163300500Y-48069748D01*
X163300500Y-46819767D01*
X163322174Y-46767441D01*
X163939942Y-46149674D01*
X163992268Y-46128000D01*
X165030666Y-46128000D01*
X165082992Y-46149674D01*
X165097144Y-46169495D01*
X165142551Y-46262375D01*
X165227625Y-46347449D01*
X165289762Y-46377826D01*
X165301407Y-46383519D01*
X165338897Y-46425973D01*
X165335387Y-46482501D01*
X165301407Y-46516481D01*
X165227624Y-46552551D01*
X165142551Y-46637624D01*
X165089709Y-46745713D01*
X165079500Y-46815780D01*
X165079500Y-47279214D01*
X165089707Y-47349280D01*
X165089708Y-47349284D01*
X165126073Y-47423669D01*
X165142551Y-47457375D01*
X165227625Y-47542449D01*
X165232997Y-47545075D01*
X165270489Y-47587525D01*
X165274500Y-47611557D01*
X165274500Y-53332746D01*
X165252827Y-53385070D01*
X165239511Y-53398386D01*
X165239509Y-53398389D01*
X165180201Y-53501112D01*
X165180199Y-53501117D01*
X165149500Y-53615688D01*
X165149500Y-53734311D01*
X165180199Y-53848882D01*
X165180201Y-53848887D01*
X165239508Y-53951609D01*
X165239509Y-53951610D01*
X165239511Y-53951613D01*
X165323387Y-54035489D01*
X165323389Y-54035490D01*
X165323390Y-54035491D01*
X165387297Y-54072388D01*
X165426114Y-54094799D01*
X165426115Y-54094799D01*
X165426117Y-54094800D01*
X165474630Y-54107799D01*
X165540688Y-54125499D01*
X165540689Y-54125500D01*
X165540691Y-54125500D01*
X165659311Y-54125500D01*
X165659311Y-54125499D01*
X165773886Y-54094799D01*
X165876613Y-54035489D01*
X165960489Y-53951613D01*
X166019799Y-53848886D01*
X166050499Y-53734311D01*
X166050500Y-53734311D01*
X166050500Y-53615689D01*
X166050499Y-53615688D01*
X166046904Y-53602273D01*
X166019799Y-53501114D01*
X165960489Y-53398387D01*
X165960488Y-53398386D01*
X165947173Y-53385070D01*
X165925500Y-53332746D01*
X165925500Y-48850000D01*
X169792270Y-48850000D01*
X169792922Y-48858276D01*
X169792922Y-48858278D01*
X169839093Y-49017200D01*
X169923335Y-49159645D01*
X170040354Y-49276664D01*
X170182799Y-49360906D01*
X170341718Y-49407077D01*
X170378851Y-49410000D01*
X170407500Y-49410000D01*
X170407500Y-48850000D01*
X169792270Y-48850000D01*
X165925500Y-48850000D01*
X165925500Y-48350000D01*
X169792270Y-48350000D01*
X170407500Y-48350000D01*
X170407500Y-47790000D01*
X170378851Y-47790000D01*
X170341718Y-47792922D01*
X170182799Y-47839093D01*
X170040354Y-47923335D01*
X169923335Y-48040354D01*
X169839093Y-48182799D01*
X169792922Y-48341721D01*
X169792922Y-48341723D01*
X169792270Y-48350000D01*
X165925500Y-48350000D01*
X165925500Y-47611557D01*
X165947174Y-47559231D01*
X165967000Y-47545076D01*
X165972375Y-47542449D01*
X166057449Y-47457375D01*
X166110291Y-47349286D01*
X166120500Y-47279215D01*
X166120499Y-46815786D01*
X166110291Y-46745714D01*
X166057449Y-46637625D01*
X165972375Y-46552551D01*
X165970671Y-46551718D01*
X165898592Y-46516480D01*
X165861102Y-46474026D01*
X165864612Y-46417498D01*
X165898590Y-46383520D01*
X165972375Y-46347449D01*
X166057449Y-46262375D01*
X166102854Y-46169499D01*
X166145308Y-46132009D01*
X166169335Y-46128000D01*
X168385246Y-46128000D01*
X168437572Y-46149674D01*
X168439510Y-46151612D01*
X168439511Y-46151613D01*
X168523387Y-46235489D01*
X168523389Y-46235490D01*
X168523390Y-46235491D01*
X168596716Y-46277826D01*
X168626114Y-46294799D01*
X168626115Y-46294799D01*
X168626117Y-46294800D01*
X168643658Y-46299500D01*
X168740688Y-46325499D01*
X168740689Y-46325500D01*
X168740691Y-46325500D01*
X168859311Y-46325500D01*
X168859311Y-46325499D01*
X168973886Y-46294799D01*
X169076613Y-46235489D01*
X169160489Y-46151613D01*
X169219799Y-46048886D01*
X169250499Y-45934311D01*
X169250500Y-45934311D01*
X169250500Y-45815689D01*
X169250499Y-45815688D01*
X169219800Y-45701117D01*
X169219798Y-45701112D01*
X169160491Y-45598390D01*
X169160490Y-45598389D01*
X169160489Y-45598387D01*
X169076613Y-45514511D01*
X169076610Y-45514509D01*
X169076609Y-45514508D01*
X168973887Y-45455201D01*
X168973882Y-45455199D01*
X168859311Y-45424500D01*
X168859309Y-45424500D01*
X168740691Y-45424500D01*
X168740689Y-45424500D01*
X168626117Y-45455199D01*
X168626112Y-45455201D01*
X168523389Y-45514509D01*
X168523386Y-45514511D01*
X168482571Y-45555326D01*
X168430246Y-45577000D01*
X166169334Y-45577000D01*
X166117008Y-45555326D01*
X166102855Y-45535504D01*
X166057449Y-45442625D01*
X165972375Y-45357551D01*
X165972374Y-45357550D01*
X165972372Y-45357549D01*
X165916998Y-45330477D01*
X165879509Y-45288024D01*
X165875500Y-45263997D01*
X165875500Y-43912992D01*
X165897174Y-43860666D01*
X165916997Y-43846511D01*
X165964429Y-43823324D01*
X166048324Y-43739429D01*
X166100433Y-43632840D01*
X166110500Y-43563742D01*
X166110500Y-43237828D01*
X170608250Y-43237828D01*
X170614652Y-43297375D01*
X170614653Y-43297380D01*
X170664895Y-43432087D01*
X170664896Y-43432088D01*
X170751061Y-43547188D01*
X170866161Y-43633353D01*
X170866162Y-43633354D01*
X171000869Y-43683596D01*
X171000874Y-43683597D01*
X171060421Y-43690000D01*
X171568250Y-43690000D01*
X171568250Y-43190000D01*
X170608250Y-43190000D01*
X170608250Y-43237828D01*
X166110500Y-43237828D01*
X166110500Y-43071258D01*
X166100815Y-43004787D01*
X166114718Y-42949886D01*
X166136376Y-42930424D01*
X166159646Y-42916663D01*
X166276664Y-42799645D01*
X166357966Y-42662171D01*
X170608250Y-42662171D01*
X170608250Y-42710000D01*
X171568250Y-42710000D01*
X172048250Y-42710000D01*
X173008250Y-42710000D01*
X173008250Y-42662171D01*
X173001847Y-42602624D01*
X173001846Y-42602619D01*
X172951604Y-42467912D01*
X172951603Y-42467911D01*
X172865438Y-42352811D01*
X172750338Y-42266646D01*
X172750337Y-42266645D01*
X172615630Y-42216403D01*
X172615625Y-42216402D01*
X172556079Y-42210000D01*
X172048250Y-42210000D01*
X172048250Y-42710000D01*
X171568250Y-42710000D01*
X171568250Y-42210000D01*
X171060421Y-42210000D01*
X171000874Y-42216402D01*
X171000869Y-42216403D01*
X170866162Y-42266645D01*
X170866161Y-42266646D01*
X170751061Y-42352811D01*
X170664896Y-42467911D01*
X170664895Y-42467912D01*
X170614653Y-42602619D01*
X170614652Y-42602624D01*
X170608250Y-42662171D01*
X166357966Y-42662171D01*
X166360906Y-42657200D01*
X166366036Y-42639544D01*
X166407077Y-42498281D01*
X166410000Y-42461149D01*
X166410000Y-42432500D01*
X164790000Y-42432500D01*
X164790000Y-42461149D01*
X164792922Y-42498281D01*
X164839093Y-42657200D01*
X164923335Y-42799645D01*
X165039364Y-42915674D01*
X165061038Y-42968000D01*
X165039364Y-43020326D01*
X164987038Y-43042000D01*
X163662267Y-43042000D01*
X163609941Y-43020326D01*
X163322174Y-42732559D01*
X163300500Y-42680233D01*
X163300500Y-41903850D01*
X164790000Y-41903850D01*
X164790000Y-41932500D01*
X165350000Y-41932500D01*
X165850000Y-41932500D01*
X166410000Y-41932500D01*
X166410000Y-41903850D01*
X166407077Y-41866718D01*
X166360906Y-41707799D01*
X166276664Y-41565354D01*
X166159645Y-41448335D01*
X166017200Y-41364093D01*
X165858277Y-41317922D01*
X165850000Y-41317270D01*
X165850000Y-41932500D01*
X165350000Y-41932500D01*
X165350000Y-41317270D01*
X165341723Y-41317922D01*
X165341721Y-41317922D01*
X165182799Y-41364093D01*
X165040354Y-41448335D01*
X164923335Y-41565354D01*
X164839093Y-41707799D01*
X164792922Y-41866718D01*
X164790000Y-41903850D01*
X163300500Y-41903850D01*
X163300500Y-41430253D01*
X163294914Y-41402171D01*
X163288867Y-41371769D01*
X163244552Y-41305448D01*
X163222343Y-41290608D01*
X163178232Y-41261133D01*
X163178233Y-41261133D01*
X163148989Y-41255316D01*
X163119748Y-41249500D01*
X162080252Y-41249500D01*
X162051010Y-41255316D01*
X162021767Y-41261133D01*
X161972601Y-41293986D01*
X161917052Y-41305036D01*
X161869960Y-41273571D01*
X161862154Y-41258318D01*
X161843354Y-41207912D01*
X161843353Y-41207911D01*
X161757188Y-41092811D01*
X161642088Y-41006646D01*
X161642087Y-41006645D01*
X161507380Y-40956403D01*
X161507375Y-40956402D01*
X161447829Y-40950000D01*
X161150000Y-40950000D01*
X161150000Y-43400000D01*
X160650000Y-43400000D01*
X160650000Y-42425000D01*
X159900000Y-42425000D01*
X159900000Y-42947828D01*
X158780500Y-42947828D01*
X158780500Y-41402171D01*
X159900000Y-41402171D01*
X159900000Y-41925000D01*
X160650000Y-41925000D01*
X160650000Y-40950000D01*
X160352171Y-40950000D01*
X160292624Y-40956402D01*
X160292619Y-40956403D01*
X160157912Y-41006645D01*
X160157911Y-41006646D01*
X160042811Y-41092811D01*
X159956646Y-41207911D01*
X159956645Y-41207912D01*
X159906403Y-41342619D01*
X159906402Y-41342624D01*
X159900000Y-41402171D01*
X158780500Y-41402171D01*
X158780500Y-39636509D01*
X189280000Y-39636509D01*
X189280000Y-39885000D01*
X189980000Y-39885000D01*
X189980000Y-40385000D01*
X189280000Y-40385000D01*
X189280000Y-40633490D01*
X189318427Y-40826682D01*
X189318430Y-40826693D01*
X189393809Y-41008675D01*
X189503246Y-41172459D01*
X189642540Y-41311753D01*
X189806324Y-41421190D01*
X189988306Y-41496569D01*
X189988317Y-41496572D01*
X190029999Y-41504863D01*
X190030000Y-41504863D01*
X190030000Y-40701988D01*
X190039940Y-40719205D01*
X190095795Y-40775060D01*
X190164204Y-40814556D01*
X190240504Y-40835000D01*
X190319496Y-40835000D01*
X190395796Y-40814556D01*
X190464205Y-40775060D01*
X190520060Y-40719205D01*
X190530000Y-40701988D01*
X190530000Y-41504863D01*
X190571682Y-41496572D01*
X190571693Y-41496569D01*
X190753675Y-41421190D01*
X190917459Y-41311753D01*
X191056753Y-41172459D01*
X191166190Y-41008675D01*
X191241569Y-40826693D01*
X191241572Y-40826682D01*
X191280000Y-40633490D01*
X191280000Y-40385000D01*
X190580000Y-40385000D01*
X190580000Y-39885000D01*
X191280000Y-39885000D01*
X191280000Y-39636509D01*
X197920000Y-39636509D01*
X197920000Y-39885000D01*
X198620000Y-39885000D01*
X198620000Y-40385000D01*
X197920000Y-40385000D01*
X197920000Y-40633490D01*
X197958427Y-40826682D01*
X197958430Y-40826693D01*
X198033809Y-41008675D01*
X198143246Y-41172459D01*
X198282540Y-41311753D01*
X198446324Y-41421190D01*
X198628306Y-41496569D01*
X198628317Y-41496572D01*
X198669999Y-41504863D01*
X198670000Y-41504863D01*
X198670000Y-40701988D01*
X198679940Y-40719205D01*
X198735795Y-40775060D01*
X198804204Y-40814556D01*
X198880504Y-40835000D01*
X198959496Y-40835000D01*
X199035796Y-40814556D01*
X199104205Y-40775060D01*
X199160060Y-40719205D01*
X199170000Y-40701988D01*
X199170000Y-41504863D01*
X199211682Y-41496572D01*
X199211693Y-41496569D01*
X199393675Y-41421190D01*
X199557459Y-41311753D01*
X199696753Y-41172459D01*
X199806190Y-41008675D01*
X199881569Y-40826693D01*
X199881572Y-40826682D01*
X199920000Y-40633490D01*
X199920000Y-40385000D01*
X199220000Y-40385000D01*
X199220000Y-39885000D01*
X199920000Y-39885000D01*
X199920000Y-39636509D01*
X199881572Y-39443317D01*
X199881569Y-39443306D01*
X199806190Y-39261324D01*
X199696753Y-39097540D01*
X199557459Y-38958246D01*
X199393675Y-38848809D01*
X199211691Y-38773429D01*
X199211684Y-38773427D01*
X199170000Y-38765136D01*
X199170000Y-39568011D01*
X199160060Y-39550795D01*
X199104205Y-39494940D01*
X199035796Y-39455444D01*
X198959496Y-39435000D01*
X198880504Y-39435000D01*
X198804204Y-39455444D01*
X198735795Y-39494940D01*
X198679940Y-39550795D01*
X198670000Y-39568011D01*
X198670000Y-38765136D01*
X198669999Y-38765136D01*
X198628315Y-38773427D01*
X198628308Y-38773429D01*
X198446324Y-38848809D01*
X198282540Y-38958246D01*
X198143246Y-39097540D01*
X198033809Y-39261324D01*
X197958430Y-39443306D01*
X197958427Y-39443317D01*
X197920000Y-39636509D01*
X191280000Y-39636509D01*
X191241572Y-39443317D01*
X191241569Y-39443306D01*
X191166190Y-39261324D01*
X191056753Y-39097540D01*
X190917459Y-38958246D01*
X190753675Y-38848809D01*
X190571691Y-38773429D01*
X190571684Y-38773427D01*
X190530000Y-38765136D01*
X190530000Y-39568011D01*
X190520060Y-39550795D01*
X190464205Y-39494940D01*
X190395796Y-39455444D01*
X190319496Y-39435000D01*
X190240504Y-39435000D01*
X190164204Y-39455444D01*
X190095795Y-39494940D01*
X190039940Y-39550795D01*
X190030000Y-39568011D01*
X190030000Y-38765136D01*
X190029999Y-38765136D01*
X189988315Y-38773427D01*
X189988308Y-38773429D01*
X189806324Y-38848809D01*
X189642540Y-38958246D01*
X189503246Y-39097540D01*
X189393809Y-39261324D01*
X189318430Y-39443306D01*
X189318427Y-39443317D01*
X189280000Y-39636509D01*
X158780500Y-39636509D01*
X158780500Y-38610824D01*
X158781411Y-38599249D01*
X158782866Y-38590055D01*
X158788431Y-38554923D01*
X158795583Y-38532911D01*
X158813282Y-38498175D01*
X158826884Y-38479453D01*
X158854453Y-38451884D01*
X158873175Y-38438282D01*
X158907911Y-38420583D01*
X158929923Y-38413431D01*
X158965055Y-38407866D01*
X158974249Y-38406411D01*
X158985824Y-38405500D01*
X159027595Y-38405500D01*
X202510438Y-38405500D01*
X211532405Y-38405500D01*
X211574176Y-38405500D01*
X211585751Y-38406411D01*
G37*
%TD.AperFunction*%
%TD*%
M02*
