%TF.GenerationSoftware,KiCad,Pcbnew,9.0.4*%
%TF.CreationDate,2025-08-29T15:54:18+02:00*%
%TF.ProjectId,M.2_Arduino_Module_Board,4d2e325f-4172-4647-9569-6e6f5f4d6f64,rev?*%
%TF.SameCoordinates,Original*%
%TF.FileFunction,Copper,L2,Bot*%
%TF.FilePolarity,Positive*%
%FSLAX46Y46*%
G04 Gerber Fmt 4.6, Leading zero omitted, Abs format (unit mm)*
G04 Created by KiCad (PCBNEW 9.0.4) date 2025-08-29 15:54:18*
%MOMM*%
%LPD*%
G01*
G04 APERTURE LIST*
G04 Aperture macros list*
%AMRoundRect*
0 Rectangle with rounded corners*
0 $1 Rounding radius*
0 $2 $3 $4 $5 $6 $7 $8 $9 X,Y pos of 4 corners*
0 Add a 4 corners polygon primitive as box body*
4,1,4,$2,$3,$4,$5,$6,$7,$8,$9,$2,$3,0*
0 Add four circle primitives for the rounded corners*
1,1,$1+$1,$2,$3*
1,1,$1+$1,$4,$5*
1,1,$1+$1,$6,$7*
1,1,$1+$1,$8,$9*
0 Add four rect primitives between the rounded corners*
20,1,$1+$1,$2,$3,$4,$5,0*
20,1,$1+$1,$4,$5,$6,$7,0*
20,1,$1+$1,$6,$7,$8,$9,0*
20,1,$1+$1,$8,$9,$2,$3,0*%
G04 Aperture macros list end*
%TA.AperFunction,ComponentPad*%
%ADD10R,1.600000X1.600000*%
%TD*%
%TA.AperFunction,ComponentPad*%
%ADD11O,1.600000X1.600000*%
%TD*%
%TA.AperFunction,SMDPad,CuDef*%
%ADD12RoundRect,0.160000X-0.197500X-0.160000X0.197500X-0.160000X0.197500X0.160000X-0.197500X0.160000X0*%
%TD*%
%TA.AperFunction,ComponentPad*%
%ADD13O,1.000000X2.100000*%
%TD*%
%TA.AperFunction,ComponentPad*%
%ADD14O,1.000000X1.800000*%
%TD*%
%TA.AperFunction,ViaPad*%
%ADD15C,0.500000*%
%TD*%
%TA.AperFunction,Conductor*%
%ADD16C,0.250000*%
%TD*%
%TA.AperFunction,Conductor*%
%ADD17C,0.150000*%
%TD*%
G04 APERTURE END LIST*
D10*
%TO.P,A1,1,NC*%
%TO.N,unconnected-(A1-NC-Pad1)*%
X161150000Y-66175000D03*
D11*
%TO.P,A1,2,IOREF*%
%TO.N,+3V3*%
X161150000Y-68715000D03*
%TO.P,A1,3,~{RESET}*%
%TO.N,/CHIP_PU*%
X161150000Y-71255000D03*
%TO.P,A1,4,3V3*%
%TO.N,+3V3*%
X161150000Y-73795000D03*
%TO.P,A1,5,+5V*%
%TO.N,+5V*%
X161150000Y-76335000D03*
%TO.P,A1,6,GND*%
%TO.N,Earth*%
X161150000Y-78875000D03*
%TO.P,A1,7,GND*%
X161150000Y-81415000D03*
%TO.P,A1,8,VIN*%
%TO.N,VBUS*%
X161150000Y-83955000D03*
%TO.P,A1,9,A0*%
%TO.N,/GPIO6*%
X161150000Y-89035000D03*
%TO.P,A1,10,A1*%
%TO.N,/GPIO5*%
X161150000Y-91575000D03*
%TO.P,A1,11,A2*%
%TO.N,/GPIO4*%
X161150000Y-94115000D03*
%TO.P,A1,12,A3*%
%TO.N,/GPIO3*%
X161150000Y-96655000D03*
%TO.P,A1,13,SDA/A4*%
%TO.N,/GPIO2*%
X161150000Y-99195000D03*
%TO.P,A1,14,SCL/A5*%
%TO.N,/GPIO1*%
X161150000Y-101735000D03*
%TO.P,A1,15,D0/RX*%
%TO.N,/U0RXD*%
X209410000Y-101735000D03*
%TO.P,A1,16,D1/TX*%
%TO.N,/U0TXD*%
X209410000Y-99195000D03*
%TO.P,A1,17,D2*%
%TO.N,/GPIO17*%
X209410000Y-96655000D03*
%TO.P,A1,18,D3*%
%TO.N,/GPIO18*%
X209410000Y-94115000D03*
%TO.P,A1,19,D4*%
%TO.N,/GPIO33*%
X209410000Y-91575000D03*
%TO.P,A1,20,D5*%
%TO.N,/GPIO34*%
X209410000Y-89035000D03*
%TO.P,A1,21,D6*%
%TO.N,/GPIO35*%
X209410000Y-86495000D03*
%TO.P,A1,22,D7*%
%TO.N,/GPIO36*%
X209410000Y-83955000D03*
%TO.P,A1,23,D8*%
%TO.N,/GPIO12*%
X209410000Y-79895000D03*
%TO.P,A1,24,D9*%
%TO.N,/GPIO11*%
X209410000Y-77355000D03*
%TO.P,A1,25,D10*%
%TO.N,/GPIO10*%
X209410000Y-74815000D03*
%TO.P,A1,26,D11*%
%TO.N,/GPIO9*%
X209410000Y-72275000D03*
%TO.P,A1,27,D12*%
%TO.N,/GPIO8*%
X209410000Y-69735000D03*
%TO.P,A1,28,D13*%
%TO.N,/GPIO7*%
X209410000Y-67195000D03*
%TO.P,A1,29,GND*%
%TO.N,Earth*%
X209410000Y-64655000D03*
%TO.P,A1,30,AREF*%
%TO.N,+3V3*%
X209410000Y-62115000D03*
%TO.P,A1,31,SDA/A4*%
%TO.N,/GPIO2*%
X209410000Y-59575000D03*
%TO.P,A1,32,SCL/A5*%
%TO.N,/GPIO1*%
X209410000Y-57035000D03*
%TD*%
D12*
%TO.P,R8,1*%
%TO.N,+3V3*%
X206352500Y-59575000D03*
%TO.P,R8,2*%
%TO.N,/GPIO2*%
X207547500Y-59575000D03*
%TD*%
D13*
%TO.P,J1,S1,SHIELD*%
%TO.N,Earth*%
X198920000Y-44315000D03*
D14*
X198920000Y-40135000D03*
D13*
X190280000Y-44315000D03*
D14*
X190280000Y-40135000D03*
%TD*%
D12*
%TO.P,R9,1*%
%TO.N,+3V3*%
X206352500Y-57025000D03*
%TO.P,R9,2*%
%TO.N,/GPIO1*%
X207547500Y-57025000D03*
%TD*%
D15*
%TO.N,/GPIO45*%
X199250000Y-58450000D03*
%TO.N,+3V3*%
X178425000Y-47400000D03*
X165600000Y-53675000D03*
X205125000Y-41975000D03*
X202575000Y-57125000D03*
%TO.N,Earth*%
X185225001Y-54125001D03*
X190775000Y-48625000D03*
X187700000Y-54125000D03*
X209750000Y-48800000D03*
X169750000Y-42975000D03*
X177275000Y-46550000D03*
X186725000Y-54125000D03*
X205100000Y-47800000D03*
X209725000Y-43450000D03*
%TO.N,VBUS*%
X192200000Y-46200000D03*
X185475000Y-48600000D03*
X197000000Y-46200000D03*
X181300000Y-48600000D03*
%TO.N,/U0TXD*%
X195550000Y-69699998D03*
%TO.N,/GPIO1*%
X192250000Y-53750000D03*
%TO.N,/CHIP_BOOT*%
X193250000Y-57000000D03*
X202325000Y-45750000D03*
%TO.N,/GPIO45*%
X197125000Y-63575000D03*
%TO.N,/GPIO5*%
X189224999Y-57100000D03*
%TO.N,/U0RXD*%
X195000000Y-68100000D03*
%TO.N,/GPIO2*%
X191750001Y-54224999D03*
%TO.N,/GPIO6*%
X188725000Y-54200000D03*
%TO.N,/CHIP_PU*%
X168800000Y-45875000D03*
X193750000Y-54050000D03*
%TO.N,/GPIO4*%
X190225001Y-53775001D03*
%TO.N,/GPIO3*%
X190725001Y-57075000D03*
%TD*%
D16*
%TO.N,+3V3*%
X205025000Y-59575000D02*
X202575000Y-57125000D01*
X206352500Y-59575000D02*
X205025000Y-59575000D01*
X206400000Y-53300000D02*
X202575000Y-57125000D01*
X205125000Y-41975000D02*
X206400000Y-43250000D01*
X206400000Y-43250000D02*
X206400000Y-53300000D01*
D17*
%TO.N,/GPIO45*%
X199250000Y-61450000D02*
X199250000Y-58450000D01*
X197125000Y-63575000D02*
X199250000Y-61450000D01*
D16*
%TO.N,+3V3*%
X206352500Y-57050000D02*
X206377500Y-57025000D01*
X206352500Y-59575000D02*
X206352500Y-57050000D01*
D17*
%TO.N,/GPIO2*%
X207547500Y-59575000D02*
X209410000Y-59575000D01*
%TO.N,/GPIO1*%
X209400000Y-57025000D02*
X209410000Y-57035000D01*
X207572500Y-57025000D02*
X209400000Y-57025000D01*
%TO.N,/CHIP_BOOT*%
X202325000Y-47925000D02*
X202325000Y-45750000D01*
X193250000Y-57000000D02*
X202325000Y-47925000D01*
%TO.N,/CHIP_PU*%
X168800000Y-47950000D02*
X168800000Y-45875000D01*
X174950000Y-52200000D02*
X173050000Y-52200000D01*
X173050000Y-52200000D02*
X168800000Y-47950000D01*
%TO.N,/GPIO4*%
X165035000Y-94115000D02*
X161150000Y-94115000D01*
X190225001Y-68924999D02*
X165035000Y-94115000D01*
X190225001Y-53775001D02*
X190225001Y-68924999D01*
%TO.N,/GPIO5*%
X164325000Y-91575000D02*
X161150000Y-91575000D01*
X189224999Y-66675001D02*
X164325000Y-91575000D01*
X189224999Y-57100000D02*
X189224999Y-66675001D01*
%TO.N,/GPIO3*%
X190725001Y-70924999D02*
X164995000Y-96655000D01*
X164995000Y-96655000D02*
X161150000Y-96655000D01*
X190725001Y-57075000D02*
X190725001Y-70924999D01*
D16*
%TO.N,+3V3*%
X183850000Y-41975000D02*
X205125000Y-41975000D01*
X178425000Y-47400000D02*
X183850000Y-41975000D01*
D17*
%TO.N,/CHIP_PU*%
X173100000Y-52200000D02*
X174950000Y-52200000D01*
X166575000Y-58725000D02*
X173100000Y-52200000D01*
X166575000Y-67175000D02*
X166575000Y-58725000D01*
X162495000Y-71255000D02*
X166575000Y-67175000D01*
X161150000Y-71255000D02*
X162495000Y-71255000D01*
D16*
%TO.N,+3V3*%
X165600000Y-53675000D02*
X165600000Y-65650000D01*
X165600000Y-65650000D02*
X162535000Y-68715000D01*
X162535000Y-68715000D02*
X161150000Y-68715000D01*
%TO.N,VBUS*%
X187600000Y-48600000D02*
X190000000Y-46200000D01*
X185475000Y-48600000D02*
X187600000Y-48600000D01*
X190000000Y-46200000D02*
X192200000Y-46200000D01*
X197000000Y-46200000D02*
X192200000Y-46200000D01*
X185475000Y-48600000D02*
X181300000Y-48600000D01*
D17*
%TO.N,/U0TXD*%
X206395000Y-99195000D02*
X195550000Y-88350000D01*
X209410000Y-99195000D02*
X206395000Y-99195000D01*
X195550000Y-88350000D02*
X195550000Y-69699998D01*
%TO.N,/GPIO1*%
X165315000Y-101735000D02*
X161150000Y-101735000D01*
X192250000Y-53750000D02*
X192250000Y-74800000D01*
X192250000Y-74800000D02*
X165315000Y-101735000D01*
%TO.N,/U0RXD*%
X195000000Y-90600000D02*
X195000000Y-68100000D01*
X206135000Y-101735000D02*
X195000000Y-90600000D01*
X209410000Y-101735000D02*
X206135000Y-101735000D01*
%TO.N,/GPIO2*%
X191750000Y-72650000D02*
X191750000Y-54225000D01*
X191750000Y-54225000D02*
X191750001Y-54224999D01*
X161150000Y-99195000D02*
X165205000Y-99195000D01*
X165205000Y-99195000D02*
X191750000Y-72650000D01*
%TO.N,/GPIO6*%
X188725000Y-54200000D02*
X188725000Y-64275000D01*
X188725000Y-64275000D02*
X163965000Y-89035000D01*
X163965000Y-89035000D02*
X161150000Y-89035000D01*
%TO.N,/CHIP_PU*%
X193750000Y-52850000D02*
X193750000Y-54050000D01*
X174950000Y-52200000D02*
X193100000Y-52200000D01*
X193100000Y-52200000D02*
X193750000Y-52850000D01*
%TD*%
%TA.AperFunction,Conductor*%
%TO.N,Earth*%
G36*
X161400000Y-80981988D02*
G01*
X161342993Y-80949075D01*
X161215826Y-80915000D01*
X161084174Y-80915000D01*
X160957007Y-80949075D01*
X160900000Y-80981988D01*
X160900000Y-79308012D01*
X160957007Y-79340925D01*
X161084174Y-79375000D01*
X161215826Y-79375000D01*
X161342993Y-79340925D01*
X161400000Y-79308012D01*
X161400000Y-80981988D01*
G37*
%TD.AperFunction*%
%TA.AperFunction,Conductor*%
G36*
X211585751Y-38406411D02*
G01*
X211597444Y-38408262D01*
X211630074Y-38413430D01*
X211652090Y-38420584D01*
X211686821Y-38438280D01*
X211705549Y-38451887D01*
X211733112Y-38479450D01*
X211746720Y-38498180D01*
X211764414Y-38532906D01*
X211771569Y-38554926D01*
X211778589Y-38599248D01*
X211779500Y-38610824D01*
X211779500Y-102500299D01*
X211779499Y-102500303D01*
X211779499Y-102521092D01*
X211779499Y-102540741D01*
X211779499Y-102543048D01*
X211778866Y-102552705D01*
X211773974Y-102589872D01*
X211768975Y-102608532D01*
X211756502Y-102638646D01*
X211746842Y-102655378D01*
X211724046Y-102685086D01*
X211717664Y-102692363D01*
X210397617Y-104012412D01*
X210397616Y-104012413D01*
X210367390Y-104042638D01*
X210360112Y-104049020D01*
X210330371Y-104071840D01*
X210313645Y-104081496D01*
X210294531Y-104089414D01*
X210283531Y-104093970D01*
X210264871Y-104098969D01*
X210227667Y-104103866D01*
X210218010Y-104104499D01*
X210169345Y-104104499D01*
X210169333Y-104104500D01*
X199163299Y-104104500D01*
X199163231Y-104104504D01*
X199144109Y-104104504D01*
X199019663Y-104124213D01*
X199019646Y-104124217D01*
X198899831Y-104163146D01*
X198899824Y-104163149D01*
X198787556Y-104220350D01*
X198685615Y-104294414D01*
X198685606Y-104294422D01*
X198669043Y-104310984D01*
X198669044Y-104310985D01*
X198641069Y-104338960D01*
X198607413Y-104372615D01*
X198607412Y-104372616D01*
X196427617Y-106552412D01*
X196427616Y-106552413D01*
X196397390Y-106582638D01*
X196390113Y-106589020D01*
X196385369Y-106592659D01*
X196360371Y-106611840D01*
X196343645Y-106621496D01*
X196343633Y-106621502D01*
X196313531Y-106633970D01*
X196294871Y-106638969D01*
X196257667Y-106643866D01*
X196248010Y-106644499D01*
X196199345Y-106644499D01*
X196199333Y-106644500D01*
X163950665Y-106644500D01*
X163944699Y-106644499D01*
X163944697Y-106644499D01*
X163923572Y-106644499D01*
X163901949Y-106644499D01*
X163901948Y-106644498D01*
X163892294Y-106643866D01*
X163855127Y-106638974D01*
X163836468Y-106633975D01*
X163806348Y-106621499D01*
X163789622Y-106611842D01*
X163759912Y-106589045D01*
X163752634Y-106582663D01*
X161542585Y-104372614D01*
X161542584Y-104372612D01*
X161532813Y-104362841D01*
X161532808Y-104362829D01*
X161464381Y-104294405D01*
X161362445Y-104220345D01*
X161355802Y-104216961D01*
X161355801Y-104216960D01*
X161250182Y-104163146D01*
X161250169Y-104163141D01*
X161220342Y-104153450D01*
X164375500Y-104153450D01*
X164375500Y-104396550D01*
X164383514Y-104457426D01*
X164407230Y-104637569D01*
X164470149Y-104872387D01*
X164563179Y-105096980D01*
X164563180Y-105096983D01*
X164563181Y-105096984D01*
X164684731Y-105307516D01*
X164832722Y-105500380D01*
X165004620Y-105672278D01*
X165197484Y-105820269D01*
X165408016Y-105941819D01*
X165632612Y-106034850D01*
X165867429Y-106097769D01*
X166108450Y-106129500D01*
X166108452Y-106129500D01*
X166351548Y-106129500D01*
X166351550Y-106129500D01*
X166592571Y-106097769D01*
X166827388Y-106034850D01*
X167051984Y-105941819D01*
X167262516Y-105820269D01*
X167455380Y-105672278D01*
X167627278Y-105500380D01*
X167775269Y-105307516D01*
X167896819Y-105096984D01*
X167989850Y-104872388D01*
X168052769Y-104637571D01*
X168084500Y-104396550D01*
X168084500Y-104153450D01*
X168052769Y-103912429D01*
X167989850Y-103677612D01*
X167896819Y-103453016D01*
X167775269Y-103242484D01*
X167627278Y-103049620D01*
X167455380Y-102877722D01*
X167262516Y-102729731D01*
X167262517Y-102729731D01*
X167262515Y-102729730D01*
X167051983Y-102608180D01*
X167051980Y-102608179D01*
X166827387Y-102515149D01*
X166592569Y-102452230D01*
X166415010Y-102428854D01*
X166351550Y-102420500D01*
X166108450Y-102420500D01*
X166052372Y-102427882D01*
X165867430Y-102452230D01*
X165632612Y-102515149D01*
X165408019Y-102608179D01*
X165408016Y-102608180D01*
X165197484Y-102729730D01*
X165004615Y-102877726D01*
X164832726Y-103049615D01*
X164684730Y-103242484D01*
X164563180Y-103453016D01*
X164563179Y-103453019D01*
X164470149Y-103677612D01*
X164407230Y-103912430D01*
X164381944Y-104104500D01*
X164375500Y-104153450D01*
X161220342Y-104153450D01*
X161130353Y-104124212D01*
X161130336Y-104124208D01*
X161005891Y-104104499D01*
X161005890Y-104104499D01*
X160942889Y-104104500D01*
X158985824Y-104104500D01*
X158974248Y-104103589D01*
X158929926Y-104096569D01*
X158907906Y-104089414D01*
X158873180Y-104071720D01*
X158854450Y-104058112D01*
X158826887Y-104030549D01*
X158813279Y-104011819D01*
X158799024Y-103983842D01*
X158795584Y-103977090D01*
X158788430Y-103955072D01*
X158781411Y-103910750D01*
X158780500Y-103899175D01*
X158780500Y-99096460D01*
X160149500Y-99096460D01*
X160149500Y-99293539D01*
X160187947Y-99486829D01*
X160187950Y-99486839D01*
X160263367Y-99668913D01*
X160263368Y-99668914D01*
X160372861Y-99832782D01*
X160512218Y-99972139D01*
X160676086Y-100081632D01*
X160858165Y-100157051D01*
X161051459Y-100195500D01*
X161051461Y-100195500D01*
X161248539Y-100195500D01*
X161248541Y-100195500D01*
X161441835Y-100157051D01*
X161623914Y-100081632D01*
X161787782Y-99972139D01*
X161927139Y-99832782D01*
X162036632Y-99668914D01*
X162099895Y-99516181D01*
X162139943Y-99476133D01*
X162168262Y-99470500D01*
X165259798Y-99470500D01*
X165259800Y-99470500D01*
X165361058Y-99428557D01*
X165438557Y-99351058D01*
X191848174Y-72941441D01*
X191900500Y-72919767D01*
X191952826Y-72941441D01*
X191974500Y-72993767D01*
X191974500Y-74655232D01*
X191952826Y-74707558D01*
X165222559Y-101437826D01*
X165170233Y-101459500D01*
X162168262Y-101459500D01*
X162115936Y-101437826D01*
X162099895Y-101413818D01*
X162036632Y-101261086D01*
X161927139Y-101097218D01*
X161787781Y-100957860D01*
X161623913Y-100848367D01*
X161441839Y-100772950D01*
X161441829Y-100772947D01*
X161312388Y-100747200D01*
X161248541Y-100734500D01*
X161051459Y-100734500D01*
X160996662Y-100745399D01*
X160858170Y-100772947D01*
X160858160Y-100772950D01*
X160676086Y-100848367D01*
X160512218Y-100957860D01*
X160512217Y-100957862D01*
X160372862Y-101097217D01*
X160372860Y-101097218D01*
X160263367Y-101261086D01*
X160187950Y-101443160D01*
X160187947Y-101443170D01*
X160149500Y-101636460D01*
X160149500Y-101833539D01*
X160187947Y-102026829D01*
X160187950Y-102026839D01*
X160263367Y-102208913D01*
X160372860Y-102372781D01*
X160512218Y-102512139D01*
X160676086Y-102621632D01*
X160838573Y-102688936D01*
X160858165Y-102697051D01*
X161051459Y-102735500D01*
X161051461Y-102735500D01*
X161248539Y-102735500D01*
X161248541Y-102735500D01*
X161441835Y-102697051D01*
X161623914Y-102621632D01*
X161787782Y-102512139D01*
X161927139Y-102372782D01*
X162036632Y-102208914D01*
X162099895Y-102056181D01*
X162139943Y-102016133D01*
X162168262Y-102010500D01*
X165369798Y-102010500D01*
X165369800Y-102010500D01*
X165471058Y-101968557D01*
X165548557Y-101891058D01*
X165548556Y-101891058D01*
X165583517Y-101856097D01*
X165583516Y-101856097D01*
X171291163Y-96148451D01*
X183145500Y-96148451D01*
X183145500Y-103191548D01*
X183177230Y-103432569D01*
X183240149Y-103667387D01*
X183333179Y-103891980D01*
X183333180Y-103891983D01*
X183454730Y-104102515D01*
X183471383Y-104124217D01*
X183602722Y-104295380D01*
X183774620Y-104467278D01*
X183967484Y-104615269D01*
X184178016Y-104736819D01*
X184402612Y-104829850D01*
X184637429Y-104892769D01*
X184878450Y-104924500D01*
X184878452Y-104924500D01*
X185121548Y-104924500D01*
X185121550Y-104924500D01*
X185362571Y-104892769D01*
X185597388Y-104829850D01*
X185821984Y-104736819D01*
X186032516Y-104615269D01*
X186225380Y-104467278D01*
X186397278Y-104295380D01*
X186506186Y-104153450D01*
X192315500Y-104153450D01*
X192315500Y-104396550D01*
X192323514Y-104457426D01*
X192347230Y-104637569D01*
X192410149Y-104872387D01*
X192503179Y-105096980D01*
X192503180Y-105096983D01*
X192503181Y-105096984D01*
X192624731Y-105307516D01*
X192772722Y-105500380D01*
X192944620Y-105672278D01*
X193137484Y-105820269D01*
X193348016Y-105941819D01*
X193572612Y-106034850D01*
X193807429Y-106097769D01*
X194048450Y-106129500D01*
X194048452Y-106129500D01*
X194291548Y-106129500D01*
X194291550Y-106129500D01*
X194532571Y-106097769D01*
X194767388Y-106034850D01*
X194991984Y-105941819D01*
X195202516Y-105820269D01*
X195395380Y-105672278D01*
X195567278Y-105500380D01*
X195715269Y-105307516D01*
X195836819Y-105096984D01*
X195929850Y-104872388D01*
X195992769Y-104637571D01*
X196024500Y-104396550D01*
X196024500Y-104153450D01*
X195992769Y-103912429D01*
X195929850Y-103677612D01*
X195836819Y-103453016D01*
X195715269Y-103242484D01*
X195567278Y-103049620D01*
X195395380Y-102877722D01*
X195202516Y-102729731D01*
X195202517Y-102729731D01*
X195202515Y-102729730D01*
X194991983Y-102608180D01*
X194991980Y-102608179D01*
X194767387Y-102515149D01*
X194532569Y-102452230D01*
X194355010Y-102428854D01*
X194291550Y-102420500D01*
X194048450Y-102420500D01*
X193992372Y-102427882D01*
X193807430Y-102452230D01*
X193572612Y-102515149D01*
X193348019Y-102608179D01*
X193348016Y-102608180D01*
X193137484Y-102729730D01*
X192944615Y-102877726D01*
X192772726Y-103049615D01*
X192624730Y-103242484D01*
X192503180Y-103453016D01*
X192503179Y-103453019D01*
X192410149Y-103677612D01*
X192347230Y-103912430D01*
X192321944Y-104104500D01*
X192315500Y-104153450D01*
X186506186Y-104153450D01*
X186528617Y-104124217D01*
X186542613Y-104105978D01*
X186542613Y-104105977D01*
X186543744Y-104104504D01*
X186545269Y-104102516D01*
X186666819Y-103891984D01*
X186759850Y-103667388D01*
X186822769Y-103432571D01*
X186854500Y-103191550D01*
X186854500Y-96148450D01*
X186822769Y-95907429D01*
X186759850Y-95672612D01*
X186666819Y-95448016D01*
X186545269Y-95237484D01*
X186397278Y-95044620D01*
X186225380Y-94872722D01*
X186032516Y-94724731D01*
X186032517Y-94724731D01*
X186032515Y-94724730D01*
X185821983Y-94603180D01*
X185821980Y-94603179D01*
X185597387Y-94510149D01*
X185362569Y-94447230D01*
X185185010Y-94423854D01*
X185121550Y-94415500D01*
X184878450Y-94415500D01*
X184822372Y-94422882D01*
X184637430Y-94447230D01*
X184402612Y-94510149D01*
X184178019Y-94603179D01*
X184178016Y-94603180D01*
X183967484Y-94724730D01*
X183774615Y-94872726D01*
X183602726Y-95044615D01*
X183454730Y-95237484D01*
X183333180Y-95448016D01*
X183333179Y-95448019D01*
X183240149Y-95672612D01*
X183177230Y-95907430D01*
X183145500Y-96148451D01*
X171291163Y-96148451D01*
X192483557Y-74956059D01*
X192511204Y-74889312D01*
X192525500Y-74854800D01*
X192525500Y-68040688D01*
X194549500Y-68040688D01*
X194549500Y-68159311D01*
X194580199Y-68273882D01*
X194580201Y-68273887D01*
X194639508Y-68376609D01*
X194639509Y-68376610D01*
X194639511Y-68376613D01*
X194702826Y-68439928D01*
X194724500Y-68492253D01*
X194724500Y-90654800D01*
X194738403Y-90688366D01*
X194738405Y-90688368D01*
X194766442Y-90756057D01*
X194766443Y-90756058D01*
X205901443Y-101891058D01*
X205978942Y-101968557D01*
X206080200Y-102010500D01*
X208391738Y-102010500D01*
X208444064Y-102032174D01*
X208460105Y-102056182D01*
X208523367Y-102208913D01*
X208632860Y-102372781D01*
X208772218Y-102512139D01*
X208936086Y-102621632D01*
X209098573Y-102688936D01*
X209118165Y-102697051D01*
X209311459Y-102735500D01*
X209311461Y-102735500D01*
X209508539Y-102735500D01*
X209508541Y-102735500D01*
X209701835Y-102697051D01*
X209883914Y-102621632D01*
X210047782Y-102512139D01*
X210187139Y-102372782D01*
X210296632Y-102208914D01*
X210372051Y-102026835D01*
X210410500Y-101833541D01*
X210410500Y-101636459D01*
X210372051Y-101443165D01*
X210296632Y-101261086D01*
X210187139Y-101097218D01*
X210047782Y-100957861D01*
X209883914Y-100848368D01*
X209883915Y-100848368D01*
X209883913Y-100848367D01*
X209701839Y-100772950D01*
X209701829Y-100772947D01*
X209572388Y-100747200D01*
X209508541Y-100734500D01*
X209311459Y-100734500D01*
X209256662Y-100745399D01*
X209118170Y-100772947D01*
X209118160Y-100772950D01*
X208936086Y-100848367D01*
X208772218Y-100957860D01*
X208772217Y-100957862D01*
X208632862Y-101097217D01*
X208632860Y-101097218D01*
X208523367Y-101261086D01*
X208460105Y-101413818D01*
X208420057Y-101453867D01*
X208391738Y-101459500D01*
X206279767Y-101459500D01*
X206227441Y-101437826D01*
X195297174Y-90507559D01*
X195275500Y-90455233D01*
X195275500Y-88643767D01*
X195297174Y-88591441D01*
X195349500Y-88569767D01*
X195401826Y-88591441D01*
X206238941Y-99428557D01*
X206238940Y-99428557D01*
X206268599Y-99440841D01*
X206340200Y-99470500D01*
X208391738Y-99470500D01*
X208444064Y-99492174D01*
X208460105Y-99516182D01*
X208523367Y-99668913D01*
X208523368Y-99668914D01*
X208632861Y-99832782D01*
X208772218Y-99972139D01*
X208936086Y-100081632D01*
X209118165Y-100157051D01*
X209311459Y-100195500D01*
X209311461Y-100195500D01*
X209508539Y-100195500D01*
X209508541Y-100195500D01*
X209701835Y-100157051D01*
X209883914Y-100081632D01*
X210047782Y-99972139D01*
X210187139Y-99832782D01*
X210296632Y-99668914D01*
X210372051Y-99486835D01*
X210410500Y-99293541D01*
X210410500Y-99096459D01*
X210372051Y-98903165D01*
X210296632Y-98721086D01*
X210187139Y-98557218D01*
X210047782Y-98417861D01*
X209883914Y-98308368D01*
X209883915Y-98308368D01*
X209883913Y-98308367D01*
X209701839Y-98232950D01*
X209701829Y-98232947D01*
X209572388Y-98207200D01*
X209508541Y-98194500D01*
X209311459Y-98194500D01*
X209256662Y-98205399D01*
X209118170Y-98232947D01*
X209118160Y-98232950D01*
X208936086Y-98308367D01*
X208772218Y-98417860D01*
X208772217Y-98417862D01*
X208632862Y-98557217D01*
X208632860Y-98557218D01*
X208523367Y-98721086D01*
X208460105Y-98873818D01*
X208420057Y-98913867D01*
X208391738Y-98919500D01*
X206539768Y-98919500D01*
X206487442Y-98897826D01*
X204146076Y-96556460D01*
X208409500Y-96556460D01*
X208409500Y-96753539D01*
X208447947Y-96946829D01*
X208447950Y-96946839D01*
X208523367Y-97128913D01*
X208523368Y-97128914D01*
X208632861Y-97292782D01*
X208772218Y-97432139D01*
X208936086Y-97541632D01*
X209118165Y-97617051D01*
X209311459Y-97655500D01*
X209311461Y-97655500D01*
X209508539Y-97655500D01*
X209508541Y-97655500D01*
X209701835Y-97617051D01*
X209883914Y-97541632D01*
X210047782Y-97432139D01*
X210187139Y-97292782D01*
X210296632Y-97128914D01*
X210372051Y-96946835D01*
X210410500Y-96753541D01*
X210410500Y-96556459D01*
X210372051Y-96363165D01*
X210296632Y-96181086D01*
X210187139Y-96017218D01*
X210047782Y-95877861D01*
X209883914Y-95768368D01*
X209883915Y-95768368D01*
X209883913Y-95768367D01*
X209701839Y-95692950D01*
X209701829Y-95692947D01*
X209572388Y-95667200D01*
X209508541Y-95654500D01*
X209311459Y-95654500D01*
X209256662Y-95665399D01*
X209118170Y-95692947D01*
X209118160Y-95692950D01*
X208936086Y-95768367D01*
X208772218Y-95877860D01*
X208772217Y-95877862D01*
X208632862Y-96017217D01*
X208632860Y-96017218D01*
X208523367Y-96181086D01*
X208447950Y-96363160D01*
X208447947Y-96363170D01*
X208409500Y-96556460D01*
X204146076Y-96556460D01*
X201606076Y-94016460D01*
X208409500Y-94016460D01*
X208409500Y-94213539D01*
X208447947Y-94406829D01*
X208447950Y-94406839D01*
X208523367Y-94588913D01*
X208532900Y-94603179D01*
X208632861Y-94752782D01*
X208772218Y-94892139D01*
X208936086Y-95001632D01*
X209118165Y-95077051D01*
X209311459Y-95115500D01*
X209311461Y-95115500D01*
X209508539Y-95115500D01*
X209508541Y-95115500D01*
X209701835Y-95077051D01*
X209883914Y-95001632D01*
X210047782Y-94892139D01*
X210187139Y-94752782D01*
X210296632Y-94588914D01*
X210372051Y-94406835D01*
X210410500Y-94213541D01*
X210410500Y-94016459D01*
X210372051Y-93823165D01*
X210296632Y-93641086D01*
X210187139Y-93477218D01*
X210047782Y-93337861D01*
X209883914Y-93228368D01*
X209883915Y-93228368D01*
X209883913Y-93228367D01*
X209701839Y-93152950D01*
X209701829Y-93152947D01*
X209572388Y-93127200D01*
X209508541Y-93114500D01*
X209311459Y-93114500D01*
X209256662Y-93125399D01*
X209118170Y-93152947D01*
X209118160Y-93152950D01*
X208936086Y-93228367D01*
X208772218Y-93337860D01*
X208772217Y-93337862D01*
X208632862Y-93477217D01*
X208632860Y-93477218D01*
X208523367Y-93641086D01*
X208447950Y-93823160D01*
X208447947Y-93823170D01*
X208409500Y-94016460D01*
X201606076Y-94016460D01*
X199066076Y-91476460D01*
X208409500Y-91476460D01*
X208409500Y-91673539D01*
X208447947Y-91866829D01*
X208447950Y-91866839D01*
X208523367Y-92048913D01*
X208523368Y-92048914D01*
X208632861Y-92212782D01*
X208772218Y-92352139D01*
X208936086Y-92461632D01*
X209118165Y-92537051D01*
X209311459Y-92575500D01*
X209311461Y-92575500D01*
X209508539Y-92575500D01*
X209508541Y-92575500D01*
X209701835Y-92537051D01*
X209883914Y-92461632D01*
X210047782Y-92352139D01*
X210187139Y-92212782D01*
X210296632Y-92048914D01*
X210372051Y-91866835D01*
X210410500Y-91673541D01*
X210410500Y-91476459D01*
X210372051Y-91283165D01*
X210296632Y-91101086D01*
X210187139Y-90937218D01*
X210047782Y-90797861D01*
X209985220Y-90756058D01*
X209883913Y-90688367D01*
X209701839Y-90612950D01*
X209701829Y-90612947D01*
X209572388Y-90587200D01*
X209508541Y-90574500D01*
X209311459Y-90574500D01*
X209256662Y-90585399D01*
X209118170Y-90612947D01*
X209118160Y-90612950D01*
X208936086Y-90688367D01*
X208772218Y-90797860D01*
X208772217Y-90797862D01*
X208632862Y-90937217D01*
X208632860Y-90937218D01*
X208523367Y-91101086D01*
X208447950Y-91283160D01*
X208447947Y-91283170D01*
X208409500Y-91476460D01*
X199066076Y-91476460D01*
X196526076Y-88936460D01*
X208409500Y-88936460D01*
X208409500Y-89133539D01*
X208447947Y-89326829D01*
X208447950Y-89326839D01*
X208523367Y-89508913D01*
X208523368Y-89508914D01*
X208632861Y-89672782D01*
X208772218Y-89812139D01*
X208936086Y-89921632D01*
X209118165Y-89997051D01*
X209311459Y-90035500D01*
X209311461Y-90035500D01*
X209508539Y-90035500D01*
X209508541Y-90035500D01*
X209701835Y-89997051D01*
X209883914Y-89921632D01*
X210047782Y-89812139D01*
X210187139Y-89672782D01*
X210296632Y-89508914D01*
X210372051Y-89326835D01*
X210410500Y-89133541D01*
X210410500Y-88936459D01*
X210372051Y-88743165D01*
X210296632Y-88561086D01*
X210187139Y-88397218D01*
X210047782Y-88257861D01*
X210014892Y-88235884D01*
X209883913Y-88148367D01*
X209701839Y-88072950D01*
X209701829Y-88072947D01*
X209572388Y-88047200D01*
X209508541Y-88034500D01*
X209311459Y-88034500D01*
X209256662Y-88045399D01*
X209118170Y-88072947D01*
X209118160Y-88072950D01*
X208936086Y-88148367D01*
X208772218Y-88257860D01*
X208772217Y-88257862D01*
X208632862Y-88397217D01*
X208632860Y-88397218D01*
X208523367Y-88561086D01*
X208447950Y-88743160D01*
X208447947Y-88743170D01*
X208409500Y-88936460D01*
X196526076Y-88936460D01*
X195847174Y-88257558D01*
X195825500Y-88205232D01*
X195825500Y-86396460D01*
X208409500Y-86396460D01*
X208409500Y-86593539D01*
X208447947Y-86786829D01*
X208447950Y-86786839D01*
X208523367Y-86968913D01*
X208523368Y-86968914D01*
X208632861Y-87132782D01*
X208772218Y-87272139D01*
X208936086Y-87381632D01*
X209118165Y-87457051D01*
X209311459Y-87495500D01*
X209311461Y-87495500D01*
X209508539Y-87495500D01*
X209508541Y-87495500D01*
X209701835Y-87457051D01*
X209883914Y-87381632D01*
X210047782Y-87272139D01*
X210187139Y-87132782D01*
X210296632Y-86968914D01*
X210372051Y-86786835D01*
X210410500Y-86593541D01*
X210410500Y-86396459D01*
X210372051Y-86203165D01*
X210296632Y-86021086D01*
X210187139Y-85857218D01*
X210047782Y-85717861D01*
X209883914Y-85608368D01*
X209883915Y-85608368D01*
X209883913Y-85608367D01*
X209701839Y-85532950D01*
X209701829Y-85532947D01*
X209572388Y-85507200D01*
X209508541Y-85494500D01*
X209311459Y-85494500D01*
X209256662Y-85505399D01*
X209118170Y-85532947D01*
X209118160Y-85532950D01*
X208936086Y-85608367D01*
X208772218Y-85717860D01*
X208772217Y-85717862D01*
X208632862Y-85857217D01*
X208632860Y-85857218D01*
X208523367Y-86021086D01*
X208447950Y-86203160D01*
X208447947Y-86203170D01*
X208409500Y-86396460D01*
X195825500Y-86396460D01*
X195825500Y-83856460D01*
X208409500Y-83856460D01*
X208409500Y-84053539D01*
X208447947Y-84246829D01*
X208447950Y-84246839D01*
X208523367Y-84428913D01*
X208523368Y-84428914D01*
X208632861Y-84592782D01*
X208772218Y-84732139D01*
X208936086Y-84841632D01*
X209118165Y-84917051D01*
X209311459Y-84955500D01*
X209311461Y-84955500D01*
X209508539Y-84955500D01*
X209508541Y-84955500D01*
X209701835Y-84917051D01*
X209883914Y-84841632D01*
X210047782Y-84732139D01*
X210187139Y-84592782D01*
X210296632Y-84428914D01*
X210372051Y-84246835D01*
X210410500Y-84053541D01*
X210410500Y-83856459D01*
X210372051Y-83663165D01*
X210296632Y-83481086D01*
X210187139Y-83317218D01*
X210047782Y-83177861D01*
X209883914Y-83068368D01*
X209883915Y-83068368D01*
X209883913Y-83068367D01*
X209701839Y-82992950D01*
X209701829Y-82992947D01*
X209572388Y-82967200D01*
X209508541Y-82954500D01*
X209311459Y-82954500D01*
X209256662Y-82965399D01*
X209118170Y-82992947D01*
X209118160Y-82992950D01*
X208936086Y-83068367D01*
X208772218Y-83177860D01*
X208772217Y-83177862D01*
X208632862Y-83317217D01*
X208632860Y-83317218D01*
X208523367Y-83481086D01*
X208447950Y-83663160D01*
X208447947Y-83663170D01*
X208409500Y-83856460D01*
X195825500Y-83856460D01*
X195825500Y-79796460D01*
X208409500Y-79796460D01*
X208409500Y-79993539D01*
X208447947Y-80186829D01*
X208447950Y-80186839D01*
X208523367Y-80368913D01*
X208559788Y-80423420D01*
X208632861Y-80532782D01*
X208772218Y-80672139D01*
X208936086Y-80781632D01*
X209118165Y-80857051D01*
X209311459Y-80895500D01*
X209311461Y-80895500D01*
X209508539Y-80895500D01*
X209508541Y-80895500D01*
X209701835Y-80857051D01*
X209883914Y-80781632D01*
X210047782Y-80672139D01*
X210187139Y-80532782D01*
X210296632Y-80368914D01*
X210372051Y-80186835D01*
X210410500Y-79993541D01*
X210410500Y-79796459D01*
X210372051Y-79603165D01*
X210296632Y-79421086D01*
X210187139Y-79257218D01*
X210047782Y-79117861D01*
X209973150Y-79067993D01*
X209883913Y-79008367D01*
X209701839Y-78932950D01*
X209701829Y-78932947D01*
X209572388Y-78907200D01*
X209508541Y-78894500D01*
X209311459Y-78894500D01*
X209256662Y-78905399D01*
X209118170Y-78932947D01*
X209118160Y-78932950D01*
X208936086Y-79008367D01*
X208772218Y-79117860D01*
X208772217Y-79117862D01*
X208632862Y-79257217D01*
X208632860Y-79257218D01*
X208523367Y-79421086D01*
X208447950Y-79603160D01*
X208447947Y-79603170D01*
X208409500Y-79796460D01*
X195825500Y-79796460D01*
X195825500Y-77256460D01*
X208409500Y-77256460D01*
X208409500Y-77453539D01*
X208447947Y-77646829D01*
X208447950Y-77646839D01*
X208523367Y-77828913D01*
X208559788Y-77883420D01*
X208632861Y-77992782D01*
X208772218Y-78132139D01*
X208936086Y-78241632D01*
X209118165Y-78317051D01*
X209311459Y-78355500D01*
X209311461Y-78355500D01*
X209508539Y-78355500D01*
X209508541Y-78355500D01*
X209701835Y-78317051D01*
X209883914Y-78241632D01*
X210047782Y-78132139D01*
X210187139Y-77992782D01*
X210296632Y-77828914D01*
X210372051Y-77646835D01*
X210410500Y-77453541D01*
X210410500Y-77256459D01*
X210372051Y-77063165D01*
X210296632Y-76881086D01*
X210187139Y-76717218D01*
X210047782Y-76577861D01*
X209883914Y-76468368D01*
X209883915Y-76468368D01*
X209883913Y-76468367D01*
X209701839Y-76392950D01*
X209701829Y-76392947D01*
X209572388Y-76367200D01*
X209508541Y-76354500D01*
X209311459Y-76354500D01*
X209256662Y-76365399D01*
X209118170Y-76392947D01*
X209118160Y-76392950D01*
X208936086Y-76468367D01*
X208772218Y-76577860D01*
X208772217Y-76577862D01*
X208632862Y-76717217D01*
X208632860Y-76717218D01*
X208523367Y-76881086D01*
X208447950Y-77063160D01*
X208447947Y-77063170D01*
X208409500Y-77256460D01*
X195825500Y-77256460D01*
X195825500Y-74716459D01*
X208409500Y-74716459D01*
X208409500Y-74913541D01*
X208422200Y-74977388D01*
X208447947Y-75106829D01*
X208447950Y-75106839D01*
X208523367Y-75288913D01*
X208629912Y-75448368D01*
X208632861Y-75452782D01*
X208772218Y-75592139D01*
X208936086Y-75701632D01*
X209118165Y-75777051D01*
X209311459Y-75815500D01*
X209311461Y-75815500D01*
X209508539Y-75815500D01*
X209508541Y-75815500D01*
X209701835Y-75777051D01*
X209883914Y-75701632D01*
X210047782Y-75592139D01*
X210187139Y-75452782D01*
X210296632Y-75288914D01*
X210372051Y-75106835D01*
X210410500Y-74913541D01*
X210410500Y-74716459D01*
X210372051Y-74523165D01*
X210296632Y-74341086D01*
X210187139Y-74177218D01*
X210047782Y-74037861D01*
X209883914Y-73928368D01*
X209883915Y-73928368D01*
X209883913Y-73928367D01*
X209701839Y-73852950D01*
X209701829Y-73852947D01*
X209572388Y-73827200D01*
X209508541Y-73814500D01*
X209311459Y-73814500D01*
X209256662Y-73825399D01*
X209118170Y-73852947D01*
X209118160Y-73852950D01*
X208936086Y-73928367D01*
X208772218Y-74037860D01*
X208772217Y-74037862D01*
X208632862Y-74177217D01*
X208632860Y-74177218D01*
X208523367Y-74341086D01*
X208447950Y-74523160D01*
X208447947Y-74523170D01*
X208438207Y-74572139D01*
X208409500Y-74716459D01*
X195825500Y-74716459D01*
X195825500Y-72176460D01*
X208409500Y-72176460D01*
X208409500Y-72373539D01*
X208447947Y-72566829D01*
X208447950Y-72566839D01*
X208523367Y-72748913D01*
X208629912Y-72908368D01*
X208632861Y-72912782D01*
X208772218Y-73052139D01*
X208936086Y-73161632D01*
X209118165Y-73237051D01*
X209311459Y-73275500D01*
X209311461Y-73275500D01*
X209508539Y-73275500D01*
X209508541Y-73275500D01*
X209701835Y-73237051D01*
X209883914Y-73161632D01*
X210047782Y-73052139D01*
X210187139Y-72912782D01*
X210296632Y-72748914D01*
X210372051Y-72566835D01*
X210410500Y-72373541D01*
X210410500Y-72176459D01*
X210372051Y-71983165D01*
X210296632Y-71801086D01*
X210187139Y-71637218D01*
X210047782Y-71497861D01*
X209917873Y-71411058D01*
X209883913Y-71388367D01*
X209701839Y-71312950D01*
X209701829Y-71312947D01*
X209572388Y-71287200D01*
X209508541Y-71274500D01*
X209311459Y-71274500D01*
X209256662Y-71285399D01*
X209118170Y-71312947D01*
X209118160Y-71312950D01*
X208936086Y-71388367D01*
X208772218Y-71497860D01*
X208772217Y-71497862D01*
X208632862Y-71637217D01*
X208632860Y-71637218D01*
X208523367Y-71801086D01*
X208447950Y-71983160D01*
X208447947Y-71983170D01*
X208409500Y-72176460D01*
X195825500Y-72176460D01*
X195825500Y-70092251D01*
X195847173Y-70039926D01*
X195910489Y-69976611D01*
X195969799Y-69873884D01*
X196000499Y-69759309D01*
X196000500Y-69759309D01*
X196000500Y-69640686D01*
X195999368Y-69636460D01*
X208409500Y-69636460D01*
X208409500Y-69833539D01*
X208447947Y-70026829D01*
X208447950Y-70026839D01*
X208523367Y-70208913D01*
X208629912Y-70368368D01*
X208632861Y-70372782D01*
X208772218Y-70512139D01*
X208936086Y-70621632D01*
X209118165Y-70697051D01*
X209311459Y-70735500D01*
X209311461Y-70735500D01*
X209508539Y-70735500D01*
X209508541Y-70735500D01*
X209701835Y-70697051D01*
X209883914Y-70621632D01*
X210047782Y-70512139D01*
X210187139Y-70372782D01*
X210296632Y-70208914D01*
X210372051Y-70026835D01*
X210410500Y-69833541D01*
X210410500Y-69636459D01*
X210372051Y-69443165D01*
X210296632Y-69261086D01*
X210187139Y-69097218D01*
X210047782Y-68957861D01*
X209883914Y-68848368D01*
X209883915Y-68848368D01*
X209883913Y-68848367D01*
X209701839Y-68772950D01*
X209701829Y-68772947D01*
X209572388Y-68747200D01*
X209508541Y-68734500D01*
X209311459Y-68734500D01*
X209256662Y-68745399D01*
X209118170Y-68772947D01*
X209118160Y-68772950D01*
X208936086Y-68848367D01*
X208772218Y-68957860D01*
X208772217Y-68957862D01*
X208632862Y-69097217D01*
X208632860Y-69097218D01*
X208523367Y-69261086D01*
X208447950Y-69443160D01*
X208447947Y-69443170D01*
X208409500Y-69636460D01*
X195999368Y-69636460D01*
X195969800Y-69526115D01*
X195969798Y-69526110D01*
X195910491Y-69423388D01*
X195910490Y-69423387D01*
X195910489Y-69423385D01*
X195826613Y-69339509D01*
X195826610Y-69339507D01*
X195826609Y-69339506D01*
X195723887Y-69280199D01*
X195723882Y-69280197D01*
X195609311Y-69249498D01*
X195609309Y-69249498D01*
X195490691Y-69249498D01*
X195490689Y-69249498D01*
X195371429Y-69281454D01*
X195370904Y-69279498D01*
X195321163Y-69279485D01*
X195281125Y-69239426D01*
X195275500Y-69211125D01*
X195275500Y-68492253D01*
X195297173Y-68439928D01*
X195360489Y-68376613D01*
X195419799Y-68273886D01*
X195450499Y-68159311D01*
X195450500Y-68159311D01*
X195450500Y-68040689D01*
X195450499Y-68040688D01*
X195419800Y-67926117D01*
X195419798Y-67926112D01*
X195360491Y-67823390D01*
X195360490Y-67823389D01*
X195360489Y-67823387D01*
X195276613Y-67739511D01*
X195276610Y-67739509D01*
X195276609Y-67739508D01*
X195173887Y-67680201D01*
X195173882Y-67680199D01*
X195059311Y-67649500D01*
X195059309Y-67649500D01*
X194940691Y-67649500D01*
X194940689Y-67649500D01*
X194826117Y-67680199D01*
X194826112Y-67680201D01*
X194723390Y-67739508D01*
X194639508Y-67823390D01*
X194580201Y-67926112D01*
X194580199Y-67926117D01*
X194549500Y-68040688D01*
X192525500Y-68040688D01*
X192525500Y-67096460D01*
X208409500Y-67096460D01*
X208409500Y-67293539D01*
X208447947Y-67486829D01*
X208447950Y-67486839D01*
X208523367Y-67668913D01*
X208629912Y-67828368D01*
X208632861Y-67832782D01*
X208772218Y-67972139D01*
X208936086Y-68081632D01*
X209118165Y-68157051D01*
X209311459Y-68195500D01*
X209311461Y-68195500D01*
X209508539Y-68195500D01*
X209508541Y-68195500D01*
X209701835Y-68157051D01*
X209883914Y-68081632D01*
X210047782Y-67972139D01*
X210187139Y-67832782D01*
X210296632Y-67668914D01*
X210372051Y-67486835D01*
X210410500Y-67293541D01*
X210410500Y-67096459D01*
X210372051Y-66903165D01*
X210296632Y-66721086D01*
X210187139Y-66557218D01*
X210047782Y-66417861D01*
X209883914Y-66308368D01*
X209883915Y-66308368D01*
X209883913Y-66308367D01*
X209701839Y-66232950D01*
X209701829Y-66232947D01*
X209572388Y-66207200D01*
X209508541Y-66194500D01*
X209311459Y-66194500D01*
X209256662Y-66205399D01*
X209118170Y-66232947D01*
X209118160Y-66232950D01*
X208936086Y-66308367D01*
X208772218Y-66417860D01*
X208772217Y-66417862D01*
X208632862Y-66557217D01*
X208632860Y-66557218D01*
X208523367Y-66721086D01*
X208447950Y-66903160D01*
X208447947Y-66903170D01*
X208409500Y-67096460D01*
X192525500Y-67096460D01*
X192525500Y-64405000D01*
X208133391Y-64405000D01*
X208976988Y-64405000D01*
X208944075Y-64462007D01*
X208910000Y-64589174D01*
X208910000Y-64720826D01*
X208944075Y-64847993D01*
X208976988Y-64905000D01*
X208133391Y-64905000D01*
X208142010Y-64959416D01*
X208142012Y-64959427D01*
X208205240Y-65154021D01*
X208298139Y-65336349D01*
X208418411Y-65501888D01*
X208418420Y-65501898D01*
X208563102Y-65646580D01*
X208563111Y-65646588D01*
X208728650Y-65766860D01*
X208910978Y-65859759D01*
X209105578Y-65922989D01*
X209160000Y-65931607D01*
X209160000Y-65088012D01*
X209217007Y-65120925D01*
X209344174Y-65155000D01*
X209475826Y-65155000D01*
X209602993Y-65120925D01*
X209660000Y-65088012D01*
X209660000Y-65931606D01*
X209714421Y-65922989D01*
X209909021Y-65859759D01*
X210091349Y-65766860D01*
X210256888Y-65646588D01*
X210256898Y-65646580D01*
X210401580Y-65501898D01*
X210401588Y-65501888D01*
X210521860Y-65336349D01*
X210614759Y-65154021D01*
X210677987Y-64959427D01*
X210677989Y-64959416D01*
X210686609Y-64905000D01*
X209843012Y-64905000D01*
X209875925Y-64847993D01*
X209910000Y-64720826D01*
X209910000Y-64589174D01*
X209875925Y-64462007D01*
X209843012Y-64405000D01*
X210686609Y-64405000D01*
X210677989Y-64350583D01*
X210677987Y-64350572D01*
X210614759Y-64155978D01*
X210521860Y-63973650D01*
X210401588Y-63808111D01*
X210401580Y-63808102D01*
X210256898Y-63663420D01*
X210256888Y-63663411D01*
X210091349Y-63543139D01*
X209909021Y-63450240D01*
X209714427Y-63387012D01*
X209714416Y-63387010D01*
X209660000Y-63378391D01*
X209660000Y-64221988D01*
X209602993Y-64189075D01*
X209475826Y-64155000D01*
X209344174Y-64155000D01*
X209217007Y-64189075D01*
X209160000Y-64221988D01*
X209160000Y-63378391D01*
X209105583Y-63387010D01*
X209105572Y-63387012D01*
X208910978Y-63450240D01*
X208728650Y-63543139D01*
X208563111Y-63663411D01*
X208418411Y-63808111D01*
X208298139Y-63973650D01*
X208205240Y-64155978D01*
X208142012Y-64350572D01*
X208142010Y-64350583D01*
X208133391Y-64405000D01*
X192525500Y-64405000D01*
X192525500Y-63515688D01*
X196674500Y-63515688D01*
X196674500Y-63634311D01*
X196705199Y-63748882D01*
X196705201Y-63748887D01*
X196764508Y-63851609D01*
X196764509Y-63851610D01*
X196764511Y-63851613D01*
X196848387Y-63935489D01*
X196951114Y-63994799D01*
X196951115Y-63994799D01*
X196951117Y-63994800D01*
X197008402Y-64010149D01*
X197065688Y-64025499D01*
X197065689Y-64025500D01*
X197065691Y-64025500D01*
X197184311Y-64025500D01*
X197184311Y-64025499D01*
X197298886Y-63994799D01*
X197401613Y-63935489D01*
X197485489Y-63851613D01*
X197544799Y-63748886D01*
X197575499Y-63634311D01*
X197575500Y-63634311D01*
X197575500Y-63544766D01*
X197597174Y-63492440D01*
X198500701Y-62588913D01*
X199073155Y-62016460D01*
X208409500Y-62016460D01*
X208409500Y-62213539D01*
X208447947Y-62406829D01*
X208447950Y-62406839D01*
X208523367Y-62588913D01*
X208523368Y-62588914D01*
X208632861Y-62752782D01*
X208772218Y-62892139D01*
X208936086Y-63001632D01*
X209118165Y-63077051D01*
X209311459Y-63115500D01*
X209311461Y-63115500D01*
X209508539Y-63115500D01*
X209508541Y-63115500D01*
X209701835Y-63077051D01*
X209883914Y-63001632D01*
X210047782Y-62892139D01*
X210187139Y-62752782D01*
X210296632Y-62588914D01*
X210372051Y-62406835D01*
X210410500Y-62213541D01*
X210410500Y-62016459D01*
X210372051Y-61823165D01*
X210296632Y-61641086D01*
X210187139Y-61477218D01*
X210047782Y-61337861D01*
X210012647Y-61314384D01*
X209883913Y-61228367D01*
X209701839Y-61152950D01*
X209701829Y-61152947D01*
X209572388Y-61127200D01*
X209508541Y-61114500D01*
X209311459Y-61114500D01*
X209256662Y-61125399D01*
X209118170Y-61152947D01*
X209118160Y-61152950D01*
X208936086Y-61228367D01*
X208772218Y-61337860D01*
X208772217Y-61337862D01*
X208632862Y-61477217D01*
X208632860Y-61477218D01*
X208523367Y-61641086D01*
X208447950Y-61823160D01*
X208447947Y-61823170D01*
X208409500Y-62016460D01*
X199073155Y-62016460D01*
X199483557Y-61606058D01*
X199525500Y-61504800D01*
X199525500Y-61395200D01*
X199525500Y-58842253D01*
X199547173Y-58789928D01*
X199610489Y-58726613D01*
X199669799Y-58623886D01*
X199700499Y-58509311D01*
X199700500Y-58509311D01*
X199700500Y-58390689D01*
X199700499Y-58390688D01*
X199669800Y-58276117D01*
X199669798Y-58276112D01*
X199610491Y-58173390D01*
X199610490Y-58173389D01*
X199610489Y-58173387D01*
X199526613Y-58089511D01*
X199526610Y-58089509D01*
X199526609Y-58089508D01*
X199423887Y-58030201D01*
X199423882Y-58030199D01*
X199309311Y-57999500D01*
X199309309Y-57999500D01*
X199190691Y-57999500D01*
X199190689Y-57999500D01*
X199076117Y-58030199D01*
X199076112Y-58030201D01*
X198973390Y-58089508D01*
X198889508Y-58173390D01*
X198830201Y-58276112D01*
X198830199Y-58276117D01*
X198799500Y-58390688D01*
X198799500Y-58509311D01*
X198830199Y-58623882D01*
X198830201Y-58623887D01*
X198889508Y-58726609D01*
X198889509Y-58726610D01*
X198889511Y-58726613D01*
X198952826Y-58789928D01*
X198974500Y-58842253D01*
X198974500Y-61305232D01*
X198952826Y-61357558D01*
X197207558Y-63102826D01*
X197155232Y-63124500D01*
X197065689Y-63124500D01*
X196951117Y-63155199D01*
X196951112Y-63155201D01*
X196848390Y-63214508D01*
X196764508Y-63298390D01*
X196705201Y-63401112D01*
X196705199Y-63401117D01*
X196674500Y-63515688D01*
X192525500Y-63515688D01*
X192525500Y-60815041D01*
X193895500Y-60815041D01*
X193895500Y-60984958D01*
X193922080Y-61152781D01*
X193922083Y-61152794D01*
X193974586Y-61314380D01*
X193974588Y-61314385D01*
X194051727Y-61465777D01*
X194051730Y-61465783D01*
X194151600Y-61603242D01*
X194151604Y-61603247D01*
X194271753Y-61723396D01*
X194409219Y-61823271D01*
X194560616Y-61900412D01*
X194560618Y-61900412D01*
X194560619Y-61900413D01*
X194722205Y-61952916D01*
X194722211Y-61952917D01*
X194722216Y-61952919D01*
X194834100Y-61970639D01*
X194890041Y-61979500D01*
X194890042Y-61979500D01*
X195059959Y-61979500D01*
X195101914Y-61972854D01*
X195227784Y-61952919D01*
X195227791Y-61952916D01*
X195227794Y-61952916D01*
X195301156Y-61929078D01*
X195389384Y-61900412D01*
X195540781Y-61823271D01*
X195678247Y-61723396D01*
X195798396Y-61603247D01*
X195898271Y-61465781D01*
X195975412Y-61314384D01*
X196027865Y-61152950D01*
X196027916Y-61152794D01*
X196027916Y-61152791D01*
X196027919Y-61152784D01*
X196054500Y-60984958D01*
X196054500Y-60815042D01*
X196027919Y-60647216D01*
X196027917Y-60647211D01*
X196027916Y-60647205D01*
X195975413Y-60485619D01*
X195975411Y-60485614D01*
X195963191Y-60461632D01*
X195898271Y-60334219D01*
X195841210Y-60255682D01*
X195798399Y-60196757D01*
X195798398Y-60196756D01*
X195798396Y-60196753D01*
X195678247Y-60076604D01*
X195678244Y-60076601D01*
X195678242Y-60076600D01*
X195540783Y-59976730D01*
X195540777Y-59976727D01*
X195389385Y-59899588D01*
X195389380Y-59899586D01*
X195227794Y-59847083D01*
X195227781Y-59847080D01*
X195059959Y-59820500D01*
X195059958Y-59820500D01*
X194890042Y-59820500D01*
X194890041Y-59820500D01*
X194722218Y-59847080D01*
X194722205Y-59847083D01*
X194560619Y-59899586D01*
X194560614Y-59899588D01*
X194409222Y-59976727D01*
X194409216Y-59976730D01*
X194271757Y-60076600D01*
X194151600Y-60196757D01*
X194051730Y-60334216D01*
X194051727Y-60334222D01*
X193974588Y-60485614D01*
X193974586Y-60485619D01*
X193922083Y-60647205D01*
X193922080Y-60647218D01*
X193895500Y-60815041D01*
X192525500Y-60815041D01*
X192525500Y-56940688D01*
X192799500Y-56940688D01*
X192799500Y-57059311D01*
X192830199Y-57173882D01*
X192830201Y-57173887D01*
X192889508Y-57276609D01*
X192889509Y-57276610D01*
X192889511Y-57276613D01*
X192973387Y-57360489D01*
X192973389Y-57360490D01*
X192973390Y-57360491D01*
X193076112Y-57419798D01*
X193076114Y-57419799D01*
X193076115Y-57419799D01*
X193076117Y-57419800D01*
X193133402Y-57435149D01*
X193190688Y-57450499D01*
X193190689Y-57450500D01*
X193190691Y-57450500D01*
X193309311Y-57450500D01*
X193309311Y-57450499D01*
X193423886Y-57419799D01*
X193526613Y-57360489D01*
X193610489Y-57276613D01*
X193669799Y-57173886D01*
X193700499Y-57059311D01*
X193700500Y-57059311D01*
X193700500Y-56969766D01*
X193722174Y-56917440D01*
X195767341Y-54872273D01*
X202558557Y-48081059D01*
X202570841Y-48051400D01*
X202600500Y-47979800D01*
X202600500Y-46142253D01*
X202622173Y-46089928D01*
X202685489Y-46026613D01*
X202744799Y-45923886D01*
X202775499Y-45809311D01*
X202775500Y-45809311D01*
X202775500Y-45690689D01*
X202775499Y-45690688D01*
X202744800Y-45576117D01*
X202744798Y-45576112D01*
X202685491Y-45473390D01*
X202685490Y-45473389D01*
X202685489Y-45473387D01*
X202601613Y-45389511D01*
X202601610Y-45389509D01*
X202601609Y-45389508D01*
X202498887Y-45330201D01*
X202498882Y-45330199D01*
X202384311Y-45299500D01*
X202384309Y-45299500D01*
X202265691Y-45299500D01*
X202265689Y-45299500D01*
X202151117Y-45330199D01*
X202151112Y-45330201D01*
X202048390Y-45389508D01*
X201964508Y-45473390D01*
X201905201Y-45576112D01*
X201905199Y-45576117D01*
X201874500Y-45690688D01*
X201874500Y-45809311D01*
X201905199Y-45923882D01*
X201905201Y-45923887D01*
X201964508Y-46026609D01*
X201964509Y-46026610D01*
X201964511Y-46026613D01*
X202027826Y-46089928D01*
X202049500Y-46142253D01*
X202049500Y-47780232D01*
X202027826Y-47832558D01*
X193332558Y-56527826D01*
X193280232Y-56549500D01*
X193190689Y-56549500D01*
X193076117Y-56580199D01*
X193076112Y-56580201D01*
X192973390Y-56639508D01*
X192889508Y-56723390D01*
X192830201Y-56826112D01*
X192830199Y-56826117D01*
X192799500Y-56940688D01*
X192525500Y-56940688D01*
X192525500Y-54142253D01*
X192547173Y-54089928D01*
X192610489Y-54026613D01*
X192669799Y-53923886D01*
X192700499Y-53809311D01*
X192700500Y-53809311D01*
X192700500Y-53690689D01*
X192700499Y-53690688D01*
X192700011Y-53688868D01*
X192669799Y-53576114D01*
X192626499Y-53501117D01*
X192610491Y-53473390D01*
X192610490Y-53473389D01*
X192610489Y-53473387D01*
X192526613Y-53389511D01*
X192526610Y-53389509D01*
X192526609Y-53389508D01*
X192423887Y-53330201D01*
X192423882Y-53330199D01*
X192309311Y-53299500D01*
X192309309Y-53299500D01*
X192190691Y-53299500D01*
X192190689Y-53299500D01*
X192076117Y-53330199D01*
X192076112Y-53330201D01*
X191973390Y-53389508D01*
X191889508Y-53473390D01*
X191830201Y-53576112D01*
X191830199Y-53576117D01*
X191799500Y-53690688D01*
X191799500Y-53700499D01*
X191777826Y-53752825D01*
X191725500Y-53774499D01*
X191690690Y-53774499D01*
X191576118Y-53805198D01*
X191576113Y-53805200D01*
X191473391Y-53864507D01*
X191389509Y-53948389D01*
X191330202Y-54051111D01*
X191330200Y-54051116D01*
X191299501Y-54165687D01*
X191299501Y-54284310D01*
X191330200Y-54398881D01*
X191330202Y-54398886D01*
X191389509Y-54501608D01*
X191389510Y-54501609D01*
X191389512Y-54501612D01*
X191452826Y-54564926D01*
X191474500Y-54617251D01*
X191474500Y-72505233D01*
X191452826Y-72557559D01*
X165112559Y-98897826D01*
X165060233Y-98919500D01*
X162168262Y-98919500D01*
X162115936Y-98897826D01*
X162099895Y-98873818D01*
X162036632Y-98721086D01*
X161927139Y-98557218D01*
X161787781Y-98417860D01*
X161623913Y-98308367D01*
X161441839Y-98232950D01*
X161441829Y-98232947D01*
X161312388Y-98207200D01*
X161248541Y-98194500D01*
X161051459Y-98194500D01*
X160996662Y-98205399D01*
X160858170Y-98232947D01*
X160858160Y-98232950D01*
X160676086Y-98308367D01*
X160512218Y-98417860D01*
X160512217Y-98417862D01*
X160372862Y-98557217D01*
X160372860Y-98557218D01*
X160263367Y-98721086D01*
X160187950Y-98903160D01*
X160187947Y-98903170D01*
X160149500Y-99096460D01*
X158780500Y-99096460D01*
X158780500Y-94016460D01*
X160149500Y-94016460D01*
X160149500Y-94213539D01*
X160187947Y-94406829D01*
X160187950Y-94406839D01*
X160263367Y-94588913D01*
X160272900Y-94603179D01*
X160372861Y-94752782D01*
X160512218Y-94892139D01*
X160676086Y-95001632D01*
X160858165Y-95077051D01*
X161051459Y-95115500D01*
X161051461Y-95115500D01*
X161248539Y-95115500D01*
X161248541Y-95115500D01*
X161441835Y-95077051D01*
X161623914Y-95001632D01*
X161787782Y-94892139D01*
X161927139Y-94752782D01*
X162036632Y-94588914D01*
X162099895Y-94436181D01*
X162139943Y-94396133D01*
X162168262Y-94390500D01*
X165089798Y-94390500D01*
X165089800Y-94390500D01*
X165191058Y-94348557D01*
X165268557Y-94271058D01*
X165268556Y-94271058D01*
X165303517Y-94236097D01*
X165303516Y-94236097D01*
X190323176Y-69216438D01*
X190375501Y-69194765D01*
X190427827Y-69216439D01*
X190449501Y-69268765D01*
X190449501Y-70780231D01*
X190427827Y-70832557D01*
X164902559Y-96357826D01*
X164850233Y-96379500D01*
X162168262Y-96379500D01*
X162115936Y-96357826D01*
X162099895Y-96333818D01*
X162036632Y-96181086D01*
X161927139Y-96017218D01*
X161787781Y-95877860D01*
X161623913Y-95768367D01*
X161441839Y-95692950D01*
X161441829Y-95692947D01*
X161312388Y-95667200D01*
X161248541Y-95654500D01*
X161051459Y-95654500D01*
X160996662Y-95665399D01*
X160858170Y-95692947D01*
X160858160Y-95692950D01*
X160676086Y-95768367D01*
X160512218Y-95877860D01*
X160512217Y-95877862D01*
X160372862Y-96017217D01*
X160372860Y-96017218D01*
X160263367Y-96181086D01*
X160187950Y-96363160D01*
X160187947Y-96363170D01*
X160149500Y-96556460D01*
X160149500Y-96753539D01*
X160187947Y-96946829D01*
X160187950Y-96946839D01*
X160263367Y-97128913D01*
X160263368Y-97128914D01*
X160372861Y-97292782D01*
X160512218Y-97432139D01*
X160676086Y-97541632D01*
X160858165Y-97617051D01*
X161051459Y-97655500D01*
X161051461Y-97655500D01*
X161248539Y-97655500D01*
X161248541Y-97655500D01*
X161441835Y-97617051D01*
X161623914Y-97541632D01*
X161787782Y-97432139D01*
X161927139Y-97292782D01*
X162036632Y-97128914D01*
X162099895Y-96976181D01*
X162139943Y-96936133D01*
X162168262Y-96930500D01*
X165049798Y-96930500D01*
X165049800Y-96930500D01*
X165151058Y-96888557D01*
X165228557Y-96811058D01*
X165228556Y-96811058D01*
X165263517Y-96776097D01*
X165263516Y-96776097D01*
X190958558Y-71081058D01*
X190983251Y-71021443D01*
X191000501Y-70979799D01*
X191000501Y-57467253D01*
X191022174Y-57414928D01*
X191085490Y-57351613D01*
X191144800Y-57248886D01*
X191175500Y-57134311D01*
X191175501Y-57134311D01*
X191175501Y-57015689D01*
X191175500Y-57015688D01*
X191144801Y-56901117D01*
X191144799Y-56901112D01*
X191085492Y-56798390D01*
X191085491Y-56798389D01*
X191085490Y-56798387D01*
X191001614Y-56714511D01*
X191001611Y-56714509D01*
X191001610Y-56714508D01*
X190898888Y-56655201D01*
X190898883Y-56655199D01*
X190784312Y-56624500D01*
X190784310Y-56624500D01*
X190665692Y-56624500D01*
X190665690Y-56624500D01*
X190593654Y-56643802D01*
X190537501Y-56636410D01*
X190503023Y-56591477D01*
X190500501Y-56572324D01*
X190500501Y-54167254D01*
X190522174Y-54114929D01*
X190585490Y-54051614D01*
X190644800Y-53948887D01*
X190675500Y-53834312D01*
X190675501Y-53834312D01*
X190675501Y-53715690D01*
X190675500Y-53715689D01*
X190644801Y-53601118D01*
X190644799Y-53601113D01*
X190585492Y-53498391D01*
X190585491Y-53498390D01*
X190585490Y-53498388D01*
X190501614Y-53414512D01*
X190501611Y-53414510D01*
X190501610Y-53414509D01*
X190398888Y-53355202D01*
X190398883Y-53355200D01*
X190284312Y-53324501D01*
X190284310Y-53324501D01*
X190165692Y-53324501D01*
X190165690Y-53324501D01*
X190051118Y-53355200D01*
X190051113Y-53355202D01*
X189948391Y-53414509D01*
X189864509Y-53498391D01*
X189805202Y-53601113D01*
X189805200Y-53601118D01*
X189774501Y-53715689D01*
X189774501Y-53834312D01*
X189805200Y-53948883D01*
X189805202Y-53948888D01*
X189864509Y-54051610D01*
X189864510Y-54051611D01*
X189864512Y-54051614D01*
X189927827Y-54114929D01*
X189949501Y-54167254D01*
X189949501Y-68780231D01*
X189927827Y-68832557D01*
X164942559Y-93817826D01*
X164890233Y-93839500D01*
X162168262Y-93839500D01*
X162115936Y-93817826D01*
X162099895Y-93793818D01*
X162036632Y-93641086D01*
X161927139Y-93477218D01*
X161787781Y-93337860D01*
X161623913Y-93228367D01*
X161441839Y-93152950D01*
X161441829Y-93152947D01*
X161312388Y-93127200D01*
X161248541Y-93114500D01*
X161051459Y-93114500D01*
X160996662Y-93125399D01*
X160858170Y-93152947D01*
X160858160Y-93152950D01*
X160676086Y-93228367D01*
X160512218Y-93337860D01*
X160512217Y-93337862D01*
X160372862Y-93477217D01*
X160372860Y-93477218D01*
X160263367Y-93641086D01*
X160187950Y-93823160D01*
X160187947Y-93823170D01*
X160149500Y-94016460D01*
X158780500Y-94016460D01*
X158780500Y-88936460D01*
X160149500Y-88936460D01*
X160149500Y-89133539D01*
X160187947Y-89326829D01*
X160187950Y-89326839D01*
X160263367Y-89508913D01*
X160263368Y-89508914D01*
X160372861Y-89672782D01*
X160512218Y-89812139D01*
X160676086Y-89921632D01*
X160858165Y-89997051D01*
X161051459Y-90035500D01*
X161051461Y-90035500D01*
X161248539Y-90035500D01*
X161248541Y-90035500D01*
X161441835Y-89997051D01*
X161623914Y-89921632D01*
X161787782Y-89812139D01*
X161927139Y-89672782D01*
X162036632Y-89508914D01*
X162099895Y-89356181D01*
X162139943Y-89316133D01*
X162168262Y-89310500D01*
X164019798Y-89310500D01*
X164019800Y-89310500D01*
X164121058Y-89268557D01*
X164198557Y-89191058D01*
X164198556Y-89191058D01*
X164233517Y-89156097D01*
X164233516Y-89156097D01*
X188823174Y-64566440D01*
X188875499Y-64544767D01*
X188927825Y-64566441D01*
X188949499Y-64618767D01*
X188949499Y-66530233D01*
X188927825Y-66582559D01*
X164232559Y-91277826D01*
X164180233Y-91299500D01*
X162168262Y-91299500D01*
X162115936Y-91277826D01*
X162099895Y-91253818D01*
X162036632Y-91101086D01*
X161927139Y-90937218D01*
X161787781Y-90797860D01*
X161623913Y-90688367D01*
X161441839Y-90612950D01*
X161441829Y-90612947D01*
X161312388Y-90587200D01*
X161248541Y-90574500D01*
X161051459Y-90574500D01*
X160996662Y-90585399D01*
X160858170Y-90612947D01*
X160858160Y-90612950D01*
X160676086Y-90688367D01*
X160512218Y-90797860D01*
X160512217Y-90797862D01*
X160372862Y-90937217D01*
X160372860Y-90937218D01*
X160263367Y-91101086D01*
X160187950Y-91283160D01*
X160187947Y-91283170D01*
X160149500Y-91476460D01*
X160149500Y-91673539D01*
X160187947Y-91866829D01*
X160187950Y-91866839D01*
X160263367Y-92048913D01*
X160263368Y-92048914D01*
X160372861Y-92212782D01*
X160512218Y-92352139D01*
X160676086Y-92461632D01*
X160858165Y-92537051D01*
X161051459Y-92575500D01*
X161051461Y-92575500D01*
X161248539Y-92575500D01*
X161248541Y-92575500D01*
X161441835Y-92537051D01*
X161623914Y-92461632D01*
X161787782Y-92352139D01*
X161927139Y-92212782D01*
X162036632Y-92048914D01*
X162099895Y-91896181D01*
X162139943Y-91856133D01*
X162168262Y-91850500D01*
X164379798Y-91850500D01*
X164379800Y-91850500D01*
X164481058Y-91808557D01*
X164558557Y-91731058D01*
X164558556Y-91731058D01*
X164593517Y-91696097D01*
X164593516Y-91696097D01*
X189458556Y-66831060D01*
X189487551Y-66761059D01*
X189500499Y-66729801D01*
X189500499Y-57492253D01*
X189522172Y-57439928D01*
X189585488Y-57376613D01*
X189644798Y-57273886D01*
X189675498Y-57159311D01*
X189675499Y-57159311D01*
X189675499Y-57040689D01*
X189675498Y-57040688D01*
X189644799Y-56926117D01*
X189644797Y-56926112D01*
X189585490Y-56823390D01*
X189585489Y-56823389D01*
X189585488Y-56823387D01*
X189501612Y-56739511D01*
X189501609Y-56739509D01*
X189501608Y-56739508D01*
X189398886Y-56680201D01*
X189398881Y-56680199D01*
X189284310Y-56649500D01*
X189284308Y-56649500D01*
X189165690Y-56649500D01*
X189093652Y-56668802D01*
X189037500Y-56661409D01*
X189003021Y-56616475D01*
X189000500Y-56597323D01*
X189000500Y-54592253D01*
X189022173Y-54539928D01*
X189085489Y-54476613D01*
X189144799Y-54373886D01*
X189175499Y-54259311D01*
X189175500Y-54259311D01*
X189175500Y-54140689D01*
X189175499Y-54140688D01*
X189144800Y-54026117D01*
X189144798Y-54026112D01*
X189085491Y-53923390D01*
X189085490Y-53923389D01*
X189085489Y-53923387D01*
X189001613Y-53839511D01*
X189001610Y-53839509D01*
X189001609Y-53839508D01*
X188898887Y-53780201D01*
X188898882Y-53780199D01*
X188784311Y-53749500D01*
X188784309Y-53749500D01*
X188665691Y-53749500D01*
X188665689Y-53749500D01*
X188551117Y-53780199D01*
X188551112Y-53780201D01*
X188448390Y-53839508D01*
X188364508Y-53923390D01*
X188305201Y-54026112D01*
X188305199Y-54026117D01*
X188274500Y-54140688D01*
X188274500Y-54259311D01*
X188305199Y-54373882D01*
X188305201Y-54373887D01*
X188364508Y-54476609D01*
X188364509Y-54476610D01*
X188364511Y-54476613D01*
X188427826Y-54539928D01*
X188449500Y-54592253D01*
X188449500Y-64130232D01*
X188427826Y-64182558D01*
X163872559Y-88737826D01*
X163820233Y-88759500D01*
X162168262Y-88759500D01*
X162115936Y-88737826D01*
X162099895Y-88713818D01*
X162036632Y-88561086D01*
X161927139Y-88397218D01*
X161787781Y-88257860D01*
X161623913Y-88148367D01*
X161441839Y-88072950D01*
X161441829Y-88072947D01*
X161312388Y-88047200D01*
X161248541Y-88034500D01*
X161051459Y-88034500D01*
X160996662Y-88045399D01*
X160858170Y-88072947D01*
X160858160Y-88072950D01*
X160676086Y-88148367D01*
X160512218Y-88257860D01*
X160512217Y-88257862D01*
X160372862Y-88397217D01*
X160372860Y-88397218D01*
X160263367Y-88561086D01*
X160187950Y-88743160D01*
X160187947Y-88743170D01*
X160149500Y-88936460D01*
X158780500Y-88936460D01*
X158780500Y-83856460D01*
X160149500Y-83856460D01*
X160149500Y-84053539D01*
X160187947Y-84246829D01*
X160187950Y-84246839D01*
X160263367Y-84428913D01*
X160263368Y-84428914D01*
X160372861Y-84592782D01*
X160512218Y-84732139D01*
X160676086Y-84841632D01*
X160858165Y-84917051D01*
X161051459Y-84955500D01*
X161051461Y-84955500D01*
X161248539Y-84955500D01*
X161248541Y-84955500D01*
X161441835Y-84917051D01*
X161623914Y-84841632D01*
X161787782Y-84732139D01*
X161927139Y-84592782D01*
X162036632Y-84428914D01*
X162112051Y-84246835D01*
X162150500Y-84053541D01*
X162150500Y-83856459D01*
X162112051Y-83663165D01*
X162036632Y-83481086D01*
X161927139Y-83317218D01*
X161787782Y-83177861D01*
X161623914Y-83068368D01*
X161623915Y-83068368D01*
X161623913Y-83068367D01*
X161441839Y-82992950D01*
X161441829Y-82992947D01*
X161312388Y-82967200D01*
X161248541Y-82954500D01*
X161051459Y-82954500D01*
X160996662Y-82965399D01*
X160858170Y-82992947D01*
X160858160Y-82992950D01*
X160676086Y-83068367D01*
X160512218Y-83177860D01*
X160512217Y-83177862D01*
X160372862Y-83317217D01*
X160372860Y-83317218D01*
X160263367Y-83481086D01*
X160187950Y-83663160D01*
X160187947Y-83663170D01*
X160149500Y-83856460D01*
X158780500Y-83856460D01*
X158780500Y-78625000D01*
X159873391Y-78625000D01*
X160716988Y-78625000D01*
X160684075Y-78682007D01*
X160650000Y-78809174D01*
X160650000Y-78940826D01*
X160684075Y-79067993D01*
X160716988Y-79125000D01*
X159873391Y-79125000D01*
X159882010Y-79179416D01*
X159882012Y-79179427D01*
X159945240Y-79374021D01*
X160038139Y-79556349D01*
X160158411Y-79721888D01*
X160158420Y-79721898D01*
X160303102Y-79866580D01*
X160303111Y-79866588D01*
X160468650Y-79986860D01*
X160649616Y-80079065D01*
X160686399Y-80122132D01*
X160681956Y-80178595D01*
X160649616Y-80210935D01*
X160468650Y-80303139D01*
X160303111Y-80423411D01*
X160158411Y-80568111D01*
X160038139Y-80733650D01*
X159945240Y-80915978D01*
X159882012Y-81110572D01*
X159882010Y-81110583D01*
X159873391Y-81165000D01*
X160716988Y-81165000D01*
X160684075Y-81222007D01*
X160650000Y-81349174D01*
X160650000Y-81480826D01*
X160684075Y-81607993D01*
X160716988Y-81665000D01*
X159873391Y-81665000D01*
X159882010Y-81719416D01*
X159882012Y-81719427D01*
X159945240Y-81914021D01*
X160038139Y-82096349D01*
X160158411Y-82261888D01*
X160158420Y-82261898D01*
X160303102Y-82406580D01*
X160303111Y-82406588D01*
X160468650Y-82526860D01*
X160650978Y-82619759D01*
X160845578Y-82682989D01*
X160900000Y-82691607D01*
X160900000Y-81848012D01*
X160957007Y-81880925D01*
X161084174Y-81915000D01*
X161215826Y-81915000D01*
X161342993Y-81880925D01*
X161400000Y-81848012D01*
X161400000Y-82691606D01*
X161454421Y-82682989D01*
X161649021Y-82619759D01*
X161831349Y-82526860D01*
X161996888Y-82406588D01*
X161996898Y-82406580D01*
X162141580Y-82261898D01*
X162141588Y-82261888D01*
X162261860Y-82096349D01*
X162354759Y-81914021D01*
X162417987Y-81719427D01*
X162417989Y-81719416D01*
X162426609Y-81665000D01*
X161583012Y-81665000D01*
X161615925Y-81607993D01*
X161650000Y-81480826D01*
X161650000Y-81349174D01*
X161615925Y-81222007D01*
X161583012Y-81165000D01*
X162426609Y-81165000D01*
X162417989Y-81110583D01*
X162417987Y-81110572D01*
X162354759Y-80915978D01*
X162261860Y-80733650D01*
X162141588Y-80568111D01*
X162141580Y-80568102D01*
X161996898Y-80423420D01*
X161996888Y-80423411D01*
X161831349Y-80303139D01*
X161650383Y-80210935D01*
X161613600Y-80167868D01*
X161618043Y-80111405D01*
X161650383Y-80079065D01*
X161831349Y-79986860D01*
X161996888Y-79866588D01*
X161996898Y-79866580D01*
X162141580Y-79721898D01*
X162141588Y-79721888D01*
X162261860Y-79556349D01*
X162354759Y-79374021D01*
X162417987Y-79179427D01*
X162417989Y-79179416D01*
X162426609Y-79125000D01*
X161583012Y-79125000D01*
X161615925Y-79067993D01*
X161650000Y-78940826D01*
X161650000Y-78809174D01*
X161615925Y-78682007D01*
X161583012Y-78625000D01*
X162426609Y-78625000D01*
X162417989Y-78570583D01*
X162417987Y-78570572D01*
X162354759Y-78375978D01*
X162261860Y-78193650D01*
X162141588Y-78028111D01*
X162141580Y-78028102D01*
X161996898Y-77883420D01*
X161996888Y-77883411D01*
X161831349Y-77763139D01*
X161649021Y-77670240D01*
X161454427Y-77607012D01*
X161454416Y-77607010D01*
X161400000Y-77598391D01*
X161400000Y-78441988D01*
X161342993Y-78409075D01*
X161215826Y-78375000D01*
X161084174Y-78375000D01*
X160957007Y-78409075D01*
X160900000Y-78441988D01*
X160900000Y-77598391D01*
X160845583Y-77607010D01*
X160845572Y-77607012D01*
X160650978Y-77670240D01*
X160468650Y-77763139D01*
X160303111Y-77883411D01*
X160158411Y-78028111D01*
X160038139Y-78193650D01*
X159945240Y-78375978D01*
X159882012Y-78570572D01*
X159882010Y-78570583D01*
X159873391Y-78625000D01*
X158780500Y-78625000D01*
X158780500Y-76236459D01*
X160149500Y-76236459D01*
X160149500Y-76433541D01*
X160156428Y-76468368D01*
X160187947Y-76626829D01*
X160187950Y-76626839D01*
X160263367Y-76808913D01*
X160311592Y-76881086D01*
X160372861Y-76972782D01*
X160512218Y-77112139D01*
X160676086Y-77221632D01*
X160858165Y-77297051D01*
X161051459Y-77335500D01*
X161051461Y-77335500D01*
X161248539Y-77335500D01*
X161248541Y-77335500D01*
X161441835Y-77297051D01*
X161623914Y-77221632D01*
X161787782Y-77112139D01*
X161927139Y-76972782D01*
X162036632Y-76808914D01*
X162112051Y-76626835D01*
X162150500Y-76433541D01*
X162150500Y-76236459D01*
X162112051Y-76043165D01*
X162036632Y-75861086D01*
X161927139Y-75697218D01*
X161787782Y-75557861D01*
X161630521Y-75452782D01*
X161623913Y-75448367D01*
X161441839Y-75372950D01*
X161441829Y-75372947D01*
X161312388Y-75347200D01*
X161248541Y-75334500D01*
X161051459Y-75334500D01*
X160996662Y-75345399D01*
X160858170Y-75372947D01*
X160858160Y-75372950D01*
X160676086Y-75448367D01*
X160512218Y-75557860D01*
X160512217Y-75557862D01*
X160372862Y-75697217D01*
X160372860Y-75697218D01*
X160263367Y-75861086D01*
X160187950Y-76043160D01*
X160187947Y-76043170D01*
X160155850Y-76204535D01*
X160149500Y-76236459D01*
X158780500Y-76236459D01*
X158780500Y-73696459D01*
X160149500Y-73696459D01*
X160149500Y-73893541D01*
X160156428Y-73928368D01*
X160187947Y-74086829D01*
X160187950Y-74086839D01*
X160263367Y-74268913D01*
X160311592Y-74341086D01*
X160372861Y-74432782D01*
X160512218Y-74572139D01*
X160676086Y-74681632D01*
X160858165Y-74757051D01*
X161051459Y-74795500D01*
X161051461Y-74795500D01*
X161248539Y-74795500D01*
X161248541Y-74795500D01*
X161441835Y-74757051D01*
X161623914Y-74681632D01*
X161787782Y-74572139D01*
X161927139Y-74432782D01*
X162036632Y-74268914D01*
X162112051Y-74086835D01*
X162150500Y-73893541D01*
X162150500Y-73696459D01*
X162112051Y-73503165D01*
X162036632Y-73321086D01*
X161927139Y-73157218D01*
X161787782Y-73017861D01*
X161673412Y-72941441D01*
X161623913Y-72908367D01*
X161441839Y-72832950D01*
X161441829Y-72832947D01*
X161312388Y-72807200D01*
X161248541Y-72794500D01*
X161051459Y-72794500D01*
X160996662Y-72805399D01*
X160858170Y-72832947D01*
X160858160Y-72832950D01*
X160676086Y-72908367D01*
X160512218Y-73017860D01*
X160512217Y-73017862D01*
X160372862Y-73157217D01*
X160372860Y-73157218D01*
X160263367Y-73321086D01*
X160187950Y-73503160D01*
X160187947Y-73503170D01*
X160155850Y-73664535D01*
X160149500Y-73696459D01*
X158780500Y-73696459D01*
X158780500Y-71156459D01*
X160149500Y-71156459D01*
X160149500Y-71353541D01*
X160156428Y-71388368D01*
X160187947Y-71546829D01*
X160187950Y-71546839D01*
X160263367Y-71728913D01*
X160311592Y-71801086D01*
X160372861Y-71892782D01*
X160512218Y-72032139D01*
X160676086Y-72141632D01*
X160858165Y-72217051D01*
X161051459Y-72255500D01*
X161051461Y-72255500D01*
X161248539Y-72255500D01*
X161248541Y-72255500D01*
X161441835Y-72217051D01*
X161623914Y-72141632D01*
X161787782Y-72032139D01*
X161927139Y-71892782D01*
X162036632Y-71728914D01*
X162099895Y-71576181D01*
X162139943Y-71536133D01*
X162168262Y-71530500D01*
X162549798Y-71530500D01*
X162549800Y-71530500D01*
X162651058Y-71488557D01*
X162728557Y-71411058D01*
X162728556Y-71411058D01*
X162763517Y-71376097D01*
X162763516Y-71376097D01*
X166808557Y-67331059D01*
X166834133Y-67269312D01*
X166850500Y-67229800D01*
X166850500Y-60818301D01*
X174145500Y-60818301D01*
X174145500Y-60981698D01*
X174177375Y-61141949D01*
X174177378Y-61141960D01*
X174239903Y-61292911D01*
X174239905Y-61292914D01*
X174239906Y-61292916D01*
X174330685Y-61428776D01*
X174446224Y-61544315D01*
X174582084Y-61635094D01*
X174582089Y-61635096D01*
X174582088Y-61635096D01*
X174733039Y-61697621D01*
X174733044Y-61697623D01*
X174893301Y-61729500D01*
X174893302Y-61729500D01*
X175056698Y-61729500D01*
X175056699Y-61729500D01*
X175216956Y-61697623D01*
X175367916Y-61635094D01*
X175503776Y-61544315D01*
X175619315Y-61428776D01*
X175710094Y-61292916D01*
X175772623Y-61141956D01*
X175804500Y-60981699D01*
X175804500Y-60818301D01*
X175772623Y-60658044D01*
X175710094Y-60507084D01*
X175619315Y-60371224D01*
X175503776Y-60255685D01*
X175367916Y-60164906D01*
X175367912Y-60164904D01*
X175367910Y-60164903D01*
X175367911Y-60164903D01*
X175216960Y-60102378D01*
X175216949Y-60102375D01*
X175087366Y-60076600D01*
X175056699Y-60070500D01*
X174893301Y-60070500D01*
X174862634Y-60076600D01*
X174733050Y-60102375D01*
X174733039Y-60102378D01*
X174582088Y-60164903D01*
X174446227Y-60255682D01*
X174330682Y-60371227D01*
X174239903Y-60507088D01*
X174177378Y-60658039D01*
X174177375Y-60658050D01*
X174145500Y-60818301D01*
X166850500Y-60818301D01*
X166850500Y-58869767D01*
X166872174Y-58817441D01*
X173192442Y-52497174D01*
X173244768Y-52475500D01*
X174895200Y-52475500D01*
X192955233Y-52475500D01*
X193007559Y-52497174D01*
X193452826Y-52942441D01*
X193474500Y-52994767D01*
X193474500Y-53657746D01*
X193452826Y-53710072D01*
X193389508Y-53773390D01*
X193330201Y-53876112D01*
X193330199Y-53876117D01*
X193299500Y-53990688D01*
X193299500Y-54109311D01*
X193330199Y-54223882D01*
X193330201Y-54223887D01*
X193389508Y-54326609D01*
X193389509Y-54326610D01*
X193389511Y-54326613D01*
X193473387Y-54410489D01*
X193576114Y-54469799D01*
X193576115Y-54469799D01*
X193576117Y-54469800D01*
X193601529Y-54476609D01*
X193690688Y-54500499D01*
X193690689Y-54500500D01*
X193690691Y-54500500D01*
X193809311Y-54500500D01*
X193809311Y-54500499D01*
X193923886Y-54469799D01*
X194026613Y-54410489D01*
X194110489Y-54326613D01*
X194169799Y-54223886D01*
X194200499Y-54109311D01*
X194200500Y-54109311D01*
X194200500Y-53990689D01*
X194200499Y-53990688D01*
X194193596Y-53964927D01*
X194182600Y-53923886D01*
X194169800Y-53876117D01*
X194169798Y-53876112D01*
X194110491Y-53773390D01*
X194110490Y-53773389D01*
X194110489Y-53773387D01*
X194047174Y-53710072D01*
X194025500Y-53657746D01*
X194025500Y-52795200D01*
X194025499Y-52795198D01*
X193983559Y-52693944D01*
X193983557Y-52693941D01*
X193256059Y-51966444D01*
X193256057Y-51966442D01*
X193196742Y-51941873D01*
X193154800Y-51924500D01*
X193154799Y-51924500D01*
X173194768Y-51924500D01*
X173142442Y-51902826D01*
X169780304Y-48540688D01*
X180849500Y-48540688D01*
X180849500Y-48659311D01*
X180880199Y-48773882D01*
X180880201Y-48773887D01*
X180939508Y-48876609D01*
X180939509Y-48876610D01*
X180939511Y-48876613D01*
X181023387Y-48960489D01*
X181126114Y-49019799D01*
X181126115Y-49019799D01*
X181126117Y-49019800D01*
X181183402Y-49035149D01*
X181240688Y-49050499D01*
X181240689Y-49050500D01*
X181240691Y-49050500D01*
X181359311Y-49050500D01*
X181359311Y-49050499D01*
X181473886Y-49019799D01*
X181576613Y-48960489D01*
X181589928Y-48947173D01*
X181642253Y-48925500D01*
X185132747Y-48925500D01*
X185185071Y-48947173D01*
X185198387Y-48960489D01*
X185301114Y-49019799D01*
X185301115Y-49019799D01*
X185301117Y-49019800D01*
X185358402Y-49035149D01*
X185415688Y-49050499D01*
X185415689Y-49050500D01*
X185415691Y-49050500D01*
X185534311Y-49050500D01*
X185534311Y-49050499D01*
X185648886Y-49019799D01*
X185751613Y-48960489D01*
X185764928Y-48947173D01*
X185817253Y-48925500D01*
X187642851Y-48925500D01*
X187642853Y-48925500D01*
X187725639Y-48903318D01*
X187799862Y-48860465D01*
X190113152Y-46547173D01*
X190165478Y-46525500D01*
X191857747Y-46525500D01*
X191910071Y-46547173D01*
X191923387Y-46560489D01*
X192026114Y-46619799D01*
X192026115Y-46619799D01*
X192026117Y-46619800D01*
X192083402Y-46635149D01*
X192140688Y-46650499D01*
X192140689Y-46650500D01*
X192140691Y-46650500D01*
X192259311Y-46650500D01*
X192259311Y-46650499D01*
X192373886Y-46619799D01*
X192476613Y-46560489D01*
X192489928Y-46547173D01*
X192542253Y-46525500D01*
X196657747Y-46525500D01*
X196710071Y-46547173D01*
X196723387Y-46560489D01*
X196826114Y-46619799D01*
X196826115Y-46619799D01*
X196826117Y-46619800D01*
X196883402Y-46635149D01*
X196940688Y-46650499D01*
X196940689Y-46650500D01*
X196940691Y-46650500D01*
X197059311Y-46650500D01*
X197059311Y-46650499D01*
X197173886Y-46619799D01*
X197276613Y-46560489D01*
X197360489Y-46476613D01*
X197419799Y-46373886D01*
X197450499Y-46259311D01*
X197450500Y-46259311D01*
X197450500Y-46140689D01*
X197450499Y-46140688D01*
X197419800Y-46026117D01*
X197419798Y-46026112D01*
X197360491Y-45923390D01*
X197360490Y-45923389D01*
X197360489Y-45923387D01*
X197276613Y-45839511D01*
X197276610Y-45839509D01*
X197276609Y-45839508D01*
X197173887Y-45780201D01*
X197173882Y-45780199D01*
X197059311Y-45749500D01*
X197059309Y-45749500D01*
X196940691Y-45749500D01*
X196940689Y-45749500D01*
X196826117Y-45780199D01*
X196826112Y-45780201D01*
X196723390Y-45839508D01*
X196723387Y-45839510D01*
X196723387Y-45839511D01*
X196710071Y-45852826D01*
X196657747Y-45874500D01*
X192542253Y-45874500D01*
X192489928Y-45852826D01*
X192476613Y-45839511D01*
X192476610Y-45839509D01*
X192476609Y-45839508D01*
X192373887Y-45780201D01*
X192373882Y-45780199D01*
X192259311Y-45749500D01*
X192259309Y-45749500D01*
X192140691Y-45749500D01*
X192140689Y-45749500D01*
X192026117Y-45780199D01*
X192026112Y-45780201D01*
X191923390Y-45839508D01*
X191923387Y-45839510D01*
X191923387Y-45839511D01*
X191910071Y-45852826D01*
X191857747Y-45874500D01*
X190813075Y-45874500D01*
X190760749Y-45852826D01*
X190739075Y-45800500D01*
X190760749Y-45748174D01*
X190771963Y-45738971D01*
X190917459Y-45641753D01*
X191056753Y-45502459D01*
X191166190Y-45338675D01*
X191241569Y-45156693D01*
X191241572Y-45156682D01*
X191280000Y-44963490D01*
X191280000Y-44565000D01*
X190580000Y-44565000D01*
X190580000Y-44065000D01*
X191142465Y-44065000D01*
X191194791Y-44086674D01*
X191206551Y-44102000D01*
X191246285Y-44170821D01*
X191354179Y-44278715D01*
X191486322Y-44355008D01*
X191486323Y-44355008D01*
X191486325Y-44355009D01*
X191560014Y-44374754D01*
X191633704Y-44394499D01*
X191633705Y-44394500D01*
X191633707Y-44394500D01*
X191786295Y-44394500D01*
X191786295Y-44394499D01*
X191933678Y-44355008D01*
X192065821Y-44278715D01*
X192173715Y-44170821D01*
X192250008Y-44038678D01*
X192289499Y-43891295D01*
X192289500Y-43891295D01*
X192289500Y-43738705D01*
X192289499Y-43738704D01*
X196910500Y-43738704D01*
X196910500Y-43891295D01*
X196949990Y-44038674D01*
X196949992Y-44038679D01*
X196986551Y-44102000D01*
X197026285Y-44170821D01*
X197134179Y-44278715D01*
X197266322Y-44355008D01*
X197266323Y-44355008D01*
X197266325Y-44355009D01*
X197340014Y-44374754D01*
X197413704Y-44394499D01*
X197413705Y-44394500D01*
X197413707Y-44394500D01*
X197566295Y-44394500D01*
X197566295Y-44394499D01*
X197713678Y-44355008D01*
X197845821Y-44278715D01*
X197953715Y-44170821D01*
X197993449Y-44102000D01*
X198038383Y-44067521D01*
X198057535Y-44065000D01*
X198620000Y-44065000D01*
X198620000Y-44565000D01*
X197920000Y-44565000D01*
X197920000Y-44963490D01*
X197958427Y-45156682D01*
X197958430Y-45156693D01*
X198033809Y-45338675D01*
X198143246Y-45502459D01*
X198282540Y-45641753D01*
X198446324Y-45751190D01*
X198628306Y-45826569D01*
X198628317Y-45826572D01*
X198669999Y-45834863D01*
X198670000Y-45834863D01*
X198670000Y-45031988D01*
X198679940Y-45049205D01*
X198735795Y-45105060D01*
X198804204Y-45144556D01*
X198880504Y-45165000D01*
X198959496Y-45165000D01*
X199035796Y-45144556D01*
X199104205Y-45105060D01*
X199160060Y-45049205D01*
X199170000Y-45031988D01*
X199170000Y-45834863D01*
X199211682Y-45826572D01*
X199211693Y-45826569D01*
X199393675Y-45751190D01*
X199557459Y-45641753D01*
X199696753Y-45502459D01*
X199806190Y-45338675D01*
X199881569Y-45156693D01*
X199881572Y-45156682D01*
X199920000Y-44963490D01*
X199920000Y-44565000D01*
X199220000Y-44565000D01*
X199220000Y-44065000D01*
X199920000Y-44065000D01*
X199920000Y-43666509D01*
X199881572Y-43473317D01*
X199881569Y-43473306D01*
X199806190Y-43291324D01*
X199696753Y-43127540D01*
X199557459Y-42988246D01*
X199393675Y-42878809D01*
X199211691Y-42803429D01*
X199211684Y-42803427D01*
X199170000Y-42795136D01*
X199170000Y-43598011D01*
X199160060Y-43580795D01*
X199104205Y-43524940D01*
X199035796Y-43485444D01*
X198959496Y-43465000D01*
X198880504Y-43465000D01*
X198804204Y-43485444D01*
X198735795Y-43524940D01*
X198679940Y-43580795D01*
X198670000Y-43598011D01*
X198670000Y-42795136D01*
X198669999Y-42795136D01*
X198628315Y-42803427D01*
X198628308Y-42803429D01*
X198446324Y-42878809D01*
X198282540Y-42988246D01*
X198143246Y-43127540D01*
X198033810Y-43291322D01*
X198003568Y-43364333D01*
X197963519Y-43404381D01*
X197906882Y-43404381D01*
X197882877Y-43388341D01*
X197845821Y-43351285D01*
X197713679Y-43274992D01*
X197713674Y-43274990D01*
X197566295Y-43235500D01*
X197566293Y-43235500D01*
X197413707Y-43235500D01*
X197413705Y-43235500D01*
X197266325Y-43274990D01*
X197266320Y-43274992D01*
X197134178Y-43351285D01*
X197026285Y-43459178D01*
X196949992Y-43591320D01*
X196949990Y-43591325D01*
X196910500Y-43738704D01*
X192289499Y-43738704D01*
X192250009Y-43591325D01*
X192250007Y-43591320D01*
X192188879Y-43485444D01*
X192173715Y-43459179D01*
X192065821Y-43351285D01*
X191933679Y-43274992D01*
X191933674Y-43274990D01*
X191786295Y-43235500D01*
X191786293Y-43235500D01*
X191633707Y-43235500D01*
X191633705Y-43235500D01*
X191486325Y-43274990D01*
X191486320Y-43274992D01*
X191354178Y-43351285D01*
X191317122Y-43388341D01*
X191264796Y-43410014D01*
X191212470Y-43388339D01*
X191196430Y-43364332D01*
X191166191Y-43291326D01*
X191056753Y-43127540D01*
X190917459Y-42988246D01*
X190753675Y-42878809D01*
X190571691Y-42803429D01*
X190571684Y-42803427D01*
X190530000Y-42795136D01*
X190530000Y-43598011D01*
X190520060Y-43580795D01*
X190464205Y-43524940D01*
X190395796Y-43485444D01*
X190319496Y-43465000D01*
X190240504Y-43465000D01*
X190164204Y-43485444D01*
X190095795Y-43524940D01*
X190039940Y-43580795D01*
X190030000Y-43598011D01*
X190030000Y-42795136D01*
X190029999Y-42795136D01*
X189988315Y-42803427D01*
X189988308Y-42803429D01*
X189806324Y-42878809D01*
X189642540Y-42988246D01*
X189503246Y-43127540D01*
X189393809Y-43291324D01*
X189318430Y-43473306D01*
X189318427Y-43473317D01*
X189280000Y-43666509D01*
X189280000Y-44065000D01*
X189980000Y-44065000D01*
X189980000Y-44565000D01*
X189280000Y-44565000D01*
X189280000Y-44963490D01*
X189318427Y-45156682D01*
X189318430Y-45156693D01*
X189393809Y-45338675D01*
X189503246Y-45502459D01*
X189642540Y-45641753D01*
X189806324Y-45751190D01*
X189854034Y-45770952D01*
X189894083Y-45811000D01*
X189894083Y-45867637D01*
X189862717Y-45903405D01*
X189800136Y-45939536D01*
X187486847Y-48252826D01*
X187434521Y-48274500D01*
X185817253Y-48274500D01*
X185764928Y-48252826D01*
X185751613Y-48239511D01*
X185751610Y-48239509D01*
X185751609Y-48239508D01*
X185648887Y-48180201D01*
X185648882Y-48180199D01*
X185534311Y-48149500D01*
X185534309Y-48149500D01*
X185415691Y-48149500D01*
X185415689Y-48149500D01*
X185301117Y-48180199D01*
X185301112Y-48180201D01*
X185198390Y-48239508D01*
X185198387Y-48239510D01*
X185198387Y-48239511D01*
X185185071Y-48252826D01*
X185132747Y-48274500D01*
X181642253Y-48274500D01*
X181589928Y-48252826D01*
X181576613Y-48239511D01*
X181576610Y-48239509D01*
X181576609Y-48239508D01*
X181473887Y-48180201D01*
X181473882Y-48180199D01*
X181359311Y-48149500D01*
X181359309Y-48149500D01*
X181240691Y-48149500D01*
X181240689Y-48149500D01*
X181126117Y-48180199D01*
X181126112Y-48180201D01*
X181023390Y-48239508D01*
X180939508Y-48323390D01*
X180880201Y-48426112D01*
X180880199Y-48426117D01*
X180849500Y-48540688D01*
X169780304Y-48540688D01*
X169097174Y-47857558D01*
X169075500Y-47805232D01*
X169075500Y-47340688D01*
X177974500Y-47340688D01*
X177974500Y-47459311D01*
X178005199Y-47573882D01*
X178005201Y-47573887D01*
X178064508Y-47676609D01*
X178064509Y-47676610D01*
X178064511Y-47676613D01*
X178148387Y-47760489D01*
X178148389Y-47760490D01*
X178148390Y-47760491D01*
X178225883Y-47805232D01*
X178251114Y-47819799D01*
X178251115Y-47819799D01*
X178251117Y-47819800D01*
X178298731Y-47832558D01*
X178365688Y-47850499D01*
X178365689Y-47850500D01*
X178365691Y-47850500D01*
X178484311Y-47850500D01*
X178484311Y-47850499D01*
X178598886Y-47819799D01*
X178701613Y-47760489D01*
X178785489Y-47676613D01*
X178844799Y-47573886D01*
X178875499Y-47459311D01*
X178875500Y-47459311D01*
X178875500Y-47440478D01*
X178897174Y-47388152D01*
X183963152Y-42322174D01*
X184015478Y-42300500D01*
X204782747Y-42300500D01*
X204835071Y-42322173D01*
X204848387Y-42335489D01*
X204951114Y-42394799D01*
X204951115Y-42394799D01*
X204951117Y-42394800D01*
X205008402Y-42410149D01*
X205065688Y-42425499D01*
X205065689Y-42425500D01*
X205065691Y-42425500D01*
X205084521Y-42425500D01*
X205136847Y-42447174D01*
X206052826Y-43363153D01*
X206074500Y-43415479D01*
X206074500Y-53134521D01*
X206052826Y-53186847D01*
X202586847Y-56652826D01*
X202534521Y-56674500D01*
X202515689Y-56674500D01*
X202401117Y-56705199D01*
X202401112Y-56705201D01*
X202298390Y-56764508D01*
X202214508Y-56848390D01*
X202155201Y-56951112D01*
X202155199Y-56951117D01*
X202124500Y-57065688D01*
X202124500Y-57184311D01*
X202155199Y-57298882D01*
X202155201Y-57298887D01*
X202214508Y-57401609D01*
X202214509Y-57401610D01*
X202214511Y-57401613D01*
X202298387Y-57485489D01*
X202298389Y-57485490D01*
X202298390Y-57485491D01*
X202401112Y-57544798D01*
X202401114Y-57544799D01*
X202401115Y-57544799D01*
X202401117Y-57544800D01*
X202458402Y-57560149D01*
X202515688Y-57575499D01*
X202515689Y-57575500D01*
X202515691Y-57575500D01*
X202534521Y-57575500D01*
X202586847Y-57597174D01*
X204825138Y-59835465D01*
X204825140Y-59835466D01*
X204825141Y-59835467D01*
X204845257Y-59847081D01*
X204899361Y-59878318D01*
X204982147Y-59900500D01*
X205788442Y-59900500D01*
X205840768Y-59922174D01*
X205854922Y-59941998D01*
X205857551Y-59947375D01*
X205942625Y-60032449D01*
X206050714Y-60085291D01*
X206120785Y-60095500D01*
X206584214Y-60095499D01*
X206654280Y-60085292D01*
X206654281Y-60085291D01*
X206654286Y-60085291D01*
X206762375Y-60032449D01*
X206847449Y-59947375D01*
X206883520Y-59873590D01*
X206925972Y-59836103D01*
X206982501Y-59839612D01*
X207016479Y-59873590D01*
X207052551Y-59947375D01*
X207137625Y-60032449D01*
X207245714Y-60085291D01*
X207315785Y-60095500D01*
X207779214Y-60095499D01*
X207849280Y-60085292D01*
X207849281Y-60085291D01*
X207849286Y-60085291D01*
X207957375Y-60032449D01*
X208042449Y-59947375D01*
X208069521Y-59891998D01*
X208111974Y-59854509D01*
X208136002Y-59850500D01*
X208391738Y-59850500D01*
X208444064Y-59872174D01*
X208460104Y-59896181D01*
X208470871Y-59922174D01*
X208523367Y-60048913D01*
X208622151Y-60196753D01*
X208632861Y-60212782D01*
X208772218Y-60352139D01*
X208936086Y-60461632D01*
X209118165Y-60537051D01*
X209311459Y-60575500D01*
X209311461Y-60575500D01*
X209508539Y-60575500D01*
X209508541Y-60575500D01*
X209701835Y-60537051D01*
X209883914Y-60461632D01*
X210047782Y-60352139D01*
X210187139Y-60212782D01*
X210296632Y-60048914D01*
X210372051Y-59866835D01*
X210410500Y-59673541D01*
X210410500Y-59476459D01*
X210372051Y-59283165D01*
X210296632Y-59101086D01*
X210187139Y-58937218D01*
X210047782Y-58797861D01*
X209883914Y-58688368D01*
X209883915Y-58688368D01*
X209883913Y-58688367D01*
X209701839Y-58612950D01*
X209701829Y-58612947D01*
X209572388Y-58587200D01*
X209508541Y-58574500D01*
X209311459Y-58574500D01*
X209256662Y-58585399D01*
X209118170Y-58612947D01*
X209118160Y-58612950D01*
X208936086Y-58688367D01*
X208772218Y-58797860D01*
X208772217Y-58797862D01*
X208632862Y-58937217D01*
X208632860Y-58937218D01*
X208523367Y-59101086D01*
X208481310Y-59202624D01*
X208461894Y-59249500D01*
X208460105Y-59253818D01*
X208420057Y-59293867D01*
X208391738Y-59299500D01*
X208136002Y-59299500D01*
X208083676Y-59277826D01*
X208069521Y-59258001D01*
X208042449Y-59202625D01*
X207957375Y-59117551D01*
X207849286Y-59064709D01*
X207849272Y-59064707D01*
X207779215Y-59054500D01*
X207779214Y-59054500D01*
X207315785Y-59054500D01*
X207245719Y-59064707D01*
X207245715Y-59064708D01*
X207137624Y-59117551D01*
X207052550Y-59202625D01*
X207052550Y-59202626D01*
X207016479Y-59276408D01*
X206974026Y-59313897D01*
X206917497Y-59310386D01*
X206883519Y-59276407D01*
X206847449Y-59202625D01*
X206762375Y-59117551D01*
X206762374Y-59117550D01*
X206762372Y-59117549D01*
X206719498Y-59096588D01*
X206682009Y-59054135D01*
X206678000Y-59030108D01*
X206678000Y-57569890D01*
X206699674Y-57517564D01*
X206719500Y-57503409D01*
X206756152Y-57485491D01*
X206762375Y-57482449D01*
X206847449Y-57397375D01*
X206883520Y-57323590D01*
X206925972Y-57286103D01*
X206982501Y-57289612D01*
X207016479Y-57323590D01*
X207052551Y-57397375D01*
X207137625Y-57482449D01*
X207245714Y-57535291D01*
X207315785Y-57545500D01*
X207779214Y-57545499D01*
X207849280Y-57535292D01*
X207849281Y-57535291D01*
X207849286Y-57535291D01*
X207957375Y-57482449D01*
X208042449Y-57397375D01*
X208069521Y-57341998D01*
X208111974Y-57304509D01*
X208136002Y-57300500D01*
X208387596Y-57300500D01*
X208439922Y-57322174D01*
X208455962Y-57346180D01*
X208461889Y-57360489D01*
X208523367Y-57508913D01*
X208567859Y-57575499D01*
X208632861Y-57672782D01*
X208772218Y-57812139D01*
X208936086Y-57921632D01*
X209118165Y-57997051D01*
X209311459Y-58035500D01*
X209311461Y-58035500D01*
X209508539Y-58035500D01*
X209508541Y-58035500D01*
X209701835Y-57997051D01*
X209883914Y-57921632D01*
X210047782Y-57812139D01*
X210187139Y-57672782D01*
X210296632Y-57508914D01*
X210372051Y-57326835D01*
X210410500Y-57133541D01*
X210410500Y-56936459D01*
X210372051Y-56743165D01*
X210370537Y-56739511D01*
X210296632Y-56561086D01*
X210187139Y-56397218D01*
X210047781Y-56257860D01*
X209883913Y-56148367D01*
X209701839Y-56072950D01*
X209701829Y-56072947D01*
X209572388Y-56047200D01*
X209508541Y-56034500D01*
X209311459Y-56034500D01*
X209256662Y-56045399D01*
X209118170Y-56072947D01*
X209118160Y-56072950D01*
X208936086Y-56148367D01*
X208772218Y-56257860D01*
X208772217Y-56257862D01*
X208632862Y-56397217D01*
X208632860Y-56397218D01*
X208523367Y-56561086D01*
X208464247Y-56703818D01*
X208424199Y-56743867D01*
X208395880Y-56749500D01*
X208136002Y-56749500D01*
X208083676Y-56727826D01*
X208069521Y-56708001D01*
X208042449Y-56652625D01*
X207957375Y-56567551D01*
X207849286Y-56514709D01*
X207849272Y-56514707D01*
X207779215Y-56504500D01*
X207779214Y-56504500D01*
X207315785Y-56504500D01*
X207245719Y-56514707D01*
X207245715Y-56514708D01*
X207137624Y-56567551D01*
X207052550Y-56652625D01*
X207052550Y-56652626D01*
X207016479Y-56726408D01*
X206974026Y-56763897D01*
X206917497Y-56760386D01*
X206883519Y-56726407D01*
X206847449Y-56652625D01*
X206762375Y-56567551D01*
X206654286Y-56514709D01*
X206584215Y-56504500D01*
X206584214Y-56504500D01*
X206120785Y-56504500D01*
X206050719Y-56514707D01*
X206050715Y-56514708D01*
X205942624Y-56567551D01*
X205857551Y-56652624D01*
X205804709Y-56760713D01*
X205794500Y-56830780D01*
X205794500Y-57219214D01*
X205804707Y-57289280D01*
X205804708Y-57289284D01*
X205804709Y-57289286D01*
X205857551Y-57397375D01*
X205942625Y-57482449D01*
X205948843Y-57485489D01*
X205985500Y-57503409D01*
X206022990Y-57545862D01*
X206027000Y-57569890D01*
X206027000Y-59030108D01*
X206005326Y-59082434D01*
X205985502Y-59096588D01*
X205942627Y-59117549D01*
X205942626Y-59117550D01*
X205857551Y-59202624D01*
X205854923Y-59208001D01*
X205812469Y-59245491D01*
X205788442Y-59249500D01*
X205190479Y-59249500D01*
X205138153Y-59227826D01*
X203087652Y-57177325D01*
X203065978Y-57124999D01*
X203087650Y-57072676D01*
X206660465Y-53499862D01*
X206703318Y-53425639D01*
X206722661Y-53353450D01*
X207555500Y-53353450D01*
X207555500Y-53596550D01*
X207556254Y-53602278D01*
X207587230Y-53837569D01*
X207650149Y-54072387D01*
X207743179Y-54296980D01*
X207743180Y-54296983D01*
X207860680Y-54500499D01*
X207864731Y-54507516D01*
X208012722Y-54700380D01*
X208184620Y-54872278D01*
X208377484Y-55020269D01*
X208588016Y-55141819D01*
X208812612Y-55234850D01*
X209047429Y-55297769D01*
X209288450Y-55329500D01*
X209288452Y-55329500D01*
X209531548Y-55329500D01*
X209531550Y-55329500D01*
X209772571Y-55297769D01*
X210007388Y-55234850D01*
X210231984Y-55141819D01*
X210442516Y-55020269D01*
X210635380Y-54872278D01*
X210807278Y-54700380D01*
X210955269Y-54507516D01*
X211076819Y-54296984D01*
X211169850Y-54072388D01*
X211232769Y-53837571D01*
X211264500Y-53596550D01*
X211264500Y-53353450D01*
X211232769Y-53112429D01*
X211169850Y-52877612D01*
X211076819Y-52653016D01*
X210955269Y-52442484D01*
X210807278Y-52249620D01*
X210635380Y-52077722D01*
X210442516Y-51929731D01*
X210442517Y-51929731D01*
X210442515Y-51929730D01*
X210231983Y-51808180D01*
X210231980Y-51808179D01*
X210007387Y-51715149D01*
X209772569Y-51652230D01*
X209595010Y-51628854D01*
X209531550Y-51620500D01*
X209288450Y-51620500D01*
X209232372Y-51627882D01*
X209047430Y-51652230D01*
X208812612Y-51715149D01*
X208588019Y-51808179D01*
X208588016Y-51808180D01*
X208377484Y-51929730D01*
X208184615Y-52077726D01*
X208012726Y-52249615D01*
X207864730Y-52442484D01*
X207743180Y-52653016D01*
X207743179Y-52653019D01*
X207650149Y-52877612D01*
X207587230Y-53112430D01*
X207562603Y-53299500D01*
X207555500Y-53353450D01*
X206722661Y-53353450D01*
X206725500Y-53342853D01*
X206725500Y-53257147D01*
X206725500Y-43207147D01*
X206725500Y-43207145D01*
X206725499Y-43207144D01*
X206704169Y-43127540D01*
X206703318Y-43124362D01*
X206660465Y-43050138D01*
X206599862Y-42989535D01*
X205597174Y-41986847D01*
X205575500Y-41934521D01*
X205575500Y-41915689D01*
X205575499Y-41915688D01*
X205544800Y-41801117D01*
X205544798Y-41801112D01*
X205485491Y-41698390D01*
X205485490Y-41698389D01*
X205485489Y-41698387D01*
X205401613Y-41614511D01*
X205401610Y-41614509D01*
X205401609Y-41614508D01*
X205298887Y-41555201D01*
X205298882Y-41555199D01*
X205184311Y-41524500D01*
X205184309Y-41524500D01*
X205065691Y-41524500D01*
X205065689Y-41524500D01*
X204951117Y-41555199D01*
X204951112Y-41555201D01*
X204848390Y-41614508D01*
X204848387Y-41614510D01*
X204848387Y-41614511D01*
X204835071Y-41627826D01*
X204782747Y-41649500D01*
X199194197Y-41649500D01*
X199141871Y-41627826D01*
X199120197Y-41575500D01*
X199141871Y-41523174D01*
X199179761Y-41502922D01*
X199211682Y-41496572D01*
X199211693Y-41496569D01*
X199393675Y-41421190D01*
X199557459Y-41311753D01*
X199696753Y-41172459D01*
X199806190Y-41008675D01*
X199881569Y-40826693D01*
X199881572Y-40826682D01*
X199920000Y-40633490D01*
X199920000Y-40385000D01*
X199220000Y-40385000D01*
X199220000Y-39885000D01*
X199920000Y-39885000D01*
X199920000Y-39636509D01*
X199881572Y-39443317D01*
X199881569Y-39443306D01*
X199806190Y-39261324D01*
X199696753Y-39097540D01*
X199557459Y-38958246D01*
X199393675Y-38848809D01*
X199211691Y-38773429D01*
X199211684Y-38773427D01*
X199170000Y-38765136D01*
X199170000Y-39568011D01*
X199160060Y-39550795D01*
X199104205Y-39494940D01*
X199035796Y-39455444D01*
X198959496Y-39435000D01*
X198880504Y-39435000D01*
X198804204Y-39455444D01*
X198735795Y-39494940D01*
X198679940Y-39550795D01*
X198670000Y-39568011D01*
X198670000Y-38765136D01*
X198669999Y-38765136D01*
X198628315Y-38773427D01*
X198628308Y-38773429D01*
X198446324Y-38848809D01*
X198282540Y-38958246D01*
X198143246Y-39097540D01*
X198033809Y-39261324D01*
X197958430Y-39443306D01*
X197958427Y-39443317D01*
X197920000Y-39636509D01*
X197920000Y-39885000D01*
X198620000Y-39885000D01*
X198620000Y-40385000D01*
X197920000Y-40385000D01*
X197920000Y-40633490D01*
X197958427Y-40826682D01*
X197958430Y-40826693D01*
X198033809Y-41008675D01*
X198143246Y-41172459D01*
X198282540Y-41311753D01*
X198446324Y-41421190D01*
X198628306Y-41496569D01*
X198628317Y-41496572D01*
X198660239Y-41502922D01*
X198707332Y-41534387D01*
X198718381Y-41589936D01*
X198686916Y-41637029D01*
X198645803Y-41649500D01*
X190554197Y-41649500D01*
X190501871Y-41627826D01*
X190480197Y-41575500D01*
X190501871Y-41523174D01*
X190539761Y-41502922D01*
X190571682Y-41496572D01*
X190571693Y-41496569D01*
X190753675Y-41421190D01*
X190917459Y-41311753D01*
X191056753Y-41172459D01*
X191166190Y-41008675D01*
X191241569Y-40826693D01*
X191241572Y-40826682D01*
X191280000Y-40633490D01*
X191280000Y-40385000D01*
X190580000Y-40385000D01*
X190580000Y-39885000D01*
X191280000Y-39885000D01*
X191280000Y-39636509D01*
X191241572Y-39443317D01*
X191241569Y-39443306D01*
X191166190Y-39261324D01*
X191056753Y-39097540D01*
X190917459Y-38958246D01*
X190753675Y-38848809D01*
X190571691Y-38773429D01*
X190571684Y-38773427D01*
X190530000Y-38765136D01*
X190530000Y-39568011D01*
X190520060Y-39550795D01*
X190464205Y-39494940D01*
X190395796Y-39455444D01*
X190319496Y-39435000D01*
X190240504Y-39435000D01*
X190164204Y-39455444D01*
X190095795Y-39494940D01*
X190039940Y-39550795D01*
X190030000Y-39568011D01*
X190030000Y-38765136D01*
X190029999Y-38765136D01*
X189988315Y-38773427D01*
X189988308Y-38773429D01*
X189806324Y-38848809D01*
X189642540Y-38958246D01*
X189503246Y-39097540D01*
X189393809Y-39261324D01*
X189318430Y-39443306D01*
X189318427Y-39443317D01*
X189280000Y-39636509D01*
X189280000Y-39885000D01*
X189980000Y-39885000D01*
X189980000Y-40385000D01*
X189280000Y-40385000D01*
X189280000Y-40633490D01*
X189318427Y-40826682D01*
X189318430Y-40826693D01*
X189393809Y-41008675D01*
X189503246Y-41172459D01*
X189642540Y-41311753D01*
X189806324Y-41421190D01*
X189988306Y-41496569D01*
X189988317Y-41496572D01*
X190020239Y-41502922D01*
X190067332Y-41534387D01*
X190078381Y-41589936D01*
X190046916Y-41637029D01*
X190005803Y-41649500D01*
X183897399Y-41649500D01*
X183897383Y-41649499D01*
X183892853Y-41649499D01*
X183807148Y-41649499D01*
X183807146Y-41649499D01*
X183724365Y-41671680D01*
X183724360Y-41671682D01*
X183650137Y-41714535D01*
X178436847Y-46927826D01*
X178384521Y-46949500D01*
X178365689Y-46949500D01*
X178251117Y-46980199D01*
X178251112Y-46980201D01*
X178148390Y-47039508D01*
X178064508Y-47123390D01*
X178005201Y-47226112D01*
X178005199Y-47226117D01*
X177974500Y-47340688D01*
X169075500Y-47340688D01*
X169075500Y-46267253D01*
X169097173Y-46214928D01*
X169160489Y-46151613D01*
X169219799Y-46048886D01*
X169250499Y-45934311D01*
X169250500Y-45934311D01*
X169250500Y-45815689D01*
X169250499Y-45815688D01*
X169246429Y-45800500D01*
X169219799Y-45701114D01*
X169213780Y-45690689D01*
X169160491Y-45598390D01*
X169160490Y-45598389D01*
X169160489Y-45598387D01*
X169076613Y-45514511D01*
X169076610Y-45514509D01*
X169076609Y-45514508D01*
X168973887Y-45455201D01*
X168973882Y-45455199D01*
X168859311Y-45424500D01*
X168859309Y-45424500D01*
X168740691Y-45424500D01*
X168740689Y-45424500D01*
X168626117Y-45455199D01*
X168626112Y-45455201D01*
X168523390Y-45514508D01*
X168439508Y-45598390D01*
X168380201Y-45701112D01*
X168380199Y-45701117D01*
X168349500Y-45815688D01*
X168349500Y-45934311D01*
X168380199Y-46048882D01*
X168380201Y-46048887D01*
X168439508Y-46151609D01*
X168439509Y-46151610D01*
X168439511Y-46151613D01*
X168502826Y-46214928D01*
X168524500Y-46267253D01*
X168524500Y-48004800D01*
X168556088Y-48081058D01*
X168556088Y-48081059D01*
X168566441Y-48106055D01*
X168566444Y-48106059D01*
X172633058Y-52172673D01*
X172654732Y-52224999D01*
X172633058Y-52277325D01*
X166418942Y-58491443D01*
X166341442Y-58568943D01*
X166299500Y-58670200D01*
X166299500Y-67030232D01*
X166277826Y-67082558D01*
X162402559Y-70957826D01*
X162350233Y-70979500D01*
X162168262Y-70979500D01*
X162115936Y-70957826D01*
X162099895Y-70933818D01*
X162036632Y-70781086D01*
X161927139Y-70617218D01*
X161787781Y-70477860D01*
X161623913Y-70368367D01*
X161441839Y-70292950D01*
X161441829Y-70292947D01*
X161312388Y-70267200D01*
X161248541Y-70254500D01*
X161051459Y-70254500D01*
X160996662Y-70265399D01*
X160858170Y-70292947D01*
X160858160Y-70292950D01*
X160676086Y-70368367D01*
X160512218Y-70477860D01*
X160512217Y-70477862D01*
X160372862Y-70617217D01*
X160372860Y-70617218D01*
X160263367Y-70781086D01*
X160187950Y-70963160D01*
X160187947Y-70963170D01*
X160176356Y-71021444D01*
X160149500Y-71156459D01*
X158780500Y-71156459D01*
X158780500Y-68616459D01*
X160149500Y-68616459D01*
X160149500Y-68813541D01*
X160156428Y-68848368D01*
X160187947Y-69006829D01*
X160187950Y-69006839D01*
X160263367Y-69188913D01*
X160324363Y-69280199D01*
X160372861Y-69352782D01*
X160512218Y-69492139D01*
X160676086Y-69601632D01*
X160858165Y-69677051D01*
X161051459Y-69715500D01*
X161051461Y-69715500D01*
X161248539Y-69715500D01*
X161248541Y-69715500D01*
X161441835Y-69677051D01*
X161623914Y-69601632D01*
X161787782Y-69492139D01*
X161927139Y-69352782D01*
X162036632Y-69188914D01*
X162079185Y-69086182D01*
X162119233Y-69046133D01*
X162147552Y-69040500D01*
X162577851Y-69040500D01*
X162577853Y-69040500D01*
X162660639Y-69018318D01*
X162734862Y-68975465D01*
X165799859Y-65910466D01*
X165799862Y-65910465D01*
X165860465Y-65849862D01*
X165903318Y-65775638D01*
X165925184Y-65694034D01*
X165925501Y-65692852D01*
X165925501Y-65607147D01*
X165925500Y-65607143D01*
X165925500Y-54017253D01*
X165947173Y-53964928D01*
X165960489Y-53951613D01*
X166019799Y-53848886D01*
X166050499Y-53734311D01*
X166050500Y-53734311D01*
X166050500Y-53615689D01*
X166050499Y-53615688D01*
X166046904Y-53602273D01*
X166019799Y-53501114D01*
X166018225Y-53498388D01*
X165960491Y-53398390D01*
X165960490Y-53398389D01*
X165960489Y-53398387D01*
X165876613Y-53314511D01*
X165876610Y-53314509D01*
X165876609Y-53314508D01*
X165773887Y-53255201D01*
X165773882Y-53255199D01*
X165659311Y-53224500D01*
X165659309Y-53224500D01*
X165540691Y-53224500D01*
X165540689Y-53224500D01*
X165426117Y-53255199D01*
X165426112Y-53255201D01*
X165323390Y-53314508D01*
X165239508Y-53398390D01*
X165180201Y-53501112D01*
X165180199Y-53501117D01*
X165149500Y-53615688D01*
X165149500Y-53734311D01*
X165180199Y-53848882D01*
X165180201Y-53848887D01*
X165239508Y-53951609D01*
X165239509Y-53951610D01*
X165239511Y-53951613D01*
X165252826Y-53964928D01*
X165274500Y-54017253D01*
X165274500Y-65484521D01*
X165252826Y-65536847D01*
X162421847Y-68367826D01*
X162369521Y-68389500D01*
X162147552Y-68389500D01*
X162095226Y-68367826D01*
X162079185Y-68343818D01*
X162036634Y-68241090D01*
X162036633Y-68241088D01*
X162036632Y-68241086D01*
X161927139Y-68077218D01*
X161787782Y-67937861D01*
X161770202Y-67926114D01*
X161623913Y-67828367D01*
X161441839Y-67752950D01*
X161441829Y-67752947D01*
X161312388Y-67727200D01*
X161248541Y-67714500D01*
X161051459Y-67714500D01*
X160996662Y-67725399D01*
X160858170Y-67752947D01*
X160858160Y-67752950D01*
X160676086Y-67828367D01*
X160512218Y-67937860D01*
X160512217Y-67937862D01*
X160372862Y-68077217D01*
X160372860Y-68077218D01*
X160263367Y-68241086D01*
X160187950Y-68423160D01*
X160187947Y-68423170D01*
X160174206Y-68492253D01*
X160149500Y-68616459D01*
X158780500Y-68616459D01*
X158780500Y-65355253D01*
X160149500Y-65355253D01*
X160149500Y-66994746D01*
X160161133Y-67053232D01*
X160180729Y-67082558D01*
X160205448Y-67119552D01*
X160249560Y-67149027D01*
X160271767Y-67163866D01*
X160271768Y-67163866D01*
X160271769Y-67163867D01*
X160330252Y-67175500D01*
X160330254Y-67175500D01*
X161969746Y-67175500D01*
X161969748Y-67175500D01*
X162028231Y-67163867D01*
X162094552Y-67119552D01*
X162138867Y-67053231D01*
X162150500Y-66994748D01*
X162150500Y-65355252D01*
X162138867Y-65296769D01*
X162094552Y-65230448D01*
X162072343Y-65215608D01*
X162028232Y-65186133D01*
X162028233Y-65186133D01*
X161998989Y-65180316D01*
X161969748Y-65174500D01*
X160330252Y-65174500D01*
X160301010Y-65180316D01*
X160271767Y-65186133D01*
X160205449Y-65230447D01*
X160205447Y-65230449D01*
X160161133Y-65296767D01*
X160149500Y-65355253D01*
X158780500Y-65355253D01*
X158780500Y-52083451D01*
X159295500Y-52083451D01*
X159295500Y-52326548D01*
X159327230Y-52567569D01*
X159390149Y-52802387D01*
X159483179Y-53026980D01*
X159483180Y-53026983D01*
X159604730Y-53237515D01*
X159634329Y-53276088D01*
X159752722Y-53430380D01*
X159924620Y-53602278D01*
X160117484Y-53750269D01*
X160328016Y-53871819D01*
X160552612Y-53964850D01*
X160787429Y-54027769D01*
X161028450Y-54059500D01*
X161028452Y-54059500D01*
X161271548Y-54059500D01*
X161271550Y-54059500D01*
X161512571Y-54027769D01*
X161747388Y-53964850D01*
X161971984Y-53871819D01*
X162182516Y-53750269D01*
X162375380Y-53602278D01*
X162547278Y-53430380D01*
X162695269Y-53237516D01*
X162816819Y-53026984D01*
X162909850Y-52802388D01*
X162972769Y-52567571D01*
X163004500Y-52326550D01*
X163004500Y-52083450D01*
X162972769Y-51842429D01*
X162909850Y-51607612D01*
X162816819Y-51383016D01*
X162695269Y-51172484D01*
X162547278Y-50979620D01*
X162375380Y-50807722D01*
X162182516Y-50659731D01*
X162182517Y-50659731D01*
X162182515Y-50659730D01*
X161971983Y-50538180D01*
X161971980Y-50538179D01*
X161747387Y-50445149D01*
X161512569Y-50382230D01*
X161335010Y-50358854D01*
X161271550Y-50350500D01*
X161028450Y-50350500D01*
X160972372Y-50357882D01*
X160787430Y-50382230D01*
X160552612Y-50445149D01*
X160328019Y-50538179D01*
X160328016Y-50538180D01*
X160117484Y-50659730D01*
X159924615Y-50807726D01*
X159752726Y-50979615D01*
X159604730Y-51172484D01*
X159483180Y-51383016D01*
X159483179Y-51383019D01*
X159390149Y-51607612D01*
X159327230Y-51842430D01*
X159295500Y-52083451D01*
X158780500Y-52083451D01*
X158780500Y-38610824D01*
X158781411Y-38599249D01*
X158782866Y-38590055D01*
X158788431Y-38554923D01*
X158795583Y-38532911D01*
X158813282Y-38498175D01*
X158826884Y-38479453D01*
X158854453Y-38451884D01*
X158873175Y-38438282D01*
X158907911Y-38420583D01*
X158929923Y-38413431D01*
X158965055Y-38407866D01*
X158974249Y-38406411D01*
X158985824Y-38405500D01*
X159027595Y-38405500D01*
X202510438Y-38405500D01*
X211532405Y-38405500D01*
X211574176Y-38405500D01*
X211585751Y-38406411D01*
G37*
%TD.AperFunction*%
%TD*%
M02*
