M48
; DRILL file {KiCad 9.0.4} date 2025-08-29T15:54:21+0200
; FORMAT={-:-/ absolute / inch / decimal}
; #@! TF.CreationDate,2025-08-29T15:54:21+02:00
; #@! TF.GenerationSoftware,Kicad,Pcbnew,9.0.4
; #@! TF.FileFunction,Plated,1,2,PTH
FMAT,2
INCH
; #@! TA.AperFunction,Plated,PTH,ViaDrill
T1C0.0118
; #@! TA.AperFunction,Plated,PTH,ComponentDrill
T2C0.0236
; #@! TA.AperFunction,Plated,PTH,ComponentDrill
T3C0.0394
%
G90
G05
T1
X6.5197Y-2.1132
X6.6457Y-1.8061
X6.6831Y-1.6919
X6.9793Y-1.8327
X7.0246Y-1.8661
X7.1378Y-1.9134
X7.2923Y-2.1309
X7.3022Y-1.9134
X7.3514Y-2.1309
X7.3898Y-2.1309
X7.4301Y-2.1339
X7.4498Y-2.248
X7.4892Y-2.1171
X7.5089Y-2.247
X7.5108Y-1.9144
X7.5492Y-2.1348
X7.5669Y-1.8189
X7.5689Y-2.1161
X7.6083Y-2.2441
X7.628Y-2.128
X7.6772Y-2.6811
X7.6988Y-2.7441
X7.7559Y-1.8189
X7.7608Y-2.503
X7.8445Y-2.3012
X7.9656Y-1.8012
X7.9754Y-2.249
X8.0748Y-1.8819
X8.0758Y-1.6526
X8.2569Y-1.7106
X8.2579Y-1.9213
T3
X6.3445Y-2.6053
X6.3445Y-2.7053
X6.3445Y-2.8053
X6.3445Y-2.9053
X6.3445Y-3.0053
X6.3445Y-3.1053
X6.3445Y-3.2053
X6.3445Y-3.3053
X6.3445Y-3.5053
X6.3445Y-3.6053
X6.3445Y-3.7053
X6.3445Y-3.8053
X6.3445Y-3.9053
X6.3445Y-4.0053
X8.2445Y-2.2455
X8.2445Y-2.3455
X8.2445Y-2.4455
X8.2445Y-2.5455
X8.2445Y-2.6455
X8.2445Y-2.7455
X8.2445Y-2.8455
X8.2445Y-2.9455
X8.2445Y-3.0455
X8.2445Y-3.1455
X8.2445Y-3.3053
X8.2445Y-3.4053
X8.2445Y-3.5053
X8.2445Y-3.6053
X8.2445Y-3.7053
X8.2445Y-3.8053
X8.2445Y-3.9053
X8.2445Y-4.0053
T2
G00X7.4913Y-1.5959
M15
G01X7.4913Y-1.5644
M16
G05
G00X7.4913Y-1.7663
M15
G01X7.4913Y-1.723
M16
G05
G00X7.8315Y-1.5959
M15
G01X7.8315Y-1.5644
M16
G05
G00X7.8315Y-1.7663
M15
G01X7.8315Y-1.723
M16
G05
M30
